<?xml version="1.0" encoding="UTF-8"?>
<svg xmlns="http://www.w3.org/2000/svg" version="1.1" viewBox="0 0 170.15 37.37">
  <!-- Generator: Adobe Illustrator 30.3.0, SVG Export Plug-In . SVG Version: 2.1.3 Build 182)  -->
  <defs>
    <style>
      .st0, .st1 {
        fill: #e1353f;
      }

      .st2 {
        isolation: isolate;
      }

      .st3 {
        fill: none;
        stroke: #fff;
        stroke-linecap: round;
        stroke-linejoin: round;
        stroke-width: 6px;
      }

      .st4 {
        fill: #257ace;
      }

      .st1 {
        mix-blend-mode: multiply;
        opacity: .29;
      }
    </style>
  </defs>
  <g class="st2">
    <g id="_圖層_1" data-name="圖層_1">
      <g>
        <path class="st1" d="M163.7-.41L3.8,2.43-.07,5.16l3.53,3.38-2.9,3.56,3.69,2.59-3.17,4.95,4.11,1.89-4.17,3.78,2.97,2.75-1.8,5.43,3.65.93,1.54,2.54,158.14-2.17,3.13-4.74c-1.09-1.88-2.26-3.35-2.26-3.35l3.69-2.11-3.24-3.84,1.77-2.49-2.67-3.99,1.91-4.21-3.52-2.52,4.07-3.98-4.7-3.96Z"/>
        <g>
          <g>
            <path class="st3" d="M22.26,7.99h9.49c1.73,0,2.6.91,2.6,2.72v14.25c0,1.34-.23,2.2-.68,2.55-.44.62-1.18.94-2.23.94-1.5-.02-3.16-.21-4.97-.59-.34-.12-.62-.34-.82-.63s-.3-.67-.3-1.12c.03-.42.15-.76.35-1.01s.5-.38.89-.4c.23,0,.48.03.75.09,1.09.25,2.05.38,2.88.38.58,0,.87-.19.87-.56v-3.19h-11.44c-.28,2.23-.76,4.17-1.43,5.81-.12.38-.34.69-.66.94-.23.25-.61.38-1.12.38-.73,0-1.21-.13-1.43-.4-.36-.28-.54-.72-.54-1.31.05-.16.12-.37.21-.63.95-1.81,1.56-3.65,1.83-5.51.09-1.58.14-3.02.14-4.34v-5.74c0-1.75.9-2.62,2.7-2.62h2.91ZM31.09,18.61v-2.34h-11.16v.09c0,.77-.02,1.52-.07,2.25h11.23ZM31.09,13.45v-1.22c0-.75-.31-1.12-.94-1.12h-9.47c-.5,0-.75.21-.75.63v1.71h11.16Z"/>
            <path class="st3" d="M40.07,7.99h7.71c.58,0,.99.12,1.24.35.22.19.33.58.33,1.17,0,.48-.09.84-.28,1.08-.28.34-.71.52-1.29.52h-2.16v4.76h2.6c.59,0,1.01.12,1.24.35.25.19.38.58.38,1.17,0,.48-.09.84-.28,1.08-.3.33-.74.49-1.34.49h-2.6v7.88c0,.61-.15,1.04-.45,1.29-.25.28-.66.42-1.24.42s-.98-.14-1.27-.42c-.3-.27-.45-.7-.45-1.29v-7.88h-2.51c-.53,0-.95-.12-1.24-.35-.25-.22-.38-.62-.38-1.22s.12-.97.38-1.17c.27-.23.68-.35,1.24-.35h2.51v-4.76h-2.16c-.53,0-.93-.12-1.2-.38-.27-.23-.4-.64-.4-1.22s.13-.97.4-1.17c.25-.23.65-.35,1.2-.35ZM52.09,7.9c.45,0,.81.13,1.08.4.28.23.42.58.42,1.03v12c0,.36-.1.66-.3.91-.23.33-.63.49-1.2.49-.48,0-.85-.16-1.1-.49-.2-.25-.3-.55-.3-.91v-12c0-.45.13-.8.4-1.03.2-.27.54-.4,1.01-.4ZM57.41,6.68c1.05,0,1.59.44,1.62,1.31v17.91c0,.72-.23,1.3-.7,1.73-.45.48-1.1.73-1.95.73-1.33,0-2.57-.19-3.73-.56-.56-.3-.84-.8-.84-1.5,0-1.08.41-1.67,1.22-1.78.11,0,.23.02.38.07.66.22,1.27.34,1.85.38.45,0,.68-.24.68-.73V7.99c.02-.81.51-1.25,1.48-1.31Z"/>
            <path class="st3" d="M66.18,11.58l.05.84h2.37c.28,0,.47.05.56.16.11.12.16.35.16.68,0,.27-.04.47-.12.61-.12.16-.33.23-.61.23h-2.25l.07.91h3.56c-.11-.06-.21-.16-.3-.3-.09-.19-.14-.39-.14-.61,0-.27.12-.48.38-.66.58-.16,1.17-.38,1.78-.66-.48-.28-.94-.55-1.36-.82-.11-.03-.2-.08-.26-.14-.11-.11-.16-.26-.16-.45s.03-.35.09-.49c-.09-.06-.18-.16-.26-.28-.08-.16-.12-.34-.12-.56s.12-.4.38-.54c.48-.14.98-.34,1.48-.59-.38-.22-.73-.41-1.08-.59-.09-.05-.17-.09-.23-.14-.11-.14-.16-.3-.16-.49,0-.31.09-.56.28-.75s.44-.28.75-.28c.23,0,.44.04.61.12.64.31,1.25.63,1.83.96.44-.31.81-.64,1.12-.98.14-.12.32-.19.54-.19.23,0,.45.08.66.23.2.19.3.4.3.63,0,.27-.09.52-.28.75-.22.2-.45.4-.7.59.38.27.73.54,1.05.82.19.2.28.45.28.75,0,.23-.06.44-.19.61.06.14.09.28.09.42,0,.27-.09.52-.26.75-.23.23-.5.46-.8.68.38.27.73.54,1.05.82.2.2.3.45.3.75,0,.23-.09.44-.26.61l-.02.02h2.86c.03-.33.07-.63.12-.91h-1.76c-.27,0-.45-.07-.56-.21-.12-.12-.19-.34-.19-.63,0-.33.07-.56.21-.7.12-.09.3-.14.54-.14h1.97c.03-.31.06-.59.09-.84h-1.97c-.27,0-.45-.07-.56-.21-.12-.11-.19-.33-.19-.66,0-.3.07-.53.21-.7.12-.09.3-.14.54-.14h2.18c.05-.44.07-.68.07-.73,0-.14-.09-.21-.28-.21h-2.18c-.33,0-.57-.09-.73-.28-.12-.14-.19-.42-.19-.84,0-.34.07-.61.21-.8.14-.16.38-.23.7-.23h2.37c1.03,0,1.74.13,2.13.4.45.27.68.76.68,1.48,0,.31-.23,2.45-.7,6.4,1.16.12,1.73.71,1.73,1.76v1.71c0,.53-.15.9-.45,1.1-.27.25-.65.38-1.15.38-.62,0-1.06-.12-1.31-.35-.2-.19-.3-.48-.3-.87v-1.29c0-.19-.15-.28-.45-.28h-14.06c-.25,0-.38.09-.38.28v1.29c0,.48-.12.8-.35.94-.25.19-.66.28-1.24.28-.55,0-.95-.12-1.2-.35-.28-.27-.42-.64-.42-1.12v-1.71c0-.98.51-1.55,1.52-1.71l-.38-6.26c0-.7.37-1.19,1.1-1.45.83-.3,1.53-.53,2.11-.7.23-.06.44-.09.61-.09.34,0,.67.14.98.42.3.28.45.55.45.8,0,.42-.16.67-.47.75-.28.19-.82.38-1.62.56-.44.17-.66.39-.66.66l.02.09h2.41c.3,0,.49.06.59.19.11.14.16.36.16.66s-.04.51-.12.63c-.12.16-.34.23-.63.23h-2.3ZM67.45,18.02h10.52c1.23.06,1.89.6,1.97,1.62,0,.41-.16.82-.49,1.24-.19.34-.45.67-.8.98h3.7c.48,0,.83.1,1.03.3.2.14.3.45.3.94,0,.39-.09.69-.26.89-.22.28-.58.42-1.08.42h-6.75c.08.47.12.91.12,1.31-.02.92-.29,1.63-.82,2.13-.55.5-1.18.76-1.9.77-1.75-.02-3.01-.17-3.77-.47-.69-.19-1.03-.63-1.03-1.34.02-.39.12-.7.33-.94.17-.22.47-.34.89-.35.16,0,.55.08,1.17.23.59.14,1.09.21,1.48.21.31,0,.47-.21.47-.63,0-.2-.08-.52-.23-.94h-8.58c-.45,0-.79-.1-1.01-.3-.22-.19-.33-.52-.33-1.01s.11-.78.33-.94c.2-.2.54-.3,1.01-.3h7.9c.06-.3.22-.51.47-.63.34-.2.73-.3,1.17-.3.67.02,1.12.21,1.34.59.06.11.12.22.16.33,1.06-.47,1.59-.89,1.59-1.27,0-.12-.09-.19-.26-.19h-8.65c-.72-.05-1.09-.45-1.12-1.22.03-.72.41-1.1,1.12-1.15ZM70.94,15.02h3.96s-.03-.02-.05-.02c-.5-.36-.98-.7-1.43-1.03-.84.45-1.67.8-2.48,1.05ZM71.66,10.66c.69.33,1.34.68,1.97,1.05.36-.23.68-.48.96-.73-.52-.36-1-.7-1.45-1.01-.52.27-1.01.49-1.48.68Z"/>
            <path class="st3" d="M94.91,16.94c-.64-.12-.98-.48-1.01-1.08v-1.22c-.39.31-.81.61-1.27.89-1.34.88-2.67,1.55-3.98,2.04-.28.11-.59.16-.94.16s-.63-.2-.91-.61c-.14-.3-.21-.62-.21-.96s.18-.62.54-.84c1.38-.33,2.84-.89,4.38-1.69.95-.53,1.75-1.05,2.39-1.55v-1.57c-.52.45-1.13.89-1.85,1.31-1.09.66-2.16,1.16-3.21,1.52-.28.12-.59.19-.94.19-.31,0-.59-.2-.84-.61-.12-.27-.19-.57-.19-.91s.18-.6.54-.82c1.11-.25,2.29-.66,3.54-1.22l.75-.38h-3.8c-.72-.05-1.09-.48-1.12-1.31.03-.78.41-1.2,1.12-1.24h7.2c1.14,0,1.71.53,1.71,1.59v7.22c-.02.11-.03.21-.05.3.39.03.72.12.98.26l.19.14c-.12-.25-.19-.55-.19-.89,0-.31.18-.59.54-.84,1.19-.28,2.44-.77,3.75-1.48.8-.47,1.46-.93,1.99-1.38v-1.22c-.42.38-.89.73-1.41,1.08-1.08.73-2.15,1.3-3.21,1.71-.27.11-.58.16-.94.16-.28,0-.55-.19-.8-.56-.16-.28-.23-.59-.23-.91s.2-.62.59-.84c1.08-.28,2.23-.74,3.45-1.38.25-.14.48-.27.68-.4h-3.68c-.72-.05-1.09-.48-1.12-1.31.03-.78.41-1.2,1.12-1.24h6.84c1.14,0,1.71.53,1.71,1.59v7.8c-.05.77-.55,1.17-1.5,1.22-.95-.05-1.45-.45-1.5-1.22v-1.88c-.27.2-.55.41-.87.61-1.17.8-2.32,1.4-3.45,1.8-.28.14-.59.21-.94.21-.22,0-.42-.1-.61-.3.08.16.12.32.12.49,0,.11-.06.39-.19.84h6.38c1.25,0,1.88.62,1.88,1.88v6c0,1.23-.62,1.85-1.88,1.85h-14.6c-1.25,0-1.88-.62-1.88-1.85v-6c0-1.25.62-1.88,1.88-1.88h4.64c.09-.34.2-.72.33-1.12.02-.06.04-.12.07-.16ZM91.35,21.96h11.81v-.82c0-.27-.12-.4-.35-.4h-11.06c-.27,0-.4.13-.4.4v.82ZM102.81,25.45c.23,0,.35-.13.35-.4v-1.03h-11.81v1.03c0,.27.13.4.4.4h11.06Z"/>
            <path class="st3" d="M112.84,6.96h8.41c1.08,0,1.62.54,1.62,1.62v4.1c0,1.08-.54,1.62-1.62,1.62h-2.41v.84h4.29c.36,0,.62.08.77.23.17.12.26.42.26.89,0,.36-.05.61-.14.75-.17.25-.47.38-.89.38h-12c-.3,0-.54-.09-.73-.26-.2-.17-.3-.46-.3-.87,0-.45.1-.76.3-.91.14-.14.38-.21.73-.21h4.22v-.84h-2.51c-1.08,0-1.62-.54-1.62-1.62v-4.1c0-1.08.54-1.62,1.62-1.62ZM112.45,23.67c.34,0,.65.09.91.26.28.17.42.45.42.84-.03.23-.09.48-.19.75-.34.91-.66,1.6-.94,2.09-.16.44-.57.66-1.24.66-.3,0-.61-.16-.94-.47-.25-.16-.38-.45-.38-.87,0-.12.07-.27.21-.42.44-.59.8-1.29,1.1-2.09.14-.5.48-.75,1.03-.75ZM112.84,18.23h8.6c.95,0,1.43.47,1.43,1.41v2.32c0,.95-.48,1.43-1.43,1.43h-2.6v3c-.12,1.36-1.26,2.08-3.4,2.16-.2,0-.41-.02-.61-.05-.2-.05-.41-.12-.61-.21-.16-.11-.29-.27-.4-.49-.03-.2-.05-.39-.05-.56,0-.44.09-.77.26-1.01.2-.22.64-.33,1.31-.33.2,0,.3-.09.3-.26v-2.25h-2.81c-.95,0-1.43-.48-1.43-1.43v-2.32c0-.94.48-1.41,1.43-1.41ZM114.04,9.86h6.02v-.26c0-.39-.2-.59-.59-.59h-4.85c-.39,0-.59.2-.59.59v.26ZM119.48,12.23c.39,0,.59-.2.59-.59v-.26h-6.02v.26c0,.39.2.59.59.59h4.85ZM119.48,21.42c.33,0,.49-.16.49-.49v-.26c0-.31-.16-.47-.49-.47h-4.66c-.33,0-.49.16-.49.47v.26c0,.33.16.49.49.49h4.66ZM120.81,23.67c.34,0,.62.09.84.26.28.28.66.77,1.12,1.45.5.78.75,1.3.75,1.55,0,.34-.06.56-.19.66-.33.39-.73.59-1.22.59-.41,0-.7-.16-.87-.47-.45-.89-.99-1.76-1.62-2.6-.11-.16-.16-.29-.16-.4,0-.38.16-.66.47-.84.27-.12.55-.19.87-.19ZM129.72,6.77c.36.02.72.16,1.08.45.41.31.6.64.59.98,0,.31-.09.59-.26.82-1.17,1.53-2.77,2.94-4.8,4.22-.39.31-.88.47-1.48.47-.48,0-.91-.18-1.27-.54-.3-.34-.45-.73-.45-1.15,0-.14.13-.35.4-.63.5-.33.96-.64,1.38-.94,1.53-1.16,2.8-2.23,3.8-3.21.25-.25.59-.41,1.01-.47ZM130.09,13.05c.36.03.72.18,1.08.45.42.3.62.62.61.98,0,.31-.1.59-.3.84-1.11,1.52-2.65,2.91-4.62,4.2-.39.31-.88.47-1.48.47-.48,0-.92-.19-1.31-.56-.3-.36-.45-.76-.45-1.2,0-.19.12-.44.38-.75.5-.31.95-.61,1.34-.89,1.53-1.12,2.78-2.16,3.75-3.09.25-.23.59-.38,1.01-.45ZM130.45,19.71c.38.02.74.16,1.1.45.42.31.62.64.61.98,0,.31-.09.59-.28.82-1.2,1.84-2.85,3.53-4.95,5.06-.41.39-.92.59-1.55.59-.48,0-.92-.2-1.31-.61-.3-.34-.45-.74-.45-1.2,0-.17.12-.42.38-.75.53-.36,1-.71,1.41-1.05,1.64-1.36,2.97-2.61,3.98-3.75.28-.28.63-.46,1.05-.54Z"/>
            <path class="st3" d="M145.09,6.68c.59,0,1.02.12,1.27.35.34.3.52.69.52,1.17v.45h6.94c.48,0,.83.1,1.03.3.19.17.28.51.28,1.01,0,.41-.08.71-.23.91-.23.28-.59.42-1.08.42h-2.2l-.75,2.34h3.8c.47,0,.81.09,1.03.28.19.17.28.51.28,1.01,0,.41-.08.71-.23.91-.25.28-.61.42-1.08.42h-19.34c-.42,0-.75-.11-.98-.33-.22-.17-.33-.51-.33-1.01s.11-.83.33-1.03c.22-.17.55-.26.98-.26h3.89l-.61-2.34h-2.53c-.44,0-.77-.11-.98-.33-.2-.17-.3-.51-.3-1.01s.1-.83.3-1.03c.2-.19.53-.28.98-.28h7.22v-.45c0-.42.17-.82.52-1.2.25-.22.68-.33,1.29-.33ZM138.23,17.67h13.52c1.5,0,2.25.74,2.25,2.23v5.74c0,1.48-.75,2.23-2.25,2.23h-13.52c-1.48,0-2.23-.74-2.23-2.23v-5.74c0-1.48.74-2.23,2.23-2.23ZM139.26,21.61h11.46v-1.12c0-.25-.13-.38-.4-.38h-10.66c-.27,0-.4.12-.4.38v1.12ZM150.32,25.45c.27,0,.4-.13.4-.4v-1.12h-11.46v1.12c0,.27.13.4.4.4h10.66ZM142.59,13.64h4.88l.75-2.34h-6.26l.63,2.34Z"/>
          </g>
          <g>
            <path class="st4" d="M22.26,7.99h9.49c1.73,0,2.6.91,2.6,2.72v14.25c0,1.34-.23,2.2-.68,2.55-.44.62-1.18.94-2.23.94-1.5-.02-3.16-.21-4.97-.59-.34-.12-.62-.34-.82-.63s-.3-.67-.3-1.12c.03-.42.15-.76.35-1.01s.5-.38.89-.4c.23,0,.48.03.75.09,1.09.25,2.05.38,2.88.38.58,0,.87-.19.87-.56v-3.19h-11.44c-.28,2.23-.76,4.17-1.43,5.81-.12.38-.34.69-.66.94-.23.25-.61.38-1.12.38-.73,0-1.21-.13-1.43-.4-.36-.28-.54-.72-.54-1.31.05-.16.12-.37.21-.63.95-1.81,1.56-3.65,1.83-5.51.09-1.58.14-3.02.14-4.34v-5.74c0-1.75.9-2.62,2.7-2.62h2.91ZM31.09,18.61v-2.34h-11.16v.09c0,.77-.02,1.52-.07,2.25h11.23ZM31.09,13.45v-1.22c0-.75-.31-1.12-.94-1.12h-9.47c-.5,0-.75.21-.75.63v1.71h11.16Z"/>
            <path class="st4" d="M40.07,7.99h7.71c.58,0,.99.12,1.24.35.22.19.33.58.33,1.17,0,.48-.09.84-.28,1.08-.28.34-.71.52-1.29.52h-2.16v4.76h2.6c.59,0,1.01.12,1.24.35.25.19.38.58.38,1.17,0,.48-.09.84-.28,1.08-.3.33-.74.49-1.34.49h-2.6v7.88c0,.61-.15,1.04-.45,1.29-.25.28-.66.42-1.24.42s-.98-.14-1.27-.42c-.3-.27-.45-.7-.45-1.29v-7.88h-2.51c-.53,0-.95-.12-1.24-.35-.25-.22-.38-.62-.38-1.22s.12-.97.38-1.17c.27-.23.68-.35,1.24-.35h2.51v-4.76h-2.16c-.53,0-.93-.12-1.2-.38-.27-.23-.4-.64-.4-1.22s.13-.97.4-1.17c.25-.23.65-.35,1.2-.35ZM52.09,7.9c.45,0,.81.13,1.08.4.28.23.42.58.42,1.03v12c0,.36-.1.66-.3.91-.23.33-.63.49-1.2.49-.48,0-.85-.16-1.1-.49-.2-.25-.3-.55-.3-.91v-12c0-.45.13-.8.4-1.03.2-.27.54-.4,1.01-.4ZM57.41,6.68c1.05,0,1.59.44,1.62,1.31v17.91c0,.72-.23,1.3-.7,1.73-.45.48-1.1.73-1.95.73-1.33,0-2.57-.19-3.73-.56-.56-.3-.84-.8-.84-1.5,0-1.08.41-1.67,1.22-1.78.11,0,.23.02.38.07.66.22,1.27.34,1.85.38.45,0,.68-.24.68-.73V7.99c.02-.81.51-1.25,1.48-1.31Z"/>
            <path class="st4" d="M66.18,11.58l.05.84h2.37c.28,0,.47.05.56.16.11.12.16.35.16.68,0,.27-.04.47-.12.61-.12.16-.33.23-.61.23h-2.25l.07.91h3.56c-.11-.06-.21-.16-.3-.3-.09-.19-.14-.39-.14-.61,0-.27.12-.48.38-.66.58-.16,1.17-.38,1.78-.66-.48-.28-.94-.55-1.36-.82-.11-.03-.2-.08-.26-.14-.11-.11-.16-.26-.16-.45s.03-.35.09-.49c-.09-.06-.18-.16-.26-.28-.08-.16-.12-.34-.12-.56s.12-.4.38-.54c.48-.14.98-.34,1.48-.59-.38-.22-.73-.41-1.08-.59-.09-.05-.17-.09-.23-.14-.11-.14-.16-.3-.16-.49,0-.31.09-.56.28-.75s.44-.28.75-.28c.23,0,.44.04.61.12.64.31,1.25.63,1.83.96.44-.31.81-.64,1.12-.98.14-.12.32-.19.54-.19.23,0,.45.08.66.23.2.19.3.4.3.63,0,.27-.09.52-.28.75-.22.2-.45.4-.7.59.38.27.73.54,1.05.82.19.2.28.45.28.75,0,.23-.06.44-.19.61.06.14.09.28.09.42,0,.27-.09.52-.26.75-.23.23-.5.46-.8.68.38.27.73.54,1.05.82.2.2.3.45.3.75,0,.23-.09.44-.26.61l-.02.02h2.86c.03-.33.07-.63.12-.91h-1.76c-.27,0-.45-.07-.56-.21-.12-.12-.19-.34-.19-.63,0-.33.07-.56.21-.7.12-.09.3-.14.54-.14h1.97c.03-.31.06-.59.09-.84h-1.97c-.27,0-.45-.07-.56-.21-.12-.11-.19-.33-.19-.66,0-.3.07-.53.21-.7.12-.09.3-.14.54-.14h2.18c.05-.44.07-.68.07-.73,0-.14-.09-.21-.28-.21h-2.18c-.33,0-.57-.09-.73-.28-.12-.14-.19-.42-.19-.84,0-.34.07-.61.21-.8.14-.16.38-.23.7-.23h2.37c1.03,0,1.74.13,2.13.4.45.27.68.76.68,1.48,0,.31-.23,2.45-.7,6.4,1.16.12,1.73.71,1.73,1.76v1.71c0,.53-.15.9-.45,1.1-.27.25-.65.38-1.15.38-.62,0-1.06-.12-1.31-.35-.2-.19-.3-.48-.3-.87v-1.29c0-.19-.15-.28-.45-.28h-14.06c-.25,0-.38.09-.38.28v1.29c0,.48-.12.8-.35.94-.25.19-.66.28-1.24.28-.55,0-.95-.12-1.2-.35-.28-.27-.42-.64-.42-1.12v-1.71c0-.98.51-1.55,1.52-1.71l-.38-6.26c0-.7.37-1.19,1.1-1.45.83-.3,1.53-.53,2.11-.7.23-.06.44-.09.61-.09.34,0,.67.14.98.42.3.28.45.55.45.8,0,.42-.16.67-.47.75-.28.19-.82.38-1.62.56-.44.17-.66.39-.66.66l.02.09h2.41c.3,0,.49.06.59.19.11.14.16.36.16.66s-.04.51-.12.63c-.12.16-.34.23-.63.23h-2.3ZM67.45,18.02h10.52c1.23.06,1.89.6,1.97,1.62,0,.41-.16.82-.49,1.24-.19.34-.45.67-.8.98h3.7c.48,0,.83.1,1.03.3.2.14.3.45.3.94,0,.39-.09.69-.26.89-.22.28-.58.42-1.08.42h-6.75c.08.47.12.91.12,1.31-.02.92-.29,1.63-.82,2.13-.55.5-1.18.76-1.9.77-1.75-.02-3.01-.17-3.77-.47-.69-.19-1.03-.63-1.03-1.34.02-.39.12-.7.33-.94.17-.22.47-.34.89-.35.16,0,.55.08,1.17.23.59.14,1.09.21,1.48.21.31,0,.47-.21.47-.63,0-.2-.08-.52-.23-.94h-8.58c-.45,0-.79-.1-1.01-.3-.22-.19-.33-.52-.33-1.01s.11-.78.33-.94c.2-.2.54-.3,1.01-.3h7.9c.06-.3.22-.51.47-.63.34-.2.73-.3,1.17-.3.67.02,1.12.21,1.34.59.06.11.12.22.16.33,1.06-.47,1.59-.89,1.59-1.27,0-.12-.09-.19-.26-.19h-8.65c-.72-.05-1.09-.45-1.12-1.22.03-.72.41-1.1,1.12-1.15ZM70.94,15.02h3.96s-.03-.02-.05-.02c-.5-.36-.98-.7-1.43-1.03-.84.45-1.67.8-2.48,1.05ZM71.66,10.66c.69.33,1.34.68,1.97,1.05.36-.23.68-.48.96-.73-.52-.36-1-.7-1.45-1.01-.52.27-1.01.49-1.48.68Z"/>
            <path class="st4" d="M94.91,16.94c-.64-.12-.98-.48-1.01-1.08v-1.22c-.39.31-.81.61-1.27.89-1.34.88-2.67,1.55-3.98,2.04-.28.11-.59.16-.94.16s-.63-.2-.91-.61c-.14-.3-.21-.62-.21-.96s.18-.62.54-.84c1.38-.33,2.84-.89,4.38-1.69.95-.53,1.75-1.05,2.39-1.55v-1.57c-.52.45-1.13.89-1.85,1.31-1.09.66-2.16,1.16-3.21,1.52-.28.12-.59.19-.94.19-.31,0-.59-.2-.84-.61-.12-.27-.19-.57-.19-.91s.18-.6.54-.82c1.11-.25,2.29-.66,3.54-1.22l.75-.38h-3.8c-.72-.05-1.09-.48-1.12-1.31.03-.78.41-1.2,1.12-1.24h7.2c1.14,0,1.71.53,1.71,1.59v7.22c-.02.11-.03.21-.05.3.39.03.72.12.98.26l.19.14c-.12-.25-.19-.55-.19-.89,0-.31.18-.59.54-.84,1.19-.28,2.44-.77,3.75-1.48.8-.47,1.46-.93,1.99-1.38v-1.22c-.42.38-.89.73-1.41,1.08-1.08.73-2.15,1.3-3.21,1.71-.27.11-.58.16-.94.16-.28,0-.55-.19-.8-.56-.16-.28-.23-.59-.23-.91s.2-.62.59-.84c1.08-.28,2.23-.74,3.45-1.38.25-.14.48-.27.68-.4h-3.68c-.72-.05-1.09-.48-1.12-1.31.03-.78.41-1.2,1.12-1.24h6.84c1.14,0,1.71.53,1.71,1.59v7.8c-.05.77-.55,1.17-1.5,1.22-.95-.05-1.45-.45-1.5-1.22v-1.88c-.27.2-.55.41-.87.61-1.17.8-2.32,1.4-3.45,1.8-.28.14-.59.21-.94.21-.22,0-.42-.1-.61-.3.08.16.12.32.12.49,0,.11-.06.39-.19.84h6.38c1.25,0,1.88.62,1.88,1.88v6c0,1.23-.62,1.85-1.88,1.85h-14.6c-1.25,0-1.88-.62-1.88-1.85v-6c0-1.25.62-1.88,1.88-1.88h4.64c.09-.34.2-.72.33-1.12.02-.06.04-.12.07-.16ZM91.35,21.96h11.81v-.82c0-.27-.12-.4-.35-.4h-11.06c-.27,0-.4.13-.4.4v.82ZM102.81,25.45c.23,0,.35-.13.35-.4v-1.03h-11.81v1.03c0,.27.13.4.4.4h11.06Z"/>
            <path class="st4" d="M112.84,6.96h8.41c1.08,0,1.62.54,1.62,1.62v4.1c0,1.08-.54,1.62-1.62,1.62h-2.41v.84h4.29c.36,0,.62.08.77.23.17.12.26.42.26.89,0,.36-.05.61-.14.75-.17.25-.47.38-.89.38h-12c-.3,0-.54-.09-.73-.26-.2-.17-.3-.46-.3-.87,0-.45.1-.76.3-.91.14-.14.38-.21.73-.21h4.22v-.84h-2.51c-1.08,0-1.62-.54-1.62-1.62v-4.1c0-1.08.54-1.62,1.62-1.62ZM112.45,23.67c.34,0,.65.09.91.26.28.17.42.45.42.84-.03.23-.09.48-.19.75-.34.91-.66,1.6-.94,2.09-.16.44-.57.66-1.24.66-.3,0-.61-.16-.94-.47-.25-.16-.38-.45-.38-.87,0-.12.07-.27.21-.42.44-.59.8-1.29,1.1-2.09.14-.5.48-.75,1.03-.75ZM112.84,18.23h8.6c.95,0,1.43.47,1.43,1.41v2.32c0,.95-.48,1.43-1.43,1.43h-2.6v3c-.12,1.36-1.26,2.08-3.4,2.16-.2,0-.41-.02-.61-.05-.2-.05-.41-.12-.61-.21-.16-.11-.29-.27-.4-.49-.03-.2-.05-.39-.05-.56,0-.44.09-.77.26-1.01.2-.22.64-.33,1.31-.33.2,0,.3-.09.3-.26v-2.25h-2.81c-.95,0-1.43-.48-1.43-1.43v-2.32c0-.94.48-1.41,1.43-1.41ZM114.04,9.86h6.02v-.26c0-.39-.2-.59-.59-.59h-4.85c-.39,0-.59.2-.59.59v.26ZM119.48,12.23c.39,0,.59-.2.59-.59v-.26h-6.02v.26c0,.39.2.59.59.59h4.85ZM119.48,21.42c.33,0,.49-.16.49-.49v-.26c0-.31-.16-.47-.49-.47h-4.66c-.33,0-.49.16-.49.47v.26c0,.33.16.49.49.49h4.66ZM120.81,23.67c.34,0,.62.09.84.26.28.28.66.77,1.12,1.45.5.78.75,1.3.75,1.55,0,.34-.06.56-.19.66-.33.39-.73.59-1.22.59-.41,0-.7-.16-.87-.47-.45-.89-.99-1.76-1.62-2.6-.11-.16-.16-.29-.16-.4,0-.38.16-.66.47-.84.27-.12.55-.19.87-.19ZM129.72,6.77c.36.02.72.16,1.08.45.41.31.6.64.59.98,0,.31-.09.59-.26.82-1.17,1.53-2.77,2.94-4.8,4.22-.39.31-.88.47-1.48.47-.48,0-.91-.18-1.27-.54-.3-.34-.45-.73-.45-1.15,0-.14.13-.35.4-.63.5-.33.96-.64,1.38-.94,1.53-1.16,2.8-2.23,3.8-3.21.25-.25.59-.41,1.01-.47ZM130.09,13.05c.36.03.72.18,1.08.45.42.3.62.62.61.98,0,.31-.1.59-.3.84-1.11,1.52-2.65,2.91-4.62,4.2-.39.31-.88.47-1.48.47-.48,0-.92-.19-1.31-.56-.3-.36-.45-.76-.45-1.2,0-.19.12-.44.38-.75.5-.31.95-.61,1.34-.89,1.53-1.12,2.78-2.16,3.75-3.09.25-.23.59-.38,1.01-.45ZM130.45,19.71c.38.02.74.16,1.1.45.42.31.62.64.61.98,0,.31-.09.59-.28.82-1.2,1.84-2.85,3.53-4.95,5.06-.41.39-.92.59-1.55.59-.48,0-.92-.2-1.31-.61-.3-.34-.45-.74-.45-1.2,0-.17.12-.42.38-.75.53-.36,1-.71,1.41-1.05,1.64-1.36,2.97-2.61,3.98-3.75.28-.28.63-.46,1.05-.54Z"/>
            <path class="st4" d="M145.09,6.68c.59,0,1.02.12,1.27.35.34.3.52.69.52,1.17v.45h6.94c.48,0,.83.1,1.03.3.19.17.28.51.28,1.01,0,.41-.08.71-.23.91-.23.28-.59.42-1.08.42h-2.2l-.75,2.34h3.8c.47,0,.81.09,1.03.28.19.17.28.51.28,1.01,0,.41-.08.71-.23.91-.25.28-.61.42-1.08.42h-19.34c-.42,0-.75-.11-.98-.33-.22-.17-.33-.51-.33-1.01s.11-.83.33-1.03c.22-.17.55-.26.98-.26h3.89l-.61-2.34h-2.53c-.44,0-.77-.11-.98-.33-.2-.17-.3-.51-.3-1.01s.1-.83.3-1.03c.2-.19.53-.28.98-.28h7.22v-.45c0-.42.17-.82.52-1.2.25-.22.68-.33,1.29-.33ZM138.23,17.67h13.52c1.5,0,2.25.74,2.25,2.23v5.74c0,1.48-.75,2.23-2.25,2.23h-13.52c-1.48,0-2.23-.74-2.23-2.23v-5.74c0-1.48.74-2.23,2.23-2.23ZM139.26,21.61h11.46v-1.12c0-.25-.13-.38-.4-.38h-10.66c-.27,0-.4.12-.4.38v1.12ZM150.32,25.45c.27,0,.4-.13.4-.4v-1.12h-11.46v1.12c0,.27.13.4.4.4h10.66ZM142.59,13.64h4.88l.75-2.34h-6.26l.63,2.34Z"/>
          </g>
          <g>
            <path class="st0" d="M22.26,7.99h9.49c1.73,0,2.6.91,2.6,2.72v14.25c0,1.34-.23,2.2-.68,2.55-.44.62-1.18.94-2.23.94-1.5-.02-3.16-.21-4.97-.59-.34-.12-.62-.34-.82-.63s-.3-.67-.3-1.12c.03-.42.15-.76.35-1.01s.5-.38.89-.4c.23,0,.48.03.75.09,1.09.25,2.05.38,2.88.38.58,0,.87-.19.87-.56v-3.19h-11.44c-.28,2.23-.76,4.17-1.43,5.81-.12.38-.34.69-.66.94-.23.25-.61.38-1.12.38-.73,0-1.21-.13-1.43-.4-.36-.28-.54-.72-.54-1.31.05-.16.12-.37.21-.63.95-1.81,1.56-3.65,1.83-5.51.09-1.58.14-3.02.14-4.34v-5.74c0-1.75.9-2.62,2.7-2.62h2.91ZM31.09,18.61v-2.34h-11.16v.09c0,.77-.02,1.52-.07,2.25h11.23ZM31.09,13.45v-1.22c0-.75-.31-1.12-.94-1.12h-9.47c-.5,0-.75.21-.75.63v1.71h11.16Z"/>
            <path class="st0" d="M40.07,7.99h7.71c.58,0,.99.12,1.24.35.22.19.33.58.33,1.17,0,.48-.09.84-.28,1.08-.28.34-.71.52-1.29.52h-2.16v4.76h2.6c.59,0,1.01.12,1.24.35.25.19.38.58.38,1.17,0,.48-.09.84-.28,1.08-.3.33-.74.49-1.34.49h-2.6v7.88c0,.61-.15,1.04-.45,1.29-.25.28-.66.42-1.24.42s-.98-.14-1.27-.42c-.3-.27-.45-.7-.45-1.29v-7.88h-2.51c-.53,0-.95-.12-1.24-.35-.25-.22-.38-.62-.38-1.22s.12-.97.38-1.17c.27-.23.68-.35,1.24-.35h2.51v-4.76h-2.16c-.53,0-.93-.12-1.2-.38-.27-.23-.4-.64-.4-1.22s.13-.97.4-1.17c.25-.23.65-.35,1.2-.35ZM52.09,7.9c.45,0,.81.13,1.08.4.28.23.42.58.42,1.03v12c0,.36-.1.66-.3.91-.23.33-.63.49-1.2.49-.48,0-.85-.16-1.1-.49-.2-.25-.3-.55-.3-.91v-12c0-.45.13-.8.4-1.03.2-.27.54-.4,1.01-.4ZM57.41,6.68c1.05,0,1.59.44,1.62,1.31v17.91c0,.72-.23,1.3-.7,1.73-.45.48-1.1.73-1.95.73-1.33,0-2.57-.19-3.73-.56-.56-.3-.84-.8-.84-1.5,0-1.08.41-1.67,1.22-1.78.11,0,.23.02.38.07.66.22,1.27.34,1.85.38.45,0,.68-.24.68-.73V7.99c.02-.81.51-1.25,1.48-1.31Z"/>
            <path class="st0" d="M66.18,11.58l.05.84h2.37c.28,0,.47.05.56.16.11.12.16.35.16.68,0,.27-.04.47-.12.61-.12.16-.33.23-.61.23h-2.25l.07.91h3.56c-.11-.06-.21-.16-.3-.3-.09-.19-.14-.39-.14-.61,0-.27.12-.48.38-.66.58-.16,1.17-.38,1.78-.66-.48-.28-.94-.55-1.36-.82-.11-.03-.2-.08-.26-.14-.11-.11-.16-.26-.16-.45s.03-.35.09-.49c-.09-.06-.18-.16-.26-.28-.08-.16-.12-.34-.12-.56s.12-.4.38-.54c.48-.14.98-.34,1.48-.59-.38-.22-.73-.41-1.08-.59-.09-.05-.17-.09-.23-.14-.11-.14-.16-.3-.16-.49,0-.31.09-.56.28-.75s.44-.28.75-.28c.23,0,.44.04.61.12.64.31,1.25.63,1.83.96.44-.31.81-.64,1.12-.98.14-.12.32-.19.54-.19.23,0,.45.08.66.23.2.19.3.4.3.63,0,.27-.09.52-.28.75-.22.2-.45.4-.7.59.38.27.73.54,1.05.82.19.2.28.45.28.75,0,.23-.06.44-.19.61.06.14.09.28.09.42,0,.27-.09.52-.26.75-.23.23-.5.46-.8.68.38.27.73.54,1.05.82.2.2.3.45.3.75,0,.23-.09.44-.26.61l-.02.02h2.86c.03-.33.07-.63.12-.91h-1.76c-.27,0-.45-.07-.56-.21-.12-.12-.19-.34-.19-.63,0-.33.07-.56.21-.7.12-.09.3-.14.54-.14h1.97c.03-.31.06-.59.09-.84h-1.97c-.27,0-.45-.07-.56-.21-.12-.11-.19-.33-.19-.66,0-.3.07-.53.21-.7.12-.09.3-.14.54-.14h2.18c.05-.44.07-.68.07-.73,0-.14-.09-.21-.28-.21h-2.18c-.33,0-.57-.09-.73-.28-.12-.14-.19-.42-.19-.84,0-.34.07-.61.21-.8.14-.16.38-.23.7-.23h2.37c1.03,0,1.74.13,2.13.4.45.27.68.76.68,1.48,0,.31-.23,2.45-.7,6.4,1.16.12,1.73.71,1.73,1.76v1.71c0,.53-.15.9-.45,1.1-.27.25-.65.38-1.15.38-.62,0-1.06-.12-1.31-.35-.2-.19-.3-.48-.3-.87v-1.29c0-.19-.15-.28-.45-.28h-14.06c-.25,0-.38.09-.38.28v1.29c0,.48-.12.8-.35.94-.25.19-.66.28-1.24.28-.55,0-.95-.12-1.2-.35-.28-.27-.42-.64-.42-1.12v-1.71c0-.98.51-1.55,1.52-1.71l-.38-6.26c0-.7.37-1.19,1.1-1.45.83-.3,1.53-.53,2.11-.7.23-.06.44-.09.61-.09.34,0,.67.14.98.42.3.28.45.55.45.8,0,.42-.16.67-.47.75-.28.19-.82.38-1.62.56-.44.17-.66.39-.66.66l.02.09h2.41c.3,0,.49.06.59.19.11.14.16.36.16.66s-.04.51-.12.63c-.12.16-.34.23-.63.23h-2.3ZM67.45,18.02h10.52c1.23.06,1.89.6,1.97,1.62,0,.41-.16.82-.49,1.24-.19.34-.45.67-.8.98h3.7c.48,0,.83.1,1.03.3.2.14.3.45.3.94,0,.39-.09.69-.26.89-.22.28-.58.42-1.08.42h-6.75c.08.47.12.91.12,1.31-.02.92-.29,1.63-.82,2.13-.55.5-1.18.76-1.9.77-1.75-.02-3.01-.17-3.77-.47-.69-.19-1.03-.63-1.03-1.34.02-.39.12-.7.33-.94.17-.22.47-.34.89-.35.16,0,.55.08,1.17.23.59.14,1.09.21,1.48.21.31,0,.47-.21.47-.63,0-.2-.08-.52-.23-.94h-8.58c-.45,0-.79-.1-1.01-.3-.22-.19-.33-.52-.33-1.01s.11-.78.33-.94c.2-.2.54-.3,1.01-.3h7.9c.06-.3.22-.51.47-.63.34-.2.73-.3,1.17-.3.67.02,1.12.21,1.34.59.06.11.12.22.16.33,1.06-.47,1.59-.89,1.59-1.27,0-.12-.09-.19-.26-.19h-8.65c-.72-.05-1.09-.45-1.12-1.22.03-.72.41-1.1,1.12-1.15ZM70.94,15.02h3.96s-.03-.02-.05-.02c-.5-.36-.98-.7-1.43-1.03-.84.45-1.67.8-2.48,1.05ZM71.66,10.66c.69.33,1.34.68,1.97,1.05.36-.23.68-.48.96-.73-.52-.36-1-.7-1.45-1.01-.52.27-1.01.49-1.48.68Z"/>
            <path class="st0" d="M94.91,16.94c-.64-.12-.98-.48-1.01-1.08v-1.22c-.39.31-.81.61-1.27.89-1.34.88-2.67,1.55-3.98,2.04-.28.11-.59.16-.94.16s-.63-.2-.91-.61c-.14-.3-.21-.62-.21-.96s.18-.62.54-.84c1.38-.33,2.84-.89,4.38-1.69.95-.53,1.75-1.05,2.39-1.55v-1.57c-.52.45-1.13.89-1.85,1.31-1.09.66-2.16,1.16-3.21,1.52-.28.12-.59.19-.94.19-.31,0-.59-.2-.84-.61-.12-.27-.19-.57-.19-.91s.18-.6.54-.82c1.11-.25,2.29-.66,3.54-1.22l.75-.38h-3.8c-.72-.05-1.09-.48-1.12-1.31.03-.78.41-1.2,1.12-1.24h7.2c1.14,0,1.71.53,1.71,1.59v7.22c-.02.11-.03.21-.05.3.39.03.72.12.98.26l.19.14c-.12-.25-.19-.55-.19-.89,0-.31.18-.59.54-.84,1.19-.28,2.44-.77,3.75-1.48.8-.47,1.46-.93,1.99-1.38v-1.22c-.42.38-.89.73-1.41,1.08-1.08.73-2.15,1.3-3.21,1.71-.27.11-.58.16-.94.16-.28,0-.55-.19-.8-.56-.16-.28-.23-.59-.23-.91s.2-.62.59-.84c1.08-.28,2.23-.74,3.45-1.38.25-.14.48-.27.68-.4h-3.68c-.72-.05-1.09-.48-1.12-1.31.03-.78.41-1.2,1.12-1.24h6.84c1.14,0,1.71.53,1.71,1.59v7.8c-.05.77-.55,1.17-1.5,1.22-.95-.05-1.45-.45-1.5-1.22v-1.88c-.27.2-.55.41-.87.61-1.17.8-2.32,1.4-3.45,1.8-.28.14-.59.21-.94.21-.22,0-.42-.1-.61-.3.08.16.12.32.12.49,0,.11-.06.39-.19.84h6.38c1.25,0,1.88.62,1.88,1.88v6c0,1.23-.62,1.85-1.88,1.85h-14.6c-1.25,0-1.88-.62-1.88-1.85v-6c0-1.25.62-1.88,1.88-1.88h4.64c.09-.34.2-.72.33-1.12.02-.06.04-.12.07-.16ZM91.35,21.96h11.81v-.82c0-.27-.12-.4-.35-.4h-11.06c-.27,0-.4.13-.4.4v.82ZM102.81,25.45c.23,0,.35-.13.35-.4v-1.03h-11.81v1.03c0,.27.13.4.4.4h11.06Z"/>
            <path class="st0" d="M112.84,6.96h8.41c1.08,0,1.62.54,1.62,1.62v4.1c0,1.08-.54,1.62-1.62,1.62h-2.41v.84h4.29c.36,0,.62.08.77.23.17.12.26.42.26.89,0,.36-.05.61-.14.75-.17.25-.47.38-.89.38h-12c-.3,0-.54-.09-.73-.26-.2-.17-.3-.46-.3-.87,0-.45.1-.76.3-.91.14-.14.38-.21.73-.21h4.22v-.84h-2.51c-1.08,0-1.62-.54-1.62-1.62v-4.1c0-1.08.54-1.62,1.62-1.62ZM112.45,23.67c.34,0,.65.09.91.26.28.17.42.45.42.84-.03.23-.09.48-.19.75-.34.91-.66,1.6-.94,2.09-.16.44-.57.66-1.24.66-.3,0-.61-.16-.94-.47-.25-.16-.38-.45-.38-.87,0-.12.07-.27.21-.42.44-.59.8-1.29,1.1-2.09.14-.5.48-.75,1.03-.75ZM112.84,18.23h8.6c.95,0,1.43.47,1.43,1.41v2.32c0,.95-.48,1.43-1.43,1.43h-2.6v3c-.12,1.36-1.26,2.08-3.4,2.16-.2,0-.41-.02-.61-.05-.2-.05-.41-.12-.61-.21-.16-.11-.29-.27-.4-.49-.03-.2-.05-.39-.05-.56,0-.44.09-.77.26-1.01.2-.22.64-.33,1.31-.33.2,0,.3-.09.3-.26v-2.25h-2.81c-.95,0-1.43-.48-1.43-1.43v-2.32c0-.94.48-1.41,1.43-1.41ZM114.04,9.86h6.02v-.26c0-.39-.2-.59-.59-.59h-4.85c-.39,0-.59.2-.59.59v.26ZM119.48,12.23c.39,0,.59-.2.59-.59v-.26h-6.02v.26c0,.39.2.59.59.59h4.85ZM119.48,21.42c.33,0,.49-.16.49-.49v-.26c0-.31-.16-.47-.49-.47h-4.66c-.33,0-.49.16-.49.47v.26c0,.33.16.49.49.49h4.66ZM120.81,23.67c.34,0,.62.09.84.26.28.28.66.77,1.12,1.45.5.78.75,1.3.75,1.55,0,.34-.06.56-.19.66-.33.39-.73.59-1.22.59-.41,0-.7-.16-.87-.47-.45-.89-.99-1.76-1.62-2.6-.11-.16-.16-.29-.16-.4,0-.38.16-.66.47-.84.27-.12.55-.19.87-.19ZM129.72,6.77c.36.02.72.16,1.08.45.41.31.6.64.59.98,0,.31-.09.59-.26.82-1.17,1.53-2.77,2.94-4.8,4.22-.39.31-.88.47-1.48.47-.48,0-.91-.18-1.27-.54-.3-.34-.45-.73-.45-1.15,0-.14.13-.35.4-.63.5-.33.96-.64,1.38-.94,1.53-1.16,2.8-2.23,3.8-3.21.25-.25.59-.41,1.01-.47ZM130.09,13.05c.36.03.72.18,1.08.45.42.3.62.62.61.98,0,.31-.1.59-.3.84-1.11,1.52-2.65,2.91-4.62,4.2-.39.31-.88.47-1.48.47-.48,0-.92-.19-1.31-.56-.3-.36-.45-.76-.45-1.2,0-.19.12-.44.38-.75.5-.31.95-.61,1.34-.89,1.53-1.12,2.78-2.16,3.75-3.09.25-.23.59-.38,1.01-.45ZM130.45,19.71c.38.02.74.16,1.1.45.42.31.62.64.61.98,0,.31-.09.59-.28.82-1.2,1.84-2.85,3.53-4.95,5.06-.41.39-.92.59-1.55.59-.48,0-.92-.2-1.31-.61-.3-.34-.45-.74-.45-1.2,0-.17.12-.42.38-.75.53-.36,1-.71,1.41-1.05,1.64-1.36,2.97-2.61,3.98-3.75.28-.28.63-.46,1.05-.54Z"/>
            <path class="st0" d="M145.09,6.68c.59,0,1.02.12,1.27.35.34.3.52.69.52,1.17v.45h6.94c.48,0,.83.1,1.03.3.19.17.28.51.28,1.01,0,.41-.08.71-.23.91-.23.28-.59.42-1.08.42h-2.2l-.75,2.34h3.8c.47,0,.81.09,1.03.28.19.17.28.51.28,1.01,0,.41-.08.71-.23.91-.25.28-.61.42-1.08.42h-19.34c-.42,0-.75-.11-.98-.33-.22-.17-.33-.51-.33-1.01s.11-.83.33-1.03c.22-.17.55-.26.98-.26h3.89l-.61-2.34h-2.53c-.44,0-.77-.11-.98-.33-.2-.17-.3-.51-.3-1.01s.1-.83.3-1.03c.2-.19.53-.28.98-.28h7.22v-.45c0-.42.17-.82.52-1.2.25-.22.68-.33,1.29-.33ZM138.23,17.67h13.52c1.5,0,2.25.74,2.25,2.23v5.74c0,1.48-.75,2.23-2.25,2.23h-13.52c-1.48,0-2.23-.74-2.23-2.23v-5.74c0-1.48.74-2.23,2.23-2.23ZM139.26,21.61h11.46v-1.12c0-.25-.13-.38-.4-.38h-10.66c-.27,0-.4.12-.4.38v1.12ZM150.32,25.45c.27,0,.4-.13.4-.4v-1.12h-11.46v1.12c0,.27.13.4.4.4h10.66ZM142.59,13.64h4.88l.75-2.34h-6.26l.63,2.34Z"/>
          </g>
        </g>
      </g>
    </g>
  </g>
</svg>