<?xml version="1.0" encoding="UTF-8"?>
<svg width="31px" height="30px" viewBox="0 0 31 30" version="1.1" xmlns="http://www.w3.org/2000/svg" xmlns:xlink="http://www.w3.org/1999/xlink">
    <title>app</title>
    <g id="網頁" stroke="none" stroke-width="1" fill="none" fill-rule="evenodd">
        <g id="登入_影片_學習版" transform="translate(-425, -49)">
            <g id="header" transform="translate(120, 8)">
                <g id="app" transform="translate(305.8571, 41)">
                    <circle id="橢圓形copycopycopy" fill="#F7C114" cx="15" cy="15" r="15"></circle>
                    <g transform="translate(6.1429, 4)">
                        <path d="M12.7699935,12 L12,12 L12,12.9995259 L12.7699935,12.9995259 C12.9964622,13.0032835 13.2229309,12.9844954 13.442929,12.9506768 C13.6046924,12.9243735 13.7535147,12.8680093 13.8570432,12.7890994 C13.9605718,12.7026742 14.0058655,12.6012186 13.999395,12.4960053 C14.0058655,12.3644888 13.9282191,12.2404874 13.7793968,12.1427894 C13.6176335,12.048849 13.2811657,12 12.7699935,12 Z" id="路徑"></path>
                        <polygon id="路徑" points="5 14 6 14 5.49425287 12"></polygon>
                        <path d="M9.76999353,12 L9,12 L9,12.9995259 L9.76999353,12.9995259 C9.99646221,13.0032835 10.2229309,12.9844954 10.442929,12.9506768 C10.6046924,12.9243735 10.7535147,12.8680093 10.8570432,12.7890994 C10.9605718,12.7026742 11.0058655,12.6012186 10.999395,12.4960053 C11.0058655,12.3644888 10.9282191,12.2404874 10.7793968,12.1427894 C10.6176335,12.048849 10.2746952,12 9.76999353,12 Z" id="路徑"></path>
                        <path d="M14.9487179,2 L5.05128205,2 C3.91794872,2 3,2.87237283 3,3.94943649 L3,16.0505635 C3,17.1276272 3.91794872,18 5.05128205,18 L14.9487179,18 C16.0820513,18 17,17.1276272 17,16.0505635 L17,3.94943649 C17,2.87237283 16.0820513,2 14.9487179,2 C14.9487179,2 14.9487179,2 14.9487179,2 Z M8.94871795,3.51081328 L11,3.51081328 C11.5641026,3.51081328 12.025641,3.94943649 12.025641,4.48553153 C12.025641,5.02162656 11.5641026,5.46024977 11,5.46024977 L8.94871795,5.46024977 C8.38461538,5.46024977 7.92307692,5.02162656 7.92307692,4.48553153 C7.92307692,3.94943649 8.38461538,3.51081328 8.94871795,3.51081328 L8.94871795,3.51081328 Z M8.37435897,14.4130369 C8.29230769,14.4910143 8.17948718,14.5397502 8.06153846,14.5348766 C8,14.5348766 7.93846154,14.5251295 7.87692308,14.4958879 C7.82564103,14.47152 7.78461538,14.4374048 7.74871795,14.3984161 C7.7025641,14.339933 7.66666667,14.2765763 7.63589744,14.208346 C7.59487179,14.1206214 7.56410256,14.0475175 7.53333333,13.9792872 L7.31794872,13.4431922 L5.50769231,13.4431922 L5.29230769,13.9841608 C5.21025641,14.1985988 5.13846154,14.339933 5.07692308,14.4130369 C5.01538462,14.4861407 4.92307692,14.5251295 4.78461538,14.5251295 C4.67179487,14.5251295 4.56410256,14.4812671 4.48205128,14.4081633 C4.4,14.339933 4.35384615,14.2424612 4.34871795,14.1401157 C4.34871795,14.0767591 4.35897436,14.018276 4.37948718,13.9597929 C4.4,13.8964362 4.43076923,13.8135851 4.48205128,13.7014925 L5.62564103,10.9430399 C5.65641026,10.8650624 5.6974359,10.7675906 5.74358974,10.655498 C5.77948718,10.5580262 5.83076923,10.465428 5.89230769,10.3777033 C5.94358974,10.3045995 6.01538462,10.2412428 6.0974359,10.202254 C6.19487179,10.1535181 6.3025641,10.1291502 6.41025641,10.1340238 C6.51794872,10.1291502 6.63076923,10.1535181 6.72820513,10.202254 C6.81025641,10.2461164 6.88205128,10.3045995 6.93333333,10.3777033 C6.98461538,10.4508072 7.03076923,10.5287846 7.06666667,10.6067621 C7.1025641,10.6896132 7.14871795,10.7968322 7.2,10.9381663 L8.36923077,13.6819982 C8.46153846,13.8915626 8.50769231,14.0426439 8.50769231,14.1352422 C8.50769231,14.2473348 8.45641026,14.3448066 8.37435897,14.4130369 Z M9.97435897,16.4891867 C9.41025641,16.4891867 8.94871795,16.0505635 8.94871795,15.5144685 C8.94871795,14.9783734 9.41025641,14.5397502 9.97435897,14.5397502 C10.5384615,14.5397502 11,14.9783734 11,15.5144685 C11,16.0505635 10.5384615,16.4891867 9.97435897,16.4891867 Z M11.6923077,12.4733475 C11.4102564,12.6975327 10.9948718,12.8096253 10.4410256,12.8096253 L9.61025641,12.8096253 L9.61025641,14.0134024 C9.61025641,14.1839781 9.56923077,14.315565 9.48205128,14.4032897 C9.30769231,14.5738654 9.02564103,14.578739 8.84615385,14.4179104 C8.84102564,14.4130369 8.83589744,14.4081633 8.83076923,14.4032897 C8.74871795,14.315565 8.70769231,14.1888517 8.70769231,14.018276 L8.70769231,10.7432227 C8.70769231,10.5531526 8.75384615,10.416692 8.84615385,10.3387146 C8.93846154,10.2558635 9.08205128,10.2168748 9.28205128,10.2168748 L10.4358974,10.2168748 C10.7794872,10.2168748 11.0461538,10.2412428 11.2307692,10.2899787 C11.4051282,10.333841 11.5692308,10.416692 11.7025641,10.5287846 C11.8358974,10.6408772 11.9384615,10.7822114 12.0051282,10.9430399 C12.0769231,11.1184892 12.1128205,11.3036857 12.1076923,11.4888821 C12.1128205,11.9275053 11.974359,12.2540359 11.6923077,12.4733475 L11.6923077,12.4733475 Z M15.3897436,12.4733475 C15.1076923,12.6975327 14.6923077,12.8096253 14.1333333,12.8096253 L13.3076923,12.8096253 L13.3076923,14.0134024 C13.3076923,14.1839781 13.2666667,14.315565 13.1794872,14.4032897 C13.0051282,14.5738654 12.7230769,14.578739 12.5435897,14.4179104 C12.5384615,14.4130369 12.5333333,14.4081633 12.5282051,14.4032897 C12.4461538,14.315565 12.4051282,14.1888517 12.4051282,14.018276 L12.4051282,10.7432227 C12.4051282,10.5531526 12.4512821,10.416692 12.5435897,10.3387146 C12.6358974,10.2558635 12.7794872,10.2168748 12.9794872,10.2168748 L14.1435897,10.2168748 C14.4871795,10.2168748 14.7538462,10.2412428 14.9384615,10.2899787 C15.1128205,10.333841 15.2769231,10.416692 15.4102564,10.5287846 C15.5435897,10.6408772 15.6461538,10.7822114 15.7128205,10.9430399 C15.7846154,11.1184892 15.8205128,11.3036857 15.8153846,11.4888821 C15.8102564,11.9275053 15.6717949,12.2540359 15.3897436,12.4733475 L15.3897436,12.4733475 Z" id="形狀"></path>
                        <path d="M7.25,7 L9.75,7 C10.4375,7 11,6.325 11,5.5 C11,4.675 10.4375,4 9.75,4 L7.25,4 C6.5625,4 6,4.675 6,5.5 C6,6.325 6.5625,7 7.25,7 Z" id="路徑" fill="#FFFFFF" fill-rule="nonzero"></path>
                        <circle id="橢圓形" fill="#FFFFFF" fill-rule="nonzero" cx="8.5" cy="15.5" r="1.5"></circle>
                        <path d="M13.9206799,0 L4.07932011,0 C1.82549575,0 0,1.84129317 0,4.1146216 L0,16.8853784 C0,19.1587068 1.82549575,21 4.07932011,21 L13.9206799,21 C16.1745042,21 18,19.1587068 18,16.8853784 L18,4.1146216 C18,1.84129317 16.1745042,0 13.9206799,0 Z M15.9603399,7.30345334 L15.9603399,16.8853784 C15.9603399,18.0220426 15.0475921,18.9426892 13.9206799,18.9426892 L4.07932011,18.9426892 C2.95240793,18.9426892 2.03966006,18.0220426 2.03966006,16.8853784 L2.03966006,4.1146216 C2.03966006,2.97795738 2.95240793,2.0573108 4.07932011,2.0573108 L13.9206799,2.0573108 C15.0475921,2.0573108 15.9603399,2.97795738 15.9603399,4.1146216 L15.9603399,7.30345334 Z" id="形狀" fill="#FFFFFF" fill-rule="nonzero"></path>
                        <path d="M6.4217016,7.9141895 C6.35388409,7.7591723 6.30456227,7.63183674 6.26140567,7.53771915 C6.21824908,7.44360157 6.16892725,7.36055664 6.10110974,7.27751171 C6.03945746,7.19446678 5.95314427,7.12803084 5.85450062,7.07820388 C5.73736128,7.02284059 5.60789149,6.99515895 5.47225647,7.00069528 C5.34278668,6.99515895 5.21331689,7.02284059 5.09617756,7.07820388 C4.99753391,7.12803084 4.91122072,7.19446678 4.84956843,7.27751171 C4.7755857,7.37716562 4.72009864,7.48235587 4.67077682,7.59308244 C4.61528977,7.720418 4.56596794,7.82560824 4.52897657,7.91972583 L3.16029593,11.0588241 C3.10480888,11.1861597 3.06165228,11.2802773 3.03699137,11.3522496 C3.01233046,11.4186855 3,11.4851214 3,11.5570937 C3,11.6733566 3.06165228,11.7840832 3.16029593,11.8615918 C3.25893958,11.950173 3.38840937,11.9944637 3.52404439,11.9944637 C3.68434032,11.9944637 3.80147965,11.950173 3.87546239,11.8671281 C3.94944513,11.7840832 4.02959309,11.6179933 4.13440197,11.3799312 L4.39334155,10.7598624 L6.57583231,10.7598624 L6.83477189,11.3688585 C6.87176326,11.4408308 6.90875462,11.5294121 6.95807645,11.629066 C6.99506782,11.7065746 7.03822441,11.7785469 7.09371147,11.8449828 C7.13686806,11.8892734 7.18618989,11.9280277 7.24784217,11.9557094 C7.31565968,11.983391 7.38964242,12 7.46979038,12 C7.61159063,12 7.74722565,11.950173 7.8458693,11.8615918 C7.94451295,11.7840832 8,11.6733566 8,11.5515574 C8,11.4408308 7.94451295,11.2692046 7.83353884,11.0366788 L6.4217016,7.9141895 Z M4.67077682,10.0235307 L5.46609125,8.0304524 L6.27373613,10.0235307 L4.67077682,10.0235307 Z" id="形狀" fill="#FFFFFF" fill-rule="nonzero"></path>
                        <path d="M10.5296208,8.36680802 C10.3669932,8.23137121 10.1802727,8.13543681 9.97548241,8.08464801 C9.75864563,8.028216 9.44543696,8 9.04187963,8 L7.6746033,8 C7.43969679,8 7.27104597,8.0451456 7.16262758,8.14108001 C7.05420919,8.23701442 7,8.39502403 7,8.60946564 L7,12.4016963 C7,12.5992083 7.04818595,12.7459315 7.14455785,12.8475091 C7.34934814,13.0450211 7.68062654,13.0506643 7.89144007,12.8644387 C7.89746332,12.8587955 7.90348656,12.8531523 7.9095098,12.8475091 C8.01190495,12.7459315 8.0600909,12.5935651 8.0600909,12.3960531 L8.0600909,11.0021826 L9.03585638,11.0021826 C9.68636671,11.0021826 10.1802727,10.872389 10.5055279,10.6128018 C10.8368063,10.3532145 10.9994338,9.97512013 10.9994338,9.47287529 C11.0054571,9.25843368 10.9632944,9.03834887 10.878969,8.84083685 C10.80669,8.65461124 10.6802019,8.49660163 10.5296208,8.36680802 Z M9.79478509,9.93561772 C9.69841319,10.0541249 9.55987859,10.1387729 9.40929749,10.1782753 C9.20450721,10.2347073 8.99369368,10.2572801 8.78288015,10.2516369 L8.06611414,10.2516369 L8.06611414,8.74490245 L8.78288015,8.74490245 C9.2587164,8.74490245 9.57192508,8.81826405 9.72250617,8.96498726 C9.86104078,9.11171047 9.9333197,9.29793608 9.92729646,9.4954481 C9.9333197,9.6478145 9.88513375,9.80582411 9.79478509,9.93561772 L9.79478509,9.93561772 Z" id="形狀" fill="#FFFFFF" fill-rule="nonzero"></path>
                        <path d="M15.5243139,8.36157291 C15.3619308,8.23163264 15.175491,8.13558984 14.9710086,8.08474365 C14.7544979,8.02824788 14.4417601,8 14.0388096,8 L12.673589,8 C12.4390357,8 12.2706384,8.04519661 12.1623831,8.14123942 C12.0541277,8.23728222 12,8.39547037 12,8.61015428 L12,12.4010202 C12,12.5987554 12.0481135,12.7456444 12.1443405,12.8473368 C12.3488229,13.045072 12.6796032,13.0507216 12.8900998,12.8642855 C12.8961139,12.858636 12.9021281,12.8529864 12.9081423,12.8473368 C13.0103835,12.7456444 13.058497,12.5931059 13.058497,12.3953707 L13.058497,10.9942756 L14.0327954,10.9942756 C14.6823276,10.9942756 15.175491,10.8643354 15.5062713,10.6044549 C15.8370516,10.3445743 15.9994347,9.96605269 15.9994347,9.46324036 C16.0054489,9.24855645 15.9633496,9.02822296 15.8791509,8.83048777 C15.8009665,8.64970132 15.6806828,8.49151317 15.5243139,8.36157291 Z M14.790583,9.93215523 C14.694356,10.0507963 14.5560297,10.13554 14.405675,10.175087 C14.2011926,10.2315828 13.9906961,10.2541811 13.7801995,10.2485315 L13.0645112,10.2485315 L13.0645112,8.74009455 L13.7801995,8.74009455 C14.2553203,8.74009455 14.5680581,8.81353904 14.7184128,8.96042804 C14.8567391,9.10731703 14.9289093,9.29375306 14.9228951,9.49148825 C14.9289093,9.64402682 14.88681,9.80221497 14.790583,9.93215523 L14.790583,9.93215523 Z" id="形狀" fill="#FFFFFF" fill-rule="nonzero"></path>
                    </g>
                </g>
            </g>
        </g>
    </g>
</svg>