<?xml version="1.0" encoding="UTF-8"?>
<svg id="_內容" data-name="內容" xmlns="http://www.w3.org/2000/svg" viewBox="0 0 17 17">
  <defs>
    <style>
      .cls-1 {
        fill: #fff;
      }
    </style>
  </defs>
  <path class="cls-1" d="M15.94,14.5H4.89c-.46,0-.82-.37-.82-.82s.37-.82.82-.82h11.05c.46,0,.82.37.82.82s-.37.82-.82.82h0ZM15.94,14.5"/>
  <path class="cls-1" d="M15.94,9.33H4.89c-.46,0-.82-.37-.82-.82s.37-.82.82-.82h11.05c.46,0,.82.37.82.82s-.37.82-.82.82h0ZM15.94,9.33"/>
  <path class="cls-1" d="M15.94,4.15H4.89c-.46,0-.82-.37-.82-.82s.37-.82.82-.82h11.05c.46,0,.82.37.82.82s-.37.82-.82.82h0ZM15.94,4.15"/>
  <path class="cls-1" d="M2.45,3.39c0,.61-.5,1.11-1.11,1.11S.24,4,.24,3.39s.5-1.11,1.11-1.11,1.11.5,1.11,1.11h0ZM2.45,3.39"/>
  <path class="cls-1" d="M2.45,8.5c0,.61-.5,1.11-1.11,1.11s-1.11-.5-1.11-1.11.5-1.11,1.11-1.11,1.11.5,1.11,1.11h0ZM2.45,8.5"/>
  <path class="cls-1" d="M2.45,13.61c0,.61-.5,1.11-1.11,1.11s-1.11-.5-1.11-1.11.5-1.11,1.11-1.11,1.11.5,1.11,1.11h0ZM2.45,13.61"/>
</svg>