<?xml version="1.0" encoding="UTF-8"?>
<svg id="_內容" data-name="內容" xmlns="http://www.w3.org/2000/svg" viewBox="0 0 161.53 169.89">
  <defs>
    <style>
      .cls-1 {
        fill: #ee685c;
      }
    </style>
  </defs>
  <path class="cls-1" d="M159.66,102.13c-3.51-5.47-7.03-10.74-10.54-16.21-.78-1.17-.78-1.96,0-3.13,3.51-5.27,6.84-10.54,10.35-15.82,4.1-6.25,1.96-12.3-5.08-14.84-5.86-2.15-11.72-4.49-17.58-6.64-1.17-.39-1.76-1.17-1.76-2.54-.2-6.44-.58-12.88-.97-19.13-.39-6.84-5.66-10.74-12.3-8.99-6.25,1.56-12.5,3.32-18.55,5.08-1.37.39-2.15,0-3.12-.97-3.91-5.08-8.01-9.96-11.91-14.85-4.3-5.47-10.93-5.47-15.43,0-3.9,4.88-8,9.77-11.72,14.65-.97,1.36-1.95,1.56-3.51,1.17-6.05-1.75-12.11-3.32-16.4-4.49-8.4-1.95-13.48,1.37-13.87,8.4-.38,6.45-.77,12.89-.97,19.52,0,1.37-.59,1.96-1.76,2.54-6.05,2.34-12.11,4.69-18.16,7.03C.11,55.46-1.83,61.51,1.87,67.18c3.51,5.47,7.03,10.74,10.54,16.21.78,1.17.78,1.96,0,3.32-3.71,5.47-7.23,10.94-10.74,16.6-3.32,5.27-1.17,11.52,4.69,13.86,6.05,2.35,12.3,4.69,18.36,7.03,1.37.39,1.76,1.17,1.76,2.54.2,6.25.97,12.3.97,18.55s5.47,11.91,13.09,9.57c6.05-1.96,12.11-3.32,18.16-5.08,1.17-.39,1.96-.2,2.73.97,4.11,5.08,8.01,9.96,12.11,15.04,4.49,5.47,10.93,5.47,15.24,0,4.1-5.08,8-9.96,12.1-15.04.78-.97,1.37-1.36,2.74-.97,6.25,1.75,12.5,3.32,18.75,5.08,6.44,1.75,11.91-2.15,12.11-8.79.38-6.45.77-12.89.97-19.52,0-1.56.78-2.15,1.96-2.54,5.86-2.15,11.91-4.49,17.77-6.84,6.25-3.12,8.2-9.37,4.49-15.03ZM106.73,101.63c2.56,2.56,2.56,6.72,0,9.29-2.56,2.56-6.72,2.56-9.29,0l-16.68-16.69-16.68,16.69c-2.56,2.56-6.72,2.56-9.29,0-2.56-2.56-2.56-6.72,0-9.29l16.69-16.68-16.69-16.68c-2.56-2.56-2.56-6.72,0-9.29s6.72-2.56,9.29,0l16.68,16.69,16.68-16.69c2.56-2.56,6.72-2.56,9.29,0s2.56,6.72,0,9.29l-16.69,16.68,16.69,16.68Z"/>
</svg>