<?xml version="1.0" encoding="UTF-8"?>
<svg id="_圖層_1" data-name="圖層_1" xmlns="http://www.w3.org/2000/svg" version="1.1" viewBox="0 0 12 12">
  <!-- Generator: Adobe Illustrator 29.0.0, SVG Export Plug-In . SVG Version: 2.1.0 Build 186)  -->
  <defs>
    <style>
      .st0 {
        fill: #fff;
      }
    </style>
  </defs>
  <g id="Page-1">
    <g id="icon-search">
      <path id="_形狀" data-name="形狀" class="st0" d="M11.7,10.3l-2.8-2.8c.5-.8.7-1.7.7-2.6C9.7,2.2,7.5,0,4.8,0S0,2.2,0,4.9s2.2,4.9,4.8,4.9,2-.3,2.8-.9l2.7,2.8c.2.2.4.3.7.3s.5,0,.7-.3c.4-.4.4-1,0-1.4h0ZM4.8,8.4c-2,0-3.6-1.6-3.6-3.6s1.6-3.6,3.6-3.6,3.6,1.6,3.6,3.6-1.6,3.6-3.6,3.6h0Z"/>
    </g>
  </g>
</svg>