<?xml version="1.0" encoding="UTF-8"?>
<svg xmlns="http://www.w3.org/2000/svg" xmlns:xlink="http://www.w3.org/1999/xlink" viewBox="0 0 195 195">
  <defs>
    <style>
      .cls-1 {
        fill: #a98320;
      }

      .cls-2 {
        fill: none;
      }

      .cls-3 {
        fill: #b81c22;
      }

      .cls-4, .cls-5 {
        fill: #ffe100;
      }

      .cls-5 {
        stroke-linecap: round;
      }

      .cls-5, .cls-6, .cls-7 {
        stroke-width: 2.5px;
      }

      .cls-5, .cls-6, .cls-7, .cls-8 {
        stroke-linejoin: round;
      }

      .cls-5, .cls-7 {
        stroke: #231815;
      }

      .cls-6 {
        fill: #008bd5;
      }

      .cls-6, .cls-8 {
        stroke: #000;
      }

      .cls-9 {
        fill: #ed848c;
      }

      .cls-10 {
        opacity: .3;
      }

      .cls-10, .cls-11, .cls-7 {
        fill: #fff;
      }

      .cls-12 {
        fill: #d89032;
      }

      .cls-13 {
        clip-path: url(#clippath-1);
      }

      .cls-14 {
        fill: #231815;
      }

      .cls-15, .cls-8 {
        fill: #005d7f;
      }

      .cls-16 {
        fill: #fbb03b;
      }

      .cls-17 {
        fill: #e63556;
      }

      .cls-18 {
        fill: #e50012;
      }

      .cls-19 {
        clip-path: url(#clippath);
      }

      .cls-20 {
        fill: #004da0;
      }

      .cls-8 {
        stroke-width: 1.5px;
      }
    </style>
    <clipPath id="clippath">
      <path class="cls-2" d="M18.69,83.28c0,21.91,2.42,44.41,16.78,58.77,14.36,14.36,36.86,16.79,58.77,16.8,21.91,0,44.41-2.42,58.77-16.78,14.36-14.36,16.79-36.86,16.8-58.77,0-21.91-2.42-44.41-16.78-58.77S116.17,7.73,94.26,7.73c-21.91,0-44.41,2.42-58.77,16.78-14.36,14.36-16.79,36.86-16.8,58.77Z"/>
    </clipPath>
    <clipPath id="clippath-1">
      <path class="cls-2" d="M19.07,84.28c0,21.91,2.42,44.41,16.78,58.77,14.36,14.36,36.86,16.79,58.77,16.8,21.91,0,44.41-2.42,58.77-16.78,14.36-14.36,16.79-36.86,16.8-58.77s-2.42-44.41-16.78-58.77c-14.36-14.36-36.86-16.79-58.77-16.8-21.91,0-44.41,2.42-58.77,16.78-14.36,14.36-16.79,36.86-16.8,58.77Z"/>
    </clipPath>
  </defs>
  <g id="list-pic">
    <g>
      <path class="cls-12" d="M19.07,94.61c0,21.91,2.42,44.41,16.78,58.77,14.36,14.36,36.86,16.79,58.77,16.8,21.91,0,44.41-2.42,58.77-16.78,14.36-14.36,16.79-36.86,16.8-58.77,0-21.91-2.42-44.41-16.78-58.77-14.36-14.36-36.86-16.79-58.77-16.8-21.91,0-44.41,2.42-58.77,16.78-14.36,14.36-16.79,36.86-16.8,58.77Z"/>
      <path class="cls-16" d="M18.69,83.28c0,21.91,2.42,44.41,16.78,58.77,14.36,14.36,36.86,16.79,58.77,16.8,21.91,0,44.41-2.42,58.77-16.78,14.36-14.36,16.79-36.86,16.8-58.77,0-21.91-2.42-44.41-16.78-58.77S116.17,7.73,94.26,7.73c-21.91,0-44.41,2.42-58.77,16.78-14.36,14.36-16.79,36.86-16.8,58.77Z"/>
      <circle class="cls-11" cx="95.24" cy="96.48" r="59.56"/>
      <g class="cls-19">
        <path class="cls-10" d="M103.11,14.07c-.2,1.55-.74,2.85-1.67,3.91-1.2,1.36-2.54,2.59-3.84,3.86-.26.25-.57.46-.89.62-1.38.73-2.76,1.44-4.15,2.14-.67.34-1.37.48-2.14.27-.48-.36-.56-.95-.77-1.47-.29-.72-.54-1.46-.87-2.17-.37-.81-.65-1.63-.8-2.51-.25-1.54-.53-3.07-.77-4.61-.07-.45-.04-.92-.06-1.42,1.09-.54,2.2-.73,3.34-.8,1.98-.13,3.94.04,5.89.41,1.43.27,2.86.56,4.28.87.56.12,1.11.28,1.65.45.24.08.45.25.78.44Z"/>
        <path class="cls-10" d="M39.76,66.02c-.33-1.53-.26-2.94.27-4.24.67-1.68,1.53-3.29,2.33-4.92.16-.32.39-.62.63-.89,1.06-1.14,2.12-2.28,3.2-3.41.51-.54,1.13-.91,1.93-.97.57.18.84.71,1.22,1.13.52.58,1,1.2,1.54,1.76.62.63,1.16,1.32,1.59,2.1.75,1.37,1.53,2.72,2.27,4.09.22.4.35.86.53,1.31-.85.87-1.83,1.42-2.88,1.87-1.82.78-3.73,1.28-5.69,1.58-1.44.22-2.88.42-4.32.61-.57.07-1.14.11-1.71.13-.25,0-.5-.08-.89-.15Z"/>
        <path class="cls-10" d="M149.49,88.47c.48-1.36,1.22-2.43,2.26-3.21,1.34-1,2.79-1.85,4.21-2.74.28-.18.6-.3.92-.39,1.38-.39,2.77-.76,4.16-1.13.66-.17,1.33-.17,1.98.17.37.41.32.97.41,1.48.12.71.2,1.43.36,2.12.18.8.27,1.6.23,2.42-.07,1.44-.11,2.87-.2,4.31-.02.42-.14.84-.22,1.29-1.09.28-2.13.23-3.17.08-1.81-.27-3.55-.8-5.24-1.51-1.24-.52-2.47-1.06-3.69-1.61-.48-.22-.95-.46-1.4-.73-.2-.12-.36-.31-.62-.55Z"/>
        <path class="cls-10" d="M37.95,135.52c.2-1.55.74-2.85,1.67-3.91,1.2-1.36,2.54-2.59,3.84-3.86.26-.25.57-.46.89-.62,1.38-.73,2.76-1.44,4.15-2.14.67-.34,1.37-.48,2.14-.27.48.36.56.95.77,1.47.29.72.54,1.46.87,2.17.37.81.65,1.63.8,2.51.25,1.54.53,3.07.77,4.61.07.45.04.92.06,1.42-1.09.54-2.2.73-3.34.8-1.98.13-3.94-.04-5.89-.41-1.43-.27-2.86-.56-4.28-.87-.56-.12-1.11-.28-1.65-.45-.24-.08-.45-.25-.78-.44Z"/>
        <path class="cls-10" d="M70.29,20.57c.33,1.53.26,2.94-.27,4.24-.67,1.68-1.53,3.29-2.33,4.92-.16.32-.39.62-.63.89-1.06,1.14-2.12,2.28-3.2,3.41-.51.54-1.13.91-1.93.97-.57-.18-.84-.71-1.22-1.13-.52-.58-1-1.2-1.54-1.76-.62-.63-1.16-1.32-1.59-2.1-.75-1.37-1.53-2.72-2.27-4.09-.22-.4-.35-.86-.53-1.31.85-.87,1.83-1.42,2.88-1.87,1.82-.78,3.73-1.28,5.69-1.58,1.44-.22,2.88-.42,4.32-.61.57-.07,1.14-.11,1.71-.13.25,0,.5.08.89.15Z"/>
        <path class="cls-10" d="M134.96,135.91c.94-.6,1.9-.91,2.91-.88,1.3.03,2.59.2,3.88.33.26.03.51.1.75.2,1.03.42,2.06.85,3.08,1.29.49.21.89.53,1.13,1.05.03.43-.27.74-.45,1.1-.26.49-.56.97-.79,1.47-.27.58-.6,1.11-1.01,1.59-.73.84-1.44,1.7-2.18,2.54-.22.25-.49.45-.75.68-.8-.35-1.41-.87-1.98-1.47-.98-1.03-1.79-2.18-2.48-3.42-.51-.91-1-1.82-1.49-2.74-.19-.36-.36-.73-.51-1.11-.07-.17-.07-.36-.12-.63Z"/>
        <path class="cls-10" d="M122.3,67.48c-.88-1.29-1.34-2.63-1.35-4.03,0-1.81.18-3.63.3-5.44.03-.36.13-.72.25-1.06.55-1.46,1.11-2.91,1.68-4.36.27-.69.7-1.27,1.42-1.63.6-.05,1.05.34,1.55.59.7.35,1.37.74,2.09,1.05.81.35,1.57.79,2.26,1.35,1.21.98,2.44,1.94,3.64,2.94.35.29.64.66.99,1.02-.46,1.13-1.16,2.01-1.97,2.82-1.4,1.41-2.98,2.59-4.68,3.61-1.25.75-2.51,1.47-3.77,2.19-.5.28-1.01.53-1.53.76-.23.1-.5.11-.88.19Z"/>
        <path class="cls-10" d="M138.29,20.57c.33,1.53.26,2.94-.27,4.24-.67,1.68-1.53,3.29-2.33,4.92-.16.32-.39.62-.63.89-1.06,1.14-2.12,2.28-3.2,3.41-.51.54-1.13.91-1.93.97-.57-.18-.84-.71-1.22-1.13-.52-.58-1-1.2-1.54-1.76-.62-.63-1.16-1.32-1.59-2.1-.75-1.37-1.53-2.72-2.27-4.09-.22-.4-.35-.86-.53-1.31.85-.87,1.83-1.42,2.88-1.87,1.82-.78,3.73-1.28,5.69-1.58,1.44-.22,2.88-.42,4.32-.61.57-.07,1.14-.11,1.71-.13.25,0,.5.08.89.15Z"/>
        <path class="cls-10" d="M143.85,48.27c-1.1-1.11-1.8-2.33-2.07-3.71-.34-1.78-.49-3.6-.7-5.4-.04-.36,0-.73.05-1.09.27-1.53.56-3.07.85-4.59.14-.73.46-1.37,1.09-1.86.58-.16,1.09.14,1.63.29.75.21,1.49.47,2.24.65.87.2,1.69.48,2.47.91,1.37.74,2.75,1.46,4.12,2.22.4.22.75.53,1.16.82-.24,1.19-.77,2.19-1.41,3.13-1.11,1.65-2.45,3.09-3.93,4.4-1.09.96-2.19,1.91-3.31,2.85-.44.37-.9.71-1.37,1.03-.21.14-.47.2-.83.35Z"/>
        <path class="cls-10" d="M151.63,60.31c1.17-.34,2.28-.36,3.32-.02,1.35.43,2.65,1.01,3.96,1.55.26.11.51.27.73.44.95.76,1.89,1.53,2.83,2.31.45.37.77.83.86,1.45-.11.46-.51.7-.81,1.01-.43.43-.88.84-1.29,1.3-.46.52-.97.98-1.55,1.35-1.02.66-2.04,1.34-3.07,1.99-.3.19-.65.32-1,.48-.73-.61-1.21-1.35-1.62-2.15-.71-1.38-1.2-2.84-1.54-4.35-.25-1.11-.49-2.22-.71-3.34-.09-.44-.15-.88-.19-1.32-.02-.2.04-.4.07-.7Z"/>
        <path class="cls-10" d="M159.65,125.92c-1.55.21-2.95.02-4.21-.61-1.62-.81-3.16-1.79-4.72-2.72-.31-.18-.59-.44-.83-.7-1.06-1.15-2.1-2.3-3.13-3.47-.5-.56-.81-1.2-.82-2,.22-.56.78-.78,1.22-1.12.62-.47,1.28-.9,1.87-1.39.68-.57,1.41-1.05,2.22-1.41,1.42-.64,2.83-1.3,4.26-1.93.42-.18.88-.28,1.35-.42.8.91,1.27,1.94,1.63,3.03.63,1.88.97,3.82,1.12,5.8.11,1.45.19,2.9.26,4.36.03.57.02,1.14-.01,1.71-.01.25-.12.5-.22.87Z"/>
        <path class="cls-10" d="M48.07,38.63c-.2,1.55-.74,2.85-1.67,3.91-1.2,1.36-2.54,2.59-3.84,3.86-.26.25-.57.46-.89.62-1.38.73-2.76,1.44-4.15,2.14-.67.34-1.37.48-2.14.27-.48-.36-.56-.95-.77-1.47-.29-.72-.54-1.46-.87-2.17-.37-.81-.65-1.63-.8-2.51-.25-1.54-.53-3.07-.77-4.61-.07-.45-.04-.92-.06-1.42,1.09-.54,2.2-.73,3.34-.8,1.98-.13,3.94.04,5.89.41,1.43.27,2.86.56,4.28.87.56.12,1.11.28,1.65.45.24.08.45.25.78.44Z"/>
        <path class="cls-10" d="M24.47,71.29c1.46-.56,2.86-.71,4.23-.4,1.77.4,3.49,1,5.23,1.53.34.11.67.29.97.49,1.3.86,2.58,1.74,3.86,2.63.61.42,1.07.97,1.26,1.75-.08.59-.57.94-.93,1.38-.5.6-1.03,1.17-1.49,1.8-.53.71-1.12,1.35-1.82,1.89-1.23.96-2.45,1.93-3.69,2.88-.37.28-.79.48-1.22.73-.99-.7-1.69-1.59-2.3-2.56-1.06-1.68-1.84-3.49-2.45-5.37-.44-1.39-.87-2.78-1.28-4.17-.16-.55-.29-1.11-.39-1.67-.05-.25,0-.51.01-.9Z"/>
        <path class="cls-10" d="M29.04,115.73c-.88-1.29-1.35-2.62-1.36-4.03-.01-1.81.17-3.63.3-5.44.02-.36.12-.72.25-1.06.55-1.46,1.11-2.91,1.68-4.36.27-.69.7-1.27,1.42-1.63.6-.05,1.05.34,1.55.59.7.35,1.38.74,2.09,1.04.82.35,1.57.78,2.26,1.34,1.21.98,2.44,1.94,3.64,2.93.35.29.64.66.99,1.02-.45,1.13-1.16,2.01-1.96,2.82-1.39,1.42-2.97,2.59-4.67,3.61-1.25.75-2.51,1.48-3.77,2.2-.5.28-1.01.53-1.53.76-.23.1-.5.11-.88.2Z"/>
      </g>
      <g class="cls-13">
        <g>
          <g>
            <path class="cls-18" d="M147.43,113.06c-3.85-.14-6.7-1.59-8.56-3.41-1.6-.42-4.35-2.12-5.12-2.69-.51-.38-.95-.8-1.27-1.27-1.18-.77-2.24-1.46-3-1.98-2.26-1.54-5.86-3.76-9.08-5.02.07.14.13.28.19.43,1.07,2.89,2.44,7.95,3.11,12.47.3,2.02.38,3.67.27,5.03,1.48,2.44,3.26,6.12,4.31,10.95.1.05.21.09.31.14,5.28,2.36,7.18,2.95,7.18,2.95v-.02c.77.25,1.49.44,2.11.54,8.68,1.4,14.26-4.12,15.82-10.08.85-3.24,1.12-7.34,1.16-10.93-1.34,1.56-3.56,3.01-7.42,2.86Z"/>
            <path class="cls-18" d="M111.45,99.28s-.05,0-.07,0c-.18,0-.36.01-.54.02-1.48,1.44-4.87,2.22-8.7,1.83-4.07-.41-7.38-2.02-8.34-3.87-.3-.08-.6-.17-.9-.25-.03,0-.06-.02-.09-.02-.94,3.62-2.1,9.71-2.76,14.19,8.11.16,15.62.68,22.83,1.26-.18-3.96-.82-9.32-1.43-13.15Z"/>
            <g>
              <path class="cls-18" d="M119.31,111.71c-2.21-.1-4.08,1.71-4.19,4.05-.11,2.34,1.59,4.32,3.8,4.42,2.21.1,4.08-1.71,4.19-4.05.11-2.34-1.59-4.32-3.8-4.42Z"/>
              <path class="cls-18" d="M83.13,110.01c-2.21-.14-4.11,1.65-4.26,3.99-.15,2.34,1.52,4.34,3.73,4.48,2.21.14,4.11-1.65,4.26-3.99.15-2.34-1.52-4.34-3.73-4.48Z"/>
            </g>
            <path class="cls-18" d="M83.2,92.84c-.26-.15-.52-.31-.78-.47-.31-.19-.62-.39-.92-.59-.25-.16-.5-.33-.74-.5-.3-.21-.59-.42-.88-.63-.23-.17-.47-.34-.7-.52-.29-.22-.57-.45-.85-.68-.22-.18-.44-.36-.65-.54-.28-.24-.55-.49-.82-.74-.2-.18-.4-.36-.59-.55-.28-.27-.54-.54-.8-.81-.17-.18-.35-.36-.52-.54-.28-.31-.56-.62-.83-.94-.14-.16-.28-.31-.41-.47-.39-.47-.76-.95-1.12-1.44,0-.01-.02-.02-.03-.04,0,0,0,0,0,0-.02-.02-.03-.05-.05-.07-.33-.45-.65-.91-.95-1.37-.11-.17-.21-.34-.31-.5-.21-.33-.41-.65-.61-.99-.12-.2-.23-.41-.34-.62-.17-.31-.34-.61-.5-.92-.11-.22-.22-.45-.33-.67-.15-.3-.3-.61-.43-.91-.11-.24-.21-.48-.31-.71-.13-.3-.26-.61-.38-.92-.1-.25-.19-.5-.28-.75-.11-.31-.22-.62-.33-.93-.08-.26-.16-.51-.24-.77-.1-.31-.19-.63-.28-.95-.07-.26-.14-.53-.21-.79-.08-.32-.16-.65-.23-.97-.06-.27-.12-.54-.17-.81-.07-.33-.13-.66-.18-1-.05-.27-.09-.55-.13-.82-.05-.34-.09-.68-.14-1.02-.03-.28-.07-.55-.1-.83-.01-.13-.03-.27-.04-.4-4.64-6.88-8.2-13.23-9.77-16.15-1.23,2.54-3.5,5.25-7.3,7.15-3.66,1.83-7.06,2.41-10.17,1.63,1.82,5.27,7.17,19.03,17.74,33.52,6.28,8.6,13.62,15.32,18.76,19.5-.52,4.11-1.1,9.55-1.55,16.13,1.27-4.35,3.23-8.19,4.97-11.05-.32-1.65-.16-3.88.49-6.88,1.06-4.87,3.76-13.2,5.05-16.03-.02-.01-.04-.03-.07-.04-.33-.18-.65-.36-.96-.55Z"/>
          </g>
          <path class="cls-20" d="M123.11,116.13c-.11,2.34-1.99,4.15-4.19,4.05-2.21-.1-3.91-2.08-3.8-4.42.11-2.34,1.99-4.15,4.19-4.05,2.21.1,3.91,2.08,3.8,4.42ZM78.88,113.99c.15-2.34,2.05-4.12,4.26-3.99,2.21.14,3.88,2.14,3.73,4.48-.15,2.34-2.05,4.12-4.26,3.99-2.21-.14-3.88-2.14-3.73-4.48Z"/>
          <g>
            <path class="cls-4" d="M57.47,45.31s0-.06,0-.09c.39-2.24.27-5.86-2.54-10.47-2.84-4.65-5.88-6.01-8.04-6.01-1.88,0-4.52,1.1-5.41,3.27-1.34.02-4.07.25-5.71,1.78-1.12,1.05-1.75,2.3-2.05,3.48-1.17.39-3.19,1.38-3.83,3.54-.27.92-.33,1.7-.24,2.37-.44.46-.8.97-.98,1.5-.68,2.06.26,4.11,1.4,5.2.45.43,1.08.88,1.77,1.28.37,1.92,1.13,3.85,2.7,5.02,1.34,1.01,2.76,1.68,4.23,2.06,3.11.78,6.51.2,10.17-1.63,3.8-1.9,6.06-4.61,7.3-7.15.74-1.52,1.11-2.98,1.22-4.16Z"/>
            <path class="cls-4" d="M157.01,101.42c-.81-2.31-3.1-4.83-5.94-5.1-.09,0-.18,0-.26-.01-.52-.94-1.67-2.46-3.75-2.73-.24-.03-.49-.03-.73,0-.99-.96-2.52-2.07-4.2-1.86-.15.02-.29.05-.43.08-1.02-.58-2.38-1.19-3.43-1.07-2.52.29-4.42,3.2-4.65,5.34-.14,1.26.25,2.86.9,4.11-.6.06-1.59.37-2.21,1.77-.69,1.57-.51,2.78.16,3.75.32.47.76.89,1.27,1.27.77.57,3.52,2.26,5.12,2.69,1.86,1.81,4.71,3.26,8.56,3.41,3.87.14,6.08-1.3,7.42-2.86.34-.4.63-.81.87-1.2,1.99-2.61,1.9-5.85,1.29-7.58Z"/>
            <path class="cls-4" d="M134.62,90.71s0,.05,0,.08c.23-.19.45-.4.67-.6.17-.15.34-.29.5-.45.31-.29.61-.59.91-.89.11-.11.23-.22.34-.33.4-.42.8-.84,1.18-1.28.11-.12.21-.25.31-.38.27-.32.54-.64.8-.97.14-.18.27-.36.41-.54.22-.29.43-.57.64-.87.14-.2.28-.41.42-.62.19-.28.38-.57.57-.86.14-.22.27-.44.4-.67.17-.29.34-.58.51-.87.13-.23.26-.47.38-.7.16-.3.31-.59.46-.89.12-.24.24-.49.35-.73.14-.31.28-.61.42-.93.11-.25.22-.5.32-.76.13-.32.26-.64.38-.96.1-.26.2-.52.29-.78.12-.33.23-.67.34-1.01.09-.26.17-.52.25-.79.11-.35.21-.7.31-1.06.07-.26.15-.52.22-.79.1-.38.18-.76.27-1.14.06-.25.12-.5.17-.76.09-.43.17-.86.25-1.29.04-.22.08-.43.12-.66.11-.65.2-1.31.29-1.98,0,0,0-.01,0-.02.72-5.83.3-11.4-1.13-16.51,3.78-1.54,6.76-4.79,7.73-8.88,2.01-8.47-5.7-18.51-14.77-17.8-3.62.28-7.08,2.24-9.46,5.11-.56-.33-1.12-.66-1.7-.97-.59-.32-1.19-.62-1.8-.91-4.28-2.03-9.14-3.44-14.5-4.1-2.3-.28-4.54-.41-6.72-.39-1.45.01-2.87.09-4.26.23-2.09.21-4.11.57-6.05,1.06-.64.16-1.26.34-1.88.52-1.61-3.36-4.49-6.1-7.94-7.25-8.63-2.9-18.54,4.98-18.66,13.68-.05,4.2,2.04,8.08,5.34,10.49-.1.18-.22.36-.32.55-2.46,4.48-4.1,9.6-4.79,15.2-.08.68-.15,1.35-.21,2.02-.02.22-.03.44-.04.66-.03.44-.06.89-.08,1.33,0,.26,0,.52-.01.78,0,.39-.02.79-.01,1.18,0,.28.01.55.02.82,0,.37.02.74.04,1.11.01.28.04.56.06.83.02.22.03.44.05.66.01.13.03.27.04.4.03.28.06.56.1.83.04.34.08.69.14,1.02.04.28.09.55.13.82.06.33.12.67.18,1,.05.27.11.54.17.81.07.33.15.65.23.97.07.27.14.53.21.79.09.32.18.64.28.95.08.26.16.52.24.77.1.31.21.62.33.93.09.25.18.5.28.75.12.31.25.61.38.92.1.24.2.48.31.71.14.31.29.61.43.91.11.23.22.45.33.67.16.31.33.62.5.92.11.21.22.41.34.62.19.33.4.66.61.99.11.17.21.34.31.5.31.47.62.92.95,1.37.02.02.03.04.05.07,0,0,0,0,0,0,0,0,0-.01,0-.01.95-2.29,2.77-6.02,4.16-7.69,2.43-2.91,6.18-5.8,12.12-8.12,5.93-2.32,14.22-2.94,17.35-2.56,3.13.4,11.03,3.01,16.21,6.71,5.2,3.7,8.14,7.41,9.78,10.82.98,2.04,2.22,4.76,2.43,8.19ZM139.7,31c3.82-.3,7.06,3.93,6.22,7.49-.38,1.62-1.52,2.93-2.98,3.62-.1-.18-.19-.36-.29-.54-1.22-2.17-2.66-4.21-4.32-6.1-.77-.88-1.59-1.71-2.45-2.52.99-1.1,2.37-1.84,3.82-1.96ZM79.24,30.84c-1.1.94-2.13,1.96-3.11,3.03-1.25-1.02-2.04-2.57-2.02-4.24.05-3.66,4.22-6.98,7.85-5.76,1.37.46,2.53,1.52,3.23,2.83-1.03.57-2.03,1.19-2.99,1.85-1.03.71-2.02,1.47-2.97,2.29ZM88.27,53.86c-.25,2-1.33,3.51-2.43,3.38-1.09-.13-1.78-1.87-1.53-3.86.25-2,1.33-3.51,2.43-3.38,1.09.13,1.78,1.86,1.53,3.86ZM127.59,58.71c-.25,2-1.33,3.51-2.43,3.38-1.09-.13-1.78-1.87-1.53-3.86.25-2,1.33-3.51,2.43-3.38,1.09.13,1.78,1.86,1.53,3.86Z"/>
          </g>
          <g>
            <path class="cls-11" d="M76.13,33.87c.98-1.07,2.01-2.09,3.11-3.03.95-.81,1.94-1.57,2.97-2.29.96-.66,1.96-1.28,2.99-1.85-.7-1.31-1.86-2.37-3.23-2.83-3.63-1.22-7.81,2.09-7.85,5.76-.02,1.67.76,3.21,2.02,4.24Z"/>
            <path class="cls-11" d="M139.7,31c-1.44.11-2.82.86-3.82,1.96.86.81,1.68,1.64,2.45,2.52,1.65,1.88,3.1,3.92,4.32,6.1.1.18.19.36.29.54,1.46-.69,2.6-2,2.98-3.62.84-3.56-2.4-7.79-6.22-7.49Z"/>
            <path class="cls-11" d="M73.71,84.85c.13.16.28.31.41.47.27.32.54.63.83.94.17.18.35.36.52.54.26.27.53.55.8.81.19.19.39.37.59.55.27.25.54.5.82.74.21.18.43.36.65.54.28.23.56.46.85.68.23.18.46.35.7.52.29.21.58.43.88.63.24.17.49.33.74.5.3.2.61.4.92.59.26.16.52.31.78.47.32.19.64.37.96.55.02.01.04.03.07.04.25.14.5.27.75.4.33.17.67.34,1.01.51.28.14.57.27.85.41.35.16.7.31,1.05.46.29.13.59.25.89.37.36.15.73.29,1.11.42.3.11.6.23.91.33.38.13.78.26,1.17.39.28.09.56.18.84.27.03,0,.06.02.09.02.41.12.83.23,1.24.35.31.08.61.17.93.25.44.11.89.21,1.35.31.3.07.59.14.9.2.5.1,1.02.2,1.54.29.26.05.52.1.78.14.78.13,1.56.24,2.36.34.01,0,.02,0,.03,0,0,0,.02,0,.02,0,.81.1,1.6.18,2.39.25.27.02.53.03.8.05.53.04,1.05.07,1.57.09.31.01.62.01.93.02.46.01.93.02,1.39.02.32,0,.64-.01.96-.02.43,0,.87-.02,1.3-.04.02,0,.05,0,.07,0,.3-.01.6-.04.9-.06.42-.03.83-.06,1.24-.09.32-.03.64-.07.96-.1.4-.05.8-.09,1.19-.15.32-.04.63-.09.94-.14.39-.06.77-.13,1.15-.2.31-.06.61-.12.92-.18.38-.08.75-.17,1.12-.26.04,0,.08-.02.11-.03.26-.06.52-.13.77-.2.37-.1.74-.2,1.1-.31.28-.08.57-.17.85-.26.36-.12.72-.24,1.08-.37.27-.1.54-.19.8-.29.37-.14.72-.29,1.08-.44.25-.1.5-.2.74-.31.38-.17.75-.35,1.12-.53.21-.1.43-.2.64-.31.44-.22.86-.46,1.29-.7.13-.07.27-.14.4-.22.55-.32,1.09-.66,1.62-1.01.12-.08.23-.16.34-.24.41-.28.81-.55,1.2-.85.18-.13.35-.28.53-.42.32-.25.64-.49.95-.75.04-.03.08-.06.12-.1,0-.04,0-.07,0-.08-.21-3.43-1.45-6.15-2.43-8.19-1.65-3.42-4.59-7.12-9.78-10.82-5.18-3.69-13.08-6.31-16.21-6.71-3.13-.38-11.43.24-17.35,2.56-5.94,2.33-9.69,5.21-12.12,8.12-1.39,1.67-3.22,5.4-4.16,7.69,0,0,0,0,0,.01,0,.01.02.02.03.04.36.49.73.97,1.12,1.44ZM102.64,65.95c.38-.42,2.56-.41,3.69-.27,1.13.14,3.31.56,3.56,1.17.28.69-2.02,2.8-4.02,2.58-2.19-.29-3.73-2.91-3.23-3.47ZM88.17,74.76c.28-2.3,1.56-2.89,3.43-3.14,2.12-.29,8.49.04,13.93.68,5.43.7,11.69,1.93,13.67,2.73,1.76.7,2.86,1.59,2.57,3.88-.54,4.25-3.26,10.52-8.23,14.18,0,0,0,0,0,0-.18.13-.37.26-.56.39-.01,0-.02.01-.03.02-.22.14-.44.28-.66.42-.07.04-.14.08-.21.12-.18.11-.37.21-.55.31-.06.03-.13.07-.2.1-.25.13-.5.24-.75.36-.04.02-.09.04-.13.06-.22.09-.43.18-.66.26-.08.03-.16.06-.24.09-.21.07-.43.14-.65.21-.06.02-.12.04-.18.06-.28.08-.56.15-.84.21-.07.01-.13.03-.2.04-.23.05-.45.09-.69.12-.09.01-.18.03-.27.04-.26.04-.51.06-.78.09-.05,0-.09,0-.14.01-.31.02-.62.04-.93.04-.08,0-.17,0-.26,0-.24,0-.49,0-.74-.02-.09,0-.19,0-.28-.01-.33-.02-.66-.05-1-.09h0c-.45-.06-.89-.13-1.32-.22-.13-.03-.25-.06-.37-.08-.31-.07-.62-.15-.92-.24-.12-.03-.23-.07-.35-.1-.39-.13-.78-.26-1.15-.42-.02,0-.03-.02-.05-.02-.36-.15-.7-.31-1.03-.48-.1-.05-.2-.11-.31-.16-.26-.14-.51-.29-.75-.44-.09-.06-.18-.11-.27-.17-.32-.21-.63-.43-.93-.66-.02-.02-.05-.04-.07-.06-.27-.21-.54-.44-.79-.67-.08-.07-.16-.15-.24-.22-.2-.19-.4-.39-.6-.59-.05-.05-.1-.09-.14-.14,0,0,0,0,0,0h0c-4.43-4.77-5.69-11.99-5.15-16.46Z"/>
            <path class="cls-11" d="M85.84,57.24c1.09.13,2.18-1.38,2.43-3.38.25-2-.44-3.73-1.53-3.86-1.09-.13-2.18,1.38-2.43,3.38-.25,2,.44,3.73,1.53,3.86Z"/>
            <path class="cls-11" d="M125.17,62.09c1.09.13,2.18-1.38,2.43-3.38.25-2-.44-3.73-1.53-3.86-1.09-.13-2.18,1.38-2.43,3.38-.25,2,.44,3.73,1.53,3.86Z"/>
          </g>
          <path class="cls-1" d="M105.88,69.43c2,.23,4.3-1.88,4.02-2.58-.25-.61-2.42-1.03-3.56-1.17-1.13-.14-3.31-.15-3.69.27-.5.56,1.04,3.18,3.23,3.47Z"/>
          <path class="cls-17" d="M119.21,75.02c-1.98-.79-8.25-2.03-13.67-2.73-5.43-.64-11.81-.97-13.93-.68-1.88.25-3.16.84-3.43,3.14-.54,4.47.72,11.69,5.15,16.46,1.94-2.02,5.89-4.89,10.73-4.3,4.46.53,7.75,3.76,9.49,6.16,4.97-3.66,7.69-9.93,8.23-14.18.29-2.3-.81-3.18-2.57-3.88Z"/>
          <path class="cls-9" d="M104.06,86.92c-4.84-.6-8.79,2.27-10.73,4.3h0s0,0,0,0c.04.05.09.09.14.14.19.2.39.4.6.59.08.08.16.15.24.22.26.23.52.46.79.67.02.02.05.04.07.06.3.23.61.45.93.66.09.06.18.11.27.17.24.15.5.3.75.44.1.06.2.11.31.16.33.17.68.33,1.03.48.02,0,.03.02.05.02.37.15.76.29,1.15.42.11.04.23.07.35.1.3.09.61.17.92.24.12.03.25.06.37.08.43.09.86.16,1.32.22h0c.34.04.67.07,1,.09.1,0,.19,0,.28.01.25.01.49.02.74.02.09,0,.17,0,.26,0,.31,0,.62-.02.93-.04.05,0,.09,0,.14-.01.26-.02.52-.05.78-.09.09-.01.18-.03.27-.04.23-.04.46-.08.69-.12.07-.01.14-.03.2-.04.28-.06.56-.13.84-.21.06-.02.12-.04.18-.06.22-.07.43-.13.65-.21.08-.03.16-.06.24-.09.22-.08.44-.17.66-.26.04-.02.09-.04.13-.06.26-.11.51-.23.75-.36.07-.03.13-.07.2-.1.19-.1.37-.2.55-.31.07-.04.14-.08.21-.12.22-.13.45-.27.66-.42.01,0,.02-.01.03-.02.19-.13.37-.26.56-.39,0,0,0,0,0,0h0c-1.74-2.4-5.03-5.63-9.49-6.16Z"/>
          <path class="cls-3" d="M102.14,101.14c3.83.39,7.22-.39,8.7-1.83-.25,0-.51.01-.76.02-.32,0-.64.02-.96.02-.46,0-.92-.01-1.39-.02-.31,0-.62,0-.93-.02-.52-.02-1.04-.06-1.57-.09-.27-.02-.53-.03-.8-.05-.79-.07-1.59-.15-2.39-.25,0,0-.02,0-.02,0-.01,0-.02,0-.03,0-.8-.1-1.59-.21-2.36-.34-.26-.04-.52-.1-.78-.14-.52-.09-1.03-.18-1.54-.29-.3-.06-.6-.14-.9-.2-.45-.1-.9-.2-1.35-.31-.31-.08-.62-.17-.93-.25-.12-.03-.23-.06-.35-.09.96,1.85,4.27,3.45,8.34,3.87Z"/>
        </g>
        <path d="M129.45,130.06s0-.09,0-.13c-.06-.37-.12-.74-.18-1.1,4.52,1.99,6.21,2.52,6.28,2.55.03,0,.06,0,.09.01.7.23,1.42.43,2.23.56l1.53.18,1.64.04c.54-.04,1.07-.07,1.61-.13.53-.11,1.07-.16,1.59-.31.52-.16,1.05-.27,1.55-.49l.75-.3c.25-.11.48-.25.72-.37.97-.48,1.85-1.14,2.68-1.83.79-.74,1.55-1.52,2.16-2.41.65-.87,1.16-1.82,1.6-2.8.2-.5.42-1,.56-1.52.08-.27.16-.5.23-.79l.17-.75c.12-.49.21-1.02.31-1.54.1-.53.17-1.04.24-1.56.08-.52.13-1.03.18-1.55.06-.52.1-1.03.13-1.55.08-1.03.12-2.07.14-3.1,0-.26,0-.53.01-.79.33-.43.61-.85.84-1.25.31-.4.6-.88.85-1.45.38-.86.67-1.9.76-3.05.08-1.15.01-2.42-.49-3.72-.5-1.26-1.29-2.43-2.37-3.42-.54-.49-1.15-.93-1.84-1.28l-.53-.24-.56-.19-.62-.15-.52-.08h0c-.68-1.05-1.94-2.4-4.03-2.67-.18-.02-.37-.03-.55-.03-1.1-1.01-2.73-2.07-4.56-1.84-.07,0-.14.03-.21.04-1.09-.59-2.48-1.16-3.65-1.03-2.77.32-5.02,3.42-5.3,5.99-.12,1.09.11,2.47.6,3.71-.68.3-1.38.89-1.85,1.96-.36.81-.52,1.58-.49,2.3-.48-.31-.9-.6-1.26-.84-1.7-1.16-5.02-3.29-8.27-4.7,7.94-2.24,14.45-6.7,19.04-13,.08.05.17.1.25.16,1.16.69,2.29,1.42,3.13,1.98.42.28.75.54,1.02.67.27.13.46.15.46.15h0s.08,0,.11-.02c.11-.05.16-.18.11-.29,0,0-.08-.18-.29-.4-.21-.22-.57-.45-.98-.75-.84-.59-1.97-1.35-3.12-2.07-.07-.04-.13-.08-.2-.12.78-1.13,1.5-2.32,2.16-3.56.99.09,1.93.2,2.68.31.48.06.88.15,1.16.15.29,0,.46-.06.46-.06.03-.01.07-.03.09-.06.08-.09.08-.23-.02-.31,0,0-.14-.13-.42-.23-.27-.1-.68-.15-1.17-.24-.67-.11-1.5-.23-2.38-.34,2.07-4.13,3.48-8.84,4.12-14.06.69-5.62.34-11.09-.99-16.17,3.75-1.72,6.6-5.04,7.57-9.14,1.04-4.37-.38-9.49-3.7-13.36-3.2-3.73-7.51-5.68-11.84-5.34-3.67.29-7.09,2.17-9.54,4.89-5.14-2.98-11.12-4.94-17.77-5.76-6.69-.82-12.97-.33-18.62,1.3-1.72-3.26-4.58-5.92-8.08-7.1-4.12-1.38-8.78-.55-12.78,2.3-4.16,2.95-6.78,7.57-6.84,12.06-.05,4.21,1.9,8.12,5.1,10.69-2.48,4.52-4.16,9.72-4.87,15.46-.29,2.33-.4,4.6-.35,6.8-3.72-5.71-6.6-10.8-8.06-13.49.64-1.42,1.01-2.82,1.13-4.07.01-.15.01-.31,0-.47.13-.73.2-1.57.14-2.51-.08-1.19-.33-2.5-.79-3.87-.46-1.38-1.12-2.76-1.98-4.19-.22-.34-.41-.67-.66-1.02-.24-.35-.49-.71-.77-1.05-.54-.68-1.13-1.35-1.82-1.96-.69-.61-1.46-1.17-2.34-1.6-.88-.42-1.86-.73-2.91-.76-1.06-.03-2.06.2-3.01.6-.94.4-1.83.99-2.53,1.82-.24.28-.44.6-.61.94-1.55.08-4.03.46-5.65,1.96-1.15,1.07-1.81,2.29-2.16,3.46-1.36.52-3.25,1.67-3.92,3.89-.26.88-.34,1.64-.3,2.33-.4.47-.73.98-.91,1.53-.77,2.33.25,4.67,1.59,5.96.42.4.99.82,1.62,1.21.42,1.93,1.25,3.9,2.92,5.15,1.3.97,2.67,1.65,4.11,2.07,1.96,5.58,7.37,19.2,17.71,33.35,6.17,8.46,13.43,15.15,18.6,19.39-.2,1.45-.39,3.05-.58,4.78-.31,2.94-.63,6.27-.89,9.9-.03.34-.05.69-.07,1.04M146.63,94.28c.11,0,.23,0,.34.02,1.08.14,1.87.68,2.42,1.27-1,.17-1.95.55-2.8,1.13-.66.46-1.25,1.05-1.7,1.74-.45.71-.74,1.53-.82,2.31-.17,1.53-.05,2.94.17,4.33.03.2.08.41.12.62-.56-.18-1.12-.53-1.62-1.04-1.03-1.06-1.4-4.87-.98-6.19.51-1.56,2.68-4.19,4.87-4.19ZM142.22,92.44c.11-.01.22-.02.33-.02.8,0,1.57.35,2.23.81-2.09.89-3.86,3.06-4.42,4.79-.39,1.2-.33,4.03.4,6.04-.66-.06-1.28-.47-1.97-1.28-.85-.99-1.69-4.48-1.03-6.18.56-1.42,1.88-3.85,4.46-4.18ZM134.35,96.14c.19-1.74,1.84-4.43,4.01-4.69.07,0,.14-.01.21-.01.39,0,.83.12,1.29.28-2,1.16-3.05,3.3-3.46,4.36-.55,1.39-.37,3.59.16,5.37-.03-.02-.06-.03-.09-.04-1.19-.6-2.33-3.41-2.12-5.27ZM132.98,102.24c.33-.75.77-1.08,1.15-1.23.46.76,1.03,1.38,1.68,1.71.54.27,1.08.54,1.64.73.08.11.15.21.23.3.74.86,1.49,1.41,2.27,1.66.03.02.05.04.08.06.83.6.97,1.64.75,2.41-.08.26-.39,1.1-1.26,1.14-.9.07-4.1-1.73-5.34-2.64-1.6-1.18-1.95-2.41-1.2-4.14ZM119.78,110.98c-1.27-.06-2.49.41-3.43,1.32-.93.9-1.47,2.12-1.53,3.44-.06,1.32.37,2.58,1.21,3.56.85.99,2.02,1.57,3.29,1.63.07,0,.14,0,.21,0,.7,0,1.37-.17,1.97-.46-.64.48-1.49.78-2.59.92-.78.1-1.93.03-2.95-.85-1.43-1.23-2.23-3.68-2.31-7.09-.1-3.81-.72-9.34-1.35-13.48,2.56-.16,5.02-.52,7.37-1.06.08.15.16.31.23.48,1,2.69,2.38,7.7,3.07,12.32.05.32.08.61.12.91,0,0,0-.01-.01-.01-.85-.99-2.02-1.57-3.29-1.63ZM122.81,116.1c-.09,1.93-1.62,3.43-3.43,3.35-.86-.04-1.66-.44-2.25-1.12-.6-.69-.9-1.59-.86-2.54.04-.94.43-1.81,1.09-2.45.61-.59,1.38-.91,2.2-.91.05,0,.1,0,.14,0,.86.04,1.66.44,2.25,1.12.6.69.9,1.59.86,2.54ZM139,23.76c3.86-.3,7.73,1.46,10.61,4.83,3.02,3.52,4.32,8.15,3.39,12.07-.85,3.58-3.31,6.5-6.55,8.05-.66-2.18-1.51-4.28-2.53-6.28,1.34-.84,2.34-2.17,2.72-3.76.47-1.97-.17-4.27-1.65-6-1.44-1.68-3.38-2.55-5.34-2.39-1.4.11-2.72.74-3.77,1.67-1.62-1.47-3.39-2.8-5.26-3.99,2.19-2.34,5.18-3.95,8.39-4.2ZM143.22,41.11c-.92-1.62-1.95-3.18-3.11-4.64-.98-1.25-2.05-2.41-3.18-3.52.79-.68,1.78-1.13,2.83-1.22,1.48-.12,2.99.57,4.11,1.89,1.18,1.38,1.7,3.19,1.34,4.71-.27,1.15-1.01,2.14-1.99,2.78ZM66.71,30.01c.05-4.03,2.44-8.2,6.22-10.89,2.49-1.76,5.24-2.68,7.91-2.68,1.22,0,2.41.19,3.56.58,3.06,1.03,5.58,3.33,7.14,6.15-2.13.7-4.16,1.55-6.08,2.57-.79-1.17-1.92-2.11-3.26-2.56-1.86-.63-3.96-.25-5.76,1.02-1.86,1.32-3.03,3.4-3.06,5.42-.02,1.63.62,3.15,1.7,4.29-1.48,1.68-2.81,3.51-3.99,5.48-2.76-2.3-4.43-5.72-4.38-9.39ZM84.19,26.45c-3,1.74-5.72,3.87-8.1,6.37-.79-.86-1.26-2-1.25-3.17.02-1.56.96-3.19,2.44-4.24.97-.69,2.05-1.05,3.08-1.05.47,0,.93.07,1.36.22,1,.34,1.85,1.02,2.46,1.88ZM66.94,56.32c.25-2.02.63-3.96,1.12-5.84,2.7-.31,5.31-.84,5.33-1.61.02-.67-1.78-2.06-3.89-2.85,5.66-14.59,19.04-23.53,35.81-23.53.68,0,1.37.02,2.06.05,0,.16-.02.34-.03.51-3.92-.15-7.37.19-9.41.68-2.72.64-3.55,1.52-1.93,2.01,1.36.41,5.43,1.27,11.19,2.09,0,.58,0,1.17,0,1.77-2.05.13-3.8.58-4.97,1.09-1.78.76-2.47,1.38-1.58,2.06.79.61,3.26,1.73,6.86,2.44.33,2.68.95,4.68,2.08,4.82,1.14.14,2.24-1.67,3.21-4.21,3.39.12,5.86-.34,6.73-.72,1.04-.45.51-1.21-1.03-2.39-.93-.71-2.34-1.5-4.08-2.1.16-.61.31-1.22.46-1.82,5.47.55,9.37.69,10.74.62,1.69-.08,1.1-1.13-1.38-2.42-1.77-.92-4.78-2.01-8.35-2.81.04-.18.07-.35.1-.52,9.6,2.07,17.49,6.76,22.99,13.72,4.13,5.23,6.67,11.58,7.48,18.46-2.09.2-3.75.79-3.89,1.43-.17.78,1.65,1.74,4.17,2.69.04,2.03-.07,4.09-.33,6.17h0c-.24,1.91-.58,3.76-1.02,5.52-2.1-.46-3.98-.29-4.45.17-.59.58.83,1.95,3.04,4.31-.54,1.42-1.15,2.79-1.84,4.09-1.18-.07-2.34-.1-3.23-.09-.49,0-.91,0-1.19.06-.29.06-.45.16-.45.16-.03.02-.06.05-.08.08-.06.11-.02.24.09.3h0s.17.09.45.14c.28.04.69.01,1.17.03.78.01,1.77.05,2.8.13-.57,1.02-1.18,2-1.84,2.94-.64-.37-1.24-.71-1.75-.98-.45-.24-.81-.46-1.1-.56-.29-.1-.48-.09-.48-.09-.04,0-.08.01-.11.03-.1.07-.13.2-.07.3,0,0,.1.16.34.35.23.18.61.37,1.05.63.48.28,1.05.61,1.65.97-1.43,1.94-3.04,3.7-4.83,5.25-6.49,5.65-15.26,8.74-25.58,8.74-2.22,0-4.5-.14-6.86-.43-13.13-1.62-23.19-7.23-29.2-15.61-1.46-2.03-2.67-4.22-3.64-6.56.73-.19,1.43-.35,2-.48.5-.12.93-.19,1.21-.29.28-.11.44-.24.44-.24.03-.02.05-.06.07-.1.04-.11-.02-.24-.14-.28,0,0-.19-.06-.5-.06-.31,0-.73.12-1.24.21-.62.13-1.37.29-2.15.47-.47-1.22-.86-2.48-1.2-3.77.57.06,1.13.13,1.65.21.32.05.63.1.92.16.29.06.57.11.81.18.5.12.91.25,1.21.3.3.04.5,0,.5,0h.01s.08-.03.11-.06c.09-.08.09-.22,0-.31,0,0-.14-.14-.42-.29-.28-.15-.72-.25-1.23-.4-.26-.08-.54-.13-.84-.2-.3-.07-.61-.13-.94-.19-.64-.12-1.32-.21-2-.3-.26-1.14-.47-2.3-.62-3.49,2.85-1.85,5.28-3.4,4.84-4.11-.36-.58-2.81-.93-5.18-.9,0-1.87.1-3.79.34-5.76ZM82.56,119.21c.09,0,.19,0,.28,0,2.48,0,4.59-2.04,4.75-4.68.08-1.32-.33-2.59-1.15-3.58-.83-1-1.99-1.6-3.26-1.68-1.27-.08-2.49.37-3.45,1.26,0,0-.01.01-.02.02.06-.31.12-.61.19-.94.96-4.43,3.33-11.87,4.69-15.16,2.27,1.18,4.72,2.2,7.34,3.02-1.01,4.07-2.2,10.48-2.8,14.92-.45,3.38-1.51,5.73-3.07,6.8-1.11.76-2.26.7-3.02.52-.89-.21-1.64-.52-2.25-1,.54.27,1.13.44,1.77.48ZM79.61,114.04c.06-.94.46-1.81,1.13-2.43.61-.57,1.37-.87,2.16-.87.06,0,.13,0,.19,0,.86.05,1.65.46,2.23,1.15.58.7.87,1.61.81,2.55-.12,1.93-1.67,3.41-3.48,3.3-1.8-.11-3.16-1.77-3.04-3.7ZM93.26,98.23c.49.63,1.14,1.22,1.97,1.74,1.88,1.2,4.42,1.96,7.15,2.14.42.03.83.04,1.24.04,2.27,0,4.41-.42,6.12-1.22.42-.19.79-.41,1.14-.64.52,3.43,1.03,7.82,1.24,11.35-6.75-.54-13.72-1.01-21.21-1.18.61-3.97,1.55-8.87,2.36-12.24ZM95.7,98.52c1.99.47,4.07.85,6.23,1.11,2.05.25,4.04.39,5.99.43-1.6.51-3.48.71-5.45.58-2.49-.17-4.78-.84-6.45-1.91-.11-.07-.21-.14-.31-.22ZM36.26,34.33c1.11-1.03,2.83-1.4,4.14-1.53,0,.06-.02.11-.03.18l-.04.34c-.09,1-.06,1.99.11,2.95.16.96.44,1.88.76,2.74l.25.65c.1.24.21.46.31.66.01.03.03.05.04.08-.18,0-.36,0-.54.03-.25.04-.46.05-.76.12-1.1.23-2.17.63-3.07,1.42-.52.44-.95,1.03-1.22,1.7-.9-1.2-1.63-2.49-1.87-3.5-.27-1.15-.22-3.85,1.92-5.84ZM30.59,41.03c.38-1.27,1.32-2.06,2.19-2.54-.06.8.01,1.51.14,2.03.37,1.54,1.6,3.53,3.03,5.15.02.16.05.31.09.47.05.16.08.27.15.46l.14.33c.22.5.49.97.78,1.39.4.56.85,1.06,1.34,1.49-.33.09-.73.12-1.14.07-1.38-.17-4.1-2.01-5.2-3.51l-.3-.4c-1.03-1.38-1.92-2.56-1.22-4.92ZM30.57,49.36c-1.01-.97-1.78-2.71-1.21-4.44,0-.01.01-.03.02-.04.34.73.81,1.36,1.25,1.95l.29.39c1.13,1.54,3.81,3.54,5.75,4.01-.45.3-1.07.45-1.46.42-1.4-.11-3.6-1.3-4.65-2.3ZM34.98,55.61c-.99-.74-1.62-1.86-2.03-3.06.74.31,1.49.52,2.16.57.06,0,.13,0,.2,0,.93,0,2.36-.44,3.03-1.52.06-.1.11-.2.16-.32.46-.08.9-.25,1.27-.49.57.35,1.15.63,1.71.84.38.15.75.26,1.1.35.33.09.64.17.94.25.59.16,1.1.28,1.54.35.87.13,1.4.08,1.4.08.11-.01.22-.07.29-.16.13-.18.09-.43-.09-.56,0,0-.43-.32-1.25-.65-.41-.16-.91-.32-1.5-.48-.29-.08-.6-.17-.93-.27-.3-.09-.62-.19-.94-.32-.64-.26-1.3-.61-1.92-1.08-.62-.47-1.2-1.06-1.68-1.75-.24-.35-.44-.72-.61-1.09l-.14-.34s-.04-.16-.07-.24c-.04-.18-.07-.35-.07-.53-.01-.72.35-1.44.98-1.96.59-.54,1.45-.89,2.26-1.06.18-.05.46-.08.69-.11.19-.03.41-.02.6-.03.42.01.86.05,1.29.13.87.14,1.72.36,2.52.6.8.23,1.55.5,2.25.75.69.25,1.32.5,1.88.73.55.23,1.04.42,1.46.56.83.26,1.36.3,1.36.3.11,0,.22-.03.31-.11.16-.15.17-.41.02-.57,0,0-.37-.4-1.13-.85-.23-.14-.5-.27-.8-.41.12-.29.22-.59.28-.91.15-.7.18-1.35.17-1.95-.02-.59-.08-1.14-.17-1.64l.85-.97c.13-.14.16-.36.06-.54-.13-.23-.41-.31-.64-.18l-.63.35s-.01-.04-.02-.06c-.29-.8-.64-1.38-.88-1.76-.26-.37-.42-.56-.42-.56-.09-.11-.24-.17-.39-.13-.2.05-.33.26-.27.47v.02s.06.22.2.62c.11.4.31.98.47,1.72.16.74.35,1.65.37,2.68,0,.52-.03,1.07-.15,1.6-.04.2-.11.41-.2.63-.37-.15-.76-.31-1.17-.47-.71-.27-1.48-.56-2.32-.83-.82-.26-1.69-.52-2.65-.69-.18-.32-.36-.65-.53-.98-.1-.19-.18-.37-.25-.54l-.22-.59c-.29-.81-.53-1.63-.66-2.46-.14-.82-.16-1.68-.08-2.51l.04-.34c.01-.06.03-.17.05-.26.04-.18.09-.35.16-.53.14-.34.32-.66.57-.96.97-1.17,2.7-1.89,4.22-1.87,1.56.04,3.07.87,4.26,1.93.61.53,1.15,1.13,1.65,1.75.25.31.48.62.7.94.22.31.44.67.65.99.78,1.28,1.42,2.61,1.85,3.85.43,1.25.66,2.44.74,3.49.08,1.06.03,1.97-.05,2.73-.09.75-.22,1.34-.33,1.73-.04.15-.07.26-.1.35l-.04-.07c-.89,3.04-3.25,6.5-7.73,8.74-5.31,2.65-9.77,2.53-13.64-.36ZM66.19,71.31c.35,1.47.78,2.9,1.3,4.28-.04,0-.07.02-.11.03M68.96,75.24c.07-.02,1.35,1.36,1.42,1.34,2.95,7.3,7.82,12.53,15.07,16.64-.84,2.01-4.21,6.1-5.27,9.63-.69,2.31-1.31,4.61-1.71,6.45-.62,2.85-.8,5.1-.53,6.86-1,1.67-2.08,3.66-3.05,5.89.17-1.96.35-3.81.52-5.53.32-2.92.6-5.48.83-7.57.47-4.2.77-6.59.77-6.59l-.74-.14s-.04.15-.11.43c-.08.29-.17.72-.29,1.27-.26,1.11-.57,2.75-.92,4.85-.06.36-.12.74-.18,1.13-5.04-4.2-11.84-10.58-17.66-18.56-9.75-13.35-15.06-26.2-17.22-32.14.54.07,1.09.12,1.65.12,2.42,0,5-.68,7.73-2.04,3.31-1.65,5.55-3.93,6.98-6.27,1.79,3.24,5.01,8.83,9.05,14.84.15,1.58,3.05,2.24,3.37,3.74M73.9,129.61c1-4.39,2.85-8.38,4.61-11.49.76,1.57,2.13,2.53,4.19,3.02.45.11.89.16,1.32.16,1.03,0,2.01-.3,2.88-.9,1.93-1.33,3.17-3.95,3.69-7.81.03-.22.06-.45.09-.68,7.59.17,14.65.65,21.49,1.19,0,.12,0,.25.01.37.1,3.89,1.05,6.64,2.82,8.16.95.81,2.1,1.24,3.35,1.24.24,0,.49-.02.74-.05,1.96-.25,3.36-.96,4.29-2.19.4-.53.71-1.15.93-1.88,1.44,2.74,2.95,6.54,3.66,11.31M153.88,114.14c-.03.5-.06,1.01-.12,1.51-.04.5-.09,1-.16,1.5-.06.5-.12,1-.21,1.48-.08.48-.16.96-.28,1.47l-.17.75c-.05.2-.13.45-.2.68-.12.47-.32.91-.49,1.36-.4.88-.85,1.74-1.42,2.52-.54.8-1.22,1.5-1.92,2.16-.74.61-1.51,1.2-2.37,1.64-.21.11-.42.23-.64.33l-.67.27c-.44.2-.91.3-1.37.45-.46.14-.95.19-1.42.29-.48.06-.97.08-1.45.13l-1.43-.02-1.52-.17c-.87-.13-1.86-.43-2.79-.77-.94-.33-1.86-.72-2.79-1.1l-2.79-1.19-.19.32.18-.34c-.24-.11-.49-.22-.74-.33-.08-.36-.16-.71-.25-1.05-.01-.47-.03-.94-.05-1.39-.11-2.96-.25-5.54-.48-7.66-.1-1.06-.24-2-.36-2.82-.12-.82-.23-1.51-.35-2.08-.21-1.12-.36-1.71-.36-1.71l-.75.11s.15,2.41.42,6.62c.07,1.15.15,2.45.22,3.86-.74-1.78-1.52-3.28-2.25-4.49.09-1.39-.01-3.02-.3-4.95-.62-4.12-3.79-9.69-4.75-12.59,2.45,1.13,3.82,1.47,6.08,3.01.73.5,5.07,3.58,6.21,4.32.34.47.79.91,1.35,1.32.19.14.82.56,1.62,1.04-.08.77-.18,1.54-.26,2.31-.11,1.09-.2,2.18-.25,3.28-.02.55-.04,1.1-.03,1.65,0,.55.03,1.11.1,1.68h.75s.25-1.6.25-1.6l.23-1.61c.15-1.08.28-2.16.4-3.24.06-.56.13-1.12.2-1.69.73.38,1.48.72,2.14.92,1.96,1.86,4.9,3.34,8.93,3.49.19,0,.38.01.56.01,2.72,0,4.64-.77,6.02-1.79-.02.71-.05,1.42-.1,2.13ZM156.62,104.49c-.07.98-.3,1.85-.61,2.57-.32.72-.68,1.3-1.01,1.77-.33.47-.61.83-.82,1.08-.11.13-.19.23-.24.3l-.03-.08c-1.26,1.27-3.23,2.32-6.46,2.2-2.77-.1-5.05-.95-6.78-2.14.7-.36,1.25-1.02,1.5-1.9.19-.65.21-1.41,0-2.15.85.71,1.81,1.11,2.75,1.18.33.63.84,1.21,1.49,1.56.34.19.7.32,1.05.39.17.04.38.07.54.09l.22.02h.25c.6.03,1.2.03,1.81-.07.6-.1,1.28-.3,1.8-.86.25-.28.41-.6.5-.98l.03-.17v-.08s.03-.08.03-.08v-.03s0-.06,0-.06c.01-.15.01-.29,0-.44-.09-1.17-.75-1.92-1.16-2.36-.04-.04-.08-.08-.12-.12,0-.04,0-.07,0-.1.02-.23.03-.43.04-.59.02-.33.02-.51.02-.51,0-.13-.07-.26-.19-.33-.18-.11-.42-.05-.53.14,0,0-.1.16-.24.48-.07.16-.15.35-.23.6-.04.14-.09.22-.11.5v.06s0,.02,0,.02c0,0,.02.15.01.08h0s.06.22.07.23c.04.09.07.13.1.18.05.07.09.15.14.22.35.5.7,1.02.74,1.61,0,.07,0,.15,0,.22v.03s0,0,0,0v.06s-.04.17-.04.17c-.03.06-.08.18-.15.26-.15.16-.48.31-.93.38-.44.07-.96.07-1.51.05h-.1s-.08-.01-.08-.01l-.22-.02c-.13-.02-.21-.03-.33-.06-.23-.05-.44-.13-.63-.24-.38-.22-.69-.56-.92-1.04-.11-.24-.21-.5-.28-.79-.07-.29-.13-.56-.18-.88-.19-1.24-.28-2.61-.12-3.86.07-.61.28-1.14.59-1.63.33-.49.77-.92,1.27-1.27.5-.35,1.07-.62,1.66-.78.3-.08.6-.13.9-.16l.45-.02h.23s.11.02.11.02h.06s.03,0,.03,0h.01s0,0,0,0l.49.07.4.1.42.14.41.18c.54.26,1.04.61,1.49,1.01.9.8,1.59,1.81,2,2.82.4.98.48,2.08.42,3.05ZM151.37,104.22h0s0-.01,0-.01c0,0,0,0,0-.01,0,.02.01.04,0,.03ZM151.38,104.28h0s0,.01,0,.01c0,0,0-.04,0-.08,0,.03.01.08,0,.07Z"/>
        <path d="M117.04,127.34l-31.22-1.22c-.43-.02-.87.15-1.18.45-.32.3-.49.71-.49,1.15-.05,11.17,6.31,18.35,16.59,18.75.29.01.58.02.87.02,9.79,0,16.27-6.61,16.99-17.44.03-.43-.12-.85-.41-1.17-.29-.32-.71-.52-1.14-.53ZM100.79,145c-9.41-.37-15.22-6.99-15.18-17.28,0-.04.02-.07.04-.09.02-.02.05-.04.1-.04h0l31.22,1.22c.05,0,.09.03.11.05.02.02.04.05.04.1-.68,10.27-6.94,16.42-16.34,16.05Z"/>
        <path d="M93.5,56.15h0c.73-5.94-1.24-10.91-4.5-11.32-3.26-.4-6.39,3.94-7.12,9.88-.73,5.94,1.24,10.91,4.5,11.32.14.02.28.03.42.03,3.1,0,6-4.22,6.7-9.91ZM88.27,53.86c-.25,2-1.33,3.51-2.43,3.38-1.09-.13-1.78-1.87-1.53-3.86.25-2,1.33-3.51,2.43-3.38,1.09.13,1.78,1.86,1.53,3.86Z"/>
        <path d="M125.31,70.53c.14.02.28.03.43.03,1.5,0,2.99-.98,4.22-2.79,1.25-1.84,2.13-4.37,2.47-7.12.73-5.94-1.25-10.91-4.5-11.32-1.65-.2-3.29.78-4.65,2.76-1.25,1.84-2.13,4.37-2.47,7.12-.34,2.75-.1,5.42.67,7.51.83,2.25,2.19,3.61,3.84,3.81ZM123.64,58.23c.25-2,1.33-3.51,2.43-3.38,1.09.13,1.78,1.86,1.53,3.86-.25,2-1.33,3.51-2.43,3.38-1.09-.13-1.78-1.87-1.53-3.86Z"/>
        <path d="M80.49,38.41s.02.1.05.14c.12.22.39.3.61.18,0,0,.06-.03.18-.1.11-.07.26-.18.42-.33.32-.3.65-.83,1.17-1.37.25-.27.54-.55.85-.83.32-.28.67-.55,1.04-.81.38-.25.78-.5,1.2-.71.21-.09.44-.22.64-.28.24-.09.51-.2.71-.24.21-.07.43-.13.66-.17.23-.06.46-.08.69-.11.46-.05.91-.04,1.34,0,.43.05.85.13,1.22.26.38.12.72.28,1.02.45.15.09.29.18.42.26.12.1.24.19.35.27.2.19.39.35.55.47.18.11.32.21.43.27.11.06.19.08.19.08l.06.02s.08.02.13.02c.25,0,.45-.19.46-.44,0,0,0-.08-.02-.23-.03-.14-.08-.36-.21-.58-.12-.24-.34-.47-.6-.72-.14-.12-.29-.24-.44-.37-.17-.11-.34-.24-.52-.36-.38-.23-.81-.45-1.28-.62-.47-.18-.99-.31-1.54-.39-.55-.07-1.12-.09-1.69-.04-.29.03-.57.05-.86.12-.28.05-.57.12-.86.21-.31.08-.53.18-.78.28-.3.11-.52.24-.79.36-.5.25-.97.55-1.4.85-.86.63-1.55,1.32-2.09,1.95-.27.31-.51.62-.71.89-.2.27-.36.52-.45.76-.09.23-.13.43-.14.58-.01.15,0,.23,0,.23v.03Z"/>
        <path d="M124.85,39.79h0s.32-.04.71-.22c.2-.09.42-.22.68-.37.26-.14.56-.29.91-.41.68-.25,1.53-.42,2.42-.37.89.04,1.82.32,2.64.81.11.06.19.12.29.18l.31.22c.18.16.38.3.56.47.35.33.68.68.96,1.06.29.37.55.75.77,1.13.23.37.41.75.58,1.1.16.35.3.68.41.97.1.3.2.55.32.76.11.2.22.36.31.46.09.1.14.16.14.16.04.04.09.08.14.1.22.1.48,0,.58-.22v-.03s.05-.07.08-.23c.03-.14.05-.35.03-.61-.03-.51-.3-1.18-.62-1.98-.17-.4-.36-.82-.61-1.26-.24-.44-.51-.89-.84-1.33-.32-.44-.71-.87-1.13-1.28-.21-.2-.45-.39-.68-.58l-.35-.26c-.13-.09-.27-.18-.4-.26-1.05-.63-2.28-.97-3.42-1-1.15-.04-2.2.23-3.04.57-.42.17-.79.36-1.1.55-.32.19-.57.38-.75.58-.36.4-.42.75-.42.75,0,.05-.01.1,0,.15.03.25.27.43.52.4Z"/>
        <path d="M91.51,70.89c-1.9.26-3.71.89-4.06,3.78-.39,3.2.06,8.29,2.49,12.97,1.88,3.63,5.6,8.14,12.59,9,.75.09,1.48.14,2.19.14,11.58,0,17.05-11.93,17.79-17.78.36-2.88-1.24-3.94-3.02-4.65-1.92-.77-7.66-1.93-13.07-2.67l.19-1.53c1.53-.17,2.97-1.22,3.6-2.06.53-.7.49-1.21.37-1.51-.12-.29-.4-.54-.77-.74-.85-.47-2.21-.73-3.38-.88-.03,0-1.34-.16-2.54-.06-.76.06-1.47.22-1.79.58-.23.25-.43.73-.13,1.56.35.95,1.48,2.47,3.17,2.98l-.18,1.48c-5.46-.61-11.38-.88-13.45-.6ZM102.71,95.18h0c-3.71-.46-6.4-2.05-8.35-3.96,1.52-1.42,5.08-4.13,9.61-3.57,4.17.5,7.12,3.5,8.53,5.26-2.45,1.63-5.68,2.77-9.79,2.26ZM103.31,66.44c.54-.12,1.86-.16,2.93-.03h0c1.29.16,2.43.47,2.86.69-.37.58-1.86,1.74-3.14,1.6-1.43-.19-2.47-1.64-2.66-2.26ZM105.44,73.02c5.43.7,11.61,1.93,13.5,2.68,1.62.65,2.34,1.28,2.11,3.11-.36,2.85-1.94,7.48-5.21,11.18-.61.68-1.32,1.39-2.15,2.06-1.53-1.94-4.82-5.29-9.54-5.86-5.12-.63-9.1,2.38-10.79,3.96-.89-1.06-1.59-2.16-2.12-3.19-2.28-4.39-2.68-9.27-2.34-12.12.22-1.84,1.08-2.27,2.81-2.5.5-.07,1.25-.1,2.19-.1,2.87,0,7.45.3,11.55.78Z"/>
        <path class="cls-4" d="M90.94,157.53c1.34-.14,2.2-.32,2.33-.34,1.79-.38,2.93-2.07,2.55-3.78-.38-1.7-2.14-2.78-3.93-2.4-.18.04-9.69,1.9-15.12-3.21-2.99-2.82-3.51-6.04-4.16-10.13-.91-5.73-2.05-12.87-11.48-18.87-1.52-.97-3.58-.57-4.61.89-1.03,1.46-.63,3.42.88,4.38,7.03,4.48,7.78,9.18,8.65,14.62.7,4.39,1.49,9.37,6.04,13.64,6.05,5.7,14.72,5.62,18.84,5.2Z"/>
        <path class="cls-14" d="M87.53,158.45c-4.74,0-11.11-1.02-15.95-5.58-4.73-4.45-5.54-9.56-6.26-14.07-.87-5.48-1.56-9.8-8.31-14.1-.91-.58-1.53-1.47-1.73-2.51-.2-1.03.03-2.07.64-2.94,1.25-1.78,3.78-2.26,5.62-1.08,9.71,6.19,10.88,13.51,11.82,19.39.65,4.1,1.13,7.06,3.93,9.7,5.12,4.81,14.36,3.03,14.45,3.02,2.18-.46,4.34.87,4.81,2.97.22.99.04,2.02-.52,2.89-.59.92-1.52,1.55-2.61,1.79-.24.05-1.1.22-2.41.36h0c-.99.1-2.18.18-3.48.18ZM90.94,157.53h0,0ZM59.31,119.02c-.84,0-1.66.39-2.17,1.1-.37.53-.51,1.16-.39,1.78.12.63.5,1.18,1.07,1.54,7.31,4.66,8.12,9.75,8.98,15.13.68,4.27,1.45,9.12,5.81,13.22,5.74,5.4,13.9,5.45,18.25,5,1.27-.13,2.1-.3,2.26-.33.7-.15,1.28-.55,1.66-1.13.34-.53.45-1.15.32-1.75-.29-1.3-1.66-2.12-3.04-1.83-.42.08-10.11,1.95-15.78-3.39-3.18-2.99-3.74-6.5-4.39-10.56-.89-5.58-2-12.53-11.14-18.36-.44-.28-.93-.41-1.43-.41Z"/>
        <path class="cls-14" d="M56.53,119.69c1.03-1.45,3.09-1.85,4.61-.89.89.57,1.7,1.14,2.45,1.73,0,0-2.34-.25-3.62,1.23-1.44,1.67-.8,3.55-.8,3.55-.54-.41-1.12-.83-1.76-1.24-1.52-.97-1.91-2.93-.88-4.38Z"/>
        <path class="cls-14" d="M71.5,132.17s-1.9-1.41-3.83-.61c-1.64.68-2.54,2.4-2.54,2.4-.4-1.47-.96-2.88-1.83-4.26,0,0,.22-1.87,2.15-3.01,1.84-1.08,3.59-.22,3.59-.22,1.19,1.91,1.94,3.83,2.47,5.7Z"/>
        <path class="cls-14" d="M73.82,143.22s-1.49-.54-3.19.06c-2.09.74-2.88,2.54-2.88,2.54-.75-1.96-1.15-3.93-1.47-5.82,0,0,1.33-1.4,3.46-1.68,1.78-.23,3.15.96,3.15.96.24,1.41.51,2.71.94,3.92Z"/>
        <path class="cls-14" d="M80.28,150.04s-1.32.92-2.13,2.4c-.81,1.49-.84,3.29-.84,3.29-1.82-.79-3.6-1.88-5.19-3.37,0,0,.15-1.93,1.65-3.26,1.46-1.3,3.01-1.28,3.01-1.28,1.04.98,2.24,1.7,3.49,2.23Z"/>
        <path class="cls-14" d="M91.89,151.01c1.79-.38,3.55.69,3.93,2.4.38,1.7-.76,3.4-2.55,3.78-.13.03-.99.2-2.33.34-1.31.14-3.09.23-5.1.12,0,0-1.61-1.23-1.48-3.43.14-2.51.98-2.96.98-2.96,3.52.34,6.46-.23,6.56-.25Z"/>
        <g>
          <path class="cls-5" d="M70.72,174.32l-5.17,23.09s-1.95,2.57-2.28,8.31c-.38,6.45.86,7.18,6.9,7.38,6.03.19,7.91.02,11.9-1.9,4-1.91,4.76-6.26,5.4-9.54.65-3.28,5.59-25.22,6.07-27.65l-22.82.31Z"/>
          <path d="M68.5,184.33c.27.1,12.81,1.67,16.47,4.03,4.41,2.84-13.46,2.35-17.57.54l1.1-4.57Z"/>
        </g>
        <path class="cls-7" d="M66.96,190.93s11.4,4.56,22.18,3.17l-1.17,5.57s-14.7,6.37-22.42-2.26l1.41-6.48Z"/>
        <path class="cls-6" d="M75.72,196.62c-2.75-.56-6.34.96-6.51,1.28-2.59-.73-3.34-2.38-3.34-2.38,0,0-1.83,3.02-3.61,8.58-1.05,3.26-1.24,6.81-1.18,8.66.35,10.47,22.12,7.81,25.11,2.17,1.64-3.09,1.7-5.11,1.94-7.7.43-4.77.24-8.68.24-8.68,0,0-3.81,2.4-4.77,2.22-1.45-2.14-3.83-3.32-7.87-4.15Z"/>
        <path class="cls-5" d="M125.09,176.55v22.73s6.98,6.24,9.73,10.47c2.75,4.23-.53,8.36-6.03,8.57-5.5.21-18.08-3.28-21.36-5.18-3.28-1.9-4.23-4.55-4.23-7.82v-28.76h21.89Z"/>
        <path class="cls-7" d="M125.05,207.13l.05-12.78s-1.1,1.4-9.63,1.57c-9.17.18-11.83-1.2-12.26-1.47v9.63c2.27.35,22.39,3.47,21.85,3.04Z"/>
        <path d="M111.03,189.99c.45-.76,7.27-1.74,14.06-2.37v5.05c-9.92.02-14.5-1.93-14.06-2.68Z"/>
        <g>
          <path class="cls-15" d="M71.61,143.92l-4.99,30.97s2.94,4,13.59,5.86c10.81,1.88,13.87-.04,13.87-.04,0,0,3.12-14.09,4.13-13.99,1,.1,2.04,14.16,2.41,14.59.37.43,5.89,1.91,12.94,2.42,7.05.51,13.01-1.45,13.15-1.98.14-.53,2.05-30.54,2.05-30.54"/>
          <path d="M115.85,185.05c-.79,0-1.59-.03-2.39-.08-5.58-.4-12.81-1.73-13.79-2.84-.36-.41-.41-.58-.94-5.24-.2-1.74-.5-4.35-.8-6.39-.8,2.69-1.82,6.8-2.64,10.49-.07.33-.27.61-.56.79-.35.22-3.79,2.12-14.75.21-11.01-1.92-14.25-6.17-14.38-6.35-.2-.27-.28-.61-.23-.94l4.99-30.97,2.47.4-4.9,30.37c.99.94,4.4,3.62,12.47,5.03,7.87,1.37,11.42.65,12.57.29,3.25-14.54,4.18-14.44,5.33-14.33,1.39.14,1.73.98,2.89,11.13.17,1.46.35,3.07.47,3.84,1.36.49,5.94,1.6,11.95,2.03,5.56.4,10.45-.82,11.88-1.44.26-3.1,1.3-19.09,1.99-29.92l2.5.16c-1.28,19.98-1.98,30.34-2.09,30.76-.38,1.47-6.06,3-12.06,3Z"/>
        </g>
        <g>
          <path class="cls-15" d="M70.05,154.32s7.47-.02,12.55-4.83"/>
          <path d="M70.05,155.07v-1.5c.07,0,7.24-.08,12.03-4.62l1.03,1.09c-5.23,4.96-12.74,5.03-13.06,5.03Z"/>
        </g>
        <path class="cls-8" d="M96.65,151.39s-1.48,14.8,1.54,15.32c3.92.68,5.02-15.3,5.02-15.3"/>
        <path class="cls-8" d="M117.66,151.9s2.1,8.55,10.42,9.67"/>
        <g>
          <path class="cls-18" d="M84.26,94.31s-6.19,6.15-8.56,10.4c-1.31,2.36-5.66,42.55-5.66,42.55,9.3,3.54,19.62,5.61,30.28,6.47,17.98,1.46,29.25-.19,29.25-.19,0,0-.33-14.59-.77-23.75-.55-11.53-1.39-18.44-2.39-20.86l-5.75-10.13"/>
          <path d="M114.77,155.08c-4.14,0-9.02-.15-14.51-.6-11.27-.91-21.53-3.1-30.48-6.52-.32-.12-.52-.44-.48-.78.45-4.13,4.4-40.42,5.75-42.83,2.39-4.3,8.43-10.32,8.68-10.57l1.06,1.06c-.06.06-6.14,6.12-8.43,10.23-.9,1.66-3.82,26.2-5.5,41.69,8.69,3.25,18.62,5.34,29.53,6.22,15.27,1.24,25.77.21,28.42-.1-.07-2.98-.37-15.12-.75-23.05-.67-13.98-1.64-18.92-2.34-20.61l-5.71-10.05,1.3-.74,5.75,10.13c1.12,2.69,1.95,9.79,2.49,21.2.43,9.06.76,23.62.77,23.76,0,.38-.27.7-.64.76-.08.01-5.59.79-14.91.79Z"/>
        </g>
        <g>
          <path class="cls-18" d="M116.77,122.79c-9.19.08-6.84-11.59-6.84-11.59l13.24-.12s2.76,11.63-6.4,11.71Z"/>
          <path d="M116.67,123.54c-2.5,0-4.44-.82-5.77-2.43-2.97-3.59-1.76-9.79-1.71-10.06.07-.35.37-.6.73-.6l13.24-.12c.36.03.66.24.74.58.06.26,1.49,6.47-1.36,10.11-1.29,1.65-3.23,2.5-5.76,2.52h-.11ZM110.56,111.94c-.21,1.55-.54,5.76,1.49,8.21,1.05,1.27,2.63,1.85,4.7,1.88h0c2.05-.02,3.59-.67,4.59-1.95,1.96-2.5,1.46-6.72,1.2-8.26l-11.98.11Z"/>
        </g>
        <g>
          <path class="cls-4" d="M85.05,92.76l-.68,2.97s7.1,6.2,17.48,6.89c10.38.7,17.48-3.64,17.48-3.64l-2.94-3.96s-3.74,1.18-14.85.8c-11.11-.37-16.48-3.07-16.48-3.07Z"/>
          <path d="M104.12,103.94c-.77,0-1.56-.02-2.36-.08-10.68-.71-17.91-6.93-18.22-7.2-.35-.3-.5-.77-.4-1.22l.68-2.97c.09-.37.34-.69.69-.85.35-.16.75-.16,1.09.01h0c.05.03,5.33,2.58,15.97,2.94,10.77.36,14.4-.73,14.43-.74.51-.16,1.06.02,1.38.45l2.94,3.96c.21.28.29.64.22.98s-.28.65-.58.83c-.28.17-6.5,3.9-15.85,3.9ZM85.76,95.24c1.84,1.4,7.98,5.58,16.17,6.13,7.4.49,13.12-1.69,15.51-2.82l-1.58-2.12c-1.7.34-6,.93-14.38.65-8.1-.27-13.23-1.75-15.55-2.6l-.18.77Z"/>
        </g>
        <g>
          <path class="cls-18" d="M85.18,93.23s-2.35,1.13-2.14,2.27c.71,3.92,11.49,8.37,18.42,8.8,12.33.76,19.05-3.39,19.19-5.49.06-.96-.27-2.54-.27-2.54,0,0-3.36,6.33-17.15,5.09-14.32-1.28-18.06-8.13-18.06-8.13Z"/>
          <path d="M104.28,105.13c-.93,0-1.88-.03-2.87-.09-6.79-.42-18.3-4.89-19.11-9.41-.29-1.62,2.07-2.85,2.55-3.08.36-.17.79-.04.98.31h0c.04.07,3.79,6.53,17.47,7.75,13.14,1.17,16.39-4.64,16.42-4.7.15-.28.46-.44.77-.39.31.04.56.28.63.59.01.07.35,1.69.28,2.74-.18,2.76-6.84,6.28-17.12,6.28ZM84.94,94.22c-.7.44-1.2.95-1.16,1.15.57,3.15,10.51,7.74,17.73,8.18,12.4.76,18.31-3.42,18.4-4.79.01-.2,0-.44-.01-.69-1.94,1.92-6.67,4.94-16.72,4.04-12.16-1.09-16.91-6.1-18.24-7.89Z"/>
        </g>
        <g>
          <g>
            <g>
              <path class="cls-4" d="M93.97,31.03c-1.47,8.46-11.6,13.46-19.38,10.6-5.12-1.89-8.65-6.84-8.55-12.29.17-8.7,10.19-16.5,18.83-13.54,5.95,2.04,10.22,8.75,9.09,15.24Z"/>
              <path class="cls-14" d="M79.28,43.18c-1.71,0-3.38-.28-4.94-.86-5.52-2.03-9.15-7.26-9.04-13.01.09-4.48,2.74-9.08,6.92-12,4.06-2.84,8.76-3.65,12.9-2.23,6.44,2.21,10.74,9.42,9.58,16.08-.69,3.99-3.31,7.56-7.18,9.79-2.57,1.48-5.45,2.24-8.25,2.24ZM80.99,15.9c-2.66,0-5.41.9-7.9,2.65-3.79,2.65-6.2,6.79-6.28,10.8-.1,5.11,3.14,9.76,8.05,11.57,3.71,1.37,8.17.89,11.93-1.28,3.48-2,5.83-5.19,6.45-8.74h0c1.04-5.96-2.82-12.42-8.59-14.4-1.18-.4-2.41-.6-3.66-.6Z"/>
            </g>
            <g>
              <path class="cls-11" d="M85.98,29.74c-.62,3.56-4.88,5.67-8.16,4.46-2.16-.79-3.64-2.88-3.6-5.18.07-3.66,4.29-6.95,7.93-5.7,2.51.86,4.3,3.69,3.83,6.42Z"/>
              <path class="cls-14" d="M79.79,35.29c-.77,0-1.53-.13-2.23-.39-2.5-.92-4.14-3.29-4.09-5.89.04-2.05,1.2-4.07,3.1-5.4,1.82-1.28,3.95-1.64,5.82-1,2.91,1,4.85,4.25,4.32,7.25h0c-.31,1.81-1.49,3.42-3.23,4.42-1.15.66-2.44,1-3.69,1ZM80.51,23.8c-1.03,0-2.1.35-3.08,1.04-1.49,1.04-2.43,2.65-2.46,4.2-.04,1.94,1.24,3.77,3.11,4.46,1.44.53,3.18.34,4.65-.51,1.35-.78,2.27-2.01,2.5-3.38.4-2.31-1.09-4.81-3.33-5.58-.45-.15-.92-.23-1.4-.23ZM85.98,29.74h0,0Z"/>
            </g>
          </g>
          <g>
            <g>
              <path class="cls-4" d="M126.67,35.28c-.76,8.55,7.74,15.98,16,15.2,5.43-.51,10.13-4.39,11.43-9.7,2.07-8.45-5.59-18.55-14.71-17.91-6.28.45-12.13,5.85-12.71,12.4Z"/>
              <path class="cls-14" d="M141.47,51.28c-3.99,0-8.07-1.73-11.13-4.78-3.16-3.14-4.77-7.26-4.41-11.29h0c.59-6.73,6.61-12.6,13.4-13.08,4.38-.31,8.71,1.68,11.9,5.46,3.29,3.9,4.66,9.02,3.6,13.37-1.37,5.59-6.23,9.71-12.08,10.26-.42.04-.84.06-1.27.06ZM140.22,23.6c-.26,0-.52,0-.78.03-6.09.43-11.48,5.69-12.02,11.72h0c-.32,3.59,1.13,7.27,3.98,10.1,3.08,3.06,7.26,4.67,11.2,4.29,5.22-.49,9.55-4.16,10.77-9.13.96-3.89-.3-8.51-3.28-12.04-2.68-3.18-6.24-4.96-9.86-4.96ZM126.67,35.28h0,0Z"/>
            </g>
            <g>
              <path class="cls-11" d="M134.73,36.08c-.32,3.6,3.26,6.73,6.73,6.4,2.29-.22,4.26-1.85,4.81-4.08.87-3.56-2.35-7.81-6.19-7.54-2.64.19-5.11,2.46-5.35,5.22Z"/>
              <path class="cls-14" d="M140.96,43.25c-1.79,0-3.62-.78-4.99-2.14-1.42-1.41-2.15-3.27-1.98-5.1.27-3.04,2.98-5.69,6.04-5.9,1.99-.13,3.94.75,5.37,2.45,1.49,1.77,2.09,4.02,1.6,6.01-.62,2.53-2.82,4.4-5.47,4.65-.19.02-.38.03-.57.03ZM140.44,31.6c-.1,0-.2,0-.3.01-2.36.17-4.45,2.2-4.66,4.54h0c-.12,1.38.44,2.8,1.55,3.9,1.21,1.2,2.84,1.83,4.37,1.68,1.98-.19,3.69-1.63,4.15-3.51.37-1.51-.13-3.3-1.29-4.69-1.05-1.24-2.42-1.93-3.82-1.93ZM134.73,36.08h0,0Z"/>
            </g>
          </g>
        </g>
        <path class="cls-4" d="M147.29,66.12c-2.93,22.37-20.36,35.64-45.53,32.36-25.18-3.27-38.6-20.55-35.67-42.92,2.93-22.37,21.12-36.95,45.71-33.75,24.6,3.2,38.41,21.94,35.48,44.32Z"/>
        <path class="cls-11" d="M101.76,98.49c13.52,1.76,24.8-1.25,32.8-7.88,0-.04,0-.07,0-.08-.18-3.43-1.41-6.16-2.38-8.2-1.63-3.43-4.56-7.16-9.75-10.89-5.18-3.73-13.09-6.4-16.23-6.82-3.14-.4-11.48.16-17.45,2.44-5.98,2.28-9.77,5.14-12.23,8.04-1.41,1.66-3.27,5.38-4.23,7.66,0,0,0,0,0,.01,6.05,8.31,16.11,13.99,29.48,15.73Z"/>
        <path class="cls-4" d="M76.52,75.08c2.46-2.9,6.25-5.75,12.23-8.04,5.97-2.28,14.3-2.84,17.45-2.44,3.14.42,11.05,3.09,16.23,6.82,5.19,3.74,8.12,7.47,9.75,10.89.97,2.04,2.2,4.78,2.38,8.2,0,.01,0,.05,0,.08,6.9-5.72,11.37-14.12,12.73-24.48,2.93-22.38-10.89-41.12-35.48-44.32-24.6-3.2-42.78,11.38-45.71,33.75-1.37,10.49.85,19.86,6.19,27.19,0,0,0-.01,0-.01.97-2.28,2.82-6,4.23-7.66Z"/>
        <g>
          <path d="M109.77,39.67c3,.39,5.83-12.74,6.68-17.1-1.42-.28-2.87-.52-4.36-.72-1.48-.19-2.94-.33-4.37-.42-.31,4.44-.95,17.85,2.05,18.24Z"/>
          <path class="cls-14" d="M111.01,27.97c7.65.99,13.23,1.26,14.92,1.19,1.7-.07,1.11-1.12-1.37-2.42-2.48-1.3-7.4-2.98-12.91-3.69-5.51-.72-10.74-.36-13.47.26-2.73.62-3.57,1.49-1.95,1.99,1.62.5,7.13,1.68,14.78,2.67Z"/>
          <path class="cls-14" d="M110.1,35.23c4.89.64,8.57.05,9.68-.42,1.04-.44.53-1.21-1.02-2.39-1.54-1.19-4.37-2.6-7.9-3.06-3.53-.46-6.63.18-8.42.93-1.8.75-2.49,1.36-1.6,2.05.95.74,4.36,2.25,9.25,2.88Z"/>
        </g>
        <g>
          <path d="M73.36,48.27c.03-.75-2.24-2.43-4.67-3.15-.47,1.25-1.32,3.49-1.67,4.81,3.02-.28,6.32-.81,6.34-1.67Z"/>
          <path d="M71.63,62.36c-.39-.65-3.4-1.03-5.98-.92.02,1.54.3,3.92.48,5.39,3.12-2,5.96-3.7,5.5-4.46Z"/>
        </g>
        <g>
          <path d="M142.76,57.14c-.19.84,1.94,1.91,4.79,2.95,0-1.37.24-3.07.11-4.41-2.53.07-4.73.72-4.9,1.46Z"/>
          <path d="M141.03,71.68c-.64.62,1.05,2.17,3.55,4.9.55-1.38,1.45-3.3,1.87-4.79-2.47-.76-4.86-.64-5.41-.11Z"/>
        </g>
        <path class="cls-14" d="M109.16,99.73c-2.42,0-4.92-.16-7.5-.5-12.42-1.62-22.4-6.65-28.86-14.57-6.36-7.8-8.94-17.89-7.46-29.2,3.07-23.42,22.21-37.56,46.55-34.4,12.12,1.58,21.99,6.85,28.56,15.25,6.35,8.12,9.03,18.74,7.57,29.91h0c-2.74,20.93-17.69,33.51-38.87,33.51ZM105.27,22.13c-20.34,0-35.75,13.1-38.43,33.53-1.43,10.88,1.04,20.58,7.13,28.05,6.21,7.61,15.85,12.46,27.89,14.03,24.21,3.15,41.75-9.3,44.69-31.72,1.41-10.77-1.17-20.99-7.27-28.79-6.32-8.08-15.85-13.16-27.57-14.68-2.2-.29-4.35-.43-6.45-.43ZM147.29,66.12h0,0Z"/>
        <g>
          <g>
            <g>
              <path class="cls-14" d="M92.78,55.58c-.71,5.45-3.58,9.57-6.39,9.2-2.82-.37-4.52-5.08-3.81-10.53.71-5.45,3.58-9.56,6.39-9.2,2.82.37,4.52,5.08,3.81,10.52Z"/>
              <path class="cls-14" d="M86.73,66.05c-.17,0-.33-.01-.5-.03-1.15-.15-2.2-.8-3.03-1.88-1.67-2.18-2.39-6.03-1.86-10.05.82-6.22,4.25-10.75,7.79-10.28,1.15.15,2.2.8,3.03,1.88,1.67,2.18,2.39,6.03,1.86,10.05h0c-.78,5.93-3.92,10.31-7.29,10.31ZM88.63,46.28c-1.81,0-4.19,3.36-4.81,8.13-.44,3.34.1,6.55,1.36,8.2.42.55.88.86,1.37.92,1.82.24,4.35-3.19,4.99-8.12h0c.44-3.33-.1-6.55-1.36-8.2-.42-.55-.88-.86-1.37-.92-.06,0-.12-.01-.18-.01Z"/>
            </g>
            <path class="cls-11" d="M88.27,53.35c-.26,2-1.36,3.5-2.46,3.36-1.1-.14-1.77-1.88-1.51-3.88.26-2,1.36-3.5,2.46-3.36,1.1.14,1.77,1.88,1.51,3.88Z"/>
          </g>
          <g>
            <g>
              <path class="cls-14" d="M131.84,60.36c-.71,5.45-3.58,9.57-6.39,9.2-2.82-.37-4.52-5.08-3.81-10.53.71-5.45,3.58-9.56,6.39-9.2,2.82.37,4.52,5.08,3.81,10.52Z"/>
              <path class="cls-14" d="M125.79,70.83c-.17,0-.33-.01-.5-.03-1.15-.15-2.2-.8-3.03-1.88-1.67-2.18-2.39-6.03-1.86-10.05.82-6.22,4.24-10.76,7.79-10.28,1.85.24,3.36,1.72,4.24,4.17.79,2.17,1.02,4.93.64,7.75h0c-.78,5.93-3.92,10.31-7.29,10.31ZM127.69,51.06c-1.81,0-4.19,3.36-4.81,8.13-.44,3.34.1,6.55,1.36,8.2.42.55.88.86,1.37.92,1.83.23,4.35-3.19,4.99-8.12.32-2.44.14-4.78-.52-6.58-.54-1.5-1.35-2.43-2.22-2.54-.06,0-.12-.01-.18-.01ZM131.84,60.36h0,0Z"/>
            </g>
            <path class="cls-11" d="M127.73,58.48c-.26,2-1.36,3.5-2.46,3.36-1.1-.14-1.77-1.88-1.51-3.88.26-2,1.36-3.5,2.46-3.36,1.1.14,1.77,1.88,1.51,3.88Z"/>
          </g>
        </g>
        <path class="cls-14" d="M103.91,85.63c-.05,0-.11,0-.16-.01-.68-.09-1.17-.72-1.08-1.4l2.18-16.66c.09-.68.72-1.18,1.4-1.08.68.09,1.17.72,1.08,1.4l-2.18,16.66c-.08.63-.62,1.09-1.24,1.09Z"/>
        <g>
          <path class="cls-14" d="M80.33,37.69c-.27-1.09.35-1.62.79-2.24,2.82-3.89,8.78-6.07,12.91-2.82.63.52,1.44,1.12,1.22,2.22-.08.43-.48.73-.91.69-.94,0-1.34-.53-1.82-.86-.46-.31-.97-.54-1.52-.68-2.94-.76-5.96.89-7.92,3.07-.45.46-.67,1.06-1.62,1.2-.48.13-1.01-.09-1.13-.6h0Z"/>
          <path class="cls-14" d="M136.87,45.61c-.86-.47-.9-1.13-1.19-1.74-.26-.61-.56-1.2-.92-1.74-1.57-2.64-4.65-4.22-7.57-2.93-.59.22-.92.66-1.9.52-.5-.01-.93-.42-.89-.93.08-1.14.98-1.51,1.7-1.91,2.33-1.22,5.28-1.17,7.55.21,2.21,1.39,3.56,3.5,4.4,5.84.24.75.64,1.48.07,2.44-.26.45-.85.52-1.26.23h0Z"/>
        </g>
        <path class="cls-14" d="M61.6,69.83c.81-.62,1.92-.28,2.86-.37,2.39.03,4.8.32,7.1,1.02.46.14.96.22,1.28.74.15.22.03.54-.22.62-.57.23-.95-.02-1.4-.1-.44-.12-.89-.2-1.33-.29-2.26-.4-4.56-.6-6.85-.67-.46-.03-.92.07-1.39-.3-.22-.15-.24-.48-.04-.65h0Z"/>
        <path class="cls-14" d="M72.73,74.5c-.38.46-.85.46-1.29.58l-1.34.32c-2.09.53-4.58,1.13-6.61,1.8-.44.12-.82.38-1.39.18-.25-.07-.38-.38-.25-.61.56-.85,1.69-.89,2.53-1.29,2.2-.75,4.51-1.29,6.81-1.68.46-.06.91-.25,1.44.06.23.13.28.45.11.64h0Z"/>
        <path class="cls-14" d="M147.65,81.6c-.49.3-.9.13-1.33.08l-1.28-.16c-2.14-.24-4.29-.44-6.44-.51-.43-.03-.87.07-1.31-.32-1.13-1.58,4.54-.85,5.3-.87,1.28.11,2.68.33,3.95.58.43.1.89.09,1.25.57.16.21.09.51-.14.64h0Z"/>
        <path class="cls-14" d="M136.6,82.04c.59-.13.94.18,1.35.38l1.2.65c1.99,1.09,3.94,2.34,5.76,3.71.36.28.78.49.92,1.07.06.26-.13.51-.4.52-.6.04-.89-.3-1.28-.53l-1.12-.73-2.28-1.43-2.29-1.42-1.15-.7c-.38-.25-.82-.38-1.02-.94-.1-.24.05-.52.31-.57h0Z"/>
        <g>
          <path class="cls-1" d="M106.33,65.3c1.14.15,3.32.58,3.56,1.19.28.7-2.05,2.79-4.05,2.55-2.19-.31-3.73-2.94-3.22-3.5.38-.42,2.58-.39,3.71-.25Z"/>
          <path class="cls-14" d="M106.18,70.31c-.16,0-.32,0-.49-.03-2.04-.28-3.7-2.01-4.24-3.5-.41-1.13-.02-1.79.24-2.08.98-1.08,4.17-.73,4.8-.64h0c3.98.52,4.42,1.61,4.56,1.96.17.43.23,1.12-.44,2.01-.71.93-2.49,2.28-4.43,2.28ZM104.09,66.46c.39.55,1.1,1.22,1.92,1.34.72.08,1.62-.4,2.18-.85-.52-.15-1.26-.31-2.02-.41h0c-.67-.09-1.48-.11-2.08-.07ZM108.93,67.24h0,0ZM103.31,66.57h0Z"/>
        </g>
        <path class="cls-17" d="M102.39,95.5c12.05,1.57,18.46-10.15,19.36-16.87.31-2.29-.79-3.19-2.55-3.9-1.99-.81-8.27-2.09-13.71-2.82-5.45-.68-11.85-1.05-13.98-.78-1.89.24-3.18.82-3.47,3.12-.86,6.72,2.31,19.69,14.36,21.25Z"/>
        <path class="cls-17" d="M102.39,95.5c12.05,1.57,18.46-10.15,19.36-16.87.31-2.29-.79-3.19-2.55-3.9-1.99-.81-8.27-2.09-13.71-2.82-5.45-.68-11.85-1.05-13.98-.78-1.89.24-3.18.82-3.47,3.12-.86,6.72,2.31,19.69,14.36,21.25Z"/>
        <path class="cls-9" d="M103.89,86.52c-4.85-.63-8.84,2.21-10.81,4.22,0,0,0,0,0,0,2.23,2.42,5.27,4.22,9.3,4.75,4.42.58,8.09-.64,11-2.74,0,0,0,0,0,0-1.73-2.42-5.01-5.66-9.49-6.23Z"/>
        <path class="cls-14" d="M113.39,94.01c-.39,0-.77-.18-1.02-.52-1.1-1.53-4.13-5.15-8.63-5.72-4.93-.63-8.71,2.78-9.76,3.84-.48.49-1.27.5-1.77.02-.49-.48-.5-1.28-.02-1.77,1.25-1.27,5.79-5.36,11.86-4.57,5.48.69,9.06,4.95,10.35,6.74.4.56.27,1.34-.29,1.74-.22.16-.47.23-.73.23Z"/>
        <path class="cls-14" d="M104.54,96.89c-.75,0-1.52-.05-2.32-.15-7.24-.94-11.05-5.61-12.97-9.36-2.46-4.8-2.89-10.01-2.47-13.29.42-3.26,2.65-3.96,4.55-4.2,2.46-.31,9.33.16,14.29.78,4.97.67,11.73,1.97,14.03,2.91,1.78.72,3.76,1.96,3.32,5.22-1.02,7.66-7.52,18.09-18.44,18.09ZM93.53,72.29c-.79,0-1.43.03-1.87.08-1.72.22-2.21.64-2.39,2.04-.36,2.77,0,7.53,2.21,11.83,1.65,3.22,4.91,7.22,11.07,8.02h0c6.16.8,10.35-2.24,12.77-4.93,3.24-3.59,4.82-8.1,5.19-10.87.19-1.4-.18-1.93-1.78-2.58-1.86-.75-8-2.01-13.41-2.74-4.22-.53-8.96-.86-11.78-.86Z"/>
      </g>
    </g>
  </g>
  <g id="list-type">
    <g>
      <g>
        <path class="cls-12" d="M34.15,188.28c-3.98,0-7.23-3.15-7.23-7.01,0-1.88.69-3.01,1.49-4.31.92-1.5,1.3-4.12,1.3-9.02v-5.47c0-5.18,2.85-8.03,8.03-8.03h12.07c5.18,0,8.03,2.86,8.03,8.03v16.6c0,5.9-3.31,8.89-9.84,8.89-1.82,0-3.72-.13-5.41-1.1-.66-.38-1.57-1.05-2.26-2.14-1.95,3.09-4.68,3.56-6.18,3.56Z"/>
        <path class="cls-12" d="M63.86,188.52c-2.2,0-3.67-.79-4.52-1.46-1.53-1.21-2.41-3.05-2.41-5.07v-5.06c-3.04-.63-5.12-3.28-5.12-6.76,0-2.05.71-3.81,1.91-5.04-.72-1.11-1.13-2.48-1.13-4.02,0-3.97,2.71-6.85,6.45-6.85h9.47c1.1,0,2.1.25,2.98.69.55-.12,1.13-.18,1.74-.18.5,0,.99.04,1.45.12,1.18-.89,2.71-1.41,4.45-1.41,2.22,0,3.71.82,4.57,1.51,1.5,1.21,2.36,3.05,2.36,5.04v19.36c0,5.83-3.17,8.78-9.43,8.78h0c-1.22,0-2.74,0-4.28-.6-1.08-.42-1.98-1.06-2.67-1.88-1.2,1.74-3.29,2.83-5.82,2.83Z"/>
        <path class="cls-12" d="M102.88,188.5c-2.16,0-3.8-.15-5.29-.87-.45-.22-1.16-.64-1.82-1.33-1.25,1.37-3.1,2.2-5.25,2.2-4.64,0-7.06-3.3-7.06-6.56v-3.38c-2.82-.9-4.88-3.65-4.88-6.89,0-2,.67-3.41,1.51-4.4-.62-.84-1.32-2.24-1.32-4.29,0-3.92,2.69-6.77,6.39-6.77h3.58c.99-1.71,2.57-3.05,5.56-3.05,3.44,0,5.38,1.41,6.39,3.06h6.81c3.72,0,6.42,2.85,6.42,6.77,0,2.45-1.05,4.49-2.74,5.67,0,.04,0,11.41,0,11.41,0,5.36-3.03,8.43-8.3,8.43h0Z"/>
        <path class="cls-12" d="M130.63,189.12c-1.69,0-3.54-.51-4.9-1.76-2.31.15-3.87.2-5.92.27h-.41c-1.16.06-5.51.2-6.21.2-4.7,0-6.8-3.27-6.8-6.5,0-.79.14-2.49,1.2-3.95-.98-1.09-1.57-2.56-1.6-4.23-.31-.75-.48-1.56-.48-2.38,0-1.34.47-2.43.9-3.25.36-.72.36-.81.36-.98.02-.64.1-1.23.22-1.76-.06-.26-.11-.53-.15-.8-.66-.99-1.04-2.21-1.04-3.56,0-3.44,2.6-6.13,5.91-6.13h2.3c1.03-.56,2.24-.86,3.55-.86s2.56.3,3.59.86h1.64c.43,0,.84.04,1.24.12.96-.35,2.08-.53,3.37-.53h3.43c2.1,0,3.62.62,4.69,1.56,3.06.39,5.35,2.8,5.35,5.8,0,.6-.1,3.06-1.57,5.08,1.04,1.17,1.46,2.61,1.46,3.92,0,.72-.12,1.43-.35,2.11.02.21.03.42.03.63,0,1.5-.45,2.84-1.22,3.9.55.98.84,2.12.84,3.34,0,1.69-.52,4.26-3.37,5.62-1.15,2-3.36,3.26-6.08,3.26Z"/>
        <path class="cls-12" d="M142.24,187.94c-4.69,0-7.49-2.81-7.49-7.52v-2.7c-1.5-1.14-2.44-3-2.44-5.19,0-1.64.54-3.11,1.45-4.21-1.02-1.11-1.64-2.63-1.64-4.37,0-2.13.93-3.95,2.41-5.07.78-2.4,2.92-4.04,5.57-4.04h5.26c1.19-.9,2.73-1.42,4.44-1.42s3.25.52,4.43,1.42h3.32c2.79,0,4.87.95,6.19,2.81.13.18.25.37.35.55,2.15.93,3.58,3.09,3.58,5.74,0,1.6-.52,3.03-1.41,4.11.05.25.09.5.12.76.69,1.03,1.08,2.3,1.08,3.71,0,2.28-1.03,4.22-2.65,5.34v2.54c0,4.71-2.81,7.52-7.52,7.52,0,0-15.04,0-15.04,0Z"/>
      </g>
      <path class="cls-16" d="M167.33,162.34c.85-1.2,1.35-2.71,1.35-4.38,0-2.95-1.54-5.39-3.89-6.53-.07-.11-.15-.23-.23-.34-1.04-1.47-3.11-3.23-7.01-3.23h-2.99c-1.31-.9-2.95-1.42-4.77-1.42s-3.46.52-4.78,1.42h-4.93c-1.2,0-2.3.31-3.28.84-.29-.08-.58-.16-.88-.2-1.24-.99-2.92-1.61-5.09-1.61h-3.43c-1.36,0-2.5.18-3.46.5-.37-.06-.76-.09-1.15-.09h-1.38c-1.12-.56-2.43-.86-3.85-.86s-2.68.3-3.8.86h-2.05c-1.87,0-3.53.73-4.77,1.93h-5.76c-1.32-1.77-3.6-3.06-6.92-3.06-3.14,0-4.95,1.35-6.1,3.05h-2.87c-.3-.36-.63-.7-1-1-.98-.79-2.68-1.74-5.19-1.74-1.77,0-3.38.5-4.67,1.37-.4-.05-.81-.08-1.23-.08-.56,0-1.1.05-1.62.15-.93-.42-1.98-.66-3.1-.66h-9.47c-1.6,0-3.05.48-4.24,1.32-1.36-.74-3.02-1.13-4.99-1.13h-12.07c-5.74,0-9.03,3.29-9.03,9.03v5.47c0,4.64-.35,7.18-1.15,8.49-.81,1.31-1.64,2.67-1.64,4.83,0,4.42,3.69,8.01,8.23,8.01,1.5,0,4.1-.42,6.21-2.91.64.68,1.3,1.12,1.73,1.37,1.9,1.08,4.04,1.23,5.91,1.23,4.59,0,7.27-1.47,8.82-3.4.47.88,1.11,1.66,1.91,2.29.97.76,2.65,1.67,5.14,1.67s4.45-.89,5.88-2.37c.65.56,1.4,1.02,2.24,1.35,1.71.67,3.4.67,4.64.67h0c2.23,0,5.33-.43,7.57-2.39,1.35,1.61,3.46,2.72,6.32,2.72,2.06,0,3.89-.68,5.27-1.83.52.41,1.01.69,1.37.86,1.66.81,3.42.97,5.73.97h0c2.45,0,4.47-.63,6-1.79,1.21.71,2.67,1.12,4.32,1.12.7,0,5.08-.14,6.24-.19h.41c1.94-.08,3.44-.13,5.55-.26,1.46,1.18,3.35,1.74,5.23,1.74,2.58,0,4.8-1.06,6.23-2.77,1.4,1.03,3.22,1.59,5.38,1.59,0,0,15.04,0,15.04,0,5.25,0,8.52-3.26,8.52-8.52v-2.03c1.64-1.33,2.66-3.42,2.66-5.85,0-1.53-.41-2.92-1.12-4.08,0-.04-.01-.08-.02-.12Z"/>
      <g>
        <path class="cls-11" d="M48.9,169.37h-10.67c-.38,2.63-1.05,4.77-2.01,6.49-.56.99-1.18,1.42-2.06,1.42-1.18,0-2.23-.94-2.23-2.01,0-.46.11-.64.75-1.69,1.48-2.41,2.04-5.58,2.04-11.64v-5.47c0-2.41.62-3.03,3.03-3.03h12.07c2.41,0,3.03.62,3.03,3.03v16.6c0,3.65-2.01,3.89-4.86,3.89-2.87,0-3.7-.48-3.7-2.09,0-1.15.56-1.85,1.53-1.85.32,0,1.93.11,2.28.11.62,0,.8-.27.8-1.1v-2.65ZM48.9,165.97v-2.79s-10.27,0-10.27,0c0,.83-.03,1.9-.11,2.79h10.38ZM48.9,159.77v-2.04c0-.43-.16-.59-.59-.59h-9.09c-.43,0-.59.16-.59.59v2.04s10.27,0,10.27,0Z"/>
        <path class="cls-11" d="M65.79,156.93v5.31s3.35,0,3.35,0c.99,0,1.55.67,1.55,1.93s-.56,1.9-1.56,1.9h-3.35s0,9.92,0,9.92c0,.97-.7,1.53-1.93,1.53s-1.93-.54-1.93-1.53v-9.92s-3.59,0-3.59,0c-.99,0-1.53-.7-1.53-1.9s.54-1.93,1.53-1.93h3.59s0-5.31,0-5.31h-2.9c-.94,0-1.45-.64-1.45-1.82,0-1.18.51-1.85,1.45-1.85h9.47c.94,0,1.47.67,1.47,1.85s-.54,1.82-1.47,1.82h-2.71ZM71.32,155.27c0-.97.67-1.5,1.9-1.5s1.9.54,1.9,1.5v14.56c0,.99-.67,1.53-1.91,1.53s-1.9-.54-1.9-1.53v-14.56ZM77.19,154.04c0-.99.7-1.56,1.93-1.55,1.23,0,1.93.56,1.93,1.56v19.36c0,2.98-.94,3.78-4.43,3.78-1.88,0-3.51-.03-3.51-1.98,0-1.18.64-2.04,1.53-2.04.27,0,1.74.13,1.93.13.48,0,.62-.21.62-.94v-18.31Z"/>
        <path class="cls-11" d="M95.1,158.78l-.83,1.56h9.33c1.98,0,2.57.54,2.57,2.44v11.29c0,2.57-.83,3.43-3.3,3.43-3.14,0-3.86-.35-3.86-1.88,0-1.07.56-1.77,1.39-1.77.16,0,.99.08,1.18.08.48,0,.62-.19.62-.91v-.86s-9.79,0-9.79,0v3.78c0,.97-.73,1.56-1.9,1.55-1.34,0-2.06-.54-2.06-1.56v-9.57c-1.21.94-2.31,1.5-3,1.5-1.02,0-1.88-1.02-1.88-2.2,0-.99.3-1.37,1.58-2.06,1.1-.59,2.52-1.77,3.86-3.14.51-.48.64-.67,1.39-1.69h-5.26c-.91,0-1.39-.64-1.39-1.8s.48-1.77,1.39-1.77h6.97c.88-2.87.94-3.06,2.17-3.06,1.61,0,2.33.46,2.33,1.39,0,.46-.11.99-.3,1.66h11.15c.94,0,1.42.65,1.42,1.77,0,1.15-.48,1.8-1.42,1.8h-12.39ZM102.21,164.82c0-1.15,0-1.29-.56-1.29h-9.22s0,1.29,0,1.29h9.79ZM102.21,167.77h-9.79s0,1.39,0,1.39h9.79s0-1.39,0-1.39Z"/>
        <path class="cls-11" d="M114.62,163.72c-.21.78-.38,1.34-.88,1.93h10.14c-.43-.24-.7-.75-.7-1.34s.3-.91,1.1-1.07c.86-.19,1.53-.35,2.12-.51-.62-.48-1.39-1.31-1.8-1.9-.24,0-.94,0-.94-1.07,0-.62.21-.97.7-1.05-.56-.19-1.05-.78-1.05-1.34,0-.38.13-.54.78-1.13.67-.62.72-.8,1.1-2.36.24-.99.97-.99,2.23-.99h3.43c1.34,0,1.74.35,1.74,1.48v1.07c0,.27.08.32.29.32.62,0,.64-.05.7-.67.08-.48.4-.7,1.07-.7.72,0,1.23.32,1.23.86,0,.29-.13,2.01-1.07,2.57-.4.24-.97.29-2.68.29-2.9,0-2.9-.43-2.9-2.49,0-.27-.05-.32-.35-.32h-.72c-.32,0-.35.08-.38.46-.08,1.05-1.29,2.65-2.2,2.92h7.13c1.13,0,1.61.38,1.61,1.21,0,.75-.35,1.37-2.12,2.79.64.19,1.29.32,2.15.46,1.02.19,1.42.51,1.42,1.13s-.43,1.34-.89,1.5c.38.21.56.62.56,1.23,0,.86-.38,1.34-1.07,1.34h-1.82s0,4.53,0,4.53c.54-.05,1.1-.11,1.26-.11.78,0,1.26.54,1.26,1.47,0,.99-.3,1.39-2.52,1.53v.8c0,.99-.7,1.56-1.93,1.55-1.93,0-1.93-1.1-1.93-1.98-4.56.35-6.38.4-9.47.51-1.29.05-5.5.19-6.03.19-1.31,0-1.8-.4-1.8-1.5,0-1.53.94-1.53,2.33-1.53v-5.47s-1.66,0-1.66,0c-.7,0-1.07-.48-1.07-1.31,0-.46.11-.8.27-1.02-.46-.29-.75-.78-.75-1.23,0-.21.11-.51.35-.97.67-1.34.89-2.06.91-3.14.03-.86.08-1.98,2.12-1.98h7.35c1.58,0,1.93.35,1.93,1.93v1.18c0,1.58-.35,1.93-1.93,1.93h-6.62ZM115.83,153.29c.27-.56.83-.86,1.74-.86.94,0,1.53.3,1.77.86h3.46c.59,0,.91.43.91,1.13s-.32,1.13-.91,1.13h-3.33s0,.64,0,.64h2.74c.51,0,.78.35.78.99s-.27.97-.78.97h-9.63c-.51,0-.78-.35-.78-.99s.27-.97.78-.97h3.11s0-.64,0-.64h-3.97c-.56,0-.91-.4-.91-1.13s.35-1.13.91-1.13h4.1ZM116.15,160.69c-1.02,0-1.13,0-1.15.32-.03.13-.05.72-.08.83h1.23s0-1.15,0-1.15ZM117.73,168.33v.78s10.97,0,10.97,0v-.78s-10.97,0-10.97,0ZM117.73,170.45v.78s10.97,0,10.97,0v-.78s-10.97,0-10.97,0ZM117.73,172.73v.99c4.02-.13,7.29-.24,10.97-.53v-.46s-10.97,0-10.97,0ZM119.13,161.85h.64c.46,0,.46-.05.46-.7,0-.4-.05-.46-.46-.46h-.64s0,1.15,0,1.15ZM133.21,165.65c-1.77-.38-2.84-.75-3.91-1.26-1.77.67-2.82.99-4.13,1.26h8.04ZM128.25,160.83c.32.27.72.54,1.13.72.51-.21.89-.4,1.26-.72h-2.39Z"/>
        <path class="cls-11" d="M151.74,161.88v.59s8.88,0,8.88,0c.51,0,.8.38.8,1.05s-.3,1.02-.8,1.02h-8.88s0,.64,0,.64h9.63c.7,0,1.1.51,1.1,1.37s-.4,1.39-1.1,1.39h-22.95c-.7,0-1.1-.51-1.1-1.4s.4-1.37,1.1-1.37h9.44s0-.64,0-.64h-8.18c-.51,0-.83-.38-.83-1.02s.32-1.05.83-1.05h8.18s0-.59,0-.59h-7.75c-.51,0-.8-.35-.8-1.02s.3-.99.8-.99h7.75s0-.67,0-.67h-9.73c-.64,0-.99-.46-.99-1.24s.35-1.23.99-1.23h9.73s0-.67,0-.67h-7.75c-.56,0-.88-.38-.88-1.1s.32-1.1.88-1.1h7.75c.05-.91.78-1.42,1.96-1.42s1.88.51,1.93,1.42h5.82c2.31,0,2.49.91,2.49,2.87h1.64c.64,0,.99.43.99,1.23s-.35,1.23-.99,1.23h-1.64c0,.96-.08,1.64-.43,2.06-.35.43-.97.62-2.06.62h-5.82ZM139.75,171.13c0-1.93.59-2.52,2.49-2.52h15.04c1.93,0,2.52.59,2.52,2.52v3.3c0,1.93-.59,2.52-2.52,2.52h-15.04c-1.9,0-2.49-.59-2.49-2.52v-3.3ZM155.89,171.66c0-.29-.03-.46-.11-.54-.08-.11-.21-.13-.48-.13h-10.94c-.56,0-.59.21-.59.67h12.12ZM155.3,174.43c.59,0,.59-.24.59-.75h-12.12c0,.24,0,.43.08.56s.21.19.51.19h10.94ZM151.74,156.73h4.61c0-.54,0-.64-.43-.67h-4.18s0,.67,0,.67ZM151.74,159.86h4.18c.43,0,.43-.08.43-.67h-4.61s0,.67,0,.67Z"/>
      </g>
    </g>
  </g>
</svg>