<?xml version="1.0" encoding="UTF-8"?>
<svg xmlns="http://www.w3.org/2000/svg" xmlns:xlink="http://www.w3.org/1999/xlink" viewBox="0 0 195 195">
  <defs>
    <style>
      .cls-1 {
        fill: #a98320;
      }

      .cls-2 {
        fill: none;
      }

      .cls-3 {
        fill: #ffe100;
      }

      .cls-4 {
        fill: #ed848c;
      }

      .cls-5 {
        opacity: .3;
      }

      .cls-5, .cls-6 {
        fill: #fff;
      }

      .cls-7 {
        fill: #d89032;
      }

      .cls-8 {
        clip-path: url(#clippath-1);
      }

      .cls-9 {
        fill: #231815;
      }

      .cls-10 {
        fill: #005d7f;
      }

      .cls-11 {
        fill: #fbb03b;
      }

      .cls-12 {
        fill: #e63556;
      }

      .cls-13 {
        fill: #e50012;
      }

      .cls-14 {
        clip-path: url(#clippath);
      }
    </style>
    <clipPath id="clippath">
      <path class="cls-2" d="M20.69,83.28c0,21.91,2.42,44.41,16.78,58.77,14.36,14.36,36.86,16.79,58.77,16.8,21.91,0,44.41-2.42,58.77-16.78,14.36-14.36,16.79-36.86,16.8-58.77,0-21.91-2.42-44.41-16.78-58.77S118.17,7.73,96.26,7.73c-21.91,0-44.41,2.42-58.77,16.78-14.36,14.36-16.79,36.86-16.8,58.77Z"/>
    </clipPath>
    <clipPath id="clippath-1">
      <path class="cls-2" d="M21.07,84.28c0,21.91,2.42,44.41,16.78,58.77,14.36,14.36,36.86,16.79,58.77,16.8,21.91,0,44.41-2.42,58.77-16.78,14.36-14.36,16.79-36.86,16.8-58.77s-2.42-44.41-16.78-58.77c-14.36-14.36-36.86-16.79-58.77-16.8-21.91,0-44.41,2.42-58.77,16.78-14.36,14.36-16.79,36.86-16.8,58.77Z"/>
    </clipPath>
  </defs>
  <g id="list-pic">
    <g>
      <path class="cls-7" d="M21.07,94.61c0,21.91,2.42,44.41,16.78,58.77,14.36,14.36,36.86,16.79,58.77,16.8,21.91,0,44.41-2.42,58.77-16.78,14.36-14.36,16.79-36.86,16.8-58.77,0-21.91-2.42-44.41-16.78-58.77-14.36-14.36-36.86-16.79-58.77-16.8-21.91,0-44.41,2.42-58.77,16.78-14.36,14.36-16.79,36.86-16.8,58.77Z"/>
      <path class="cls-11" d="M20.69,83.28c0,21.91,2.42,44.41,16.78,58.77,14.36,14.36,36.86,16.79,58.77,16.8,21.91,0,44.41-2.42,58.77-16.78,14.36-14.36,16.79-36.86,16.8-58.77,0-21.91-2.42-44.41-16.78-58.77S118.17,7.73,96.26,7.73c-21.91,0-44.41,2.42-58.77,16.78-14.36,14.36-16.79,36.86-16.8,58.77Z"/>
      <circle class="cls-6" cx="97.24" cy="96.48" r="59.56"/>
      <g class="cls-14">
        <path class="cls-5" d="M105.11,14.07c-.2,1.55-.74,2.85-1.67,3.91-1.2,1.36-2.54,2.59-3.84,3.86-.26.25-.57.46-.89.62-1.38.73-2.76,1.44-4.15,2.14-.67.34-1.37.48-2.14.27-.48-.36-.56-.95-.77-1.47-.29-.72-.54-1.46-.87-2.17-.37-.81-.65-1.63-.8-2.51-.25-1.54-.53-3.07-.77-4.61-.07-.45-.04-.92-.06-1.42,1.09-.54,2.2-.73,3.34-.8,1.98-.13,3.94.04,5.89.41,1.43.27,2.86.56,4.28.87.56.12,1.11.28,1.65.45.24.08.45.25.78.44Z"/>
        <path class="cls-5" d="M41.76,66.02c-.33-1.53-.26-2.94.27-4.24.67-1.68,1.53-3.29,2.33-4.92.16-.32.39-.62.63-.89,1.06-1.14,2.12-2.28,3.2-3.41.51-.54,1.13-.91,1.93-.97.57.18.84.71,1.22,1.13.52.58,1,1.2,1.54,1.76.62.63,1.16,1.32,1.59,2.1.75,1.37,1.53,2.72,2.27,4.09.22.4.35.86.53,1.31-.85.87-1.83,1.42-2.88,1.87-1.82.78-3.73,1.28-5.69,1.58-1.44.22-2.88.42-4.32.61-.57.07-1.14.11-1.71.13-.25,0-.5-.08-.89-.15Z"/>
        <path class="cls-5" d="M151.49,88.47c.48-1.36,1.22-2.43,2.26-3.21,1.34-1,2.79-1.85,4.21-2.74.28-.18.6-.3.92-.39,1.38-.39,2.77-.76,4.16-1.13.66-.17,1.33-.17,1.98.17.37.41.32.97.41,1.48.12.71.2,1.43.36,2.12.18.8.27,1.6.23,2.42-.07,1.44-.11,2.87-.2,4.31-.02.42-.14.84-.22,1.29-1.09.28-2.13.23-3.17.08-1.81-.27-3.55-.8-5.24-1.51-1.24-.52-2.47-1.06-3.69-1.61-.48-.22-.95-.46-1.4-.73-.2-.12-.36-.31-.62-.55Z"/>
        <path class="cls-5" d="M39.95,135.52c.2-1.55.74-2.85,1.67-3.91,1.2-1.36,2.54-2.59,3.84-3.86.26-.25.57-.46.89-.62,1.38-.73,2.76-1.44,4.15-2.14.67-.34,1.37-.48,2.14-.27.48.36.56.95.77,1.47.29.72.54,1.46.87,2.17.37.81.65,1.63.8,2.51.25,1.54.53,3.07.77,4.61.07.45.04.92.06,1.42-1.09.54-2.2.73-3.34.8-1.98.13-3.94-.04-5.89-.41-1.43-.27-2.86-.56-4.28-.87-.56-.12-1.11-.28-1.65-.45-.24-.08-.45-.25-.78-.44Z"/>
        <path class="cls-5" d="M72.29,20.57c.33,1.53.26,2.94-.27,4.24-.67,1.68-1.53,3.29-2.33,4.92-.16.32-.39.62-.63.89-1.06,1.14-2.12,2.28-3.2,3.41-.51.54-1.13.91-1.93.97-.57-.18-.84-.71-1.22-1.13-.52-.58-1-1.2-1.54-1.76-.62-.63-1.16-1.32-1.59-2.1-.75-1.37-1.53-2.72-2.27-4.09-.22-.4-.35-.86-.53-1.31.85-.87,1.83-1.42,2.88-1.87,1.82-.78,3.73-1.28,5.69-1.58,1.44-.22,2.88-.42,4.32-.61.57-.07,1.14-.11,1.71-.13.25,0,.5.08.89.15Z"/>
        <path class="cls-5" d="M136.96,135.91c.94-.6,1.9-.91,2.91-.88,1.3.03,2.59.2,3.88.33.26.03.51.1.75.2,1.03.42,2.06.85,3.08,1.29.49.21.89.53,1.13,1.05.03.43-.27.74-.45,1.1-.26.49-.56.97-.79,1.47-.27.58-.6,1.11-1.01,1.59-.73.84-1.44,1.7-2.18,2.54-.22.25-.49.45-.75.68-.8-.35-1.41-.87-1.98-1.47-.98-1.03-1.79-2.18-2.48-3.42-.51-.91-1-1.82-1.49-2.74-.19-.36-.36-.73-.51-1.11-.07-.17-.07-.36-.12-.63Z"/>
        <path class="cls-5" d="M124.3,67.48c-.88-1.29-1.34-2.63-1.35-4.03,0-1.81.18-3.63.3-5.44.03-.36.13-.72.25-1.06.55-1.46,1.11-2.91,1.68-4.36.27-.69.7-1.27,1.42-1.63.6-.05,1.05.34,1.55.59.7.35,1.37.74,2.09,1.05.81.35,1.57.79,2.26,1.35,1.21.98,2.44,1.94,3.64,2.94.35.29.64.66.99,1.02-.46,1.13-1.16,2.01-1.97,2.82-1.4,1.41-2.98,2.59-4.68,3.61-1.25.75-2.51,1.47-3.77,2.19-.5.28-1.01.53-1.53.76-.23.1-.5.11-.88.19Z"/>
        <path class="cls-5" d="M140.29,20.57c.33,1.53.26,2.94-.27,4.24-.67,1.68-1.53,3.29-2.33,4.92-.16.32-.39.62-.63.89-1.06,1.14-2.12,2.28-3.2,3.41-.51.54-1.13.91-1.93.97-.57-.18-.84-.71-1.22-1.13-.52-.58-1-1.2-1.54-1.76-.62-.63-1.16-1.32-1.59-2.1-.75-1.37-1.53-2.72-2.27-4.09-.22-.4-.35-.86-.53-1.31.85-.87,1.83-1.42,2.88-1.87,1.82-.78,3.73-1.28,5.69-1.58,1.44-.22,2.88-.42,4.32-.61.57-.07,1.14-.11,1.71-.13.25,0,.5.08.89.15Z"/>
        <path class="cls-5" d="M145.85,48.27c-1.1-1.11-1.8-2.33-2.07-3.71-.34-1.78-.49-3.6-.7-5.4-.04-.36,0-.73.05-1.09.27-1.53.56-3.07.85-4.59.14-.73.46-1.37,1.09-1.86.58-.16,1.09.14,1.63.29.75.21,1.49.47,2.24.65.87.2,1.69.48,2.47.91,1.37.74,2.75,1.46,4.12,2.22.4.22.75.53,1.16.82-.24,1.19-.77,2.19-1.41,3.13-1.11,1.65-2.45,3.09-3.93,4.4-1.09.96-2.19,1.91-3.31,2.85-.44.37-.9.71-1.37,1.03-.21.14-.47.2-.83.35Z"/>
        <path class="cls-5" d="M153.63,60.31c1.17-.34,2.28-.36,3.32-.02,1.35.43,2.65,1.01,3.96,1.55.26.11.51.27.73.44.95.76,1.89,1.53,2.83,2.31.45.37.77.83.86,1.45-.11.46-.51.7-.81,1.01-.43.43-.88.84-1.29,1.3-.46.52-.97.98-1.55,1.35-1.02.66-2.04,1.34-3.07,1.99-.3.19-.65.32-1,.48-.73-.61-1.21-1.35-1.62-2.15-.71-1.38-1.2-2.84-1.54-4.35-.25-1.11-.49-2.22-.71-3.34-.09-.44-.15-.88-.19-1.32-.02-.2.04-.4.07-.7Z"/>
        <path class="cls-5" d="M161.65,125.92c-1.55.21-2.95.02-4.21-.61-1.62-.81-3.16-1.79-4.72-2.72-.31-.18-.59-.44-.83-.7-1.06-1.15-2.1-2.3-3.13-3.47-.5-.56-.81-1.2-.82-2,.22-.56.78-.78,1.22-1.12.62-.47,1.28-.9,1.87-1.39.68-.57,1.41-1.05,2.22-1.41,1.42-.64,2.83-1.3,4.26-1.93.42-.18.88-.28,1.35-.42.8.91,1.27,1.94,1.63,3.03.63,1.88.97,3.82,1.12,5.8.11,1.45.19,2.9.26,4.36.03.57.02,1.14-.01,1.71-.01.25-.12.5-.22.87Z"/>
        <path class="cls-5" d="M50.07,38.63c-.2,1.55-.74,2.85-1.67,3.91-1.2,1.36-2.54,2.59-3.84,3.86-.26.25-.57.46-.89.62-1.38.73-2.76,1.44-4.15,2.14-.67.34-1.37.48-2.14.27-.48-.36-.56-.95-.77-1.47-.29-.72-.54-1.46-.87-2.17-.37-.81-.65-1.63-.8-2.51-.25-1.54-.53-3.07-.77-4.61-.07-.45-.04-.92-.06-1.42,1.09-.54,2.2-.73,3.34-.8,1.98-.13,3.94.04,5.89.41,1.43.27,2.86.56,4.28.87.56.12,1.11.28,1.65.45.24.08.45.25.78.44Z"/>
        <path class="cls-5" d="M26.47,71.29c1.46-.56,2.86-.71,4.23-.4,1.77.4,3.49,1,5.23,1.53.34.11.67.29.97.49,1.3.86,2.58,1.74,3.86,2.63.61.42,1.07.97,1.26,1.75-.08.59-.57.94-.93,1.38-.5.6-1.03,1.17-1.49,1.8-.53.71-1.12,1.35-1.82,1.89-1.23.96-2.45,1.93-3.69,2.88-.37.28-.79.48-1.22.73-.99-.7-1.69-1.59-2.3-2.56-1.06-1.68-1.84-3.49-2.45-5.37-.44-1.39-.87-2.78-1.28-4.17-.16-.55-.29-1.11-.39-1.67-.05-.25,0-.51.01-.9Z"/>
        <path class="cls-5" d="M31.04,115.73c-.88-1.29-1.35-2.62-1.36-4.03-.01-1.81.17-3.63.3-5.44.02-.36.12-.72.25-1.06.55-1.46,1.11-2.91,1.68-4.36.27-.69.7-1.27,1.42-1.63.6-.05,1.05.34,1.55.59.7.35,1.38.74,2.09,1.04.82.35,1.57.78,2.26,1.34,1.21.98,2.44,1.94,3.64,2.93.35.29.64.66.99,1.02-.45,1.13-1.16,2.01-1.96,2.82-1.39,1.42-2.97,2.59-4.67,3.61-1.25.75-2.51,1.48-3.77,2.2-.5.28-1.01.53-1.53.76-.23.1-.5.11-.88.2Z"/>
      </g>
      <g class="cls-8">
        <g>
          <g>
            <path class="cls-13" d="M69.9,99.41c.28.73.41,1.54.38,2.4,0,.01,0,.02,0,.04,1.46.72,2.13,2.45,1.86,3.84-.31,1.61-1.12,2.79-2.08,4.28-.65,2.76-2.49,5.44-6.34,5.77-7,.59-11.37-5.51-13.26-8.34-.41-.62-.87-1.47-1.29-2.48-.94,2.35-2,5.99-1.47,9.55.98,6.52,5.88,11.4,13.63,12.29,1.69.2,3.28-.05,4.76-.59.77,0,1.59-.04,2.44-.11.9-3.49,2.05-6.45,3.08-8.74-.22-1.67-.07-3.9.41-6.8.7-4.27,2.65-9.93,4.3-14.16-1.33.48-2.73,1.07-4.22,1.82-.75.38-1.49.79-2.21,1.23Z"/>
            <path class="cls-13" d="M141.03,104.93c-.42,1.01-.88,1.86-1.29,2.48-1.89,2.83-6.26,8.94-13.26,8.34-3.77-.32-5.62-2.91-6.3-5.62-.88-1.37-1.83-2.96-2.12-4.44-.27-1.39.4-3.12,1.87-3.84,0-.01,0-.02,0-.04-.04-.87.1-1.68.38-2.4-.72-.44-1.46-.86-2.21-1.23-1.74-.87-3.35-1.53-4.87-2.04,1.66,4.26,3.67,10.04,4.38,14.39.46,2.8.62,4.97.44,6.62,1.3,2.42,2.69,5.53,3.45,8.9.91.08,1.79.12,2.61.13,1.48.54,3.07.79,4.76.6,7.75-.89,12.65-5.77,13.63-12.29.53-3.56-.53-7.2-1.47-9.55Z"/>
            <path class="cls-13" d="M104.08,96.45c-.07.01-.15.02-.22.03-.2,2.46-4.3,4.43-9.34,4.43-4.5,0-8.25-1.57-9.14-3.66-1.15,4.92-2.08,10.58-2.56,14.37,8.41-.45,16.63-.41,24.01,0-.5-3.99-1.5-10.08-2.75-15.17Z"/>
            <g>
              <path class="cls-13" d="M75.84,110.96c-2.24-.07-4.12,1.8-4.2,4.18-.08,2.38,1.68,4.37,3.92,4.44,2.24.07,4.12-1.8,4.2-4.18.08-2.38-1.68-4.37-3.92-4.44Z"/>
              <path class="cls-13" d="M113.79,110.96c-2.24.07-4,2.06-3.93,4.44.08,2.38,1.96,4.25,4.2,4.18,2.24-.07,4-2.06,3.93-4.44-.08-2.38-1.96-4.25-4.2-4.18Z"/>
            </g>
          </g>
          <path class="cls-3" d="M48.28,127.03c-1.72-.62-3.67.24-4.37,1.91-.69,1.67.14,3.53,1.86,4.15,7.97,2.86,9.77,7.34,11.85,12.54,1.6,3.99,3.41,8.48,8.28,11.67.18-2.94.36-5.92.54-8.77-1.01-1.56-1.73-3.36-2.54-5.38-2.19-5.47-4.93-12.28-15.62-16.12Z"/>
          <path class="cls-3" d="M69.6,90.36c-.6-.77-1.36-1.45-2.35-1.93-.24-.12-.47-.21-.71-.31-2.4-.97-4.78-.91-6.5-.62-1.85-1.01-4.29-1.07-7.33,1.43-6.18,5.08-5.23,11.89-3.55,16,.42,1.01.88,1.86,1.29,2.48,1.89,2.83,6.26,8.94,13.26,8.34,3.84-.33,5.69-3.01,6.34-5.77.96-1.49,1.77-2.68,2.08-4.28.27-1.39-.4-3.12-1.86-3.84,0-.01,0-.02,0-.04.04-.87-.1-1.68-.38-2.4-.02-.05-.04-.1-.06-.15,1.67-1.48,2.05-5.94-.23-8.9Z"/>
          <path class="cls-3" d="M137.49,88.94c-3.04-2.5-5.48-2.44-7.33-1.43-1.84-.31-4.43-.36-7,.84.27-.22.55-.43.81-.66-.27.23-.55.44-.82.66-.07.03-.14.06-.21.09-.85.42-1.53.98-2.09,1.61-2.57,2.94-2.23,7.68-.49,9.22-.02.05-.04.1-.06.15-.28.73-.41,1.54-.38,2.4,0,.01,0,.02,0,.04-1.46.72-2.13,2.45-1.87,3.84.29,1.48,1.24,3.07,2.12,4.44.68,2.7,2.53,5.29,6.3,5.62,7,.6,11.37-5.51,13.26-8.34.41-.62.87-1.47,1.29-2.48,1.69-4.11,2.63-10.91-3.54-16Z"/>
          <path class="cls-3" d="M113.32,182.76c-4.56.6-8.85.55-11.98.15.22,3.37.48,7.39.73,11.07.53.23,3.3,1.14,12.36.54,8.35-.55,9.64-1.98,9.81-2.25l-.75-11.49c-2.41.71-5.75,1.39-10.16,1.97Z"/>
          <path class="cls-3" d="M77.66,183.15c-4.45-.43-7.64-1-9.9-1.64l-.71,10.77c.17.27,1.45,1.7,9.81,2.25,9.06.6,11.83-.31,12.36-.54.25-3.78.52-7.92.75-11.34-2.91.62-7.21.99-12.31.5Z"/>
          <g>
            <path d="M66.34,137.83c-.13.7-.24,1.41-.34,2.12-.24,1.68-.4,3.41-.49,5.18-.31-.71-.61-1.46-.93-2.26-2.25-5.61-5.05-12.59-16.06-16.54-2.08-.75-4.47.3-5.31,2.33-.41.99-.4,2.07.03,3.04.43.98,1.24,1.72,2.27,2.09,7.65,2.74,9.31,6.88,11.41,12.11,1.6,3.99,3.41,8.48,8.2,11.78M120.37,125.52c.49.03,3.03,1.38,3.49,1.39,1,.37,2.06.61,3.13.69.61.05,1.23.03,1.85-.03.33-.03.58-.07.87-.11.3-.05.6-.09.89-.15,1.17-.23,2.32-.55,3.43-1,2.23-.89,4.28-2.29,5.87-4.13.79-.92,1.47-1.94,2.01-3.02.54-1.08.94-2.24,1.21-3.41.07-.29.13-.59.17-.89l.04-.22.03-.23c.02-.14.04-.28.05-.43.06-.63.07-1.22.06-1.83-.03-1.21-.19-2.4-.45-3.56-.25-1.16-.6-2.29-1.02-3.4-.03-.08-.06-.16-.1-.24.46-1.19.81-2.41.99-3.66.12-.62.13-1.25.19-1.87,0-.31,0-.63,0-.94v-.46s-.06-.46-.06-.46c-.23-2.46-1.15-4.79-2.52-6.6-.38-.44-.75-.87-1.12-1.3-.38-.37-.76-.7-1.13-1.05-.83-.74-1.66-1.3-2.59-1.75-.91-.44-1.91-.72-2.88-.74-.98-.03-1.91.22-2.67.59-.02.01-.04.02-.07.04-1.1-.17-2.42-.24-3.85-.04,2.39-2.33,4.43-4.99,6.07-7.94.09.04.18.08.27.13,1.25.55,2.49,1.14,3.4,1.61.46.23.82.45,1.11.55.29.1.48.1.48.1h0s.08-.01.11-.03c.11-.06.14-.2.08-.31,0,0-.1-.17-.34-.36-.24-.2-.63-.38-1.08-.64-.92-.49-2.15-1.12-3.4-1.7-.07-.03-.15-.06-.22-.1.65-1.24,1.23-2.53,1.74-3.86,1.01-.04,1.97-.04,2.74-.02.49,0,.9.05,1.19.01.29-.04.46-.12.46-.12.03-.02.06-.04.09-.07.07-.1.05-.24-.05-.31,0,0-.16-.11-.45-.18-.29-.07-.71-.07-1.21-.1-.69-.03-1.55-.05-2.45-.04,1.58-4.42,2.41-9.34,2.41-14.69,0-5.88-1.05-11.32-2.98-16.19,3.56-2.2,6.01-5.9,6.48-10.14.5-4.54-1.57-9.52-5.39-13.01-3.69-3.37-8.28-4.79-12.6-3.91-3.67.75-6.9,3.08-9.03,6.15-5.5-2.35-11.77-3.63-18.61-3.63-6.84,0-13.12,1.28-18.62,3.63-2.13-3.07-5.36-5.4-9.03-6.15-4.32-.88-8.92.54-12.6,3.9-3.83,3.49-5.89,8.48-5.4,13.01.47,4.25,2.92,7.95,6.47,10.15-1.94,4.87-2.99,10.31-2.99,16.19,0,5.23.79,10.05,2.3,14.39-.89.07-1.73.16-2.42.25-.53.08-.98.12-1.28.22-.3.1-.46.23-.46.23-.03.03-.06.06-.07.1-.04.12.02.24.14.28,0,0,.19.06.5.07.31,0,.74-.08,1.27-.13.74-.08,1.66-.16,2.63-.21.54,1.44,1.15,2.83,1.85,4.16-.04.01-.07.03-.11.04-1.3.55-2.59,1.14-3.54,1.63-.47.25-.87.44-1.12.64-.25.2-.35.37-.35.37-.02.03-.03.07-.03.12,0,.12.1.22.22.22h0s.2,0,.49-.1c.29-.11.66-.32,1.13-.55.94-.46,2.21-1.02,3.51-1.53.06-.03.13-.05.19-.08,1.64,2.95,3.66,5.61,6.05,7.93-1.33-.15-2.55-.08-3.59.08-.02-.01-.04-.02-.07-.04-.77-.37-1.7-.62-2.67-.59-.98.02-1.97.3-2.88.74-.93.45-1.75,1.02-2.59,1.75-.37.34-.75.68-1.13,1.05-.37.43-.74.86-1.12,1.3-1.38,1.8-2.3,4.13-2.53,6.6l-.05.46v.46c0,.31-.01.62-.02.94.06.62.07,1.25.19,1.87.18,1.24.53,2.47.98,3.66-.03.08-.06.16-.1.24-.42,1.1-.76,2.24-1.02,3.4-.26,1.16-.42,2.35-.45,3.56-.01.61,0,1.2.06,1.83.01.16.03.29.05.43l.03.23.04.22c.05.3.11.59.17.89.27,1.18.66,2.33,1.2,3.41.53,1.09,1.21,2.11,2.01,3.02,1.59,1.84,3.64,3.24,5.87,4.13,1.11.46,2.27.78,3.43,1.01.29.06.59.1.89.15.3.04.54.08.87.11.61.06,1.23.08,1.85.03,1.08-.07,2.13-.32,3.13-.69.4,0,3.44-1.37,3.86-1.39M100.64,183.58l.69,10.46h0s.19,2.83.19,2.83h0v.1h0l.19,2.86c-.07.1-.12.22-.14.36-.27,2.26-.35,4.52-.29,6.78.03,1.13.1,2.26.23,3.4.07.57.14,1.14.26,1.72.05.27.12.55.2.83l.18.93s0,.04.02.06c.35,1.23,2.23.86,3.19,1.31,4.67,2.23,11.13,4.62,17.62,4.62,5.12,0,9.85-.65,12.69-1.87,2.34-1.01,3.88-2.44,4.58-4.24.27-.7.38-1.38.41-2,0-.02,0-.04,0-.06,0-.09,0-.18,0-.27,0-.08,0-.16,0-.23-.01-.36-.06-.71-.12-1.06l-.13-.54-1.87,1.26c-.25-.67-2.24-1.43-2.58-2.01-.64-1.16-1.66-1.54-2.54-2.49-.9-.94-1.4-2.11-2.42-2.88-1.03-.77,1.07-3.31-.06-3.91-.76-.4-1.53-.76-2.33-1.07.05-.52-.08-1.03-.39-1.51-.58-.9-1.51-1.47-2.68-1.66-.1-.02-.2-.02-.3-.03l-.2-3.07c0-.05-.02-.1-.04-.15l-.7-10.7M66.98,182.06l-.66,9.98s-.03.1-.04.15l-.2,3.07c-.1.01-.21.01-.3.03-1.17.19-2.1.76-2.68,1.66-.31.48-.44.99-.39,1.51-.8.31-1.58.67-2.34,1.07-1.13.6,1.74,1.9.71,2.67-1.03.77-4.2,2.99-5.1,3.93-.89.95-1.75,1.5-2.39,2.67-.34.58-.77,2.04-1.01,2.71-.05.15-.77,0-1.68-1.93l-.13.54-.08.53-.04.54c0,.07,0,.14,0,.22,0,.7.09,1.49.41,2.31.7,1.81,2.24,3.24,4.58,4.25,2.84,1.22,7.57,1.87,12.69,1.87,6.49,0,13.6-1.04,18.26-3.27,1.35-.65,2.23-1.56,2.55-2.66l.15-.52c.05-.13.1-.26.14-.39.09-.3.17-.59.24-.88.01-.06.02-.13.04-.19v-.03s0-.02.01-.03c.1-.49.19-.98.25-1.47.15-1.14.23-2.28.26-3.42.05-2.28-.08-4.56-.51-6.83,0-.05-.02-.1-.04-.15-.02-.06-.05-.11-.09-.16l.19-2.85h0s0-.1,0-.1l.19-2.83h0s.71-10.78.71-10.78M130.76,88.04c1.18-.6,2.72-.59,4.25.17.75.37,1.54.91,2.2,1.51.36.34.75.69,1.11,1.05.31.36.61.73.93,1.11,1.21,1.61,1.99,3.63,2.18,5.81l.04.41v.41c0,.28,0,.55,0,.83-.06.56-.07,1.12-.19,1.68-.17,1.12-.49,2.25-.92,3.33-.1.27-.21.54-.34.8-.12.27-.24.53-.39.78-.27.53-.56.97-.93,1.5-.68.99-1.42,1.95-2.22,2.84-1.58,1.79-3.5,3.27-5.62,4.07-1.07.4-2.18.58-3.29.62l-.83-.02h-.1s-.05,0-.05,0h-.03s0,0,0,0l-.18-.03-.44-.07c-.64-.06-1.02-.27-1.5-.41-1.14-.51-2.03-1.38-2.65-2.41,0-.01,0-.02,0-.04,0,0-.01-.45-.3-1.07-.13-.31-.35-.66-.59-1.04-.24-.39-.51-.82-.78-1.3-.27-.48-.55-1-.79-1.55-.12-.27-.23-.57-.31-.84-.04-.13-.08-.27-.12-.45l-.03-.13v-.06s-.01,0-.02,0v-.02c-.01-.06-.03-.13-.03-.2-.05-.53.08-1.13.36-1.64.28-.51.71-.91,1.22-1.13.51-.22,1.11-.26,1.72-.13.3.06.62.15.89.27.32.12.61.28.9.44.59.31,1.12.66,1.6,1.03.47.38.9.76,1.25,1.16.36.39.66.77.9,1.13.24.36.44.67.62.92.18.25.35.44.46.57.12.13.19.19.19.19.06.2.28.31.48.25.2-.06.31-.28.25-.48,0,0,.02-.12,0-.32-.01-.2-.06-.48-.17-.83-.12-.34-.3-.73-.58-1.14-.27-.42-.6-.87-1-1.32-.39-.46-.87-.92-1.4-1.37-.54-.44-1.14-.87-1.8-1.23-.33-.18-.68-.37-1.04-.52-.4-.17-.79-.29-1.22-.38-.52-.11-1.09-.13-1.66-.06.07-.39.18-.78.33-1.16.26-.66.71-1.25,1.26-1.72.55-.48,1.23-.82,1.95-.99.72-.16,1.48-.13,2.21.04l.54.15.48.21c.29.1.76.43,1,.57.63.46,1.23.91,1.72,1.42.51.49.94,1.01,1.3,1.51.37.5.65.99.88,1.43.22.45.41.84.57,1.17.17.32.31.57.41.74.11.17.17.26.17.26.03.21.23.35.44.32.21-.03.35-.23.32-.44,0,0,.03-.13.04-.36,0-.23,0-.56-.09-.97-.08-.41-.26-.87-.51-1.39-.26-.51-.56-1.08-.97-1.65-.4-.58-.87-1.17-1.44-1.74-.55-.58-1.21-1.12-1.91-1.64h-.02s-.06-.05-.06-.05l-.03-.02-.07-.04-.13-.08-.27-.16c-.18-.11-.35-.22-.59-.32-.23-.1-.46-.2-.69-.31-.23-.07-.47-.14-.7-.21-.89-.22-1.85-.27-2.78-.1.21-.44.48-.86.8-1.25.56-.66,1.27-1.2,2.06-1.53.79-.34,1.66-.47,2.51-.39l.32.02c.1.01.2.04.3.06.21.05.38.06.61.14.23.08.45.16.68.24l.15.05h0s.04.02.04.02l.07.04.28.14c.75.37,1.44.86,2.03,1.4.6.53,1.11,1.11,1.55,1.68.45.56.81,1.12,1.12,1.61.3.5.57.94.8,1.3.24.35.44.63.59.81.16.18.24.27.24.27.07.08.18.14.3.14.22,0,.4-.18.4-.4v-.02s0-.14-.04-.39c-.04-.25-.12-.6-.28-1.03-.16-.43-.41-.92-.73-1.46-.33-.54-.7-1.15-1.18-1.77-.47-.63-1.02-1.29-1.69-1.91-.66-.63-1.45-1.24-2.37-1.7l-.35-.17-.09-.04-.04-.02h-.02s-.07-.04-.07-.04l-.17-.06c-.22-.08-.45-.16-.68-.24-.23-.08-.54-.14-.8-.2-.14-.03-.28-.07-.42-.09l-.41-.04c-.55-.06-1.13-.04-1.69.04.02-.02.03-.04.05-.07.65-.79,1.51-1.71,2.7-2.29ZM71.91,94.34c-.07-.69-.21-1.35-.41-1.97,1.5.83,3.08,1.57,4.74,2.22-.15.38-.31.78-.48,1.19-1.26.47-2.58,1.03-3.98,1.73-.05.02-.1.05-.15.08.29-.97.4-2.09.28-3.24ZM72.44,98.84c.9-.45,1.75-.83,2.59-1.17-.73,1.95-1.5,4.13-2.16,6.29-.09-.37-.22-.74-.4-1.08-.32-.61-.81-1.16-1.41-1.56,0-.52-.08-1.06-.23-1.6.53-.31,1.07-.6,1.61-.87ZM75.72,111.7s.07,0,.1,0c.88.03,1.69.42,2.3,1.1.62.7.94,1.61.91,2.57-.03.96-.41,1.85-1.07,2.5-.65.64-1.48.99-2.36.95-.88-.03-1.69-.42-2.3-1.1-.62-.7-.94-1.61-.91-2.57.06-1.93,1.55-3.46,3.33-3.46ZM75.54,120.32c.05,0,.1,0,.15,0,1.24,0,2.41-.49,3.31-1.39.93-.92,1.46-2.17,1.51-3.51s-.41-2.62-1.28-3.6c-.88-.99-2.07-1.56-3.37-1.6-1.22-.04-2.35.41-3.22,1.17.04-.24.07-.49.12-.74.75-4.57,3.07-11.08,4.86-15.52,2.22.78,4.58,1.4,7.05,1.86-1.36,5.73-2.4,12.49-2.79,16.23-.36,3.47-1.25,5.78-2.63,6.87-.87.68-1.98.92-3.38.74-1.19-.16-2.01-.53-2.57-1.16.67.41,1.44.64,2.24.66ZM85.74,99.01c1.92,1.57,5.08,2.58,8.72,2.58,4.05,0,7.5-1.24,9.31-3.12.94,4.18,1.72,8.8,2.19,12.35-7.18-.36-14.81-.36-22.3,0,.45-3.4,1.19-7.79,2.08-11.83ZM86.12,97.33s.01-.07.02-.1c2.81.44,5.76.67,8.84.67,2.7,0,5.29-.18,7.77-.51-1.49,1.59-4.69,2.72-8.29,2.72-3.65,0-6.87-1.15-8.34-2.77ZM104.98,97.04c2.48-.44,4.84-1.05,7.08-1.82,1.68,4.18,4.03,10.62,4.82,15.43.04.25.08.5.12.74-.87-.76-2-1.21-3.22-1.17-2.65.08-4.73,2.42-4.65,5.2.04,1.34.58,2.59,1.51,3.51.9.9,2.07,1.39,3.31,1.39.05,0,.1,0,.15,0,.8-.03,1.57-.26,2.24-.66-.56.63-1.38,1-2.57,1.16-1.41.19-2.51-.05-3.38-.74-1.39-1.09-2.27-3.4-2.63-6.87-.39-3.73-1.43-10.45-2.77-16.17ZM118.57,97.6s-.1-.05-.15-.08c-1.64-.82-3.18-1.46-4.63-1.97-.11-.29-.23-.57-.34-.84,1.86-.71,3.63-1.54,5.3-2.48-.23.67-.38,1.38-.46,2.13-.11,1.16,0,2.28.28,3.24ZM114.04,118.83c-.88.03-1.72-.31-2.36-.95-.66-.65-1.04-1.54-1.07-2.5-.06-1.96,1.37-3.61,3.2-3.67.03,0,.07,0,.1,0,1.79,0,3.27,1.53,3.33,3.46.03.96-.29,1.87-.91,2.57-.6.68-1.42,1.07-2.3,1.1ZM117.2,105.46c-.78-2.75-1.76-5.59-2.7-8.06,1.04.4,2.12.88,3.25,1.45.54.27,1.08.56,1.61.87-.15.54-.22,1.08-.23,1.6-.6.4-1.09.95-1.41,1.56-.43.8-.61,1.7-.53,2.58ZM127.93,88.06c.08,0,.16,0,.24,0-.5.49-.89.99-1.2,1.45-.36.54-.62,1.02-.83,1.45-.95.45-1.78,1.11-2.44,1.89-.7.85-1.24,1.82-1.47,2.94l-.02.14c-.32.19-.63.41-.91.65-.41.36-.77.77-1.07,1.21-.39-.87-.58-2.08-.46-3.31.11-1.16.69-4.01,3.5-5.4,1.59-.79,3.22-1.04,4.65-1.04ZM122.94,16.79c3.85-.79,7.97.51,11.3,3.55,3.48,3.18,5.37,7.68,4.92,11.75-.41,3.71-2.52,6.94-5.59,8.92-.94-2.13-2.06-4.14-3.34-6.02,1.24-1.01,2.07-2.47,2.25-4.11.23-2.04-.7-4.28-2.41-5.84-1.65-1.51-3.73-2.15-5.68-1.75-1.41.29-2.66,1.09-3.6,2.17-1.81-1.27-3.76-2.38-5.81-3.35,1.92-2.65,4.75-4.66,7.96-5.31ZM129.36,33.76c-2.09-2.81-4.57-5.3-7.37-7.43.72-.79,1.66-1.37,2.71-1.59,1.49-.3,3.08.2,4.38,1.39,1.37,1.25,2.11,3,1.93,4.58-.13,1.19-.75,2.27-1.65,3.04ZM50.83,32.08c-.45-4.07,1.44-8.57,4.92-11.75,2.69-2.46,5.9-3.77,9.06-3.77.75,0,1.5.07,2.24.23,3.21.66,6.04,2.66,7.96,5.31-2.06.97-4,2.08-5.81,3.35-.94-1.08-2.19-1.89-3.6-2.17-1.96-.4-4.03.24-5.68,1.75-1.71,1.56-2.63,3.8-2.41,5.84.18,1.64,1.01,3.1,2.25,4.11-1.28,1.88-2.4,3.89-3.34,6.02-3.07-1.97-5.18-5.21-5.58-8.92ZM68.01,26.32c-2.81,2.13-5.28,4.62-7.37,7.43-.9-.77-1.52-1.86-1.65-3.04-.17-1.58.57-3.33,1.93-4.58,1.05-.96,2.3-1.47,3.53-1.47.29,0,.57.03.86.09,1.05.21,1.99.8,2.71,1.59ZM63.61,84.3c-1.72-1.87-3.22-3.92-4.48-6.16.72-.28,1.39-.53,1.96-.74.49-.18.91-.3,1.19-.44.27-.15.41-.29.41-.29.03-.03.05-.07.06-.11.03-.12-.05-.24-.17-.26,0,0-.2-.04-.51,0-.31.05-.72.21-1.23.37-.61.2-1.34.46-2.11.74-.62-1.17-1.18-2.39-1.67-3.66.58-.01,1.15-.01,1.69.01.33.01.65.02.95.05.3.03.58.04.84.08.52.05.95.14,1.26.15.31,0,.5-.06.5-.06h.01s.07-.04.1-.07c.08-.09.06-.23-.03-.31,0,0-.16-.13-.46-.24-.3-.12-.75-.17-1.29-.25-.27-.04-.56-.06-.87-.1-.31-.04-.64-.05-.97-.07-.66-.04-1.36-.05-2.05-.05-.4-1.11-.76-2.26-1.06-3.44,2.64-2.22,4.9-4.09,4.37-4.75-.43-.54-2.95-.59-5.33-.27-.24-1.89-.37-3.84-.37-5.85s.14-4.07.4-6.02c2.68-.65,5.25-1.51,5.18-2.28-.06-.68-2.05-1.86-4.28-2.39,4.05-16.04,17.3-26.94,35.27-28.38.01.17.02.34.04.52-3.97.34-7.41,1.11-9.41,1.85-2.66.99-3.39,1.97-1.69,2.26,1.42.24,5.63.61,11.54.72.07.59.14,1.18.22,1.78-2.05.39-3.75,1.06-4.88,1.71-1.7.99-2.32,1.7-1.33,2.28.87.51,3.5,1.34,7.21,1.61.66,2.66,1.54,4.6,2.7,4.6s2.05-1.96,2.71-4.65c3.43-.3,5.86-1.07,6.69-1.56.99-.58.37-1.28-1.33-2.28-1.03-.6-2.55-1.22-4.37-1.62.09-.64.16-1.27.23-1.9,5.59-.12,9.53-.47,10.9-.71,1.69-.29.97-1.28-1.69-2.26-1.9-.7-5.07-1.44-8.77-1.8.01-.18.03-.36.04-.52,17.78,1.65,30.84,12.62,34.74,28.65-2.09.46-3.7,1.26-3.77,1.93-.08.81,1.88,1.55,4.55,2.19.28,2.02.43,4.11.43,6.26,0,1.96-.13,3.86-.35,5.69-2.17-.2-4.04.2-4.45.72-.52.65,1.08,1.86,3.6,3.97-.37,1.5-.82,2.95-1.35,4.35-1.2.07-2.37.19-3.26.31-.5.07-.91.11-1.2.2-.28.1-.43.22-.43.22-.03.02-.05.05-.07.09-.05.12,0,.25.12.29h0s.18.07.47.09c.29,0,.69-.07,1.19-.12.79-.09,1.79-.17,2.84-.21-.45,1.1-.95,2.16-1.5,3.19-.69-.29-1.34-.56-1.89-.77-.48-.19-.88-.36-1.18-.43-.3-.06-.5-.03-.5-.03-.04,0-.08.02-.11.05-.1.08-.11.22-.03.31,0,0,.12.15.38.31.26.16.66.3,1.14.5.52.22,1.13.48,1.78.77-1.2,2.13-2.61,4.1-4.22,5.89-1.21,1.34-2.53,2.59-3.95,3.73-.03.01-.06.02-.09.04-.84.41-1.57.97-2.18,1.64-6.69,4.51-15.33,7-25.45,7-9.85,0-18.3-2.37-24.92-6.66-.67-.82-1.51-1.5-2.49-1.99-.2-.1-.39-.17-.59-.26-1.21-.99-2.34-2.06-3.39-3.2ZM66.93,89.09c2.82,1.39,3.39,4.24,3.5,5.4.12,1.23-.07,2.44-.46,3.31-.3-.44-.66-.85-1.07-1.21-.28-.25-.59-.46-.91-.65l-.02-.14c-.22-1.11-.76-2.08-1.47-2.94-.65-.78-1.49-1.44-2.44-1.89-.21-.43-.47-.91-.83-1.45-.32-.46-.71-.96-1.2-1.45,1.49-.03,3.21.2,4.89,1.03ZM48.73,98.5v-.41s.05-.41.05-.41c.19-2.18.97-4.2,2.18-5.81.31-.37.62-.74.93-1.11.36-.36.75-.7,1.11-1.05.67-.6,1.45-1.14,2.2-1.51,1.52-.77,3.07-.77,4.25-.17,1.19.58,2.05,1.5,2.7,2.29.02.02.03.04.05.07-.57-.08-1.14-.1-1.69-.04l-.41.04c-.14.02-.28.06-.42.09-.27.07-.58.12-.8.2-.23.08-.45.16-.68.24l-.17.06-.07.03h-.02s-.04.03-.04.03l-.09.04-.35.17c-.92.47-1.72,1.07-2.37,1.7-.67.63-1.23,1.28-1.7,1.91-.48.62-.85,1.23-1.18,1.77-.32.54-.57,1.04-.73,1.46-.16.43-.24.78-.28,1.03-.04.25-.04.39-.04.39v.02c0,.11.05.22.14.3.17.15.42.13.57-.04,0,0,.08-.1.24-.27.15-.18.35-.46.59-.81.23-.36.5-.8.8-1.3.32-.49.68-1.05,1.12-1.61.44-.57.95-1.15,1.55-1.68.59-.55,1.28-1.03,2.03-1.4l.28-.14.07-.04.04-.02h0s.15-.06.15-.06c.22-.08.45-.16.68-.24.23-.08.41-.09.61-.14.1-.02.2-.05.3-.06l.32-.02c.86-.08,1.73.05,2.51.39.79.33,1.51.88,2.06,1.53.32.38.6.81.8,1.25-.94-.17-1.9-.12-2.78.1-.24.07-.47.14-.7.21-.23.1-.46.21-.69.31-.25.1-.42.21-.59.32l-.27.16-.13.08-.07.04-.03.02-.06.04h-.02c-.7.53-1.36,1.06-1.91,1.65-.57.57-1.04,1.17-1.44,1.74-.4.57-.71,1.14-.97,1.65-.25.51-.42.98-.51,1.39-.08.41-.1.74-.09.97,0,.23.04.37.04.36-.03.21.11.4.32.44.21.03.4-.11.44-.32,0,0,.06-.09.17-.26.1-.17.24-.42.41-.74.16-.32.35-.72.57-1.16.24-.44.52-.93.88-1.43.36-.5.79-1.02,1.3-1.5.5-.51,1.1-.96,1.72-1.41.25-.14.71-.46,1-.57l.48-.21.54-.15c.72-.17,1.48-.2,2.21-.04.72.17,1.4.51,1.95.99.55.48,1,1.07,1.26,1.73.15.38.26.77.33,1.16-.57-.08-1.14-.06-1.66.06-.43.09-.82.21-1.22.38-.36.15-.71.33-1.04.52-.67.36-1.26.8-1.8,1.23-.53.45-1.01.91-1.4,1.37-.4.46-.73.91-1,1.32-.28.41-.46.8-.58,1.14-.11.34-.16.63-.17.83-.01.2,0,.33,0,.32-.06.2.05.41.25.48.2.06.41-.05.48-.25,0,0,.07-.07.19-.19.11-.13.28-.32.46-.57.19-.25.38-.56.62-.92.24-.35.54-.74.9-1.13.35-.39.78-.78,1.25-1.16.48-.37,1.01-.73,1.6-1.03.29-.16.58-.31.9-.44.27-.11.6-.21.89-.27.61-.13,1.21-.09,1.72.13.51.22.94.62,1.22,1.13.28.51.4,1.1.35,1.64-.01.15-.03.22-.07.42-.04.18-.08.32-.11.45-.08.28-.19.57-.3.84-.24.54-.53,1.05-.82,1.52-.57.95-1.14,1.74-1.4,2.38-.26.63-.26,1.07-.26,1.07,0,.01,0,.02,0,.04-.62,1.03-1.51,1.9-2.65,2.41-.48.14-.86.35-1.5.41l-.44.07-.18.03s0,0,0,0h-.03s-.05,0-.05,0h-.1s-.83.02-.83.02c-1.11-.04-2.22-.22-3.29-.62-2.13-.81-4.04-2.28-5.62-4.07-.8-.89-1.54-1.85-2.22-2.84-.36-.53-.66-.97-.93-1.5-.14-.25-.27-.52-.39-.78-.13-.26-.24-.53-.34-.8-.43-1.08-.75-2.2-.92-3.33-.12-.56-.12-1.12-.19-1.68,0-.28,0-.56,0-.83ZM63.1,126.02c-.53.04-1.05.02-1.58-.03-.24-.02-.56-.07-.83-.11-.27-.05-.53-.09-.8-.14-1.07-.22-2.13-.52-3.13-.94-2.01-.82-3.83-2.08-5.23-3.72-.7-.81-1.29-1.72-1.76-2.69-.48-.96-.82-1.99-1.05-3.05-.06-.26-.11-.53-.15-.8l-.03-.2-.02-.19-.05-.42c-.05-.5-.07-1.06-.06-1.59.02-1.08.16-2.17.4-3.24.13-.62.3-1.24.49-1.85.25.45.55.91.81,1.29.71,1.05,1.48,2.07,2.34,3.04,1.71,1.92,3.85,3.57,6.31,4.49,2.49.86,5.17.99,7.63,0,.17-.08.33-.18.5-.27-.1.28-.19.56-.29.84-.15.39-.28.79-.45,1.17-.15.39-.31.77-.48,1.16-.08.19-.17.38-.26.57-.09.19-.18.38-.27.56-.1.18-.18.38-.29.55l-.31.54.59.48.47-.49c.16-.16.28-.35.42-.52.14-.18.27-.36.39-.55.12-.19.25-.37.36-.56.22-.39.44-.77.63-1.17.1-.2.19-.4.28-.6.09-.2.19-.4.26-.61.34-.82.62-1.65.88-2.49.07-.21.12-.43.19-.64.11-.13.22-.26.32-.39.73-1.01,1.19-2.13,1.45-3.25.18-.28.37-.56.58-.88.06-.09.11-.18.17-.27-.09.45-.18.89-.25,1.32-.48,2.94-.64,5.13-.45,6.81-.86,1.91-1.78,4.28-2.58,7.02-1.58,1.01-3.34,1.68-5.16,1.8ZM52.94,136.38c-1.39-1.29-3.16-2.45-5.51-3.44-.16-.68-.19-1.66.36-2.71.5-.94,1.41-1.46,2.16-1.73,2.85,1.24,5.03,2.71,6.75,4.32-.68.07-1.57.32-2.37,1.07-.91.85-1.26,1.81-1.39,2.5ZM58.66,146.2c-.12-.29-.23-.57-.34-.85-.7-1.75-1.39-3.47-2.33-5.1.3-.64.82-1.47,1.63-2.05.98-.7,2.12-.69,2.91-.55,1.14,1.96,1.94,3.94,2.67,5.77.13.32.25.63.38.93-.63-.15-1.5-.24-2.4.09-1.2.44-2.03,1.2-2.52,1.75ZM61.21,151.43c.31-.67.9-1.59,1.97-2.27.81-.51,1.64-.7,2.24-.77,0,1.2,0,2.41.05,3.62-.08,1.3-.16,2.6-.24,3.91-1.74-1.34-3.01-2.88-4.02-4.49ZM64.35,197.75c.35-.54.91-.87,1.66-1,.2-.03.41-.05.62-.05,1.31,0,2.84.59,4.08,1.58,1.15.93,1.26,2.08.78,2.71-.36.47-1.33.58-2.07.42-2.51-.55-4.73-1.77-5.17-2.84-.12-.29-.09-.54.09-.82ZM67.68,193.62c1.35.63,3.99,1.31,9.13,1.65,6.65.44,10.01.07,11.6-.27l-.12,1.77s0,.1,0,.1l-.19,2.86c-.12.04-.25.07-.37.11-.33.08-.65.16-.99.23-.67.14-1.35.24-2.03.33-.68.08-1.37.15-2.06.19-.34.03-.69.03-1.04.05-.35.02-.69.02-1.04.02-.69.01-1.39,0-2.08-.02-.7,0-1.39-.07-2.09-.11-.69-.05-1.39-.13-2.08-.19l-1.08-.13c.02-1.01-.45-2.15-1.6-3.07-1.23-.99-2.69-1.63-4.08-1.83l.11-1.67ZM87.7,213.48c-.24.85-1.09,1.41-1.76,1.72-7.89,3.77-23.69,3.98-29.72,1.37-1.95-.84-3.22-1.98-3.77-3.4-.56-1.43-.24-2.8-.07-3.36,5.58-2,11.81,5.5,11.87,5.58.12.15.29.24.47.27,5.96.83,11.85.1,16.32-.64,3.18-.52,5.4-1.31,6.75-1.9l-.1.35ZM88.62,206.91c-.03,1.09-.12,2.18-.26,3.25-.05.38-.12.76-.19,1.14-.9.49-3.29,1.6-7.35,2.27-4.29.7-9.92,1.41-15.59.67-1.09-1.27-6.45-7.06-12.03-6.15,0-.02.02-.04.03-.05.56-1.03,1.31-1.97,2.12-2.85.83-.87,1.74-1.68,2.71-2.41.76-.59,1.55-1.13,2.36-1.67l-.08.59s.03.04.09.13c.05.07.14.15.25.23.11.08.26.12.43.15.17.04.36.09.57.15.42.11.9.27,1.41.44.51.17,1.05.36,1.58.59.54.2,1.07.43,1.55.66.49.23.95.44,1.32.65.19.1.37.19.52.28.15.09.28.17.42.19.27.05.5-.03.5-.03l.43-.63s-.02-.24-.19-.48c-.17-.24-.52-.41-.9-.66-.2-.12-.41-.26-.64-.39-.23-.13-.47-.28-.73-.4-.52-.26-1.08-.52-1.65-.76-.58-.22-1.16-.42-1.72-.59-.56-.16-1.08-.28-1.54-.37-.41-.07-.75-.17-1.02-.15.02-.01.04-.03.06-.04.65-.42,1.32-.83,1.98-1.23.92,1.65,3.66,2.9,6.08,3.44.31.07.65.11.99.11.98,0,1.99-.31,2.58-1.07.06-.08.11-.16.16-.24l1.32.17c.71.07,1.42.14,2.14.2.71.04,1.43.11,2.14.12.72.03,1.43.05,2.15.04.36,0,.72,0,1.08-.02.36-.02.72-.02,1.08-.04.72-.04,1.44-.1,2.16-.19.72-.09,1.44-.2,2.15-.34.36-.07.72-.16,1.08-.25.06-.02.11-.03.17-.05.27,1.85.37,3.73.32,5.61ZM88.51,193.44c-1.04.28-4.15.83-11.6.34-6.72-.44-8.62-1.44-9.09-1.79l.15-2.3c9.54.55,14.07-1.05,13.69-1.82-.39-.77-6.77-2.15-13.36-3.22l.14-2.19c2.39.59,5.44,1.07,9.15,1.43,1.66.16,3.25.23,4.75.23,2.59,0,4.91-.21,6.82-.55l-.65,9.87ZM92.83,180.98c-1.93.97-7.55,2.16-15.1,1.43M78.5,176.44c8.37.7,14.34-.78,14.59-.85M94.93,167.43c.06,0,.11,0,.17,0,.19,0,.38,0,.57,0M102.15,183.77c1.29.13,2.72.2,4.26.2,2.18,0,4.56-.14,7.02-.46,3.77-.5,6.92-1.08,9.38-1.74l.19,2.9c-6.59,1.07-12.97,2.44-13.36,3.22-.39.77,4.15,2.37,13.69,1.82l.15,2.3c-.47.35-2.37,1.35-9.09,1.79-7.45.49-10.56-.06-11.6-.35l-.63-9.68ZM123.72,195.3c-1.39.2-2.84.84-4.08,1.83-1.15.93-1.62,2.06-1.6,3.07l-1.08.13c-.69.06-1.39.13-2.08.19-.7.03-1.39.1-2.09.11-.7.02-1.39.04-2.08.02-.35,0-.69,0-1.04-.02-.35-.02-.69-.02-1.04-.05-.69-.04-1.38-.11-2.06-.19-.68-.09-1.36-.19-2.03-.33-.33-.07-.66-.15-.99-.23-.12-.03-.24-.07-.37-.11l-.19-2.86v-.1s-.12-1.77-.12-1.77c1.59.34,4.95.71,11.6.28,5.14-.34,7.78-1.01,9.13-1.65l.11,1.68ZM138.83,213.19c-.56,1.41-1.83,2.56-3.77,3.4-6.03,2.6-21.83,2.39-29.72-1.38-.72-.34-1.54-1.03-1.75-1.69l-.09-.46c1.3.63,3.49,1.46,6.73,1.99,4.47.73,10.36,1.47,16.32.64.19-.03.36-.12.47-.27.06-.08,6.29-7.59,11.87-5.58.18.56.5,1.93-.07,3.36ZM128.26,199.44c.66.4,1.33.81,1.98,1.23.02.01.04.03.06.04-.27-.02-.61.08-1.02.15-.45.09-.98.21-1.54.37-.55.17-1.14.36-1.72.58-.57.23-1.13.49-1.65.76-.26.12-.5.28-.73.4-.23.13-.45.26-.64.39-.39.26-.74.43-.91.66-.17.23-.19.48-.19.48l.43.63s.23.08.5.03c.14-.02.27-.09.42-.19.15-.09.33-.18.52-.28.38-.21.83-.42,1.32-.65.49-.23,1.01-.46,1.55-.66.53-.22,1.07-.42,1.58-.59.51-.17.99-.33,1.41-.44.21-.06.4-.11.57-.15.17-.04.32-.08.43-.15.11-.08.2-.16.25-.23.06-.08.09-.13.09-.13l-.08-.59c.8.53,1.59,1.08,2.35,1.66.97.73,1.88,1.54,2.7,2.41.81.88,1.56,1.82,2.12,2.84.01.02.02.05.04.07-5.58-.91-10.94,4.88-12.04,6.14-5.67.74-11.3.03-15.59-.67-4.1-.67-6.4-1.85-7.21-2.34-.06-.35-.11-.7-.15-1.06-.12-1.07-.2-2.16-.23-3.26-.06-1.87-.01-3.74.16-5.59.04.01.08.02.12.03.36.09.72.18,1.08.25.72.15,1.44.25,2.15.34.72.08,1.44.15,2.16.19.36.03.72.03,1.08.04.36.02.72.02,1.08.02.72,0,1.44,0,2.15-.03.72-.01,1.43-.08,2.14-.12.71-.06,1.42-.13,2.14-.2l1.32-.17c.05.08.11.16.16.24.59.77,1.6,1.07,2.58,1.07.34,0,.68-.04.99-.11,2.43-.53,5.17-1.79,6.08-3.43ZM124.66,196.71c.21,0,.42.02.62.05.75.12,1.31.46,1.66,1,.18.28.21.54.09.82-.44,1.07-2.66,2.29-5.17,2.84-.74.16-1.71.05-2.07-.42-.48-.62-.36-1.78.78-2.71,1.24-1,2.77-1.58,4.08-1.58ZM112.57,176.43,113.23,182.03,97.17,167.41c3-.07,5.88-.3,8.14-.7.7-.11,1.33-.25,1.9-.39.57-.13,1.06-.3,1.45-.48.39-.2.68-.38.86-.56.18-.16.27-.26.27-.26l-.39-.66s-.12,0-.32.04c-.2.04-.49.09-.86.16-.74.16-1.8.45-3.14.63-1.33.2-2.92.34-4.62.43-1.7.1-3.52.14-5.35.12-3.64,0-7.29-.23-9.97-.61-.67-.09-1.28-.2-1.8-.32-.53-.12-.98-.22-1.35-.29-.38-.07-.62-.08-.86-.13-.22-.04-.35-.04-.35-.04l-.34.68s.08.09.25.25c.14.14.49.36.88.54.39.18.88.34,1.45.46.56.13,1.2.26,1.9.38,2.36.41,5.4.66,8.53.75l-.62,4.59c-.11.11-.19.24-.22.4l-.33,1.86c-1.55.33-6.81,1.27-13.63.7M112.43,174.94c-9.68.9-13.19.11-14.05-.16M68.25,131.03c.72-4.49,1.98-8.4,3.22-11.45.13.28.29.53.46.77.8,1.08,2.02,1.72,3.73,1.95.37.05.72.07,1.07.07,1.34,0,2.49-.37,3.43-1.12,1.74-1.37,2.79-3.95,3.19-7.89.03-.32.07-.67.11-1.02,7.62-.38,15.39-.39,22.68,0,.04.36.08.71.12,1.03.41,3.94,1.45,6.52,3.19,7.89.94.74,2.09,1.12,3.43,1.12.34,0,.7-.02,1.07-.07,1.71-.23,2.93-.87,3.73-1.95.23-.31.43-.67.59-1.05,1.29,2.69,2.5,5.96,2.91,9.36M141.74,113.76l-.05.42-.02.19-.03.2c-.04.27-.09.53-.15.8-.23,1.05-.58,2.08-1.05,3.04-.47.97-1.06,1.87-1.76,2.69-1.4,1.63-3.21,2.9-5.23,3.72-1,.42-2.06.72-3.13.94-.27.06-.53.09-.8.14-.27.04-.59.09-.83.11-.52.05-1.05.07-1.58.03-1.88-.12-3.71-.84-5.33-1.9-.78-2.68-1.89-5.14-2.95-7.14.15-1.65,0-3.77-.47-6.58-.17-1.04-.41-2.15-.7-3.3.08.19.15.37.24.55.29.63.61,1.19.91,1.69.23.38.45.72.66,1.04.26,1.06.71,2.13,1.4,3.08.1.14.21.26.32.39.06.21.12.43.18.64.26.84.54,1.67.88,2.49.08.21.18.4.26.61.09.2.18.4.28.6.19.4.41.79.63,1.17.11.19.24.38.36.56.12.19.25.37.39.55.14.18.26.36.42.52l.46.49.59-.48-.31-.54c-.11-.17-.19-.37-.29-.55-.1-.18-.19-.37-.27-.56-.09-.19-.18-.37-.26-.57-.17-.38-.33-.77-.48-1.16-.16-.38-.3-.78-.45-1.17-.1-.28-.2-.56-.29-.84.16.09.32.19.5.27,2.46.98,5.14.86,7.63,0,2.47-.92,4.6-2.57,6.32-4.49.86-.96,1.63-1.98,2.35-3.04.26-.39.56-.84.81-1.29.19.61.36,1.22.49,1.85.23,1.07.37,2.16.4,3.24,0,.54,0,1.09-.06,1.59Z"/>
            <path d="M110.49,126.59h-31.74c-.44,0-.87.18-1.18.49-.31.32-.47.74-.46,1.17.31,11.34,6.99,18.39,17.44,18.39,10.45,0,17.19-7.04,17.58-18.38.02-.44-.15-.86-.46-1.18-.31-.32-.74-.5-1.18-.5ZM94.55,145.16c-9.55,0-15.66-6.49-15.95-16.94,0-.04.02-.08.04-.1.02-.02.05-.05.11-.05h31.74c.06,0,.09.03.11.05.02.02.04.05.04.1-.36,10.45-6.53,16.94-16.09,16.94Z"/>
            <path d="M75.14,44.25c-3.34,0-5.95,4.76-5.95,10.85,0,6.08,2.61,10.85,5.95,10.85,3.34,0,5.95-4.76,5.95-10.85,0-6.08-2.61-10.85-5.95-10.85ZM73.5,57.15c-1.12,0-2.03-1.66-2.03-3.71,0-2.05.91-3.71,2.03-3.71s2.03,1.66,2.03,3.71-.91,3.71-2.03,3.71Z"/>
            <path d="M114.95,65.66c3.34,0,5.95-4.76,5.95-10.85s-2.61-10.85-5.95-10.85c-3.34,0-5.95,4.76-5.95,10.85s2.61,10.85,5.95,10.85ZM113.76,49.75c1.12,0,2.03,1.66,2.03,3.71,0,2.05-.91,3.71-2.03,3.71s-2.03-1.66-2.03-3.71c0-2.05.91-3.71,2.03-3.71Z"/>
            <path d="M65.77,38.84s.04.09.07.14c.15.21.43.25.64.11,0,0,.06-.04.17-.12.1-.08.24-.21.38-.39.29-.35.55-.92,1-1.53.22-.31.47-.62.76-.95.28-.32.61-.63.95-.95.35-.3.72-.6,1.12-.86.2-.12.42-.28.61-.36.23-.12.48-.26.68-.33.2-.09.42-.18.65-.25.22-.09.45-.14.68-.19.46-.11.91-.15,1.35-.16.44,0,.87.02,1.26.11.4.07.76.2,1.09.32.16.07.31.15.45.21.14.08.27.16.39.23.23.17.43.3.61.41.19.09.34.17.47.22.12.04.2.06.2.06h.06s.09.02.13.02c.25-.03.43-.25.4-.5,0,0,0-.08-.05-.23-.05-.14-.12-.35-.28-.56-.15-.23-.4-.43-.69-.65-.15-.1-.32-.21-.49-.32-.18-.09-.37-.2-.57-.3-.41-.18-.87-.36-1.37-.47-.5-.13-1.04-.19-1.6-.2-.56,0-1.14.05-1.71.17-.28.06-.57.13-.85.23-.28.08-.56.19-.85.32-.3.12-.51.25-.75.38-.29.15-.5.31-.75.46-.47.32-.91.67-1.31,1.03-.79.74-1.4,1.53-1.87,2.23-.24.35-.43.69-.6.99-.17.3-.3.57-.36.82-.06.25-.07.45-.07.6,0,.15.03.23.03.23v.03Z"/>
            <path d="M110.66,34.71h0s.31-.08.69-.32c.19-.11.39-.28.64-.46.24-.18.53-.36.86-.53.66-.34,1.49-.61,2.4-.67.9-.07,1.87.09,2.76.49.11.05.21.1.32.14l.34.18c.21.14.42.26.62.4.4.29.77.61,1.1.95.34.33.65.69.92,1.04.27.35.51.7.72,1.03.21.33.38.65.53.93.14.29.27.53.41.72.14.19.27.33.37.43.11.09.17.14.17.14.04.04.1.07.15.08.24.07.49-.06.56-.29v-.03s.03-.08.04-.24c0-.15,0-.36-.04-.62-.1-.51-.45-1.15-.87-1.92-.22-.38-.47-.78-.77-1.19-.29-.41-.63-.83-1.02-1.24-.38-.41-.83-.79-1.3-1.15-.24-.18-.5-.33-.75-.5l-.39-.22c-.14-.07-.29-.15-.43-.21-1.13-.5-2.42-.7-3.58-.59-1.17.11-2.19.5-2.99.95-.4.22-.75.46-1.04.69-.29.23-.53.45-.69.68-.31.45-.33.81-.33.81,0,.05,0,.1.01.15.07.25.32.4.57.34Z"/>
            <path d="M77.28,74.53c0,3.28,1.09,8.35,4.12,12.77,2.35,3.42,6.66,7.51,13.81,7.51,13.39,0,17.93-13.92,17.94-20.27,0-2.95-1.74-3.82-3.63-4.32-2.03-.53-7.96-1-13.51-1.07v-1.56c1.52-.36,2.84-1.61,3.38-2.53.45-.77.35-1.28.18-1.57-.16-.28-.47-.49-.87-.65-.92-.37-2.32-.46-3.51-.46-.02,0-1.37,0-2.57.25-.75.15-1.45.4-1.73.8-.2.28-.35.79.07,1.59.47.91,1.8,2.3,3.56,2.61v1.52c-5.58.06-11.59.52-13.63,1.06-1.89.5-3.63,1.36-3.63,4.32ZM95.22,93.31c-3.8,0-6.71-1.27-8.91-2.95,1.36-1.62,4.65-4.83,9.29-4.8,4.24,0,7.58,2.64,9.21,4.25-2.27,1.94-5.39,3.5-9.59,3.5ZM92.26,64.26c.53-.19,1.85-.39,2.95-.39,1.32,0,2.5.17,2.97.34-.3.63-1.66,1.99-2.97,2-1.47-.01-2.69-1.35-2.96-1.95ZM95.22,70.63c5.56.03,11.94.5,13.94,1.02,1.71.45,2.52.99,2.52,2.87,0,2.91-1.02,7.79-3.87,11.92-.53.77-1.16,1.57-1.91,2.34-1.78-1.76-5.49-4.72-10.29-4.72h-.05c-5.24,0-8.88,3.53-10.38,5.33-1.03-.96-1.87-1.98-2.54-2.95-2.84-4.14-3.86-9.01-3.86-11.93,0-1.88.81-2.42,2.52-2.87,2-.52,8.38-.99,13.93-1.02Z"/>
          </g>
          <g>
            <path class="cls-3" d="M78.69,93.97l-.54,3.35s6.23,3.43,16.8,3.43c10.57,0,17.01-4.08,17.01-4.08l-1.08-2.78s-4.04,1.99-15.32,2.36c-11.29.37-16.87-2.29-16.87-2.29Z"/>
            <path d="M94.96,101.49c-10.64,0-16.9-3.38-17.16-3.53-.28-.15-.43-.46-.38-.77l.54-3.35c.04-.23.18-.43.39-.54.21-.11.45-.11.67-.01.06.03,5.6,2.58,16.53,2.22,11-.36,14.98-2.27,15.02-2.29.19-.09.4-.1.6-.03.19.08.35.23.42.42l1.08,2.78c.13.33,0,.71-.3.9-.27.17-6.75,4.2-17.41,4.19ZM78.98,96.89c1.61.75,7.35,3.11,15.98,3.11,8.52,0,14.36-2.74,16.08-3.66l-.58-1.48c-1.64.59-6.1,1.85-14.88,2.14-8.89.29-14.28-1.26-16.31-1.99l-.3,1.89Z"/>
          </g>
          <g>
            <path class="cls-10" d="M65.83,148.85l-.87,32.66s2.98,2.06,13.93,2.13c11.2.08,14.76-.79,14.76-.79,0,0,.91-18.74,1.94-18.74s1.11,18.27,1.54,18.66c.42.4,8.06,1.11,15.27.91,7.21-.2,13.04-2.34,13.12-2.89.09-.55-2.41-31-2.41-31"/>
            <path d="M110.13,184.46c-5.48,0-12.74-.43-13.5-1.14-.34-.32-.39-.36-.65-6.89-.1-2.54-.25-6.15-.45-8.73-.42,3.56-.85,9.57-1.13,15.19-.02.33-.25.61-.57.69-.15.04-3.78.89-14.94.81-11.05-.07-14.22-2.18-14.35-2.27-.21-.14-.33-.38-.32-.63l.87-32.66,1.49.04-.85,32.2c1.03.47,4.62,1.77,13.18,1.83,8.6.06,12.68-.45,14.04-.67.94-18.86,1.85-18.86,2.66-18.86,1.09,0,1.37.48,1.87,13,.09,2.33.2,4.94.3,5.84,1.54.34,8.21.91,14.61.73,6.43-.18,11.35-1.86,12.39-2.46-.12-2.44-1.47-19.3-2.4-30.62l1.48-.12c.93,11.4,2.49,30.62,2.4,31.17-.23,1.48-7.6,3.35-13.84,3.52-.71.02-1.48.03-2.29.03ZM124.93,180.37h0Z"/>
          </g>
          <path d="M65.81,158.95c-.13,0-.22,0-.25,0l.04-1.49c.08,0,8.27.17,12.33-4.85l1.16.94c-4.16,5.14-11.78,5.4-13.28,5.4Z"/>
          <path d="M95.39,164.98c-.07,0-.15,0-.22,0-3.44-.27-3.52-8.53-3.51-10.18l1.49.02c-.04,3.57.68,8.57,2.13,8.68.36.03.63-.08.89-.34,1.27-1.3,1.31-5.76,1.05-8.27l1.48-.16c.08.73.7,7.24-1.46,9.46-.51.52-1.14.8-1.85.79Z"/>
          <path d="M121.3,159.62c-8.13,0-10.62-5.77-10.64-5.83l1.38-.57c.1.24,2.64,5.98,11.7,4.74l.2,1.48c-.94.13-1.82.19-2.64.19Z"/>
          <g>
            <path class="cls-13" d="M80.57,98.83l-4.39-2.09s-4.98,18.16-7.14,27.22c-2.25,9.44-4.07,24.5-4.07,24.5,11.04,3.52,22.03,6.15,30.26,6.34,19.83.46,29.31-5.28,29.31-5.28,0,0-.7-12.9-3.65-25.7-2.18-9.45-1.15-9.69-7.21-27.59l-5.61,3.22"/>
            <path d="M97.47,155.57c-.74,0-1.49,0-2.26-.03-7.5-.17-17.75-2.32-30.47-6.38-.34-.11-.56-.44-.51-.8.02-.15,1.85-15.22,4.09-24.59,2.14-8.97,7.1-27.06,7.15-27.24.06-.21.21-.39.41-.48.2-.09.43-.09.63,0l4.39,2.09-.64,1.35-3.59-1.7c-1.01,3.71-5.03,18.51-6.9,26.34-1.96,8.22-3.61,20.89-3.98,23.81,12.14,3.84,22.32,5.96,29.46,6.12,17.19.39,26.56-3.94,28.52-4.96-.16-2.42-1.01-13.87-3.6-25.11-.62-2.67-.97-4.58-1.31-6.42-.84-4.53-1.51-8.12-5.59-20.25l-4.82,2.77-.74-1.29,5.61-3.22c.19-.11.43-.13.63-.05.21.08.37.25.44.46,4.37,12.92,5.06,16.62,5.94,21.31.34,1.83.69,3.71,1.3,6.36,2.93,12.72,3.66,25.7,3.66,25.83.01.27-.12.53-.36.68-.38.23-9.17,5.42-27.45,5.42Z"/>
          </g>
          <g>
            <path class="cls-13" d="M108.16,124.51c-10.48,0-7.68-14.12-7.68-14.12h15.1s3.02,14.12-7.42,14.12Z"/>
            <path d="M108.16,125.26c-2.77,0-4.93-.93-6.44-2.75-3.51-4.27-2.04-11.93-1.98-12.26.07-.35.38-.6.73-.6h15.1c.35,0,.65.25.73.59.07.33,1.66,8.02-1.79,12.29-1.47,1.81-3.61,2.73-6.36,2.73ZM101.11,111.13c-.26,1.82-.78,7.33,1.77,10.43,1.2,1.46,2.98,2.21,5.28,2.21,2.28,0,4.03-.73,5.2-2.18,2.51-3.09,1.89-8.64,1.6-10.45h-13.85Z"/>
          </g>
          <g>
            <path class="cls-13" d="M77.12,91.77s-1.65,2.87-1.36,4.02c.99,3.93,12.69,7.36,19.75,7.32,12.55-.07,18.43-5.21,18.43-7.35,0-.98-1.29-3.15-1.29-3.15,0,0-3.06,6.73-17.13,6.72-15.2,0-18.39-7.56-18.39-7.56Z"/>
            <path d="M95.4,103.85c-6.52,0-19.19-3.22-20.37-7.89-.33-1.33,1.02-3.83,1.44-4.57.14-.25.41-.39.69-.37.28.02.53.19.64.45.05.11,3.31,7.1,17.71,7.11,13.34,0,16.43-6.23,16.46-6.29.12-.25.36-.42.64-.43.28-.01.54.12.68.36.23.39,1.4,2.4,1.4,3.53,0,2.79-6.58,8.03-19.17,8.1-.04,0-.08,0-.11,0ZM77.17,93.29c-.46.98-.78,1.95-.69,2.32.83,3.31,11.88,6.79,19.03,6.76,12.37-.07,17.69-5.04,17.69-6.61,0-.33-.28-1.03-.61-1.7-1.59,2.03-6.11,6.02-17.07,6.01-11.91,0-16.7-4.53-18.34-6.78Z"/>
          </g>
          <g>
            <g>
              <g>
                <g>
                  <path class="cls-3" d="M78.54,30.11c-.37,8.72-9.87,15.08-18.04,13.21-5.38-1.23-9.58-5.75-10.18-11.27-.97-8.79,8.05-17.96,17.11-16.11,6.24,1.27,11.4,7.48,11.12,14.16Z"/>
                  <path class="cls-9" d="M63.44,44.39c-1.05,0-2.09-.11-3.11-.34-5.8-1.32-10.12-6.11-10.76-11.91-.5-4.54,1.57-9.52,5.4-13.01,3.69-3.36,8.28-4.79,12.6-3.9,6.75,1.38,12,8.07,11.71,14.92h0c-.17,4.12-2.34,8.06-5.94,10.81-2.93,2.24-6.47,3.44-9.91,3.44ZM65.04,16.45c-3.16,0-6.37,1.31-9.06,3.77-3.48,3.18-5.37,7.68-4.92,11.75.57,5.17,4.43,9.44,9.61,10.62,3.89.89,8.29-.17,11.78-2.83,3.25-2.48,5.2-6.01,5.36-9.69h0c.26-6.15-4.46-12.16-10.52-13.4-.74-.15-1.49-.23-2.24-.23ZM78.54,30.11h0s0,0,0,0Z"/>
                </g>
                <g>
                  <path class="cls-6" d="M70.35,29.86c-.16,3.67-4.15,6.35-7.6,5.56-2.27-.52-4.03-2.42-4.29-4.74-.41-3.7,3.39-7.56,7.2-6.78,2.63.54,4.8,3.15,4.68,5.96Z"/>
                  <path class="cls-9" d="M63.99,36.31c-.47,0-.94-.05-1.4-.16-2.62-.6-4.57-2.76-4.86-5.39-.22-2.04.7-4.28,2.41-5.84,1.66-1.51,3.73-2.15,5.68-1.75,3.04.62,5.4,3.64,5.27,6.72h0c-.08,1.86-1.05,3.64-2.67,4.87-1.31,1-2.89,1.54-4.43,1.54ZM64.67,24.54c-1.22,0-2.47.51-3.53,1.47-1.37,1.25-2.11,3-1.93,4.58.22,1.96,1.74,3.65,3.71,4.1,1.51.35,3.23-.07,4.6-1.11,1.27-.97,2.03-2.33,2.09-3.75.1-2.39-1.73-4.72-4.08-5.2-.28-.06-.57-.09-.86-.09ZM70.35,29.86h0s0,0,0,0Z"/>
                </g>
              </g>
              <g>
                <g>
                  <path class="cls-3" d="M111.9,30.11c.37,8.72,9.86,15.08,18.04,13.22,5.38-1.23,9.58-5.75,10.19-11.26.97-8.79-8.05-17.96-17.11-16.11-6.24,1.27-11.4,7.48-11.12,14.16Z"/>
                  <path class="cls-9" d="M127,44.4c-3.43,0-6.97-1.21-9.91-3.45-3.6-2.75-5.76-6.69-5.94-10.81h0c-.29-6.85,4.97-13.54,11.71-14.92,4.32-.88,8.92.54,12.6,3.91,3.83,3.49,5.89,8.48,5.39,13.01-.64,5.8-4.97,10.58-10.76,11.91-1.01.23-2.05.34-3.11.34ZM125.4,16.46c-.75,0-1.5.07-2.24.22-6.06,1.24-10.78,7.25-10.52,13.4h0c.15,3.68,2.11,7.21,5.35,9.69,3.49,2.66,7.89,3.72,11.78,2.83,5.18-1.18,9.04-5.45,9.61-10.62.45-4.07-1.43-8.57-4.92-11.75-2.69-2.46-5.9-3.77-9.06-3.77Z"/>
                </g>
                <g>
                  <path class="cls-6" d="M120.09,29.87c.15,3.67,4.15,6.35,7.59,5.56,2.27-.52,4.03-2.42,4.29-4.74.41-3.7-3.39-7.56-7.2-6.78-2.63.54-4.8,3.15-4.68,5.96Z"/>
                  <path class="cls-9" d="M126.44,36.31c-1.54,0-3.12-.54-4.43-1.54-1.62-1.24-2.59-3.01-2.67-4.87h0c-.13-3.09,2.24-6.1,5.28-6.72,1.96-.4,4.03.24,5.68,1.75,1.71,1.56,2.63,3.8,2.41,5.85-.29,2.62-2.24,4.79-4.86,5.39-.46.1-.93.15-1.4.15ZM120.83,29.84c.06,1.42.82,2.79,2.08,3.75,1.37,1.04,3.09,1.46,4.6,1.12,1.97-.45,3.5-2.13,3.71-4.1.17-1.58-.57-3.33-1.93-4.58-1.3-1.19-2.9-1.69-4.38-1.39-2.35.48-4.19,2.81-4.09,5.2h0Z"/>
                </g>
              </g>
            </g>
            <path class="cls-3" d="M136.63,58.49c0,22.92-15.74,38.56-41.42,38.56-25.68,0-41.41-15.65-41.41-38.57,0-22.92,16.33-39.99,41.42-39.99,25.09,0,41.41,17.07,41.41,40Z"/>
            <path class="cls-6" d="M95.21,97.05c13.79,0,24.71-4.51,31.87-12.23,0-.04,0-.07,0-.08-.63-3.43-2.22-6.02-3.47-7.95-2.09-3.24-5.51-6.61-11.21-9.7-5.69-3.08-13.97-4.73-17.18-4.75-3.2.01-11.49,1.67-17.18,4.74-5.7,3.08-9.13,6.46-11.21,9.69-1.2,1.86-2.57,5.85-3.24,8.27,0,0,0,0,0,.01,7.16,7.57,17.99,11.99,31.63,11.99Z"/>
            <path class="cls-3" d="M66.82,76.77c2.09-3.24,5.51-6.61,11.21-9.69,5.69-3.08,13.97-4.73,17.18-4.74,3.2.01,11.49,1.67,17.18,4.75,5.7,3.08,9.12,6.46,11.21,9.7,1.25,1.93,2.83,4.52,3.47,7.95,0,.01,0,.05,0,.08,6.17-6.66,9.55-15.71,9.55-26.33,0-22.92-16.32-39.99-41.41-40-25.09,0-41.41,17.06-41.42,39.99,0,10.75,3.46,19.89,9.77,26.58,0,0,0-.01,0-.01.67-2.42,2.05-6.41,3.24-8.27Z"/>
            <g>
              <path d="M95.52,36.75c3.06,0,4.18-13.59,4.46-18.1-1.46-.09-2.95-.15-4.47-.15s-2.99.06-4.44.15c.27,4.51,1.39,18.11,4.45,18.11Z"/>
              <path class="cls-9" d="M95.23,24.8c7.8,0,13.43-.46,15.12-.75,1.69-.29.97-1.28-1.69-2.26-2.66-.99-7.81-2.03-13.43-2.03-5.62,0-10.82,1.04-13.48,2.03-2.66.99-3.39,1.97-1.69,2.26,1.69.29,7.37.76,15.17.76Z"/>
              <path class="cls-9" d="M95.27,32.23c4.99,0,8.6-1.07,9.66-1.69.99-.58.37-1.28-1.33-2.28-1.7-.99-4.73-2.04-8.32-2.04-3.6,0-6.62,1.05-8.32,2.04-1.7.99-2.32,1.7-1.33,2.28,1.05.62,4.67,1.69,9.66,1.69Z"/>
            </g>
            <g>
              <path d="M60.13,50.17c-.07-.76-2.57-2.15-5.1-2.56-.3,1.32-.86,3.68-1.04,5.07,2.99-.67,6.23-1.64,6.14-2.51Z"/>
              <path d="M60.25,64.6c-.48-.6-3.54-.59-6.12-.15.22,1.55.82,3.9,1.19,5.36,2.87-2.43,5.49-4.51,4.93-5.21Z"/>
            </g>
            <g>
              <path d="M130.9,50.03c-.08.87,2.2,1.67,5.19,2.34-.18-1.38-.16-3.13-.47-4.45-2.53.4-4.65,1.35-4.72,2.11Z"/>
              <path d="M131.07,64.91c-.56.7,1.33,2.05,4.2,4.47.38-1.46,1.02-3.52,1.24-5.07-2.58-.45-4.96,0-5.44.59Z"/>
            </g>
            <path class="cls-9" d="M95.21,97.79c-25.61,0-42.15-15.44-42.15-39.32,0-23.98,17.34-40.73,42.16-40.73s42.15,16.76,42.15,40.74c0,23.88-16.55,39.31-42.16,39.3ZM95.22,19.24c-23.94,0-40.67,16.13-40.67,39.24,0,22.98,15.96,37.82,40.66,37.83,24.7,0,40.67-14.84,40.67-37.82,0-23.11-16.72-39.25-40.66-39.25Z"/>
            <g>
              <g>
                <g>
                  <path class="cls-9" d="M80.57,55c0,5.58-2.33,10.1-5.21,10.1-2.87,0-5.2-4.52-5.2-10.1,0-5.58,2.33-10.1,5.21-10.1,2.87,0,5.2,4.52,5.2,10.1Z"/>
                  <path class="cls-9" d="M75.36,65.85c-3.34,0-5.95-4.77-5.95-10.85,0-6.08,2.61-10.85,5.95-10.85s5.95,4.77,5.95,10.85c0,6.08-2.61,10.85-5.95,10.85ZM75.37,45.64c-2.42,0-4.46,4.28-4.46,9.36,0,5.07,2.04,9.36,4.46,9.36,2.42,0,4.46-4.29,4.46-9.36,0-5.07-2.04-9.36-4.46-9.36Z"/>
                </g>
                <path class="cls-6" d="M75.75,53.34c0,2.05-.91,3.71-2.03,3.71s-2.03-1.66-2.03-3.71c0-2.05.91-3.71,2.03-3.71s2.03,1.66,2.03,3.71Z"/>
              </g>
              <g>
                <g>
                  <path class="cls-9" d="M120.38,54.71c0,5.58-2.33,10.1-5.21,10.1-2.87,0-5.2-4.52-5.2-10.1,0-5.58,2.33-10.1,5.21-10.1,2.87,0,5.2,4.52,5.2,10.1Z"/>
                  <path class="cls-9" d="M115.17,65.55c-3.34,0-5.95-4.77-5.95-10.85s2.61-10.85,5.95-10.85c3.34,0,5.95,4.77,5.95,10.85s-2.61,10.85-5.95,10.85ZM115.17,45.35c-2.42,0-4.46,4.28-4.46,9.36,0,5.07,2.04,9.36,4.46,9.36,2.42,0,4.46-4.29,4.46-9.36s-2.04-9.36-4.46-9.36Z"/>
                </g>
                <path class="cls-6" d="M116,53.35c0,2.05-.91,3.71-2.03,3.71s-2.03-1.66-2.03-3.71c0-2.05.91-3.71,2.03-3.71s2.03,1.66,2.03,3.71Z"/>
              </g>
            </g>
            <path class="cls-9" d="M95.51,83.3c-.41,0-.74-.33-.74-.74v-17.07c0-.41.34-.74.75-.74s.74.33.74.74v17.07c0,.41-.34.74-.75.74Z"/>
            <g>
              <path class="cls-9" d="M65.98,38.71c-.14-.89.33-1.52.7-2.17,1.19-1.96,2.88-3.65,5-4.59,2.15-.96,4.81-.98,6.88.24.67.4,1.42.88,1.56,1.78.06.33-.29.6-.6.48-.75-.21-1.13-.64-1.7-.93-1.68-.88-3.74-.81-5.47-.02-1.79.76-3.3,2.23-4.39,3.85-.39.57-.63,1.23-1.32,1.65-.25.17-.62,0-.66-.3h0Z"/>
              <path class="cls-9" d="M123.74,39.1c-.64-.5-.84-1.17-1.21-1.77-.68-1.2-1.56-2.29-2.6-3.17-2.01-1.74-5.01-2.07-7.27-.62-.59.34-.98.83-1.76,1.06-.31.13-.66-.15-.6-.48.15-.92.88-1.41,1.54-1.86.68-.45,1.43-.8,2.22-1.02,3.22-1.01,6.71.79,8.56,3.39.48.63.89,1.29,1.25,1.98.34.69.76,1.37.6,2.27-.05.34-.49.46-.73.23h0Z"/>
            </g>
            <path class="cls-9" d="M51.19,73.57c.87-.52,1.87-.41,2.82-.58,1.91-.21,3.84-.27,5.75-.1.38.03,3.69.31,2.74.99-.51.14-.95-.01-1.41-.05-2.79-.34-5.62-.2-8.41.1-.29.04-1.96.31-1.49-.36h0Z"/>
            <path class="cls-9" d="M62.9,76.56c-.37.36-.83.45-1.27.62-1.28.46-2.67.98-3.91,1.51-1.3.52-2.58,1.06-3.82,1.68-.42.19-.8.47-1.32.49-.17.01-.29-.2-.19-.34.3-.43.74-.62,1.16-.84,1.25-.66,2.55-1.25,3.85-1.8,1.27-.5,2.69-1,3.99-1.44.27-.12,1.9-.63,1.52.11h0Z"/>
            <path class="cls-9" d="M139.03,73.89c-.45.2-.88.12-1.32.12-2.63-.05-5.26.05-7.88.33-.28.05-1.88.25-1.39-.39.81-.48,1.74-.38,2.62-.54.56-.12,9.24-.7,7.97.48h0Z"/>
            <path class="cls-9" d="M127.94,76.05c.52-.05.92.17,1.35.33,1.25.5,2.6,1.05,3.82,1.6,1.25.59,2.49,1.2,3.71,1.87.28.16,1.47.72,1.06,1.14-.53.14-1-.27-1.43-.46-1.21-.63-2.45-1.21-3.7-1.77-1.19-.56-2.53-1.15-3.76-1.67-.27-.1-1.8-.71-1.06-1.05h0Z"/>
            <g>
              <path class="cls-1" d="M95.44,63.02c1.16,0,3.4.15,3.73.73.37.67-1.69,3.08-3.73,3.1-2.24-.02-4.12-2.47-3.69-3.1.33-.48,2.53-.73,3.69-.73Z"/>
              <path class="cls-9" d="M95.45,67.6c-2.09-.02-3.71-1.65-4.24-2.68-.41-.8-.26-1.31-.07-1.59.72-1.04,4.27-1.05,4.3-1.05,1.71,0,3.86.19,4.38,1.12.16.29.26.8-.18,1.57-.63,1.08-2.34,2.62-4.19,2.64ZM92.48,64.16c.27.6,1.49,1.94,2.96,1.95,1.31-.01,2.67-1.37,2.97-2-.47-.18-1.65-.34-2.97-.34-1.1,0-2.43.2-2.95.39ZM92.3,64.24h0ZM98.58,64.19h0Z"/>
            </g>
            <path class="cls-12" d="M95.45,93.95c12.29,0,17.18-12.64,17.2-19.53,0-2.35-1.21-3.11-3.07-3.59-2.1-.55-8.57-1.02-14.12-1.05-5.56.03-12.03.49-14.12,1.05-1.86.49-3.08,1.24-3.07,3.59.01,6.88,4.9,19.53,17.19,19.53Z"/>
            <path class="cls-12" d="M95.45,93.95c12.29,0,17.18-12.64,17.2-19.53,0-2.35-1.21-3.11-3.07-3.59-2.1-.55-8.57-1.02-14.12-1.05-5.56.03-12.03.49-14.12,1.05-1.86.49-3.08,1.24-3.07,3.59.01,6.88,4.9,19.53,17.19,19.53Z"/>
            <path class="cls-4" d="M95.78,84.72c-4.95,0-8.58,3.38-10.29,5.66,0,0,0,0,0,0,2.55,2.15,5.84,3.57,9.95,3.57,4.51,0,8.03-1.7,10.67-4.2,0,0,0,0,0,0-2.05-2.21-5.77-5.05-10.33-5.03Z"/>
            <path class="cls-9" d="M85.49,91.12c-.16,0-.31-.05-.45-.15-.33-.25-.4-.71-.15-1.04,1.05-1.4,4.93-5.95,10.88-5.95h.05c5.36,0,9.36,3.68,10.84,5.27.28.3.26.77-.04,1.05-.3.28-.77.26-1.05-.04-1.34-1.44-4.97-4.8-9.75-4.8h-.05c-5.26,0-8.75,4.1-9.69,5.36-.15.2-.37.3-.6.3Z"/>
            <path class="cls-9" d="M95.45,94.7c-7.16,0-11.46-4.08-13.81-7.51-3.03-4.42-4.12-9.49-4.12-12.77,0-2.95,1.74-3.82,3.63-4.32,2.13-.56,8.55-1.04,14.31-1.07,5.77.03,12.19.51,14.32,1.07,1.89.5,3.63,1.36,3.63,4.32-.02,6.35-4.56,20.27-17.94,20.27ZM95.44,70.53c-5.55.03-11.94.5-13.93,1.02-1.71.45-2.52.99-2.52,2.87,0,2.91,1.02,7.79,3.86,11.93,2.15,3.13,6.08,6.86,12.59,6.86,6.51,0,10.44-3.73,12.59-6.86,2.84-4.14,3.86-9.01,3.87-11.92,0-1.88-.81-2.42-2.52-2.87-2-.53-8.38-.99-13.94-1.02Z"/>
          </g>
        </g>
      </g>
    </g>
  </g>
  <g id="list-type">
    <g>
      <g>
        <path class="cls-7" d="M34.15,188.28c-3.98,0-7.23-3.15-7.23-7.01,0-1.88.69-3.01,1.49-4.31.92-1.5,1.3-4.12,1.3-9.02v-5.47c0-5.18,2.85-8.03,8.03-8.03h12.07c5.18,0,8.03,2.86,8.03,8.03v16.6c0,5.9-3.31,8.89-9.84,8.89-1.82,0-3.72-.13-5.41-1.1-.66-.38-1.57-1.05-2.26-2.14-1.95,3.09-4.68,3.56-6.18,3.56Z"/>
        <path class="cls-7" d="M63.86,188.52c-2.2,0-3.67-.79-4.52-1.46-1.53-1.21-2.41-3.05-2.41-5.07v-5.06c-3.04-.63-5.12-3.28-5.12-6.76,0-2.05.71-3.81,1.91-5.04-.72-1.11-1.13-2.48-1.13-4.02,0-3.97,2.71-6.85,6.45-6.85h9.47c1.1,0,2.1.25,2.98.69.55-.12,1.13-.18,1.74-.18.5,0,.99.04,1.45.12,1.18-.89,2.71-1.41,4.45-1.41,2.22,0,3.71.82,4.57,1.51,1.5,1.21,2.36,3.05,2.36,5.04v19.36c0,5.83-3.17,8.78-9.43,8.78h0c-1.22,0-2.74,0-4.28-.6-1.08-.42-1.98-1.06-2.67-1.88-1.2,1.74-3.29,2.83-5.82,2.83Z"/>
        <path class="cls-7" d="M102.88,188.5c-2.16,0-3.8-.15-5.29-.87-.45-.22-1.16-.64-1.82-1.33-1.25,1.37-3.1,2.2-5.25,2.2-4.64,0-7.06-3.3-7.06-6.56v-3.38c-2.82-.9-4.88-3.65-4.88-6.89,0-2,.67-3.41,1.51-4.4-.62-.84-1.32-2.24-1.32-4.29,0-3.92,2.69-6.77,6.39-6.77h3.58c.99-1.71,2.57-3.05,5.56-3.05,3.44,0,5.38,1.41,6.39,3.06h6.81c3.72,0,6.42,2.85,6.42,6.77,0,2.45-1.05,4.49-2.74,5.67,0,.04,0,11.41,0,11.41,0,5.36-3.03,8.43-8.3,8.43h0Z"/>
        <path class="cls-7" d="M130.63,189.12c-1.69,0-3.54-.51-4.9-1.76-2.31.15-3.87.2-5.92.27h-.41c-1.16.06-5.51.2-6.21.2-4.7,0-6.8-3.27-6.8-6.5,0-.79.14-2.49,1.2-3.95-.98-1.09-1.57-2.56-1.6-4.23-.31-.75-.48-1.56-.48-2.38,0-1.34.47-2.43.9-3.25.36-.72.36-.81.36-.98.02-.64.1-1.23.22-1.76-.06-.26-.11-.53-.15-.8-.66-.99-1.04-2.21-1.04-3.56,0-3.44,2.6-6.13,5.91-6.13h2.3c1.03-.56,2.24-.86,3.55-.86s2.56.3,3.59.86h1.64c.43,0,.84.04,1.24.12.96-.35,2.08-.53,3.37-.53h3.43c2.1,0,3.62.62,4.69,1.56,3.06.39,5.35,2.8,5.35,5.8,0,.6-.1,3.06-1.57,5.08,1.04,1.17,1.46,2.61,1.46,3.92,0,.72-.12,1.43-.35,2.11.02.21.03.42.03.63,0,1.5-.45,2.84-1.22,3.9.55.98.84,2.12.84,3.34,0,1.69-.52,4.26-3.37,5.62-1.15,2-3.36,3.26-6.08,3.26Z"/>
        <path class="cls-7" d="M142.24,187.94c-4.69,0-7.49-2.81-7.49-7.52v-2.7c-1.5-1.14-2.44-3-2.44-5.19,0-1.64.54-3.11,1.45-4.21-1.02-1.11-1.64-2.63-1.64-4.37,0-2.13.93-3.95,2.41-5.07.78-2.4,2.92-4.04,5.57-4.04h5.26c1.19-.9,2.73-1.42,4.44-1.42s3.25.52,4.43,1.42h3.32c2.79,0,4.87.95,6.19,2.81.13.18.25.37.35.55,2.15.93,3.58,3.09,3.58,5.74,0,1.6-.52,3.03-1.41,4.11.05.25.09.5.12.76.69,1.03,1.08,2.3,1.08,3.71,0,2.28-1.03,4.22-2.65,5.34v2.54c0,4.71-2.81,7.52-7.52,7.52,0,0-15.04,0-15.04,0Z"/>
      </g>
      <path class="cls-11" d="M167.33,162.34c.85-1.2,1.35-2.71,1.35-4.38,0-2.95-1.54-5.39-3.89-6.53-.07-.11-.15-.23-.23-.34-1.04-1.47-3.11-3.23-7.01-3.23h-2.99c-1.31-.9-2.95-1.42-4.77-1.42s-3.46.52-4.78,1.42h-4.93c-1.2,0-2.3.31-3.28.84-.29-.08-.58-.16-.88-.2-1.24-.99-2.92-1.61-5.09-1.61h-3.43c-1.36,0-2.5.18-3.46.5-.37-.06-.76-.09-1.15-.09h-1.38c-1.12-.56-2.43-.86-3.85-.86s-2.68.3-3.8.86h-2.05c-1.87,0-3.53.73-4.77,1.93h-5.76c-1.32-1.77-3.6-3.06-6.92-3.06-3.14,0-4.95,1.35-6.1,3.05h-2.87c-.3-.36-.63-.7-1-1-.98-.79-2.68-1.74-5.19-1.74-1.77,0-3.38.5-4.67,1.37-.4-.05-.81-.08-1.23-.08-.56,0-1.1.05-1.62.15-.93-.42-1.98-.66-3.1-.66h-9.47c-1.6,0-3.05.48-4.24,1.32-1.36-.74-3.02-1.13-4.99-1.13h-12.07c-5.74,0-9.03,3.29-9.03,9.03v5.47c0,4.64-.35,7.18-1.15,8.49-.81,1.31-1.64,2.67-1.64,4.83,0,4.42,3.69,8.01,8.23,8.01,1.5,0,4.1-.42,6.21-2.91.64.68,1.3,1.12,1.73,1.37,1.9,1.08,4.04,1.23,5.91,1.23,4.59,0,7.27-1.47,8.82-3.4.47.88,1.11,1.66,1.91,2.29.97.76,2.65,1.67,5.14,1.67s4.45-.89,5.88-2.37c.65.56,1.4,1.02,2.24,1.35,1.71.67,3.4.67,4.64.67h0c2.23,0,5.33-.43,7.57-2.39,1.35,1.61,3.46,2.72,6.32,2.72,2.06,0,3.89-.68,5.27-1.83.52.41,1.01.69,1.37.86,1.66.81,3.42.97,5.73.97h0c2.45,0,4.47-.63,6-1.79,1.21.71,2.67,1.12,4.32,1.12.7,0,5.08-.14,6.24-.19h.41c1.94-.08,3.44-.13,5.55-.26,1.46,1.18,3.35,1.74,5.23,1.74,2.58,0,4.8-1.06,6.23-2.77,1.4,1.03,3.22,1.59,5.38,1.59,0,0,15.04,0,15.04,0,5.25,0,8.52-3.26,8.52-8.52v-2.03c1.64-1.33,2.66-3.42,2.66-5.85,0-1.53-.41-2.92-1.12-4.08,0-.04-.01-.08-.02-.12Z"/>
      <g>
        <path class="cls-6" d="M48.9,169.37h-10.67c-.38,2.63-1.05,4.77-2.01,6.49-.56.99-1.18,1.42-2.06,1.42-1.18,0-2.23-.94-2.23-2.01,0-.46.11-.64.75-1.69,1.48-2.41,2.04-5.58,2.04-11.64v-5.47c0-2.41.62-3.03,3.03-3.03h12.07c2.41,0,3.03.62,3.03,3.03v16.6c0,3.65-2.01,3.89-4.86,3.89-2.87,0-3.7-.48-3.7-2.09,0-1.15.56-1.85,1.53-1.85.32,0,1.93.11,2.28.11.62,0,.8-.27.8-1.1v-2.65ZM48.9,165.97v-2.79s-10.27,0-10.27,0c0,.83-.03,1.9-.11,2.79h10.38ZM48.9,159.77v-2.04c0-.43-.16-.59-.59-.59h-9.09c-.43,0-.59.16-.59.59v2.04s10.27,0,10.27,0Z"/>
        <path class="cls-6" d="M65.79,156.93v5.31s3.35,0,3.35,0c.99,0,1.55.67,1.55,1.93s-.56,1.9-1.56,1.9h-3.35s0,9.92,0,9.92c0,.97-.7,1.53-1.93,1.53s-1.93-.54-1.93-1.53v-9.92s-3.59,0-3.59,0c-.99,0-1.53-.7-1.53-1.9s.54-1.93,1.53-1.93h3.59s0-5.31,0-5.31h-2.9c-.94,0-1.45-.64-1.45-1.82,0-1.18.51-1.85,1.45-1.85h9.47c.94,0,1.47.67,1.47,1.85s-.54,1.82-1.47,1.82h-2.71ZM71.32,155.27c0-.97.67-1.5,1.9-1.5s1.9.54,1.9,1.5v14.56c0,.99-.67,1.53-1.91,1.53s-1.9-.54-1.9-1.53v-14.56ZM77.19,154.04c0-.99.7-1.56,1.93-1.55,1.23,0,1.93.56,1.93,1.56v19.36c0,2.98-.94,3.78-4.43,3.78-1.88,0-3.51-.03-3.51-1.98,0-1.18.64-2.04,1.53-2.04.27,0,1.74.13,1.93.13.48,0,.62-.21.62-.94v-18.31Z"/>
        <path class="cls-6" d="M95.1,158.78l-.83,1.56h9.33c1.98,0,2.57.54,2.57,2.44v11.29c0,2.57-.83,3.43-3.3,3.43-3.14,0-3.86-.35-3.86-1.88,0-1.07.56-1.77,1.39-1.77.16,0,.99.08,1.18.08.48,0,.62-.19.62-.91v-.86s-9.79,0-9.79,0v3.78c0,.97-.73,1.56-1.9,1.55-1.34,0-2.06-.54-2.06-1.56v-9.57c-1.21.94-2.31,1.5-3,1.5-1.02,0-1.88-1.02-1.88-2.2,0-.99.3-1.37,1.58-2.06,1.1-.59,2.52-1.77,3.86-3.14.51-.48.64-.67,1.39-1.69h-5.26c-.91,0-1.39-.64-1.39-1.8s.48-1.77,1.39-1.77h6.97c.88-2.87.94-3.06,2.17-3.06,1.61,0,2.33.46,2.33,1.39,0,.46-.11.99-.3,1.66h11.15c.94,0,1.42.65,1.42,1.77,0,1.15-.48,1.8-1.42,1.8h-12.39ZM102.21,164.82c0-1.15,0-1.29-.56-1.29h-9.22s0,1.29,0,1.29h9.79ZM102.21,167.77h-9.79s0,1.39,0,1.39h9.79s0-1.39,0-1.39Z"/>
        <path class="cls-6" d="M114.62,163.72c-.21.78-.38,1.34-.88,1.93h10.14c-.43-.24-.7-.75-.7-1.34s.3-.91,1.1-1.07c.86-.19,1.53-.35,2.12-.51-.62-.48-1.39-1.31-1.8-1.9-.24,0-.94,0-.94-1.07,0-.62.21-.97.7-1.05-.56-.19-1.05-.78-1.05-1.34,0-.38.13-.54.78-1.13.67-.62.72-.8,1.1-2.36.24-.99.97-.99,2.23-.99h3.43c1.34,0,1.74.35,1.74,1.48v1.07c0,.27.08.32.29.32.62,0,.64-.05.7-.67.08-.48.4-.7,1.07-.7.72,0,1.23.32,1.23.86,0,.29-.13,2.01-1.07,2.57-.4.24-.97.29-2.68.29-2.9,0-2.9-.43-2.9-2.49,0-.27-.05-.32-.35-.32h-.72c-.32,0-.35.08-.38.46-.08,1.05-1.29,2.65-2.2,2.92h7.13c1.13,0,1.61.38,1.61,1.21,0,.75-.35,1.37-2.12,2.79.64.19,1.29.32,2.15.46,1.02.19,1.42.51,1.42,1.13s-.43,1.34-.89,1.5c.38.21.56.62.56,1.23,0,.86-.38,1.34-1.07,1.34h-1.82s0,4.53,0,4.53c.54-.05,1.1-.11,1.26-.11.78,0,1.26.54,1.26,1.47,0,.99-.3,1.39-2.52,1.53v.8c0,.99-.7,1.56-1.93,1.55-1.93,0-1.93-1.1-1.93-1.98-4.56.35-6.38.4-9.47.51-1.29.05-5.5.19-6.03.19-1.31,0-1.8-.4-1.8-1.5,0-1.53.94-1.53,2.33-1.53v-5.47s-1.66,0-1.66,0c-.7,0-1.07-.48-1.07-1.31,0-.46.11-.8.27-1.02-.46-.29-.75-.78-.75-1.23,0-.21.11-.51.35-.97.67-1.34.89-2.06.91-3.14.03-.86.08-1.98,2.12-1.98h7.35c1.58,0,1.93.35,1.93,1.93v1.18c0,1.58-.35,1.93-1.93,1.93h-6.62ZM115.83,153.29c.27-.56.83-.86,1.74-.86.94,0,1.53.3,1.77.86h3.46c.59,0,.91.43.91,1.13s-.32,1.13-.91,1.13h-3.33s0,.64,0,.64h2.74c.51,0,.78.35.78.99s-.27.97-.78.97h-9.63c-.51,0-.78-.35-.78-.99s.27-.97.78-.97h3.11s0-.64,0-.64h-3.97c-.56,0-.91-.4-.91-1.13s.35-1.13.91-1.13h4.1ZM116.15,160.69c-1.02,0-1.13,0-1.15.32-.03.13-.05.72-.08.83h1.23s0-1.15,0-1.15ZM117.73,168.33v.78s10.97,0,10.97,0v-.78s-10.97,0-10.97,0ZM117.73,170.45v.78s10.97,0,10.97,0v-.78s-10.97,0-10.97,0ZM117.73,172.73v.99c4.02-.13,7.29-.24,10.97-.53v-.46s-10.97,0-10.97,0ZM119.13,161.85h.64c.46,0,.46-.05.46-.7,0-.4-.05-.46-.46-.46h-.64s0,1.15,0,1.15ZM133.21,165.65c-1.77-.38-2.84-.75-3.91-1.26-1.77.67-2.82.99-4.13,1.26h8.04ZM128.25,160.83c.32.27.72.54,1.13.72.51-.21.89-.4,1.26-.72h-2.39Z"/>
        <path class="cls-6" d="M151.74,161.88v.59s8.88,0,8.88,0c.51,0,.8.38.8,1.05s-.3,1.02-.8,1.02h-8.88s0,.64,0,.64h9.63c.7,0,1.1.51,1.1,1.37s-.4,1.39-1.1,1.39h-22.95c-.7,0-1.1-.51-1.1-1.4s.4-1.37,1.1-1.37h9.44s0-.64,0-.64h-8.18c-.51,0-.83-.38-.83-1.02s.32-1.05.83-1.05h8.18s0-.59,0-.59h-7.75c-.51,0-.8-.35-.8-1.02s.3-.99.8-.99h7.75s0-.67,0-.67h-9.73c-.64,0-.99-.46-.99-1.24s.35-1.23.99-1.23h9.73s0-.67,0-.67h-7.75c-.56,0-.88-.38-.88-1.1s.32-1.1.88-1.1h7.75c.05-.91.78-1.42,1.96-1.42s1.88.51,1.93,1.42h5.82c2.31,0,2.49.91,2.49,2.87h1.64c.64,0,.99.43.99,1.23s-.35,1.23-.99,1.23h-1.64c0,.96-.08,1.64-.43,2.06-.35.43-.97.62-2.06.62h-5.82ZM139.75,171.13c0-1.93.59-2.52,2.49-2.52h15.04c1.93,0,2.52.59,2.52,2.52v3.3c0,1.93-.59,2.52-2.52,2.52h-15.04c-1.9,0-2.49-.59-2.49-2.52v-3.3ZM155.89,171.66c0-.29-.03-.46-.11-.54-.08-.11-.21-.13-.48-.13h-10.94c-.56,0-.59.21-.59.67h12.12ZM155.3,174.43c.59,0,.59-.24.59-.75h-12.12c0,.24,0,.43.08.56s.21.19.51.19h10.94ZM151.74,156.73h4.61c0-.54,0-.64-.43-.67h-4.18s0,.67,0,.67ZM151.74,159.86h4.18c.43,0,.43-.08.43-.67h-4.61s0,.67,0,.67Z"/>
      </g>
    </g>
  </g>
</svg>