<?xml version="1.0" encoding="UTF-8"?>
<svg id="_圖層_1" data-name="圖層_1" xmlns="http://www.w3.org/2000/svg" xmlns:xlink="http://www.w3.org/1999/xlink" version="1.1" viewBox="0 0 195 195">
  <!-- Generator: Adobe Illustrator 29.0.0, SVG Export Plug-In . SVG Version: 2.1.0 Build 186)  -->
  <defs>
    <style>
      .st0 {
        fill: none;
      }

      .st1 {
        fill: #ee92ba;
      }

      .st2 {
        fill: #ed848c;
      }

      .st3 {
        fill: #ef8200;
      }

      .st4, .st5 {
        isolation: isolate;
      }

      .st6 {
        clip-path: url(#clippath-1);
      }

      .st7, .st5 {
        fill: #fff;
      }

      .st8 {
        fill: #f09aa8;
      }

      .st9 {
        fill: #f6c8dd;
      }

      .st10 {
        fill: #a9a89f;
      }

      .st11 {
        fill: #e63556;
      }

      .st12 {
        fill: #dd7a8d;
      }

      .st13 {
        clip-path: url(#clippath);
      }

      .st5 {
        opacity: .3;
      }
    </style>
    <clipPath id="clippath">
      <path class="st0" d="M19.7,85.3c0,21.9,2.4,44.4,16.8,58.8s36.9,16.8,58.8,16.8c21.9,0,44.4-2.4,58.8-16.8s16.8-36.9,16.8-58.8c0-21.9-2.4-44.4-16.8-58.8-14.4-14.4-36.9-16.8-58.8-16.8-21.9,0-44.4,2.4-58.8,16.8s-16.8,36.9-16.8,58.8h0Z"/>
    </clipPath>
    <clipPath id="clippath-1">
      <path class="st0" d="M7.6,81.7c0,23.3,3.5,44,20,59.3,16.5,15.2,41.8,21,67,21s50.5-6.8,67-22,20-35,20-58.2-2.8-47.2-19.3-62.4C145.8,4.1,119.9,1.5,94.7,1.5S43.5,4.1,27,19.3C10.4,34.5,7.6,58.5,7.6,81.7Z"/>
    </clipPath>
  </defs>
  <g>
    <path class="st12" d="M19.7,96.6c0,21.9,2.4,44.4,16.8,58.8s36.9,16.8,58.8,16.8,44.4-2.4,58.8-16.8,16.8-36.9,16.8-58.8c0-21.9-2.4-44.4-16.8-58.8s-36.9-16.8-58.8-16.8c-21.9,0-44.4,2.4-58.8,16.8-14.4,14.4-16.8,36.9-16.8,58.8Z"/>
    <path class="st8" d="M19.4,85.3c0,21.9,2.4,44.4,16.8,58.8s36.9,16.8,58.8,16.8c21.9,0,44.4-2.4,58.8-16.8s16.8-36.9,16.8-58.8c0-21.9-2.4-44.4-16.8-58.8-14.4-14.4-36.9-16.8-58.8-16.8-21.9,0-44.4,2.4-58.8,16.8-14.4,14.4-16.8,36.9-16.8,58.8Z"/>
    <circle class="st7" cx="95.9" cy="98.5" r="59.6"/>
    <g class="st13">
      <g>
        <path class="st5" d="M104.1,16.1c-.2,1.5-.7,2.9-1.7,3.9-1.2,1.4-2.5,2.6-3.8,3.9-.3.2-.6.5-.9.6-1.4.7-2.8,1.4-4.2,2.1-.7.3-1.4.5-2.1.3-.5-.4-.6-1-.8-1.5-.3-.7-.5-1.5-.9-2.2-.4-.8-.7-1.6-.8-2.5-.2-1.5-.5-3.1-.8-4.6,0-.4,0-.9,0-1.4,1.1-.5,2.2-.7,3.3-.8,2-.1,3.9,0,5.9.4,1.4.3,2.9.6,4.3.9.6.1,1.1.3,1.7.4.2,0,.4.2.8.4h0Z"/>
        <path class="st5" d="M40.8,68c-.3-1.5-.3-2.9.3-4.2.7-1.7,1.5-3.3,2.3-4.9.2-.3.4-.6.6-.9,1.1-1.1,2.1-2.3,3.2-3.4.5-.5,1.1-.9,1.9-1,.6.2.8.7,1.2,1.1.5.6,1,1.2,1.5,1.8.6.6,1.2,1.3,1.6,2.1.8,1.4,1.5,2.7,2.3,4.1.2.4.3.9.5,1.3-.8.9-1.8,1.4-2.9,1.9-1.8.8-3.7,1.3-5.7,1.6-1.4.2-2.9.4-4.3.6-.6,0-1.1.1-1.7.1-.2,0-.5,0-.9-.2h0Z"/>
        <path class="st5" d="M150.5,90.5c.5-1.4,1.2-2.4,2.3-3.2,1.3-1,2.8-1.8,4.2-2.7.3-.2.6-.3.9-.4,1.4-.4,2.8-.8,4.2-1.1.7-.2,1.3-.2,2,.2.4.4.3,1,.4,1.5.1.7.2,1.4.4,2.1.2.8.3,1.6.2,2.4,0,1.4-.1,2.9-.2,4.3,0,.4-.1.8-.2,1.3-1.1.3-2.1.2-3.2,0-1.8-.3-3.6-.8-5.2-1.5-1.2-.5-2.5-1.1-3.7-1.6-.5-.2-.9-.5-1.4-.7-.2-.1-.4-.3-.6-.6h0Z"/>
        <path class="st5" d="M39,137.5c.2-1.6.7-2.9,1.7-3.9,1.2-1.4,2.5-2.6,3.8-3.9.3-.2.6-.5.9-.6,1.4-.7,2.8-1.4,4.2-2.1.7-.3,1.4-.5,2.1-.3.5.4.6.9.8,1.5.3.7.5,1.5.9,2.2.4.8.7,1.6.8,2.5.2,1.5.5,3.1.8,4.6,0,.4,0,.9,0,1.4-1.1.5-2.2.7-3.3.8-2,.1-3.9,0-5.9-.4-1.4-.3-2.9-.6-4.3-.9-.6-.1-1.1-.3-1.7-.4-.2,0-.5-.2-.8-.4h0Z"/>
        <path class="st5" d="M71.3,22.6c.3,1.5.3,2.9-.3,4.2-.7,1.7-1.5,3.3-2.3,4.9-.2.3-.4.6-.6.9-1.1,1.1-2.1,2.3-3.2,3.4-.5.5-1.1.9-1.9,1-.6-.2-.8-.7-1.2-1.1-.5-.6-1-1.2-1.5-1.8-.6-.6-1.2-1.3-1.6-2.1-.8-1.4-1.5-2.7-2.3-4.1-.2-.4-.3-.9-.5-1.3.8-.9,1.8-1.4,2.9-1.9,1.8-.8,3.7-1.3,5.7-1.6,1.4-.2,2.9-.4,4.3-.6.6,0,1.1-.1,1.7-.1.2,0,.5,0,.9.1h0Z"/>
        <path class="st5" d="M136,137.9c.9-.6,1.9-.9,2.9-.9,1.3,0,2.6.2,3.9.3.3,0,.5.1.8.2,1,.4,2.1.9,3.1,1.3.5.2.9.5,1.1,1.1,0,.4-.3.7-.4,1.1-.3.5-.6,1-.8,1.5-.3.6-.6,1.1-1,1.6-.7.8-1.4,1.7-2.2,2.5-.2.2-.5.4-.8.7-.8-.4-1.4-.9-2-1.5-1-1-1.8-2.2-2.5-3.4-.5-.9-1-1.8-1.5-2.7-.2-.4-.4-.7-.5-1.1,0-.2,0-.4-.1-.6h0Z"/>
        <path class="st5" d="M123.3,69.5c-.9-1.3-1.3-2.6-1.3-4,0-1.8.2-3.6.3-5.4,0-.4.1-.7.2-1.1.6-1.5,1.1-2.9,1.7-4.4.3-.7.7-1.3,1.4-1.6.6,0,1.1.3,1.6.6s1.4.7,2.1,1c.8.3,1.6.8,2.3,1.3,1.2,1,2.4,1.9,3.6,2.9.4.3.6.7,1,1-.5,1.1-1.2,2-2,2.8-1.4,1.4-3,2.6-4.7,3.6-1.2.8-2.5,1.5-3.8,2.2-.5.3-1,.5-1.5.8-.2,0-.5.1-.9.2h0Z"/>
        <path class="st5" d="M139.3,22.6c.3,1.5.3,2.9-.3,4.2-.7,1.7-1.5,3.3-2.3,4.9-.2.3-.4.6-.6.9-1.1,1.1-2.1,2.3-3.2,3.4-.5.5-1.1.9-1.9,1-.6-.2-.8-.7-1.2-1.1-.5-.6-1-1.2-1.5-1.8-.6-.6-1.2-1.3-1.6-2.1-.8-1.4-1.5-2.7-2.3-4.1-.2-.4-.3-.9-.5-1.3.8-.9,1.8-1.4,2.9-1.9,1.8-.8,3.7-1.3,5.7-1.6,1.4-.2,2.9-.4,4.3-.6.6,0,1.1-.1,1.7-.1.2,0,.5,0,.9.1h0Z"/>
        <path class="st5" d="M144.9,50.3c-1.1-1.1-1.8-2.3-2.1-3.7-.3-1.8-.5-3.6-.7-5.4,0-.4,0-.7,0-1.1.3-1.5.6-3.1.9-4.6.1-.7.5-1.4,1.1-1.9.6-.2,1.1.1,1.6.3.8.2,1.5.5,2.2.7.9.2,1.7.5,2.5.9,1.4.7,2.8,1.5,4.1,2.2.4.2.8.5,1.2.8-.2,1.2-.8,2.2-1.4,3.1-1.1,1.7-2.4,3.1-3.9,4.4-1.1,1-2.2,1.9-3.3,2.8-.4.4-.9.7-1.4,1-.2.1-.5.2-.8.3h0Z"/>
        <path class="st5" d="M152.6,62.3c1.2-.3,2.3-.4,3.3,0,1.4.4,2.6,1,4,1.5.3.1.5.3.7.4.9.8,1.9,1.5,2.8,2.3.4.4.8.8.9,1.4-.1.5-.5.7-.8,1-.4.4-.9.8-1.3,1.3-.5.5-1,1-1.6,1.3-1,.7-2,1.3-3.1,2-.3.2-.6.3-1,.5-.7-.6-1.2-1.3-1.6-2.2-.7-1.4-1.2-2.8-1.5-4.3-.2-1.1-.5-2.2-.7-3.3,0-.4-.1-.9-.2-1.3,0-.2,0-.4,0-.7h0Z"/>
        <path class="st5" d="M160.6,127.9c-1.6.2-2.9,0-4.2-.6-1.6-.8-3.2-1.8-4.7-2.7-.3-.2-.6-.4-.8-.7-1.1-1.2-2.1-2.3-3.1-3.5-.5-.6-.8-1.2-.8-2,.2-.6.8-.8,1.2-1.1.6-.5,1.3-.9,1.9-1.4.7-.6,1.4-1.1,2.2-1.4,1.4-.6,2.8-1.3,4.3-1.9.4-.2.9-.3,1.4-.4.8.9,1.3,1.9,1.6,3,.6,1.9,1,3.8,1.1,5.8.1,1.4.2,2.9.3,4.4,0,.6,0,1.1,0,1.7,0,.2-.1.5-.2.9h0Z"/>
        <path class="st5" d="M49.1,40.6c-.2,1.5-.7,2.8-1.7,3.9-1.2,1.4-2.5,2.6-3.8,3.9-.3.2-.6.5-.9.6-1.4.7-2.8,1.4-4.2,2.1-.7.3-1.4.5-2.1.3-.5-.4-.6-1-.8-1.5-.3-.7-.5-1.5-.9-2.2-.4-.8-.7-1.6-.8-2.5-.2-1.5-.5-3.1-.8-4.6,0-.5,0-.9,0-1.4,1.1-.5,2.2-.7,3.3-.8,2-.1,3.9,0,5.9.4,1.4.3,2.9.6,4.3.9.6.1,1.1.3,1.7.5.2,0,.5.2.8.4h0Z"/>
        <path class="st5" d="M25.5,73.3c1.5-.6,2.9-.7,4.2-.4,1.8.4,3.5,1,5.2,1.5.3.1.7.3,1,.5,1.3.9,2.6,1.7,3.9,2.6.6.4,1.1,1,1.3,1.8,0,.6-.6.9-.9,1.4-.5.6-1,1.2-1.5,1.8-.5.7-1.1,1.3-1.8,1.9-1.2,1-2.5,1.9-3.7,2.9-.4.3-.8.5-1.2.7-1-.7-1.7-1.6-2.3-2.6-1.1-1.7-1.8-3.5-2.5-5.4-.4-1.4-.9-2.8-1.3-4.2-.2-.6-.3-1.1-.4-1.7,0-.2,0-.5,0-.9h0Z"/>
        <path class="st5" d="M30,117.7c-.9-1.3-1.4-2.6-1.4-4,0-1.8.2-3.6.3-5.4,0-.4.1-.7.2-1.1.5-1.5,1.1-2.9,1.7-4.4.3-.7.7-1.3,1.4-1.6.6,0,1,.3,1.5.6.7.3,1.4.7,2.1,1,.8.3,1.6.8,2.3,1.3,1.2,1,2.4,1.9,3.6,2.9.3.3.6.7,1,1-.5,1.1-1.2,2-2,2.8-1.4,1.4-3,2.6-4.7,3.6-1.2.8-2.5,1.5-3.8,2.2-.5.3-1,.5-1.5.8-.2,0-.5.1-.9.2h0Z"/>
      </g>
    </g>
    <g class="st6">
      <g>
        <g>
          <g>
            <path class="st10" d="M85.2,142.5c.5.1.8.6.8,1.1,0,.2-.7,4.9-1.5,11.1.7-.7,1.7-1.2,2.8-1.2,2.1,0,3.8,1.7,3.8,3.8s-1.7,3.8-3.8,3.8-2.7-.8-3.4-2.1c-.6,4.1-1.2,8.4-1.7,12.3,4.9.3,10,.5,13.5.5s7.8-.2,12.3-.4c-.5-3.3-1-7-1.5-10.5-.4.1-.8.2-1.2.2-2.1,0-3.8-1.7-3.8-3.8s1.7-3.8,3.8-3.8h.1c-.8-5.5-1.3-9.7-1.4-9.9,0-.5.3-1,.8-1.1,4.1-.9,7.8-4.7,8.9-7.4,0-.3,0-.5,0-.8h-2.3c-.4.2-.9.3-1.3.4-4.2,3.4-8.7,5.3-14.7,5.3s-11.2-1.9-14.8-4.8c-.7-.2-1.3-.3-1.9-.5h-2.2c0,.2,0,.4,0,.6,1.2,2.7,4.9,6.3,8.8,7.2h0ZM96.2,144.4c2.1,0,3.8,1.7,3.8,3.8s-1.7,3.8-3.8,3.8-3.8-1.7-3.8-3.8,1.7-3.8,3.8-3.8ZM96.2,162.5c2.1,0,3.8,1.7,3.8,3.8s-1.7,3.8-3.8,3.8-3.8-1.7-3.8-3.8,1.7-3.8,3.8-3.8Z"/>
            <path class="st10" d="M129.6,206c-.3-1.4-.7-3-1.1-4.7-.2,0-.4,0-.6,0-2.1,0-3.8-1.7-3.8-3.8s1-3,2.5-3.6c-1.2-4.5-2.5-9-3.6-12.9-1.1.5-2.5.9-4,1.3h0c-4.2,1.1-9,1.7-9.5,1.2,0,0,0,0,0,0-1.8-.3-3.2-1.9-3.2-3.8s.9-2.9,2.2-3.4c0-.5-.2-1.1-.2-1.6-2.2.1-4.6.3-7.1.4h0c-1.8,0-3.8,0-5.7,0-4.4,0-8.5-.2-12.1-.4h0c-.6,0-1.2,0-1.9-.1-.7,5.2-1.3,9-1.3,9-.3.3-2.2.2-4.6-.2-.4.1-.8.2-1.2.2-.9,0-1.8-.3-2.4-.9-1.5-.4-3.1-.8-4.3-1.2-.3,1.1-.7,2.3-1,3.6.1,0,.2,0,.3.1,1.4.6,2.3,1.9,2.3,3.5s-1,2.9-2.3,3.5c-.1,0-.2,0-.3.1-.2,0-.5.1-.7.1-.1,0-.3,0-.4,0h0c-.3,0-.6,0-.9-.1-1.3,4.9-2.6,9.8-3.5,13.6-.1.6.2,1.3.7,1.6-.1-.4-.2-.8-.2-1.1,0-.8.2-1.5.7-2.1,0-.1.1-.2.2-.3.2-.2.3-.4.5-.5.7-.5,1.5-.9,2.4-.9h0c.1,0,.3,0,.4,0,.3,0,.5,0,.7.1.1,0,.2,0,.3.1,1.4.6,2.3,1.9,2.3,3.5s-.5,2.2-1.3,2.9c.6.1,1.3.3,2.1.4,3.4.6,7.8,1.3,13.3,1.7v-1.2c-.5,0-1-.1-1.5-.3-.5-.2-.9-.5-1.2-.8-.7-.7-1.1-1.6-1.1-2.7s.4-2,1.1-2.7c.3-.3.8-.6,1.2-.8.5-.2,1-.3,1.5-.3h0c.1,0,.3,0,.4,0,.6,0,1.2.3,1.7.6.2.1.4.3.6.5,0,0,.2.2.2.3.2.2.3.4.4.6.3.5.5,1.2.5,1.8s-.2,1.3-.5,1.8c-.1.2-.2.4-.4.6,0,0-.2.2-.2.3-.2.2-.4.3-.6.5-.5.3-1.1.6-1.7.6-.1,0-.3,0-.4,0v1.2c2.3.2,4.8.3,7.6.4.4-.2.9-.2,1.3-.2s1,.1,1.5.3h1.6c1.4,0,2.8,0,4.2,0,.6,0,1.1,0,1.6,0v-1.5c-.9,0-1.8-.3-2.4-.9-.2-.2-.4-.3-.5-.5,0,0-.2-.2-.2-.3-.4-.6-.7-1.3-.7-2.1s.2-1.5.7-2.1c0-.1.1-.2.2-.3.2-.2.3-.4.5-.5.7-.5,1.5-.9,2.4-.9h0c.1,0,.3,0,.4,0,.3,0,.5,0,.7.1.1,0,.2,0,.3.1,1.4.6,2.3,1.9,2.3,3.5s-1,2.9-2.3,3.5c-.1,0-.2,0-.3.1-.2,0-.5.1-.7.1-.1,0-.3,0-.4,0v1.5c7.2-.2,12.8-.8,17.2-1.6-.2,0-.3,0-.5-.1-.5-.1-.9-.4-1.3-.7-.2-.2-.4-.3-.5-.5,0,0-.2-.2-.2-.3-.4-.6-.7-1.3-.7-2.1s.2-1.5.7-2.1c0-.1.1-.2.2-.3.2-.2.3-.4.5-.5.4-.3.8-.6,1.3-.7.4-.1.7-.2,1.1-.2v-.2h0v.2c.1,0,.3,0,.4,0,.6,0,1.2.3,1.7.6,1,.7,1.7,1.8,1.7,3.2s-.7,2.5-1.7,3.2c0,0-.2.1-.2.1.1,0,.2,0,.3,0,3.7-.7,6.1-1.5,7.4-2,.7-.3,1.1-1,.9-1.7h0ZM74.6,201.3c-2.1,0-3.8-1.7-3.8-3.8s1.7-3.8,3.8-3.8,3.8,1.7,3.8,3.8-1.7,3.8-3.8,3.8ZM86.8,190.4c-.1.2-.2.4-.4.6,0,0-.2.2-.2.3-.2.2-.4.3-.6.5-.5.3-1.1.6-1.7.6-.1,0-.3,0-.4,0h0c-.5,0-1-.1-1.5-.3-.5-.2-.9-.5-1.2-.8-.7-.7-1.1-1.6-1.1-2.7s.4-2,1.1-2.7c.3-.3.8-.6,1.2-.8.5-.2,1-.3,1.5-.3h0c.1,0,.3,0,.4,0,.6,0,1.2.3,1.7.6.2.1.4.3.6.5,0,0,.2.2.2.3.2.2.3.4.4.6.3.5.5,1.2.5,1.8s-.2,1.3-.5,1.8h0ZM92.4,201.3c-2.1,0-3.8-1.7-3.8-3.8s1.7-3.8,3.8-3.8,3.8,1.7,3.8,3.8-1.7,3.8-3.8,3.8ZM92.4,183.5c-2.1,0-3.8-1.7-3.8-3.8s1.7-3.8,3.8-3.8,3.8,1.7,3.8,3.8-1.7,3.8-3.8,3.8ZM102.7,192.1c-.1,0-.2,0-.3.1-.2,0-.5.1-.7.1-.1,0-.3,0-.4,0h0c-.9,0-1.8-.3-2.4-.9-.2-.2-.4-.3-.5-.5,0,0-.2-.2-.2-.3-.4-.6-.7-1.3-.7-2.1s.2-1.5.7-2.1c0-.1.1-.2.2-.3.2-.2.3-.4.5-.5.7-.5,1.5-.9,2.4-.9h0c.1,0,.3,0,.4,0,.3,0,.5,0,.7.1.1,0,.2,0,.3.1,1.4.6,2.3,1.9,2.3,3.5s-1,2.9-2.3,3.5ZM110.2,201.3c-2.1,0-3.8-1.7-3.8-3.8s1.7-3.8,3.8-3.8,3.8,1.7,3.8,3.8-1.7,3.8-3.8,3.8ZM121.2,191.8c-.5.3-1.1.6-1.7.6-.1,0-.3,0-.4,0h0c-.4,0-.8,0-1.1-.2-.5-.1-.9-.4-1.3-.7-.2-.2-.4-.3-.5-.5,0,0-.2-.2-.2-.3-.4-.6-.7-1.3-.7-2.1s.2-1.5.7-2.1c0-.1.1-.2.2-.3.2-.2.3-.4.5-.5.4-.3.8-.6,1.3-.7.4-.1.7-.2,1.1-.2h0c.1,0,.3,0,.4,0,.6,0,1.2.3,1.7.6,1,.7,1.7,1.8,1.7,3.2s-.7,2.5-1.7,3.2h0Z"/>
          </g>
          <path class="st3" d="M95.5,171.9c-3.4,0-8.6-.2-13.5-.5-.2,1.1-.3,2.2-.4,3.2.6,0,1.2,0,1.9.1h0c3.6.2,7.7.4,12.1.4s3.9,0,5.7,0h0c2.5,0,4.9-.2,7.1-.4-.1-1-.3-2.1-.4-3.2-4.6.3-9.2.4-12.3.4h0Z"/>
          <g>
            <path class="st9" d="M118.7,32.6c-2.2-.9-5.1,3.8-6.6,6.2-3.1,5.2-5.2,10.7-6.1,14.2,1.4.4,2.6.8,3.4,1.1v-.2c.7-.1,1.5-.2,2.3,0,1.4-2.2,3.2-5.2,4.8-8.1,3.4-6.5,4.5-12.2,2.2-13.1h0Z"/>
            <path class="st9" d="M82.6,28.7c-3.9,0-3.8,9.3-3.4,14.3.3,3.8,1.1,8.1,1.9,11.3,1.9-.7,3.7-1.1,5.3-1.5.1-2.9.2-7,.2-9.8,0-4.1-.3-14.4-4-14.4Z"/>
            <path class="st9" d="M94.4,107.8c-1.4,0-2.5.8-2.5,1.7s1.1,1.7,2.5,1.7,2.5-.8,2.5-1.7-1.1-1.7-2.5-1.7Z"/>
          </g>
          <g>
            <path class="st1" d="M155.2,118.6c-3.8-1.4-5.4-3.1-8.2-6.3-2.9-3.3-3.6-6.7-4.7-9.1h-.2s-5.1,8.6-12.1,17c-.7,1.2-1.5,2.3-2.4,3.3-2.2,2.7-4.9,5.2-8.4,7.3-.9.7-1.8,1.3-2.6,1.8-.5.3-2,.7-3.5,1.1-.6.2-1.2.4-1.8.6h2.3c0,.2,0,.5,0,.8-1.1,2.8-4.9,6.5-8.9,7.4-.5.1-.8.6-.8,1.1,0,.2.6,4.4,1.4,9.9.3,2.3.7,4.8,1,7.4.5,3.6,1,7.2,1.5,10.5.2,1.1.3,2.2.4,3.2,0,.6.2,1.1.2,1.6.6,3.9.9,6.8,1,7.2,0,0,0,0,0,0,.4.5,5.3-.1,9.5-1.2h0c1.5-.4,2.9-.8,4-1.3.2,0,.4-.2.6-.3.6-.3.9-.9.8-1.6-.5-3-2.2-11.9-5.6-22.9,5.4-3.3,13.4-8.6,22.3-16.3,8-6.9,15.1-15.5,18.8-20.2-1.8-.3-3.1-.6-4.8-1.2h0Z"/>
            <path class="st1" d="M85.2,142.5c-4-.9-7.6-4.5-8.8-7.2,0-.2,0-.4,0-.6h2.2c-8.3-2.4-13.6-6.7-17.5-11.3-1.8-2.1-3.3-4.6-4.5-7.4-5.3-6.9-8.8-12.9-8.8-12.9h-.2c-1.1,2.4-1.8,5.8-4.7,9.1-2.8,3.2-4.4,4.9-8.2,6.3-1.7.6-3,.9-4.8,1.2,3.7,4.8,10.8,13.3,18.8,20.2,8.9,7.7,16.9,13.1,22.3,16.3-3.4,11-5.1,19.9-5.6,22.9-.1.6.2,1.3.8,1.6.4.2,1,.4,1.5.6,1.2.5,2.8.9,4.3,1.2,1.2.3,2.5.5,3.6.7,2.4.4,4.3.5,4.6.2,0,0,.5-3.8,1.3-9,.1-1,.3-2.1.4-3.2.6-3.9,1.2-8.2,1.7-12.3.2-1.5.4-3,.6-4.4.9-6.1,1.5-10.9,1.5-11.1,0-.5-.3-1-.8-1.1h0Z"/>
            <path class="st1" d="M112.6,60.9c1.3,3.7,5.5,13,5.7,12.9.3-.2,1.7-3.7,1.7-3.7,0,0,4.9.4,4.4-.3-1.4-2-4.6-6.1-6.8-8.9.7,0,1.3.2,2,.2,2.8.3,5.6.5,5.7.4.4-.4,1-7.2.4-7.2-1.4,0-2.7,0-4,0-3.5.1-6.5.4-7.6.5-.5-.6-1.5-.9-2.6-1-.8,0-1.6,0-2.3,0v.2c-.8-.3-1.9-.7-3.4-1.1-2.1-.6-4.6-1.2-7.3-1.6-.3,0-.7,0-1.1-.1v.8s-.2,6.4-.2,6.4c.2.6,6.7.9,10.8,1.2-2.8,2.3-7.9,6.7-9.4,8.2-.9.9,4,1.1,4,1.1,0,0,1.4,3.8,1.6,4.1.2.2,6.7-9.5,8.1-12.2h0Z"/>
          </g>
          <path class="st11" d="M82.5,115.3c-1.3.6-.1,9.1,4.3,14.4,0,0,1.6-4.6,7.5-4.6s7,3.5,7.4,5c4.6-5.3,5.8-14.2,4.6-14.8-1.8-.8-10-1-11.9-1s-10.1.2-11.9,1ZM97,117.9h-5.1v-3.5h5.2s0,3.5,0,3.5Z"/>
          <path class="st2" d="M94.3,125.2c-5.9,0-7.5,4.6-7.5,4.6h0s.6.8,1.7,1.8c0,0,0,0,0,0,.2.1.4.3.6.5,0,0,0,0,.1,0,1.3.9,3.1,1.8,5.1,1.8s3.2-.6,4.3-1.3c0,0,.1,0,.2-.1.2-.1.3-.2.5-.3,0,0,.1-.1.2-.1.2-.2.4-.3.6-.5,0,0,0,0,0,0,.9-.7,1.4-1.4,1.4-1.4h0c-.4-1.4-2.1-5-7.4-5h0Z"/>
          <g>
            <path class="st7" d="M175.2,104.1c-2.6-.3-8.8,1.2-9.5-.2-.7-1.4,2.6-3.2,5.4-5.3,2.9-2.1,4.2-5.2,1.9-7.2-2.1-1.8-6,1.1-8.4,3.1-2.4,2-5.6,3.3-6.2,2.2s5.1-5.8,5.5-9.2c.4-3.7-3.8-3.9-5.8-2.1-2.4,2.2-8.4,11.5-10.2,11.3-1.9-.2-2.8-4.4-5.5-5.8s-4.5.7-4.8,2.6c-.2,2,3.1,6.6,4.3,9.1,0,.1.1.3.2.4,1.1,2.4,1.8,5.8,4.7,9.1,2.8,3.2,4.4,4.9,8.2,6.3,1.7.6,3,.9,4.8,1.2,1.7.2,3.7.4,6.8.8,6.4.7,7.7-1.9,5.9-3.8-2.1-2.2-7.1-2.3-7-3.5,0-1.1,3.7-2.4,8.7-3.4,5-1.1,3.8-5.3.9-5.7h0Z"/>
            <path class="st7" d="M47.4,90.9c-2.7,1.5-3.6,5.7-5.5,5.8-1.9.2-7.8-9.1-10.2-11.3-2-1.8-6.2-1.6-5.8,2.1.4,3.4,6.1,8.1,5.5,9.2s-3.8-.2-6.2-2.2c-2.4-2-6.2-5-8.4-3.1-2.3,2-.9,5.1,1.9,7.2,2.9,2.1,6.1,3.9,5.4,5.3-.7,1.4-6.9-.2-9.5.2-2.8.3-4.1,4.6.9,5.7,5,1.1,8.7,2.3,8.7,3.4,0,1.1-5,1.3-7,3.5-1.9,2-.5,4.5,5.9,3.8,3.1-.3,5.1-.5,6.8-.8,1.8-.3,3.1-.6,4.8-1.2,3.8-1.4,5.4-3.1,8.2-6.3,2.9-3.3,3.6-6.7,4.7-9.1,0-.2.1-.3.2-.4,1.2-2.5,4.5-7.1,4.3-9.1-.2-2-2.1-4.1-4.8-2.6Z"/>
            <path class="st7" d="M92.4,148.2c0,2.1,1.7,3.8,3.8,3.8s3.8-1.7,3.8-3.8-1.7-3.8-3.8-3.8-3.8,1.7-3.8,3.8Z"/>
            <path class="st7" d="M100,166.3c0-2.1-1.7-3.8-3.8-3.8s-3.8,1.7-3.8,3.8,1.7,3.8,3.8,3.8,3.8-1.7,3.8-3.8Z"/>
            <path class="st7" d="M106.4,160.9c-.4-2.6-.7-5.1-1-7.4h-.1c-2.1,0-3.8,1.7-3.8,3.8s1.7,3.8,3.8,3.8.8,0,1.2-.2h0Z"/>
            <path class="st7" d="M91,157.3c0-2.1-1.7-3.8-3.8-3.8s-2.1.5-2.8,1.2c-.2,1.4-.4,2.9-.6,4.4.6,1.2,1.9,2.1,3.4,2.1,2.1,0,3.8-1.7,3.8-3.8h0Z"/>
            <path class="st7" d="M124.2,197.5c0,2.1,1.7,3.8,3.8,3.8s.4,0,.6,0c-.6-2.3-1.2-4.8-1.9-7.3-1.4.5-2.5,1.9-2.5,3.6h0Z"/>
            <path class="st7" d="M109.6,183.5c0-.5-.5-3.3-1-7.2-1.3.6-2.2,1.9-2.2,3.4s1.4,3.5,3.2,3.8h0Z"/>
            <path class="st7" d="M110.2,201.3c2.1,0,3.8-1.7,3.8-3.8s-1.7-3.8-3.8-3.8-3.8,1.7-3.8,3.8,1.7,3.8,3.8,3.8Z"/>
            <path class="st7" d="M117.9,185c-.5.1-.9.4-1.3.7-.2.2-.4.3-.5.5,0,0-.2.2-.2.3-.4.6-.7,1.3-.7,2.1s.2,1.5.7,2.1c0,.1.1.2.2.3.2.2.3.4.5.5.4.3.8.6,1.3.7.4.1.7.2,1.1.2h0c.1,0,.3,0,.4,0,.6,0,1.2-.3,1.7-.6,1-.7,1.7-1.8,1.7-3.2s-.7-2.5-1.7-3.2c-.5-.3-1.1-.6-1.7-.6-.1,0-.3,0-.4,0h0c-.4,0-.8,0-1.1.2h0Z"/>
            <path class="st7" d="M92.4,175.9c-2.1,0-3.8,1.7-3.8,3.8s1.7,3.8,3.8,3.8,3.8-1.7,3.8-3.8-1.7-3.8-3.8-3.8Z"/>
            <path class="st7" d="M101.7,192.4c.3,0,.5,0,.7-.1.1,0,.2,0,.3-.1,1.4-.6,2.3-1.9,2.3-3.5s-1-2.9-2.3-3.5c-.1,0-.2,0-.3-.1-.2,0-.5-.1-.7-.1-.1,0-.3,0-.4,0h0c-.9,0-1.8.3-2.4.9-.2.2-.4.3-.5.5,0,0-.2.2-.2.3-.4.6-.7,1.3-.7,2.1s.2,1.5.7,2.1c0,.1.1.2.2.3.2.2.3.4.5.5.7.5,1.5.9,2.4.9h0c.1,0,.3,0,.4,0Z"/>
            <path class="st7" d="M92.4,193.7c-2.1,0-3.8,1.7-3.8,3.8s1.7,3.8,3.8,3.8,3.8-1.7,3.8-3.8-1.7-3.8-3.8-3.8Z"/>
            <path class="st7" d="M70.8,197.5c0,2.1,1.7,3.8,3.8,3.8s3.8-1.7,3.8-3.8-1.7-3.8-3.8-3.8-3.8,1.7-3.8,3.8Z"/>
            <path class="st7" d="M83.8,192.4c.6,0,1.2-.3,1.7-.6.2-.1.4-.3.6-.5,0,0,.2-.2.2-.3.2-.2.3-.4.4-.6.3-.5.5-1.2.5-1.8s-.2-1.3-.5-1.8c-.1-.2-.2-.4-.4-.6,0,0-.2-.2-.2-.3-.2-.2-.4-.3-.6-.5-.5-.3-1.1-.6-1.7-.6-.1,0-.3,0-.4,0h0c-.5,0-1,.1-1.5.3-.5.2-.9.5-1.2.8-.7.7-1.1,1.6-1.1,2.7s.4,2,1.1,2.7c.3.3.8.6,1.2.8.5.2,1,.3,1.5.3h0c.1,0,.3,0,.4,0h0Z"/>
            <path class="st7" d="M67.1,185.1c-.1,0-.2,0-.3-.1-.4,1.3-.8,2.7-1.1,4.1h0c-.3,1.1-.6,2.2-.9,3.3.3,0,.6.1.9.1h0c.1,0,.3,0,.4,0,.3,0,.5,0,.7-.1.1,0,.2,0,.3-.1,1.4-.6,2.3-1.9,2.3-3.5s-1-2.9-2.3-3.5h0Z"/>
            <path class="st7" d="M112.1,38.9c1.5-2.4,4.4-7.1,6.6-6.2s1.1,6.7-2.2,13.1c-1.5,2.9-3.3,6-4.8,8.1,1.1.1,2.1.5,2.6,1,1.1-.1,4.1-.4,7.6-.5,2-3.8,4.2-8.5,5.4-12,2.4-6.7,5.1-20.8-4.6-23.2-9.3-2.2-14.2,8.5-17.6,15.9-2.6,5.7-4.8,12.2-6.3,16.3,2.6.3,5.2,1,7.3,1.6.9-3.5,2.9-8.9,6.1-14.2Z"/>
            <path class="st7" d="M56.7,116c1.2,2.8,2.7,5.3,4.5,7.4,3.8,4.6,9.1,8.9,17.5,11.2.6.2,1.3.3,1.9.5,3.6,2.9,8.6,4.8,14.8,4.8s10.5-1.8,14.7-5.3c.4-.1.9-.2,1.3-.4.6-.2,1.2-.4,1.8-.6,2.3-.9,4.3-1.9,6.1-2.9,3.5-2.1,6.2-4.7,8.4-7.3.9-1,1.7-2.2,2.4-3.3,6.8-11.1,7.5-29.1-.8-46.3-2.6-5.5-6-9.5-9.6-12.6-.7,0-1.3-.2-2-.2,2.2,2.8,5.4,6.9,6.8,8.9.5.7-4.4.3-4.4.3,0,0-1.4,3.6-1.7,3.7-.2.1-4.4-9.2-5.7-12.9-1.4,2.7-7.9,12.4-8.1,12.2-.2-.2-1.6-4.1-1.6-4.1,0,0-4.9-.2-4-1.1,1.4-1.5,6.6-5.8,9.4-8.2-4.2-.3-10.7-.6-10.8-1.2l.2-6.4c-.8,0-1.5-.1-2.1-.1-.2-5-.7-20.6-.7-22.1,0-1.8-1.1-16.2-12.7-14.6-9.2,1.3-11.4,11.5-11.4,20.6,0,3.5.5,11.1.8,15.6-1.1,0-2.2,0-3.4,0-9.9,1.4-12.7,13.2-8.5,18.8.3.4.7.8,1.1,1.2-.4.7-.8,1.4-1.1,2.2-7.3,15.2-7.6,31.1-2.9,42.2h0ZM94.4,107.8c1.4,0,2.5.8,2.5,1.7s-1.1,1.7-2.5,1.7-2.5-.8-2.5-1.7,1.1-1.7,2.5-1.7ZM94.4,114.3c1.9,0,10.1.1,11.9,1,1.3.6,0,9.6-4.6,14.8h0s-.5.6-1.4,1.4c0,0,0,0,0,0-.2.2-.4.3-.6.5,0,0-.1.1-.2.1-.2.1-.3.2-.5.3,0,0-.1,0-.2.1-1.2.7-2.7,1.3-4.3,1.3s-3.8-.8-5.1-1.8c0,0,0,0-.1,0-.2-.1-.4-.3-.6-.5,0,0,0,0,0,0-1.1-.9-1.7-1.8-1.7-1.8h0c-4.4-5.3-5.5-13.9-4.3-14.4,1.8-.8,10-1,11.9-1h0ZM82.6,28.7c3.7,0,3.9,10.3,4,14.4,0,2.8,0,6.9-.2,9.8-1.6.3-3.4.8-5.3,1.5-.8-3.2-1.6-7.5-1.9-11.3-.4-5-.5-14.3,3.4-14.3Z"/>
            <polygon class="st7" points="97 117.9 97.1 114.4 91.8 114.4 91.8 117.9 97 117.9"/>
          </g>
        </g>
        <g>
          <path d="M175.3,103.3c-.3,0-.6,0-.9,0-1,0-2.2.1-3.3.2-1.2.1-2.3.2-3.2.2s-.9,0-1.1,0c-.1,0-.2,0-.2,0,0,0,0,0,0-.2,0-.2.3-.4.6-.8.5-.5,1.2-1,2-1.6s1.7-1.2,2.6-1.8c1-.7,1.9-1.6,2.4-2.5.6-.9,1-1.9,1-2.9s-.1-1.1-.4-1.6c-.2-.5-.6-1-1.1-1.4-.6-.5-1.4-.8-2.1-.8-1.3,0-2.6.6-3.9,1.4-1.2.8-2.4,1.7-3.4,2.5-.8.7-1.8,1.3-2.7,1.8-.4.2-.9.4-1.2.5-.4.1-.7.2-.9.2h0c0,0,0-.1.1-.2.2-.4.7-1,1.2-1.6.8-1,1.7-2.1,2.5-3.3.8-1.2,1.5-2.4,1.6-3.7,0-.2,0-.4,0-.5,0-.6-.1-1.1-.3-1.6-.3-.7-.8-1.2-1.4-1.5-.6-.3-1.3-.4-1.9-.4-1.2,0-2.5.4-3.5,1.3-.7.6-1.5,1.6-2.4,2.8-1.4,1.8-3,3.9-4.4,5.6-.7.8-1.4,1.6-1.9,2.1-.3.2-.5.4-.7.5,0,0-.2,0-.2,0h0c0,0-.2,0-.3-.1-.2-.1-.5-.5-.8-.9-.5-.7-1-1.6-1.6-2.4-.6-.9-1.4-1.8-2.4-2.3-.7-.4-1.4-.6-2.1-.6-1.1,0-2.1.5-2.7,1.3-.6.7-1,1.7-1.1,2.6,0,0,0,.2,0,.3,0,.7.2,1.4.6,2.2.5,1.2,1.2,2.5,2,3.7.7,1.2,1.4,2.3,1.8,3.2,0,0,0,0,0,0-.7,1.1-3.6,5.8-7.7,11.3,1.6-4.5,2.4-9.6,2.4-15,0-8.2-1.9-17.1-6.1-25.8-2.2-4.7-5-8.3-8-11.2.3,0,.7,0,.9,0,.9,0,1.6.1,2.1.1s.2,0,.4,0c0,0,.1,0,.2,0,0,0,0,0,.2,0,0,0,.2,0,.3-.2.1-.1.2-.2.2-.3,0-.2.1-.3.2-.5.2-.6.3-1.5.4-2.5,0-1,.2-2.1.2-3s0-.8,0-1.2c0-.2,0-.3-.1-.5,0,0,0-.2-.2-.3,0,0-.1-.1-.2-.2s-.2,0-.4,0h-.8c-.6,0-1.3,0-1.9,0,1.8-3.6,3.7-7.7,4.9-10.9,1.1-3.2,2.3-7.9,2.3-12.3,0-2.6-.4-5.2-1.6-7.4-.6-1.1-1.3-2-2.3-2.8-1-.8-2.2-1.4-3.6-1.7-.9-.2-1.8-.3-2.6-.3-2.1,0-4,.6-5.6,1.7-2.5,1.6-4.4,4.1-6.1,6.8s-3,5.6-4.2,8.1c-1.7,3.7-3.2,7.7-4.5,11.2-.6,1.7-1.2,3.3-1.6,4.6-.2,0-.3,0-.5,0-.2,0-.4,0-.6.2-.2.1-.3.3-.3.6h0c-.2,0-.4,0-.5,0,0-2.1-.2-5.5-.3-8.9,0-2.8-.2-5.7-.3-8s-.1-4-.2-4.4c0-.9-.3-4.6-1.8-8.3-.8-1.8-1.9-3.6-3.5-5-1.6-1.4-3.8-2.3-6.4-2.3s-1.2,0-1.8.1c-2.4.3-4.4,1.3-6,2.6-2.4,2-3.9,5-4.8,8.2s-1.2,6.9-1.2,10.3v.2c0,2.6.3,7.4.5,11.6,0,1.1.1,2.2.2,3.2h-.1c-.2,0-.5,0-.7,0-.2,0-.5,0-.7,0-.2,0-.5,0-.7,0h-.4s0,0,0,0h-.1s-.2,0-.2,0c-.4,0-.9.2-1.4.3-.5.1-1,.3-1.5.5-1.9.8-3.7,2-5,3.7-1.3,1.7-2.3,3.7-2.7,5.8-.4,2.1-.4,4.3.2,6.4l.2.8.3.7c.1.2.2.5.3.7l.4.7.2.3h0s0,.1,0,.1h0c0,0,.1.2.1.2l.5.6s0,0,0,0c-.3.5-.6,1.1-.8,1.7-4.2,8.7-6.1,17.7-6.1,25.8s.5,8.4,1.5,12.2c-1.4-2-2.6-3.8-3.6-5.2-.7-1.1-1.2-1.9-1.6-2.5-.2-.3-.3-.5-.4-.7,0,0,0,0,0,0,.6-1.1,1.6-2.8,2.5-4.4.5-.8.9-1.7,1.2-2.5s.6-1.5.6-2.2,0-.2,0-.3h0c0-.9-.5-1.8-1.1-2.6-.6-.7-1.6-1.3-2.7-1.3s-1.4.2-2.1.6c-.8.4-1.4,1.1-2,1.7-.8,1-1.4,2.1-2,2.8-.3.4-.5.7-.8.9-.2.2-.4.3-.5.3h0c-.1,0-.4-.2-.7-.5-.6-.5-1.3-1.3-2.1-2.2-1.2-1.4-2.5-3.2-3.7-4.7s-1.2-1.5-1.7-2.2c-.5-.6-1-1.2-1.4-1.6-.9-.9-2.2-1.3-3.5-1.3s-1.8.2-2.5.8c-.4.3-.6.7-.9,1.1s-.3,1-.3,1.6,0,.4,0,.5c.1,1,.5,2,1.1,2.9.9,1.4,2,2.8,2.9,3.9.5.6.9,1.1,1.1,1.5.1.2.2.3.3.4h0c-.2,0-.5,0-.9-.2-1.1-.3-2.7-1.2-3.9-2.3-.9-.8-2.1-1.8-3.4-2.5-1.2-.8-2.6-1.4-3.9-1.4-.8,0-1.5.2-2.1.8-.5.4-.9.9-1.1,1.4s-.4,1.1-.4,1.6c0,1,.4,2,1,2.9.6.9,1.5,1.8,2.5,2.5h0c1.3.9,2.7,1.8,3.7,2.7.5.4.9.8,1.2,1.1.1.2.2.3.3.4,0,0,0,.2,0,.2,0,0-.2,0-.4.1-.2,0-.6,0-1,0-.9,0-2.1-.1-3.2-.2-1.2-.1-2.4-.2-3.3-.2s-.6,0-.9,0c-1.8.2-3.2,1.7-3.2,3.4,0,.8.3,1.7,1,2.3.7.7,1.7,1.2,3,1.5,2.5.5,4.6,1.1,6.1,1.7s1.3.6,1.7.8c0,0,.1,0,.2.1h0c-.3.1-.7.3-1.3.4-.8.2-1.8.5-2.7.9-1,.4-1.9.9-2.6,1.7h0c-.6.6-1,1.4-1,2.2s.1.9.4,1.3c.4.6,1.1,1,1.9,1.3.8.3,1.9.4,3.2.4s1.3,0,2-.1c2.8-.3,4.8-.5,6.4-.7,3.8,4.9,10.8,13.2,18.6,20,8.6,7.5,16.4,12.8,21.8,16.1-.2.5-.3,1-.5,1.6-1.2,4-2.3,8.1-3.2,12.2-.5,2.1-.9,4.1-1.3,6.2l-.3,1.6v.8c-.2.2-.2.7-.1,1.1,0,.4.3.8.6,1.1.2.1.3.3.5.4.1,0,.2,0,.2.1h.2c.2.2.4.3.6.4-.3,1.2-.7,2.5-1.1,3.8-1.9,6.8-4,14.5-5.2,20,0,.2,0,.3,0,.5,0,.9.6,1.8,1.5,2.1,1.3.5,3.7,1.2,7.4,2-.2,3.9-.6,8.8-.9,13-.2,2.2-.3,4.2-.5,5.7,0,.8-.2,1.4-.2,1.9,0,0,0,0,0,.1-.2,0-.4.1-.7.2-1.3.6-2.2,1.4-2.7,2-.5.6-.8,1.1-.8,1.2-.1.3,0,.6.1.8,0,0,0,0,0,0-.8.7-1.7,1.3-2.5,2-.3.2-.5.4-.8.6-.2,0-.4-.2-.5-.2-.2,0-.4-.1-.6-.1-.5,0-.8.2-1.2.4-.5.3-1.1.8-1.6,1.3-.5.5-1,1.1-1.5,1.7-.5.5-.9,1.3-1.3,2.1-.4.9-.6,1.9-.6,2.9s0,0,0,.1,0,.6,0,1.4,0,1.4,0,2.1c0,.7.2,1.4.5,2,.2.5.6,1,1.2,1.5.8.7,1.9,1.4,3.2,2s3,1.1,4.9,1.3c2.2.3,4.4.5,6.8.5s5.8-.3,8.6-1.3c2.5-.9,5.1-2.1,7.2-3.3,1.1-.6,2-1.1,2.7-1.6.4-.2.7-.5.9-.6.3-.2.5-.4.6-.6.1-.1.2-.2.2-.3,0-.2.2-.4.2-.6.2-.8.3-1.8.5-2.7.1-.9.2-1.6.2-1.6,0,0,0-.1,0-.2.2-1.2.2-2.9.3-4.3,0-1.5,0-2.8,0-2.8,0-.3-.2-.6-.4-.7.5-6.5,1.3-16.3,1.8-23.6.9,0,1.9,0,2.9,0s2.3,0,3.4,0c.4,5.6.9,12.8,1.4,18.7.1,1.8.3,3.4.4,4.9-.3.1-.5.4-.4.7,0,0,0,1.9.2,3.8,0,1,.1,2,.2,2.8,0,.2,0,.3,0,.5,0,0,0,.1,0,.2,0,0,.1,1.1.3,2.3,0,.6.2,1.2.3,1.7,0,.3.1.5.2.7,0,.1,0,.2.1.3,0,.1,0,.2.2.3.2.2.4.4.6.6.9.7,2.5,1.7,4.5,2.7,1.9,1,4.2,2.1,6.4,2.9,2.8,1,5.7,1.3,8.6,1.3s4.6-.2,6.8-.5c2.5-.4,4.6-1.1,6.1-1.9s1.4-.9,2-1.4c.5-.5.9-1,1.1-1.5.3-.6.4-1.3.5-2,0-.7.1-1.5.1-2.1s0-1.4,0-1.4c0,0,0,0,0-.1,0-1.1-.3-2.1-.6-2.9-.4-.9-.8-1.6-1.3-2.1-.6-.8-1.3-1.5-2-2.1-.4-.3-.7-.6-1.1-.8-.4-.2-.8-.4-1.2-.4s-.4,0-.6.1c-.1,0-.3.1-.5.2-1-.8-2.2-1.7-3.3-2.6,0,0,0,0,0,0,.2-.2.2-.5.1-.8,0,0-.2-.5-.8-1.2-.5-.6-1.4-1.4-2.7-2-.2-.1-.4-.2-.7-.2-.1-.7-.2-1.8-.4-3.2-.4-4.6-.9-12.2-1.3-17.6,3.3-.7,5.6-1.4,6.9-1.9.9-.3,1.5-1.2,1.5-2.1s0-.3,0-.5c-1.3-6-3.7-14.6-5.7-21.8-.2-.9-.5-1.7-.7-2.5,0,0,0,0,.1,0,.2-.1.3-.2.5-.4.3-.3.5-.7.6-1.1.1-.4,0-.9,0-1.1v-.8c-.1,0-.4-1.6-.4-1.6-.4-2.1-.8-4.1-1.3-6.2-.9-4.1-2-8.2-3.2-12.2-.2-.5-.3-1-.5-1.6,5.4-3.3,13.2-8.6,21.8-16.1,7.9-6.8,14.8-15.1,18.6-20,1.6.2,3.6.4,6.4.7.7,0,1.4.1,2,.1,1.7,0,3-.3,4-.8.5-.3.9-.6,1.1-1,.3-.4.4-.9.4-1.3,0-.8-.4-1.6-1-2.2h0c-.6-.7-1.4-1.1-2.2-1.5-1.2-.5-2.5-.9-3.5-1.2-.4-.1-.8-.2-1-.4,0,0,0,0,0,0,.2-.2.6-.4,1-.6,1.4-.7,3.9-1.4,6.9-2,1.3-.3,2.3-.8,3-1.5s1-1.5,1-2.3c0-1.7-1.3-3.2-3.2-3.4h0ZM124.9,55.1h.3c0,.2,0,.4,0,.7,0,1,0,2.3-.2,3.4,0,.6-.1,1.1-.2,1.4,0,0,0,0,0,.1-.5,0-1.2,0-2.2-.1-1.6-.1-3.5-.3-5.2-.6-.8,0-1.5-.2-2.1-.3,0-.6,0-1.4,0-2.2s0-1,0-1.5c0-.2,0-.4,0-.5,2-.2,5.8-.5,9.7-.5h0ZM120,65.3c1.2,1.5,2.3,3,3.2,4.2h-.3c-.6,0-1.3,0-1.8,0-.3,0-.5,0-.7,0-.2,0-.2,0-.2,0-.3,0-.7.2-.8.5,0,0,0,.2-.2.6-.2.5-.5,1.2-.8,1.8-.2-.5-.6-1.1-.9-1.9-.9-1.9-1.9-4.3-2.8-6.4-.3-.8-.6-1.6-.9-2.2.4,0,.6,0,.6,0,.2,0,.4,0,.6-.2,0,0,0,0,.1-.2.6.1,1.3.2,2.1.3.8,1.1,1.8,2.3,2.8,3.6h0ZM101.3,46.5c1.2-3.5,2.8-7.4,4.4-11.1,1.5-3.3,3.4-7.3,5.8-10.4,0,0,0,0,0,0,1.4.1,4.2.6,8.3,2.5,4.1,1.9,7.4,4.2,8.8,5.2-.3,3.5-1.2,7-2.1,9.5-1.1,3-2.9,6.9-4.7,10.4-.2.4-.4.7-.5,1-3,.1-5.5.3-6.8.5,0,0,0,0,0,0-.4-.3-.9-.5-1.5-.7.2-.3.3-.5.5-.8,1.2-1.9,2.5-4.2,3.6-6.4,1.1-2.1,2-4.2,2.6-6,.6-1.9.9-3.5.9-4.9s0-1.4-.3-2c-.2-.6-.7-1.1-1.3-1.3-.3-.1-.6-.2-.9-.2s-.8,0-1.1.2c-.6.3-1.2.7-1.7,1.2-.8.8-1.5,1.7-2.2,2.7-.7,1-1.2,1.9-1.7,2.6-1.9,3.3-3.5,6.6-4.6,9.5-.6,1.5-1,2.9-1.4,4.1-1.7-.5-3.6-.9-5.7-1.2.4-1.3.9-2.7,1.5-4.3h0ZM108.9,60.6c.2.2.3.3.4.3.2.1.4.2.6.2.4,0,.8.2,1.3.2,0,0,.1,0,.2,0-1,1.6-2.7,4.3-4.3,6.7-.8,1.2-1.6,2.4-2.2,3.2,0,.1-.2.2-.2.3-.2-.4-.4-.9-.5-1.4-.2-.4-.3-.8-.4-1,0-.3-.2-.4-.2-.4-.1-.3-.4-.5-.7-.5h-.2c-.4,0-1.3,0-2.2-.2-.2,0-.4,0-.6-.1.5-.5,1.2-1.1,2-1.8,1.7-1.5,3.8-3.3,5.5-4.8.3-.3.7-.6,1-.8.1,0,.3,0,.4,0h0s0,0,0,0ZM106.9,52.5c.3-1.2.8-2.5,1.3-4,1.1-2.8,2.6-6.1,4.5-9.2.7-1.1,1.6-2.7,2.7-3.9.5-.6,1-1.2,1.5-1.5s.5-.3.7-.4c.2,0,.4-.1.5-.1s.2,0,.3,0c.2,0,.3.2.4.5.1.3.2.8.2,1.4,0,1.1-.3,2.6-.8,4.4-.6,1.8-1.4,3.7-2.5,5.8-1.3,2.5-2.8,5-4.1,7-.1.2-.3.4-.4.6-.2,0-.3,0-.4,0-.6,0-1.1,0-1.6.2,0,0,0,0,0,0-.6-.2-1.3-.5-2.2-.7h0ZM110.4,59.7h0c0-1.1-.1-3.7-.2-5,.2,0,.4,0,.6,0,.7,0,1.5.1,2,.3.3,0,.5.2.6.3s.2.2.2.3c0,0,0,0,0,.2,0,.4,0,1.1,0,1.9s0,1.6,0,2.2v.2c-.6,0-1.3-.1-2-.2-.5,0-1-.2-1.3-.2h0ZM98.4,52.2c2.8.3,5.6,1,7.7,1.7,1,.3,1.8.6,2.5.8,0,.5,0,1.4,0,2.2,0,.7,0,1.5,0,2.1-1.8-.1-4.1-.2-6.1-.4-1.4,0-2.6-.2-3.5-.3-.4,0-.7,0-.9-.2l.2-5.9h0ZM72.4,27c1.4-.6,4.3-1.7,9.5-2.5,5-.8,9.2-.9,10.9-.9.1.4.3.8.4,1.2.7,2.5.8,4.6.8,5.2,0,.4,0,2.1.2,4.4.1,3.4.3,8.2.4,12.2,0,1.8.1,3.4.2,4.6h-.4c-1.2,0-3.8,0-7.1.7,0-.3,0-.6,0-.9,0-2.2.1-4.7.1-6.8v-1.2c0-2-.1-5.7-.7-8.8-.3-1.6-.7-3.1-1.3-4.2-.3-.6-.7-1.1-1.2-1.5-.5-.4-1.1-.6-1.7-.6h0c-.5,0-.9.1-1.3.3-.7.4-1.2,1-1.6,1.7-.6,1.1-.9,2.4-1.1,3.9-.2,1.5-.3,3.1-.3,4.6s0,3.3.2,4.7c.2,2.7.7,5.7,1.2,8.3.2.8.3,1.7.5,2.4-.1,0-.3.1-.4.2,0,0-.2-.2-.3-.2-1-.8-2.3-1.5-3.8-2.1-.7-.3-1.6-.5-2.4-.7-.3,0-.6,0-.9-.1-.3-4.6-.7-11.6-.7-14.9v-.2c0-3,.2-6,.9-8.8h0ZM85.8,44.3c0,2,0,4.5-.1,6.7,0,.4,0,.8,0,1.2-1.2.3-2.6.6-4,1.1-.2-.7-.3-1.5-.5-2.2-.5-2.6-.9-5.5-1.2-8.1-.1-1.3-.2-2.9-.2-4.6s.2-4.7.7-6.4c.2-.9.6-1.5.9-2,.2-.2.4-.4.6-.5.2,0,.4-.1.6-.1h0c.3,0,.5,0,.7.3.2.2.4.4.7.8.4.6.7,1.6.9,2.6.4,1.6.6,3.5.7,5.3s.2,3.5.2,4.6v1.2h0ZM59.5,68.4l-.3-.6-.2-.7c-.5-1.8-.5-3.7,0-5.6.4-1.9,1.2-3.6,2.3-5.1,1.1-1.5,2.7-2.6,4.2-3.2.4-.1.8-.3,1.2-.4.5,0,.9-.2,1.4-.3h.2s0,0,0,0h.4c.2,0,.4,0,.6,0h.6c.2,0,.4,0,.6,0,1.7,0,3.2.3,4.5.8,1.3.5,2.5,1.2,3.5,1.8.9.7,1.7,1.4,2.3,2,.6.6,1.1,1.1,1.4,1.4.3.3.5.5.5.5h0c.1.1.3.2.4.1.2,0,.3-.3.2-.5,0,0,0,0,0-.2s-.1-.3-.3-.5c-.2-.4-.6-1-1.2-1.8-.2-.3-.5-.5-.8-.8,6.2-2.2,11.4-2.3,13.2-2.3h0c.5,0,1.4,0,2.4,0l-.2,5.7c0,0,0,.2,0,.3,0,.2.2.3.3.4.2.2.3.2.5.3.3,0,.6.2,1,.2,1.4.2,3.6.4,5.9.5.7,0,1.3,0,2,.1-.5.4-1,.9-1.6,1.3-1.3,1.1-2.6,2.2-3.7,3.2-1.1,1-2.1,1.9-2.6,2.4,0,0-.2.2-.2.3,0,.1-.1.3-.1.4s0,.4.2.6c.2.3.4.4.6.5.4.2.8.2,1.2.3.8.2,1.8.2,2.3.3.1.4.3.9.6,1.5.2.5.4,1,.6,1.4,0,.2.2.4.2.5,0,0,0,.1,0,.2h0c0,0,0,.2.1.2s.2.2.3.2c0,0,.2,0,.3,0,.3,0,.3,0,.4-.1.1,0,.2-.1.2-.2,0,0,.2-.2.3-.3.4-.5,1-1.4,1.8-2.5,1.2-1.7,2.6-3.8,3.8-5.7.5-.8,1-1.6,1.4-2.3.7,1.8,1.7,4.2,2.7,6.2.6,1.4,1.2,2.7,1.7,3.6.1.2.2.5.3.7,0,0,0,0,0,0-.2.2-.3.5-.5.7-.2.2-.4.5-.6.7-.4.5-.9.8-1.5,1.2-.3.2-.6.3-.9.4l-.5.2c-.2,0-.3.1-.5.2h-.6c0,.1-.3.2-.3.2h-.2s-1.1.1-1.1.1c-.4,0-.7,0-1.1,0h-1.1c-.3-.2-.7-.2-1-.3-.3-.1-.7-.2-.9-.3-.3-.2-.6-.3-.8-.5-.3-.2-.5-.3-.8-.6-.2-.2-.4-.4-.6-.6-.2-.2-.4-.4-.5-.7-.2-.2-.3-.4-.4-.7-.1-.2-.2-.4-.3-.6,0-.2-.2-.4-.2-.6,0-.2-.2-.3-.2-.5-.2-.3-.3-.5-.4-.7,0-.2-.2-.2-.2-.2,0,0-.1-.1-.2-.2-.2,0-.5,0-.6.2h0s0,.1,0,.3c0,.2,0,.5,0,.9,0,.4.2.8.4,1.3,0,.2.2.4.3.7-.2.1-.4.3-.7.6-.3.3-.6.6-1,1-.4.4-.8.8-1.4,1.1-.3.2-.6.4-.9.5-.3.2-.6.3-1,.5-.3.1-.7.3-1.1.4-.2,0-.4.1-.6.2-.2,0-.4,0-.6.1-.2,0-.4,0-.6,0s-.4,0-.6,0c-.4,0-.8,0-1.3,0-.8,0-1.8-.1-2.6-.3-.9-.2-1.7-.4-2.5-.7-.8-.3-1.5-.7-2.2-1.2-.6-.5-1.1-1-1.5-1.6-.4-.6-.6-1.2-.8-1.8-.3-1.2-.2-2.3-.2-3.1s0-.7,0-.9c0-.2,0-.3,0-.3,0-.2,0-.4,0-.5-.2-.1-.4-.1-.5,0l-.2.2s-.4.4-.6,1.3c-.1.4-.2,1-.2,1.6v.4h0s-.2,0-.7.2c-.2,0-.5.2-.8.3-.3.1-.7.2-1.1.4-.2,0-.4.2-.6.2-.2,0-.5.1-.7.2-.2,0-.5.2-.8.2-.3,0-.6.1-.8.2-1.2.3-2.5.5-3.9.5-1.5,0-3-.1-4.6-.5-1.6-.4-3.2-1.1-4.6-2.2-.3-.3-.6-.5-1-.8l-.5-.6h-.1c0-.1,0-.2,0-.2h0s-.2-.3-.2-.3l-.3-.6c-.1-.2-.2-.4-.3-.6h0ZM60.3,74.2c.2-.4.4-.8.7-1.3,1.6,1.2,3.4,1.9,5.2,2.4.4.1.8.2,1.3.3-.3.3-.5.6-.7.9-.2.3-.5.6-.6.9,0,.1,0,.3,0,.4,0,0,0,.2,0,.2,0,.2.2.3.4.3h.3c0,0,0,0,.1,0s.2,0,.3,0c.1,0,.2-.2.3-.3,0-.1.2-.2.3-.4.4-.5,1.1-1.1,1.8-1.7.5,0,1.1,0,1.6,0,1.6,0,3-.3,4.3-.6.3,0,.6-.2.9-.2.3,0,.6-.2.8-.3.3,0,.5-.2.8-.3.2,0,.4-.2.7-.3.4-.2.8-.4,1.1-.6s.5-.4.7-.5c.1,0,.2-.2.3-.3,0,.2,0,.5.1.8.2.8.5,1.6.9,2.3.5.8,1.1,1.5,1.9,2.1.8.6,1.7,1.1,2.6,1.4.9.3,1.9.6,2.8.8,1,.1,1.9.3,2.9.3s.9,0,1.4,0c.2,0,.5,0,.7,0,.2,0,.5,0,.7-.1.2,0,.5,0,.7-.1.2,0,.4-.1.7-.2.4-.1.8-.3,1.2-.5.4-.2.8-.4,1.1-.6.3-.2.7-.4,1-.6.6-.4,1.1-.9,1.6-1.3.4-.4.8-.8,1-1.2,0-.1.1-.2.2-.3.1.2.3.4.5.6.2.3.5.5.8.8.3.3.6.5.9.7.3.2.7.4,1.1.6.4.2.8.3,1.2.4.4.2.8.2,1.2.3h.6c.2.1.4.1.6.1.4,0,.9,0,1.3,0,.4,0,.8,0,1.3-.1h.2s0,0,0,0h0s0,0,0,0h0s.3,0,.3,0h.6c.2-.2.4-.2.6-.3.2,0,.4-.2.6-.2.4-.2.8-.4,1.1-.6.7-.5,1.3-1,1.8-1.5.3-.3.5-.6.7-.8,0,0,0,0,0,0,.3.2.5.4.8.6.8.7,1.5,1.3,2.1,1.9.1.1.2.3.3.4,0,.1.2.2.3.3.1,0,.2,0,.3,0,0,0,.1,0,.1,0h.3c.2,0,.3-.2.4-.4,0,0,0,0,0-.2,0,0,0-.2,0-.4,0-.3-.3-.5-.6-.9-.3-.3-.6-.7-.9-1.1-.4-.4-.8-.8-1.2-1.1-.2-.2-.4-.3-.6-.4,0,0,0,0,0,0,.3-.5.6-1.3.9-2,.1-.3.2-.5.3-.7.6,0,1.4,0,2.2,0s.9,0,1.3,0c.2,0,.4,0,.6-.2,0,0,.2-.1.3-.2.1-.1.2-.4.2-.6s0-.4-.2-.6c-1.1-1.6-3.4-4.5-5.3-7,0,0,0,0,0,0,3.3,2.9,6.3,6.8,8.8,11.9,4.1,8.5,6,17.2,6,25.1s-2.7,18.1-7.4,23.7c-2.9,3.4-6.5,6.6-11.7,9s-11.9,3.9-20.9,3.9-15.7-1.6-20.9-3.9c-5.2-2.4-8.8-5.6-11.7-9-4.7-5.6-7.4-14.1-7.4-23.7s1.9-16.6,6-25.1h0ZM103.2,143.7h0c0,.1.1,1,.1,1l.2,1.7.5,3.4.5,3.8.4,3,.6,4.5,1.3,9.6c-4.2.2-8.4.4-11.4.4s-7.9-.2-12.5-.5l1.5-10.6.5-3.5.4-2.6.6-4.2.5-3.4.2-1.7v-.9c.1,0,.1-.1.1-.1h0c0-.3,0-.4,0-.6,0-.2-.2-.5-.3-.7-.2-.2-.4-.4-.6-.5-.1,0-.2-.1-.4-.1h-.2c-.3-.1-.5-.2-.8-.3-.5-.2-1-.4-1.5-.6-1-.5-1.8-1.1-2.7-1.8-.8-.7-1.6-1.5-2.3-2.3-.5-.6-.9-1.2-1.2-1.8,1.1.4,2.2.7,3.4,1,3.7,3,8.9,4.9,15.2,4.9s7-.7,9.9-2.1c1.8-.9,3.5-1.9,5.1-3.3,1-.3,2-.6,3-1-.3.8-.9,1.6-1.4,2.3-.7.8-1.5,1.6-2.3,2.3s-1.7,1.3-2.7,1.8c-.5.2-1,.4-1.5.6-.3,0-.5.1-.8.2h-.2c-.1,0-.2.1-.4.2-.2.1-.4.3-.6.5-.2.2-.3.4-.3.7,0,.1,0,.2,0,.4h0c0,.1,0,.2,0,.2ZM107.1,172.3l.2,1.6c-3.5.2-7.6.4-11.8.4s-9.2-.2-12.9-.5l.2-1.6c4.7.3,9.4.5,12.7.5s7.3-.1,11.6-.4ZM84.3,136.8c3,.5,6.3.7,10,.7s8.4-.4,11.8-1c-.5.3-1.1.6-1.6.8-2.7,1.3-5.7,1.9-9.3,1.9s-8-.9-11-2.5h0ZM23.1,119.7c-.7,0-1.3,0-1.9,0-1.5,0-2.6-.3-3.2-.6-.3-.2-.5-.3-.6-.5-.1-.2-.1-.3-.1-.4,0-.3.1-.7.5-1.1.4-.4,1-.8,1.7-1.1,1-.5,2.3-.8,3.3-1.1.5-.2,1-.3,1.4-.5.2-.1.4-.2.6-.4.2-.2.3-.5.3-.8h0c0-.4-.2-.7-.4-.9-.3-.4-.8-.7-1.3-1-.8-.4-1.9-.8-3.2-1.2-1.3-.4-2.8-.8-4.5-1.1-1.1-.2-1.8-.6-2.2-1.1s-.6-.8-.6-1.2c0-.8.7-1.7,1.8-1.8.2,0,.5,0,.8,0,.9,0,2,.1,3.2.2s2.4.2,3.4.2,1.1,0,1.5-.2c.2,0,.5-.1.7-.3.2-.1.4-.3.6-.6h0c.1-.2.2-.5.2-.7s0-.6-.2-.9c-.2-.4-.5-.8-.9-1.2-.6-.6-1.3-1.1-2.2-1.7-.8-.6-1.7-1.2-2.5-1.8h0c-.9-.6-1.6-1.3-2.1-2.1s-.7-1.4-.7-2.1,0-.6.2-.9c.1-.3.4-.6.7-.9h0c.3-.3.7-.4,1.1-.4.8,0,1.9.4,3.1,1.2,1.1.7,2.2,1.6,3.2,2.4.9.8,2,1.5,3,2,.5.2,1,.4,1.5.6s.9.2,1.3.2.6,0,.9-.2c.3-.1.6-.4.7-.7h0c0-.2.1-.4.1-.6,0-.4-.2-.7-.3-1-.3-.5-.8-1.1-1.3-1.8-.8-1-1.8-2.1-2.5-3.2-.4-.6-.7-1.1-1-1.6s-.4-1-.4-1.4c0-.1,0-.3,0-.4,0-.4,0-.7.2-.9.2-.3.4-.6.7-.8.3-.2.7-.3,1.2-.3.9,0,1.8.3,2.4.9.5.5,1.3,1.5,2.3,2.6,1.4,1.7,3,3.9,4.4,5.7.7.9,1.4,1.7,2.1,2.2.3.3.6.5.9.7.3.2.6.3,1,.3h.1c.4,0,.7-.2,1-.4.5-.3.9-.8,1.3-1.3.5-.8,1-1.6,1.6-2.4s1.2-1.5,1.9-1.8c.5-.3,1-.4,1.3-.4.6,0,1.1.3,1.5.7.4.4.7,1.1.7,1.7h0c0,.4-.2,1-.4,1.7-.4,1.1-1.2,2.3-1.9,3.6s-1.5,2.4-1.9,3.4c-.7,1.3-1.1,2.8-1.8,4.4-.7,1.6-1.5,3.3-3,5l.6.5-.6-.5c-1.4,1.6-2.5,2.8-3.6,3.8-1.2.9-2.4,1.7-4.2,2.3-1.6.6-2.8.9-4.5,1.1-1.7.2-3.7.4-6.9.8h0ZM66.8,180.1c0,0-.1,0-.1,0h-.1c0-.2-.1-.3-.2-.4,0-.1,0-.2,0-.4v-.8c.1,0,.4-1.5.4-1.5.4-2.1.8-4.1,1.3-6.1.9-4.1,2-8.1,3.1-12.1.3-1,.6-2,.9-3l.9-3c.3-1,.6-2,.9-3,.3-1,.6-2,.8-3.1,0-.2,0-.4-.2-.5-.2-.1-.4,0-.5.2-.5.9-.9,1.9-1.3,2.9-.4,1-.8,2-1.1,3-.3,1-.7,1.9-.9,2.9-5.3-3.3-12.9-8.4-21.3-15.7-5.9-5.1-11.3-11.1-15.2-15.8-1-1.2-1.9-2.3-2.7-3.3,1.2-.2,2.3-.6,3.6-1,2-.7,3.4-1.6,4.7-2.6,1.3-1.1,2.4-2.3,3.8-3.9,1.6-1.9,2.6-3.7,3.3-5.4.4-1,.7-1.9,1-2.7,1.2,1.9,3.8,6.1,7.4,10.7.3.3.5.7.8,1,1.2,2.8,2.7,5.4,4.5,7.5,3,3.6,6.8,6.9,12.3,9.4.9.4,1.8.8,2.8,1.2.2,1.1.7,2.1,1.3,3,.7,1,1.5,1.9,2.4,2.7.9.8,1.9,1.5,3,2s1.1.5,1.7.7c.3.1.6.2.9.3h.2c0,0,0,0,0,0h0c0,0,0,.1,0,.1h0c0,0,0,.2,0,.2v.9c-.1,0-.4,1.7-.4,1.7l-.5,3.4-1,6.8-3.8,26.5c-.2,0-.5,0-.7,0-.5,0-1,0-1.5-.1-1-.1-2-.3-3.1-.5-2-.4-4-.9-5.9-1.5-.5-.2-.9-.4-1.4-.6h-.2c0,0,0-.1,0-.1ZM65.9,235.6s0,0,0,0c.3,0,.6.1.9.2.4.1.9.3,1.3.5.1,0,.3.1.4.2.6.3,1.2.6,1.8,1,.5.3.9.6,1.4.9.4.2.7.5,1,.8.4.3.8.6,1.1.9.5.4.9.8,1.2,1,.2.1.3.2.3.3h0c.4.3.7.7.8.9,0,0,0,0,0,0-.1,0-.2.2-.4.3-.5.3-1.2.8-1.9,1.1-.7.3-1.5.6-2.1.6h-.2c-.2,0-.4,0-.6,0-.2,0-.4-.1-.6-.2-.3-.1-.6-.3-1-.5-.4-.2-.8-.5-1.2-.8-.4-.3-.8-.6-1.3-.9-.3-.2-.7-.5-1-.7-.1,0-.3-.2-.4-.2-.6-.4-1.2-.7-1.8-1.1-.5-.3-.9-.5-1.3-.8,0,0-.1,0-.2-.1-.2-.1-.4-.2-.6-.3,1.3-1,2.7-2.1,3.9-3.1h0ZM88.9,246.7c0,.5-.2,1-.2,1.3,0,.2,0,.3-.1.4h0c0,.1-.2.2-.4.4-.8.6-2.3,1.6-4.2,2.6-1.9,1-4.1,2.1-6.2,2.8-2.6.9-5.3,1.2-8.1,1.2s-4.4-.2-6.5-.5c-2.3-.3-4.2-1-5.6-1.8-.7-.4-1.2-.8-1.7-1.2s-.7-.7-.8-1c-.2-.3-.3-.9-.3-1.6,0-.3,0-.5,0-.8,1.5,1.6,4.1,3.1,7.7,3.7,2.3.4,4.5.6,6.7.6,3.2,0,6.4-.5,9.6-1.6,2.9-1,5.9-2.7,8.1-4.1.9-.6,1.6-1.1,2.2-1.5,0,.3,0,.6-.1.9h0ZM89.4,242.1c0,.6,0,1.2-.2,1.6-.6.4-1.9,1.4-3.7,2.5-2.1,1.3-4.8,2.8-7.4,3.7-3,1.1-6,1.5-9,1.5s-4.2-.2-6.5-.6c-2.5-.4-4.4-1.3-5.7-2.3-.7-.5-1.2-1-1.6-1.4-.3-.4-.5-.7-.7-1h0c0-.9.2-1.7.5-2.4.3-.7.7-1.3,1.1-1.7.6-.7,1.3-1.5,1.9-2,.3-.3.6-.5.8-.6.2-.1.4-.2.4-.2h0c.2,0,.6.2,1,.5,1.4.7,3.5,1.9,5,2.9.9.6,1.9,1.4,3,2.1.5.4,1.1.7,1.7.9s1.2.4,1.8.4.2,0,.3,0c1.2-.1,2.4-.6,3.4-1.2.5-.3.9-.6,1.3-.8.4-.2.7-.4.8-.6l-.4-.6.4.6c.2-.1.3-.2.3-.4,0-.2,0-.3,0-.4,0-.3,0-.5-.2-.6-.1-.3-.3-.6-.5-.8s-.5-.6-.8-.9c-.5-.4-2.2-2-4.3-3.4-1.1-.7-2.3-1.4-3.5-2-1-.4-1.9-.7-2.9-.8.4-.4,1-.9,1.8-1.3.2-.1.5-.2.9-.2.9,0,2.3.3,3.6.9,1.4.6,2.7,1.4,3.8,2.2,1.2.9,2.4,2.2,3.5,3.3.6.6,1,1.1,1.4,1.5.2.2.4.4.5.5s.3.3.4.4c.1,0,.3.1.4.2.1,0,.2,0,.3,0,.3,0,.6,0,.9-.2.6-.2,1.2-.4,2-.8,1.1-.5,2.3-1.1,3.3-1.7.2-.1.5-.3.7-.4,0,1,0,2.4-.2,3.6h0ZM89.6,231.2c-.2,2.1-.3,4.1-.5,5.7-.3.2-.8.5-1.3.8-.5.3-1.1.6-1.7.9-.5.2-1,.5-1.4.7-.1,0-.3.1-.4.2-.3.1-.7.3-.9.4-.2,0-.3.1-.5.1,0,0,0,0,0,0,0,0,0,0-.1-.1-.5-.4-1.4-1.4-2.4-2.4-.1-.1-.3-.3-.4-.4-.4-.4-.8-.7-1.1-1.1-.6-.5-1.1-1-1.7-1.5-.2-.2-.4-.3-.6-.5-.4-.3-.9-.6-1.3-.9-.7-.4-1.4-.8-2.2-1.1-.1,0-.3-.1-.4-.2-.5-.2-1-.4-1.5-.5-.6-.2-1.1-.3-1.7-.3,0-.7.2-1.6.3-2.7.4-3.7.8-9.4,1.1-14.3.3.1.6.3,1.1.4.2,0,.4.1.6.2.4.1,1,.3,1.6.4.9.2,2.1.3,3.4.4.5,0,1,0,1.6,0,.3,0,.7,0,1.1,0h0c.8,0,1.5,0,2.2,0,.6,0,1.1,0,1.6-.1,1.2-.1,2.3-.3,3.2-.5.6-.1,1.1-.3,1.6-.4.9-.3,1.7-.6,2.2-.8-.4,5.4-.9,12-1.3,17.6h0ZM70.8,212.3c0-.6,0-1.1,0-1.6,4.5.8,10.5,1.6,18.5,1.8-1.8.6-4.9,1.4-9.4,1.4h0c-3.9,0-6.3-.5-7.7-1-.7-.2-1.2-.5-1.4-.6,0,0,0,0,0,0h0ZM136.7,249.4c0,.6-.2,1.2-.3,1.6-.1.2-.4.6-.8,1-.6.6-1.6,1.2-2.8,1.7-1.2.5-2.7,1-4.5,1.2-2.1.3-4.3.5-6.5.5s-5.5-.3-8.1-1.2c-2.4-.8-4.9-2.1-7-3.2-1-.6-1.9-1.1-2.6-1.6-.3-.2-.6-.4-.8-.6-.2-.1-.3-.2-.4-.3,0,0,0-.1,0-.2,0-.3-.2-.7-.2-1.1,0-.4-.1-.9-.2-1.3.6.4,1.4.9,2.2,1.5,2.2,1.4,5.2,3.1,8.1,4.1,3.2,1.1,6.3,1.6,9.6,1.6s4.4-.2,6.7-.6c2.7-.5,4.8-1.4,6.4-2.6.5-.4,1-.8,1.4-1.2,0,.3,0,.5,0,.8h0ZM129.3,238.6c0,0,.1.1.2.1-.2.1-.4.2-.6.3-.5.3-1,.6-1.5.9-.6.4-1.2.7-1.8,1.1-.1,0-.3.2-.4.2-.3.2-.7.4-1,.7-.7.5-1.4,1-2,1.4-.1,0-.3.2-.4.3-.3.2-.7.4-1,.5-.2,0-.4.2-.6.2s-.4,0-.6,0h-.2c-.8,0-1.9-.5-2.8-1-.4-.2-.9-.5-1.2-.7-.2-.1-.3-.2-.4-.3,0,0,0-.1.1-.2.2-.2.4-.5.8-.8h0c0,0,.2-.2.3-.3.3-.3.7-.6,1.2-1,.6-.5,1.4-1.1,2.2-1.6.1,0,.3-.2.4-.3.3-.2.7-.4,1-.6.6-.4,1.2-.7,1.8-1,.1,0,.3-.1.4-.2.4-.2.9-.4,1.3-.5.3,0,.6-.2.9-.2,1.2,1,2.5,2,3.8,3h0ZM123.8,232.7c.8.4,1.4.9,1.8,1.3-1,.1-2,.4-2.9.8-1.8.8-3.6,2-5,3s-2.5,2-2.8,2.3h0c-.4.4-.8.8-1,1.1-.1.2-.2.4-.3.6,0,.2-.2.4-.2.6s0,.3,0,.4.2.3.3.4l.4-.6-.4.6c.2.1.4.3.8.6.6.4,1.3.8,2.1,1.2.8.4,1.7.7,2.6.8,0,0,.2,0,.3,0,.6,0,1.2-.2,1.8-.4.9-.4,1.7-.9,2.4-1.5.8-.6,1.5-1.1,2.2-1.6,1-.6,2.3-1.4,3.4-2,.6-.3,1.1-.6,1.6-.8s.8-.4,1-.5h0c0,0,.2,0,.4.2.3.2.8.6,1.2,1s.9,1,1.4,1.6c.4.4.8,1,1.1,1.7s.5,1.5.5,2.3h0c-.1.4-.3.8-.7,1.1-1.2,1.4-3.6,3.1-7.3,3.7-2.2.4-4.4.6-6.4.6-3.1,0-6-.4-9-1.5-2.8-1-5.6-2.6-7.8-3.9-1.1-.7-2-1.3-2.6-1.8-.3-.2-.5-.4-.7-.5-.1-1-.2-2.6-.3-3.9,0-.5,0-.9,0-1.3.9.6,2.2,1.2,3.3,1.8.7.3,1.4.6,2,.9.3.1.6.2.8.3s.5.1.7.1.2,0,.3,0c.1,0,.2,0,.4-.2.2-.1.3-.2.4-.4.6-.5,1.4-1.4,2.4-2.4s2.1-2.1,3.1-2.9c1.1-.9,2.4-1.7,3.8-2.2s2.7-.9,3.6-.9.7,0,.9.2h0ZM122.2,231c-.5,0-1.1.2-1.7.3-.5.1-1,.3-1.5.5-.1,0-.3.1-.4.2-.8.3-1.5.7-2.2,1.1-.5.3-.9.6-1.3.9-.2.1-.4.3-.6.5-.6.4-1.1,1-1.7,1.5-.4.4-.8.7-1.1,1.1-.3.3-.6.6-.8.8-.6.6-1.1,1.1-1.4,1.5-.2.2-.4.4-.5.5,0,0,0,0-.1.1,0,0-.2,0-.3,0-.3,0-.7-.2-1.2-.4-.2,0-.4-.2-.6-.3-.4-.2-.8-.4-1.3-.6-.7-.3-1.3-.7-1.9-1-.4-.2-.7-.4-1-.6-.5-6.1-1.2-15.8-1.8-23.3.6.2,1.3.5,2.2.8.5.1,1,.3,1.6.4.9.2,2,.4,3.2.5.5,0,1,.1,1.6.1.7,0,1.4,0,2.2,0h0c.4,0,.7,0,1.1,0,.6,0,1.1,0,1.6,0,1.3,0,2.4-.2,3.4-.4.6-.1,1.1-.2,1.6-.4.2,0,.4-.1.6-.2.4-.1.8-.3,1.1-.4.2,2.9.4,6.1.6,9.1.2,2.3.4,4.4.5,6,0,.8.2,1.4.2,1.9h0ZM120.7,212.3c-.3.2-.8.4-1.7.7-1.4.5-3.8.9-7.5.9h0c-3.9,0-6.8-.6-8.6-1.2-.3,0-.5-.2-.8-.3,8-.3,14.1-1.1,18.5-1.9,0,.6,0,1.1.1,1.7h0ZM128.9,206.1h0c0,.4-.2.7-.5.8-1.2.4-3.3,1.1-6.5,1.8-.5,0-1.1.2-1.4.3-4.7.9-11.3,1.7-20.2,2-.6,0-.9,0-1.3,0-1.1,0-2.3,0-3.5,0s-2,0-2.9,0c-.6,0-.8,0-1.3,0-17-.4-25.8-3-28.7-4.1-.3-.1-.5-.4-.5-.6h0c1.3-6,3.7-14.7,5.7-21.8.2-.7.4-1.3.6-2,1.9.6,3.7,1.1,5.6,1.4,1.1.2,2.1.4,3.2.5.5,0,1.1.1,1.6.1.3,0,.6,0,.9,0s.3,0,.5,0c0,0,.2,0,.3,0,.1,0,.3,0,.6-.3.1-.1.2-.3.2-.4h0c0,0,1.2-8.3,1.2-8.3,3.8.3,8.3.5,13.2.5s8.4-.2,12-.4l1.1,8.2h0c0,.2.1.4.2.5.3.3.4.3.6.3.1,0,.2,0,.3,0,.2,0,.3,0,.5,0,.3,0,.6,0,.9,0,.6,0,1.1,0,1.6-.1,1.1-.1,2.1-.3,3.2-.5,2.1-.4,4.2-.9,6.2-1.6.1,0,.2,0,.4-.1.4,1.3.8,2.6,1.2,4.1,1.9,6.8,4,14.5,5.2,19.9h0ZM140.6,139.4c-8,6.9-15.2,11.9-20.5,15.2-.3.2-.5.3-.8.5-.3-1-.6-1.9-.9-2.9-.3-1-.7-2-1.1-3-.4-1-.8-1.9-1.3-2.9,0-.2-.3-.3-.5-.2-.2,0-.3.3-.3.5.2,1,.5,2,.8,3.1.3,1,.6,2,.9,3l.9,3c.3,1,.6,2,.9,3,1.2,4,2.2,8.1,3.1,12.1s.9,4.1,1.3,6.1l.3,1.5v.8c.2.3.2.3.1.4,0,.1,0,.2-.2.3h-.1c0,0,0,.1-.1.2h-.2c-.4.3-.9.5-1.4.6-1.9.7-3.9,1.1-5.9,1.5-1,.2-2,.4-3.1.5s-1,.1-1.5.1c-.2,0-.5,0-.7,0l-3.8-26.5-1-6.8-.5-3.4-.2-1.7v-.9c-.1,0-.1-.1-.1-.1h0c0,0,0-.1,0-.1h0c0,0,0,0,0,0h.2c.3-.1.6-.2.9-.3.6-.2,1.1-.4,1.7-.7,1.1-.6,2.1-1.2,3-2s1.7-1.7,2.4-2.7c.7-1,1.2-2.1,1.3-3.4.2,0,.3,0,.4-.1.5-.1.9-.3,1.2-.4s.3-.1.5-.2c.2,0,.3-.1.4-.2h0c.9-.6,1.8-1.2,2.7-1.8,3.6-2.2,6.3-4.8,8.6-7.5.9-1,1.7-2.2,2.4-3.4,1.5-1.7,2.8-3.5,4.1-5.2,3.5-4.7,6.2-8.8,7.4-10.7.3.8.6,1.7,1,2.7.7,1.7,1.7,3.5,3.3,5.4,1.4,1.6,2.5,2.9,3.8,3.9,1.3,1.1,2.7,1.9,4.7,2.6,1.3.5,2.4.8,3.6,1-3.9,4.9-10.5,12.7-17.9,19.1h0ZM176.3,107.9c-.4.4-1.1.8-2.2,1.1-2.5.6-4.7,1.1-6.3,1.7-.8.3-1.5.6-2,1-.3.2-.5.4-.7.6-.2.2-.3.5-.4.9h0c0,.3,0,.5.2.7.2.3.4.5.7.6.4.2.9.4,1.5.6.8.3,1.8.5,2.7.9s1.7.8,2.2,1.3c.4.4.6.8.6,1.1s0,.3-.1.4c-.1.2-.5.5-1.1.7-.6.2-1.5.4-2.7.4s-1.2,0-1.9,0c-3.2-.3-5.3-.5-6.9-.8s-2.9-.6-4.5-1.1c-1.8-.7-3.1-1.4-4.2-2.3-1.1-.9-2.2-2.2-3.6-3.8l-.6.5.6-.5c-1.5-1.7-2.4-3.4-3-5-.7-1.6-1.1-3.1-1.8-4.4-.6-1.3-1.7-3-2.6-4.6-.5-.8-.9-1.6-1.2-2.3-.3-.7-.4-1.3-.4-1.6h0c0-.7.3-1.3.7-1.8.4-.4.9-.7,1.5-.7s.8,0,1.4.4c.6.3,1,.8,1.5,1.3.7.8,1.3,1.9,1.9,2.8.3.4.6.9,1,1.2.4.3.9.6,1.4.7h.1c.3,0,.5,0,.7-.2.4-.2.8-.5,1.2-.8.7-.6,1.4-1.5,2.2-2.4,1.2-1.4,2.5-3.2,3.7-4.7s1.1-1.5,1.6-2.1c.5-.6.9-1.1,1.3-1.4.6-.6,1.6-.9,2.4-.9s1.1.2,1.5.5c.2.2.3.3.4.6.1.2.2.5.2.9s0,.2,0,.4c0,.6-.4,1.4-.9,2.2-.8,1.3-1.9,2.6-2.8,3.8-.5.6-.9,1.1-1.2,1.6-.2.2-.3.5-.4.7-.1.2-.2.5-.2.8s0,.4.1.6c.2.3.4.5.7.7.3.1.6.2.9.2.4,0,.9,0,1.3-.2,1.4-.4,3.1-1.4,4.5-2.6.9-.8,2-1.7,3.2-2.4s2.3-1.2,3.1-1.2c.5,0,.8.1,1.1.4.3.3.5.6.7.9.1.3.2.6.2.9,0,.6-.2,1.3-.7,2.1-.5.7-1.2,1.4-2.1,2.1h0c-1.3.9-2.7,1.8-3.8,2.7-.6.4-1,.9-1.4,1.3-.2.2-.4.5-.5.7s-.2.5-.2.9,0,.5.2.7h0c.1.3.3.5.6.6.3.2.7.3,1,.3.4,0,.8,0,1.2,0,1,0,2.2-.1,3.4-.2,1.2-.1,2.3-.2,3.2-.2s.6,0,.8,0c1.1.1,1.8,1,1.8,1.8,0,.4-.1.8-.6,1.2h0Z"/>
          <polygon points="171.6 99.2 171.6 99.2 171.6 99.2 171.6 99.2"/>
          <polygon points="164.8 113.1 164.8 113.1 164.8 113.1 164.8 113.1"/>
          <polygon points="142.8 102.3 142.8 102.3 142.8 102.3 142.8 102.3"/>
          <polygon points="16.3 90.8 16.3 90.8 16.3 90.8 16.3 90.8"/>
          <polygon points="47.1 102.3 47.1 102.3 47.1 102.3 47.1 102.3"/>
          <path d="M63.3,93.2c.4,0,.8.1,1.1.1-.4,2.2-.6,4.3-.5,6.1,0,.9.1,1.8.2,2.6,0,.8.2,1.4.4,2,.2.5.3.9.5,1.2.1.3.2.4.2.4,0,.1.2.2.3.2.2,0,.4-.2.4-.4h0s0-.2,0-.5c0-.3,0-.7,0-1.2-.1-1-.4-2.5-.4-4.3,0-1.8.1-3.9.6-6,.5-2.2,1.3-4.4,2.7-6.2.7-.9,1.5-1.7,2.4-2.3.4-.3.9-.5,1.4-.7.1,0,.2,0,.3-.1h.4c.2-.1.5-.2.7-.2.5,0,1,0,1.5,0,.5,0,.9.2,1.3.4.6.3,1.1.7,1.6,1.2-.3,0-.7-.1-1-.1-1,0-1.9.4-2.7,1-1.2,1-2.1,2.5-2.8,4.4-.7,1.9-1.1,4.3-1.2,6.9,0,.4,0,.8,0,1.2,0,3,.5,5.7,1.5,7.8.5,1,1.1,1.9,1.9,2.5.8.6,1.7,1,2.7,1s2-.4,2.8-1.1c1.2-1,2.2-2.6,2.9-4.6.7-1.9,1.1-4.3,1.1-6.8s-.4-6.5-1.3-8.7c0,0,0-.1,0-.2-.1-.5-.3-1.1-.6-1.7-.3-.7-.8-1.5-1.4-2.3-.6-.8-1.4-1.6-2.5-2.1-.5-.3-1.1-.5-1.7-.6-.6-.1-1.3-.2-1.9-.1-.3,0-.6,0-1,.1h-.4c-.2.1-.3.2-.5.2-.7.2-1.3.5-1.8.8-1.2.7-2.1,1.7-2.9,2.7-1.4,1.9-2.2,4.1-2.8,6.2-.3,0-.8,0-1.2,0-.5,0-1-.1-1.3-.2-.2,0-.3,0-.4,0s-.2,0-.2,0h0c-.2.1-.3.3-.2.5,0,0,0,0,.1.2,0,0,.3.1.4.2.4.1.9.3,1.4.4h0ZM76.5,96.9c-1.1,0-2-1.7-2-3.9s.9-3.9,2-3.9,2,1.7,2,3.9-.9,3.9-2,3.9Z"/>
          <path d="M109.4,109.2c.8.7,1.8,1.1,2.8,1.1,1,0,2-.4,2.7-1,1.2-.9,2-2.4,2.6-4.1.6-1.8.9-3.9.9-6.1s0-.8,0-1.2c-.2-3.5-.9-6.5-2-8.7-.6-1.1-1.2-2-2-2.7s-1.7-1-2.7-1-.7,0-1,.1c.4-.5,1-.9,1.6-1.2.4-.2.8-.3,1.3-.4.5,0,1-.1,1.5,0,.2,0,.5,0,.7,0h.4c.1.1.2.2.3.2.5.1,1,.4,1.4.7.9.6,1.7,1.4,2.4,2.3,1.4,1.8,2.2,4.1,2.7,6.2.5,2.2.7,4.2.6,6,0,1.8-.3,3.2-.4,4.3,0,.5,0,.9,0,1.2v.4h0c0,.1,0,.3.2.3.2.1.5,0,.6-.1,0,0,0-.1.2-.4.1-.3.3-.7.5-1.2.2-.5.3-1.2.4-2s.2-1.6.2-2.6c0-1.8,0-3.9-.5-6.1.3,0,.7,0,1.1-.1.5-.1,1-.3,1.4-.4.2,0,.3-.1.4-.2,0,0,.1-.2.1-.2h0c0-.2,0-.4-.2-.5h0s0,0-.2,0-.2,0-.4,0c-.4,0-.8.2-1.3.2-.4,0-.9,0-1.2,0-.5-2.1-1.4-4.3-2.8-6.2-.8-1.1-1.7-2-2.9-2.7-.6-.4-1.2-.6-1.8-.8-.2,0-.3-.1-.5-.1h-.4c-.4-.2-.7-.2-1-.2-.7,0-1.3,0-1.9.1-.6.1-1.2.3-1.7.6-1.1.6-1.9,1.4-2.5,2.1-.6.8-1.1,1.6-1.4,2.3-.3.6-.5,1.2-.6,1.6-.3.6-.5,1.3-.7,2-.5,1.9-.7,4.3-.7,6.9s.7,6.3,1.8,8.6c.6,1.1,1.3,2.1,2.1,2.7h0ZM110.8,89.1c1.1,0,2,1.7,2,3.9s-.9,3.9-2,3.9-2-1.7-2-3.9.9-3.9,2-3.9Z"/>
          <path d="M92.6,111.6c.5.2,1.1.3,1.7.3s1.6-.2,2.2-.6c.3-.2.6-.5.8-.8s.3-.7.3-1.1-.1-.8-.3-1.1c-.3-.5-.7-.8-1.2-1-.5-.2-1.1-.3-1.7-.3s-1.6.2-2.2.6c-.3.2-.6.5-.8.8s-.3.7-.3,1.1.1.8.3,1.1c.3.5.7.8,1.2,1ZM92.7,109.2c0-.1.3-.3.6-.4.3-.1.7-.2,1.1-.2s1,.2,1.3.4c.2,0,.2.2.3.3,0,0,0,.2,0,.2s0,.1,0,.2c0,.1-.3.3-.6.4-.3.1-.7.2-1.1.2s-1-.2-1.3-.4c-.2,0-.2-.2-.3-.3,0,0,0-.2,0-.2s0-.1,0-.2Z"/>
          <path d="M123.7,116.4c0,0,0-.2,0-.2h0c0,0,0-.2,0-.3,0,0,0,0-.2,0s-.2,0-.3.1c-.3.1-.6.3-1,.6-.3.2-.6.5-.8.8,0,.1-.2.2-.2.3,0,0,0,.2,0,.2,0,0,0,.2.2.2h0s0,0,.2,0c0,0,.2-.1.2-.2.2-.2.5-.4.8-.7.3-.2.6-.4.8-.6.1,0,.2,0,.3-.2h0Z"/>
          <path d="M125.2,118.2c0,0-.2,0-.3.1-.3.1-.6.3-1,.6-.3.2-.6.5-.8.8,0,.1-.2.2-.2.3,0,0,0,.2,0,.2,0,0,0,.2.2.2h0s0,0,.2,0c0,0,.2-.1.2-.2.2-.2.5-.4.8-.7.3-.2.6-.4.8-.6.1,0,.2,0,.3-.2,0,0,0-.2,0-.2h0c0,0,0-.2,0-.3,0,0,0,0-.2,0h0Z"/>
          <path d="M70.9,117.9s0,0-.2-.2c0,0-.1,0-.2-.2-.2-.2-.6-.4-.9-.6-.4-.2-.8-.3-1.1-.4-.1,0-.2,0-.3,0,0,0-.1,0-.2,0-.1,0-.3,0-.3.2s0,.3.2.3c0,0,.2,0,.2,0,0,0,.1,0,.2,0,.3,0,.6.2.9.4.3.2.7.3.9.5,0,0,.1,0,.2.1,0,0,0,0,.1,0h0c.1.1.3.1.4,0,0-.1,0-.3,0-.4h0Z"/>
          <path d="M69.7,120.4s0,0-.2-.2c0,0-.1,0-.2-.2-.2-.2-.6-.4-.9-.6-.4-.2-.8-.3-1.1-.4-.1,0-.2,0-.3,0,0,0-.1,0-.2,0-.1,0-.3,0-.3.2s0,.3.2.3c0,0,.2,0,.2,0,0,0,.1,0,.2,0,.3,0,.6.2.9.4.3.2.7.3.9.5,0,0,.1,0,.2.1,0,0,0,0,.1,0h0c.1.1.3.1.4,0,0-.1,0-.3,0-.4h0Z"/>
          <polygon points="125.9 62.1 125.9 62.1 125.9 62.1 125.9 62.1"/>
          <polygon points="106.2 114.4 106.2 114.4 106.2 114.4 106.2 114.4"/>
          <path d="M82,114.8c-.3.3-.5.6-.6.9s-.1.6-.1,1v.4c0,1.2.2,2.9.7,4.7.7,2.7,2.1,5.8,4.1,8.3,1,1.2,2.2,2.4,3.6,3.2,1.4.8,3,1.3,4.7,1.4h0c2.4,0,4.4-1,6.1-2.3,2.5-2,4.2-4.8,5.4-7.7,1.1-2.9,1.7-5.7,1.7-7.6s0-.8,0-1.2h0c0-.4-.2-.7-.4-.9-.2-.2-.5-.4-.8-.6-.7-.2-1.6-.4-2.7-.5-3.2-.3-7.7-.4-9.1-.4s-3.4,0-5.8.2c-1.2,0-2.4.2-3.5.3-.5,0-1,.1-1.4.2s-.8.1-1.1.2c-.3,0-.5.2-.7.4h0ZM98.4,131.9c-1.2.7-2.5,1.1-4,1.2-2,0-3.7-.8-5.1-1.9-.6-.4-1.1-1-1.6-1.5.2-.4.6-1.1,1.3-1.7,1-1,2.7-2,5.3-2h0c1.4,0,2.4.3,3.3.7,1.3.6,2.2,1.6,2.7,2.4.2.4.4.7.5,1-.7.8-1.6,1.4-2.4,2h0ZM94.4,115.1c.4,0,1,0,1.8,0v2h-3.6v-2c.8,0,1.4,0,1.8,0h0ZM82.8,116.8c0-.4,0-.6.1-.7h0c0,0,0-.1.1-.1.2,0,.5-.1.9-.2,1.3-.2,3.5-.4,5.6-.5.5,0,1,0,1.4,0v2.7c0,.4.3.8.8.8h5.1c.4,0,.8-.3.8-.8v-2.8c.8,0,1.5,0,2.2,0,1.2,0,2.3.1,3.4.2s1.9.3,2.3.4h.1c0,0,0,.2,0,.2,0,.2,0,.5,0,.9,0,1.1-.2,2.7-.7,4.4-.6,2.4-1.8,5-3.3,7.2-.3-.5-.6-1-1.1-1.5-.6-.7-1.4-1.4-2.5-1.9-1.1-.5-2.4-.9-4-.9h0c-1.6,0-2.9.3-4,.8-1.6.7-2.7,1.8-3.3,2.7-.1.2-.2.3-.3.4-.9-1.3-1.7-2.8-2.3-4.2-.5-1.3-.9-2.7-1.2-3.9s-.4-2.3-.4-3.1v-.3h0Z"/>
        </g>
      </g>
    </g>
  </g>
  <g>
    <g>
      <path class="st12" d="M20.5,187.5c-3.9,0-7.2-3.2-7.2-7s.7-3,1.5-4.3c.9-1.5,1.3-4.2,1.3-9.1v-5.5c0-5.2,2.9-8.1,8.1-8.1h12.2c1.1,0,3.9,0,6,2.1,2.1,2.1,2.1,4.9,2.1,6v16.8c0,5.9-3.3,8.9-9.9,8.9s-6.7-1.5-7.8-3.3c-2,3.1-4.7,3.6-6.2,3.6h0Z"/>
      <path class="st12" d="M50.5,187.7c-4,0-7-2.8-7-6.6v-5.2c-3.1-.6-5.2-3.3-5.2-6.8s.7-3.9,2-5.1c-.6-.9-1.2-2.2-1.2-4.1,0-4,2.7-6.9,6.5-6.9h9.6c1.1,0,2.1.2,3,.7.6-.1,1.2-.2,1.8-.2s1,0,1.5.1c1.2-.9,2.7-1.4,4.5-1.4,4,0,7,2.8,7,6.6v19.6c0,5.9-3.2,8.8-9.5,8.8h0c-1.2,0-2.8,0-4.3-.6-1.1-.4-2-1.1-2.7-1.9-1.2,1.8-3.3,2.9-5.9,2.9h0Z"/>
      <path class="st12" d="M81.9,182.6v5c-5.5,0-7.6-2.2-8.3-4.6h-1.7c-3.6,0-6.3-2.8-6.3-6.6s.4-2.6,1-3.7c-.2-.6-.3-1.3-.3-2v-2.1c0-1.8.6-3.3,1.6-4.6-.2-3.5-.2-3.6-.2-3.8,0-5.3,4.4-6.4,6.1-6.8.1,0,.3,0,.6-.2,1.9-.5,2.8-.8,3.8-.8s1.5.1,2.1.4c.4,0,.8-.1,1.2-.1.6,0,1.2,0,1.7.2.6-.2,1.2-.3,2-.3s2,.2,2.8.7c.2,0,.3,0,.5,0h3.6c3.8,0,6.8,3,6.8,6.8s0,.2-.2,3.8c.9,1.1,1.6,2.8,1.6,5v1.9c0,.7,0,1.4-.3,2,.5.8,1,2.1,1,3.8,0,3.8-2.6,6.6-6.3,6.6h-4.7c-1.2,3-4,4.6-8.1,4.6v-5h0Z"/>
      <path class="st12" d="M103.4,187.2c-4.7,0-7.5-2.8-7.5-7.5v-6.8c-.5-.4-1-.9-1.4-1.5-.8-1.2-1.3-2.8-1.3-4.3s.3-2.5,1-3.4c-.5-.9-.9-2.1-.9-3.6,0-3.9,2.7-6.7,6.3-6.7h8.3c.5,0,1.3,0,2.3.2.6-.1,1.1-.2,1.8-.2h8.1c.9,0,3.4,0,5.4,1.9,1.9,1.9,1.9,4.4,1.9,5.4v5.9c0,2.5-.7,4.6-2,5.9,0,.2,0,.5,0,.7v6.5c0,4.7-2.8,7.5-7.5,7.5h-14.3Z"/>
      <path class="st12" d="M131.6,187.7c-1.2,0-3.1-.2-4.8-1.1h-.3c-3.6,0-6.9-3.2-6.9-6.8s.5-2.9,1.4-4h0c-.2-.9-.2-1.6-.2-1.9v-1.8c-.8-1.1-1.2-2.4-1.2-4s.5-2.9,1.3-4v-4c0-4.6,2.7-7.3,7.3-7.3h8.1c2.3,0,4.1.7,5.4,1.9,1.5-1.3,2.9-2.4,5.3-2.4,3.8,0,7.1,3.3,7.1,7.1s-.4,2.4-1.1,3.6c.9,1.2,1.5,2.7,1.5,4.3s-.3,2-.8,2.9c1.1,1.2,1.7,2.8,1.7,4.5,0,5.8-9.8,12.8-14.6,12.8h0c-1.5,0-2.9-.5-4.1-1.4-1.2.9-2.8,1.5-5.2,1.5h0Z"/>
      <path class="st12" d="M157.6,187c-4.7,0-7.5-2.8-7.5-7.5v-6.9c-1.9-1.2-3-3.3-3-5.8s.6-3.4,1.6-4.6c0-.4-.1-.9-.1-1.4,0-3.9,2.6-6.7,6.3-6.7h4.8c1.3-1.1,3.1-1.8,5.1-1.8s3.9.7,5.1,1.8h4.8c1.9,0,3.7.9,4.9,2.3.6.8,1.4,2.2,1.4,4.3s0,1-.1,1.4c1,1.2,1.5,2.8,1.5,4.6,0,2.6-1.2,4.7-3.1,5.9v6.8c0,4.7-2.8,7.5-7.5,7.5h-14.1Z"/>
    </g>
    <path class="st8" d="M181.8,156c0-.4,0-.8,0-1.2,0-2.4-.9-4-1.6-5-1.4-1.7-3.4-2.7-5.7-2.7h-4.4c-1.4-1.1-3.3-1.8-5.5-1.8s-4,.6-5.5,1.8h-4.4c-.8,0-1.6.1-2.4.4-1.5-1.3-3.4-2.2-5.4-2.2s-3.9,1-5.3,2.1c-1.4-1.1-3.2-1.6-5.4-1.6h-8.1c-1.8,0-3.3.4-4.6,1.1-1.6-.6-3.1-.7-3.7-.7h-8.1c-.6,0-1.2,0-1.8.2-1-.2-1.8-.2-2.2-.2h-8.3c-1.3,0-2.5.3-3.6.9-1.2-.7-2.5-1.1-4-1.1h-3.8c-.9-.4-1.9-.7-3-.7s-1.4.1-2,.3c-.5-.1-1.1-.2-1.6-.2s-.8,0-1.1,0c-.7-.2-1.4-.4-2.2-.4s-2.1.3-4.1.8c-.2,0-.4.1-.5.1-.6.1-1.5.4-2.4.8-1.4-1.1-3.2-1.7-5.2-1.7s-3.4.5-4.7,1.4c-.4,0-.8,0-1.3,0s-1.1,0-1.7.1c-.9-.4-2-.7-3.1-.7h-9.6c-1.6,0-3.1.5-4.3,1.3-2-1.1-4.1-1.1-5-1.1h-12.2c-5.8,0-9.1,3.3-9.1,9.1v5.5c0,5.9-.6,7.7-1.2,8.6-.8,1.3-1.6,2.7-1.6,4.9,0,4.4,3.7,8,8.2,8s4.1-.4,6.3-3c1.4,1.5,3.8,2.6,7.7,2.6s7.4-1.5,8.9-3.5c1.3,2.4,3.9,4.1,7.1,4.1s4.5-.9,5.9-2.4c.7.6,1.4,1.1,2.3,1.4,1.7.7,3.4.7,4.7.7h0c2.9,0,7.1-.7,9.2-4.4h.2c.9,2.4,3.3,4.6,9,4.6v-6,6c4.2,0,7.3-1.7,8.7-4.6h4.1c.3,0,.7,0,1,0,1.3,2.7,4,4.3,7.6,4.3h14.3c2.1,0,3.9-.5,5.3-1.5,1.1.6,2.3.9,3.6.9h0c1.9.9,4,1.1,5,1.1h0c2.2,0,3.9-.5,5.2-1.2,1.2.7,2.6,1.2,4.1,1.2h0c2.6,0,6.3-1.7,9.4-4.2,1.4,2.3,3.9,3.7,7.3,3.7h14.1c2,0,8.5-.6,8.5-8.5v-6.3c1.9-1.4,3.1-3.7,3.1-6.4s-.6-3.5-1.5-4.8h0Z"/>
    <g class="st4">
      <g class="st4">
        <path class="st7" d="M34.9,168.5h-10.8c-.4,2.7-1.1,4.8-2,6.6-.6,1-1.2,1.4-2.1,1.4s-2.3-.9-2.3-2,.1-.7.8-1.7c1.5-2.4,2.1-5.6,2.1-11.8v-5.5c0-2.4.6-3.1,3.1-3.1h12.2c2.4,0,3.1.6,3.1,3.1v16.8c0,3.7-2,3.9-4.9,3.9s-3.7-.5-3.7-2.1.6-1.9,1.5-1.9,2,.1,2.3.1c.6,0,.8-.3.8-1.1v-2.7ZM34.9,165v-2.8h-10.4c0,.8,0,1.9-.1,2.8h10.5ZM34.9,158.8v-2.1c0-.4-.2-.6-.6-.6h-9.2c-.4,0-.6.2-.6.6v2.1h10.4Z"/>
      </g>
      <g class="st4">
        <path class="st7" d="M52.5,155.9v5.4h3.4c1,0,1.6.7,1.6,2s-.6,1.9-1.6,1.9h-3.4v10c0,1-.7,1.5-2,1.5s-2-.5-2-1.5v-10h-3.6c-1,0-1.5-.7-1.5-1.9s.5-2,1.5-2h3.6v-5.4h-2.9c-.9,0-1.5-.7-1.5-1.8s.5-1.9,1.5-1.9h9.6c.9,0,1.5.7,1.5,1.9s-.5,1.8-1.5,1.8h-2.7ZM58.1,154.2c0-1,.7-1.5,1.9-1.5s1.9.5,1.9,1.5v14.7c0,1-.7,1.5-1.9,1.5s-1.9-.5-1.9-1.5v-14.7ZM64,153c0-1,.7-1.6,2-1.6s2,.6,2,1.6v19.6c0,3-.9,3.8-4.5,3.8s-3.6,0-3.6-2,.7-2.1,1.5-2.1,1.8.1,2,.1c.5,0,.6-.2.6-.9v-18.5Z"/>
        <path class="st7" d="M81.5,168.7c.2-.8.9-1.2,2.1-1.2s.6,0,.9.1c.6-.2,1.2-.5,1.7-.8h-9.8c-.7,0-1.1-.5-1.1-1.4s.4-1.4,1.1-1.4h13.2c1.1,0,1.8.8,1.8,1.9s-.5,1.6-2.8,2.7h6.2c.8,0,1.3.6,1.3,1.6s-.4,1.6-1.3,1.6h-9.1v1.4c0,1.9-.4,3.2-3.7,3.2s-3.6,0-3.6-1.8.5-1.7,1.4-1.7.9,0,1.1,0c.7,0,.7-.3.7-1.2h-9.5c-.8,0-1.3-.6-1.3-1.6s.5-1.6,1.3-1.6h9.6ZM80,160.4c-.2-.2-.3-.5-.3-.7,0-.5.2-.6,1.7-1.3-.8-.5-.9-.6-.9-1.1s0-.3.2-.5c-.6,0-1-.6-1-1.2s.2-.7,1.9-1.6c-1.2-.5-1.2-.9-1.2-1.1,0-.7.5-1.2,1.1-1.2s.9.2,2.1.9c.8-.8,1-1,1.5-1s1.2.5,1.2,1.1-.2.7-.7,1.1c1.1.7,1.3.8,1.3,1.3s-.4,1.1-.8,1.2c.3.3.4.5.4.8,0,.5-.2.9-1,1.4,1,.7,1.2.9,1.2,1.4s0,.4-.2.7h3.3c0-.1,0-.6,0-.9h-1.5c-.5,0-.7-.3-.7-.9s.2-.9.7-.9h1.6c0-.2,0-.5,0-.7h-1.6c-.5,0-.8-.4-.8-1s.3-.9.8-.9h1.7c0-.7,0-.8-.3-.8h-1.4c-.6,0-.9-.4-.9-1.1s.3-1.1.9-1.1h3.6c1.1,0,1.8.7,1.8,1.8s0,.1-.3,6.5c1.2,0,1.7.7,1.7,2.3v1.9c0,1-.7,1.5-1.9,1.5s-1.9-.5-1.9-1.5v-.9c0-.4,0-.5-.4-.5h-15.6c-.4,0-.4,0-.4.5v.9c0,1-.7,1.5-1.9,1.5s-1.9-.5-1.9-1.5v-2.1c0-1.1.7-1.8,1.8-2-.3-6.2-.3-6.2-.3-6.3,0-1.2.3-1.5,2.2-2,.5-.1,2.6-.8,3.1-.8s1.3.7,1.3,1.6-.1.7-.4.9c-.1.1-.3.2-2,.7-.7.2-.8.2-.7.7h2c.5,0,.8.4.8,1s-.3.9-.8.9h-2c0,.2,0,.5,0,.7h2c.5,0,.7.3.7.9s-.3.9-.7.9h-2c0,.2,0,.6,0,.9h3.5ZM85,156.1c-.2-.1-1.1-.8-1.2-.9-.1,0-1.2.8-1.5,1,.5.2,1.4.8,1.5.9l1.3-1ZM84.5,160.4c-.3-.2-.9-.7-1-.7-.5.4-.9.6-1.3.7h2.3Z"/>
        <path class="st7" d="M108.2,164.6c.2-.3.4-.7.5-1.1-.5.2-1,.2-1.7.2-2.4,0-3-.3-3-1.7s0-.3,0-.4c-.8.4-3.7,1.5-4.4,1.5s-1.5-.9-1.5-2.1.3-1.1,1.9-1.5c.8-.2,1.2-.4,2.3-.8-1.4-.5-1.7-.6-2.2-.8-.6-.2-.8-.4-.8-1s.2-1,.5-1.3c-.5,0-1.5,0-1.5-1.7s.5-1.7,1.3-1.7h8.3c1.8,0,2.3.5,2.3,2.3v6.4c0,.6-.1,1.2-.2,1.5,1.3-.1,2.5.8,2.5,1.6s0,.3-.1.5h5.5c2,0,2.5.6,2.5,2.5v6.5c0,2-.6,2.5-2.5,2.5h-14.3c-2,0-2.5-.6-2.5-2.5v-6.5c0-2,.6-2.5,2.5-2.5h4.8ZM101.7,155.7c1.9.6,2.3.7,2.3,1.5s-.1.8-.2,1c.2,0,.3,0,.4,0,.8,0,1.5.9,1.5,2s0,.2,0,.3c.2,0,.4,0,.4,0,.3,0,.4-.2.4-.8v-3.4c0-.5-.1-.6-.6-.6h-4.1ZM116.4,168.9c0-1.1,0-1.3-.6-1.3h-10.5c-.6,0-.6.1-.6,1.3h11.7ZM115.8,173c.6,0,.6-.1.6-1.3h-11.7c0,1.2,0,1.3.6,1.3h10.5ZM122.2,160.5c0,2.4-.7,3.2-3,3.2s-2.9-.4-2.9-1.6,0-.3,0-.6c-.9.4-3,1.2-4,1.2s-1.4-.9-1.4-1.9.3-1.1,1.1-1.2c1.4-.4,2.1-.6,2.4-.8-.9-.4-1.5-.6-2.1-.8-.6-.2-.8-.4-.8-1s.2-1,.6-1.4c-.8,0-1.8,0-1.8-1.7s.5-1.7,1.3-1.7h8.1c1.8,0,2.3.5,2.3,2.3v5.9ZM113.9,155.7c2.5.7,2.5,1.1,2.5,1.7s0,.5-.2.8c.9,0,1.5.9,1.5,1.7s0,.4,0,.5c.1,0,.2,0,.4,0,.2,0,.4-.3.4-.7v-3.5c0-.5-.1-.6-.6-.6h-4Z"/>
        <path class="st7" d="M128.9,173.6c-1,1.4-1.6,2-2.3,2s-1.9-.9-1.9-1.8.1-.6.2-.8c.4-.5,1.1-1.3,1.7-2.1.2-.3.7-.5,1.1-.5.9,0,1.8.9,1.8,1.7s-.1.7-.7,1.5ZM134.1,159.8v.8h4.4c.8,0,1.3.6,1.3,1.6s-.5,1.6-1.3,1.6h-12.6c-.8,0-1.3-.6-1.3-1.6s.5-1.6,1.3-1.6h4.5v-.8h-2.2c-1.8,0-2.3-.5-2.3-2.3v-3.4c0-1.8.5-2.3,2.3-2.3h8.1c1.8,0,2.3.5,2.3,2.3v3.4c0,1.8-.5,2.3-2.3,2.3h-2.2ZM134.5,170.1v4c0,2.5-1.3,2.5-2.8,2.5-2.3,0-2.8-.3-2.8-1.7s.4-1.6.9-1.6.5,0,.7,0,.4,0,.4-.4v-2.9h-2.7c-1.7,0-2.2-.5-2.2-2.2v-1.3c0-1.7.5-2.1,2.2-2.1h8.3c1.7,0,2.2.5,2.2,2.1v1.3c0,1.7-.5,2.2-2.2,2.2h-1.9ZM135.2,155c0-.4,0-.6,0-.7,0-.1-.2-.1-.5-.1h-4.6c-.6,0-.6,0-.6.8h5.8ZM134.6,157.6c.6,0,.6,0,.6-.8h-5.8c0,.8,0,.8.6.8h4.6ZM130,166.6c-.4,0-.4.2-.4.7s.1.4.4.4h4.4c.4,0,.4-.2.4-.7s-.1-.4-.4-.4h-4.4ZM138,171.6c.5.9.7,1.4.7,1.7,0,.8-.9,1.5-1.9,1.5s-.9-.2-1.9-2.2c-.1-.2-.2-.5-.2-.7,0-.7.9-1.4,1.9-1.4s.8.1,1.4,1.1ZM150.5,168.7c0,2.5-7,7.8-9.6,7.8s-2-1.1-2-2.4.1-1.2,2.1-2.1c2.2-1,3.9-2.3,5.9-4.6.6-.7.9-.9,1.5-.9,1,0,2.1,1.1,2.1,2.1ZM149.2,153.4c0,2.1-6.6,6-8.5,6s-1.7-1-1.7-2.2.5-1.4,1.9-2c1.3-.5,3.1-1.7,4-2.4,1.4-1.2,1.6-1.4,2.2-1.4,1,0,2.1,1.1,2.1,2.1ZM149.5,161.3c0,2.2-7,6-8.6,6s-1.9-1-1.9-2.2.3-1.4,2.4-2.2c1.6-.7,3.1-1.6,4.3-2.7.8-.8,1.2-1,1.8-1,1.1,0,2.1,1,2.1,2.1Z"/>
        <path class="st7" d="M162.4,153.1c0-1.2.9-1.8,2.3-1.8s2.3.6,2.4,1.8h7.5c.9,0,1.3.6,1.3,1.7s-.5,1.7-1.3,1.7h-2.1c-.4.9-.7,1.8-1,2.5h4.4c.9,0,1.4.7,1.4,1.8s-.5,1.8-1.4,1.8h-22.4c-.9,0-1.4-.7-1.4-1.8s.5-1.8,1.4-1.8h4.6c-.3-.8-.7-1.5-1.2-2.5h-2.1c-.8,0-1.3-.6-1.3-1.7s.5-1.7,1.3-1.7h7.6ZM155.1,166.1c0-2,.6-2.5,2.5-2.5h14c2,0,2.5.5,2.5,2.5v7.4c0,2-.5,2.5-2.5,2.5h-14c-2,0-2.5-.5-2.5-2.5v-7.4ZM170.2,168.3v-1c0-.5-.1-.6-.6-.6h-9.8c-.5,0-.6.1-.6.6v1h11ZM170.2,171.1h-11v1.1c0,.5.1.6.6.6h9.8c.5,0,.6-.1.6-.6v-1.1ZM161.2,156.5c.5.8.8,1.7,1.2,2.5h4.7c.5-.9.7-1.5,1.1-2.5h-7Z"/>
      </g>
    </g>
  </g>
</svg>