<?xml version="1.0" encoding="UTF-8"?>
<svg xmlns="http://www.w3.org/2000/svg" xmlns:xlink="http://www.w3.org/1999/xlink" viewBox="0 0 195 195">
  <defs>
    <style>
      .cls-1 {
        fill: none;
      }

      .cls-2 {
        fill: #f9dbe8;
      }

      .cls-3 {
        fill: #008cce;
      }

      .cls-4 {
        fill: #ed848c;
      }

      .cls-5 {
        opacity: .3;
      }

      .cls-5, .cls-6 {
        fill: #fff;
      }

      .cls-7 {
        fill: #dfdfcf;
      }

      .cls-8 {
        fill: #e75297;
      }

      .cls-9 {
        clip-path: url(#clippath-1);
      }

      .cls-10 {
        clip-path: url(#clippath-3);
      }

      .cls-11 {
        clip-path: url(#clippath-2);
      }

      .cls-12 {
        fill: #fdebc7;
      }

      .cls-13 {
        fill: #00948d;
      }

      .cls-14 {
        fill: #3e99c6;
      }

      .cls-15 {
        fill: #3e99c6;
      }

      .cls-16 {
        fill: #a42f8b;
      }

      .cls-17 {
        fill: #784600;
      }

      .cls-18 {
        fill: #0075bd;
      }

      .cls-19 {
        fill: #eaa5c7;
      }

      .cls-20 {
        fill: #e63556;
      }

      .cls-21 {
        fill: #56ace2;
      }

      .cls-22 {
        fill: #56ace2;
      }

      .cls-23 {
        fill: #baa0ca;
      }

      .cls-24 {
        clip-path: url(#clippath);
      }
    </style>
    <clipPath id="clippath">
      <path class="cls-1" d="M20.69,85.28c0,21.91,2.42,44.41,16.78,58.77,14.36,14.36,36.86,16.79,58.77,16.8s44.41-2.42,58.77-16.78c14.36-14.36,16.79-36.86,16.8-58.77,0-21.91-2.42-44.41-16.78-58.77s-36.86-16.79-58.77-16.8c-21.91,0-44.41,2.42-58.77,16.78-14.36,14.36-16.79,36.86-16.8,58.77Z"/>
    </clipPath>
    <clipPath id="clippath-1">
      <path class="cls-1" d="M19.98,85.33c0,21.91,2.42,44.41,16.78,58.77,14.36,14.36,36.86,16.79,58.77,16.8,21.91,0,44.41-2.42,58.77-16.78,14.36-14.36,16.79-36.86,16.8-58.77,0-21.91-2.42-44.41-16.78-58.77-14.36-14.36-36.86-16.79-58.77-16.8-21.91,0-44.41,2.42-58.77,16.78-14.36,14.36-16.79,36.86-16.8,58.77Z"/>
    </clipPath>
    <clipPath id="clippath-2">
      <path class="cls-1" d="M105.85,48.41c4.05.41,14.25,1.34,21.83,7.53,9.05,7.38,11.77,17.07,10.97,26.07-.54,6.1-2.45,11.97-3.78,13.46-1.73,1.94-2.48-.01-2.71-.17-.23-.16.4,4.52,2.13,5.27,1.73.75,3.78.01,4.94.33,1.18.32,1.78,1.59-1.71,3.38-2.9,1.49-4.05,2.22-4.05,2.22,0,0,3.42-.93,3.91.56.55,1.68-3.74,2.97-6.94,4.24-4.61,1.84-15.79,5.81-31.41,4.01-15.67-1.39-25.81-7.53-29.96-10.26-2.88-1.89-6.82-4.01-5.94-5.55.77-1.36,3.94.24,3.94.24,0,0-.98-.95-3.51-2.99-3.05-2.45-2.21-3.58-.99-3.66,1.2-.07,3.06,1.07,4.91.68,1.85-.39,3.41-4.84,3.15-4.74-.26.11-1.38,1.87-2.69-.38-1.01-1.73-1.69-7.86-.99-13.95,1.03-8.98,5.65-17.92,16-23.32,8.67-4.53,18.85-3.39,22.9-2.98Z"/>
    </clipPath>
    <clipPath id="clippath-3">
      <path class="cls-1" d="M7.64-130.28c0,23.27,3.47,44.01,20,59.26,16.53,15.25,41.76,21,66.99,21,25.23,0,50.48-6.75,67.01-22,16.53-15.25,20-34.97,20-58.24,0-23.27-2.79-47.17-19.32-62.42-16.53-15.25-42.44-17.84-67.67-17.84s-51.14,2.57-67.67,17.82c-16.53,15.25-19.34,39.15-19.34,62.42Z"/>
    </clipPath>
  </defs>
  <g id="list-pic">
    <g>
      <path class="cls-14" d="M19.98,95.67c0,21.91,2.42,44.41,16.78,58.77,14.36,14.36,36.86,16.79,58.77,16.8,21.91,0,44.41-2.42,58.77-16.78,14.36-14.36,16.79-36.86,16.8-58.77,0-21.91-2.42-44.41-16.78-58.77-14.36-14.36-36.86-16.79-58.77-16.8-21.91,0-44.41,2.42-58.77,16.78-14.36,14.36-16.79,36.86-16.8,58.77Z"/>
      <path class="cls-22" d="M19.6,84.33c0,21.91,2.42,44.41,16.78,58.77,14.36,14.36,36.86,16.79,58.77,16.8,21.91,0,44.41-2.42,58.77-16.78,14.36-14.36,16.79-36.86,16.8-58.77s-2.42-44.41-16.78-58.77c-14.36-14.36-36.86-16.79-58.77-16.8-21.91,0-44.41,2.42-58.77,16.78-14.36,14.36-16.79,36.86-16.8,58.77Z"/>
      <circle class="cls-6" cx="96.15" cy="97.54" r="59.56"/>
      <g class="cls-24">
        <path class="cls-5" d="M105.11,16.07c-.2,1.55-.74,2.85-1.67,3.91-1.2,1.36-2.54,2.59-3.84,3.86-.26.25-.57.46-.89.62-1.38.73-2.76,1.44-4.15,2.14-.67.34-1.37.48-2.14.27-.48-.36-.56-.95-.77-1.47-.29-.72-.54-1.46-.87-2.17-.37-.81-.65-1.63-.8-2.51-.25-1.54-.53-3.07-.77-4.61-.07-.45-.04-.92-.06-1.42,1.09-.54,2.2-.73,3.34-.8,1.98-.13,3.94.04,5.89.41,1.43.27,2.86.56,4.28.87.56.12,1.11.28,1.65.45.24.08.45.25.78.44Z"/>
        <path class="cls-5" d="M41.76,68.02c-.33-1.53-.26-2.94.27-4.24.67-1.68,1.53-3.29,2.33-4.92.16-.32.39-.62.63-.89,1.06-1.14,2.12-2.28,3.2-3.41.51-.54,1.13-.91,1.93-.97.57.18.84.71,1.22,1.13.52.58,1,1.2,1.54,1.76.62.63,1.16,1.32,1.59,2.1.75,1.37,1.53,2.72,2.27,4.09.22.4.35.86.53,1.31-.85.87-1.83,1.42-2.88,1.87-1.82.78-3.73,1.28-5.69,1.58-1.44.22-2.88.42-4.32.61-.57.07-1.14.11-1.71.13-.25,0-.5-.08-.89-.15Z"/>
        <path class="cls-5" d="M151.49,90.47c.48-1.36,1.22-2.43,2.26-3.21,1.34-1,2.79-1.85,4.21-2.74.28-.18.6-.3.92-.39,1.38-.39,2.77-.76,4.16-1.13.66-.17,1.33-.17,1.98.17.37.41.32.97.41,1.48.12.71.2,1.43.36,2.12.18.8.27,1.6.23,2.42-.07,1.44-.11,2.87-.2,4.31-.02.42-.14.84-.22,1.29-1.09.28-2.13.23-3.17.08-1.81-.27-3.55-.8-5.24-1.51-1.24-.52-2.47-1.06-3.69-1.61-.48-.22-.95-.46-1.4-.73-.2-.12-.36-.31-.62-.55Z"/>
        <path class="cls-5" d="M39.95,137.52c.2-1.55.74-2.85,1.67-3.91,1.2-1.36,2.54-2.59,3.84-3.86.26-.25.57-.46.89-.62,1.38-.73,2.76-1.44,4.15-2.14.67-.34,1.37-.48,2.14-.27.48.36.56.95.77,1.47.29.72.54,1.46.87,2.17.37.81.65,1.63.8,2.51.25,1.54.53,3.07.77,4.61.07.45.04.92.06,1.42-1.09.54-2.2.73-3.34.8-1.98.13-3.94-.04-5.89-.41-1.43-.27-2.86-.56-4.28-.87-.56-.12-1.11-.28-1.65-.45-.24-.08-.45-.25-.78-.44Z"/>
        <path class="cls-5" d="M72.29,22.57c.33,1.53.26,2.94-.27,4.24-.67,1.68-1.53,3.29-2.33,4.92-.16.32-.39.62-.63.89-1.06,1.14-2.12,2.28-3.2,3.41-.51.54-1.13.91-1.93.97-.57-.18-.84-.71-1.22-1.13-.52-.58-1-1.2-1.54-1.76-.62-.63-1.16-1.32-1.59-2.1-.75-1.37-1.53-2.72-2.27-4.09-.22-.4-.35-.86-.53-1.31.85-.87,1.83-1.42,2.88-1.87,1.82-.78,3.73-1.28,5.69-1.58,1.44-.22,2.88-.42,4.32-.61.57-.07,1.14-.11,1.71-.13.25,0,.5.08.89.15Z"/>
        <path class="cls-5" d="M136.96,137.91c.94-.6,1.9-.91,2.91-.88,1.3.03,2.59.2,3.88.33.26.03.51.1.75.2,1.03.42,2.06.85,3.08,1.29.49.21.89.53,1.13,1.05.03.43-.27.74-.45,1.1-.26.49-.56.97-.79,1.47-.27.58-.6,1.11-1.01,1.59-.73.84-1.44,1.7-2.18,2.54-.22.25-.49.45-.75.68-.8-.35-1.41-.87-1.98-1.47-.98-1.03-1.79-2.18-2.48-3.42-.51-.91-1-1.82-1.49-2.74-.19-.36-.36-.73-.51-1.11-.07-.17-.07-.36-.12-.63Z"/>
        <path class="cls-5" d="M124.3,69.48c-.88-1.29-1.34-2.63-1.35-4.03,0-1.81.18-3.63.3-5.44.03-.36.13-.72.25-1.06.55-1.46,1.11-2.91,1.68-4.36.27-.69.7-1.27,1.42-1.63.6-.05,1.05.34,1.55.59.7.35,1.37.74,2.09,1.05.81.35,1.57.79,2.26,1.35,1.21.98,2.44,1.94,3.64,2.94.35.29.64.66.99,1.02-.46,1.13-1.16,2.01-1.97,2.82-1.4,1.41-2.98,2.59-4.68,3.61-1.25.75-2.51,1.47-3.77,2.19-.5.28-1.01.53-1.53.76-.23.1-.5.11-.88.19Z"/>
        <path class="cls-5" d="M140.29,22.57c.33,1.53.26,2.94-.27,4.24-.67,1.68-1.53,3.29-2.33,4.92-.16.32-.39.62-.63.89-1.06,1.14-2.12,2.28-3.2,3.41-.51.54-1.13.91-1.93.97-.57-.18-.84-.71-1.22-1.13-.52-.58-1-1.2-1.54-1.76-.62-.63-1.16-1.32-1.59-2.1-.75-1.37-1.53-2.72-2.27-4.09-.22-.4-.35-.86-.53-1.31.85-.87,1.83-1.42,2.88-1.87,1.82-.78,3.73-1.28,5.69-1.58,1.44-.22,2.88-.42,4.32-.61.57-.07,1.14-.11,1.71-.13.25,0,.5.08.89.15Z"/>
        <path class="cls-5" d="M145.85,50.27c-1.1-1.11-1.8-2.33-2.07-3.71-.34-1.78-.49-3.6-.7-5.4-.04-.36,0-.73.05-1.09.27-1.53.56-3.07.85-4.59.14-.73.46-1.37,1.09-1.86.58-.16,1.09.14,1.63.29.75.21,1.49.47,2.24.65.87.2,1.69.48,2.47.91,1.37.74,2.75,1.46,4.12,2.22.4.22.75.53,1.16.82-.24,1.19-.77,2.19-1.41,3.13-1.11,1.65-2.45,3.09-3.93,4.4-1.09.96-2.19,1.91-3.31,2.85-.44.37-.9.71-1.37,1.03-.21.14-.47.2-.83.35Z"/>
        <path class="cls-5" d="M153.63,62.31c1.17-.34,2.28-.36,3.32-.02,1.35.43,2.65,1.01,3.96,1.55.26.11.51.27.73.44.95.76,1.89,1.53,2.83,2.31.45.37.77.83.86,1.45-.11.46-.51.7-.81,1.01-.43.43-.88.84-1.29,1.3-.46.52-.97.98-1.55,1.35-1.02.66-2.04,1.34-3.07,1.99-.3.19-.65.32-1,.48-.73-.61-1.21-1.35-1.62-2.15-.71-1.38-1.2-2.84-1.54-4.35-.25-1.11-.49-2.22-.71-3.34-.09-.44-.15-.88-.19-1.32-.02-.2.04-.4.07-.7Z"/>
        <path class="cls-5" d="M161.65,127.92c-1.55.21-2.95.02-4.21-.61-1.62-.81-3.16-1.79-4.72-2.72-.31-.18-.59-.44-.83-.7-1.06-1.15-2.1-2.3-3.13-3.47-.5-.56-.81-1.2-.82-2,.22-.56.78-.78,1.22-1.12.62-.47,1.28-.9,1.87-1.39.68-.57,1.41-1.05,2.22-1.41,1.42-.64,2.83-1.3,4.26-1.93.42-.18.88-.28,1.35-.42.8.91,1.27,1.94,1.63,3.03.63,1.88.97,3.82,1.12,5.8.11,1.45.19,2.9.26,4.36.03.57.02,1.14-.01,1.71-.01.25-.12.5-.22.87Z"/>
        <path class="cls-5" d="M50.07,40.63c-.2,1.55-.74,2.85-1.67,3.91-1.2,1.36-2.54,2.59-3.84,3.86-.26.25-.57.46-.89.62-1.38.73-2.76,1.44-4.15,2.14-.67.34-1.37.48-2.14.27-.48-.36-.56-.95-.77-1.47-.29-.72-.54-1.46-.87-2.17-.37-.81-.65-1.63-.8-2.51-.25-1.54-.53-3.07-.77-4.61-.07-.45-.04-.92-.06-1.42,1.09-.54,2.2-.73,3.34-.8,1.98-.13,3.94.04,5.89.41,1.43.27,2.86.56,4.28.87.56.12,1.11.28,1.65.45.24.08.45.25.78.44Z"/>
        <path class="cls-5" d="M26.47,73.29c1.46-.56,2.86-.71,4.23-.4,1.77.4,3.49,1,5.23,1.53.34.11.67.29.97.49,1.3.86,2.58,1.74,3.86,2.63.61.42,1.07.97,1.26,1.75-.08.59-.57.94-.93,1.38-.5.6-1.03,1.17-1.49,1.8-.53.71-1.12,1.35-1.82,1.89-1.23.96-2.45,1.93-3.69,2.88-.37.28-.79.48-1.22.73-.99-.7-1.69-1.59-2.3-2.56-1.06-1.68-1.84-3.49-2.45-5.37-.44-1.39-.87-2.78-1.28-4.17-.16-.55-.29-1.11-.39-1.67-.05-.25,0-.51.01-.9Z"/>
        <path class="cls-5" d="M31.04,117.73c-.88-1.29-1.35-2.62-1.36-4.03-.01-1.81.17-3.63.3-5.44.02-.36.12-.72.25-1.06.55-1.46,1.11-2.91,1.68-4.36.27-.69.7-1.27,1.42-1.63.6-.05,1.05.34,1.55.59.7.35,1.38.74,2.09,1.04.82.35,1.57.78,2.26,1.34,1.21.98,2.44,1.94,3.64,2.93.35.29.64.66.99,1.02-.45,1.13-1.16,2.01-1.96,2.82-1.39,1.42-2.97,2.59-4.67,3.61-1.25.75-2.51,1.48-3.77,2.2-.5.28-1.01.53-1.53.76-.23.1-.5.11-.88.2Z"/>
      </g>
      <g class="cls-9">
        <g>
          <g>
            <path class="cls-19" d="M46.4,128.07c3.77,1.32,6.43,3.03,8.37,7.11.87,1.83,1.59,4.13,2.21,7.08.86,4.16,1.83,8.08,3.44,11.52.59,1.26,1.27,2.46,2.06,3.58,2.68,3.79,6.65,6.7,12.96,8.25.34.08.69.12,1.03.12,1.93,0,3.69-1.31,4.17-3.27.48-1.94-.45-3.89-2.13-4.8-.32-.17-.66-.31-1.02-.4-2.62-.64-4.58-1.55-6.11-2.82-3.28-2.71-4.56-7.05-5.99-13.93-1.74-8.39-4.61-13.71-9.57-17.24-1.88-1.34-4.05-2.43-6.58-3.31-.73-.25-1.48-.3-2.19-.17-1.47.27-2.76,1.29-3.29,2.81-.41,1.17-.28,2.4.26,3.42.49.93,1.31,1.68,2.38,2.06Z"/>
            <path class="cls-7" d="M106.46,123.5c-7.44-2.99-20.03-7.5-20.03-7.5,0,0-21.09-17.49-32.36-32.04-8.06,6.15-14.02,11.87-14.02,11.87,0,0,21.64,29.81,41.74,48.23l24.67-20.56Z"/>
            <g>
              <path class="cls-19" d="M117.88,110.8c.57,5.3-6.68,10.41-16.18,11.42-9.51,1.01-17.68-2.46-18.25-7.76-.57-5.3,6.68-10.41,16.18-11.42,9.51-1.01,17.68,2.46,18.25,7.76Z"/>
              <path class="cls-7" d="M85.95,112.89c3.26,2.47,7.77,4.5,12.94,5.18,5.81.77,11.36.31,15.25-.83l-3.22,12.47-25.46-2.85.49-13.98Z"/>
            </g>
            <g>
              <path class="cls-6" d="M73.33,181.41s-4.25,19.01-6.34,22.69c-2.58,4.53-7.18,13.83-2.24,18.9,5.11,5.25,19.81,4.73,21.59-2.47,1.56-6.31.98-12.3,1.34-15.04.36-2.74,5.28-20.12,5.28-20.12,0,0-14.57-3.86-19.62-3.98Z"/>
              <path class="cls-23" d="M90.09,198.66c-9.35-.59-19.6-3.98-20.03-4.12l1.04-3.11c.1.03,10.28,3.4,19.2,3.96l-.21,3.27Z"/>
              <path class="cls-23" d="M91.41,191.96c-9.41-1.15-18.95-3.97-19.35-4.09l.94-3.14c.1.03,9.69,2.87,18.82,3.98l-.4,3.25Z"/>
              <path class="cls-1" d="M73.33,181.41s-4.25,19.01-6.34,22.69c-2.58,4.53-7.18,13.83-2.24,18.9,5.11,5.25,19.81,4.73,21.59-2.47,1.56-6.31.98-12.3,1.34-15.04.36-2.74,5.28-20.12,5.28-20.12,0,0-14.57-3.86-19.62-3.98Z"/>
            </g>
            <g>
              <path class="cls-6" d="M120.41,179.67s-.57,24.06-.43,28.33c.14,4.26,7.5,9.16,9.76,11.61,2.26,2.45,4.38,7.73-4.32,8.31-8.71.58-21.38-4.15-23.69-5.5-2.31-1.35-1.45-13.37-1.3-15.55.14-2.18.27-22.8.27-22.8,0,0,6.93-6.91,19.71-4.4Z"/>
              <path class="cls-23" d="M116.98,191.77c-3.96,0-11.12-.05-16.43-.35l.19-3.27c7.58.44,19.03.34,19.15.34l.03,3.28s-1.17,0-2.94,0Z"/>
              <path class="cls-1" d="M120.41,179.67s-.57,24.06-.43,28.33c.14,4.26,7.5,9.16,9.76,11.61,2.26,2.45,4.38,7.73-4.32,8.31-8.71.58-21.38-4.15-23.69-5.5-2.31-1.35-1.45-13.37-1.3-15.55.14-2.18.27-22.8.27-22.8,0,0,6.93-6.91,19.71-4.4Z"/>
            </g>
            <path class="cls-13" d="M98.91,178.32l.33,6.62c.02.42.32.77.73.86,1.38.31,4.97.94,12.03.88,9.06-.08,11.17-2.27,11.17-2.27.18-3.89-.46-16.12-.67-21.71-.06-1.53-1.17-3.2-1.17-3.2l-22.08,5.1-22.4-.67s-1.13-.25-1.45,1.25c-.89,4.15-3.11,11.72-4.22,15.94-.16.61.25,1.23.83,1.46,2.09.85,7.41,2.77,15.07,3.68,7.88.94,8.18-.17,8.18-.17l2.93-7.88c.14-.38.7-.29.72.11Z"/>
            <g>
              <g>
                <g>
                  <path class="cls-19" d="M132.74,165.1l8.31-2.84s3.64-.24,10.34,2.16c5.99,2.14,5.9,5.42,4.86,6.2-1.04.78-3.83-.79-3.83-.79l-10.34,2.88-9.29-2.16"/>
                  <path class="cls-19" d="M147.18,166.2c.33.01,8.97,2.61,9.49,5.63.48,2.76-2.4,2.56-3.69,2.13-1.29-.43-6.14-3.2-6.14-3.2"/>
                  <path class="cls-19" d="M145.26,168.29s8.7,3.09,9.25,5.49c.46,2.02-1.9,3.07-4.75,2.49-2.85-.59-5.42-2.46-5.42-2.46"/>
                  <path class="cls-19" d="M143.49,170.34c2.55,1.17,8.03,4.16,8.07,5.97.05,2.16-3.24,2.46-6.06,1.46-3.15-1.12-5.46-3.61-6.04-3.53-1.19.17-.04,5.86-3.66,5.61-2.55-.18-2.52-3.18-3.14-4.8-1.38-3.61-1.07-7.45-.87-8.42.29-1.41.6-2.93.6-2.93l8.08-2.08"/>
                </g>
                <path class="cls-7" d="M113.23,135.29c3.61,4.42,15.91,31.26,16.34,32.05.86,1.58.91,1.81,2.65,1.34,7.14-1.95,10.04-4.29,11.65-5.98,1.43-1.49.4-3.33.4-3.33,0,0-7.48-15.05-11.82-22.75-6.02-10.68-12.39-16.7-15.34-19.15-1.39-1.15-2.97-1.91-2.97-1.91"/>
              </g>
              <g>
                <path class="cls-7" d="M120.16,127.61s1.79,14.27,2.21,19.32c.38,4.58.32,17.4.51,20.82.02.44-.25.82-.67.93-1.98.49-8.99,1.59-23.64.82-14.64-.77-21.65-2.61-23.64-3.31-.42-.15-.7-.56-.67-1,.19-3.4.92-16.53,1.3-21.07.42-5.01,2.6-18.31,2.6-18.31"/>
                <g>
                  <path class="cls-16" d="M92.13,122.2s2.04,1.11,2.26,2.96c.22,1.86-1.56,36.58-1.73,37.31-.17.73-.08,3.14-2.35,2.91-2.26-.23-8.88-.61-14.84-2.74-2.6-.93-2.01-2.79-1.93-3.91.08-1.13,2.61-24.14,3.2-25.94,0,0,3.07-3.04,3.98-6.71,1.03-4.13.47-10.02.47-10.02,0,0,7.78,4.62,10.93,6.15Z"/>
                  <path class="cls-16" d="M78.34,108.54c.4-.65,4.52,1.21,6.22,3.36,2.18,2.77,6.5,5.94,8.37,7.21.61.41,1.83,1.6,1.21,3.09-.68,1.65-1.98,1.36-3.03.84-2.79-1.38-7.93-4.41-10.4-7.58-1.55-1.99-3.36-5.34-2.37-6.92Z"/>
                  <path class="cls-6" d="M76.5,156.68l9.69-7.13c.16-.12.4-.08.53.09l1.53,1.96c.13.17.11.41-.05.53l-9.6,7.29c-.16.13-.41.09-.54-.09l-1.62-2.11c-.13-.17-.1-.41.06-.53Z"/>
                </g>
                <g>
                  <path class="cls-16" d="M106.53,123.04s-2.33.85-2.48,3.08c-.13,1.85-.04,36.3.1,37.05.13.75-.06,3.14,2.21,3.25,2.27.11,8.87.72,14.91-.5,2.63-.53,2.13-2.48,2.1-3.61-.03-1.14-1.52-24.81-2.02-26.69,0,0-2.92-3.49-3.66-7.29-.84-4.27.28-9.76.28-9.76,0,0-8.21,3.43-11.43,4.48Z"/>
                  <path class="cls-16" d="M117.38,115.16c-.5-.63-1.38-1.08-3.78.03-1.83.85-5.84,3.33-7.69,4.46-.6.37-1.79,1.46-1.13,2.99.73,1.7,2.03,1.51,3.07,1.07,2.77-1.17,10.24-4.73,10.8-5.11.68-.46-.1-1.94-1.27-3.43Z"/>
                  <path class="cls-6" d="M120.52,159.45l-9.34-8.56c-.16-.14-.39-.14-.53,0l-1.62,1.72c-.14.15-.13.39.03.54l9.24,8.7c.16.15.4.15.54,0l1.71-1.86c.14-.15.12-.4-.04-.54Z"/>
                </g>
              </g>
            </g>
            <g>
              <path class="cls-19" d="M144.68,71.63c-1.99,19.59-21.86,33.61-44.38,31.32-22.52-2.29-39.15-20.03-37.16-39.62,1.99-19.59,21.86-33.61,44.38-31.32,22.52,2.29,39.15,20.03,37.16,39.62Z"/>
              <g>
                <path class="cls-19" d="M95.16,34.16s-7.64-9.11-17.87-14.09c-10.8-5.26-12.4-2.45-14.15,6.63-1.74,9.08-2.55,29.81,1.92,38.48"/>
                <path class="cls-2" d="M84.45,38.17s-3.69-6.34-10.46-10.1c-1.44-.8-2.36,0-2.76,1.18-.76,2.23-1.88,7.59.68,18.03l12.54-9.1Z"/>
              </g>
              <g>
                <path class="cls-19" d="M119.2,36.6s9.32-7.38,20.34-10.2c11.64-2.98,12.64.1,12.52,9.34-.12,9.24-3.51,29.71-9.63,37.31"/>
                <path class="cls-2" d="M128.88,42.7s4.89-5.46,12.28-7.79c1.57-.49,2.31.49,2.47,1.71.29,2.34.31,7.82-4.3,17.52l-10.45-11.44Z"/>
              </g>
              <path class="cls-19" d="M124.54,38.93s13.67,6,18.88,21.69c4.81,14.48.99,39.21-15.02,46.06-18.61,7.96-29.21,7.32-29.21,7.32,0,0-10.51-1.5-27.14-13.05-14.31-9.94-13.06-34.93-5.44-48.14,8.26-14.32,22.86-17.44,22.86-17.44"/>
              <g>
                <path class="cls-12" d="M105.85,48.41c4.05.41,14.25,1.34,21.83,7.53,9.05,7.38,11.77,17.07,10.97,26.07-.54,6.1-2.45,11.97-3.78,13.46-1.73,1.94-2.48-.01-2.71-.17-.23-.16.4,4.52,2.13,5.27,1.73.75,3.78.01,4.94.33,1.18.32,1.78,1.59-1.71,3.38-2.9,1.49-4.05,2.22-4.05,2.22,0,0,3.42-.93,3.91.56.55,1.68-3.74,2.97-6.94,4.24-4.61,1.84-15.79,5.81-31.41,4.01-15.67-1.39-25.81-7.53-29.96-10.26-2.88-1.89-6.82-4.01-5.94-5.55.77-1.36,3.94.24,3.94.24,0,0-.98-.95-3.51-2.99-3.05-2.45-2.21-3.58-.99-3.66,1.2-.07,3.06,1.07,4.91.68,1.85-.39,3.41-4.84,3.15-4.74-.26.11-1.38,1.87-2.69-.38-1.01-1.73-1.69-7.86-.99-13.95,1.03-8.98,5.65-17.92,16-23.32,8.67-4.53,18.85-3.39,22.9-2.98Z"/>
                <g class="cls-11">
                  <path class="cls-6" d="M101.47,91.43c2.97.3,10.5,2.1,14.39,11.16,3.49,8.11,1.71,15.53,1.71,15.53,0,0-6.11,1.8-18.87.5-12.76-1.3-18.38-4.3-18.38-4.3,0,0-.24-7.63,4.81-14.87,5.64-8.08,13.37-8.33,16.34-8.03Z"/>
                </g>
                <path class="cls-1" d="M105.85,48.41c4.05.41,14.25,1.34,21.83,7.53,9.05,7.38,11.77,17.07,10.97,26.07-.54,6.1-2.45,11.97-3.78,13.46-1.73,1.94-2.48-.01-2.71-.17-.23-.16.4,4.52,2.13,5.27,1.73.75,3.78.01,4.94.33,1.18.32,1.78,1.59-1.71,3.38-2.9,1.49-4.05,2.22-4.05,2.22,0,0,3.42-.93,3.91.56.55,1.68-3.74,2.97-6.94,4.24-4.61,1.84-15.79,5.81-31.41,4.01-15.67-1.39-25.81-7.53-29.96-10.26-2.88-1.89-6.82-4.01-5.94-5.55.77-1.36,3.94.24,3.94.24,0,0-.98-.95-3.51-2.99-3.05-2.45-2.21-3.58-.99-3.66,1.2-.07,3.06,1.07,4.91.68,1.85-.39,3.41-4.84,3.15-4.74-.26.11-1.38,1.87-2.69-.38-1.01-1.73-1.69-7.86-.99-13.95,1.03-8.98,5.65-17.92,16-23.32,8.67-4.53,18.85-3.39,22.9-2.98Z"/>
              </g>
              <path class="cls-1" d="M89.31,68.03s-4.95-5.57-10.37-4.06"/>
              <path class="cls-1" d="M118.09,70.96s5.97-4.45,10.98-1.88"/>
              <g>
                <path class="cls-1" d="M90.92,82.24s-3.18-7.57-11.26-8.02c-6.11-.34-8.16,5.38-8.16,5.38"/>
                <path class="cls-1" d="M74.43,75.66s-2.3-.27-3.78-4.43"/>
                <path class="cls-6" d="M88.27,82.96c-.19,1.87-1.49,3.27-2.9,3.13-1.41-.14-2.4-1.78-2.21-3.65.19-1.87,1.49-3.27,2.9-3.13,1.41.14,2.4,1.78,2.21,3.65Z"/>
              </g>
              <g>
                <path class="cls-1" d="M113.66,84.56s4.64-6.77,12.64-5.58c6.05.9,6.91,6.92,6.91,6.92"/>
                <path class="cls-1" d="M131.13,81.43s2.3.2,4.6-3.57"/>
                <path class="cls-6" d="M120.13,86.21c-.19,1.87.8,3.51,2.21,3.65,1.41.14,2.71-1.26,2.9-3.13.19-1.87-.8-3.51-2.21-3.65-1.41-.14-2.71,1.26-2.9,3.13Z"/>
              </g>
              <line class="cls-1" x1="100.98" y1="96.25" x2="100.53" y2="100.72"/>
              <path class="cls-17" d="M101.31,93.03c-1.28-.21-2.37.17-2.65.88-.44,1.11.35,2.14,2.32,2.34,1.98.2,2.49-.55,2.58-1.42.07-.69-.48-1.51-2.25-1.8Z"/>
              <g>
                <path class="cls-19" d="M91.67,44.92c-5.49,10.64-11.85,15.3-11.42,15.56.43.26,4.04.35,8.04-.09,4-.44,11.83-2.54,11.83-2.54l8.2,2.36c-3.5,6.85-10.34,11.3-9.87,12.01.52.78,5.32.95,14.63-3.81,9.58-4.9,15.59-15.35,15.59-15.35l-16.22-8.34-20.78.2Z"/>
                <path class="cls-1" d="M91.67,44.92c-5.49,10.64-11.85,15.3-11.42,15.56.43.26,4.04.35,8.04-.09,4-.44,11.83-2.54,11.83-2.54l8.2,2.36c-3.5,6.85-10.34,11.3-9.87,12.01.52.78,5.36,1.04,14.63-3.81,10.02-5.24,15.59-15.35,15.59-15.35"/>
                <path class="cls-19" d="M109.52,59.71s-3.67,6.09-12.92,7.73c-9.35,1.65-10.05.43-10.18.25-.23-.33,3.9-3.26,8.99-8.22,1.35-1.31,2.92-2.75,4.26-4.72"/>
              </g>
              <g>
                <path class="cls-20" d="M99.44,113.41c-8.13-.81-9.25-9.71-8.94-12.98.11-1.12.9-1.66,2.04-1.62,2.39.08,5.19.36,8.49.67,3.29.34,6.1.62,8.46,1.01,1.13.19,1.8.87,1.68,1.99-.33,3.27-3.18,11.78-11.73,10.93Z"/>
                <path class="cls-4" d="M99.55,113.44c2.94.29,5.19-.52,6.9-1.86.11-.14.22-.28.34-.43,0,0-1.6-4.19-6.41-4.67-4.55-.45-7.28,3.41-7.28,3.41,0,0,0,.01.01.02,1.39,1.82,3.45,3.23,6.45,3.53Z"/>
                <path class="cls-1" d="M99.55,113.44c-8.13-.81-9.36-9.74-9.05-13.01.11-1.12.9-1.66,2.04-1.62,2.39.08,5.19.36,8.49.67,3.29.34,6.1.62,8.46,1.01,1.13.19,1.8.87,1.68,1.99-.33,3.27-3.07,11.81-11.62,10.96Z"/>
                <path class="cls-1" d="M93.09,109.89s2.74-3.86,7.28-3.41c4.81.48,6.41,4.67,6.41,4.67"/>
              </g>
            </g>
            <path class="cls-19" d="M49.8,93.82c4.93-3.38,6.04-6.57,7.14-8.18.8-1.16,4.6-5.84,5.24-7.56.68-1.85-1.22-4.12-3.67-3.35-2.36.74-4.7,5.12-6.41,4.89-.21-.03-.45-.2-.69-.48-1.73-1.95-4.16-9.27-5.49-11.56-1.44-2.48-4.73-2.69-5.46.24-.54,2.15,2.93,8.26,2.3,9.22-.42.64-.97.83-1.64.6-.58-.19-3.73-4.76-4.92-6.27-2.42-3.07-3.98-3.23-5.34-2.36-1.84,1.18-1.56,3.28.29,6.29,1.91,3.11,4.25,6.63,4.31,7.21.07.63-.43.73-1.56.21-.86-.4-6.13-3.06-7.38-3.26-2.66-.44-4.83,3.06-.83,5.57,3.54,2.23,5.99,3.63,6.92,4.63.31.33.45.62.4.87-.19,1.02-4.99-.3-7.29,1.22-2.07,1.36-2.05,4.58,4.71,5.07,5.8.42,7.59,1.06,10.73.69,3.65-.43,5.43-1.47,8.64-3.67Z"/>
          </g>
          <g>
            <path class="cls-1" d="M62.53,92.36c.43-.03.9.06,1.38.19-.03-.06-.06-.12-.09-.17-1.63-3.32-2.61-6.88-3.13-10.5-.61.85-1.3,1.76-2.02,2.7-.49.65-.92,1.21-1.12,1.49-.12.17-.24.37-.36.58,1.6,1.9,3.33,3.83,5.12,5.75.07,0,.14-.02.21-.02Z"/>
            <path d="M157.19,170.83s.03-.04.05-.06c.43-.68.46-1.41.35-2.04-.26-1.29-1.07-2.21-1.9-2.92-.85-.71-1.79-1.22-2.75-1.65-.97-.43-1.93-.73-2.89-1.04-.96-.31-1.94-.57-2.92-.82-.64-.15-1.29-.28-1.94-.4.37-1.15.05-2.3-.26-2.85-.07-.15-7.54-15.16-11.84-22.78-4.94-8.76-10.1-14.43-13.56-17.64.04-.1.07-.2.09-.31.11-.68-.26-1.63-1.08-2.83,4.16-.75,8.23-1.91,12.19-3.49.49-.19,1-.39,1.51-.58,3.37-1.28,6.54-2.48,5.86-4.58-.23-.71-.8-1.08-1.47-1.24.37-.2.78-.41,1.24-.65,2.12-1.09,3.14-2.19,3.02-3.27-.08-.7-.62-1.26-1.46-1.48-.42-.11-.89-.12-1.39-.09.04-.05.09-.1.13-.15,2.95-3.81,4.92-8.26,6.19-12.84,1.26-4.59,1.82-9.35,1.76-14.09-.02-1.44-.11-2.87-.26-4.3.16-.31.32-.63.46-.95l.5-1.21c.35-.8.63-1.63.92-2.45,1.15-3.29,2.03-6.65,2.77-10.04.74-3.39,1.32-6.8,1.75-10.24.43-3.43.71-6.93.65-10.41-.06-1.75-.11-3.54-.75-5.36-.17-.45-.39-.9-.67-1.33-.3-.42-.65-.81-1.08-1.12-.85-.62-1.85-.92-2.79-1.02-1.89-.2-3.65.08-5.38.4-.86.17-1.71.37-2.56.58-.84.22-1.69.47-2.53.72-3.33,1.07-6.54,2.48-9.6,4.13-2.31,1.26-4.6,2.58-6.66,4.22-4.1-1.7-8.57-2.87-13.29-3.35-4.72-.48-9.33-.24-13.69.6-1.69-2.02-3.67-3.77-5.68-5.47-2.67-2.23-5.53-4.26-8.58-5.98-.77-.41-1.55-.83-2.33-1.21-.78-.38-1.58-.74-2.39-1.09-1.63-.67-3.3-1.3-5.19-1.48-.94-.09-1.98,0-2.94.44-.48.22-.91.53-1.28.88-.37.36-.67.76-.93,1.17-.99,1.66-1.4,3.4-1.81,5.1-.77,3.4-1.19,6.88-1.46,10.33-.27,3.46-.38,6.92-.35,10.39.04,3.47.23,6.93.69,10.39.12.86.23,1.73.41,2.58l.24,1.29c.07.34.17.68.26,1.02-.44,1.37-.81,2.76-1.12,4.16-.69,3.13-1.09,6.32-1.18,9.53-.63-.14-1.31-.11-1.99.1-1.32.41-2.5,1.67-3.64,2.88-.82.87-1.95,2.05-2.41,1.99,0,0-.09-.04-.27-.24-.97-1.09-2.32-4.35-3.4-6.97-.78-1.89-1.46-3.52-2-4.46-.9-1.56-2.54-2.46-4.09-2.24-1.34.19-2.36,1.19-2.73,2.67-.35,1.38.53,3.7,1.38,5.95.43,1.13,1,2.65.98,3.11-.22.3-.41.34-.67.26-.47-.39-2.12-2.65-3.12-4.01-.59-.81-1.15-1.57-1.52-2.04-1.48-1.88-3.74-4.18-6.32-2.53-3.18,2.04-.74,6,.06,7.3.55.9,1.14,1.83,1.7,2.72.85,1.35,1.86,2.96,2.3,3.76-.09-.03-.18-.08-.3-.13-.16-.07-.46-.22-.85-.41-3.35-1.64-5.78-2.76-6.72-2.91-1.59-.26-3.14.6-3.69,2.05-.5,1.33-.15,3.31,2.35,4.88.74.47,1.44.9,2.08,1.3,2.33,1.45,4.02,2.49,4.68,3.21.01.01.02.02.03.03-.39.03-.99.03-1.47.02-1.71-.02-3.85-.05-5.31.91-1.19.78-1.76,2.04-1.46,3.2.27,1.05,1.48,2.86,6.52,3.23,2.12.15,3.72.34,5.01.49,1.51.18,2.69.31,3.91.31.52,0,1.06-.03,1.63-.09,4.6,6.15,19.22,25.31,34.19,40.39-.64,5.02-1.42,11.93-1.89,16.18-.49-.29-.95-.61-1.37-.96-2.99-2.47-4.27-6.49-5.73-13.51-1.8-8.66-4.84-14.12-9.87-17.7-1.93-1.38-4.15-2.49-6.77-3.41-.82-.29-1.71-.36-2.56-.2-1.78.33-3.26,1.59-3.85,3.29-.46,1.31-.35,2.77.3,4.01.6,1.13,1.59,1.99,2.79,2.41,3.52,1.23,6.08,2.79,7.95,6.73.85,1.8,1.56,4.06,2.15,6.92.82,3.93,1.8,8.07,3.49,11.68.63,1.34,1.34,2.58,2.12,3.69,2.73,3.87,6.58,6.52,11.73,8.09.13.35.36.66.67.87,0,0,0,0,0,0-.64,2.65-1.59,6.06-2.44,9.14-.52,1.89-1.01,3.66-1.38,5.06-.25.94.3,1.94,1.27,2.34.11.05.24.1.38.15-.98,4.2-3.19,13.44-4.83,18.09-.09.06-.17.14-.23.24-.02.04-2.2,3.85-3.6,6.12-2.59,4.17-4.05,7.94-4.39,11.23-.17.37-.19,1.13-.24,2.75-.03,1.02.19,2.29.57,3.4,1.23,3.51,6.65,6.69,12.59,7.38,1.89.22,3.6.31,5.12.31,5.71,0,8.91-1.31,9.92-2.17,2.26-1.93,1.73-6.22,1.64-6.82.06-1.03.05-2.14.03-3.29,0-.21,0-.43,0-.64.21-.28.3-.61.34-.78.07-.26.12-1.15.09-2.23.79-.95.85-2.61.06-4.06-.07-.12-.14-.23-.21-.34,0-.73-.01-1.43-.03-2.03-.1-2.75-.3-3.68-.62-4.04.02-.35.05-.67.08-.94.12-.95.82-3.73,1.67-6.94,0-.01,0-.03.01-.04,1.07-4.05,2.38-8.75,3.08-11.25,2.12-.1,2.65-.59,2.8-1.04l2.3-6.18.24,4.83c.04.75.58,1.39,1.31,1.55.04,0,.09.02.13.03-.04,5.56-.14,18.57-.25,20.25v.21c-.06.62-.09,1.21-.12,1.79,0,0-.01,0-.02.01-.77.78-1.13,2.02-1.1,3.78,0,.59-.05,1.95-.12,3.38-.15,3.33-.2,5.05-.15,6-.02,1.11,0,3.07.37,3.75.8,1.49,6.73,4.15,9.58,5.17,3.08,1.11,10.68,2.42,16.45,2.42.85,0,1.65-.03,2.4-.09,6.36-.52,7.82-1.84,8.7-4.61.65-2.04.44-5.56-.41-7.09-.51-1.55-1.4-3.03-2.67-3.84-1.06-.67-2-1.32-2.81-1.93-.18-1.05-1.48-2.48-2.7-3.62-.66-.61-1.39-1.29-2.61-1.8-.19-.26-.37-.52-.54-.78-.73-1.11-1.56-2.33-3.24-2.74-.03-3.97.16-13.86.3-20.55,1.89-.6,2.58-1.24,2.7-1.37.13-.13.2-.3.21-.48.13-2.84-.16-9.83-.42-15.85.04-.08.08-.16.1-.24.05-.15.08-.31.09-.46,0-.07,0-.17,0-.21v-.12s-.03-.5-.03-.5l-.03-1.01v-.65c.65-.91.56-2.04.52-2.72-.01-.14-.02-.28-.02-.4,0-.06-.14-2.3-.34-5.45,1.69,3.54,3.17,6.68,4.08,8.62.7,1.49.99,2.1,1.06,2.24l.09.17c.62,1.14,1.03,1.68,1.83,1.76,0,.09,0,.17,0,.26.05,1.08.18,2.15.4,3.21.11.53.26,1.06.42,1.58l.26.75c.07.2.13.43.2.67.26.96.41,2.08,1.14,3.18.36.54.97,1.03,1.64,1.24.67.2,1.29.23,2,.07.7-.17,1.35-.68,1.7-1.24.37-.56.56-1.14.7-1.69.14-.55.22-1.09.3-1.6.04-.25.08-.5.13-.72,0-.02,0-.04.01-.06.09.06.19.13.29.2l1.27.92c.87.61,1.79,1.19,2.79,1.65.99.47,2.08.82,3.19.97,1.11.14,2.28.17,3.49-.34.57-.25,1.2-.77,1.44-1.5.17-.02.33-.04.5-.07.56-.13,1.13-.34,1.66-.74.42-.32.8-.82.96-1.39.51-.09,1.07-.28,1.54-.73.13-.14.26-.3.36-.46.08-.17.18-.35.23-.52.11-.35.13-.69.13-1.01-.03-.3-.05-.6-.16-.96-.06-.16-.13-.32-.21-.46ZM73.53,164.16v.14c-4.58-1.48-8.01-3.9-10.45-7.37-.74-1.05-1.39-2.18-1.99-3.46-1.62-3.47-2.59-7.51-3.38-11.35-.62-2.98-1.36-5.35-2.26-7.25-2.09-4.39-5.03-6.17-8.8-7.49-.85-.3-1.55-.9-1.97-1.7-.47-.89-.54-1.89-.21-2.83.42-1.2,1.46-2.09,2.72-2.32.6-.11,1.23-.06,1.81.14,2.49.87,4.58,1.92,6.4,3.22,4.7,3.35,7.56,8.52,9.27,16.79,1.53,7.36,2.91,11.6,6.24,14.36.64.53,1.36,1,2.14,1.42-.15,1.36-.24,2.2-.24,2.24,0,.12-.03.26-.04.4-.1.86-.27,2.27.87,3.35l-.11,1.73ZM139.04,101.62c.27.07.37.19.37.21,0,0-.03.67-2.22,1.8-2.9,1.49-4.06,2.23-4.11,2.26-.31.2-.43.59-.28.92.15.33.52.51.87.42,1.24-.33,2.86-.38,3.01.07.25.75-3.28,2.09-4.97,2.73-.52.2-1.04.39-1.53.59-9.74,3.88-20.19,5.21-31.07,3.96-10.89-.97-20.86-4.38-29.62-10.14-.44-.29-.91-.59-1.38-.89-1.53-.97-4.72-2.99-4.32-3.68.07-.12.25-.17.51-.17.61,0,1.64.3,2.45.71.33.16.72.07.94-.23.21-.3.18-.71-.09-.96-.04-.04-1.03-1-3.57-3.04-1.92-1.54-1.82-2.2-1.82-2.21,0-.02.13-.11.41-.13.36-.02.9.13,1.48.3,1,.28,2.25.64,3.54.37,2.1-.44,3.51-4.26,3.7-5,.06-.23.18-.69-.2-1.02-.21-.18-.53-.23-.79-.13-.17.07-.29.18-.42.31-.15.14-.43.41-.62.39-.15-.02-.41-.23-.72-.77-.85-1.47-1.6-7.31-.89-13.49.81-7.08,4.18-16.78,15.6-22.75,1.43-.75,2.9-1.33,4.38-1.79-.6.87-1.21,1.74-1.85,2.59-.98,1.3-2.02,2.55-3.11,3.76-.55.6-1.11,1.19-1.68,1.78l-.87.89c-.15.16-.29.3-.47.54-.05.08-.1.11-.19.35,0,.02-.02.08-.03.14,0,.07-.02.09,0,.2,0,.11.04.23.09.32.06.11.15.21.26.28.07.05.04.02.06.04l.03.02.06.03s.07.03.09.04c.2.07.32.08.44.11.93.13,1.74.13,2.59.13.84,0,1.68-.03,2.51-.07.84-.05,1.67-.11,2.5-.2.84-.09,1.69-.21,2.51-.36.96-.17,1.91-.36,2.86-.57-.67.62-1.34,1.23-2.03,1.84-1.27,1.12-2.57,2.21-3.87,3.31-.79-.62-1.66-1.14-2.58-1.59-.96-.41-1.98-.73-3.04-.85-.54-.03-1.07-.07-1.61,0-.53.03-1.1.09-1.49.61,0,.01-.02.02-.03.04-.14.22-.07.52.16.65l.07.04c.29.17.51.21.74.21.22-.03.43-.05.65-.04.43-.04.87.03,1.31.07.86.16,1.72.41,2.54.8.71.32,1.38.72,2.04,1.15-.06.05-.11.1-.17.16-.1.1-.19.19-.31.35-.03.04-.07.09-.11.17-.03.08-.13.17-.12.54,0,.08.04.21.1.33.04.07.07.11.06.09v.02s.06.06.06.06c.04.05.09.11.14.15.38.32.69.41.96.49,1.1.27,2.05.24,3.02.22,1.91-.09,3.76-.37,5.61-.67.91-.16,1.85-.31,2.78-.55.93-.23,1.84-.52,2.74-.87.68-.26,1.34-.57,1.99-.9-1.18,1.29-2.44,2.5-3.73,3.73-.41.39-.81.76-1.23,1.26-.11.13-.22.26-.34.5-.05.14-.18.29-.11.74.02.1.08.23.14.32.03.04.06.08.1.12.07.09.13.13.19.18.25.18.45.25.63.3.19.06.35.09.52.12,1.3.17,2.44-.01,3.59-.22,2.27-.45,4.41-1.22,6.49-2.1,2.08-.9,4.09-1.88,6.04-3.07,1.93-1.2,3.75-2.58,5.42-4.11,1.67-1.53,3.23-3.17,4.64-4.93.63-.8,1.23-1.62,1.78-2.47,0,0,.02.01.03.02,9.98,8.15,11.33,18.33,10.7,25.43-.55,6.2-2.46,11.77-3.59,13.03-.41.46-.71.62-.86.61-.18-.01-.41-.33-.53-.5-.11-.15-.2-.29-.35-.39-.23-.16-.55-.17-.8-.04-.44.25-.41.73-.4.97.04.76.65,4.78,2.62,5.64,1.2.52,2.5.43,3.54.35.6-.04,1.16-.08,1.51,0ZM104.09,122.93c.09.2.2.42.35.64-.56.58-1.06,1.4-1.13,2.5-.14,1.98-.04,36.43.11,37.23.02.1.03.22.04.37.08.92.29,3.37,2.87,3.49.26.01.59.03.96.05,1.29.08,3.2.19,5.42.19,2.66,0,5.75-.17,8.71-.76.23-.05.43-.11.62-.17l.02.66.02.52v.17s0,.02,0,.03c0,.02-.02.03-.03.04,0,0-.01,0-.02.01,0,0,0,0-.02,0l-.12.03c-.31.07-.63.13-.95.19-.65.12-1.31.21-1.97.29-1.32.16-2.66.27-4,.35-5.36.31-10.77.19-16.15-.09-5.39-.28-10.77-.72-16.08-1.56-1.33-.21-2.65-.45-3.95-.73-.65-.14-1.3-.29-1.94-.46-.32-.09-.64-.17-.95-.27l-.46-.14-.23-.08s-.03-.02-.05-.02c-.06-.04-.1-.12-.1-.17l.06-1,.06-.93s.04.02.06.02c5.35,1.91,11.22,2.43,14.05,2.69.37.03.7.06.96.09.13.01.26.02.39.02,2.29,0,2.59-2.26,2.7-3.14.02-.14.03-.27.06-.36.3-1.34,1.92-36.1,1.74-37.57-.09-.71-.38-1.33-.75-1.83.17-.22.32-.47.44-.77.76-1.84-.58-3.37-1.48-3.98-.26-.17-1.41-.96-2.83-2.06,2.58,1.17,5.39,1.99,8.27,2.37,2.17.29,4.36.4,6.48.37-.89.65-1.93,2-1.18,3.75ZM93.46,121.91c-.17.4-.37.65-.62.74-.31.12-.79.02-1.4-.28-3.3-1.63-7.93-4.53-10.15-7.37-.9-1.15-1.71-2.56-2.16-3.76,1.84.77,3.72,1.45,5.63,2.04,2.76,3.02,7.2,6.07,7.75,6.44.15.1,1.43,1.01.94,2.19ZM98.98,117.33c-2.98-.39-5.89-1.28-8.51-2.56,2.76.59,5.59,1.02,8.49,1.28,2.69.31,5.35.46,7.99.46.94,0,1.87-.02,2.79-.06-.63.37-1.26.75-1.87,1.12-2.85.22-5.92.15-8.89-.24ZM106.29,120.28l.68-.41c1.73-1.06,4.47-2.73,6.21-3.64,1.25-.12,2.49-.28,3.73-.47.99,1.3,1.24,2.02,1.26,2.26-.95.54-7.87,3.84-10.6,4.99-1.12.47-1.69.29-2.1-.68-.52-1.2.69-1.97.83-2.06ZM57.19,86.64c.13-.21.25-.41.36-.58.2-.29.62-.85,1.12-1.49.71-.94,1.4-1.85,2.02-2.7.51,3.62,1.5,7.19,3.13,10.5.03.06.06.12.09.17-.48-.12-.95-.21-1.38-.19-.07,0-.14.02-.21.02-1.79-1.91-3.52-3.84-5.12-5.75ZM62.96,64.73c.49-2.25,1.15-4.46,1.97-6.6.84-2.14,1.8-4.22,3.07-6.13.31-.48.6-.98.93-1.45l1.03-1.37.52-.69c.18-.22.38-.43.56-.65l1.14-1.29c1.6-1.63,3.28-3.21,5.14-4.56,1.85-1.36,3.81-2.57,5.85-3.64,2.05-1.04,4.19-1.96,6.37-2.62h.03c.18-.06.3-.25.26-.45-.04-.21-.24-.34-.45-.3-1.77.35-3.46.89-5.11,1.55-1.46-2.08-4.82-6.28-9.92-9.12-.99-.55-1.76-.45-2.23-.27-.71.27-1.28.93-1.59,1.86-.97,2.84-1.65,8.04.29,16.83l-.91,1.03c-.2.23-.4.44-.59.68l-.54.71-1.08,1.43c-.34.49-.65,1-.97,1.5-1.32,1.97-2.33,4.14-3.2,6.34-.15-.79-.26-1.59-.36-2.39-.43-3.37-.6-6.79-.62-10.2-.02-3.42.11-6.84.4-10.24.29-3.41.72-6.77,1.49-10.09.38-1.63.8-3.29,1.58-4.6.4-.65.89-1.15,1.5-1.44.61-.28,1.34-.37,2.11-.3,1.55.13,3.15.7,4.7,1.33.78.32,1.55.67,2.32,1.04.76.37,1.51.76,2.26,1.16,2.95,1.65,5.75,3.6,8.37,5.77,2.63,2.16,5.02,4.59,7.6,6.84h.01c.13.12.32.14.46.04.18-.12.22-.35.11-.53-.17-.25-.34-.49-.52-.73,2.53-.44,5.13-.68,7.8-.68,1.56,0,3.13.08,4.72.24,4.31.44,8.39,1.46,12.17,2.95-.22.2-.44.4-.65.61-.12.12-.15.31-.06.46.1.18.34.25.52.14h.01c2.97-1.7,5.81-3.59,8.82-5.18,3-1.6,6.14-2.94,9.36-3.96.81-.23,1.62-.47,2.44-.68.82-.21,1.65-.39,2.48-.55,1.65-.31,3.33-.54,4.88-.36.77.09,1.47.33,2.01.72.54.4.92,1,1.18,1.71.5,1.44.58,3.15.62,4.83.08,3.4-.17,6.78-.58,10.18-.41,3.39-.97,6.77-1.67,10.11-.71,3.34-1.56,6.65-2.66,9.87-.26.76-.53,1.52-.83,2.26-.41-2.32-.97-4.65-1.86-6.85-.22-.56-.41-1.12-.65-1.67l-.77-1.62-.38-.81c-.14-.27-.29-.52-.44-.78l-.68-1.19c3.68-8.22,4.05-13.45,3.68-16.43-.12-.97-.54-1.73-1.18-2.14-.43-.27-1.16-.53-2.24-.19-5.57,1.75-9.71,5.19-11.55,6.93-1.48-.98-3.04-1.85-4.69-2.55-.18-.07-.39,0-.48.17-.1.18-.03.41.15.51h.02c2,1.1,3.92,2.44,5.71,3.87,1.78,1.46,3.46,3.04,4.99,4.75,1.56,1.69,2.88,3.57,4.12,5.5l.85,1.49c.14.25.29.49.42.75l.37.78.73,1.55c.23.53.41,1.07.62,1.6.86,2.13,1.39,4.36,1.78,6.62.38,2.26.57,4.56.6,6.87.05,4.6-.51,9.23-1.73,13.66-1.23,4.42-3.14,8.68-5.93,12.27-.32.42-.66.82-1.01,1.22-.45-.02-.9-.1-1.31-.28-.66-.29-1.19-1.69-1.49-2.87.08.02.17.03.26.04.68.04,1.36-.32,2.06-1.1,1.47-1.64,3.41-7.61,3.96-13.89.93-10.55-3.06-20.03-11.24-26.71-.06-.05-.12-.1-.19-.15.37-.65.73-1.3,1.04-1.99.07-.16.03-.35-.12-.46-.17-.13-.41-.09-.53.08v.02s-.02,0-.02,0c-.02.03-.04.06-.06.09-2.6,3.48-5.29,6.92-8.51,9.81-1.62,1.46-3.37,2.78-5.21,3.92-1.85,1.11-3.85,2.08-5.85,2.94-2.01.84-4.08,1.57-6.18,1.97-.97.18-1.98.3-2.86.21.25-.25.52-.52.8-.78,2.6-2.41,5.21-5.02,7.22-8.08.92-.85,1.72-1.82,2.18-3.05.05-.13.03-.28-.07-.39-.14-.16-.38-.17-.54-.03l-.04.03c-1.34,1.18-2.55,2.49-3.99,3.53-1.44,1.05-3.02,1.89-4.7,2.51-.84.31-1.69.57-2.56.78-.86.22-1.75.35-2.67.5-1.81.28-3.63.53-5.41.6-.71.03-1.45.03-2.08-.06.16-.15.33-.29.5-.44,1.39-1.2,2.81-2.41,4.19-3.66,1.38-1.24,2.74-2.54,4.05-3.84,1.31-1.29,2.76-2.64,3.47-4.47.05-.13.03-.29-.07-.4-.14-.16-.39-.18-.55-.03h0c-1.29,1.16-2.39,2.39-3.63,3.58-1.8.43-3.6.83-5.4,1.17-.8.15-1.59.26-2.39.35-.81.09-1.62.15-2.43.2-.81.05-1.62.08-2.43.08-.46,0-.93,0-1.38-.02l.43-.44c.58-.6,1.15-1.21,1.71-1.83,1.12-1.24,2.18-2.54,3.18-3.88,2.01-2.67,3.77-5.54,4.99-8.66.01-.03.02-.06.02-.1,0-.03,0-.05,0-.08-.01-.11-.07-.22-.17-.28-.18-.12-.41-.07-.53.11-.79,1.21-1.57,2.41-2.36,3.6-2.13.53-4.28,1.3-6.36,2.38-9.36,4.89-15.18,13.38-16.39,23.9-.72,6.26-.02,12.5,1.09,14.4.53.9,1.11,1.39,1.79,1.49.09.01.18.02.26.02-.52,1.09-1.32,2.36-2.03,2.51-.44.09-.89.08-1.34.01-.26-.46-.51-.92-.75-1.39-1.8-3.65-2.8-7.67-3.21-11.75.39-.62.7-1.16.85-1.57.42-1.14.12-2.44-.78-3.39-.09-.1-.19-.18-.29-.27.05-3.34.44-6.69,1.15-9.96ZM71.93,29.49c.17-.49.43-.84.72-.95.08-.03.16-.05.26-.05.21,0,.45.08.72.23,4.6,2.56,7.77,6.38,9.24,8.42-.08.04-.16.07-.24.1-2.17.98-4.21,2.21-6.15,3.59-1.59,1.09-3.04,2.38-4.41,3.73-1.7-8.32-.85-12.97-.13-15.08ZM139.72,51.45c-1.08-1.6-2.23-3.15-3.57-4.54-1.62-1.74-3.38-3.36-5.3-4.76-.07-.05-.14-.1-.22-.15,1.85-1.7,5.73-4.81,10.75-6.39.43-.14.77-.13,1,.02.26.17.45.56.51,1.07.28,2.21.17,6.93-3.17,14.74ZM35.55,96.57c-1.3-.15-2.92-.34-5.08-.49-3.49-.25-4.97-1.26-5.19-2.12-.17-.65.32-1.24.84-1.58.9-.59,2.35-.67,3.68-.67.27,0,.54,0,.8,0,1.64.02,2.94.04,3.13-1.04.13-.73-.41-1.32-.59-1.51-.8-.86-2.46-1.89-4.99-3.46-.64-.4-1.34-.83-2.08-1.29-1.48-.93-2.13-2.09-1.75-3.1.3-.79,1.17-1.26,2.06-1.12.92.15,4.84,2.06,6.31,2.78.41.2.72.35.88.42.68.32,1.55.62,2.16.19.2-.14.52-.48.45-1.15-.05-.51-.6-1.43-2.72-4.81-.56-.88-1.14-1.81-1.69-2.7-2.19-3.57-1.43-4.7-.52-5.28.61-.39,1.75-1.12,4.35,2.19.35.45.91,1.2,1.49,2,2.59,3.54,3.26,4.34,3.78,4.51,1,.34,1.91.01,2.5-.9.47-.73.05-1.93-.88-4.38-.66-1.74-1.56-4.13-1.33-5.06.23-.91.76-1.46,1.5-1.57.96-.13,2,.48,2.6,1.52.49.85,1.18,2.52,1.91,4.28,1.24,3,2.53,6.11,3.66,7.39.38.43.76.67,1.15.72,1.27.17,2.4-1.04,3.72-2.44.96-1.02,2.06-2.18,3.01-2.48,1.24-.39,2.02.25,2.3.54.51.53.68,1.24.46,1.85-.43,1.17-2.66,4.09-3.99,5.84-.53.69-.94,1.23-1.16,1.55-.23.34-.46.73-.71,1.17-.96,1.67-2.42,4.2-6.24,6.82-3.21,2.2-4.86,3.14-8.31,3.55-1.9.22-3.26.07-5.52-.19ZM42.6,98.03c2.9-.53,4.69-1.59,7.62-3.6,3.49-2.39,5.13-4.7,6.18-6.44,1.45,1.7,2.99,3.43,4.59,5.14-.08.12-.15.24-.19.38-.33,1.04.44,2.32,2.3,3.82.4.32.76.62,1.09.88-.69.03-1.32.27-1.69.92-1.09,1.92,1.78,3.74,4.82,5.67.47.29.93.59,1.36.87,2.79,1.83,5.7,3.43,8.71,4.8.41,2.38,2.43,5.04,2.74,5.43.11.14.24.29.36.43.08,1.09.41,6.03-.47,9.55-.37,1.48-1.13,2.87-1.87,3.97.15-1.33.29-2.66.39-3.99.01-.18-.11-.36-.29-.4-.21-.05-.41.07-.46.28-.51,2.07-.93,4.15-1.3,6.23-.15.17-.25.27-.26.27-.08.08-.15.18-.18.3-.15.46-.4,2.05-.69,4.23-14.13-14.38-27.8-32.15-32.75-38.76ZM74.24,159.25c.02-.16.04-.32.05-.46.09-1.27,2.51-23.05,3.12-25.61.64-.67,3.19-3.51,4.04-6.92.68-2.75.69-6.18.61-8.3,2.55,2.3,6.06,4.43,8.72,5.75.65.33,1.24.49,1.77.49.22,0,.42-.04.62-.09.24.33.44.72.49,1.15.21,1.74-1.52,35.71-1.72,37.06-.03.13-.05.3-.08.5-.18,1.36-.43,1.94-1.47,1.84-.27-.03-.6-.06-.98-.09-2.76-.25-8.51-.77-13.68-2.61-1.73-.62-1.62-1.58-1.49-2.69ZM86.06,229.64c-.84.72-5.19,2.53-13.91,1.51-5.33-.62-10.33-3.43-11.37-6.4-.24-.7-.38-1.39-.45-1.97,1.62,2.38,3.77,2.8,3.89,2.82.22.04.43-.02.6-.16.04-.04,4.39-3.49,12.22-2.18,5.96,1,7.31,2.75,7.95,3.59.28.37.57.75,1.1.79.43.03.77-.11,1.08-.38-.16.94-.49,1.83-1.12,2.37ZM87.18,223.9c-.33,1.34-.72,2.01-.9,2.21-.04-.05-.08-.1-.12-.15-.76-.99-2.34-3.05-8.88-4.15-7.38-1.24-11.88,1.42-13.08,2.26-.76-.25-2.8-1.23-3.71-4.52.25-3.13,1.65-6.78,4.2-10.9.77-1.24,1.76-2.92,2.51-4.22,0,.02.02.05.03.07.41.93,1.21,2.08,2.09,2.28.38.09.95.03,1.87-.08,2.07-.23,5.53-.61,9.68.35,3.87.89,4.99,1.99,5.47,2.45.16.16.59.58,1.09.44.02.42.04.87.05,1.33-1.72-1.49-5.47-2.81-9.75-3.36-3.3-.42-7.25-.06-9.68.6-.77-.04-1.56.15-2.27.57-1.46.87-2.22,2.47-1.91,3.8-.69,1.57-1.15,3.16-.86,3.78.2.42.65.61,1.1.47.06-.02,6.68-2.04,12.22-1.41,5.9.67,8.57,2.62,9.64,3.73.35.37.78.75,1.24.94,0,.1,0,.21,0,.31.02,1.09.03,2.2-.03,3.21ZM69.05,211.53c-.26.45-.75.91-1.35,1.27-.56.33-1.1.5-1.52.48-.35-.02-.59-.16-.77-.46-.37-.62.03-1.81,1.13-2.46.42-.25.87-.38,1.31-.38.1,0,.2,0,.3.02.46.07.81.28,1,.59.15.25.11.56-.11.94ZM87.6,218.88s0,.02,0,.02c-.12-.08-.3-.23-.55-.49-2.08-2.15-5.82-3.63-10.54-4.17-.78-.09-1.58-.13-2.39-.13-3.75,0-7.63.82-9.61,1.36.09-.31.22-.7.38-1.11.35.24.77.38,1.24.41.05,0,.1,0,.15,0,.68,0,1.44-.24,2.2-.69.82-.49,1.48-1.12,1.87-1.8.5-.85.53-1.72.1-2.45-.05-.09-.13-.17-.19-.25,2.09-.34,4.82-.51,7.3-.19,3.11.4,5.79,1.23,7.51,2.08-.03.02-.07.03-.1.05-1.22.76-1.27,2.57-.13,4.42h0c.75,1.21,1.72,1.86,2.67,1.86.06,0,.11,0,.17-.01,0,.54-.02.94-.05,1.09ZM87.85,216.21c-.77.48-1.61-.79-1.77-1.05h0c-.63-1.02-.79-2.11-.35-2.38.2-.12.43-.19.67-.19.11,0,.23.01.34.04.45.12.85.47,1.15,1.02.58,1.06.45,2.24-.04,2.55ZM86.94,205.41c-.06.48-.1,1.05-.12,1.7-.02.05-.03.1-.03.15l-.07.61c-.83-.64-2.38-1.53-5.51-2.25-4.39-1.01-8.15-.6-10.17-.38-.57.06-1.22.13-1.37.11-.21-.07-.8-.73-1.17-1.67-.11-.29-.16-.51-.18-.7,1.72-4.4,4.13-14.41,5.2-19.02,2.69.95,7.36,2.33,13.48,3.06,1.93.23,3.44.34,4.63.38-1.34,4.78-4.39,15.83-4.68,18.02ZM134,222.31c.58,1.11.82,4.13.26,5.88-.54,1.71-.97,3.06-7.41,3.58-5.67.46-14.82-1.02-18.23-2.25-3.93-1.42-8.35-3.76-8.77-4.47-.11-.24-.18-1.13-.2-2.11,1.89,1.01,5.51,2.75,8.3,3.77,3.68,1.35,10.07,3.34,11.47,1.56,1-1.27,5.38-4.97,8.24-5.83,2.65-.79,5.7-.45,6.33-.13ZM126.08,213.25c.5.46,1.02,1.02,1.43,1.52-1.55-.44-3.04-.47-4.38-.07-2.96.88-5.03,1.88-7.12,3.47-.55.42-1.02.88-1.45,1.29-1.34,1.3-1.86,1.71-3,.87-.42-.31-.77-.63-1.05-.96.15.11.31.21.49.29.36.16.75.24,1.14.24.44,0,.89-.1,1.33-.31.77-.37,1.41-1.04,1.79-1.87.8-1.77.19-3.77-1.36-4.47-.22-.1-.45-.17-.69-.2,1.53-.99,3.53-1.83,5.92-1.92.28-.01.55-.02.81-.02,3.82,0,4.99,1.09,6.13,2.14ZM111.01,215.79c.46-1.02,1.49-1.56,2.29-1.2.8.36,1.08,1.49.62,2.51-.23.52-.61.92-1.07,1.14-.42.2-.85.22-1.21.05-.8-.36-1.08-1.49-.62-2.51ZM122.28,209.79c-.88-.13-1.93-.19-3.19-.14-5.94.22-9.84,4.56-10.52,6.04-.34.75-1.2,3.38,2.13,5.83.72.53,1.35.74,1.93.74,1.19,0,2.13-.9,2.98-1.73.41-.4.83-.81,1.31-1.17,1.96-1.49,3.83-2.4,6.64-3.23,1.47-.44,3.22-.21,5.06.65.02,0,.03,0,.04.02.88.68,1.93,1.41,3.15,2.18.59.38,1.08.97,1.45,1.65-1.69-.27-4.12-.16-6.01.41-3.19.95-7.86,4.91-8.98,6.33-.47.48-4.14.03-9.8-2.03-3.25-1.19-7.6-3.35-8.84-4.08,0-1.4.1-3.65.17-5.17.07-1.52.13-2.83.12-3.47-.02-1.33.21-2.24.68-2.72.31-.31.74-.47,1.32-.47.01,0,.02,0,.03,0,2.16,0,4.93,1.54,5.93,2.37,1.3,1.08,2.1.41,2.95-.29.24-.2.53-.44.89-.71,2.18-1.61,5.35-2.64,7.88-2.56,1.36.04,2.01.67,2.66,1.59ZM119.22,206.72c-2.79.03-6.02,1.11-8.36,2.84-.39.29-.7.55-.96.76-.27.22-.6.5-.7.52,0,0-.1-.02-.36-.23-1.08-.89-4.16-2.71-6.88-2.71-.02,0-.03,0-.05,0-.29,0-.57.04-.83.1.02-.29.03-.58.05-.88v-.21c.13-1.72.23-14.37.27-20.08,1.93.3,5.03.6,9.67.6.3,0,.61,0,.93,0,3.33-.03,5.75-.34,7.5-.73-.14,6.6-.32,15.99-.29,20.02ZM122.44,184.04c-.7.47-3.38,1.84-10.45,1.9-6.68.06-10.31-.51-11.87-.86-.08-.02-.14-.09-.15-.17l-.33-6.62h0c-.03-.53-.41-.96-.94-1.04-.06,0-.12-.01-.18-.01-.46,0-.87.28-1.04.73l-2.86,7.7c-.34.14-1.89.54-7.46-.13-7.64-.91-12.95-2.84-14.88-3.63-.24-.1-.46-.36-.4-.59.37-1.39.85-3.15,1.37-5.04.84-3.02,1.76-6.37,2.41-9.02.25.07.51.15.76.22.67.17,1.34.34,2.01.48,1.34.3,2.69.54,4.04.76,5.39.87,10.83,1.33,16.26,1.63,5.43.26,10.88.36,16.34.03,1.36-.09,2.73-.2,4.1-.37.68-.09,1.37-.18,2.05-.31.27-.05.54-.11.82-.17.23,5.36.48,11.69.4,14.51ZM121.12,165.19c-5.24,1.06-10.99.71-13.75.54-.38-.02-.71-.04-.98-.06-1.08-.05-1.34-.76-1.46-2.14-.02-.2-.03-.37-.05-.47-.13-1.28-.21-35.08-.09-36.9.05-.71.39-1.24.77-1.63.29.13.61.21.99.21.45,0,.97-.11,1.58-.36,1.82-.77,6.15-2.79,8.79-4.08-.27,2.03-.53,5.32.03,8.16.69,3.54,3.14,6.76,3.71,7.48.49,2.57,1.93,25.08,1.96,26.38,0,.15.02.3.03.47.09,1.27.07,2.07-1.53,2.39ZM132.02,167.97c-.77.21-1.02.21-1.08.18-.13-.07-.38-.53-.63-.99l-.09-.17c-.06-.12-.49-1.02-1.03-2.17-1.75-3.72-3.72-7.9-5.68-11.94-.09-1.3-.18-2.66-.27-4.02-.02-.37-.03-.74-.05-1.11-.04-.68-.1-1.35-.17-2.01-.37-5.04-.74-9.49-.96-10.32-.03-.1-.08-.2-.15-.28,0,0-.05-.06-.14-.17-.33-2.48-.73-4.95-1.24-7.4-.04-.18-.2-.31-.39-.3-.21,0-.37.19-.36.4.06,1.6.18,3.2.32,4.8-.69-1.22-1.39-2.73-1.69-4.28-.59-3.01-.16-6.73.11-8.47,3.38,3.14,8.43,8.68,13.29,17.29,4.28,7.59,11.73,22.57,11.81,22.74.03.06.73,1.39-.29,2.46-1.5,1.56-4.29,3.86-11.31,5.78ZM147.16,166.58s.04.07.08.11c.05.04.1.07.15.11.1.07.21.13.32.2.21.12.43.22.66.32l1.36.52c.9.36,1.78.75,2.63,1.19.84.44,1.67.92,2.36,1.48.34.28.65.58.86.89.11.15.18.3.23.44.04.11.05.31.07.5,0,.36-.06.6-.2.74-.09.09-.25.17-.45.23-.11-.27-.25-.49-.39-.68-.38-.49-.8-.84-1.23-1.16-.85-.63-1.73-1.12-2.62-1.56-.89-.45-1.8-.85-2.71-1.23-.92-.36-1.8-.83-2.89-.74-.09,0-.19.05-.26.12-.16.16-.17.42,0,.59h0c.74.76,1.67,1.02,2.54,1.43.88.39,1.74.8,2.58,1.25.83.45,1.65.92,2.36,1.46.35.27.68.56.89.84.1.14.17.27.18.34l.03.22c0,.07,0,.14,0,.21-.03.25-.15.46-.4.66-.25.2-.6.35-.99.44-.06.01-.13.02-.19.03-.09-.2-.2-.38-.31-.53-.75-1-1.63-1.61-2.51-2.23-1.77-1.2-3.61-2.23-5.68-2.77-.15-.04-.31.01-.41.15-.12.17-.09.41.09.54h0c1.68,1.22,3.49,2.18,5.14,3.31.8.57,1.63,1.21,2.11,1.88.25.37.25.47.17.79-.08.24-.28.45-.64.61-.71.31-1.7.33-2.63.19-.94-.14-1.85-.43-2.73-.86-.88-.42-1.71-.95-2.53-1.53l-1.24-.92c-.22-.16-.43-.32-.72-.49-.08-.04-.15-.09-.26-.13-.11-.04-.22-.1-.49-.12-.54,0-.85.31-1.01.53-.3.45-.33.74-.41,1.03-.06.29-.11.55-.15.81-.08.51-.16,1-.28,1.45-.12.45-.26.87-.47,1.17-.2.31-.43.48-.73.56-.3.09-.75.07-1.07-.03-.32-.1-.57-.29-.79-.6-.45-.63-.65-1.62-.91-2.64-.07-.26-.14-.53-.24-.82l-.26-.71c-.15-.46-.28-.94-.39-1.42-.21-.96-.34-1.95-.39-2.94,0-.14,0-.27-.01-.41,0,0,0,0,0,0,7.22-1.97,10.24-4.39,11.88-6.07.82.14,1.64.31,2.46.51.94.24,1.88.51,2.81.81.93.31,1.86.61,2.71,1,.85.39,1.67.85,2.34,1.42.67.56,1.19,1.27,1.32,1.96.03.12.03.24.03.35-.07-.06-.14-.12-.21-.18-.85-.68-1.76-1.17-2.68-1.62-.92-.44-1.86-.83-2.8-1.17-.48-.17-.95-.35-1.43-.48-.25-.06-.5-.11-.75-.13-.13,0-.26-.02-.4-.01-.07,0-.14,0-.21.01l-.28.03c-.21,0-.39.16-.39.36,0,.21.16.39.36.39Z"/>
            <path d="M118.26,71.25h.06c.63.12.96-.22,1.38-.42.41-.22.83-.42,1.26-.6.85-.36,1.72-.67,2.6-.87.88-.21,1.77-.29,2.65-.27.43.04.87.07,1.29.19.22.04.42.1.63.18.21.05.45.06.76-.05l.08-.03s.03-.01.04-.02c.24-.11.34-.4.23-.63-.28-.59-.83-.77-1.34-.9-.51-.18-1.04-.25-1.57-.32-1.07-.1-2.13,0-3.15.22-1.01.26-1.98.6-2.9,1.06-.46.22-.91.47-1.34.73-.42.28-.92.46-1.08,1.14,0,0,0,.02,0,.03-.05.27.13.52.4.57Z"/>
            <path d="M92.01,86.52c.31-3.06-.76-6.02-2.6-8.05-.52-.64-1.09-1.23-1.71-1.78-1.64-1.46-3.68-2.54-5.86-3.01-1.09-.22-2.19-.34-3.33-.27-1.14.08-2.28.38-3.3.92-.31.16-.61.35-.89.55,0,0,0,0,0,0-.08-.05-.17-.08-.25-.13-.17-.09-.34-.22-.51-.34-.33-.26-.65-.58-.94-.93-.31-.34-.56-.73-.82-1.14l-.35-.63c-.11-.22-.17-.45-.43-.62l-.03-.02s-.08-.04-.12-.05c-.25-.07-.5.08-.57.33-.08.31.05.54.12.8l.29.75c.22.49.46.98.77,1.44.31.46.68.9,1.15,1.26.15.11.3.22.47.31-.18.18-.35.36-.52.56-.71.86-1.4,1.79-1.42,3.01,0,.1.03.2.11.28.15.16.4.17.57.02l.04-.04c.75-.71,1.19-1.57,1.84-2.28.64-.71,1.39-1.3,2.23-1.71.83-.42,1.75-.63,2.69-.7.93-.05,1.93.06,2.87.27.64.13,1.26.33,1.86.58-1.85.11-3.63.84-5.04,2.11-1.8,1.63-2.8,3.92-2.8,6.45,0,6.18,4.27,9.44,8.26,9.84.18.02.36.03.55.03,3.37,0,7.21-3.04,7.69-7.8h0ZM88.27,82.96c-.19,1.87-1.49,3.27-2.9,3.13-1.41-.14-2.4-1.78-2.21-3.65.19-1.87,1.49-3.27,2.9-3.13,1.41.14,2.4,1.78,2.21,3.65Z"/>
            <path d="M132.83,85.94l.03.05c.06.08.15.14.25.16.22.04.43-.1.47-.32.22-1.2-.26-2.25-.79-3.24-.12-.22-.26-.44-.4-.65.18-.06.35-.13.52-.21.53-.26.98-.62,1.38-1,.4-.39.73-.82,1.05-1.25l.43-.67c.12-.23.29-.44.28-.76,0-.04-.01-.09-.03-.13-.09-.24-.35-.36-.59-.27h-.03c-.29.12-.39.34-.55.53l-.47.55c-.33.34-.66.68-1.03.95-.36.28-.73.53-1.11.72-.19.09-.38.17-.57.23-.09.04-.19.04-.28.08,0,0,0,0,0,0-.24-.25-.49-.5-.76-.72-.89-.74-1.95-1.26-3.05-1.57-1.11-.3-2.21-.4-3.32-.41-2.23.02-4.44.67-6.34,1.77-.7.4-1.36.86-1.98,1.37-2.23,1.61-3.9,4.32-4.21,7.4h0c-.51,5.02,3.02,8.92,6.51,9.27.29.03.59.04.89.04,3.79,0,8.04-2.41,9.18-8.02.51-2.48,0-4.93-1.44-6.88-1.12-1.53-2.73-2.6-4.51-3.08.64-.12,1.28-.19,1.94-.19.97-.01,1.96.08,2.86.31.9.25,1.76.65,2.49,1.23.74.57,1.36,1.3,1.84,2.12.49.83.75,1.75,1.35,2.6ZM123.03,83.08c1.41.14,2.4,1.78,2.21,3.65-.19,1.87-1.49,3.27-2.9,3.13-1.41-.14-2.4-1.78-2.21-3.65.19-1.87,1.49-3.27,2.9-3.13Z"/>
            <path d="M109.61,99.77c-2.29-.38-4.99-.65-8.11-.98h-.03s.18-1.77.18-1.77c.73,0,1.32-.16,1.76-.47.52-.36.82-.92.89-1.64.1-1.02-.59-2.24-2.87-2.61-1.62-.27-3.04.28-3.46,1.34-.27.67-.22,1.36.13,1.93.28.47.87,1.03,2.08,1.3l-.18,1.78c-2.82-.27-5.29-.49-7.42-.57-1.57-.05-2.66.82-2.8,2.29-.24,2.51.34,6.74,2.67,9.87.03.05.07.1.11.14,1.52,1.97,3.75,3.48,6.93,3.8.43.04.85.06,1.26.06,8.15,0,10.83-8.31,11.17-11.68.15-1.47-.73-2.54-2.3-2.79ZM99.36,94.79c-.11-.17-.11-.38-.02-.61.09-.23.56-.47,1.27-.47.18,0,.37.01.57.05h0c1.18.19,1.67.64,1.63.99-.04.37-.16.51-.27.58-.15.11-.55.27-1.5.18-.84-.09-1.47-.35-1.69-.72ZM105.89,111.07c-1.57,1.18-3.61,1.9-6.26,1.63-2.47-.24-4.23-1.3-5.49-2.71l-.16-.02c.76-.87,3.03-3.07,6.32-2.75,3.56.35,5.16,2.91,5.63,3.85h-.04ZM110.44,102.41c-.18,1.8-1.12,5.21-3.39,7.62-.79-1.36-2.74-3.9-6.61-4.28-3.62-.36-6.15,1.72-7.29,2.92-1.84-2.99-2.05-6.75-1.91-8.16.03-.27.09-.99,1.28-.95,2.27.08,4.95.33,8.05.63l.77.08c3.1.32,5.78.6,8.03.97,1.17.19,1.09.91,1.07,1.18Z"/>
          </g>
        </g>
      </g>
    </g>
    <g class="cls-10">
      <g>
        <g>
          <g>
            <path class="cls-3" d="M69.33,23.92c-1.63,1.24-3.94,2.99-5.91,4.46.61.35,1.23.71,1.8,1.06,2.5-1.82,4.42-3.3,5.9-4.51-.58-.36-1.18-.71-1.79-1.01Z"/>
            <path class="cls-3" d="M70.7,20.08c.13-.27.26-.56.38-.89.34-.9.94-9.52,1.33-17.18,0-.09.03-.17.06-.25-1.75-.53-2.46-1.07-2.46-1.07-.19,3.01-.42,6.43-.66,9.56-.33,4.43-.68,8.26-.94,9.49,0,0,0,.02,0,.02,0,0,0,.01,0,.02.66-.04,1.45.07,2.3.3Z"/>
            <path class="cls-3" d="M82.27,2.69c-.72.04-1.47.07-2.26.06-.37,0-.71-.02-1.06-.03,0,.03.01.07.01.1-.26,2.84-1.55,17.03-1.78,17.87-.14.52-.55,1.16-1.23,1.94.22.16.44.32.64.48.52.42,1.07.9,1.62,1.41,1.19-1.09,2.53-2.57,2.66-4.1l1.4-17.73Z"/>
            <path class="cls-3" d="M74.62,21.77c.67-.72.96-1.19,1.04-1.5.16-.72,1.12-10.92,1.73-17.6,0-.02.01-.03.01-.05-1.36-.11-2.48-.28-3.43-.48-.14,2.78-.84,16.11-1.43,17.62-.11.29-.23.56-.35.82.82.32,1.64.73,2.42,1.18Z"/>
            <path class="cls-3" d="M72.5,25.85c-1.54,1.27-3.47,2.77-5.85,4.51.81.57,1.64,1.21,2.46,1.74,1.66-1.37,3.8-3.13,5.56-4.59-.6-.5-1.35-1.08-2.17-1.66Z"/>
            <path class="cls-3" d="M76.15,28.79c-.06-.06-.15-.14-.27-.24-1.63,1.35-3.61,2.99-5.26,4.34.51.19,1.03.29,1.53.25,2.07-.16,4.5-1.92,5.18-2.38.31-.21-.21-1.06-1.19-1.97Z"/>
            <path class="cls-3" d="M65.74,22.76c-1.57,1.32-3.55,2.83-5.14,4.09.38.19.83.42,1.31.69,1.81-1.34,4.02-3.01,5.75-4.33-.65-.23-1.3-.39-1.92-.45Z"/>
            <path class="cls-3" d="M85.53,22.22c.11-1.41,1.4-17.76,1.6-20.23-1.34.32-2.96.58-4.82.7l1.55.12-1.4,17.73c-.16,2.02-1.64,3.73-3.09,5.07,1.48,1.45,2.76,2.83,3.17,3.12.19.13.84-.05,1.69-.38-.04-.14-.06-.29-.02-.44.34-1.19,1.23-4.54,1.32-5.68Z"/>
            <path class="cls-3" d="M88.68,1.57c.03.09.04.19.03.29-.1,1.22-1.5,19.02-1.62,20.49-.09,1.17-.81,3.92-1.17,5.24,1.51-.72,3.12-1.62,3.97-2.22.55-6.49,1.35-17.3,1.91-25.07h0s-1.1.64-3.13,1.27Z"/>
            <path class="cls-3" d="M115.35,28.79c-.98.9-1.5,1.76-1.19,1.97.68.46,3.11,2.22,5.18,2.38.51.04,1.02-.06,1.53-.25-1.64-1.35-3.63-2.99-5.26-4.34-.11.1-.2.18-.26.24Z"/>
            <path class="cls-3" d="M120.38,24.94c1.48,1.2,3.4,2.69,5.9,4.51.57-.35,1.19-.71,1.8-1.06-1.97-1.47-4.28-3.21-5.91-4.46-.61.3-1.21.65-1.79,1.01Z"/>
            <path class="cls-3" d="M115.54,22.62c-.68-.78-1.09-1.42-1.23-1.94-.22-.84-1.52-15.03-1.78-17.87,0-.04,0-.07.01-.1-.34.01-.69.03-1.06.03-.79,0-1.54-.02-2.26-.06l1.4,17.73c.12,1.53,1.47,3.01,2.66,4.1.54-.5,1.09-.99,1.62-1.41.2-.16.42-.32.64-.48Z"/>
            <path class="cls-3" d="M120.42,19.2c.12.32.25.61.38.89.85-.23,1.64-.34,2.3-.3,0,0,0-.01,0-.02,0,0,0-.02,0-.02-.25-1.18-.58-4.79-.91-9.02,0,0,0-.01,0-.02-.01-.14-.02-.29-.03-.44-.24-3.13-.47-6.56-.66-9.58,0,0-.71.54-2.46,1.07.03.08.06.16.07.25.39,7.66.98,16.28,1.33,17.18Z"/>
            <path class="cls-3" d="M109.05,20.54l-1.4-17.73,1.55-.12c-1.86-.11-3.48-.38-4.82-.7.2,2.47,1.49,18.82,1.6,20.23.09,1.14.98,4.49,1.32,5.68.04.15.02.3-.02.44.85.34,1.51.51,1.69.38.42-.29,1.69-1.66,3.17-3.12-1.45-1.33-2.93-3.05-3.09-5.07Z"/>
            <path class="cls-3" d="M125.75,22.76c-.62.06-1.27.22-1.92.45,1.73,1.31,3.94,2.99,5.75,4.33.48-.26.93-.5,1.31-.69-1.59-1.27-3.57-2.77-5.14-4.09Z"/>
            <path class="cls-3" d="M116.83,27.51c1.76,1.46,3.9,3.22,5.56,4.59.82-.53,1.65-1.17,2.46-1.74-2.38-1.74-4.32-3.23-5.85-4.51-.83.58-1.57,1.16-2.17,1.66Z"/>
            <path class="cls-3" d="M102.78,1.86c0-.1,0-.2.03-.29-2.03-.62-3.12-1.26-3.13-1.27h0c.56,7.77,1.36,18.57,1.91,25.07.85.6,2.46,1.5,3.97,2.22-.36-1.33-1.08-4.08-1.17-5.24-.12-1.47-1.52-19.27-1.62-20.49Z"/>
            <path class="cls-3" d="M115.83,20.28c.08.3.37.77,1.04,1.49.78-.45,1.61-.86,2.43-1.18-.12-.26-.24-.53-.35-.82-.58-1.51-1.29-14.84-1.43-17.62-.94.2-2.07.37-3.43.48,0,.02.01.03.01.05.6,6.68,1.57,16.88,1.73,17.61Z"/>
          </g>
          <g>
            <path class="cls-18" d="M87.99,1.01c-.44-.04-.81.29-.85.72,0,.05-.01.15-.02.26-.2,2.47-1.49,18.82-1.6,20.23-.09,1.14-.98,4.49-1.32,5.68-.04.15-.02.3.02.44.51-.2,1.1-.46,1.7-.75.36-1.33,1.08-4.08,1.17-5.24.12-1.47,1.52-19.27,1.62-20.49,0-.1,0-.2-.03-.29-.09-.3-.36-.53-.69-.56Z"/>
            <path class="cls-18" d="M82.27,2.68h0s-1.4,17.73-1.4,17.73c-.12,1.53-1.47,3.01-2.66,4.1.39.36.77.73,1.14,1.09,1.45-1.33,2.93-3.05,3.09-5.07l1.4-17.73-1.55-.12h-.03Z"/>
            <path class="cls-18" d="M69.11,32.1c.51.32,1.02.6,1.52.79,1.64-1.35,3.63-2.99,5.26-4.34-.28-.25-.7-.61-1.22-1.04-1.76,1.46-3.9,3.22-5.56,4.59Z"/>
            <path class="cls-18" d="M71.12,24.94c-1.48,1.21-3.4,2.69-5.9,4.51.23.14.45.27.66.4.25.16.51.33.77.51,2.38-1.74,4.32-3.23,5.85-4.51-.44-.31-.9-.62-1.38-.92Z"/>
            <path class="cls-18" d="M78.95,2.72c-.02-.39-.3-.72-.7-.76-.42-.03-.78.26-.84.67,0,.02-.01.03-.01.05-.6,6.68-1.57,16.88-1.73,17.6-.08.31-.37.78-1.04,1.5.46.27.91.55,1.33.85.68-.78,1.09-1.42,1.23-1.94.22-.84,1.52-15.03,1.78-17.87,0-.04,0-.07-.01-.1Z"/>
            <path class="cls-18" d="M67.66,23.21c-1.73,1.31-3.94,2.99-5.75,4.33.48.26.99.55,1.51.85,1.97-1.47,4.28-3.21,5.91-4.46-.55-.28-1.11-.52-1.67-.71Z"/>
            <path class="cls-18" d="M72.55,19.77c.58-1.51,1.29-14.84,1.43-17.62,0-.01,0-.03,0-.05.02-.44-.31-.81-.75-.83-.35-.02-.64.19-.76.49-.03.08-.06.16-.06.25-.39,7.66-.98,16.28-1.33,17.18-.12.32-.25.61-.38.89.49.13.99.3,1.5.5.12-.26.24-.53.35-.82Z"/>
            <path class="cls-18" d="M105.97,22.22c-.11-1.41-1.4-17.76-1.6-20.23,0-.11-.02-.21-.02-.26-.03-.43-.41-.76-.85-.72-.33.03-.6.26-.69.56-.03.09-.04.19-.03.29.1,1.22,1.5,19.02,1.62,20.49.09,1.17.81,3.92,1.17,5.24.61.29,1.19.55,1.7.75.04-.14.06-.29.02-.44-.34-1.19-1.23-4.53-1.32-5.68Z"/>
            <path class="cls-18" d="M115.61,28.55c1.63,1.35,3.61,2.99,5.26,4.34.51-.19,1.01-.47,1.52-.79-1.66-1.37-3.8-3.13-5.56-4.59-.52.43-.94.79-1.22,1.04Z"/>
            <path class="cls-18" d="M110.62,20.42l-1.4-17.73h0s-.03,0-.03,0l-1.55.12,1.4,17.73c.16,2.02,1.64,3.73,3.09,5.07.37-.36.76-.73,1.14-1.09-1.19-1.09-2.53-2.57-2.66-4.1Z"/>
            <path class="cls-18" d="M115.83,20.28c-.16-.73-1.12-10.93-1.73-17.61,0-.02-.01-.03-.01-.05-.06-.41-.42-.7-.84-.67-.4.04-.69.37-.7.76,0,.03-.01.07-.01.1.26,2.84,1.55,17.03,1.78,17.87.14.52.55,1.16,1.23,1.94.42-.3.87-.58,1.33-.85-.66-.72-.96-1.18-1.04-1.49Z"/>
            <path class="cls-18" d="M119,25.85c1.54,1.27,3.47,2.77,5.85,4.51.26-.18.51-.35.77-.51.21-.13.43-.27.66-.4-2.5-1.82-4.42-3.3-5.9-4.51-.48.3-.94.61-1.38.92Z"/>
            <path class="cls-18" d="M118.95,19.77c.11.29.23.56.35.82.51-.2,1.02-.37,1.5-.5-.13-.27-.26-.56-.38-.89-.34-.9-.94-9.52-1.33-17.18,0-.09-.03-.17-.07-.25-.12-.3-.42-.52-.76-.49-.44.02-.77.39-.75.83,0,.01,0,.03,0,.05.14,2.78.84,16.11,1.43,17.62Z"/>
            <path class="cls-18" d="M123.83,23.21c-.55.19-1.11.44-1.67.71,1.63,1.24,3.94,2.99,5.91,4.46.52-.3,1.03-.58,1.51-.85-1.81-1.34-4.02-3.01-5.75-4.33Z"/>
          </g>
          <g>
            <path class="cls-8" d="M89.9,25.37c-.85.6-2.46,1.5-3.97,2.22-.61.29-1.19.55-1.7.75-.85.34-1.51.51-1.69.38-.42-.29-1.69-1.66-3.17-3.12-.37-.36-.76-.73-1.14-1.09-.54-.5-1.09-.99-1.62-1.41-.2-.16-.42-.32-.64-.48-.42-.3-.87-.58-1.33-.85-.78-.45-1.61-.86-2.42-1.18-.51-.2-1.02-.37-1.5-.5-.85-.23-1.64-.34-2.3-.3-.38.02-.72.09-1,.23-2.37,1.14-3.08,2.78-3.08,2.78.45-.08.92-.09,1.41-.04.62.06,1.27.22,1.92.45.55.19,1.11.44,1.67.71.61.3,1.21.65,1.79,1.01.48.3.94.61,1.38.92.83.58,1.57,1.16,2.17,1.66.52.43.94.79,1.22,1.04.11.1.2.18.27.24.98.9,1.5,1.76,1.19,1.97-.68.46-3.11,2.22-5.18,2.38-.51.04-1.02-.06-1.53-.25-.51-.19-1.01-.47-1.52-.79-.82-.53-1.65-1.17-2.46-1.74-.26-.18-.51-.35-.77-.51-.21-.13-.43-.27-.66-.4-.57-.35-1.19-.71-1.8-1.06-.52-.3-1.03-.58-1.51-.85-.48-.26-.93-.5-1.31-.69-.36-.18-.67-.32-.88-.4-1.02-.38-2.6,1.31-4.01,2.97-.86,1.01-1.83,2.85-1.73,4.82.68,1.75,3.52,4.47,8.61,5.35,5.57.97,10.68.88,15.88-.93,5.5-1.91,11.13-6.17,11.55-6.49.31-2.21.43-7.26.43-7.26-.09.12-.28.28-.55.47Z"/>
            <path class="cls-8" d="M135.79,29.41c-1.41-1.66-2.99-3.35-4.01-2.97-.21.08-.52.22-.88.4-.38.19-.83.42-1.31.69-.48.26-.99.55-1.51.85-.61.35-1.23.71-1.8,1.06-.23.14-.45.27-.66.4-.25.16-.51.33-.77.51-.81.57-1.64,1.21-2.46,1.74-.51.32-1.02.6-1.52.79-.51.19-1.03.29-1.53.25-2.07-.16-4.5-1.92-5.18-2.38-.31-.21.21-1.06,1.19-1.97.06-.06.15-.14.26-.24.28-.25.7-.61,1.22-1.04.6-.5,1.35-1.08,2.17-1.66.44-.31.9-.62,1.38-.92.58-.36,1.18-.71,1.79-1.01.55-.28,1.11-.52,1.67-.71.65-.23,1.3-.39,1.92-.45.49-.05.96-.05,1.41.04,0,0-.7-1.64-3.07-2.78-.28-.13-.62-.2-1-.23-.66-.04-1.45.07-2.3.3-.49.13-.99.3-1.5.5-.82.32-1.64.73-2.43,1.18-.46.27-.91.55-1.33.85-.22.16-.44.32-.64.48-.52.42-1.07.9-1.62,1.41-.39.36-.77.73-1.14,1.09-1.48,1.45-2.76,2.83-3.17,3.12-.19.13-.84-.05-1.69-.38-.51-.2-1.1-.46-1.7-.75-1.51-.72-3.12-1.62-3.97-2.22-.27-.19-.46-.35-.55-.47,0,0,.12,5.05.43,7.26.42.32,6.05,4.58,11.55,6.49,5.2,1.81,10.31,1.9,15.88.93,5.1-.89,7.93-3.61,8.61-5.35.1-1.96-.88-3.81-1.73-4.82Z"/>
          </g>
          <g>
            <path class="cls-6" d="M78.47,38.65c-5.2,1.81-10.31,1.9-15.88.93-5.1-.89-7.93-3.61-8.61-5.35-.01-.03-.03-.07-.04-.11,0,0-.24,3.61.46,5.18.7,1.57,3.83,3.7,8.63,4.37,4.81.66,10.11.94,14.99-.77,4.88-1.71,10.35-5.02,11.17-5.92.46-.51.88-4.85.88-4.85,0,0-.02.02-.04.03-.42.32-6.05,4.58-11.55,6.49Z"/>
            <path class="cls-6" d="M121.48.69s-.71.54-2.46,1.07c-.12-.3-.42-.52-.76-.49-.44.02-.77.39-.75.83,0,.01,0,.03,0,.05-.94.2-2.07.37-3.43.48-.06-.41-.42-.7-.84-.67-.4.04-.69.37-.7.76-.34.01-.69.03-1.06.03-.79,0-1.54-.02-2.26-.06h0s-.03,0-.03,0c-1.86-.11-3.48-.38-4.82-.7,0-.11-.02-.21-.02-.26-.03-.43-.41-.76-.85-.72-.33.03-.6.26-.69.56-2.03-.62-3.12-1.26-3.13-1.27-.01-.17-.02-.34-.04-.51.55-.01,1.08-.03,1.61-.04,7.19-.22,12.85-.84,17.18-1.56-.17-.03-.35-.06-.51-.12-.48-.15-.91-.39-1.29-.7-.19-.16-.36-.33-.52-.52-.08-.09-.15-.19-.22-.29-.41-.61-.65-1.34-.65-2.13s.24-1.52.65-2.13c.07-.1.14-.2.22-.29.16-.19.33-.36.52-.52.38-.31.81-.55,1.29-.7.36-.11.74-.17,1.13-.17h0c.13,0,.26,0,.39.02.64.06,1.23.29,1.74.63,1.01.68,1.68,1.84,1.68,3.16s-.67,2.47-1.68,3.16c-.08.05-.15.1-.23.14.12-.02.23-.05.34-.07"/>
            <path class="cls-6" d="M137.53,34.23c-.68,1.75-3.52,4.47-8.61,5.35-5.57.97-10.68.88-15.88-.93-5.5-1.91-11.13-6.17-11.55-6.49-.02-.01-.04-.03-.04-.03,0,0,.42,4.34.88,4.85.81.91,6.29,4.21,11.17,5.92,4.88,1.71,10.18,1.43,14.99.77,4.81-.66,7.93-2.79,8.63-4.37.7-1.57.46-5.18.46-5.18-.01.03-.03.07-.04.11Z"/>
            <path class="cls-6" d="M70.19-2.23c3.37.65,7.75,1.27,13.26,1.66,2.31.16,4.83.28,7.55.35.42-.16.87-.25,1.35-.25.52,0,1.02.11,1.48.3-.67,0-1.34-.01-1.98-.03-.01.16-.02.33-.04.5,0,0-1.1.64-3.13,1.27-.09-.3-.36-.53-.69-.56-.44-.04-.81.29-.85.72,0,.05-.01.15-.02.26-1.34.32-2.96.58-4.82.7h-.03s0,0,0,0c-.72.04-1.47.07-2.26.06-.37,0-.71-.02-1.06-.03-.02-.39-.3-.72-.7-.76-.42-.03-.78.26-.84.67-1.36-.11-2.48-.28-3.43-.48,0-.01,0-.03,0-.05.02-.44-.31-.81-.75-.83-.35-.02-.64.19-.76.49-1.75-.53-2.46-1.07-2.46-1.07"/>
          </g>
        </g>
        <g>
          <polygon points="76.68 28.21 76.68 28.21 76.68 28.21 76.68 28.21"/>
          <polygon points="131.5 25.71 131.5 25.71 131.51 25.71 131.5 25.71"/>
          <path d="M175.31-108.72c-.3-.04-.61-.05-.95-.05-.99,0-2.17.12-3.34.24-1.17.12-2.33.23-3.22.23-.49,0-.91-.04-1.15-.1-.11-.03-.17-.06-.21-.07,0-.02,0-.08.05-.18.08-.17.29-.45.61-.76.48-.46,1.18-1,1.98-1.57.8-.57,1.69-1.17,2.56-1.8,1-.72,1.85-1.56,2.45-2.48.6-.91.98-1.91.98-2.93,0-.55-.11-1.09-.36-1.61-.24-.51-.61-.98-1.09-1.39-.62-.53-1.39-.77-2.14-.76-1.33.01-2.65.62-3.9,1.38-1.25.77-2.42,1.72-3.36,2.52-.83.71-1.79,1.33-2.67,1.76-.44.22-.86.38-1.23.5-.37.11-.68.16-.89.16-.03,0-.04,0-.06,0,.03-.06.07-.13.12-.21.24-.4.68-.97,1.2-1.6.77-.96,1.72-2.09,2.52-3.26.79-1.18,1.46-2.4,1.6-3.66.02-.19.03-.37.03-.54,0-.57-.1-1.1-.3-1.55-.3-.69-.82-1.21-1.42-1.52-.6-.32-1.27-.45-1.94-.45-1.25,0-2.52.45-3.47,1.31-.68.62-1.49,1.62-2.42,2.8-1.38,1.76-2.98,3.92-4.4,5.62-.71.85-1.37,1.58-1.91,2.07-.27.25-.51.43-.69.54-.09.05-.16.09-.2.1h-.03c-.08,0-.17-.03-.29-.11-.23-.14-.52-.46-.84-.9-.47-.65-.99-1.55-1.62-2.43-.63-.87-1.39-1.75-2.44-2.31-.72-.39-1.43-.58-2.1-.58-1.12,0-2.06.53-2.69,1.26-.64.73-1.02,1.65-1.11,2.58,0,.09-.01.18-.01.26,0,.72.24,1.44.57,2.24.5,1.18,1.25,2.49,1.98,3.74.7,1.19,1.38,2.31,1.81,3.16-.01.02-.02.03-.04.06-.66,1.1-3.59,5.84-7.7,11.33,1.59-4.48,2.43-9.58,2.43-15,0-8.18-1.92-17.11-6.12-25.83-2.24-4.65-5-8.33-7.98-11.25.33.03.65.06.95.08.88.07,1.59.11,2.06.11.14,0,.25,0,.36-.01.06,0,.11-.01.19-.03.04,0,.08-.02.15-.05.06-.03.15-.06.26-.17.14-.14.19-.24.23-.33.08-.16.12-.31.16-.49.15-.6.27-1.52.37-2.54.1-1.01.16-2.1.16-2.97,0-.46-.02-.85-.06-1.19-.03-.17-.05-.32-.13-.5-.04-.09-.09-.2-.21-.32-.06-.06-.14-.13-.25-.18-.11-.05-.24-.09-.37-.09-.28,0-.56,0-.85,0-.63,0-1.26,0-1.87.02,1.84-3.59,3.72-7.67,4.88-10.88,1.14-3.17,2.33-7.86,2.34-12.34,0-2.64-.41-5.22-1.56-7.36-.58-1.07-1.34-2.03-2.33-2.8-.98-.77-2.18-1.35-3.59-1.69-.9-.22-1.77-.32-2.61-.32-2.1,0-3.99.65-5.64,1.71-2.48,1.6-4.45,4.09-6.11,6.79-1.66,2.7-3,5.63-4.15,8.13-1.7,3.7-3.23,7.69-4.49,11.18-.61,1.7-1.16,3.28-1.63,4.64-.15-.02-.31-.03-.46-.04-.22-.02-.43.05-.59.2-.16.14-.26.35-.26.57h0c-.19-.01-.36-.02-.54-.03-.07-2.12-.17-5.46-.28-8.88-.09-2.84-.18-5.74-.26-8.04-.08-2.3-.14-3.99-.16-4.44-.05-.87-.28-4.63-1.82-8.26-.77-1.82-1.88-3.61-3.5-4.97-1.61-1.36-3.75-2.26-6.42-2.26-.59,0-1.21.04-1.85.13-2.42.33-4.43,1.27-6.04,2.63-2.41,2.04-3.9,4.99-4.8,8.25-.9,3.26-1.21,6.86-1.21,10.29,0,.06,0,.12,0,.19,0,2.61.26,7.42.51,11.59.07,1.13.13,2.21.2,3.18-.04,0-.09,0-.13,0-.23,0-.46-.01-.69-.02-.23.02-.46.04-.7.05-.23.02-.47.04-.71.06l-.36.03h-.09s-.02,0-.02,0h-.08s-.04.02-.04.02l-.17.04c-.45.09-.9.19-1.36.28-.46.11-.97.33-1.46.5-1.92.78-3.67,2.05-5.01,3.74-1.34,1.67-2.26,3.69-2.71,5.8-.43,2.11-.42,4.33.17,6.41l.23.78.33.74c.12.24.2.5.35.73l.44.69.22.34.03.04.07.08.06.07.12.14.48.55s.02.02.03.03c-.29.54-.57,1.08-.85,1.65-4.2,8.71-6.12,17.65-6.12,25.83,0,4.3.53,8.4,1.54,12.15-1.42-1.99-2.63-3.8-3.57-5.24-.7-1.07-1.25-1.94-1.62-2.54-.19-.3-.33-.54-.43-.69-.02-.03-.02-.04-.04-.06.58-1.14,1.62-2.79,2.54-4.42.48-.85.92-1.69,1.25-2.48.33-.79.57-1.52.57-2.24,0-.09,0-.17-.01-.26h0c-.1-.93-.47-1.85-1.11-2.58-.63-.73-1.58-1.26-2.69-1.26-.67,0-1.38.19-2.1.58-.79.43-1.42,1.05-1.96,1.7-.8.98-1.41,2.05-1.96,2.85-.27.4-.54.72-.76.93-.22.19-.38.26-.5.28h-.03c-.11-.04-.39-.21-.71-.49-.57-.48-1.3-1.28-2.08-2.22-1.18-1.41-2.49-3.15-3.69-4.71-.6-.78-1.18-1.52-1.71-2.15-.53-.64-1-1.17-1.43-1.56-.94-.86-2.22-1.31-3.47-1.31-.89,0-1.8.24-2.51.84-.35.3-.65.68-.85,1.14-.2.46-.3.98-.3,1.55,0,.18,0,.36.03.54.11.99.55,1.96,1.12,2.9.85,1.41,2,2.78,2.93,3.93.46.57.87,1.08,1.14,1.49.11.17.2.31.26.43-.02,0-.03,0-.06,0-.21,0-.52-.05-.89-.16-1.11-.33-2.66-1.19-3.9-2.26-.94-.8-2.11-1.75-3.36-2.52-1.25-.76-2.56-1.37-3.9-1.38-.75,0-1.52.23-2.14.76-.48.41-.85.88-1.09,1.39-.24.51-.36,1.06-.36,1.61,0,1.02.38,2.01.98,2.93.61.92,1.45,1.76,2.45,2.48h0s0,0,0,0c1.32.95,2.7,1.85,3.71,2.65.5.4.92.77,1.17,1.08.13.15.21.29.26.39.05.1.05.16.05.18-.05.03-.19.08-.41.12-.25.04-.58.06-.95.06-.89,0-2.06-.11-3.22-.23-1.17-.12-2.35-.24-3.34-.24-.34,0-.65.01-.95.05-1.82.23-3.15,1.72-3.16,3.42,0,.82.33,1.67,1.01,2.34.68.68,1.68,1.19,3.01,1.47,2.48.53,4.62,1.11,6.1,1.67.74.28,1.31.56,1.66.79.07.05.13.09.18.14,0,0,0,0-.01,0-.27.13-.73.28-1.26.44-.8.24-1.78.52-2.74.91-.96.39-1.91.89-2.64,1.66h0c-.59.63-.98,1.37-.98,2.18,0,.46.14.93.41,1.33.4.6,1.06,1.04,1.89,1.33.84.29,1.89.45,3.18.45.61,0,1.28-.04,2.01-.11,2.82-.3,4.77-.48,6.39-.71,3.83,4.87,10.79,13.16,18.65,19.99,8.61,7.48,16.42,12.76,21.84,16.07-.16.52-.32,1.04-.47,1.56-1.19,4.03-2.27,8.1-3.21,12.2-.47,2.05-.92,4.1-1.32,6.17l-.29,1.55-.14.78c-.06.25-.1.74,0,1.13.1.4.31.77.6,1.07.15.15.32.28.5.38.11.06.15.08.21.11l.19.09c.21.1.41.18.62.27-.35,1.23-.72,2.52-1.09,3.84-1.91,6.78-4.01,14.51-5.21,20-.04.16-.05.33-.05.49,0,.94.59,1.8,1.5,2.13,1.33.48,3.74,1.24,7.39,1.98-.24,3.85-.56,8.8-.89,13-.17,2.2-.34,4.19-.5,5.7-.08.75-.16,1.39-.23,1.86,0,.04-.01.08-.02.11-.23.05-.45.12-.66.22-1.29.62-2.15,1.39-2.69,2.01-.53.63-.75,1.11-.77,1.16-.11.27-.07.58.11.8.02.02.04.04.06.06-.83.66-1.69,1.33-2.52,1.98-.26.2-.51.4-.76.6-.19-.09-.36-.16-.5-.22-.19-.07-.4-.11-.59-.11-.45,0-.85.16-1.21.36-.55.31-1.06.76-1.58,1.27-.51.51-1.02,1.09-1.51,1.66-.46.54-.94,1.27-1.31,2.13-.37.86-.63,1.85-.63,2.91,0,.04-.03.08-.03.12,0,.01-.04.62-.04,1.45,0,.61.02,1.35.1,2.07.08.72.2,1.43.47,2.04.24.53.63,1.03,1.15,1.51.78.72,1.87,1.42,3.23,2,1.36.58,2.99,1.06,4.86,1.32,2.17.3,4.44.52,6.76.52,2.87,0,5.79-.34,8.6-1.33,2.5-.88,5.12-2.15,7.23-3.32,1.06-.59,1.98-1.15,2.71-1.62.36-.24.68-.46.93-.65.26-.2.46-.36.62-.55.11-.12.16-.23.21-.33.09-.19.15-.38.2-.59.2-.75.35-1.81.47-2.73.12-.91.19-1.65.19-1.65,0-.07,0-.14-.01-.2.15-1.17.24-2.86.31-4.31.07-1.53.1-2.77.1-2.77,0-.31-.17-.59-.45-.72.54-6.5,1.27-16.32,1.79-23.6.94.01,1.9.02,2.89.02,1.18,0,2.33-.01,3.44-.03.41,5.61.93,12.75,1.4,18.7.14,1.76.27,3.42.39,4.9-.27.13-.46.41-.45.72,0,0,.04,1.85.15,3.81.05.98.12,1.99.21,2.82.02.16.03.31.05.46-.01.07-.02.13-.01.2,0,0,.11,1.1.27,2.27.08.59.18,1.19.29,1.7.06.26.11.49.18.7.03.11.07.2.12.31.05.1.1.2.21.33.17.18.36.35.62.55.89.68,2.5,1.68,4.46,2.72,1.95,1.04,4.23,2.11,6.41,2.88,2.81.98,5.73,1.33,8.6,1.33,2.31,0,4.59-.22,6.76-.52,2.49-.35,4.57-1.07,6.13-1.93.78-.43,1.44-.9,1.96-1.38.52-.48.92-.98,1.15-1.51.26-.61.39-1.31.47-2.04.08-.72.1-1.46.1-2.07,0-.83-.04-1.44-.04-1.45,0-.04-.02-.08-.03-.12,0-1.06-.26-2.05-.63-2.91-.37-.86-.84-1.59-1.31-2.14-.65-.76-1.33-1.54-2.03-2.15-.35-.31-.7-.58-1.06-.78-.37-.2-.76-.36-1.21-.36-.19,0-.4.03-.59.11-.15.06-.32.13-.5.22-1.04-.82-2.2-1.71-3.28-2.58.02-.02.04-.04.06-.06.18-.23.22-.54.11-.8-.03-.06-.24-.54-.77-1.16-.53-.63-1.39-1.39-2.69-2.01-.21-.1-.43-.17-.66-.22-.11-.7-.24-1.82-.37-3.19-.44-4.64-.94-12.22-1.28-17.59,3.35-.7,5.58-1.41,6.85-1.87.91-.33,1.5-1.19,1.5-2.13,0-.16-.02-.33-.05-.49-1.31-5.97-3.68-14.59-5.71-21.76-.24-.85-.48-1.68-.71-2.49.03-.02.06-.03.11-.06.18-.1.35-.23.5-.38.29-.3.51-.67.6-1.07.11-.39.07-.88,0-1.13l-.14-.78-.29-1.55c-.4-2.07-.84-4.12-1.32-6.17-.94-4.1-2.02-8.16-3.21-12.2-.15-.52-.31-1.04-.47-1.56,5.41-3.31,13.23-8.59,21.84-16.07,7.86-6.83,14.82-15.13,18.65-19.99,1.62.22,3.57.41,6.39.71.73.08,1.4.11,2.01.11,1.72,0,3.01-.27,3.96-.79.47-.26.85-.59,1.12-.99.27-.4.41-.86.41-1.33,0-.81-.39-1.55-.98-2.18h0c-.62-.66-1.41-1.12-2.22-1.48-1.22-.54-2.52-.88-3.47-1.18-.41-.13-.75-.25-.97-.36,0,0,.01-.01.02-.02.2-.16.56-.38,1.04-.59,1.44-.66,3.92-1.36,6.87-1.99,1.33-.29,2.33-.8,3.01-1.47.68-.67,1.02-1.52,1.01-2.34,0-1.7-1.34-3.19-3.16-3.42ZM124.94-156.89c.09,0,.18,0,.26,0,.01.19.02.43.02.71,0,.97-.09,2.32-.22,3.44-.06.56-.14,1.06-.21,1.42,0,.05-.02.09-.03.13-.46,0-1.24-.05-2.16-.13-1.55-.13-3.51-.33-5.24-.56-.76-.1-1.47-.21-2.08-.32.01-.63.03-1.44.03-2.2,0-.54,0-1.05-.03-1.48,0-.2-.02-.38-.04-.55,1.99-.18,5.76-.47,9.69-.47ZM120.01-146.74c1.19,1.53,2.34,3.04,3.17,4.17-.11,0-.22,0-.34,0-.6,0-1.28-.03-1.8-.07-.26-.02-.49-.03-.65-.05-.16-.01-.25-.02-.25-.02-.35-.03-.68.17-.8.49,0,0-.09.22-.22.55-.2.48-.49,1.19-.77,1.81-.25-.5-.55-1.14-.88-1.86-.86-1.87-1.93-4.28-2.8-6.38-.34-.81-.64-1.57-.9-2.23.39.03.64.05.64.05.21.02.43-.06.59-.2.05-.04.08-.1.12-.16.63.11,1.34.21,2.1.31.85,1.08,1.83,2.33,2.8,3.57ZM101.29-165.49c1.25-3.47,2.76-7.43,4.43-11.06,1.53-3.33,3.38-7.32,5.75-10.43.02-.02.03-.04.05-.07,1.39.13,4.25.63,8.27,2.45,4.1,1.86,7.4,4.18,8.81,5.23-.31,3.5-1.24,7.03-2.14,9.51-1.09,3.02-2.89,6.94-4.66,10.42-.18.36-.36.7-.54,1.05-2.99.12-5.53.34-6.79.46-.02-.01-.03-.03-.05-.04-.43-.34-.95-.55-1.5-.7.17-.27.35-.55.52-.84,1.18-1.91,2.49-4.15,3.64-6.36,1.1-2.12,1.97-4.17,2.57-6.03.59-1.86.92-3.51.92-4.87,0-.75-.1-1.41-.35-1.99-.24-.58-.69-1.08-1.3-1.32-.28-.11-.57-.16-.86-.16-.39,0-.77.09-1.12.24-.61.26-1.17.68-1.7,1.18-.79.75-1.53,1.7-2.2,2.65-.66.95-1.24,1.9-1.68,2.64-1.95,3.26-3.48,6.59-4.59,9.49-.57,1.5-1.03,2.89-1.37,4.1-1.68-.47-3.63-.93-5.65-1.23.45-1.29.95-2.74,1.52-4.3ZM108.94-151.4c.15.22.28.28.39.35.2.11.38.16.6.22.37.09.81.17,1.3.24.07,0,.14.02.21.03-.98,1.64-2.71,4.34-4.27,6.67-.82,1.24-1.6,2.37-2.18,3.19-.08.11-.16.22-.23.32-.17-.43-.36-.93-.54-1.39-.15-.39-.28-.76-.38-1.02-.1-.26-.16-.43-.16-.43-.11-.3-.39-.5-.7-.52,0,0-.06,0-.17,0-.38-.02-1.35-.1-2.19-.23-.2-.03-.39-.07-.56-.11.51-.48,1.19-1.09,1.97-1.77,1.7-1.49,3.83-3.31,5.53-4.75.35-.3.68-.57.98-.83.13,0,.26.02.39.03,0,0,0,.01,0,.02ZM106.94-159.51c.32-1.16.77-2.51,1.33-3.98,1.08-2.82,2.58-6.07,4.47-9.24.66-1.11,1.62-2.66,2.65-3.9.51-.62,1.04-1.16,1.52-1.52.24-.18.47-.31.67-.4.2-.08.37-.12.51-.12.1,0,.19.02.28.05.17.07.3.18.43.48.13.29.22.76.22,1.37,0,1.11-.28,2.64-.85,4.39-.56,1.75-1.4,3.73-2.46,5.78-1.29,2.48-2.79,5.02-4.07,7.04-.14.22-.27.43-.4.63-.15,0-.3-.02-.44-.02-.56,0-1.1.05-1.59.16-.02,0-.04.02-.06.03-.59-.21-1.34-.47-2.2-.74ZM110.38-152.35s0,0,0,0c-.04-1.09-.14-3.72-.19-4.99.19-.02.39-.03.6-.03.71,0,1.47.11,2.03.31.28.1.5.22.64.33.14.11.19.2.21.26,0,0,.02.1.03.22.04.39.05,1.11.05,1.86,0,.78-.01,1.61-.03,2.24,0,.08,0,.17,0,.24-.56-.05-1.32-.13-2.02-.22-.51-.07-.99-.15-1.3-.23ZM98.41-159.77c2.81.31,5.59,1.01,7.73,1.67.98.3,1.81.58,2.46.82.02.55.05,1.36.09,2.19.03.74.06,1.48.08,2.08-1.78-.12-4.05-.25-6.09-.4-1.37-.1-2.63-.21-3.53-.34-.37-.05-.68-.1-.9-.15l.16-5.86ZM72.45-185.05c1.37-.6,4.34-1.69,9.49-2.54,5.03-.83,9.18-.87,10.88-.85.14.41.27.82.38,1.23.67,2.46.81,4.63.84,5.22.02.42.08,2.12.16,4.41.11,3.44.27,8.24.39,12.18.06,1.8.11,3.41.15,4.63-.13,0-.26,0-.37,0h0c-1.18,0-3.78.06-7.14.67.01-.28.02-.57.03-.87.08-2.2.14-4.71.14-6.78,0-.42,0-.82,0-1.19-.03-2.04-.11-5.66-.65-8.83-.28-1.59-.66-3.06-1.27-4.22-.31-.58-.67-1.09-1.15-1.47-.47-.38-1.07-.63-1.72-.63h-.01s0,0,0,0h0c-.47,0-.92.11-1.32.31-.7.36-1.22.96-1.61,1.67-.58,1.07-.92,2.41-1.13,3.88-.21,1.47-.29,3.07-.29,4.63,0,1.7.09,3.35.21,4.7.24,2.73.66,5.65,1.19,8.28.17.85.35,1.67.54,2.44-.14.05-.27.11-.41.16-.1-.08-.2-.16-.31-.24-1.04-.77-2.32-1.51-3.83-2.07-.74-.31-1.56-.5-2.41-.7-.31-.05-.63-.09-.95-.14-.29-4.58-.71-11.63-.72-14.91,0-.06,0-.12,0-.18,0-2.95.25-6.01.9-8.8ZM85.82-167.73c0,2.04-.06,4.54-.14,6.72-.02.43-.03.85-.05,1.25-1.25.28-2.58.62-3.96,1.07-.17-.71-.34-1.45-.49-2.23-.51-2.57-.93-5.45-1.16-8.11-.11-1.31-.2-2.92-.2-4.56,0-2.29.18-4.66.68-6.37.25-.86.58-1.53.94-1.95.18-.21.36-.35.55-.45.19-.09.38-.14.62-.14h0c.27,0,.48.08.73.28.21.17.44.44.65.81.37.64.69,1.57.94,2.63.37,1.59.59,3.49.71,5.27.12,1.78.16,3.45.17,4.61,0,.37,0,.76,0,1.17ZM59.46-143.56l-.27-.62-.19-.66c-.49-1.77-.5-3.72-.1-5.57.38-1.86,1.18-3.63,2.33-5.09,1.14-1.46,2.66-2.57,4.25-3.23.41-.14.76-.33,1.21-.43.46-.1.91-.2,1.36-.29l.17-.04h.02s0,0,0,0h.08s.32-.03.32-.03c.21-.02.43-.04.64-.06.21-.02.42-.04.63-.06.21,0,.42.01.62.02,1.65-.01,3.19.33,4.54.83,1.35.49,2.52,1.15,3.47,1.84.95.69,1.73,1.37,2.35,1.96.63.57,1.11,1.06,1.43,1.38.32.33.5.5.5.5l.02.02c.11.12.29.16.45.09.21-.09.3-.33.21-.54,0,0-.03-.06-.08-.18-.05-.12-.14-.3-.26-.52-.24-.44-.63-1.05-1.23-1.76-.23-.27-.49-.55-.79-.84,6.15-2.19,11.45-2.34,13.23-2.34h0s0,0,0,0c.53,0,1.37.02,2.45.09l-.15,5.65c0,.09,0,.17.04.26.07.22.19.34.28.42.19.15.33.2.48.26.28.1.6.16.99.23,1.36.22,3.59.39,5.86.54.66.04,1.33.09,1.97.13-.49.42-1.01.86-1.55,1.31-1.27,1.08-2.6,2.22-3.74,3.22-1.14,1.01-2.09,1.86-2.63,2.41-.08.08-.16.18-.22.31-.06.12-.11.28-.11.45,0,.24.09.45.2.6.21.27.41.37.62.46.36.16.75.25,1.18.34.83.16,1.77.24,2.34.29.14.37.34.91.55,1.47.19.5.39,1,.55,1.4.08.2.16.38.23.52.03.07.07.14.1.2l.06.1s.05.08.12.15c.08.08.18.15.29.18.1.04.2.05.28.05.26,0,.35-.08.42-.12.13-.08.17-.13.23-.18.1-.1.18-.2.29-.34.4-.5,1.03-1.4,1.8-2.52,1.15-1.68,2.57-3.83,3.77-5.72.53-.83,1.01-1.6,1.41-2.26.72,1.82,1.72,4.16,2.65,6.25.63,1.4,1.22,2.69,1.68,3.63.12.25.23.47.34.67-.01.02-.02.04-.04.06-.15.23-.3.47-.49.7-.17.24-.38.46-.59.68-.42.46-.94.84-1.5,1.2-.29.15-.59.32-.9.45l-.46.16c-.16.06-.29.12-.5.16l-.58.13-.29.06-.22.02-1.12.11c-.37.06-.74,0-1.1,0h-.55s-.53-.1-.53-.1c-.35-.05-.71-.09-1.03-.22-.32-.11-.66-.18-.95-.34-.29-.15-.6-.26-.85-.46-.26-.18-.53-.33-.75-.55-.23-.2-.45-.39-.63-.62-.19-.21-.37-.43-.52-.66-.16-.22-.3-.44-.41-.66-.13-.21-.23-.42-.32-.63-.09-.2-.17-.39-.24-.58-.07-.18-.16-.34-.22-.49-.15-.29-.27-.53-.37-.68-.1-.16-.16-.24-.16-.24-.05-.07-.12-.13-.2-.17-.23-.09-.49.01-.58.24v.03s-.05.1-.08.32c-.02.21-.04.52.01.89.05.38.17.82.39,1.3.08.21.18.43.3.65-.16.14-.38.33-.65.59-.28.27-.59.61-.97.98-.38.37-.85.75-1.38,1.13-.27.17-.56.36-.86.53-.32.15-.62.34-.98.47-.35.13-.69.29-1.08.38-.19.05-.38.11-.57.16-.2.04-.39.07-.59.11-.2.03-.4.08-.6.1-.2.02-.4.03-.6.05-.38.05-.85.04-1.31.03-.84,0-1.77-.13-2.64-.26-.87-.16-1.73-.36-2.53-.65-.79-.3-1.53-.68-2.15-1.15-.62-.46-1.14-1.01-1.52-1.59-.38-.59-.64-1.21-.79-1.82-.32-1.22-.2-2.31-.2-3.07,0-.38,0-.69-.02-.91-.01-.22-.04-.32-.03-.33.1-.15.07-.36-.07-.48-.16-.14-.39-.12-.53.04l-.17.2s-.37.42-.61,1.27c-.12.43-.19.96-.19,1.58,0,.13,0,.26,0,.4-.02,0-.04,0-.05,0h-.04s-.25.09-.68.25c-.22.09-.48.19-.79.32-.31.11-.68.24-1.08.39-.2.07-.41.17-.63.24-.23.06-.46.14-.71.22-.24.08-.5.16-.76.25-.27.07-.55.14-.84.21-1.15.3-2.48.47-3.94.51-1.46.05-3.04-.13-4.64-.54-1.6-.42-3.23-1.11-4.63-2.18-.35-.27-.62-.54-.95-.84l-.47-.55-.12-.14-.06-.07-.02-.03-.17-.28-.35-.56c-.13-.18-.19-.4-.29-.61ZM60.26-137.85c.21-.43.43-.85.65-1.26,1.63,1.21,3.44,1.95,5.19,2.39.43.11.85.19,1.27.27-.27.3-.52.59-.73.86-.25.35-.51.61-.56.89-.03.14-.02.26,0,.36.01.09.04.16.04.16.06.18.21.32.41.35l.29.05s.06,0,.14,0c.09,0,.2-.04.3-.09.11-.05.2-.15.29-.27.09-.12.21-.24.34-.39.45-.48,1.08-1.07,1.76-1.65.53.03,1.05.04,1.55.02,1.58-.06,3.03-.26,4.28-.59.31-.08.61-.16.9-.23.29-.09.56-.2.82-.29.26-.1.51-.19.75-.28.23-.1.45-.22.66-.32.41-.22.78-.4,1.08-.6.3-.2.54-.38.74-.53.14-.1.24-.19.33-.26.03.25.07.5.14.77.17.76.47,1.57.95,2.34.47.77,1.12,1.5,1.9,2.08.77.59,1.66,1.05,2.58,1.41.93.35,1.89.58,2.85.77.98.14,1.91.26,2.91.26.46,0,.9.02,1.42-.04.25-.02.49-.05.74-.07.24-.03.47-.09.7-.13.23-.05.46-.09.69-.14.22-.07.44-.14.66-.2.44-.12.84-.3,1.24-.47.4-.16.76-.39,1.12-.57.35-.21.67-.43.99-.64.6-.45,1.13-.89,1.55-1.33.44-.42.76-.85.99-1.22.07-.12.13-.24.19-.34.14.21.3.41.47.62.21.29.49.54.77.8.27.28.6.49.92.73.32.25.7.41,1.07.6.37.21.78.31,1.18.44.4.15.82.21,1.25.28l.64.1c.21.01.43.02.64.02.43,0,.86.06,1.28,0,.42-.04.84-.09,1.26-.13l.16-.02h.08s.02-.01.02-.01h.08s.04-.02.04-.02l.29-.07.58-.13c.18-.03.41-.12.62-.19.21-.08.42-.16.63-.23.4-.18.76-.38,1.13-.58.69-.46,1.32-.97,1.82-1.53.26-.28.49-.55.69-.84.02-.03.04-.06.07-.1.26.2.51.39.77.6.79.65,1.54,1.34,2.06,1.9.12.14.24.27.34.39.09.12.18.22.29.27.11.05.21.09.3.09.08.02.14,0,.14,0l.29-.05c.18-.03.35-.16.41-.35,0,0,.02-.07.04-.16.02-.1.03-.22,0-.36-.06-.28-.32-.54-.56-.89-.27-.33-.58-.72-.95-1.1-.37-.38-.78-.77-1.22-1.13-.19-.15-.38-.3-.58-.45,0-.02.02-.03.03-.05.27-.54.62-1.35.91-2.04.11-.27.21-.51.3-.72.56.04,1.45.1,2.25.1.46,0,.9-.02,1.27-.07.19-.03.36-.07.57-.16.1-.05.22-.11.34-.25.12-.13.24-.37.24-.61,0-.24-.09-.43-.18-.55-1.11-1.58-3.36-4.49-5.34-7.01-.02-.02-.04-.04-.05-.07,3.28,2.94,6.34,6.79,8.79,11.86,4.1,8.5,5.96,17.21,5.96,25.14,0,9.6-2.73,18.06-7.44,23.66-2.87,3.42-6.53,6.64-11.71,9.02-5.18,2.38-11.91,3.93-20.92,3.93-9.02,0-15.74-1.55-20.92-3.93-5.18-2.38-8.84-5.6-11.71-9.02-4.71-5.6-7.44-14.05-7.44-23.66,0-7.93,1.86-16.64,5.96-25.14ZM103.19-68.32v.11s.13.85.13.85l.23,1.7.47,3.4.52,3.8.41,3,.63,4.53,1.33,9.64c-4.24.25-8.43.39-11.38.39-3.21,0-7.9-.16-12.51-.46l1.47-10.64.48-3.46.36-2.59.58-4.21.47-3.4.23-1.7.12-.85v-.11s.02-.15.02-.15c0-.17-.01-.29-.04-.42-.05-.25-.16-.49-.32-.7-.16-.21-.36-.38-.59-.5-.12-.06-.24-.11-.37-.14l-.22-.05c-.3-.07-.5-.13-.76-.22-.5-.17-.99-.38-1.47-.62-.96-.49-1.85-1.11-2.69-1.8-.84-.69-1.62-1.46-2.31-2.3-.46-.57-.9-1.18-1.23-1.81,1.08.36,2.22.68,3.42.97,3.72,2.99,8.87,4.86,15.16,4.86,3.78,0,7.02-.71,9.94-2.07,1.81-.85,3.5-1.94,5.13-3.27,1.04-.3,2.03-.63,2.99-.99-.33.82-.87,1.6-1.45,2.31-.69.84-1.47,1.61-2.31,2.3-.84.69-1.74,1.31-2.69,1.8-.48.24-.97.45-1.47.62-.26.08-.46.15-.76.22l-.22.05c-.13.03-.25.08-.37.14-.23.12-.44.3-.59.5-.16.21-.27.45-.32.7-.03.12-.04.25-.04.42v.15ZM107.13-39.74l.23,1.65c-3.54.22-7.56.38-11.83.38-4.73,0-9.15-.2-12.95-.46l.23-1.64c4.68.3,9.43.47,12.72.47,3.03,0,7.29-.14,11.6-.4ZM84.33-75.25c3.02.47,6.34.72,10.03.72,4.44,0,8.36-.37,11.84-1.03-.53.3-1.06.59-1.6.84-2.71,1.26-5.68,1.92-9.27,1.92-4.31,0-7.99-.92-11-2.46ZM23.1-92.27c-.68.07-1.3.1-1.85.1-1.55,0-2.6-.26-3.19-.59-.3-.16-.47-.33-.57-.49-.1-.15-.14-.29-.14-.45,0-.27.14-.67.55-1.09.41-.43,1.02-.81,1.72-1.12,1.05-.47,2.29-.8,3.3-1.12.51-.16.96-.31,1.35-.53.2-.11.38-.23.56-.42.17-.18.33-.48.33-.82v-.06s0,0,0,0c-.02-.36-.18-.65-.36-.88-.33-.4-.77-.68-1.31-.97-.82-.42-1.9-.82-3.2-1.21-1.3-.39-2.81-.76-4.47-1.12-1.12-.24-1.82-.64-2.23-1.05-.41-.41-.55-.82-.55-1.22,0-.84.72-1.73,1.77-1.85.21-.03.47-.04.76-.04.87,0,2.02.11,3.19.23,1.17.12,2.36.24,3.38.24.57,0,1.08-.03,1.54-.15.23-.06.46-.14.67-.28.21-.13.43-.33.56-.6h0c.11-.23.16-.48.16-.72,0-.31-.08-.6-.21-.86-.22-.45-.54-.83-.93-1.21-.59-.57-1.34-1.13-2.16-1.72-.82-.58-1.71-1.18-2.55-1.79h0c-.87-.62-1.58-1.34-2.06-2.07-.48-.73-.72-1.44-.72-2.06,0-.33.07-.64.2-.93.14-.29.36-.58.68-.86h0c.32-.27.66-.38,1.12-.38.81-.01,1.94.45,3.07,1.15,1.13.69,2.25,1.6,3.16,2.37.94.8,1.99,1.48,3,1.98.5.25,1,.45,1.47.59.47.14.91.23,1.34.23.29,0,.58-.04.87-.17.29-.12.57-.36.72-.67h0c.1-.19.13-.38.13-.55,0-.42-.15-.72-.32-1.03-.3-.54-.76-1.13-1.29-1.79-.79-.99-1.75-2.12-2.52-3.24-.39-.56-.72-1.12-.97-1.64-.25-.52-.4-1-.44-1.41-.01-.13-.02-.26-.02-.38,0-.38.07-.68.17-.92.16-.35.39-.59.72-.76.32-.17.74-.27,1.2-.27.85,0,1.81.34,2.4.9.53.48,1.34,1.46,2.25,2.61,1.37,1.74,2.97,3.9,4.43,5.65.73.88,1.42,1.65,2.06,2.23.32.29.62.53.93.72.31.18.63.34,1.05.34h.13s0,0,0,0c.38-.04.72-.18,1.01-.37.51-.33.89-.79,1.26-1.3.55-.76,1.05-1.64,1.62-2.43.57-.79,1.2-1.47,1.91-1.85.53-.29.97-.39,1.34-.39.61,0,1.1.27,1.51.72.4.45.67,1.09.73,1.7v.1c.01.32-.15.93-.44,1.62-.44,1.05-1.16,2.32-1.89,3.55-.73,1.23-1.45,2.42-1.93,3.38-.66,1.34-1.1,2.84-1.77,4.42-.66,1.59-1.53,3.26-3.02,4.96l.59.52-.59-.52c-1.4,1.6-2.47,2.8-3.63,3.76-1.16.95-2.39,1.68-4.21,2.35-1.59.58-2.82.88-4.48,1.14-1.66.25-3.74.45-6.92.79ZM66.8-31.93c-.06-.03-.13-.06-.14-.07l-.12-.09c-.07-.07-.13-.17-.16-.28-.03-.12-.03-.17.02-.43l.13-.77.28-1.53c.39-2.05.82-4.09,1.27-6.12.92-4.07,1.96-8.11,3.13-12.11.28-1,.6-2,.9-3l.93-2.99c.31-1,.61-1.99.89-2.99.29-1.01.57-2.02.81-3.05.04-.18-.04-.37-.22-.46-.2-.1-.44-.02-.54.19-.46.95-.89,1.9-1.3,2.87-.39.98-.77,1.96-1.11,2.96-.32.96-.65,1.92-.95,2.89-5.33-3.28-12.93-8.45-21.28-15.71-5.87-5.09-11.26-11.06-15.18-15.75-1.01-1.21-1.93-2.34-2.73-3.34,1.22-.24,2.33-.55,3.6-1.01,1.95-.71,3.39-1.55,4.68-2.61,1.29-1.07,2.41-2.33,3.81-3.93,1.63-1.86,2.59-3.72,3.29-5.4.4-.96.72-1.86,1.03-2.67,1.2,1.92,3.85,6.05,7.36,10.72.26.34.52.68.78,1.03,1.21,2.83,2.73,5.37,4.55,7.54,2.98,3.55,6.84,6.95,12.26,9.44.9.41,1.85.8,2.84,1.16.18,1.12.71,2.1,1.29,3,.67,1,1.47,1.89,2.37,2.69.9.79,1.89,1.48,2.97,2.04.54.28,1.1.52,1.68.72.28.1.63.2.89.26l.19.05h.03s.05.06.05.06l.03.07h0s0,.07,0,.07l-.02.11-.12.85-.24,1.7-.48,3.39-.97,6.78-3.78,26.51c-.22,0-.46,0-.7-.01-.49-.03-1-.07-1.51-.13-1.01-.12-2.03-.28-3.05-.47-2.02-.38-4.04-.85-5.95-1.51-.47-.17-.94-.35-1.38-.55l-.16-.08ZM65.95,23.61s.02-.01.03-.02c.29.05.6.12.91.21.43.13.88.28,1.33.48.14.06.27.12.41.19.62.29,1.24.63,1.85,1,.48.29.95.6,1.39.91.36.25.71.51,1.04.76.42.31.8.61,1.14.89.51.42.93.78,1.22,1.04.15.13.27.24.35.31h0c.36.33.65.66.83.91.02.03.04.06.06.09-.12.08-.25.17-.4.27-.51.34-1.19.75-1.91,1.08-.71.33-1.47.58-2.1.63h-.16c-.18,0-.38-.02-.58-.07-.2-.05-.41-.12-.63-.21-.31-.13-.64-.31-.98-.51-.37-.23-.76-.49-1.15-.77-.42-.3-.85-.62-1.29-.93-.34-.24-.67-.48-1.02-.69-.12-.08-.26-.16-.38-.24-.57-.35-1.18-.71-1.8-1.07-.45-.26-.89-.51-1.32-.75-.06-.03-.12-.06-.18-.1-.19-.11-.38-.21-.56-.31,1.28-1,2.68-2.09,3.91-3.1ZM88.94,34.68c-.08.49-.16.97-.24,1.32-.04.18-.08.33-.12.42l-.03.07c-.06.06-.19.18-.37.31-.77.59-2.35,1.58-4.24,2.58-1.89,1.01-4.11,2.05-6.19,2.78-2.59.91-5.34,1.24-8.08,1.24-2.21,0-4.42-.21-6.54-.51-2.31-.32-4.21-.99-5.58-1.75-.69-.38-1.24-.78-1.65-1.16-.41-.38-.67-.74-.78-.99-.15-.33-.28-.93-.34-1.56-.03-.26-.05-.52-.06-.78,1.54,1.55,4.1,3.08,7.74,3.72,2.3.4,4.52.62,6.72.62,3.22,0,6.38-.48,9.55-1.59,2.95-1.03,5.89-2.68,8.1-4.08.88-.56,1.63-1.07,2.24-1.49-.04.28-.08.57-.12.85ZM89.43,30.08c-.04.61-.09,1.18-.15,1.65-.57.42-1.93,1.4-3.7,2.51-2.1,1.3-4.77,2.77-7.37,3.67-3.01,1.05-5.97,1.5-9.04,1.5-2.09,0-4.23-.21-6.45-.6-2.49-.43-4.39-1.32-5.73-2.28-.67-.48-1.2-.98-1.58-1.45-.31-.38-.53-.73-.66-1.02,0-.04,0-.07,0-.11,0-.8.2-1.59.5-2.3.3-.7.7-1.32,1.06-1.73.63-.74,1.29-1.47,1.87-1.99.29-.26.57-.47.79-.59.22-.13.39-.16.44-.16h.03c.2.08.57.25,1.02.48,1.36.69,3.48,1.9,5,2.86.94.58,1.95,1.41,3.01,2.11.53.35,1.08.67,1.65.91.57.24,1.18.4,1.82.4.09,0,.19,0,.28-.01,1.23-.1,2.43-.63,3.43-1.17.5-.27.95-.55,1.32-.79.37-.24.66-.44.82-.55l-.44-.65.44.65c.15-.1.27-.25.34-.4.07-.16.09-.31.09-.44,0-.27-.08-.46-.16-.65-.13-.28-.31-.55-.54-.83-.23-.28-.51-.58-.83-.87-.48-.44-2.19-1.98-4.34-3.43-1.08-.72-2.27-1.43-3.49-1.96-.97-.42-1.95-.73-2.93-.84.42-.41,1-.86,1.83-1.26.2-.1.52-.17.93-.17.93,0,2.28.34,3.63.93,1.36.58,2.73,1.39,3.79,2.24,1.15.92,2.45,2.19,3.54,3.29.55.55,1.04,1.06,1.45,1.47.2.2.38.38.54.53.16.15.29.26.43.37.13.09.26.13.36.16.11.02.2.03.28.03.31,0,.58-.07.9-.17.56-.17,1.23-.44,1.96-.77,1.1-.5,2.31-1.12,3.31-1.7.25-.14.49-.29.71-.42-.04,1.02-.1,2.37-.18,3.58ZM89.61,19.2c-.16,2.1-.32,4.05-.46,5.73-.34.22-.78.49-1.26.76-.52.3-1.1.6-1.69.89-.5.25-.99.49-1.45.69-.14.06-.27.12-.41.17-.34.14-.66.27-.92.36-.18.06-.34.11-.47.14-.04,0-.06.01-.09.02-.04-.03-.08-.07-.12-.11-.48-.45-1.36-1.37-2.38-2.38-.14-.14-.28-.28-.42-.41-.37-.36-.75-.73-1.14-1.09-.56-.52-1.14-1.03-1.69-1.48-.2-.16-.42-.31-.64-.47-.42-.3-.86-.6-1.32-.87-.71-.42-1.45-.79-2.2-1.11-.14-.06-.28-.12-.42-.17-.5-.2-1-.37-1.5-.51-.58-.16-1.14-.28-1.68-.33.1-.68.2-1.58.3-2.66.36-3.7.76-9.38,1.08-14.32.29.14.64.28,1.06.42.18.06.39.13.6.19.45.13.97.26,1.56.37.94.18,2.06.33,3.39.42.49.03,1.03.05,1.58.07.35,0,.7.02,1.08.02h.03c.78,0,1.5-.03,2.2-.07.55-.03,1.09-.08,1.59-.13,1.22-.13,2.3-.31,3.25-.52.59-.13,1.13-.27,1.62-.41.93-.27,1.69-.55,2.25-.79-.39,5.42-.88,12.02-1.32,17.58ZM70.83.31c.04-.55.07-1.08.1-1.6,4.47.81,10.54,1.55,18.45,1.81-1.84.65-4.94,1.43-9.36,1.43h0s-.03,0-.03,0c-3.89,0-6.29-.51-7.69-.98-.7-.24-1.15-.47-1.42-.63-.02-.01-.03-.02-.04-.03ZM136.73,37.42c-.07.64-.19,1.23-.34,1.56-.11.25-.37.61-.78.99-.62.57-1.56,1.19-2.78,1.71-1.22.53-2.72.96-4.46,1.2-2.12.29-4.33.51-6.54.51-2.74,0-5.49-.33-8.08-1.24-2.38-.83-4.94-2.07-6.99-3.21-1.02-.57-1.92-1.11-2.61-1.56-.34-.22-.63-.43-.85-.59-.18-.13-.31-.25-.37-.31-.02-.04-.05-.14-.08-.25-.08-.28-.16-.69-.24-1.14-.07-.41-.13-.85-.19-1.27.6.42,1.36.93,2.24,1.49,2.21,1.4,5.15,3.05,8.1,4.08,3.18,1.11,6.33,1.59,9.55,1.59,2.2,0,4.43-.22,6.72-.62,2.71-.47,4.84-1.45,6.38-2.55.52-.38.98-.77,1.37-1.16-.01.26-.03.52-.06.78ZM129.27,26.57c.06.05.12.1.18.14-.18.1-.37.2-.56.31-.49.27-.99.55-1.5.85-.62.36-1.24.73-1.8,1.07-.13.08-.26.16-.38.24-.34.22-.68.45-1.02.69-.69.49-1.37,1.01-2.02,1.44-.14.09-.28.17-.42.26-.34.2-.67.39-.98.52-.22.09-.43.16-.63.21-.2.05-.4.07-.58.07h-.16c-.84-.07-1.9-.5-2.79-.99-.45-.25-.86-.5-1.21-.73-.15-.1-.28-.19-.4-.27.04-.06.08-.12.14-.19.18-.23.44-.52.76-.81h0c.08-.07.2-.18.35-.31.29-.26.71-.62,1.22-1.04.61-.5,1.36-1.08,2.19-1.65.13-.09.27-.19.4-.28.32-.21.65-.42.99-.63.61-.37,1.23-.71,1.85-1,.13-.06.27-.13.4-.19.45-.2.89-.35,1.33-.48.31-.09.62-.16.91-.21,1.17.97,2.51,2.01,3.75,2.98ZM123.75,20.72c.83.4,1.42.85,1.84,1.26-.98.11-1.96.42-2.93.84-1.83.8-3.6,1.98-5.01,3.04-1.41,1.06-2.47,2.01-2.82,2.34h0c-.43.39-.78.78-1.04,1.15-.13.18-.24.36-.33.55-.08.19-.16.38-.16.65,0,.13.02.28.09.44.07.16.2.31.34.4l.44-.65-.44.65c.16.11.45.31.82.55.55.36,1.29.81,2.1,1.19.82.38,1.72.7,2.64.77.1,0,.19.01.28.01.64,0,1.24-.16,1.82-.4.86-.36,1.66-.9,2.44-1.46.77-.55,1.52-1.13,2.22-1.56,1.02-.64,2.3-1.39,3.44-2.02.57-.32,1.11-.61,1.56-.84.45-.23.82-.4,1.02-.48h0s.03,0,.03,0c.05,0,.21.03.44.16.34.19.78.56,1.24,1.02.46.46.95,1.01,1.42,1.57.35.42.76,1.03,1.06,1.73.3.7.5,1.5.5,2.3,0,.04,0,.07,0,.11-.13.29-.34.64-.66,1.02-1.16,1.4-3.58,3.08-7.31,3.73-2.22.39-4.36.6-6.45.6-3.06,0-6.03-.45-9.04-1.5-2.77-.96-5.63-2.56-7.78-3.92-1.08-.68-1.98-1.3-2.61-1.75-.29-.21-.52-.37-.68-.5-.12-1.03-.22-2.57-.28-3.92-.02-.47-.04-.91-.05-1.31.93.57,2.16,1.24,3.34,1.8.71.34,1.39.64,1.98.86.3.11.57.2.82.27.25.07.48.12.73.12.09,0,.18,0,.28-.03.11-.02.23-.06.36-.16.15-.1.27-.22.43-.37.55-.51,1.41-1.42,2.41-2.41,1-.99,2.12-2.07,3.13-2.87,1.06-.85,2.44-1.66,3.79-2.24,1.35-.58,2.7-.93,3.63-.93.42,0,.74.07.93.16ZM122.16,19.02c-.54.05-1.1.17-1.68.33-.49.14-.99.31-1.5.51-.14.06-.28.11-.42.17-.75.32-1.49.7-2.2,1.12-.46.27-.9.57-1.32.87-.22.15-.43.31-.64.47-.56.45-1.13.96-1.69,1.48-.39.36-.77.73-1.14,1.09-.29.29-.57.57-.84.84-.55.56-1.05,1.07-1.45,1.46-.2.2-.37.36-.5.49-.05.05-.09.08-.12.11-.08-.02-.2-.04-.33-.08-.3-.09-.71-.24-1.16-.43-.2-.08-.4-.17-.61-.26-.41-.18-.83-.39-1.26-.6-.67-.33-1.33-.69-1.92-1.02-.39-.23-.74-.44-1.03-.63-.52-6.14-1.24-15.83-1.78-23.31.56.24,1.32.52,2.25.79.49.14,1.03.28,1.62.41.95.21,2.04.39,3.25.52.51.05,1.04.1,1.59.13.7.04,1.43.07,2.2.07h.01s.02,0,.02,0c.38,0,.73,0,1.08-.02.55-.01,1.08-.03,1.58-.07,1.33-.09,2.45-.24,3.39-.42.59-.11,1.11-.24,1.56-.37.21-.06.41-.12.6-.19.42-.14.77-.29,1.06-.42.19,2.94.41,6.15.63,9.05.18,2.31.36,4.41.52,6.03.08.75.15,1.39.23,1.9ZM120.67.31c-.28.18-.8.45-1.66.73-1.43.46-3.78.92-7.49.92h-.03s0,0,0,0c-3.89,0-6.76-.6-8.64-1.19-.28-.09-.53-.17-.77-.26,7.99-.28,14.06-1.06,18.49-1.9.03.55.07,1.11.11,1.7ZM128.88-5.85l.02.15c0,.28-.17.54-.46.65-1.17.43-3.3,1.1-6.51,1.78-.48.09-1.11.22-1.42.29-4.67.9-11.3,1.74-20.23,1.97-.55.03-.89.03-1.32.03-1.12.02-2.28.03-3.48.03-1.01,0-1.99,0-2.95-.02-.58,0-.78.01-1.28-.02-16.99-.38-25.8-2.98-28.73-4.05-.29-.1-.46-.37-.46-.65l.02-.15c1.3-5.9,3.66-14.51,5.69-21.67.19-.67.38-1.33.56-1.97,1.86.62,3.74,1.06,5.64,1.43,1.05.2,2.09.37,3.16.5.53.06,1.07.12,1.62.15.28.01.56.02.86.02.15,0,.31-.01.49-.04.09-.01.18-.03.31-.06.13-.05.26-.04.57-.32.13-.11.22-.27.24-.45v-.05s1.15-8.29,1.15-8.29c3.85.27,8.35.47,13.17.47,4.36,0,8.45-.17,12.04-.4l1.13,8.22v.05c.03.17.11.33.25.45.31.28.44.27.57.32.13.04.22.05.31.06.18.02.34.03.49.04.3,0,.58,0,.86-.02.55-.03,1.09-.09,1.62-.15,1.07-.13,2.11-.3,3.16-.5,2.09-.41,4.16-.89,6.2-1.61.12-.04.24-.09.37-.14.37,1.29.76,2.65,1.15,4.05,1.91,6.77,4,14.49,5.19,19.91ZM140.59-72.61c-7.96,6.92-15.24,11.94-20.53,15.24-.26.16-.51.31-.75.47-.3-.97-.62-1.93-.95-2.89-.35-.99-.73-1.98-1.11-2.96-.41-.97-.84-1.93-1.3-2.87-.08-.17-.27-.26-.46-.22-.22.05-.35.27-.3.49.24,1.03.52,2.04.81,3.05.28,1.01.59,2,.89,2.99l.93,2.99c.3,1,.61,1.99.9,3,1.16,4.01,2.21,8.05,3.13,12.11.46,2.03.89,4.07,1.27,6.12l.28,1.53.13.77c.05.26.04.3.02.43-.03.11-.09.2-.16.28l-.12.09s-.08.04-.14.07l-.16.08c-.43.2-.9.38-1.38.55-1.91.66-3.93,1.13-5.95,1.51-1.01.19-2.03.35-3.05.47-.51.06-1.01.11-1.51.13-.24.01-.48.02-.7.01l-3.78-26.51-.97-6.78-.48-3.39-.24-1.7-.12-.85-.02-.11v-.06s0,0,0,0l.03-.07.05-.05h.03s.19-.06.19-.06c.26-.06.6-.16.89-.26.58-.2,1.14-.44,1.68-.72,1.08-.55,2.07-1.25,2.97-2.04.9-.79,1.7-1.69,2.37-2.69.65-1,1.22-2.09,1.34-3.37.15-.04.3-.09.45-.13.46-.14.89-.27,1.25-.39.18-.06.35-.12.5-.19.15-.06.28-.12.42-.21h0c.89-.55,1.78-1.17,2.66-1.83,3.56-2.19,6.33-4.79,8.58-7.48.87-1.04,1.68-2.17,2.41-3.38,1.46-1.74,2.84-3.5,4.11-5.19,3.51-4.67,6.16-8.8,7.36-10.72.31.81.62,1.71,1.03,2.67.7,1.68,1.66,3.54,3.29,5.4,1.4,1.6,2.52,2.86,3.81,3.93,1.28,1.07,2.73,1.9,4.68,2.61,1.27.46,2.38.77,3.6,1.01-3.89,4.89-10.52,12.68-17.9,19.09ZM176.34-104.08c-.41.41-1.11.81-2.23,1.05-2.52.55-4.71,1.13-6.32,1.74-.81.31-1.47.62-1.99.96-.26.18-.48.36-.67.59-.18.23-.34.52-.36.88v.06c0,.22.06.43.16.6.19.31.43.47.67.62.42.24.92.4,1.48.58.84.26,1.82.53,2.72.88.9.35,1.71.8,2.22,1.33.4.43.55.83.55,1.09,0,.16-.04.29-.14.45-.15.23-.48.5-1.1.72-.62.22-1.5.36-2.66.36-.55,0-1.17-.03-1.85-.1-3.18-.33-5.26-.53-6.92-.79-1.66-.26-2.89-.56-4.48-1.14-1.82-.66-3.06-1.39-4.21-2.35-1.15-.95-2.23-2.16-3.63-3.76l-.59.52.59-.52c-1.49-1.7-2.36-3.38-3.02-4.96-.66-1.59-1.1-3.09-1.77-4.42-.63-1.27-1.72-2.97-2.64-4.61-.46-.82-.88-1.62-1.17-2.32-.3-.69-.45-1.3-.45-1.62v-.1c.06-.6.33-1.25.73-1.7.41-.45.9-.72,1.51-.72.38,0,.82.1,1.35.39.55.3,1.04.76,1.49,1.31.69.83,1.27,1.86,1.88,2.75.31.44.63.86,1.01,1.2.38.34.85.62,1.42.68h0s.13,0,.13,0c.28,0,.51-.08.73-.17.4-.19.77-.47,1.17-.82.69-.62,1.45-1.47,2.25-2.44,1.2-1.45,2.49-3.17,3.67-4.69.59-.76,1.14-1.47,1.64-2.06.49-.6.93-1.08,1.26-1.38.59-.55,1.55-.9,2.4-.9.61,0,1.15.17,1.5.47.18.15.32.33.42.56.1.24.17.53.17.92,0,.12,0,.24-.02.38-.06.61-.39,1.41-.9,2.25-.75,1.26-1.87,2.59-2.8,3.75-.47.58-.89,1.11-1.22,1.6-.16.24-.3.48-.41.71-.11.24-.2.48-.2.8,0,.17.03.37.13.55.16.31.44.54.72.67.29.13.58.16.87.17.43,0,.87-.09,1.34-.23,1.4-.43,3.05-1.37,4.47-2.57.91-.78,2.03-1.68,3.16-2.38,1.13-.7,2.26-1.16,3.07-1.15.46,0,.8.11,1.12.38.33.28.54.57.68.86.14.3.2.6.2.93,0,.61-.24,1.33-.72,2.06-.48.72-1.19,1.45-2.06,2.07h0c-1.29.93-2.67,1.83-3.77,2.7-.55.44-1.03.86-1.41,1.31-.19.23-.35.46-.47.72-.12.26-.21.54-.21.86,0,.24.06.49.16.72h0c.13.27.34.47.56.61.33.2.67.29,1.03.35.37.06.76.08,1.19.08,1.02,0,2.21-.12,3.38-.24,1.17-.12,2.32-.23,3.19-.23.29,0,.55.01.76.04,1.06.12,1.78,1.01,1.77,1.85,0,.4-.14.81-.55,1.22Z"/>
        </g>
      </g>
    </g>
  </g>
  <g id="list-type">
    <g>
      <g>
        <path class="cls-15" d="M39.14,189.23c-2.18,0-8.47,0-9.41-5.52-2.2.87-5.32,1.96-6.99,1.96-2.08,0-4-1-5.27-2.74-.94-1.29-1.46-2.93-1.46-4.62,0-2.75,1.14-4.71,3.39-5.88v-3.46c-.57-.37-1.08-.83-1.5-1.37-.66-.84-1.45-2.3-1.45-4.48,0-3.99,2.73-6.89,6.49-6.89h5.85c1.08-.84,2.45-1.33,3.99-1.33h12.23c3.78,0,6.52,2.91,6.52,6.9,0,1.96-.66,3.66-1.78,4.88.52,1.01.8,2.2.8,3.53,0,1.7-.62,7.43-1.02,9.89-1.04,6.48-4.04,9.13-10.38,9.13h0Z"/>
        <path class="cls-15" d="M50.11,189.24c-3.87,0-7.14-3.37-7.14-7.36,0-3.03,1.65-4.53,2.92-5.52-1.64-1.21-2.65-3.23-2.65-5.65,0-2.16.81-4,2.14-5.23-.66-.89-1.17-2.04-1.17-3.66,0-3.81,3.49-7.28,7.33-7.28,1.72,0,2.97.6,4.1,1.42.51-.13,1.04-.2,1.59-.2h2.33c1.3-1.18,3.06-1.73,4.82-1.73,1.98,0,3.64.63,4.83,1.74h2.74c3.56,0,6.25,2.81,6.25,6.55,0,1.6-.49,3.03-1.34,4.14,0,.15,0,.31,0,.46v4.58c0,.14,0,.27,0,.41.88,1.13,1.39,2.59,1.39,4.23,0,.87-.15,1.69-.42,2.44.47.96.74,2.12.74,3.5,0,7-6.53,7-10.85,7-7.18,0-9.58-.48-11.27-.92-.66-.19-1.24-.37-1.76-.58-1.03.77-2.62,1.66-4.6,1.66h0Z"/>
        <path class="cls-15" d="M81.83,188.75c-4.71,0-7.52-2.81-7.52-7.52v-3.77c-.56-.3-1.08-.69-1.55-1.16-1.31-1.31-2.06-3.11-2.06-4.94,0-.75.12-1.45.35-2.11-.38-.85-.59-1.82-.59-2.85,0-1.21.28-2.31.79-3.26,0-.03,0-.05,0-.08,0-2.27,1.19-3.71,1.84-4.48.22-.25.43-.58.51-.71.52-1.09,1.99-3.96,5.8-3.96,1.92,0,3.63.67,4.89,1.76h2.74c.68,0,1.32.1,1.93.3.81-.25,1.71-.38,2.7-.38h5.94c4.58,0,7.3,2.72,7.3,7.28v6.43c0,2.74-.99,4.81-2.77,6.03v5.9c0,4.71-2.81,7.52-7.52,7.52,0,0-12.77,0-12.77,0Z"/>
        <path class="cls-15" d="M105.94,187.29c-5.24,0-7.63-3.62-7.63-6.98l-.03-15.47c0-5.19,3.1-8.29,8.28-8.29h4.94c12.74,0,13.73,8.85,13.73,11.56,0,9.23-7.39,11.35-11.72,11.8v.4c0,3.36-2.37,6.98-7.58,6.98ZM111.45,166.45h0Z"/>
        <path class="cls-15" d="M126.54,187.13c-1.73,0-4.28-.22-6.3-2.12-2.41-2.26-2.41-5.38-2.41-6.41v-15.18c0-4.07,3.19-7.03,7.57-7.03s7.63,2.97,7.63,7.06v10.1s2.4,0,2.4,0c3.62,0,6.35,2.89,6.35,6.71s-2.73,6.87-6.35,6.87h-8.9Z"/>
        <path class="cls-15" d="M147.22,187.54c-2.82,0-6.93-.33-10.01-3.12-2.45-2.23-3.64-5.43-3.64-9.77v-11.23c0-4.07,3.18-7.03,7.55-7.03,2.59,0,4.76,1.04,6.1,2.74,1.35-1.7,3.54-2.74,6.16-2.74,4.36,0,7.52,2.97,7.52,7.06v11.25c0,5.86-2.38,12.83-13.68,12.83h0Z"/>
        <path class="cls-15" d="M166.25,187.51c-4.5,0-7.92-1.25-10.18-3.72-1.4-1.5-2.2-3.44-2.2-5.33,0-2.04.93-3.92,2.4-5.25-1.86-2.34-2.29-4.78-2.29-6.54,0-3.14,1.34-5.92,3.76-7.82,2.16-1.76,5.17-2.71,8.64-2.71,5.33,0,8.33,2.15,9.64,3.42,1.48,1.4,2.41,3.43,2.41,5.37,0,1.73-.62,3.31-1.66,4.55,1.65,1.92,2.53,4.25,2.53,6.79,0,3.09-1.34,6.02-3.67,8.02-1.61,1.43-4.61,3.21-9.39,3.21Z"/>
      </g>
      <path class="cls-21" d="M178.05,163.47c.88-1.29,1.39-2.85,1.39-4.53,0-2.21-1.04-4.52-2.71-6.09-2.45-2.39-6.13-3.71-10.34-3.71-2.91,0-5.52.65-7.69,1.88-1.43-1.04-3.25-1.64-5.32-1.64-2.48,0-4.63.83-6.16,2.25-1.52-1.41-3.64-2.25-6.1-2.25-3.64,0-6.54,1.83-7.83,4.65-1.3-2.82-4.23-4.65-7.9-4.65-2.26,0-4.22.7-5.71,1.9-2.47-1.21-5.37-1.74-8.19-1.74h-4.94c-1.36,0-2.58.21-3.68.59-1.92-1.35-4.24-1.54-5.29-1.54h-5.94c-.97,0-1.87.11-2.69.33-.61-.17-1.26-.25-1.94-.25h-2.37c-1.4-1.1-3.22-1.76-5.25-1.76-2.5,0-4.12,1.05-5.17,2.19-.7-.22-1.45-.34-2.24-.34h-2.38c-1.34-1.1-3.13-1.74-5.19-1.74s-3.84.63-5.18,1.73h-1.98c-.48,0-.94.04-1.38.13-1.16-.78-2.52-1.35-4.31-1.35-1.29,0-2.54.35-3.67.95-.88-.36-1.85-.57-2.89-.57h-12.23c-1.62,0-3.08.48-4.29,1.33h-5.56c-4.34,0-7.49,3.32-7.49,7.89,0,2.46.9,4.13,1.67,5.1.38.48.81.91,1.29,1.27v2.33c-2.25,1.35-3.39,3.52-3.39,6.48,0,1.9.59,3.75,1.65,5.21,1.46,2,3.68,3.15,6.08,3.15,1.56,0,4.16-.83,6.3-1.62,1.4,4.2,6.08,5.18,10.11,5.18h0c2.67,0,4.8-.46,6.49-1.42,1.29.9,2.83,1.42,4.47,1.43h0c1.99,0,3.61-.77,4.74-1.53.39.13.8.26,1.25.39.03,0,.08.02.11.03,1.75.46,4.22.95,11.52.95,2.66,0,6.38-.01,8.94-1.74,1.37.91,3.11,1.41,5.15,1.41,0,0,12.77,0,12.77,0,2.84,0,5.09-.96,6.57-2.67,1.28.75,2.87,1.2,4.76,1.2,5.38,0,8.31-3.67,8.56-7.45.88-.11,1.7-.28,2.45-.48.29,2.22,1.16,4.03,2.61,5.38,2.55,2.39,5.89,2.39,6.99,2.39h8.9c1.45,0,2.78-.41,3.89-1.13,2.14,1.02,4.74,1.54,7.9,1.54h0c2.85,0,6.69-.49,9.74-2.64,2.35,1.73,5.46,2.62,9.29,2.62,5.06,0,8.27-1.89,10.08-3.49,2.53-2.19,3.97-5.38,3.97-8.74,0-2.52-.78-4.84-2.26-6.81Z"/>
      <g>
        <path class="cls-6" d="M28.43,159.01v9.49c.62-.35,1.08-.51,1.54-.51,1.06,0,1.87.98,1.87,2.25,0,.84-.41,1.3-1.71,1.9-2.69,1.22-6.59,2.55-7.4,2.55-.98,0-1.74-1.06-1.73-2.36,0-1.25.33-1.55,2.14-1.9.19-.03.6-.14,1.25-.33v-11.09s-1.46,0-1.46,0c-.98,0-1.49-.68-1.49-1.87,0-1.22.52-1.9,1.49-1.9h6.56c.98,0,1.52.68,1.52,1.9,0,1.19-.54,1.87-1.52,1.87h-1.06ZM38.96,157.71c-.16.65-1.09,3.82-1.09,3.99,0,.22.16.3.52.3h4.66c1.74,0,2.49.68,2.49,2.22,0,1.3-.57,6.75-.95,9.08-.65,4.07-1.6,4.93-5.45,4.93-3.58,0-4.53-.41-4.53-1.98,0-1.38.65-2.22,1.74-2.22.43,0,2.39.25,2.79.25.71,0,.98-.16,1.14-.76.54-1.82.98-6.53.98-7.38,0-.43-.05-.46-.62-.46h-4.77c-.95,0-1.44-.14-1.84-.52-.41-.38-.62-.89-.62-1.41,0-.35.05-.71.16-1.03.46-1.63,1.03-3.44,1.38-5.02h-2.17c-.98,0-1.52-.68-1.52-1.9s.54-1.9,1.52-1.9h12.23c.98,0,1.52.68,1.52,1.9s-.54,1.9-1.52,1.9h-6.05Z"/>
        <path class="cls-6" d="M55.14,170.83c1.65,3.34,5.99,3.34,10.87,3.34.19,0,2.68,0,3.74-.08.89-.05,1.63-.08,2.06-.08,1.3,0,1.79.57,1.79,2.06,0,1.74-.52,2.01-5.88,2-7.13,0-8.95-.49-9.98-.76-1.74-.49-2.36-.81-3.63-2.12-.27.33-1.03,1.11-1.74,1.82-.87.81-1.6,1.22-2.25,1.22-1.11,0-2.14-1.14-2.14-2.36,0-.76.14-.92,1.27-1.79.54-.41,1.17-.92,1.93-1.76v-5.15c0-.46-.14-.6-.57-.6h-.87c-.95,0-1.49-.68-1.49-1.87,0-1.19.52-1.87,1.49-1.87h2.82c2.58,0,2.58,1.17,2.58,2.44v5.56ZM54.03,155.11c1.44,1.27,2.03,2.09,2.03,2.88,0,1.03-1.25,2.3-2.25,2.3-.62,0-.95-.22-1.57-.95-.43-.54-1-1.11-1.98-1.98-.95-.87-1.03-.98-1.03-1.55,0-1.06,1.25-2.28,2.33-2.28.6,0,.95.22,2.47,1.57ZM62.57,154.75c0-.65,0-1.74,1.84-1.73,1.84,0,1.84,1.11,1.84,1.74h5.72c.79,0,1.25.57,1.25,1.55s-.46,1.54-1.25,1.54h-5.72s0,.76,0,.76h3.36c1.79,0,2.28.49,2.28,2.31v4.58c0,1.79-.49,2.28-2.28,2.28h-3.36s0,.79,0,.79h5.78c.79,0,1.25.57,1.25,1.57s-.46,1.55-1.25,1.55h-5.78c0,1.14,0,2.17-1.84,2.17-1.84,0-1.84-1-1.84-2.17h-5.53c-.81,0-1.25-.57-1.25-1.55s.43-1.57,1.25-1.57h5.53v-.79h-3.17c-1.82,0-2.3-.49-2.3-2.28v-4.58c0-1.82.49-2.3,2.3-2.3h3.17v-.76s-5.31,0-5.31,0c-.79,0-1.22-.57-1.22-1.55s.43-1.55,1.22-1.54h5.31ZM61.21,160.96c-.6,0-.6.14-.6,1.06h1.95v-1.06h-1.36ZM60.61,164.14c0,.98,0,1.11.6,1.11h1.36v-1.11h-1.95ZM68.29,162.02c0-.92,0-1.06-.6-1.06h-1.44v1.06h2.03ZM67.69,165.25c.6,0,.6-.13.6-1.11h-2.03v1.11h1.44Z"/>
        <path class="cls-6" d="M84.66,157.58c-.03.46-.06.92-.11,1.36h3.17c.73,0,1.17.52,1.17,1.46s-.43,1.44-1.17,1.44h-1.82c2.09,1.22,2.36,1.38,2.36,2.06,0,.98-.84,1.98-1.63,1.98-.43,0-.68-.13-1.49-.76-.98-.73-1.71-1.08-2.49-1.57-1.41,1.92-3.93,3.69-5.32,3.69-.84,0-1.63-.92-1.63-1.87,0-.65.41-1.11,1.55-1.71,1.14-.62,1.95-1.22,2.44-1.82h-3.06c-.76,0-1.17-.52-1.17-1.44s.41-1.46,1.17-1.46h4.31c.08-.43.14-.81.19-1.35h-1.46c-.41.57-.81.98-1.6.98-1,0-1.82-.71-1.82-1.49,0-.38.14-.62.68-1.27.46-.54.92-1.25,1.14-1.68.49-1.03.68-1.19,1.33-1.19,1.14,0,2.01.6,2.01,1.38,0,.14-.03.22-.08.38h5.69c.76,0,1.17.52,1.17,1.46s-.41,1.44-1.17,1.44h-2.36ZM79.32,168.78c0-1.95.57-2.52,2.52-2.52h12.77c1.95,0,2.52.57,2.52,2.52v6.45c0,1.95-.57,2.52-2.52,2.52h-12.77c-1.95,0-2.52-.57-2.52-2.52v-6.45ZM92.76,174.42c.57,0,.57-.11.57-1.22h-10.2c0,1.11,0,1.22.57,1.22h9.06ZM93.33,170.49c0-1.06,0-1.19-.57-1.19h-9.06c-.57,0-.57.13-.57,1.19h10.2ZM89.38,156.87c0-1.82.46-2.28,2.28-2.28h5.94c1.84,0,2.3.46,2.3,2.28v6.43c0,1.82-.46,2.28-2.31,2.28h-5.94c-1.82,0-2.28-.46-2.28-2.28v-6.43ZM93.74,157.82c-.49,0-.6.11-.6.6v3.44c0,.49.11.6.6.6h1.79c.49,0,.6-.11.6-.6v-3.44c0-.49-.11-.6-.59-.6h-1.79Z"/>
        <path class="cls-6" d="M111.39,169.02h-2.87s0,5.29,0,5.29c0,1.3-.92,1.98-2.58,1.98s-2.63-.68-2.63-1.98l-.03-15.48c0-2.44.84-3.28,3.28-3.28h4.93c6.29,0,8.73,2.55,8.73,6.56,0,4.96-3.31,6.91-8.84,6.91ZM111.2,159.13h-2.06c-.54,0-.62.14-.62.62v5.1c0,.54.08.62.62.62h1.93c2.33,0,3.82-.84,3.82-3.25s-1.74-3.09-3.69-3.09Z"/>
        <path class="cls-6" d="M135.43,176.13h-8.89c-2.74,0-3.71-.87-3.71-3.53v-15.18c0-1.3.95-2.03,2.58-2.03,1.63,0,2.63.76,2.63,2.06v14.51c0,.38.24.6.65.6h6.75c.87,0,1.35.65,1.35,1.71s-.51,1.87-1.36,1.87Z"/>
        <path class="cls-6" d="M147.22,176.54c-6.18,0-8.65-2.23-8.65-7.89v-11.23c0-1.27.92-2.03,2.55-2.03s2.55.79,2.55,2.06v11.33c0,2.79.73,4.37,3.55,4.37s3.53-1.49,3.53-4.37v-11.33c0-1.3.98-2.06,2.63-2.06,1.65,0,2.52.76,2.52,2.06v11.25c0,5.5-2.36,7.84-8.68,7.84Z"/>
        <path class="cls-6" d="M172.38,174.51c-1.25,1.11-3.17,2.01-6.13,2.01-3.58,0-5.48-.98-6.51-2.12-.52-.54-.87-1.27-.87-1.93,0-.98.98-2.2,2.39-2.2.98,0,1.82.87,2.74,1.6.98.76,1.79,1.14,2.66,1.14,1.87,0,2.28-1.3,2.28-2.14s-.46-1.44-1.19-1.95c-.35-.27-.79-.51-1.27-.79-.49-.24-1.03-.49-1.63-.79-1.65-.81-2.98-1.6-3.9-2.44-.98-.89-1.95-2.2-1.95-4.23,0-1.54.6-2.9,1.84-3.88,1.3-1.06,3.23-1.65,5.56-1.65,3.15,0,5.12,1,6.16,2.01.46.43.89,1.17.89,1.79,0,.92-.7,2.09-2.11,2.09-.87,0-1.95-.52-2.96-1.38-.62-.54-1.41-1.03-2.25-1.03-.98,0-1.93.54-1.93,1.68,0,.84.49,1.52,1.46,2.12.87.52,1.54.84,3.15,1.57,1.63.76,2.74,1.36,3.6,2.17,1,.92,1.9,2.25,1.9,4.12,0,1.49-.57,3.06-1.93,4.23Z"/>
      </g>
    </g>
  </g>
</svg>