<?xml version="1.0" encoding="UTF-8"?>
<svg id="_圖層_1" data-name="圖層_1" xmlns="http://www.w3.org/2000/svg" xmlns:xlink="http://www.w3.org/1999/xlink" version="1.1" viewBox="0 0 195 195">
  <!-- Generator: Adobe Illustrator 29.0.0, SVG Export Plug-In . SVG Version: 2.1.0 Build 186)  -->
  <defs>
    <style>
      .st0 {
        fill: none;
      }

      .st1 {
        fill: #595753;
      }

      .st2 {
        fill: #55b779;
      }

      .st3 {
        fill: #00469b;
      }

      .st4 {
        fill: #009fe8;
      }

      .st5 {
        fill: #ed848c;
      }

      .st6 {
        fill: #fff000;
      }

      .st7 {
        fill: #ef8200;
      }

      .st8, .st9 {
        isolation: isolate;
      }

      .st10 {
        clip-path: url(#clippath-1);
      }

      .st11, .st9 {
        fill: #fff;
      }

      .st12 {
        fill: #e63556;
      }

      .st13 {
        fill: #4aaf64;
      }

      .st14 {
        fill: #e50012;
      }

      .st15 {
        fill: #75cc92;
      }

      .st16 {
        clip-path: url(#clippath);
      }

      .st9 {
        opacity: .3;
      }
    </style>
    <clipPath id="clippath">
      <path class="st0" d="M20.7,85.3c0,21.9,2.4,44.4,16.8,58.8s36.9,16.8,58.8,16.8,44.4-2.4,58.8-16.8,16.8-36.9,16.8-58.8c0-21.9-2.4-44.4-16.8-58.8-14.4-14.4-36.9-16.8-58.8-16.8-21.9,0-44.4,2.4-58.8,16.8s-16.8,36.9-16.8,58.8h0Z"/>
    </clipPath>
    <clipPath id="clippath-1">
      <path class="st0" d="M12.3,85.4c0,21.9,2.7,44.4,18.8,58.8,16,14.4,41.2,16.8,65.7,16.8,24.5,0,49.6-2.4,65.7-16.8,16.1-14.4,18.8-36.9,18.8-58.8s-2.7-44.4-18.8-58.8c-16.1-14.4-41.2-16.8-65.7-16.8-24.5,0-49.7,2.4-65.7,16.8-16,14.4-18.8,36.9-18.8,58.8h0Z"/>
    </clipPath>
  </defs>
  <g>
    <path class="st13" d="M20.9,96.7c0,21.9,2.4,44.4,16.8,58.8s36.9,16.8,58.8,16.8c21.9,0,44.4-2.4,58.8-16.8s16.8-36.9,16.8-58.8c0-21.9-2.4-44.4-16.8-58.8s-36.9-16.8-58.8-16.8c-21.9,0-44.4,2.4-58.8,16.8-14.4,14.4-16.8,36.9-16.8,58.8Z"/>
    <path class="st15" d="M20.5,85.4c0,21.9,2.4,44.4,16.8,58.8,14.4,14.4,36.9,16.8,58.8,16.8s44.4-2.4,58.8-16.8,16.8-36.9,16.8-58.8-2.4-44.4-16.8-58.8c-14.4-14.4-36.9-16.8-58.8-16.8-21.9,0-44.4,2.4-58.8,16.8-14.4,14.4-16.8,36.9-16.8,58.8h0Z"/>
    <circle class="st11" cx="97.1" cy="98.6" r="59.6"/>
    <g class="st16">
      <g>
        <path class="st9" d="M105.1,16.1c-.2,1.5-.7,2.9-1.7,3.9-1.2,1.4-2.5,2.6-3.8,3.9-.3.2-.6.5-.9.6-1.4.7-2.8,1.4-4.2,2.1-.7.3-1.4.5-2.1.3-.5-.4-.6-1-.8-1.5-.3-.7-.5-1.5-.9-2.2-.4-.8-.7-1.6-.8-2.5-.2-1.5-.5-3.1-.8-4.6,0-.4,0-.9,0-1.4,1.1-.5,2.2-.7,3.3-.8,2-.1,3.9,0,5.9.4,1.4.3,2.9.6,4.3.9.6.1,1.1.3,1.7.4.2,0,.4.2.8.4h0Z"/>
        <path class="st9" d="M41.8,68c-.3-1.5-.3-2.9.3-4.2.7-1.7,1.5-3.3,2.3-4.9.2-.3.4-.6.6-.9,1.1-1.1,2.1-2.3,3.2-3.4.5-.5,1.1-.9,1.9-1,.6.2.8.7,1.2,1.1.5.6,1,1.2,1.5,1.8.6.6,1.2,1.3,1.6,2.1.8,1.4,1.5,2.7,2.3,4.1.2.4.3.9.5,1.3-.8.9-1.8,1.4-2.9,1.9-1.8.8-3.7,1.3-5.7,1.6-1.4.2-2.9.4-4.3.6-.6,0-1.1.1-1.7.1-.2,0-.5,0-.9-.2h0Z"/>
        <path class="st9" d="M151.5,90.5c.5-1.4,1.2-2.4,2.3-3.2,1.3-1,2.8-1.8,4.2-2.7.3-.2.6-.3.9-.4,1.4-.4,2.8-.8,4.2-1.1.7-.2,1.3-.2,2,.2.4.4.3,1,.4,1.5.1.7.2,1.4.4,2.1.2.8.3,1.6.2,2.4,0,1.4-.1,2.9-.2,4.3,0,.4-.1.8-.2,1.3-1.1.3-2.1.2-3.2,0-1.8-.3-3.6-.8-5.2-1.5-1.2-.5-2.5-1.1-3.7-1.6-.5-.2-.9-.5-1.4-.7-.2-.1-.4-.3-.6-.6h0Z"/>
        <path class="st9" d="M40,137.5c.2-1.6.7-2.9,1.7-3.9,1.2-1.4,2.5-2.6,3.8-3.9.3-.2.6-.5.9-.6,1.4-.7,2.8-1.4,4.2-2.1.7-.3,1.4-.5,2.1-.3.5.4.6.9.8,1.5.3.7.5,1.5.9,2.2.4.8.7,1.6.8,2.5.2,1.5.5,3.1.8,4.6,0,.4,0,.9,0,1.4-1.1.5-2.2.7-3.3.8-2,.1-3.9,0-5.9-.4-1.4-.3-2.9-.6-4.3-.9-.6-.1-1.1-.3-1.7-.4-.2,0-.5-.2-.8-.4h0Z"/>
        <path class="st9" d="M72.3,22.6c.3,1.5.3,2.9-.3,4.2-.7,1.7-1.5,3.3-2.3,4.9-.2.3-.4.6-.6.9-1.1,1.1-2.1,2.3-3.2,3.4-.5.5-1.1.9-1.9,1-.6-.2-.8-.7-1.2-1.1-.5-.6-1-1.2-1.5-1.8-.6-.6-1.2-1.3-1.6-2.1-.8-1.4-1.5-2.7-2.3-4.1-.2-.4-.3-.9-.5-1.3.8-.9,1.8-1.4,2.9-1.9,1.8-.8,3.7-1.3,5.7-1.6,1.4-.2,2.9-.4,4.3-.6.6,0,1.1-.1,1.7-.1.2,0,.5,0,.9.1h0Z"/>
        <path class="st9" d="M137,137.9c.9-.6,1.9-.9,2.9-.9,1.3,0,2.6.2,3.9.3.3,0,.5.1.8.2,1,.4,2.1.9,3.1,1.3.5.2.9.5,1.1,1.1,0,.4-.3.7-.4,1.1-.3.5-.6,1-.8,1.5-.3.6-.6,1.1-1,1.6-.7.8-1.4,1.7-2.2,2.5-.2.2-.5.4-.8.7-.8-.4-1.4-.9-2-1.5-1-1-1.8-2.2-2.5-3.4-.5-.9-1-1.8-1.5-2.7-.2-.4-.4-.7-.5-1.1,0-.2,0-.4-.1-.6h0Z"/>
        <path class="st9" d="M124.3,69.5c-.9-1.3-1.3-2.6-1.3-4,0-1.8.2-3.6.3-5.4,0-.4.1-.7.2-1.1.6-1.5,1.1-2.9,1.7-4.4.3-.7.7-1.3,1.4-1.6.6,0,1.1.3,1.6.6s1.4.7,2.1,1c.8.3,1.6.8,2.3,1.3,1.2,1,2.4,1.9,3.6,2.9.4.3.6.7,1,1-.5,1.1-1.2,2-2,2.8-1.4,1.4-3,2.6-4.7,3.6-1.2.8-2.5,1.5-3.8,2.2-.5.3-1,.5-1.5.8-.2,0-.5.1-.9.2h0Z"/>
        <path class="st9" d="M140.3,22.6c.3,1.5.3,2.9-.3,4.2-.7,1.7-1.5,3.3-2.3,4.9-.2.3-.4.6-.6.9-1.1,1.1-2.1,2.3-3.2,3.4-.5.5-1.1.9-1.9,1-.6-.2-.8-.7-1.2-1.1-.5-.6-1-1.2-1.5-1.8-.6-.6-1.2-1.3-1.6-2.1-.8-1.4-1.5-2.7-2.3-4.1-.2-.4-.3-.9-.5-1.3.8-.9,1.8-1.4,2.9-1.9,1.8-.8,3.7-1.3,5.7-1.6,1.4-.2,2.9-.4,4.3-.6.6,0,1.1-.1,1.7-.1.2,0,.5,0,.9.1h0Z"/>
        <path class="st9" d="M145.9,50.3c-1.1-1.1-1.8-2.3-2.1-3.7-.3-1.8-.5-3.6-.7-5.4,0-.4,0-.7,0-1.1.3-1.5.6-3.1.9-4.6.1-.7.5-1.4,1.1-1.9.6-.2,1.1.1,1.6.3.8.2,1.5.5,2.2.7.9.2,1.7.5,2.5.9,1.4.7,2.8,1.5,4.1,2.2.4.2.8.5,1.2.8-.2,1.2-.8,2.2-1.4,3.1-1.1,1.7-2.4,3.1-3.9,4.4-1.1,1-2.2,1.9-3.3,2.8-.4.4-.9.7-1.4,1-.2.1-.5.2-.8.3h0Z"/>
        <path class="st9" d="M153.6,62.3c1.2-.3,2.3-.4,3.3,0,1.4.4,2.6,1,4,1.5.3.1.5.3.7.4.9.8,1.9,1.5,2.8,2.3.4.4.8.8.9,1.4-.1.5-.5.7-.8,1-.4.4-.9.8-1.3,1.3-.5.5-1,1-1.6,1.3-1,.7-2,1.3-3.1,2-.3.2-.6.3-1,.5-.7-.6-1.2-1.3-1.6-2.2-.7-1.4-1.2-2.8-1.5-4.3-.2-1.1-.5-2.2-.7-3.3,0-.4-.1-.9-.2-1.3,0-.2,0-.4,0-.7h0Z"/>
        <path class="st9" d="M161.6,127.9c-1.6.2-2.9,0-4.2-.6-1.6-.8-3.2-1.8-4.7-2.7-.3-.2-.6-.4-.8-.7-1.1-1.2-2.1-2.3-3.1-3.5-.5-.6-.8-1.2-.8-2,.2-.6.8-.8,1.2-1.1.6-.5,1.3-.9,1.9-1.4.7-.6,1.4-1.1,2.2-1.4,1.4-.6,2.8-1.3,4.3-1.9.4-.2.9-.3,1.4-.4.8.9,1.3,1.9,1.6,3,.6,1.9,1,3.8,1.1,5.8.1,1.4.2,2.9.3,4.4,0,.6,0,1.1,0,1.7,0,.2-.1.5-.2.9h0Z"/>
        <path class="st9" d="M50.1,40.6c-.2,1.5-.7,2.8-1.7,3.9-1.2,1.4-2.5,2.6-3.8,3.9-.3.2-.6.5-.9.6-1.4.7-2.8,1.4-4.2,2.1-.7.3-1.4.5-2.1.3-.5-.4-.6-1-.8-1.5-.3-.7-.5-1.5-.9-2.2-.4-.8-.7-1.6-.8-2.5-.2-1.5-.5-3.1-.8-4.6,0-.5,0-.9,0-1.4,1.1-.5,2.2-.7,3.3-.8,2-.1,3.9,0,5.9.4,1.4.3,2.9.6,4.3.9.6.1,1.1.3,1.7.5.2,0,.5.2.8.4h0Z"/>
        <path class="st9" d="M26.5,73.3c1.5-.6,2.9-.7,4.2-.4,1.8.4,3.5,1,5.2,1.5.3.1.7.3,1,.5,1.3.9,2.6,1.7,3.9,2.6.6.4,1.1,1,1.3,1.8,0,.6-.6.9-.9,1.4-.5.6-1,1.2-1.5,1.8-.5.7-1.1,1.3-1.8,1.9-1.2,1-2.5,1.9-3.7,2.9-.4.3-.8.5-1.2.7-1-.7-1.7-1.6-2.3-2.6-1.1-1.7-1.8-3.5-2.5-5.4-.4-1.4-.9-2.8-1.3-4.2-.2-.6-.3-1.1-.4-1.7,0-.2,0-.5,0-.9h0Z"/>
        <path class="st9" d="M31,117.7c-.9-1.3-1.4-2.6-1.4-4,0-1.8.2-3.6.3-5.4,0-.4.1-.7.2-1.1.5-1.5,1.1-2.9,1.7-4.4.3-.7.7-1.3,1.4-1.6.6,0,1,.3,1.5.6.7.3,1.4.7,2.1,1,.8.3,1.6.8,2.3,1.3,1.2,1,2.4,1.9,3.6,2.9.3.3.6.7,1,1-.5,1.1-1.2,2-2,2.8-1.4,1.4-3,2.6-4.7,3.6-1.2.8-2.5,1.5-3.8,2.2-.5.3-1,.5-1.5.8-.2,0-.5.1-.9.2h0Z"/>
      </g>
    </g>
    <g class="st10">
      <g>
        <g>
          <path class="st12" d="M89.2,93.3c1.3-2.4,3.7-4,6.3-4s4.9,1.6,6.2,3.9c0,0,0,.4-.2.9-.6,1.1-1.2,2-1.9,2.8,2.9-3.2,4.8-9.7,4.7-15.8,0-.5,0-1,0-1.5,0,0-5.6,3.2-8.9,3.2s-8.5-3.2-8.5-3.2c0,.5,0,1-.1,1.5-.2,4.8.8,9.7,2.7,13.2-.2-.6-.3-1-.3-1h0Z"/>
          <path class="st5" d="M101.8,93.2c-1.3-2.4-3.6-3.9-6.2-3.9s-5,1.6-6.3,4c0,0,0,.4.3,1h0c0,.2.2.4.3.5h0c.6,1,1.3,1.9,2.1,2.6h0c0,0,.2.2.3.3,0,0,0,0,.1,0,0,0,.2.1.3.2,0,0,0,0,.2.1,0,0,.2.1.2.2,0,0,.1,0,.2.1,0,0,.2,0,.2.1,0,0,.1,0,.2.1,0,0,.1,0,.2,0s.2,0,.2,0,.1,0,.2,0c0,0,.2,0,.3,0,0,0,.1,0,.2,0,0,0,.2,0,.3,0,0,0,.1,0,.2,0,.2,0,.3,0,.5,0h0c.2,0,.3,0,.5,0,0,0,0,0,.2,0,0,0,.2,0,.3,0,0,0,.1,0,.2,0,0,0,.2,0,.2,0,0,0,.1,0,.2,0,0,0,.2,0,.2,0,0,0,.1,0,.2,0s.1,0,.2-.1.2,0,.2-.1c0,0,.1,0,.2-.1,0,0,.2,0,.2-.2,0,0,.1,0,.2-.1,0,0,.2-.1.2-.2,0,0,0,0,.2-.1,0,0,.2-.2.2-.2h.1c0-.2.2-.3.3-.4,0,0,0,0,0,0,.7-.8,1.3-1.7,1.9-2.8.1-.6.2-.9.2-.9h0Z"/>
          <g>
            <path class="st6" d="M127.5,60.2c4.3-7.9,1.6-15.9,1.6-15.9-.6,1-2.8,4.2-7.6,7.4,2,3.5,3.1,7.4,3.7,11.4,1-.9,1.8-1.8,2.3-2.9h0Z"/>
            <path class="st6" d="M95.6,63.2c-7,0-12,5.6-12.7,17.2-.7,11.1,5,23.1,12.7,23.1s12.8-11.9,12.7-23.1c-.2-11.2-5.7-17.2-12.6-17.2ZM99.7,96.9s0,0,0,0c0,0-.2.2-.3.3h-.1c0,.2-.2.3-.2.3,0,0,0,0-.2.1,0,0-.2.1-.2.2,0,0-.1,0-.2.1,0,0-.2.1-.2.2,0,0-.1,0-.2.1,0,0-.1,0-.2.1,0,0-.1,0-.2.1,0,0-.1,0-.2,0,0,0-.2,0-.2,0,0,0-.1,0-.2,0,0,0-.2,0-.2,0,0,0-.1,0-.2,0,0,0-.2,0-.3,0,0,0,0,0-.2,0-.2,0-.3,0-.5,0h0c-.2,0-.3,0-.5,0,0,0-.1,0-.2,0,0,0-.2,0-.3,0,0,0-.1,0-.2,0,0,0-.2,0-.3,0,0,0-.1,0-.2,0,0,0-.2,0-.2,0s-.2,0-.2,0c0,0-.1,0-.2-.1,0,0-.2,0-.2-.1,0,0-.1,0-.2-.1,0,0-.2,0-.2-.2,0,0,0,0-.2-.1,0,0-.2-.1-.3-.2,0,0,0,0-.1,0,0,0-.2-.2-.3-.3h0c-.8-.7-1.4-1.6-2.1-2.6h0c0-.2-.2-.3-.3-.5h0c-1.9-3.5-3-8.4-2.7-13.2,0-.5,0-1,.1-1.5,0,0,5.2,3.2,8.5,3.2s8.9-3.2,8.9-3.2c0,.5,0,1,0,1.5,0,6.2-1.8,12.6-4.7,15.8h0Z"/>
            <path class="st6" d="M125.6,140.2c.6,2.3,1.2,4.9,1.7,7.1,1.4,1.1,2.8,2,4.1,2.9.5.2.9.4,1.4.5,6.4,2,12.7-1.7,14.1-3.6l-21.3-7h0Z"/>
          </g>
          <g>
            <path class="st4" d="M127.9,72.4c5.1-8.3,3.6-15.2,3.6-15.2-.5.9-2.4,3.7-6.2,6.7.5,4,.5,7.9.3,11.4.9-.9,1.7-1.8,2.3-2.8h0Z"/>
            <path class="st4" d="M131.3,150.2c-1.3-.9-2.6-1.9-4.1-2.9.4,2,.8,3.6.9,4.4.4,2.5.5,3.6-.8,4.6,6,3.8,12.3,1.9,14.2.7,0,0-4.2-2.5-10.2-6.8h0Z"/>
          </g>
          <g>
            <path class="st7" d="M85.8,167.1c-.3-.5-.7-1-1.3-1.4-1.6-1.1-3.2-1.3-5.3-1.5.1-1,.3-1.9.5-2.7-1.2,0-2.1-.1-2.6-.3-.5-.2-1.6-.7-3-1.4-.4,1.5-.6,2.8-.7,3.9-2.6-.3-5-.6-8.4-.8-4-.2-8.5.3-10.8,2.5-2.4,2.4-1.8,6.3,2.7,7.1.3,1.2,1.4,2.1,2.8,2.4,3.2.6,5.5-1.8,7-2.2,1.3-.4,6.7-1.5,11.6-.8,3.1.4,4.5,2.2,7,2.2,1.9,0,3.3-1.4,3.2-3.6,0-1.4-.8-2.8-2.9-3.6h0Z"/>
            <path class="st7" d="M137.3,165.8c-2.2-2.3-6.8-2.9-10.8-2.7-3.5.1-5.8.4-8.4.7,0-1-.3-2.2-.6-3.6-1.2.4-2.3.7-3.2,1-.4.1-1.3.3-2.5.4.2.8.3,1.6.5,2.6-2.2.1-3.7.3-5.4,1.4-.5.4-1,.8-1.3,1.4-2.1.8-2.9,2.2-2.9,3.6,0,2.1,1.3,3.6,3.2,3.6,2.6,0,3.9-1.7,7.1-2.1,4.9-.6,10.3.6,11.6,1,1.5.4,3.7,2.9,7,2.3,1.4-.3,2.5-1.2,2.9-2.4,4.5-.8,5.2-4.6,2.8-7.1h0Z"/>
          </g>
          <path class="st1" d="M95.8,142.1c-16-.3-25-2-29.7-3.3-1.3,4.2-2.9,9.5-3.2,11.2-.4,2.8-.4,3.4,1.1,4.6,1.2.8,6.5,3.6,10,5.4,1.4.7,2.5,1.2,3,1.4.4.2,1.4.2,2.6.3,3.7.1,9.7-.2,10.3-.4.9-.3,4.8-7.5,5.1-8.1.3.5,5.3,8.9,6.2,9.2.7.2,6.8-.3,10.5-.8,1.1-.1,2.1-.3,2.5-.4.8-.2,1.9-.6,3.2-1,3.6-1.2,8.3-2.9,9.5-3.7.1,0,.2-.2.3-.2,1.2-1,1.1-2.1.8-4.6-.1-.8-.5-2.4-.9-4.4-.5-2.2-1.1-4.8-1.7-7.1-.1-.6-.3-1.1-.4-1.6-4.1,1.4-12.6,3.2-29.4,3.5h0Z"/>
          <g>
            <path class="st2" d="M177.6,80.6c-2.1-8.2-10.8-9.6-10.8-9.6,3.7-4.8,3.3-19.3-5.5-21.4-8.7-2.1-13.9,9.5-16.1,13.6-4.6,8.6-10.9,16.5-15.3,22-3.4,4.3-6.3,8.7-8.1,11.8.5,2.5,2.4,11.9,4,21.2,0,0,.1,0,.1,0l.3,2.4c.3,1.5.5,3.1.8,4.5h0l.2,1.7c.2,1.5.5,3,.7,4.3,3,1.5,6.2,2.4,9.6,2.2,6.6-.4,7.2-6.1,7.2-6.1,1.3,2.1,6.4,5.5,12.7.1,6.8-5.8,3.3-11.7,3.3-11.7,1,.3,8.7,1.8,12.1-7.2,3.6-9.7-4.9-14.1-4.9-14.1,4.7-1.1,11.8-5.2,9.5-13.9h0Z"/>
            <path class="st2" d="M125.6,75.2c.2-3.5.2-7.4-.3-11.4,0-.3,0-.5-.1-.8-.6-4-1.7-7.9-3.7-11.4,0,0,0,0,0,0-.6-1-1.2-2-2-2.9-1.6-2-3.3-3.6-5.1-5-7.9-6-16.4-5.9-19-5.9s-15.2-.2-24.1,10.9c-8.3,10.3-6.2,27.8-5.3,34.7.4,3.1,1.3,8.1,3.6,13.2,3.4,3.9,7.7,6.3,11.8,8,0-.4,0-.7.1-1,0-.4.4-.7.8-.7,4.6.2,9.2,2.3,11.2,3.3.4-.5,1.2-.7,2.2-.7,1.3,0,1.9.3,2.2,1.1,2.3-1.1,6.2-2.6,10.2-2.8.4,0,.8.3.8.7,0,0,0,.1,0,.2,4-1.6,8.3-3.9,11.9-7.6,2.4-5.2,3.4-10.5,3.8-13.7.3-2,.6-4.9.8-8.2h0ZM75.9,82.8c-4.8,0-7.4-6.4-7-14.5.4-8,3.3-14.5,7.2-14.5s6.8,6.5,6.8,14.5-3.1,14.5-7,14.4h0ZM95.6,103.5c-7.6,0-13.3-11.9-12.7-23.1.7-11.6,5.7-17.2,12.7-17.2s12.5,6.1,12.7,17.2-5.3,23.1-12.7,23.1ZM115.3,82.9c-3.9,0-7-6.5-7-14.5s3-14.5,6.8-14.5,6.7,6.5,7.2,14.5c.4,8.1-2.2,14.5-7,14.4Z"/>
            <path class="st2" d="M46.2,63.2c-2.2-4.1-7.3-15.7-16.1-13.6-8.7,2.1-9.2,16.6-5.5,21.4,0,0-8.7,1.3-10.8,9.6-2.2,8.8,4.8,12.9,9.5,13.9,0,0-8.5,4.4-4.9,14.1,3.4,9,11.1,7.5,12.1,7.2,0,0-3.5,5.9,3.3,11.7,6.3,5.4,11.4,1.9,12.7-.1,0,0,.6,5.7,7.2,6,3,.2,5.8-.5,8.5-1.7,2-11.3,6.7-32.1,7.2-34.7-1.8-3-4.7-7.4-8.1-11.7-4.4-5.5-10.7-13.4-15.3-22.1h0Z"/>
          </g>
          <g>
            <path class="st3" d="M96,134.2c21.5.4,31.8-2.4,31.9-2.4l.5,1.7c0-.7-.2-1.5-.3-2.3-.2-1.3-.4-2.8-.7-4.3l.2,1.7c-.2,0-14.8,1.8-29.5,1.8s-2,0-2.9,0c-19.3-.4-31.3-2.8-31.8-2.9l.7-3.4c.1,0,12.2,2.5,31.1,2.8,14.9.3,30.8-1.6,31.9-1.8-.2-1.5-.5-3-.8-4.5v1s-13.8,1.7-27.8,1.7-1.8,0-2.7,0c-17.7-.3-30.6-2.9-30.7-2.9l.7-3.4c.1,0,12.8,2.6,30.1,2.9,14,.2,28.6-1.4,30-1.6-1.7-9.3-3.5-18.7-4-21.2,0-.4-.1-.7-.1-.7-.2.3-.5.6-.8.8-3.6,3.7-7.9,6.1-11.9,7.6.3,1.9.9,5.7-.6,10.4-.1.3-.4.6-.8.6-1.2,0-3.1,0-10.4-2.7-1.1.3-3.1.3-3.9-.4-.1,0-.2-.2-.3-.4-5.7,3.5-8.9,3.9-10.1,3.9-.3,0-.7-.2-.8-.6-1.4-4.2-1.2-8.7-.9-11-4.1-1.6-8.3-4.1-11.8-8h0s0,0,0,.3c-.6,2.6-5.2,23.5-7.2,34.7,0,.4-.1.7-.2,1.1l.4-1.7c.1,0,13.2,2.7,33.5,3.1h0Z"/>
            <path class="st3" d="M128.5,135.2c-1.6.4-10.6,2.5-27.9,2.5-1.5,0-3.1,0-4.7,0-20.2-.4-32.9-3-34.1-3.2,0,.6-.2,1.2-.2,1.7,0,.5.2,1,.7,1.3.7.3,1.9.8,3.8,1.4,4.7,1.4,13.7,3.1,29.7,3.3,16.7-.3,25.3-2.1,29.4-3.5,1.4-.5,2.3-.9,2.8-1.2.4-.2.7-.7.6-1.2,0-.3,0-.7-.1-1.1h0Z"/>
          </g>
          <g>
            <path class="st14" d="M123.5,34.3c-.6,1.2-3,5.5-9.1,9.4,1.7,1.3,3.4,3,5.1,5,.7.9,1.4,1.9,2,2.9.4-.5.7-.9.9-1.4,4.4-8.2,1.1-15.8,1.1-15.8h0Z"/>
            <path class="st14" d="M109,104.6c0-.4-.4-.7-.8-.7-3.9.1-7.9,1.7-10.2,2.8-.3-.9-1-1.1-2.2-1.1s-1.8.3-2.2.7c-2-1-6.6-3.2-11.2-3.3-.4,0-.8.3-.8.7,0,.3,0,.6-.1,1-.2,2.3-.4,6.8.9,11,.1.3.4.6.8.6,1.2,0,4.4-.4,10.1-3.9,0,.2.2.3.3.4.8.7,2.8.7,3.9.4,7.2,2.7,9.1,2.7,10.4,2.7.3,0,.7-.2.8-.6,1.5-4.8.9-8.5.6-10.4,0,0,0-.1,0-.2ZM93,110.4c-4.2,0-11.4,0-11.6,0v-3.1c1.2,0,8.6.8,11.7,1.1,0,.6-.1,1.3-.1,2ZM109,111.4c-.1,0-6.5-.6-10.7-.8,0-.7,0-1.4,0-2.1,3.4-.1,9.9-.3,10.9-.2,0,0-.2,3.1-.2,3.1Z"/>
          </g>
          <g>
            <path class="st11" d="M75.9,82.8c3.9,0,7-6.5,7-14.4s-3-14.5-6.8-14.5-6.7,6.5-7.2,14.4c-.4,8.1,2.2,14.5,7,14.5h0Z"/>
            <path class="st11" d="M115.3,82.9c4.8,0,7.4-6.4,7-14.4-.4-8-3.3-14.5-7.2-14.5s-6.8,6.5-6.8,14.4,3.1,14.5,7,14.5Z"/>
            <path class="st11" d="M98.5,123.3c14,0,27.8-1.7,27.9-1.7v-1c-.1,0-.4-2.4-.4-2.4,0,0,0,0-.1,0-1.5.2-16,1.9-30,1.6-17.3-.3-29.9-2.8-30.1-2.9l-.7,3.4c.1,0,13,2.6,30.7,2.9.9,0,1.8,0,2.7,0h0Z"/>
            <path class="st11" d="M98,130.4c14.7,0,29.4-1.8,29.5-1.8l-.2-1.7-.2-1.7h0c-1.1.1-17,2-31.9,1.8-18.9-.3-31-2.8-31.1-2.8l-.7,3.4c.5,0,12.5,2.6,31.8,2.9,1,0,2,0,2.9,0h0Z"/>
            <path class="st11" d="M128.3,133.4l-.5-1.7c0,0-10.4,2.9-31.9,2.4-20.3-.4-33.4-3.1-33.5-3.1l-.4,1.7-.3,1.7s0,0,0,0c1.1.2,13.9,2.8,34.1,3.2,1.6,0,3.2,0,4.7,0,17.3,0,26.3-2.1,27.9-2.5.1,0,.2,0,.3,0l-.5-1.7h0Z"/>
            <path class="st11" d="M81.4,107.4v3.1c.1,0,7.4-.1,11.6,0,0-.7,0-1.3.1-2-3.1-.3-10.5-1.1-11.7-1.1Z"/>
            <path class="st11" d="M98.3,110.6c4.2.2,10.6.8,10.7.8l.2-3.1c-1.1,0-7.5.1-10.9.2,0,.7,0,1.4,0,2Z"/>
          </g>
        </g>
        <g>
          <path d="M178.2,80.4c-.6-2.2-1.5-3.9-2.7-5.2-1.8-2-3.9-3.2-5.6-3.9-.8-.3-1.5-.5-2-.7.5-.9.9-1.9,1.2-3,.4-1.5.6-3.2.6-4.9,0-2.9-.6-5.9-1.9-8.4-.6-1.3-1.5-2.4-2.5-3.3-1.1-.9-2.3-1.6-3.8-2-.8-.2-1.5-.3-2.2-.3-2,0-3.8.7-5.4,1.7-2.4,1.6-4.3,4-5.8,6.4-1.5,2.4-2.6,4.7-3.4,6.1-4.6,8.6-10.8,16.4-15.2,22-2.6,3.2-4.8,6.5-6.5,9.2,1.5-4.1,2.2-8,2.5-10.5.3-2,.6-4.8.8-8.1.8-.8,1.6-1.8,2.2-2.7,3.3-5.4,3.9-10.2,3.9-13.1s-.2-2.6-.2-2.7c0-.3-.3-.5-.5-.5-.3,0-.5,0-.7.3-.3.6-1.2,2-3,3.8,0,0,0,0,0-.1,2-3.6,2.5-7.2,2.5-10.1s-.9-6.3-.9-6.4c0-.2-.3-.4-.6-.4s-.5,0-.6.3c-.2.4-.9,1.4-2,2.6-.8.8-1.7,1.8-2.9,2.8,1.4-3,1.8-5.8,1.8-8.3,0-4.1-1.2-6.9-1.2-7,0-.2-.3-.4-.6-.4s-.5.1-.6.3c-.3.5-.8,1.5-1.8,2.8-1.3,1.8-3.4,4-6.7,6.2-2.9-2.1-5.8-3.5-8.5-4.3-4.5-1.4-8.4-1.5-10.2-1.5h-.7c-1.8,0-5.7,0-10.2,1.5s-9.7,4.2-14.1,9.7c-2.6,3.2-4.2,7-5.1,11-.9,4-1.3,8.1-1.3,11.9s.6,9.6.9,12.4c.3,2.1.8,5.2,1.8,8.5-1.5-2.2-3.3-4.7-5.2-7.2-4.4-5.5-10.6-13.4-15.2-22-.5-.9-1.2-2.3-2-3.8-1.2-2.2-2.9-4.8-5-6.8-1-1-2.2-1.9-3.5-2.5-1.3-.6-2.7-1-4.2-1s-1.5,0-2.2.3c-1.5.3-2.7,1-3.8,2-1.6,1.4-2.7,3.2-3.4,5.3s-1,4.3-1,6.5.2,3.4.6,4.9c.3,1.1.7,2.1,1.2,3-.9.2-2.3.7-3.9,1.6-1.3.7-2.6,1.7-3.8,3-1.2,1.3-2.2,3.1-2.7,5.2-.3,1.2-.4,2.3-.4,3.4,0,1.7.4,3.3,1.1,4.6,1,2,2.6,3.5,4.3,4.6,1.2.8,2.5,1.4,3.7,1.8-.5.4-1.2.9-1.8,1.6-1.5,1.6-3.1,4.2-3.1,7.6s.3,3.1.9,4.8c1.2,3.3,3.1,5.3,5,6.5,1.9,1.2,3.9,1.4,5.4,1.4s.8,0,1.2,0c-.2.7-.5,1.7-.5,2.9s.2,2.6.9,4c.7,1.4,1.8,3,3.5,4.4,2.6,2.2,5,3,7.2,3s3-.5,4.2-1.1c.6-.4,1.1-.7,1.5-1.1.2.5.5,1.2.9,1.9.5.8,1.3,1.6,2.4,2.3,1.1.6,2.5,1.1,4.2,1.2.3,0,.7,0,1,0,2.3,0,4.6-.5,6.7-1.3-.2,1.2-.4,2.4-.5,3.3,0,0,0,.2,0,.2,0,.7.4,1.4,1.1,1.7.7.3,1.7.8,3.3,1.2-.1.4-.2.8-.4,1.2-.6,1.9-1.2,3.9-1.6,5.6-.5,1.7-.8,3.1-1,3.9-.2,1-.3,1.7-.3,2.3s0,.6,0,.9c0,.4.3.8.6,1.1.3.3.6.6,1,.9.2.2.6.4,1,.6,1.5.9,4.1,2.3,6.6,3.5.7.4,1.4.7,2,1-.1.6-.2,1.1-.3,1.7,0,.4-.1.8-.2,1.2-2.3-.3-4.6-.5-7.8-.7-.6,0-1.1,0-1.7,0-1.8,0-3.7.2-5.3.6-1.7.4-3.2,1.1-4.3,2.2-1,1-1.6,2.3-1.6,3.6s.4,2.2,1.2,3c.7.7,1.7,1.3,3,1.6,0,.2.2.4.3.6.3.4.6.8,1,1.1.4.3.9.5,1.3.7h.4c0,.1,0,.1,0,.1h0s0,0,0,0h.2c.2,0,.4.1.7.1,1,0,2-.1,2.9-.5.9-.4,1.7-.9,2.5-1.3.4-.2.7-.4,1.1-.5.4-.1.9-.2,1.3-.3.9-.2,1.8-.3,2.7-.4,1.8-.2,3.7-.3,5.5-.2.9,0,1.8.1,2.6.3.8.2,1.6.5,2.4.9.8.4,1.6.8,2.6,1,.9.2,1.9.2,2.8-.2.9-.4,1.6-1.1,2-2,.2-.4.3-.9.3-1.3,0-.4,0-.9,0-1.2-.1-.9-.5-1.6-1-2.2-.5-.6-1.1-1-1.7-1.2-.1,0-.3-.1-.4-.2-.3-.5-.8-1-1.3-1.4-1.4-.9-2.7-1.3-4.3-1.4-.2,0-.4,0-.7,0,0-.3,0-.5.2-.8,0-.2.1-.4.2-.7.5,0,1.1,0,1.6,0,1.8,0,3.7,0,5.2-.1.8,0,1.5,0,2-.1.3,0,.5,0,.7,0,.2,0,.3,0,.5,0,.2,0,.3-.2.4-.3.2-.2.4-.4.6-.7.4-.5.8-1.2,1.3-1.9.7-1.1,1.4-2.4,2-3.4.2-.4.4-.7.6-1,.6.9,1.4,2.3,2.3,3.8.7,1.1,1.4,2.2,2,3.1.3.4.6.8.8,1.1.1.1.2.3.3.4,0,0,.1.1.2.1,0,0,.2,0,.3.1.2,0,.3,0,.4,0,.2,0,.3,0,.5,0,1.3,0,4-.2,6.6-.5.9,0,1.8-.2,2.7-.3,0,.1,0,.3,0,.4,0,.3,0,.5.1.8-.2,0-.4,0-.7,0-1.6.1-2.9.5-4.3,1.4-.6.4-1,.9-1.4,1.4-.1,0-.3.1-.4.2-.6.3-1.2.6-1.7,1.2-.5.6-.9,1.3-1,2.2,0,.4,0,.8,0,1.2,0,.4.1.9.3,1.3.3.8,1,1.6,1.9,2,.9.4,1.9.4,2.8.2.9-.2,1.8-.6,2.6-.9.8-.4,1.6-.7,2.4-.9.8-.2,1.7-.2,2.6-.3,1.8,0,3.7,0,5.5.3.9.1,1.8.3,2.7.4.5,0,.9.2,1.3.3.1,0,.2,0,.3,0,0,0,.2,0,.3.1.2,0,.4.2.6.3.8.5,1.6,1,2.5,1.4.9.4,1.9.6,2.9.6.3,0,.5,0,.7,0h.2s0,0,0,0h0s0,0,0,0h0s.4-.1.4-.1c.5-.1.9-.4,1.4-.7.4-.3.8-.7,1.1-1.1.1-.2.2-.4.3-.6,1.3-.3,2.3-.8,3-1.5.9-.8,1.3-1.9,1.3-3s-.6-2.6-1.6-3.6c-1.1-1.1-2.7-1.9-4.4-2.3s-3.7-.6-5.6-.6-.8,0-1.2,0c-3.2.1-5.5.4-7.8.6,0-.4,0-.8-.2-1.2,0-.4-.1-.8-.2-1.2,1-.3,2.1-.7,3.2-1.1,1.3-.5,2.5-.9,3.6-1.3.5-.2,1-.4,1.4-.6s.7-.4,1-.5h0c2.7,1.6,5.4,2.1,7.7,2.1s2.9-.2,4.1-.5c1.1-.3,2.1-.7,2.6-1.1.2-.1.3-.3.3-.6s-.1-.4-.3-.6c0,0,0,0-.1,0-.6-.4-3.2-2-6.9-4.5.6,0,1.2.1,1.8.1,2.6,0,4.9-.7,6.8-1.6.9-.4,1.8-.9,2.4-1.4.7-.5,1.2-.9,1.5-1.4.1-.2.2-.4.1-.6s-.2-.4-.4-.4l-20.9-6.9c0-.2-.1-.5-.2-.7,1.1-.4,1.9-.8,2.4-1,.6-.3,1-1,1-1.6v-.2c0-1.1-.2-2.4-.4-3.9,2.4,1.1,5.1,1.8,7.8,1.8.3,0,.6,0,1,0,1.8-.1,3.1-.6,4.2-1.2,1.6-1,2.5-2.3,3-3.4.1-.2.2-.5.3-.7.4.4.9.8,1.5,1.1,1.1.6,2.5,1.1,4.1,1.1s4.6-.8,7.2-3c1.7-1.5,2.8-3,3.5-4.4.7-1.4.9-2.8.9-4s-.2-2.2-.5-2.9c.3,0,.7,0,1.2,0,1.5,0,3.5-.3,5.4-1.4s3.8-3.2,5-6.5c.7-1.8.9-3.4.9-4.8,0-3.4-1.6-6-3.1-7.6-.6-.7-1.3-1.2-1.8-1.6,1.8-.6,3.7-1.5,5.4-3,1-.9,2-2,2.6-3.4.7-1.3,1.1-2.9,1.1-4.6s-.1-2.2-.4-3.4h0ZM131,59c0,.2,0,.4,0,.7,0,2.6-.6,7.2-3.7,12.4-.3.5-.6.9-1,1.4,0-.8,0-1.5,0-2.3,0-2.3-.1-4.6-.4-7,2.5-1.9,4.1-3.8,5.1-5.1h0ZM127.4,47.4c.6-.6,1-1.2,1.3-1.6.2,1.1.5,2.7.5,4.6,0,2.8-.5,6.1-2.3,9.5-.3.6-.8,1.2-1.3,1.8-.1-.8-.3-1.6-.5-2.4-.6-2.6-1.5-5.1-2.8-7.4,2.3-1.6,3.9-3.2,5.1-4.5h0ZM117.6,42.3c2.1-1.7,3.6-3.3,4.6-4.7.5-.6.8-1.2,1.2-1.7.3,1.1.7,2.9.7,5.1s-.5,5.7-2.2,8.8c0,.2-.2.4-.3.5-.5-.7-.9-1.4-1.5-2.1-1.4-1.8-2.9-3.2-4.5-4.5.7-.5,1.4-1,2.1-1.5ZM66.7,83.4c-.4-2.8-.9-7.2-.9-12.2s.3-7.7,1.2-11.6c.5-2,1.2-4,2-5.8,0,0,.2,0,.3,0h0s.3-.2.6-.5c.2-.2.3-.4.5-.6.2-.2.4-.5.6-.8.2-.3.5-.6.8-.9s.6-.7.9-1c.2-.2.3-.3.5-.5.2-.2.4-.3.6-.4.2-.1.4-.3.6-.4.2-.1.4-.3.6-.3.2,0,.4-.2.7-.3h.4c0-.1,0-.2,0-.2h.2c.4-.2.9-.2,1.3-.2.2,0,.4,0,.6,0,0,0,.2,0,.3,0,0,0,.2,0,.3,0,.3.1.7.3.9.5.2.2.5.4.6.7.2.2.3.4.4.6.1.2.2.3.3.4,0,0,.2.1.2.1,0,0,0,0,.1,0,.2,0,.4,0,.5-.2h0s0,0,0-.2,0-.4,0-.6c0-.2-.2-.5-.4-.8-.2-.3-.5-.6-.8-.9-.4-.3-.8-.6-1.3-.8-.1,0-.2,0-.4-.1-.1,0-.3,0-.4,0-.3,0-.6,0-.8,0-.6,0-1.1,0-1.7.2h-.2s0,0,0,0h0s0,0,0,0h0s-.4.2-.4.2c-.2,0-.5.2-.8.3-.3.1-.5.3-.8.4-.2,0-.3.2-.5.3,3.9-4.3,8.3-6.5,12.2-7.8,4.3-1.3,8-1.4,9.8-1.4h.7c1.8,0,5.5,0,9.8,1.4,3.6,1.1,7.6,3.2,11.3,6.8h-.1c0,0-.4-.2-.4-.2h-.4c0-.1,0-.2,0-.2h0s0,0,0,0h-.2c-.3-.1-.5-.2-.8-.2-.3,0-.6,0-.8,0-.1,0-.3,0-.4,0-.1,0-.3,0-.4,0-.3,0-.5.1-.8.2-.2,0-.5.2-.7.3-.2.1-.4.3-.6.4-.3.3-.6.6-.8.9-.2.3-.3.6-.4.8,0,.2,0,.5,0,.6,0,.2,0,.2,0,.2h0s0,.1,0,.1c.1.2.4.2.6,0,0,0,0,0,.1-.1,0,0,.2-.2.3-.4.1-.2.2-.4.4-.6.2-.2.4-.4.6-.6.1,0,.3-.2.4-.3.2,0,.3-.2.5-.2.2,0,.3-.1.5-.1,0,0,.2,0,.3,0h.3c.2,0,.4,0,.6,0,.2,0,.4,0,.7.1h.2s0,0,0,0h0s.3.1.3.1h.4c0,.1.3.3.3.3h.3c0,.2.2.3.3.3.2.1.4.2.6.4.2.1.3.3.5.5.2.2.3.3.5.5.6.7,1,1.4,1.4,2,.2.3.3.6.4.9.1.3.2.5.3.7.2.4.5.5.5.5h0s0,0,.1,0c.2,0,.4,0,.5-.3,0,0,0,0,0-.1.9,1.9,1.5,3.8,2,5.9.9,3.8,1.2,7.9,1.2,11.6s-.6,9.4-.9,12.2c-.4,3.1-1.4,8.3-3.7,13.4-3.3,3.4-7.2,5.6-10.9,7.1,0-.1-.2-.2-.3-.3-.2-.2-.6-.4-1-.4h0c-3.2.1-6.3,1.1-8.7,2.1-.4.2-.8.3-1.2.5-.3-.4-.7-.6-1.1-.8-.4-.1-.9-.2-1.4-.2h0c-.7,0-1.3.1-1.9.3-.2,0-.3.2-.4.2-.7-.3-1.5-.7-2.4-1.1-2.3-1-5.5-1.9-8.7-2.1h0c-.4,0-.7.1-1,.4s-.4.5-.5.9c0,0,0,0,0,.1-3.7-1.6-7.6-3.9-10.7-7.4-2.2-5-3.1-9.9-3.5-12.9h0ZM107.7,115.1h0c-.6,0-1.7-.1-3.4-.5-1.4-.3-3.3-.9-5.6-1.7,0-.1.1-.3.2-.4,0-.3.1-.6.2-1,1.7.1,3.6.2,5.2.4,1.3.1,2.6.2,3.4.3.4,0,.7,0,1,0-.2.9-.4,1.8-.7,2.8,0,0,0,.1-.2.1h0ZM98.8,107c.4-.2.9-.4,1.4-.6,2.2-.9,5.2-1.8,8-1.9h0s0,.2,0,.2c0,.7.3,1.7.3,2.9-.7,0-1.9,0-3.5,0s-3.9,0-6.3.2c0-.2,0-.3,0-.5,0,0,0-.1,0-.2h0ZM99,110.2v-.3c0-.3,0-.6,0-.9,2.4-.1,4.6-.2,6.3-.2s2.2,0,2.9,0c.2,0,.4,0,.6,0h0c0,.7,0,1.3,0,2-1.3-.1-5.9-.6-9.7-.8h0ZM97.7,109.9c0,.7,0,1.3-.1,1.8s0,.5-.1.6c0,0,0,0,0,0,0,0,0,0-.2,0-.3.1-.9.2-1.5.2s-.8,0-1.1-.1-.6-.2-.7-.3c0,0,0,0,0-.1,0-.1-.1-.3-.2-.6,0-.3,0-.6,0-.9,0-.7,0-1.6.2-2.3,0-.7.2-1.3.2-1.4,0,0,0-.1.1-.2,0-.1.3-.2.6-.3.3,0,.7-.1,1.1-.1h0c.6,0,1,0,1.2.2,0,0,.2.1.2.2s.1.2.2.4c0,0,0,.2,0,.4,0,.6.2,1.5.1,2.5h0ZM82.2,111.3c1.4,0,4.7,0,7.8,0s1.6,0,2.4,0c0,.2,0,.5,0,.7h0c-5.2,3.2-8.1,3.5-9.2,3.5h0c0,0-.1,0-.2-.1-.4-1.4-.7-2.7-.9-4.1h0ZM82,110.1c0-.7,0-1.4,0-2,1.3,0,5.3.2,10.5.9,0,.3,0,.7,0,1.1-.8,0-1.5,0-2.3,0-3.2,0-6.7,0-8,0h0ZM81.9,106.7c0-1.3.2-2.3.2-3h0c0-.1,0-.2,0-.2h0c3,.1,6,1.1,8.2,2,.8.3,1.6.7,2.2,1,0,.2-.1.6-.2,1.1-5.3-.7-9.3-.9-10.6-.9h0ZM61.7,131.2c-2.2,1-4.5,1.6-7,1.6s-.6,0-.9,0c-1.6,0-2.7-.5-3.6-1-1.3-.8-2.1-1.9-2.5-2.8-.2-.5-.3-.9-.4-1.2,0-.2,0-.3,0-.3h0c0,0,0,0,0,0h0c0-.3-.2-.5-.5-.6-.3,0-.5,0-.7.3-.3.5-1,1.2-2,1.8-.9.6-2.1.9-3.5.9s-3.9-.7-6.3-2.7c-1.6-1.4-2.6-2.7-3.2-4s-.8-2.4-.8-3.4.2-1.9.4-2.5c.1-.3.2-.5.3-.7,0,0,0-.1,0-.2h0c.1-.3.1-.6,0-.8-.2-.2-.4-.3-.7-.2-.2,0-1,.2-2.1.2s-3.1-.3-4.7-1.2c-1.7-1-3.3-2.7-4.5-5.8-.6-1.6-.9-3.1-.9-4.4,0-3,1.4-5.2,2.7-6.7.7-.7,1.4-1.3,1.9-1.7.3-.2.5-.3.6-.4,0,0,.1,0,.2,0h0c.2-.1.4-.4.4-.7,0-.3-.2-.5-.5-.6-2-.4-4.4-1.4-6.2-3.1-.9-.8-1.7-1.8-2.3-3s-.9-2.5-.9-4,.1-2,.4-3.1c.5-1.9,1.4-3.5,2.4-4.7,1.6-1.8,3.5-2.9,5.1-3.6.8-.3,1.5-.5,2-.7.2,0,.4,0,.6-.1,0,0,.1,0,.1,0h0c.2,0,.4-.2.5-.4,0-.2,0-.5,0-.6-.6-.8-1.2-2-1.5-3.3s-.6-3-.6-4.6c0-2.7.5-5.6,1.7-7.8.6-1.1,1.3-2.1,2.2-2.9.9-.8,2-1.4,3.2-1.7.7-.2,1.3-.2,1.9-.2,1.7,0,3.3.6,4.7,1.5,2.1,1.4,4,3.7,5.4,6,1.5,2.3,2.5,4.6,3.3,6,4.6,8.7,11,16.6,15.3,22.2,3,3.8,5.6,7.7,7.4,10.6.2.3.3.6.5.8-.4,1.9-1.9,8.3-3.4,15.7-1.3,6.4-2.8,13.4-3.7,18.5h0ZM69.8,156.9c-1.2-.6-2.4-1.3-3.3-1.8-.5-.3-.9-.5-1.2-.7-.3-.2-.6-.4-.8-.5-.5-.3-.8-.6-.9-.8,0-.1-.1-.2-.2-.4s0-.3,0-.6c0-.5,0-1.2.2-2.1.1-.7.5-2.1.9-3.8.6-2.1,1.3-4.6,2-6.8,2.8.8,6.8,1.6,12.5,2.2,0,.2-.2.5-.2.9,0,.4-.2.8-.3,1.3-.4,1.9-1,4.4-1.5,6.8-.2,1.2-.5,2.5-.8,3.7-.1.6-.2,1.2-.3,1.7,0,.3,0,.5-.1.8,0,.1,0,.3,0,.4,0,.1,0,.2,0,.4,0,.5,0,1,0,1.4,0,.3,0,.6,0,.9-1.6-.7-3.8-1.9-5.9-3h0ZM80.5,165.1c1.2.1,2.2.4,3.2.9h0c-.4,0-.8,0-1.1,0-.3,0-.6,0-.8,0-.4,0-.7,0-.7,0-.1,0-.2.1-.3.3,0,.2,0,.4.3.4h0s.2,0,.7.1c.2,0,.5,0,.8.1.3,0,.7.1,1.1.2.8.1,1.7.4,2.6.8.4.2.9.5,1.2.9.3.4.6.9.7,1.5,0,.3,0,.6,0,.9,0,.3-.1.6-.2.9-.2.6-.7,1-1.3,1.3-.6.2-1.3.3-2,.1-.7-.1-1.4-.5-2.2-.9s-1.7-.8-2.6-1-1.9-.3-2.8-.4c-1.9-.1-3.8,0-5.7.2-.9.1-1.9.3-2.8.4-.5,0-.9.2-1.4.3,0,0-.3,0-.4.1-.2,0-.2.1-.4.2-.2.1-.4.2-.7.4-.8.5-1.6.9-2.3,1.2-.8.3-1.6.5-2.3.4-.2,0-.4,0-.6,0h-.2s0,0,0,0h-.1s-.3-.1-.3-.1c-.3-.1-.7-.3-.9-.5-.3-.2-.5-.4-.7-.7-.2-.3-.3-.6-.3-.9-.1-.6,0-1.3.3-1.9,0-.1.2-.3.2-.4,0-.1.2-.2.3-.4s.2-.3.3-.4h0c0-.1,0-.2,0-.2h0s0,0,0,0h.2c.9-1,2.1-1.4,3.1-1.7,1.1-.3,2-.4,2.8-.5s1.4-.2,1.9-.2c.4,0,.7,0,.7,0,.1,0,.3-.1.3-.2,0-.2,0-.4-.2-.4,0,0-.2,0-.7-.1-.4,0-1.1-.1-2-.1-.8,0-1.9.1-3,.4-1.2.3-2.5.7-3.7,1.8-1,.9-2,2.3-2,4-.8-.3-1.4-.6-1.8-1-.6-.6-.9-1.3-.9-2.1s.4-1.9,1.2-2.7c.8-.9,2.2-1.5,3.7-1.9,1.5-.4,3.3-.6,5-.6s1.1,0,1.6,0c3.1.2,5.4.4,7.7.7,0,.4,0,.8,0,1.2,0,.4,0,.8.2,1.3,0,0,0,.2.2.2.2,0,.4,0,.5-.2h0c.3-.8.4-1.6.4-2.4,0-.8.2-1.6.4-2.4,0-.4.2-.8.3-1.3,0,0,0,0,0,0,1,.5,1.8.8,2.2,1,.2,0,.5.1.9.2.3,0,.7,0,1.1.1,0,.2,0,.3,0,.5-.1.7-.2,1.4-.3,2.1,0,.2,0,.4,0,.5,0,.2,0,.4,0,.5,0,.4,0,.7.2,1.1,0,0,0,.2.2.2.2,0,.4,0,.5-.2h0c.2-.4.2-.7.3-1,0-.3.1-.6.1-.9.2,0,.5,0,.7,0h0ZM107.6,161.4c-2.2.2-4.4.4-5.5.4s-.3,0-.4,0h0s0,0-.1-.1c-.2-.1-.4-.4-.6-.7-.8-1.1-2.1-3.1-3.1-4.8-1.1-1.7-1.9-3.1-2-3.3-.1-.2-.3-.3-.6-.3s-.4.1-.6.3c0,0-.1.2-.3.5-.5.9-1.5,2.7-2.5,4.3-.5.8-1,1.6-1.4,2.1-.2.3-.4.5-.5.7,0,0-.1.1-.2.1,0,0-.1,0-.2,0-.6,0-1.8.2-3.2.2s-3,.1-4.5.1-2.1,0-2.8,0c-.4,0-.8,0-1-.1-.3,0-.5,0-.6-.1-.1,0-.3-.1-.5-.2,0-.1,0-.3,0-.4,0-.3,0-.6,0-1,0-.4,0-.8,0-1.2,0-.1,0-.2,0-.4,0-.1,0-.2,0-.4,0-.2,0-.5.2-.8.1-.5.2-1.1.4-1.7.2-1.2.5-2.4.8-3.6.5-2.5,1-5,1.4-6.9,0-.5.2-.9.3-1.3s.1-.7.2-1h0c4.2.4,9.4.7,15.5.8h0c6.1-.1,11.1-.4,15.3-.8,0,0,0,.4,0,.9,0,.3,0,.6.2.9,0,.4.2.8.3,1.2.4,1.8,1,4.1,1.5,6.5.3,1.2.6,2.4.8,3.5.1.6.2,1.1.4,1.6s.2,1,.2,1.4,0,.8,0,1.2,0,.7,0,.9c0,.2,0,.3,0,.4-.1,0-.2,0-.4.1-.2,0-.5.1-.8.2-1.3.2-3.6.5-5.8.7h0ZM118.6,166.8c.2-.4.2-.8.3-1.3,0-.4,0-.8,0-1.2,2.3-.2,4.6-.5,7.7-.6.4,0,.8,0,1.2,0,1.8,0,3.6.2,5.2.6,1.6.4,3,1.1,3.8,1.9.8.8,1.2,1.8,1.2,2.7s-.3,1.5-.9,2.1c-.4.4-1,.8-1.8,1,0-1.7-1-3.1-1.9-4-1.2-1.1-2.5-1.6-3.7-1.9-1.2-.3-2.2-.4-3-.5-.8,0-1.5,0-2,0s-.7.1-.7.1c-.1,0-.2.1-.3.3,0,.2.1.4.3.4,0,0,.2,0,.7,0s1.1.1,1.9.2c.8.1,1.8.3,2.8.5,1,.3,2.2.7,3.1,1.6h.2c0,.1,0,.1,0,.1h0,0s0,0,0,0h0c.1.2.2.4.3.5s.2.2.3.4c0,.1.1.3.2.4.3.6.4,1.2.3,1.9,0,.3-.2.6-.4.9-.2.3-.4.5-.7.7-.3.2-.6.3-.9.4h-.3c0,0,0,0,0,0h0s0,0,0,0h-.2c-.2,0-.4,0-.6,0-.7,0-1.5-.1-2.3-.5-.8-.3-1.5-.8-2.3-1.3-.2-.1-.4-.2-.7-.4-.1,0-.2-.1-.4-.2-.1,0-.3-.1-.4-.1-.5-.1-.9-.2-1.4-.3-.9-.2-1.9-.4-2.8-.5-1.9-.2-3.8-.4-5.7-.3-.9,0-1.9.1-2.9.4-1,.2-1.8.6-2.7,1-.8.4-1.5.7-2.3.9-.7.1-1.5.1-2-.1-.6-.2-1-.7-1.2-1.3-.1-.3-.2-.6-.2-.9,0-.3,0-.6,0-.9,0-.5.3-1.1.7-1.4.3-.4.8-.7,1.3-.9.9-.4,1.9-.6,2.6-.8.4,0,.7-.1,1.1-.2.3,0,.6,0,.8-.1.4,0,.7-.1.7-.1h0c.1,0,.2-.1.3-.3,0-.2,0-.4-.3-.4,0,0-.2,0-.7,0-.2,0-.5,0-.8,0-.3,0-.7,0-1.1,0h0c1-.5,2-.8,3.2-.9.2,0,.5,0,.7,0,0,.3,0,.6.1.9,0,.3.1.7.3,1h0c0,.1.1.2.2.2.2,0,.4,0,.5-.2.1-.4.2-.7.2-1.1,0-.2,0-.4,0-.5,0-.2,0-.4,0-.5,0-.7-.2-1.4-.3-2.1,0-.1,0-.2,0-.4.3,0,.6,0,.9-.1.4,0,.7-.1,1-.2.7-.2,1.5-.4,2.4-.7,0,.3.1.7.2,1,.1.8.2,1.6.3,2.4,0,.8.1,1.6.4,2.4h0c0,.1,0,.2.2.2.2,0,.4,0,.5-.2h0ZM140.2,157c-.4.1-.8.3-1.3.4-1.1.3-2.3.5-3.8.5-2.1,0-4.4-.4-6.7-1.7,0-.1.2-.2.2-.4.3-.5.4-1.1.4-1.7s-.1-1.5-.2-2.5c0-.6-.3-1.5-.5-2.8,5.5,4.1,10,6.9,11.9,8.1h0ZM145.6,147.5c-.2.1-.4.3-.6.4-.9.6-2.1,1.3-3.6,1.9-1.5.5-3.1.9-4.9.9s-2.4-.2-3.6-.6c-.4-.1-.9-.3-1.3-.5-1.2-.9-2.5-1.8-3.8-2.8-.4-1.8-.9-3.8-1.3-5.7l19.2,6.3h0ZM126.8,148.4c.3,1.5.6,2.8.7,3.4.1,1,.2,1.7.2,2.3,0,.5,0,.8-.2,1.1-.2.3-.4.5-.8.8-.2.1-.4.3-.8.4-1.3.6-3.5,1.4-5.8,2.2-1.6.6-3.2,1.1-4.4,1.5h0c0-.3,0-.6.1-1s0-.8,0-1.3c0-.5-.1-1-.2-1.5,0-.5-.2-1.1-.3-1.6-.2-1.1-.5-2.3-.8-3.5-.6-2.4-1.2-4.7-1.6-6.5-.1-.4-.2-.9-.3-1.2,0-.4-.2-.7-.3-.9-.2-.3-.3-.6-.4-.7,6.2-.7,10.3-1.6,12.9-2.4.3,1.2.6,2.5.9,3.8.4,1.8.9,3.7,1.2,5.2h0ZM127.7,136.8c-1.9,1.1-9.6,4.2-31.9,4.6-22.4-.4-31-3.6-33.3-4.7-.2-.1-.3-.3-.3-.5h0c0-.6.2-1.1.2-1.7.2-1,.4-2.1.6-3.4.2-1.1.4-2.4.7-3.6.2-1.1.4-2.2.7-3.4.2-1.2.5-2.5.8-3.8.2-1.1.5-2.2.7-3.4.3-1.3.6-2.7.8-4,.9-4.3,1.8-8.4,2.5-11.3.3-1.5.6-2.7.8-3.5,0,0,0,0,0-.1,3.2,3.3,7,5.5,10.7,7.1,0,.8-.1,1.7-.1,2.8,0,2.3.2,5.2,1.1,8,.2.6.7,1,1.4,1h0c1.4,0,4.5-.5,9.8-3.7,0,0,0,0,0,0,.4.3.8.5,1.3.6s1,.2,1.4.2,1,0,1.4-.1c0,0,.1,0,.2,0,2.7,1,4.9,1.7,6.6,2.1,1.8.4,3,.6,3.7.6h0c.6,0,1.2-.4,1.4-1,.8-2.4,1-4.6,1-6.5s-.2-2.8-.3-3.8c0,0,.2,0,.2,0,3.8-1.6,7.9-3.9,11.3-7.4,0,0,0,0,0,0,.6,2.9,2.1,10.5,3.5,18.3.1.7.3,1.5.4,2.2.2,1.1.4,2.3.6,3.4.2,1.2.4,2.4.6,3.5.2,1.2.4,2.3.6,3.4.2,1.1.3,2.2.5,3.3.2,1.3.3,2.4.4,3.4,0,.3,0,.6,0,.9h0c0,.3,0,.4-.3.5h0ZM176.4,87.8c-.9,1.7-2.2,3.1-3.8,4.1-1.6,1-3.3,1.6-4.7,2-.3,0-.5.3-.5.6,0,.3.1.5.4.7h0s1.4.8,2.8,2.2c1.4,1.5,2.6,3.7,2.6,6.7s-.2,2.7-.9,4.4c-1.2,3.1-2.8,4.8-4.5,5.8-1.7,1-3.4,1.2-4.7,1.2s-1.9-.2-2.1-.2c-.3,0-.5,0-.7.2-.2.2-.2.5,0,.7h0s.8,1.4.8,3.4-.2,2.2-.8,3.4-1.6,2.6-3.2,4c-2.4,2.1-4.5,2.7-6.3,2.7s-2.6-.4-3.5-.9c-.9-.5-1.6-1.2-2-1.8-.1-.2-.4-.3-.7-.3-.3,0-.5.3-.5.6h0s-.2,1.3-1.1,2.6c-.4.6-1.1,1.3-1.9,1.8-.9.5-2,.9-3.6,1-.3,0-.6,0-.9,0-2.8,0-5.5-.8-8.1-2.1-.2-1.5-.5-3.2-.8-5-1.8-10.9-4.6-25-5.3-28.6,1.8-3,4.6-7.2,7.9-11.5,4.4-5.5,10.7-13.4,15.3-22.2.5-1,1.2-2.3,2-3.7,1.2-2.2,2.8-4.7,4.7-6.6,1-1,2-1.8,3.1-2.3,1.1-.6,2.3-.9,3.6-.9s1.2,0,1.9.2c1.3.3,2.3.9,3.2,1.7,1.4,1.2,2.4,2.8,3,4.7s1,4,1,6-.2,3.2-.6,4.6c-.4,1.4-.9,2.6-1.5,3.3-.1.2-.2.4,0,.6,0,.2.3.4.5.4h0c0,0,2.2.4,4.5,1.7,1.1.7,2.4,1.6,3.4,2.8,1,1.2,1.9,2.7,2.4,4.6.3,1.1.4,2.1.4,3.1,0,1.6-.3,2.9-.9,4h0Z"/>
          <path d="M82.2,82.2c0,5.4,1.4,10.8,3.7,15,1.2,2.1,2.6,3.8,4.2,5,1.6,1.2,3.5,2,5.4,2s3.8-.8,5.4-2.1c2.4-2,4.4-5.2,5.7-8.9,1.4-3.7,2.1-8,2.1-12.2v-.5h-.7.7c0-5.7-1.5-10.1-3.9-13.2-2.4-3.1-5.7-4.7-9.4-4.7-1.8,0-3.6.4-5.1,1.1-2.3,1.1-4.3,3.1-5.7,5.9-1.4,2.8-2.3,6.4-2.5,10.8,0,.6,0,1.2,0,1.8h0ZM83.6,80.5c.3-5.7,1.7-9.9,3.8-12.6,1.1-1.4,2.3-2.3,3.6-3,1.4-.7,2.9-1,4.6-1,3.3,0,6.2,1.4,8.4,4.2,2.2,2.8,3.6,6.9,3.6,12.4h0v.5c0,5.4-1.3,10.9-3.5,15.1-1.1,2.1-2.4,3.8-3.8,5-1.4,1.2-3,1.8-4.6,1.8-1.6,0-3.2-.6-4.6-1.7-2.2-1.7-4-4.4-5.3-7.8s-2.1-7.3-2.1-11.2,0-1.1,0-1.7h0Z"/>
          <path d="M86.2,79.8c0,.4,0,.8,0,1.2h0c0,.5,0,.9,0,1.4,0,4.2,1,8.5,2.6,11.7.8,1.6,1.8,3,3,4,1.2,1,2.5,1.6,3.9,1.6s2.8-.7,3.9-1.7c1.7-1.6,3.1-4.1,4-7,.9-2.9,1.5-6.2,1.5-9.5v-.4c0-.4,0-.9,0-1.3.1-.1.2-.2.3-.3.2-.3.4-.5.4-.7,0-.2,0-.3,0-.3,0-.2,0-.4-.1-.4s-.4,0-.5.1c0,0,0,0-.2.1-.1,0-.3.2-.5.3s-.5.3-.8.5c-.3.2-.7.3-1.2.4-.3,0-.5.1-.8.2-.3.1-.6.2-.9.4-.6.3-1.1.6-1.7.9-.6.3-1.1.5-1.7.7-.6.2-1.2.2-1.8.2h-.5c-.2,0-.3,0-.5,0-.3,0-.6,0-.9-.2-.6-.2-1.2-.4-1.7-.7-.6-.3-1.1-.6-1.7-.9-.6-.3-1.2-.5-1.7-.6-.3,0-.5-.1-.7-.2-.2,0-.4-.2-.6-.2-.3-.2-.6-.3-.8-.5-.4-.3-.7-.4-.7-.4,0-.2-.3-.2-.5-.1-.2,0-.2.3-.1.5,0,0,0,.1,0,.3,0,.2.2.4.4.7.1.1.3.3.4.4h0ZM98.6,97c-1,.9-2,1.4-3.1,1.4-1.1,0-2.1-.4-3.1-1.3s-1.9-2.1-2.7-3.6c.6-1.1,1.4-2,2.4-2.6,1-.6,2.1-1,3.3-1s2.3.3,3.2,1c.9.6,1.8,1.5,2.4,2.6-.7,1.5-1.6,2.7-2.5,3.6ZM87.4,81.1h0c0-.2,0-.4,0-.6.2,0,.5.2.7.2.5.2.9.3,1.5.6.5.2,1,.6,1.6.9.6.3,1.3.7,2,.8.4,0,.7.2,1.1.2.4,0,.8,0,1.1,0,.8,0,1.5,0,2.3-.3.7-.2,1.4-.5,2-.8.6-.3,1.1-.7,1.6-.9.2-.1.5-.2.7-.3.2,0,.5-.2.7-.2.3,0,.6-.2.8-.3,0,.2,0,.4,0,.6v.4c0,3.7-.7,7.5-1.9,10.5-.6-.9-1.4-1.7-2.3-2.2-1.2-.8-2.5-1.2-3.9-1.2s-2.8.4-4,1.2c-.9.6-1.7,1.4-2.3,2.3-.1-.3-.3-.7-.4-1-.9-2.6-1.4-5.7-1.4-8.7s0-.9,0-1.3h0Z"/>
          <path d="M72.6,82.4c1,.7,2.1,1.1,3.4,1.1s2.2-.5,3.2-1.3c1.4-1.2,2.5-3.1,3.3-5.5.1-.3.2-.7.3-1.1,0,0,0,0,0,0,.6-1.7.9-3.8.9-5.9v-1.2c0-4.1-.8-7.8-2-10.5-.6-1.4-1.4-2.5-2.3-3.3-.9-.8-2-1.3-3.1-1.3s-2.2.5-3.1,1.3c-1.4,1.2-2.4,3.2-3.2,5.5-.8,2.4-1.3,5.2-1.5,8.2,0,.6,0,1.2,0,1.8,0,3.7.6,7,1.9,9.4.6,1.2,1.4,2.2,2.4,2.9ZM77.5,70.8c-1.7,0-2.4-1.7-2.2-4.2.2-2.3,1-4,2.2-4s2,1.8,2,4.1-.8,4.1-2,4.1h0ZM69.5,70.1c0-.6,0-1.1,0-1.7.2-3.9,1-7.5,2.2-10,.6-1.2,1.3-2.2,2-2.9.7-.7,1.5-1,2.3-1s1.5.3,2.3,1c.9.8,1.8,2.2,2.5,4-.7-.5-1.5-.8-2.4-.8s-1.6.3-2.3.9c-1,.9-1.8,2.2-2.4,3.9-.6,1.7-1,3.8-1.1,6.1,0,.4,0,.7,0,1.1,0,2.7.4,5.1,1.3,6.8.4.9.9,1.6,1.6,2.2.7.5,1.4.9,2.3.9.4,0,.8,0,1.2-.2-.3.3-.6.7-.8.9-.8.7-1.5,1-2.3,1s-1.8-.3-2.6-.8c-1.2-.8-2.1-2.3-2.8-4.2-.7-1.9-1-4.3-1-7h0Z"/>
          <path d="M108.6,75.7c.3,1.2.7,2.3,1.2,3.2.7,1.4,1.5,2.5,2.4,3.3.9.8,2,1.3,3.2,1.3s2.4-.4,3.4-1.1c1.5-1.1,2.5-2.8,3.2-4.9.7-2.1,1.1-4.6,1.1-7.4s0-1.2,0-1.8c-.2-4.1-1.1-7.7-2.4-10.5-.7-1.4-1.4-2.5-2.3-3.3-.9-.8-2-1.3-3.1-1.3-1.2,0-2.2.5-3.1,1.3-1.4,1.2-2.4,3.2-3.2,5.5-.8,2.4-1.2,5.2-1.2,8.3v1.2c0,2.2.3,4.3.9,6h0ZM110.9,58.5c.6-1.2,1.3-2.2,2-2.9.7-.7,1.5-1,2.3-1s1.5.3,2.3,1c1.1,1,2.1,2.7,2.8,5,.8,2.2,1.2,5,1.4,7.9h.7s-.7,0-.7,0c0,.6,0,1.1,0,1.7,0,3.5-.6,6.6-1.8,8.8-.6,1.1-1.2,1.9-2,2.5-.8.6-1.6.8-2.6.8s-1.5-.3-2.3-1c-.3-.2-.6-.6-.8-.9.4.2.8.2,1.2.2.9,0,1.7-.3,2.3-.9,1-.8,1.7-2.1,2.2-3.6.5-1.6.7-3.4.7-5.4s0-.7,0-1.1c-.1-3.1-.8-5.7-1.7-7.7-.5-1-1.1-1.8-1.7-2.3-.7-.6-1.4-.9-2.3-.9s-1.8.3-2.4.8c.1-.4.3-.8.5-1.1h0ZM111.8,62.6c1.2,0,2,1.8,2.2,4,.2,2.5-.5,4.2-2.2,4.2s-2-1.8-2-4.1.8-4.1,2-4.1h0Z"/>
          <polygon points="60.9 136 60.9 136 60.9 136 60.9 136"/>
          <polygon points="108.2 103.2 108.2 103.2 108.2 103.2 108.2 103.2"/>
        </g>
      </g>
    </g>
  </g>
  <g id="list-type">
    <g>
      <g>
        <path class="st13" d="M65.5,186.1c-7.1,0-11.8-.2-15.2-1.6-1.2.9-2.7,1.6-4.3,1.6-3.7,0-6.9-3.3-6.9-7.1s1.9-4.6,2.6-5.2c0,0,.1-.1.2-.2-.5-.3-.9-.7-1.2-1.2-.7-.9-1.5-2.3-1.5-4.5s.7-3.8,1.9-5c-.7-.9-1.4-2.1-1.4-4,0-3.8,3.4-7.2,7.2-7.2s2.9.5,3.9,1.2c1.2-1.1,2.9-1.7,4.8-1.7s2.5.3,3.6.9c1-.6,2.2-1,3.5-1.1h.2c2.2,0,4.1.9,5.4,2.4h.2c3.6,0,6.3,2.9,6.3,6.6s-.4,2.6-1,3.7c0,.2,0,.4,0,.5,0,.5,0,.9-.1,1.4.6.9,1.3,2.2,1.3,4.2s-.7,3.6-1.9,4.8c1,1.2,1.6,2.7,1.6,4.5s-.7,4.3-2.8,5.8c0,0,0,0-.1,0-1.7,1.1-3.5,1.1-6.1,1.1h0Z"/>
        <path class="st13" d="M94.2,186.5c-1.6,0-2.9-.5-4-1.3-1.1.6-2.1.8-3.2.8s-2-.2-2.8-.6c-.6.1-1.1.2-1.5.2-3.1.4-5.6.5-6,.5-.7,0-1.3-.1-1.9-.3-.7.2-1.3.2-1.8.2-3.9,0-7.2-3-7.2-6.8s.2-1.8.5-2.6c.8-2.4.8-5,.8-9v-4.8c0-4,1.9-6.4,5.3-7.1.9-2.5,3.4-4.2,6.4-4.2s3.1.4,4.1,1.1h1.8c.2,0,.4,0,.5,0,1.1-.8,2.6-1.2,4.2-1.2s2.9.4,4,1.1h.3c2.3,0,4.1,1.1,5.5,3.1,1.6,2.4,1.8,3.9,1.8,4.8s0,.9-.1,1.3c.3.8.5,1.8.5,2.8s-.3,2.3-.7,3.2c0,.3,0,.6,0,.9,0,.6-.1,1.4-.4,2.4.9,1.1,1.5,2.4,1.5,4s-.3,2.9-.6,4.2c-1.2,6.4-5.5,7.1-7.2,7.1h0,0Z"/>
        <path class="st13" d="M111.1,186.6c-2.2,0-4.1-.8-5.4-2.2-1.8.9-3.8,1.6-5.5,1.6-3.8,0-6.7-3.1-6.7-7.2s.3-2.5.9-3.4c-.4-.9-.6-1.9-.6-2.9s0-1.2.2-1.8c-.4-.9-.6-1.9-.6-2.9,0-1.2.3-2.3.8-3.2-.4-.8-.7-1.7-.7-2.9,0-2.3,1.2-4.4,3-5.6,0-.2.2-.3.2-.5,0,0,0-.1,0-.1,1.1-2.2,3.2-3.6,5.7-3.6s2.8.4,3.9,1.2c1.2-1.1,2.8-1.6,4.6-1.6s3.1.4,4.2,1.2c.8-.5,1.9-.9,3.3-.9,3,0,5.4,1.8,6.3,4.3,1.7,1.2,2.8,3.1,2.8,5.2s0,.8,0,1.2c.4.8.7,1.7.9,2.8.2,1.4.3,2.7.3,3.8s-.2,1.7-.5,2.4c0,.4,0,.8,0,1.2,0,1-.2,1.9-.5,2.8.7,1,1,2.3,1,3.6,0,4-3,7.1-6.8,7.1s-3.6-.6-5.5-1.6c-1.2,1.4-3.2,2.3-5.4,2.3h0Z"/>
        <path class="st13" d="M129.3,185.9c-5.1,0-8.1-3-8.1-8.1v-17.6c0-5.1,3-8.1,8.1-8.1h17.8c5.1,0,8.1,3,8.1,8.1v17.6c0,5.1-3,8.1-8.1,8.1h-17.8,0Z"/>
      </g>
      <path class="st15" d="M147.1,145h-17.8c-2.2,0-4,.5-5.5,1.5-1.4-1.2-3.2-2-5.3-2s-2.4.3-3.3.7c-1.2-.6-2.7-1-4.3-1s-3.4.5-4.7,1.4c-1.1-.6-2.4-1-3.8-1s-3.7.7-5,1.9c-1.2-.7-2.5-.9-3.5-.9h0c-1.2-.7-2.7-1.1-4.3-1.1s-3.2.4-4.4,1.2h-1.8c-1.2-.7-2.6-1.1-4.4-1.1-2.8,0-5.1,1.2-6.4,3.2-1.2-.9-2.6-1.4-4.2-1.4-1.4-1.4-3.5-2.4-5.8-2.4h-.2c-1.1,0-2.3.3-3.5.9-1-.5-2.2-.7-3.5-.7-1.8,0-3.5.5-4.8,1.5-1-.6-2.3-1-3.8-1-4.4,0-8.2,3.8-8.2,8.2s.5,2.9,1.1,3.9c-1,1.3-1.7,3.1-1.7,5s.6,3.7,1.7,5.1c.2.2.3.4.5.6-.9.9-2.3,2.7-2.3,5.4,0,4.4,3.6,8.1,7.9,8.1s3.2-.6,4.4-1.4c3.5,1.3,8.2,1.5,15.1,1.5h0c1.9,0,3.4,0,4.9-.4.9.3,1.8.5,2.8.5s1.3,0,1.8-.2c.6.2,1.2.2,1.9.2s2.9-.1,6.1-.5c.3,0,.7-.1,1.2-.2.9.4,1.9.6,3,.6s2.1-.2,3.1-.7c1.1.7,2.5,1.1,4,1.1h0c.7,0,2.2-.1,3.7-.9.7.2,1.5.3,2.3.3,1.7,0,3.5-.5,5.3-1.3,1.4,1.2,3.3,2,5.6,2s4.2-.8,5.6-2.1c1.8.8,3.7,1.4,5.3,1.4s2.3-.3,3.3-.8c1.2.5,2.5.7,3.9.7h17.8c5.6,0,9.1-3.5,9.1-9.1v-17.6c0-5.7-3.4-9.1-9.1-9.1h0Z"/>
      <g class="st8">
        <g class="st8">
          <path class="st11" d="M50.7,168.3c0-.5,0-.9.4-2.1.6-2,.8-3.3,1-7.2,0-.9,0-1.7,0-2.6-.8,0-1.3,0-1.6-.6-.4.9-1.1,1.4-2,1.4s-1.1-.2-1.8-1.2c-.4-.4-1.1-1.3-1.3-1.5-.9-.8-1-.9-1-1.5,0-1.1,1.1-2.2,2.2-2.2s1.1.2,2,1.2c.6.6,1.5,1.6,1.7,2,.2-.7.6-1.1,1.3-1.1h1.7v-1.1c0-1,.7-1.5,1.9-1.5s1.9.5,1.9,1.5v1.1h.9c.8,0,1.2.4,1.4,1.3,1-1.7,1.1-1.8,1.3-2.4.5-1.3.8-1.7,1.8-1.7,1,0,2,.7,2,1.5s0,.5-.2.9h3.9c.8,0,1.3.6,1.3,1.6s-.5,1.7-1.3,1.7h-5.6c-.2.4-.4.8-.7,1.2h4.7c.8,0,1.9,0,1.9,1.4s0,1.1-2.1,3.4c0,.1,0,.2,0,.5h2c.8,0,1.3.5,1.3,1.7s-.5,1.6-1.3,1.6h-2v2.4c0,2.8-1.8,2.8-3.2,2.8s-2.5-.4-2.5-1.7.5-1.6,1-1.6.5,0,.6,0c.3,0,.5,0,.5-.9v-1h-1.7c-.8,0-1.3-.6-1.3-1.6s.5-1.7,1.3-1.7h1.7c0-.5,0-1.4,1-1.6.3-.4.4-.5.4-.6s-.6,0-.6,0h-1.5c-.7,0-1.2-.5-1.2-1.5s0-.5.1-.8c-.2,0-.2,0-.4,0-.9,0-1.8-.7-2-1.4-.2,0-.3,0-.5,0h-2.7c0,.5,0,.9,0,1.4h2c1.7,0,2.3.5,2.3,2.3s0,3.8-.3,7.7c-.2,2.1-.8,2.9-2.4,2.9-2.3,0-2.8-.4-2.8-1.5s.5-1.7,1.1-1.7.4,0,.5,0c.4,0,.4-.2.5-1.5.1-1.3.2-4.3.2-4.5,0-.4-.1-.4-1.2-.4-.2,2.8-.4,4.4-.9,6.1-.5,2-.8,2.3-1.8,2.3s-.8-.1-1.2-.4c2.2,2.4,5.6,2.4,12.4,2.4,1.4,0,3-.2,3.9-.2s1.8.6,1.8,1.7-.3,1.4-.7,1.7c-.4.3-1.2.3-3.3.3-11.1,0-13.7-.7-15.9-3.1,0,.2-2.2,3-3.6,3s-1.9-1-1.9-2.1.2-.9.9-1.5c.8-.7,1.4-1.4,2.1-2.3v-4.9c0-.4-.1-.6-.6-.6h-.9c-.9,0-1.5-.7-1.5-1.8s.5-1.8,1.5-1.8h2.8c1.8,0,2.3.5,2.3,2.3v5.9Z"/>
          <path class="st11" d="M76.8,159.4c-.5,0-.7-.3-.7-.8,0-.8.3-.8,1.5-.9v-.8h-1.1c-.5,0-.6.1-.6.6v7.2c0,3.6-.4,6-.7,7.6-.4,2.1-.9,2.9-2.1,2.9s-2.2-.8-2.2-1.8,0-.5.2-.9c1.1-3.2,1.1-6.3,1.1-10.7v-4.8c0-1.9.4-2.3,2.3-2.3h2.6v-2.6c0-.9.7-1.5,1.8-1.5s1.7.1,1.9,1.1h4c.6,0,.9.4.9,1.1s-.3,1.1-.9,1.1h-4v.7h2.9c2.3,0,2.3.6,2.3,3s-.5,1.2-1.5,1.2c-1.5,0-1.5-.9-1.5-1.3s-.1-.6-.6-.6h-1.6v.6h1.2c.5,0,.7.2.7.8s-.2.7-.8.7h-1.1c0,.8,0,1,.7,1s.7,0,.9,0c.2,0,.2,0,.4-.5,0-.4.4-.5.9-.5.8,0,1.4.5,1.4,1s-.3,1.4-.7,1.7c-.4.3-1.1.4-3,.4-4,0-4-.2-4-2.7h-.8ZM85.4,168.7c0,1.2-.4,1.7-1.7,1.7.2.1.3.3.3.5s0,.6-.2.8c.8,0,1.2.7,1.2,1.5s-.4,1.2-3,1.6c-2.9.4-5.2.5-5.3.5-.7,0-1.2-.7-1.2-1.5,0-1.4.8-1.4,2.4-1.4-.3-.8-.3-1-.3-1.2s.1-.5.4-.7c-.7,0-1.3-.3-1.3-1.6v-1.4c0-1.2.4-1.7,1.8-1.7h5.2c1.3,0,1.7.4,1.7,1.7v1.3ZM77.1,164.9c-.6,0-.9-.4-.9-1.1s.3-1.1.9-1.1h8.2c.6,0,.9.4.9,1.1s-.3,1.1-.9,1.1h-8.2ZM80.2,167.5c-.4,0-.4.1-.4.6s0,.4.4.4h1.7c.4,0,.4-.1.4-.6s0-.4-.4-.4h-1.7ZM79.7,170.3c.2.2.3.4.5.9,0,.2.1.6.2.8.3,0,.5,0,.8,0,.3-.9.5-1.4.8-1.7h-2.3ZM91.8,160.8c0,1.3.1,2.4.3,3.4.1-.3.2-.6.3-.9.4-1.6.8-2.1,1.6-2.1s2,.8,2,1.6-.4,2.5-2.7,6.1c.2.6.5,1.2.8,1.5.3-1.9.3-2.3,1.5-2.3s1.4.4,1.4,1.2-.2,1.7-.5,3.3c-.4,2.1-1.1,3-2.3,3s-1.6,0-3.5-3.3c-.7.8-1.2,1.4-1.9,2-.7.6-1.3.9-1.8.9-1,0-2-.9-2-2s.4-.9,1.5-1.8c.7-.6,1.7-1.5,2.6-2.6-.7-2.3-1.1-4.8-1.3-7.5h-.8c-.8.2-1.4-.6-1.4-1.7s.5-1.7,1.3-1.8h.8c0-.7,0-1.4,0-2.2v-3.4c0-1,.7-1.5,1.9-1.5s1.9.6,1.9,1.5v5.1l3.5-.4c.9-.1,1.6.7,1.6,1.9s-.4,1.5-1.2,1.7l-3.7.4ZM94.4,156.2c-.8,0-1-.4-1.9-2-.2-.4-.3-.8-.3-1.1,0-.7.9-1.4,1.8-1.4s.9.2,1.4.9c.6.8.9,1.6.9,2,0,.8-.9,1.5-1.9,1.5Z"/>
          <path class="st11" d="M100.6,163.3c-.2,0-.4,0-.5,0-1,0-1.6-.7-1.6-1.8s1-1.5,1.3-1.6c.4-.4.8-1,1.3-1.7-.4-.4-1.2-1.2-1.5-1.4-.9-.7-1-.9-1-1.4,0-.9.7-1.7,1.6-1.7.4-.7.9-1.5,1.2-2.4.2-.5.6-.7,1.2-.7s1.5.6,1.5,1.3-.5,1.5-1.8,3.4c.2.2.3.3.5.5.2-.2.2-.4.4-.6.8-1.4,1-1.6,1.7-1.6s1.4.6,1.4,1.3-.1.6-.4.9c-.8,1.3-2.1,3.2-2.7,3.9h1.3c0-.4-.1-.7-.1-1,0-.5.5-.9,1.2-.9s.8.3,1,1c.2.7.3,1.8.4,2.3v-6.2c0-2.1.8-2.2,2.1-2.3,0-.2.1-.4.4-1.2.2-.8.7-1.1,1.7-1.1s2.1.5,2.1,1.2-.2.8-.3,1.1c1.3,0,2.6,0,2.7,1.5.3-.3.7-.5,1.1-.5.2-.5.3-.8.5-1.2.5-1.6.7-1.8,1.5-1.8s1.6.6,1.6,1.3c0,1.1-1.2,3.3-1.4,3.6.1.2.2.3.4.5.3-.7.7-1.6,1-1.9.2-.3.5-.4.8-.4.8,0,1.7.7,1.7,1.4s-.3,1.1-1.4,3.1c-.5.8-.9,1.5-1.2,1.9l1.2-.2c0-.2-.1-.4-.1-.7,0-.5.5-.9,1.3-.9s1.1.4,1.2,1.4c.1.9.3,2.3.3,3.1s-.5,1.1-1.3,1.1-.9-.3-1-1l-3.9.5c-.3,0-.5,0-.6,0-.7,0-1.2-.4-1.4-1.1-.3,1-.9,1.2-2.3,1.2v1.1h8.8c.9,0,1.4.6,1.4,1.7s-.5,1.7-1.4,1.7h-5.4c1.9,1.4,3.4,2.2,6.1,3.1.9.3,1.2.7,1.2,1.6,0,1.2-.7,2.1-1.8,2.1-2,0-6.8-2.7-8.9-5.1v4.2c0,1-.7,1.6-2,1.6s-2-.6-2-1.6v-4.1c-2.7,2.7-6.8,5-8.8,5s-1.7-.9-1.7-2.2.3-1.2,1.2-1.5c.5-.1,1.4-.4,2.6-1,1.5-.7,2.8-1.7,3.5-2.2h-5.6c-.9,0-1.4-.6-1.4-1.7s.5-1.7,1.4-1.7h8.9v-1.1c-.9,0-1.9-.1-2.1-1.1,0,1-.5,1.4-1.3,1.4s-.8-.4-.9-1.1l-4.2.6ZM112.4,156.8c0-1.1,0-1.2-.6-1.2h-1.5c-.6,0-.6.1-.6,1.2h2.7ZM111.8,160.5c.6,0,.6-.1.6-1.2h-2.7c0,1.1,0,1.2.6,1.2h1.5ZM115.5,161c.2-.6.5-.8,1.1-.8.2-.3.5-.7,1.1-1.7-.4-.5-.9-1.2-2.2-2.6v5Z"/>
          <path class="st11" d="M126.2,154.1c0-2.4.8-3.1,3.1-3.1h17.8c2.3,0,3.1.8,3.1,3.1v17.6c0,2.3-.8,3.1-3.1,3.1h-17.8c-2.3,0-3.1-.8-3.1-3.1v-17.6ZM144.6,164.2c0,.4-.2.9-.5,1.2.7,0,1.3.7,1.3,1.2s-.1.5-.8,1.3c.9.2,1.2.6,1.2,1.4s-.6,1.6-1.5,1.6-2-.2-4.4-2v1.1c0,.7-.3,1.2-1.1,1.4h6.8c.6,0,.8-.2.8-.8v-15.3c0-.6-.2-.8-.8-.8h-6.2c.4.2.7.5.8.9h4.2c.6,0,.9.4.9,1.2s-.3,1.2-.9,1.2h-4.1v.7h4.6c.7,0,1,.5,1,1.2s-.4,1.2-1,1.2h-13.2c-.6,0-1-.4-1-1.2s.4-1.2,1-1.2h4.7v-.7h-4c-.6,0-1-.4-1-1.2s.4-1.2,1-1.2h4c.1-.5.4-.7.8-.9h-6.2c-.6,0-.8.2-.8.8v15.3c0,.6.2.8.8.8h6.2c-.8-.2-1.1-.7-1.1-1.4v-1.6c-1.2,1.2-3.1,2.4-4,2.4s-1.4-.8-1.4-1.8.3-1.1,1.1-1.4c1.1-.4,2-.9,2.8-1.7h-1c-1.4,0-1.8-.4-1.8-1.8v-.8c0-1.4.4-1.8,1.8-1.8h9.3c1.4,0,1.8.4,1.8,1.8v.8ZM135.7,163.3c-.3,0-.3.2-.3.5s.1.3.3.3h5.1c.3,0,.3-.2.3-.5s-.1-.3-.3-.3h-5.1ZM140.5,166c.5.4.8.7,1.3.9.4-.3.8-.6,1.1-1-.3,0-.4,0-.5,0h-1.8Z"/>
        </g>
      </g>
    </g>
  </g>
</svg>