<?xml version="1.0" encoding="UTF-8"?>
<svg xmlns="http://www.w3.org/2000/svg" xmlns:xlink="http://www.w3.org/1999/xlink" viewBox="0 0 195 195">
  <defs>
    <style>
      .cls-1 {
        fill: none;
      }

      .cls-2 {
        fill: #55b779;
      }

      .cls-3 {
        fill: #f2a19b;
      }

      .cls-4 {
        fill: #008ac7;
      }

      .cls-5 {
        fill: #ffe800;
      }

      .cls-6 {
        fill: #61605f;
      }

      .cls-7 {
        opacity: .3;
      }

      .cls-7, .cls-8 {
        fill: #fff;
      }

      .cls-9 {
        fill: #e3002c;
      }

      .cls-10 {
        fill: #f2a8c8;
      }

      .cls-11 {
        fill: #e5003b;
      }

      .cls-12 {
        clip-path: url(#clippath-1);
      }

      .cls-13 {
        clip-path: url(#clippath-2);
      }

      .cls-14 {
        fill: #231815;
      }

      .cls-15 {
        fill: #a42f8b;
      }

      .cls-16 {
        fill: #00479c;
      }

      .cls-17 {
        fill: #e95753;
      }

      .cls-18 {
        fill: #4aaf64;
      }

      .cls-19 {
        fill: #f5ab18;
      }

      .cls-20 {
        fill: #75cc92;
      }

      .cls-21 {
        clip-path: url(#clippath);
      }
    </style>
    <clipPath id="clippath">
      <path class="cls-1" d="M21.98-124.67c0,21.91,2.42,44.41,16.78,58.77,14.36,14.36,36.86,16.79,58.77,16.8,21.91,0,44.41-2.42,58.77-16.78,14.36-14.36,16.79-36.86,16.8-58.77,0-21.91-2.42-44.41-16.78-58.77-14.36-14.36-36.86-16.79-58.77-16.8-21.91,0-44.41,2.42-58.77,16.78-14.36,14.36-16.79,36.86-16.8,58.77Z"/>
    </clipPath>
    <clipPath id="clippath-1">
      <path class="cls-1" d="M22.69,85.28c0,21.91,2.42,44.41,16.78,58.77,14.36,14.36,36.86,16.79,58.77,16.8s44.41-2.42,58.77-16.78c14.36-14.36,16.79-36.86,16.8-58.77,0-21.91-2.42-44.41-16.78-58.77s-36.86-16.79-58.77-16.8c-21.91,0-44.41,2.42-58.77,16.78-14.36,14.36-16.79,36.86-16.8,58.77Z"/>
    </clipPath>
    <clipPath id="clippath-2">
      <path class="cls-1" d="M14.32,85.36c0,21.91,2.71,44.41,18.76,58.77,16.05,14.36,41.21,16.79,65.7,16.8,24.49,0,49.65-2.42,65.7-16.78s18.77-36.86,18.77-58.77c0-21.91-2.71-44.41-18.76-58.77-16.05-14.36-41.21-16.79-65.7-16.8-24.49,0-49.65,2.42-65.7,16.78-16.05,14.36-18.77,36.86-18.77,58.77Z"/>
    </clipPath>
  </defs>
  <g id="list-pic">
    <g class="cls-21">
      <g>
        <path class="cls-15" d="M86.03-.39c-2.8-3.24-7.27-5.1-10.43-4.55-1.34.24-2.45.9-3.09,2.09-.34.63-.72,1.21-1.14,1.77-.24.12-.47.24-.7.38-2.76,1.84-3.07,3.38-4.3,4.3,0,0,0,0,0,0-1.06.77-2.11,1.48-3.08,2.15-.8.56-1.5,1.6-2.01,2.86,4.89-1.01,11.35,1.41,15.53,6.98,9.07.27,13.71-4.85,19.43-5.72.22-4.04.13-9.96-.99-13.33-.03-.01-.06-.02-.08-.03-2.17-.87-6.1.07-9.13,3.1M83.95,6.31c-1.89,1.18-4.49-3.31-2.13-4.73,2.31-1.39,5.58,2.57,2.13,4.73"/>
        <path class="cls-10" d="M81.82,1.58c-2.36,1.42.24,5.91,2.13,4.73,3.45-2.15.18-6.11-2.13-4.73"/>
        <path class="cls-15" d="M108.76-.38c-3.07-3.07-7.07-4-9.22-3.08,0,.02,0,.04-.01.06-1.11,3.37-1.2,9.25-.98,13.27,5.72.87,10.36,6,19.43,5.72,4.18-5.57,10.63-7.98,15.53-6.97-.51-1.26-1.21-2.3-2.01-2.86-.96-.68-2.02-1.38-3.08-2.15,0,0,0,0,0,0-1.23-.92-1.53-2.46-4.3-4.3-.23-.14-.47-.26-.7-.38-.42-.56-.81-1.14-1.14-1.77-.66-1.22-1.81-1.89-3.2-2.11-3.15-.49-7.55,1.37-10.32,4.57M112.97,1.23c2.36,1.42-.24,5.91-2.13,4.73-3.45-2.16-.18-6.11,2.13-4.73"/>
        <path class="cls-10" d="M110.84,5.96c1.89,1.18,4.49-3.31,2.13-4.73-2.31-1.38-5.58,2.57-2.13,4.73"/>
        <path class="cls-8" d="M61.28,8.61c-1.46,3.58-1.39,8.94,2.31,10.05,9.22,2.77,21.2.92,26.73-2.15,5.53-3.07,5.53-1.54,5.84-5.53.03-.35.05-.73.07-1.11-5.71.87-10.36,5.99-19.43,5.72-4.18-5.57-10.63-7.99-15.52-6.98"/>
        <path class="cls-8" d="M117.98,15.59c-9.07.27-13.71-4.86-19.43-5.72.02.39.05.76.07,1.11.31,3.99.31,2.46,5.84,5.53,5.53,3.07,17.51,4.92,26.73,2.15,3.7-1.11,3.77-6.47,2.31-10.05-4.89-1.01-11.35,1.4-15.53,6.97"/>
        <path class="cls-14" d="M151.92-94.88c-5.5,0-12.73,4.19-15.91,12.19-.97,2.44-1.87,5.15-2.82,8.01-3.57-8.8-8.57-17.21-15.76-22.95-.12-.47-.34-.95-.71-1.38-.08-.09-.18-.19-.29-.29,6.8-2.04,12.08-4.91,16.34-7.57.56-.35,2.06-1.29,1.72-2.48-.2-.68-.91-1.04-1.69-1.24.03-.02.06-.04.07-.05.29-.2.55-.39.78-.57.45-.35.74-.61.74-.61.66-.57,1.3-1.15,1.89-1.9.07-.1.15-.2.22-.31.04-.06.07-.11.11-.18.05-.09.1-.19.13-.28.17-.39.12-.82-.09-1.18-.19-.36-.62-.64-.88-.74-.29-.12-.56-.16-.82-.19,0,0-.46-.06-1.06-.01-.01,0-.03,0-.04,0,.69-1.05,1.25-2.14,1.76-3.26,1.16-2.6,1.97-5.32,2.55-8.08.58-2.76.93-5.56,1.05-8.37.13-2.81.03-5.64-.32-8.43-.18-1.43-.42-2.86-.73-4.27.35-.86.58-1.59.63-1.75.18-.51.33-1,.46-1.42.25-.84.39-1.42.39-1.42.66-2.6,1.12-5.24,1.47-7.89.35-2.65.57-5.31.71-7.97.13-2.66.17-5.33.1-7.99-.08-2.67-.24-5.34-.65-8-.22-1.34-.46-2.67-.97-4.02-.13-.34-.29-.68-.51-1.02-.11-.17-.26-.37-.41-.5-.14-.15-.29-.28-.45-.4-.64-.49-1.38-.78-2.1-.93-1.46-.31-2.88-.19-4.24.03-1.36.23-2.67.59-3.96,1.02-2.56.86-5.01,1.98-7.38,3.23-2.37,1.26-4.65,2.66-6.84,4.21,0,0-.49.34-1.19.87-.35.27-.75.58-1.17.93-.17.14-1.23.95-2.16,1.89-4.1-1.12-8.47-1.77-12.99-1.85-5.28,0-9.9.58-13.95,1.59-.87-.83-1.76-1.52-1.91-1.64-.41-.35-.82-.66-1.16-.93-.7-.53-1.19-.87-1.19-.87-2.19-1.55-4.47-2.95-6.84-4.21-2.37-1.25-4.81-2.37-7.38-3.24-1.28-.43-2.59-.79-3.96-1.02-1.36-.22-2.77-.34-4.23-.03-.73.15-1.47.44-2.11.93-.16.12-.31.25-.45.4-.14.13-.3.34-.4.5-.22.35-.38.69-.51,1.02-.51,1.35-.76,2.68-.97,4.02-.4,2.67-.57,5.34-.65,8-.07,2.67-.03,5.33.1,7.99.13,2.66.36,5.32.71,7.97.35,2.65.81,5.29,1.47,7.89,0,0,.14.58.39,1.43.13.42.28.91.46,1.42.05.15.28.89.63,1.75-.31,1.41-.55,2.83-.73,4.26-.35,2.8-.44,5.62-.32,8.43.12,2.81.47,5.62,1.05,8.38.59,2.76,1.39,5.48,2.55,8.08.5,1.12,1.07,2.21,1.76,3.26-.01,0-.03,0-.04,0-.6-.05-1.06.01-1.06.01-.26.03-.52.08-.82.19-.27.1-.7.38-.88.74-.22.35-.27.79-.1,1.18.04.1.09.19.13.28.04.07.07.12.11.18.07.11.15.21.22.31.59.75,1.23,1.33,1.89,1.9,0,0,.29.26.74.6.23.17.49.37.77.57.02,0,.04.03.07.05-.78.2-1.5.56-1.7,1.24-.34,1.2,1.15,2.13,1.72,2.48,5.05,3.16,10.92,6.44,19.11,8.44-.17.14-.33.29-.47.47-.58.77-.73,1.78-.42,2.84.02.09.07.16.12.24-11.77,10.66-18.2,31.62-21.4,42.04-.64,2.08-1.14,3.73-1.5,4.63-.25.63-.37,1.6.42,2.69.19.25.41.5.67.73,0,0-.01.02-.01.03-.29.51-.54,1.02-.74,1.45-.39.88-.58,1.51-.58,1.51-.93,2.78-1.23,5.77-.81,8.69.21,1.46.61,2.9,1.27,4.25.65,1.35,1.58,2.61,2.78,3.57.59.47,1.23.9,1.95,1.22.72.32,1.56.56,2.49.42.25-.04.5-.11.73-.22.48.09,1.04.15,1.71.15.15,0,.32,0,.48,0,1.62-.05,2.3-.81,2.59-1.44.15-.32.22-.68.23-1.05.31-.18.58-.41.8-.71.56-.77.79-1.39.72-1.99,1.21-1.77.54-2.79-1.33-4.61.08-.38.16-.77.24-1.15.27-1.4.58-2.77.79-4.24,0,0,.08-.49.13-1.26.29.02.52.03.68.02.48-.03.86-.3,1.57-1.87-.34,5.61-.59,11.65-.35,13.74.07.6.42,1.26,2.88,1.85-.16,4.53-.18,9.87-.19,14.32,0,2.56,0,4.89-.04,6.56-1.34.38-2.39,1.17-3.01,2.34-.29.54-.63,1.04-.98,1.53-.2.11-.41.22-.61.35-1.81,1.21-2.63,2.29-3.29,3.16-.37.49-.66.87-1.05,1.16-.69.5-1.38.98-2.05,1.45-.34.23-.67.46-1,.69-1.13.79-1.87,2.17-2.28,3.19h0c-.97,2.39-1.41,5.91-.21,8.43.64,1.33,1.68,2.25,3.01,2.65,3.07.92,6.54,1.39,10.31,1.39h0c6.39,0,13.07-1.41,17.01-3.6,1.54-.86,2.65-1.35,3.45-1.71,2.36-1.05,2.54-1.34,2.78-4.43.03-.35.05-.74.07-1.13.24-4.36.1-10.22-1.03-13.61-.01-.03-.04-.06-.06-.09-.12-2.99-.08-8.39-.04-13.62.02-2.79.04-5.5.03-7.73.11,0,.22-.02.32-.02.39-.04.66-.23.84-.73.15.72.4.89.87.91.1,0,.31.01.62.02.02,2.2.07,4.83.12,7.54.1,5.4.2,10.98.1,13.9-1.08,3.41-1.22,9.15-.98,13.44.02.39.04.78.07,1.13.24,3.1.42,3.39,2.78,4.44.8.36,1.91.85,3.45,1.71,3.94,2.19,10.61,3.6,17.01,3.61,3.78,0,7.25-.47,10.32-1.39,1.33-.4,2.38-1.32,3.01-2.64,1.2-2.52.76-6.04-.21-8.43h0c-.42-1.02-1.15-2.4-2.28-3.2-.32-.23-.66-.46-1-.69-.67-.46-1.36-.94-2.06-1.45h0c-.39-.29-.68-.68-1.05-1.16-.66-.87-1.48-1.95-3.31-3.18-.19-.12-.39-.23-.59-.33-.35-.49-.69-.99-.98-1.53-.65-1.2-1.73-2.01-3.13-2.37-.06-1.68-.09-4.12-.13-6.8-.06-4.07-.12-8.88-.3-13.13,1.85-.45,2.32-1.05,2.41-1.66.33-1.52.38-6.32.28-11.45,1.06-.58,2.06-1.22,3.01-1.91.14.11.39.19.74.25-.04.71-.03,1.17-.03,1.17,0,1.48.13,2.88.2,4.31.02.34.04.69.07,1.04-2.3,1.68-3.16,2.59-2.02,4.72.01.02.03.03.03.05-.05.52.1,1.1.49,1.82.19.35.45.64.77.87-.04.37-.02.74.08,1.08.2.66.77,1.51,2.36,1.78.71.12,1.31.18,1.85.18.14,0,.25-.02.38-.02.21.12.44.2.66.27.91.23,1.75.09,2.51-.12.76-.23,1.44-.54,2.1-.92,1.34-.77,2.45-1.87,3.3-3.12.85-1.24,1.46-2.63,1.86-4.05.81-2.85.88-5.86.31-8.74,0,0-.11-.64-.39-1.57-.11-.34-.24-.73-.4-1.12,1.31-.9,1.44-1.88,1.31-2.57-.81-4.03-1.81-9.04-3.21-14.44,1.06-2.81,1.96-5.59,2.79-8.18.92-2.85,1.78-5.55,2.72-7.83,1.58-3.86,4.48-5.29,7.3-6.67,3.31-1.63,6.73-3.31,6.18-9.07-.2-2.15-2.17-3.48-5.14-3.48M150.2-83.71c-2.92,1.44-6.24,3.07-8.04,7.46-.96,2.34-1.83,5.06-2.76,7.95-.63,1.97-1.29,4.02-2.02,6.08-.93-3.34-2.01-6.79-3.31-10.22.08-.25.16-.49.24-.74,1.06-3.22,2.06-6.26,3.12-8.95,2.89-7.29,9.61-11.22,14.48-11.22.8,0,3.43.15,3.61,2.09.45,4.7-1.98,5.89-5.33,7.54M139.39-44.12c-2.36,2.05-11.81,2.72-13.35,2.38-.58-.91-2.05-5.7-3.2-9.52.1-.31.14-.63.12-.96,0-.03,0-.06-.02-.09-.45-2.14-.85-8-1.24-13.67-.88-12.8-1.22-15.51-2.02-16.12-.04-.03-.08-.04-.12-.06-.04-.57-.16-2.35-.44-3.8-.08-.43-.17-.78-.27-1.09-.11-.29-.2-.48-.29-.64-.18-.3-.34-.39-.47-.36-.14.03-.25.17-.3.52-.02.17-.03.41-.02.68,0,.26,0,.61.02,1.04.02.54.06,1.12.1,1.67-.25-.47-.49-1.01-.72-1.65-.98-2.76-1.51-6.98.07-10.02,14.86,12.55,19.82,37.36,22.53,50.9.02.1.08.38-.39.79M134.51-25.41c-.56.32-1.17.6-1.76.77-.59.17-1.19.24-1.66.11-.46-.13-.75-.41-.87-.86-.09-.32-.07-.69.04-1.07.17-.03.33-.07.49-.14.5-.21.87-.58,1.13-.94.48-.68.7-1.38.87-2.07l.51-.48c.28-.27.58-.58.87-.96.29-.38.58-.83.69-1.4.13-.61-.08-1.18-.31-1.47-.21-.26-.36-.39-.5-.51-.28-.22-.46-.24-.58-.17-.12.07-.18.25-.11.59.03.16.12.41.2.64.05.2.06.36-.03.59-.07.2-.23.44-.43.68,0-.32.01-.65,0-.99.02-.3-.01-2.42-.38-4.05-.38-1.73-.74-2.12-1.01-2.09-.3.04-.46.57-.34,2.27.11,1.6.23,3.59.21,3.87,0,.55-.03,1.07-.08,1.51-.07.88-.21,1.44-.21,1.44-.14.63-.34,1.25-.65,1.67-.15.21-.32.35-.48.42-.16.06-.32.08-.56.02-.48-.1-.79-.38-1.05-.89-.25-.51-.42-1.16-.53-1.82-.23-1.33-.32-2.74-.41-4.15-.07-1.41-.19-2.85-.2-4.21,0,0,0-.41.03-1.04.13,0,.25,0,.38,0,3.09,0,7.98-.65,10.82-1.8.1.29.19.58.26.84.25.85.35,1.44.35,1.44.52,2.64.45,5.42-.28,7.99-.72,2.56-2.2,4.96-4.43,6.24M126.93-25.66c-.12-.41.04-1.08.53-1.95.13.17.28.34.46.5.22.19.48.34.75.46-.12.53-.13,1.11.02,1.68,0,.03.02.06.03.09-.21-.02-.43-.06-.67-.09-.64-.11-1.02-.34-1.12-.68M125.9-28.02c-.37-.7-.43-.96.65-1.84.04.18.08.36.13.54-.3.43-.57.86-.79,1.3M126.26-31.63c-.43.32-.81.62-1.12.91.07-.3.39-.63,1.09-1.18.01.09.02.18.03.27M120.31-27.48c-.17.19-1.58,1.22-11.96,1.21-4.14,0-8.03-.16-9.69-.23-.05,0-.1,0-.15,0-.1-.82-.17-2.61-.22-3.88-.17-4.49-.2-5.18-1.16-5.18-.05,0-.1,0-.14.01-.83.15-.85.8-.98,4.39-.05,1.41-.14,3.68-.32,4.49-.66.04-1.66.07-2.88.07-8.88,0-18.06-.94-19.1-1.95-.25-2.58.19-11.1.63-17.33.08.03.15.07.23.1.17.05.22.06.33.09.19.05.37.09.56.12.37.07.73.13,1.09.18,2.86.39,5.68.57,8.52.75,2.83.17,5.67.28,8.5.37,2.83.08,5.67.12,8.51.12,2.84,0,5.68-.04,8.52-.18,1.42-.07,2.85-.15,4.27-.29,1.43-.14,2.85-.3,4.31-.67.37-.1.74-.21,1.12-.38,0,0,.01,0,.02,0,.31,6.7.46,15.83-.01,18.2M118.17-12.35c.04,2.62.07,4.9.12,6.56-.09,0-.16-.01-.25-.01-3.12,0-6.77,1.71-9.31,4.33-2.17-1.92-4.9-3.09-7.3-3.09-.39,0-.75.03-1.09.09.05-3.12-.04-8.12-.13-12.98-.05-2.68-.09-5.28-.11-7.45,2,.07,5.06.17,8.28.17,4.5,0,7.51-.18,9.52-.48.17,4.17.23,8.87.29,12.86M126.24,2.28c-4.28-.69-8.01.72-13.07,5.05-.26.22-.59.33-.97.33-.96,0-1.98-.66-2.46-1.58.21.19.43.37.69.53.33.21.69.31,1.07.31,1.44,0,2.64-1.49,3.02-2.89.41-1.48-.02-2.78-1.17-3.46-.15-.09-.3-.16-.45-.21,1.74-1.2,3.74-1.88,5.76-1.88,1.75,0,3.45.5,5.03,1.46,1.29.86,2,1.63,2.54,2.33M110.17,3.17c.23-.8,1.02-1.46,1.76-1.46.23,0,.44.06.64.18.71.43.6,1.27.48,1.74-.28,1.01-1.05,1.76-1.54,1.76-.09,0-.17-.02-.26-.08-.92-.58-1.3-1.34-1.07-2.14M118.67-3.05c-3.23,0-6.44,1.49-8.79,4.02-.32.26-.59.59-.81.95-1.63,2.13-1.15,3.92-.72,4.8.72,1.46,2.3,2.47,3.85,2.47.76,0,1.44-.24,1.98-.7,4.01-3.44,6.94-4.84,10.09-4.84,1.21,0,2.46.22,3.81.66.68.5,1.36.96,1.99,1.4.34.23.67.46.99.68.39.27.77.71,1.11,1.27-.31-.02-.61-.03-.93-.03-4.98,0-10.18,2.75-13.65,7.2-.11,0-.21,0-.31,0h0c-5,0-8.67-1.74-11.9-3.28-2.05-.98-4-1.9-6.09-2.33-.17-3.84-.04-9,.88-12.09.37-.11.79-.16,1.25-.16,1.75,0,4.45.84,6.8,3.19.15.15.36.23.57.22.21,0,.41-.1.55-.26,2.24-2.58,5.81-4.39,8.69-4.39,1.13,0,2.61.3,3.44,1.6-.92-.25-1.86-.38-2.81-.38M133.04,16.1c-.45.94-1.15,1.56-2.07,1.84-2.93.88-6.25,1.32-9.87,1.32-6.15,0-12.53-1.34-16.26-3.41-1.61-.89-2.74-1.4-3.57-1.77q-1.68-.75-1.87-3.15s0-.07,0-.1c1.77.43,3.51,1.25,5.34,2.12,3.38,1.61,7.21,3.43,12.56,3.43h0c.24,0,.48,0,.72-.01.23,0,.45-.12.59-.31,3.19-4.25,8.04-6.89,12.65-6.89.58,0,1.15.06,1.7.15.85,2.36.9,5.1.1,6.78M95.5,9.22c-2.09.42-4.04,1.35-6.09,2.33-3.3,1.57-7.04,3.34-12.21,3.28-3.47-4.45-8.67-7.21-13.65-7.21-.31,0-.62.01-.93.03.35-.56.73-1,1.12-1.27.32-.22.65-.45.99-.68.64-.44,1.31-.9,1.99-1.4,1.35-.44,2.6-.66,3.81-.66,3.15,0,6.08,1.4,10.09,4.85.53.46,1.22.7,1.98.7,1.55,0,3.14-1.02,3.85-2.47.43-.88.91-2.67-.73-4.81-2.39-3.11-5.98-4.96-9.59-4.97-.95,0-1.89.13-2.81.38.83-1.3,2.31-1.6,3.44-1.6,2.88,0,6.45,1.81,8.69,4.39.14.16.34.26.55.26.21,0,.42-.07.57-.22,2.35-2.35,5.06-3.19,6.8-3.19.46,0,.89.06,1.25.16.91,3.09,1.05,8.25.87,12.09M93.53,14.07c-.83.37-1.97.88-3.57,1.77-3.73,2.07-10.11,3.41-16.26,3.41h0c-3.62,0-6.95-.45-9.87-1.32-.92-.28-1.62-.89-2.07-1.84-.81-1.69-.75-4.42.1-6.78.55-.09,1.11-.15,1.69-.15,4.61,0,9.46,2.64,12.65,6.9.14.19.36.3.59.31.24,0,.48.01.72.01,5.35,0,9.18-1.82,12.56-3.43,1.83-.87,3.56-1.69,5.34-2.12,0,.03,0,.07,0,.11q-.19,2.4-1.87,3.15M68.55,2.27c.55-.69,1.25-1.46,2.52-2.31,1.61-.98,3.31-1.48,5.06-1.48,2.15,0,4.29.76,6.1,2.12-.28.06-.54.17-.79.32-1.14.69-1.58,1.98-1.17,3.46.39,1.4,1.58,2.89,3.02,2.89.37,0,.71-.1,1.04-.29-.5.42-1.13.68-1.73.68-.39,0-.72-.11-.98-.33-4.26-3.65-7.58-5.21-11.09-5.21-.65,0-1.3.05-1.97.16M84.61,3.51c.23.8-.15,1.56-1.07,2.14-.09.06-.17.08-.26.08-.5,0-1.26-.75-1.54-1.76-.13-.46-.24-1.31.48-1.73.2-.12.41-.18.64-.18.74,0,1.53.65,1.76,1.46M94.34-17.42c-.03,4.83-.06,9.81.02,12.93-.31-.05-.64-.08-.99-.08-2.4,0-5.14,1.17-7.3,3.09-2.55-2.61-6.19-4.33-9.31-4.33-.13,0-.24.02-.37.02.03-1.64.03-3.83.04-6.32,0-4.36.02-9.57.17-14.02,1.01.17,2.25.33,3.79.48,4.34.42,9.41.58,12.42.58.57,0,1.09,0,1.55-.01,0,2.21-.01,4.89-.03,7.66M67.29-25.81c-.15.33-.55.5-1.21.52-.15,0-.3,0-.43,0-.1,0-.19,0-.28,0,0-.02.02-.04.03-.07.22-.54.29-1.1.24-1.64.27-.08.54-.19.77-.34.23-.15.43-.32.6-.51.38.95.45,1.65.27,2.04M68-29.47c.06-.13.11-.26.16-.39.9.96.86,1.24.46,1.81-.16-.47-.38-.95-.62-1.42M68.69-31.57s.02-.09.03-.13c.35.37.57.65.68.87-.21-.23-.45-.48-.71-.74M67.84-34.98c-.28,1.38-.57,2.77-.98,4.05-.2.64-.45,1.25-.77,1.73-.33.47-.68.71-1.16.74-.24.02-.4-.02-.55-.11-.15-.09-.29-.25-.41-.48-.24-.46-.37-1.1-.42-1.74,0,0-.05-.57,0-1.46.01-.44.06-.96.12-1.51.02-.28.41-2.23.74-3.8.35-1.67.25-2.22-.03-2.29-.28-.08-.69.26-1.29,1.93-.59,1.56-.9,3.66-.93,3.95-.05.34-.09.67-.12.98-.16-.27-.29-.53-.34-.73-.05-.24-.03-.4.05-.59.11-.21.24-.44.29-.6.12-.33.09-.51-.03-.6-.11-.09-.29-.09-.59.09-.16.1-.32.2-.57.43-.27.25-.56.79-.52,1.41.03.57.26,1.06.48,1.47.24.42.49.77.73,1.08.17.21.31.39.45.56.07.7.2,1.43.58,2.16.21.4.53.8.99,1.09.15.09.32.16.49.21.05.37.02.74-.11,1.04-.18.43-.51.69-.98.77-.47.08-1.05-.05-1.6-.31-.56-.25-1.1-.61-1.61-1.01-2-1.6-3.1-4.2-3.48-6.83-.38-2.65-.1-5.41.74-7.96,0,0,.18-.57.53-1.38.15-.36.34-.77.55-1.19,2.92,1.83,7.72,3.03,10.64,3.5-.05.75-.13,1.25-.13,1.25-.19,1.34-.51,2.75-.77,4.14M57.43-46.42c-.41-.56-.34-.94-.23-1.21.37-.96.89-2.63,1.54-4.75,3.14-10.26,9.46-30.84,20.83-41.24.57,2.75.04,5.91-.75,8.16-.44,1.23-.94,2.15-1.39,2.75.07-.75.15-1.67.19-2.48.02-.42.03-.77.04-1.04,0-.27,0-.51-.02-.68-.04-.35-.15-.49-.29-.52-.14-.03-.29.06-.48.36-.09.15-.19.35-.3.63-.11.3-.19.65-.28,1.08-.32,1.62-.45,3.66-.48,3.95l-.67,1.02c-.5,1.87-.41,5.95-1.3,15.14-.52,5.34-1.01,10.38-1.44,12.4,0,.03,0,.06-.01.1-.07.77.23,1.49.81,2.11-.09.97-.19,2.17-.29,3.52-.91,2.52-1.8,4.81-2.25,5.46-2.2-.05-11.27-2.09-13.22-4.75M78.56-100.24c-7.36-1.98-12.75-5.01-17.43-7.93-.59-.37-.85-.63-.97-.76.33-.16,1.14-.34,2.11-.34.07,0,.13-.01.2-.03.19.07.37.12.53.14.19.02.32.02.44,0,.23-.04.34-.14.39-.27.05-.13.04-.28-.11-.46-.07-.09-.18-.19-.31-.29-.11-.1-.26-.21-.46-.35l-1.85-1.3-.7-.57-.69-.57c-.61-.53-1.22-1.1-1.67-1.67-.05-.07-.11-.14-.15-.21l-.05-.09.07-.04c.1-.04.25-.07.41-.09,0,0,.29-.04.79-.01.25,0,.55.03.87.07.13.01.93.19,1.74.32.01,0,.03.01.04.01.11.02.23.04.34.05.04,0,.08.01.12.02,1.01.13,1.36-.04,1.43-.31,0,0,0,0,0,0,.25-.12.48-.25.68-.42.98-.8,1.47-1.86,1.83-2.88l.12-.39c.06-.21.13-.47.19-.7.12-.48.21-.97.11-1.26-.07-.11-.1-.23-.19-.33-.05-.06-.12-.12-.2-.17l-.11-.06c-.06-.03-.14-.05-.28-.07-.14,0-.35,0-.64.22-.21.19-.39.32-.58.39-.02.01-.04.02-.08.03h-.01s-.02,0-.03,0c-.02,0-.03,0-.05,0-.06,0-.11-.01-.18-.05-.15-.08-.35-.29-.52-.55-.31-.48-.56-1.1-.76-1.72-.21-.62-.37-1.28-.52-1.94-.3-1.32-.52-2.67-.7-4.03-.18-1.36-.36-2.73-.42-4.07-.06-1.35-.03-2.7.11-4.05.26-2.69.91-5.34,1.89-7.86.99-2.52,2.32-4.9,3.95-7.06,1.63-2.15,3.57-4.08,5.75-5.66,1.78-1.3,3.73-2.36,5.79-3.16l-.61,1.08-.85,1.47c-.79,1.33-1.61,2.65-2.47,3.92-.44.63-.88,1.26-1.35,1.85-.27.32-.34.46-1.01,1.11-.16.14-.33.27-.55.42-.12.07-.17.14-.22.21l-.08.11s-.03.06-.04.09c-.11.25-.08.36-.07.43,0,.04.01.11.07.25.05.11.1.17.16.24.12.13.31.24.6.3.29.06.66.06,1.04.05.19,0,.38-.02.58-.03l.45-.04c.8-.08,1.59-.19,2.37-.31,1.57-.25,3.12-.57,4.65-.95,0,0,.68-.16,1.68-.45.5-.15,1.07-.32,1.68-.53.05-.02.16-.05.32-.1l-.51.58-2.78,3.17c-.46.53-.92,1.07-1.36,1.62l-.25.32c-.07-.04-.11-.07-.11-.07-1.22-.72-2.54-1.33-4.01-1.61,0,0-.32-.07-.81-.11-.25-.02-.53-.02-.83,0-.14,0-1.27,0-2.05.4-.42.2-.63.4-.74.56-.11.17-.11.31-.05.44.05.13.15.24.34.29.2.05.47.04.84-.01.7-.11,1.56-.2,1.68-.2.24.01.47.02.67.05.4.04.66.1.66.1,1.2.23,2.37.75,3.47,1.41l-.07.1c-.09.15-.19.29-.26.44-.15.29-.22.58-.17.8,0,.06.02.12.04.18l.02.05s.03.03.04.04l.05.09c.05.12.15.19.25.26.21.14.54.21.87.24.17.02.34.02.52.02h.2s.14,0,.14,0c.56-.02,1.11-.07,1.65-.14.38.13.6.07.73-.09,0,0,0,0,0,0,1.35-.19,2.68-.46,3.99-.78,2.73-.69,5.41-1.62,7.95-2.89l-.2.23c-.96,1.1-1.94,2.19-2.9,3.33-.24.29-.48.58-.71.88-.07.09-.35.46-.53.75-.18.3-.32.61-.33.86-.01.13,0,.24.04.36.01.06.04.12.09.18l.03.04s.01.03.02.05l.06.07c.16.16.38.29.71.32.32.04.69.01,1.05-.02l.37-.04.29-.04c3.02-.51,5.83-1.56,8.52-2.86,2.69-1.31,5.22-2.94,7.53-4.84,2.31-1.9,4.38-4.09,6.16-6.49,0,0,.4-.53.95-1.34.27-.41.57-.89.88-1.41.11-.18.71-1.13,1.26-2.23.53.33,1.05.67,1.55,1.04,2.18,1.58,4.12,3.51,5.75,5.66,1.63,2.15,2.96,4.54,3.95,7.06.99,2.52,1.63,5.17,1.89,7.86.13,1.34.17,2.7.11,4.05-.06,1.34-.24,2.7-.42,4.07-.19,1.36-.41,2.71-.71,4.03-.15.66-.32,1.31-.53,1.94-.2.62-.45,1.23-.76,1.72-.15.24-.33.44-.48.53-.15.08-.2.09-.36.05-.15-.04-.38-.19-.59-.38l-.02-.02-.06-.05s-.08-.05-.13-.08c-.14-.09-.45-.12-.62-.06-.4.15-.47.34-.57.5-.18.41-.05.69-.06.72l.11.54c.17.71.38,1.43.71,2.13.33.69.77,1.39,1.45,1.93.2.16.43.3.68.42,0,0,0,0,0,0,.07.27.42.44,1.43.31.03,0,.07-.01.1-.02.12,0,.24-.02.36-.05.02,0,.03-.01.05-.02.81-.13,1.6-.31,1.73-.32.32-.03.61-.06.87-.07.5-.02.79.01.79.01.16.02.31.05.41.09l.08.04h0s-.05.09-.05.09c-.04.07-.09.14-.15.21-.45.57-1.06,1.14-1.67,1.67l-.69.57-.71.57-1.84,1.3c-.19.14-.35.26-.46.35-.13.1-.24.2-.31.29-.14.18-.16.33-.11.46.05.13.16.23.39.27.12.02.25.02.44,0,.16-.02.34-.08.53-.14.06.02.13.03.19.03.97,0,1.79.18,2.12.34-.11.14-.38.39-.97.76-4.29,2.68-9.65,5.58-16.61,7.59-5.27,1.52-11.46,2.52-18.8,2.52-7.15,0-13.01-.85-17.98-2.18M71.28-172.79c-2.4,1.5-4.64,3.27-6.63,5.29-.69.71-1.34,1.45-1.97,2.22-1.46-4.9-2.62-13.35-1.34-15.52.19-.32.33-.32.4-.32.02,0,.05,0,.07,0,3.74.5,8.27,4.17,10.83,7.53h-.02c-.81.46-1.34.8-1.34.8M57.49-152.55c.83-2.59,1.94-5.09,3.32-7.43,1.38-2.34,3.04-4.51,4.94-6.44,1.9-1.93,4.04-3.63,6.35-5.06,0,0,.51-.32,1.28-.77.39-.22.83-.48,1.32-.74.24-.14,2.02-.97,3.44-1.65,1.5-.73,1.87-1.12,1.76-1.39-.1-.25-.61-.37-2.26.14-1.55.48-3.36,1.43-3.61,1.57-2.46-3.31-7.32-7.71-12.01-8.33-.09-.01-.19-.02-.27-.02-.5,0-1.2.18-1.72,1.07-1.73,2.93-.17,12.8,1.52,17.75-.73.99-1.42,2.01-2.05,3.07-1.44,2.44-2.59,5.05-3.46,7.74-.15.46-.28.93-.41,1.4-.11-.35-.21-.69-.29-.99l-.37-1.38c-.64-2.53-1.09-5.11-1.43-7.71-.34-2.6-.56-5.22-.7-7.84-.13-2.62-.17-5.25-.1-7.88.08-2.62.24-5.25.63-7.81.2-1.27.45-2.56.88-3.69.11-.28.23-.54.37-.75.08-.11.12-.18.22-.27.09-.1.19-.18.29-.26.41-.31.93-.53,1.5-.65,1.14-.24,2.41-.16,3.65.05,1.25.21,2.5.55,3.72.96,2.45.83,4.84,1.92,7.14,3.14,2.31,1.23,4.54,2.6,6.68,4.1l1.16.84,1.15.87c.21.16,1.64,1.38,2.76,2.34,1.18,1.03,1.67,1.23,1.87,1.03.17-.17.15-.59-.61-1.58,3.74-.87,7.96-1.37,12.75-1.36,4.13.07,8.13.63,11.89,1.6-.59.82-.6,1.19-.44,1.35.21.2.7,0,1.87-1.03,1.12-.97,2.55-2.18,2.76-2.34l1.16-.86,1.16-.84c2.13-1.5,4.37-2.87,6.67-4.1,2.31-1.22,4.69-2.31,7.14-3.13,1.23-.41,2.47-.75,3.72-.96,1.24-.2,2.52-.29,3.66-.05.57.12,1.08.34,1.5.65.1.08.2.16.29.26.1.09.14.15.22.27.14.21.26.47.37.75.43,1.13.68,2.42.88,3.69.39,2.56.55,5.19.63,7.81.07,2.62.03,5.25-.1,7.87-.13,2.62-.36,5.24-.7,7.84-.34,2.6-.8,5.18-1.44,7.71l-.37,1.38c-.08.3-.18.64-.29,1-.13-.47-.26-.94-.41-1.4-.87-2.69-2.01-5.3-3.46-7.74-.62-1.06-1.32-2.08-2.05-3.08,1.69-4.95,3.25-14.82,1.53-17.75-.52-.89-1.22-1.07-1.72-1.07-.09,0-.18,0-.27.02-4.69.62-9.55,5.02-12.01,8.33-.26-.14-2.07-1.09-3.61-1.57-1.65-.51-2.16-.4-2.26-.15-.11.26.26.66,1.76,1.39,1.41.68,3.2,1.51,3.44,1.65.48.26.93.51,1.32.74.77.45,1.28.77,1.28.77,2.31,1.43,4.45,3.13,6.35,5.07,1.9,1.94,3.56,4.1,4.93,6.44,1.38,2.34,2.48,4.84,3.32,7.43.83,2.59,1.41,5.27,1.74,7.98.33,2.71.43,5.45.31,8.18-.12,2.73-.46,5.45-1.02,8.12-.57,2.67-1.35,5.3-2.45,7.77-.55,1.23-1.19,2.43-1.94,3.5-.3.41-.76.72-1.22.81-.47.09-.92-.04-1.33-.36-.68-.55-1.13-1.5-1.43-2.52.48.11,1.08,0,1.46-.27.44-.29.71-.64.93-.98.44-.69.7-1.38.93-2.07.23-.69.41-1.39.56-2.08.31-1.39.54-2.77.73-4.16.18-1.38.37-2.77.43-4.21.06-1.42.03-2.85-.11-4.27-.28-2.83-.95-5.62-1.99-8.27-1.04-2.65-2.44-5.15-4.15-7.42-1.72-2.27-3.76-4.3-6.07-5.98-.59-.43-1.19-.83-1.82-1.21,0-.02.02-.04.02-.06.65-1.71.57-2.25.32-2.36-.26-.12-.69.25-1.53,1.79-.8,1.45-1.81,3.26-1.97,3.5-.31.49-.61.94-.88,1.33-.53.77-.91,1.28-.91,1.28-1.71,2.3-3.69,4.4-5.91,6.22-2.21,1.83-4.64,3.39-7.22,4.65-2.57,1.24-5.32,2.25-8.08,2.72l-.43.06.1-.14c.21-.28.44-.55.67-.83.92-1.11,1.9-2.2,2.87-3.3l1.06-1.22c.31-.37.67-.8,1.04-1.26.18-.24,1.63-1.82,2.45-3.42.21-.43.36-.82.42-1.19.04-.33.04-.54.03-.73-.03-.36-.13-.52-.26-.55-.14-.03-.3.05-.5.35-.1.14-.21.38-.32.62-.11.2-.28.48-.52.82-.35.5-.77,1.06-1.16,1.56-.59.46-1.07.8-1.19.88-.46.29-.9.56-1.29.78-.77.44-1.32.71-1.31.71-2.43,1.23-5.05,2.15-7.71,2.81-1.33.33-2.68.6-4.04.79-.67.09-1.35.16-2.01.18h-.19s.34-.45.34-.45l.64-.8c.44-.53.89-1.06,1.34-1.59l2.76-3.15,1.02-1.15,1.01-1.19c.18-.22,1.57-1.7,2.49-3.05.5-.72.74-1.25.83-1.57.1-.34.05-.51-.06-.59-.11-.08-.29-.07-.58.13-.29.21-.66.58-1.24,1.19-.71.76-1.51,1.69-2.04,2.3-1.32.51-2.62.96-2.85,1.03-.59.18-1.15.34-1.64.47l-1.64.43c-1.5.37-3.01.68-4.53.92-.76.12-1.52.23-2.27.3l-.14.02c.05-.06.36-.42.55-.66.51-.63.97-1.28,1.42-1.94.9-1.31,1.73-2.65,2.53-4.01,0,0,.36-.6.86-1.5.25-.46.53-.98.82-1.54.15-.28,1.28-2.27,1.89-4,.34-.93.43-1.57.44-1.94.01-.39-.08-.55-.21-.6-.13-.05-.3.03-.53.34-.24.32-.5.85-.93,1.67l-1.15,2.24-.15.04c-2.72.88-5.29,2.2-7.6,3.87-2.31,1.68-4.35,3.71-6.07,5.97-1.72,2.27-3.12,4.78-4.15,7.42-1.04,2.65-1.72,5.44-1.99,8.27-.14,1.42-.18,2.84-.11,4.27.06,1.44.25,2.82.43,4.21.19,1.39.41,2.78.73,4.16.16.69.34,1.38.56,2.08.23.69.49,1.39.93,2.07.25.37.55.77,1.08,1.07.26.14.59.24.92.23.08,0,.16,0,.24-.02.04,0,.08-.01.12-.02h.04s-.11.34-.11.34c-.29.87-.73,1.69-1.32,2.16-.41.32-.87.45-1.33.36-.46-.08-.92-.39-1.22-.81-.74-1.07-1.39-2.27-1.93-3.5-1.1-2.47-1.88-5.1-2.45-7.77-.56-2.67-.9-5.39-1.02-8.12-.12-2.73-.02-5.47.31-8.18.33-2.71.91-5.39,1.74-7.98M127.99-120.27s0-.03,0,0M128.46-167.49c-1.99-2.02-4.23-3.8-6.63-5.29,0,0-.53-.34-1.34-.79,0,0-.01,0-.02,0,2.56-3.35,7.09-7.02,10.84-7.52.02,0,.05,0,.07,0,.07,0,.21,0,.39.32,1.28,2.18.13,10.62-1.34,15.52-.63-.76-1.28-1.51-1.97-2.22M126.91-119.83h0s0,0,0,0h0ZM115.73-85.28c.38,1.09,1.42,3.61,2.97,4.4.53,1.34,1.07,9.21,1.47,15,.4,5.94.79,11.55,1.26,13.83.04.99-1.65,2.01-3.8,2.28-2.79.35-8.68,1.01-11.01,1.01-1.43,0-2.43-.12-2.98-.72-.47-.51-.66-1.43-.55-2.75.3-3.89.64-32.25.31-34.87-.12-.93.28-1.78.85-2.59.24.07.49.11.76.11.17,0,.34-.02.52-.04,1.19-.2,3.97-1.81,7.77-4.06.67-.4,1.33-.79,1.91-1.13-.94,3.17-.42,6.85.53,9.55M110.53-45.86c-2.81.13-5.63.17-8.45.17-2.82,0-5.64-.04-8.47-.13-2.82-.08-5.64-.2-8.45-.36-2.81-.17-5.64-.36-8.39-.74-.34-.05-.68-.1-1.01-.17-.16-.03-.33-.06-.48-.1l-.18-.05v-.3s.02-1.04.02-1.04c0-.27.02-.54.03-.81.69.28,1.49.49,2.36.59l1.27.16c2.65.34,6.65.86,8.78.86,2.63,0,4.82-.38,5.07-5.03.11-2.17.31-6.97.53-12.53.36-8.95.81-20.09,1-21.61.17-1.34-.33-2.49-.99-3.48.26-.23.49-.51.65-.82.14-.28.23-.58.28-.89,1.38.14,2.77.22,4.16.22,1.49,0,2.94-.08,4.36-.24-.02.48.07.93.27,1.32.03.06.07.12.11.19-.74,1.05-1.32,2.27-1.14,3.71.31,2.46-.03,30.88-.32,34.56-.14,1.79.18,3.07.96,3.91,1.04,1.12,2.66,1.21,4.11,1.21,2.4,0,8.37-.67,11.2-1.02.81-.1,1.55-.28,2.2-.53v.66s0,.51,0,.51l-.02.36s0,0-.02.01c-.06.05-.18.11-.3.17-.26.12-.57.21-.88.3-1.29.33-2.68.49-4.07.63-1.39.13-2.79.22-4.2.29M77.33-80.57c1.52-.78,2.55-3.29,2.93-4.38.84-2.37,1.39-5.69.85-8.69.22.1.44.21.68.32,4.02,1.89,7.44,3.46,8.73,3.68.17.03.35.04.53.04.26,0,.51-.04.76-.1.56.81.95,1.65.84,2.58-.2,1.58-.63,12.29-1.01,21.73-.22,5.56-.42,10.36-.53,12.52-.18,3.42-1.28,3.57-3.53,3.57-2.04,0-5.98-.51-8.59-.85l-1.27-.16c-2.15-.27-3.84-1.29-3.81-2.28.45-2.14.94-7.18,1.46-12.52.58-5.99,1.38-14.14,1.97-15.47M93.42-94.54c-.55-.77-1.63-1.51-3.22-2.22,2,.15,4.11.23,6.34.23,3.71,0,7.13-.25,10.3-.69-1.61,1.03-2.88,2.08-3.31,2.68-.19.26-.34.53-.47.79-1.55.2-3.16.3-4.8.3h0c-1.47,0-2.93-.09-4.38-.25-.12-.29-.27-.57-.47-.85M116-97.03c-.71.36-1.86,1.04-3.49,2.01-2.48,1.47-6.24,3.7-7.24,3.87-.09.01-.18.02-.26.02-.25,0-.57-.07-.74-.39-.2-.39-.17-1.15.53-2.12.76-1.06,5.51-4.32,8.79-4.84.21-.03.41-.05.59-.05.61,0,1.09.18,1.4.54.25.28.38.64.42.96M121.65-49.66s.04-.04.06-.05c.02.05.03.1.05.15-.03.04-.06.08-.09.11,0-.07-.01-.14-.02-.21M82.44-97.56c7.22,1.67,9.19,3.17,9.73,3.92.45.63.55,1.21.3,1.71-.28.55-1,.89-1.69.78-1.18-.2-5.65-2.3-8.33-3.56-1.06-.5-1.94-.91-2.5-1.16-.07-.46.02-.85.25-1.15.41-.54,1.29-.76,2.25-.54M121.79-47.26c.17-.18.34-.37.5-.55.93,3.02,1.56,4.9,2.03,6.01-.72.53-1.47,1.02-2.26,1.48-.06-2.42-.15-4.84-.26-6.94"/>
      </g>
    </g>
    <g>
      <path class="cls-18" d="M22.92,96.69c0,21.91,2.42,44.41,16.78,58.77,14.36,14.36,36.86,16.79,58.77,16.8,21.91,0,44.41-2.42,58.77-16.78,14.36-14.36,16.79-36.86,16.8-58.77,0-21.91-2.42-44.41-16.78-58.77-14.36-14.36-36.86-16.79-58.77-16.8-21.91,0-44.41,2.42-58.77,16.78-14.36,14.36-16.79,36.86-16.8,58.77Z"/>
      <path class="cls-20" d="M22.55,85.36c0,21.91,2.42,44.41,16.78,58.77,14.36,14.36,36.86,16.79,58.77,16.8s44.41-2.42,58.77-16.78c14.36-14.36,16.79-36.86,16.8-58.77s-2.42-44.41-16.78-58.77c-14.36-14.36-36.86-16.79-58.77-16.8-21.91,0-44.41,2.42-58.77,16.78-14.36,14.36-16.79,36.86-16.8,58.77Z"/>
      <circle class="cls-8" cx="99.1" cy="98.57" r="59.56"/>
      <g class="cls-12">
        <path class="cls-7" d="M107.11,16.07c-.2,1.55-.74,2.85-1.67,3.91-1.2,1.36-2.54,2.59-3.84,3.86-.26.25-.57.46-.89.62-1.38.73-2.76,1.44-4.15,2.14-.67.34-1.37.48-2.14.27-.48-.36-.56-.95-.77-1.47-.29-.72-.54-1.46-.87-2.17-.37-.81-.65-1.63-.8-2.51-.25-1.54-.53-3.07-.77-4.61-.07-.45-.04-.92-.06-1.42,1.09-.54,2.2-.73,3.34-.8,1.98-.13,3.94.04,5.89.41,1.43.27,2.86.56,4.28.87.56.12,1.11.28,1.65.45.24.08.45.25.78.44Z"/>
        <path class="cls-7" d="M43.76,68.02c-.33-1.53-.26-2.94.27-4.24.67-1.68,1.53-3.29,2.33-4.92.16-.32.39-.62.63-.89,1.06-1.14,2.12-2.28,3.2-3.41.51-.54,1.13-.91,1.93-.97.57.18.84.71,1.22,1.13.52.58,1,1.2,1.54,1.76.62.63,1.16,1.32,1.59,2.1.75,1.37,1.53,2.72,2.27,4.09.22.4.35.86.53,1.31-.85.87-1.83,1.42-2.88,1.87-1.82.78-3.73,1.28-5.69,1.58-1.44.22-2.88.42-4.32.61-.57.07-1.14.11-1.71.13-.25,0-.5-.08-.89-.15Z"/>
        <path class="cls-7" d="M153.49,90.47c.48-1.36,1.22-2.43,2.26-3.21,1.34-1,2.79-1.85,4.21-2.74.28-.18.6-.3.92-.39,1.38-.39,2.77-.76,4.16-1.13.66-.17,1.33-.17,1.98.17.37.41.32.97.41,1.48.12.71.2,1.43.36,2.12.18.8.27,1.6.23,2.42-.07,1.44-.11,2.87-.2,4.31-.02.42-.14.84-.22,1.29-1.09.28-2.13.23-3.17.08-1.81-.27-3.55-.8-5.24-1.51-1.24-.52-2.47-1.06-3.69-1.61-.48-.22-.95-.46-1.4-.73-.2-.12-.36-.31-.62-.55Z"/>
        <path class="cls-7" d="M41.95,137.52c.2-1.55.74-2.85,1.67-3.91,1.2-1.36,2.54-2.59,3.84-3.86.26-.25.57-.46.89-.62,1.38-.73,2.76-1.44,4.15-2.14.67-.34,1.37-.48,2.14-.27.48.36.56.95.77,1.47.29.72.54,1.46.87,2.17.37.81.65,1.63.8,2.51.25,1.54.53,3.07.77,4.61.07.45.04.92.06,1.42-1.09.54-2.2.73-3.34.8-1.98.13-3.94-.04-5.89-.41-1.43-.27-2.86-.56-4.28-.87-.56-.12-1.11-.28-1.65-.45-.24-.08-.45-.25-.78-.44Z"/>
        <path class="cls-7" d="M74.29,22.57c.33,1.53.26,2.94-.27,4.24-.67,1.68-1.53,3.29-2.33,4.92-.16.32-.39.62-.63.89-1.06,1.14-2.12,2.28-3.2,3.41-.51.54-1.13.91-1.93.97-.57-.18-.84-.71-1.22-1.13-.52-.58-1-1.2-1.54-1.76-.62-.63-1.16-1.32-1.59-2.1-.75-1.37-1.53-2.72-2.27-4.09-.22-.4-.35-.86-.53-1.31.85-.87,1.83-1.42,2.88-1.87,1.82-.78,3.73-1.28,5.69-1.58,1.44-.22,2.88-.42,4.32-.61.57-.07,1.14-.11,1.71-.13.25,0,.5.08.89.15Z"/>
        <path class="cls-7" d="M138.96,137.91c.94-.6,1.9-.91,2.91-.88,1.3.03,2.59.2,3.88.33.26.03.51.1.75.2,1.03.42,2.06.85,3.08,1.29.49.21.89.53,1.13,1.05.03.43-.27.74-.45,1.1-.26.49-.56.97-.79,1.47-.27.58-.6,1.11-1.01,1.59-.73.84-1.44,1.7-2.18,2.54-.22.25-.49.45-.75.68-.8-.35-1.41-.87-1.98-1.47-.98-1.03-1.79-2.18-2.48-3.42-.51-.91-1-1.82-1.49-2.74-.19-.36-.36-.73-.51-1.11-.07-.17-.07-.36-.12-.63Z"/>
        <path class="cls-7" d="M126.3,69.48c-.88-1.29-1.34-2.63-1.35-4.03,0-1.81.18-3.63.3-5.44.03-.36.13-.72.25-1.06.55-1.46,1.11-2.91,1.68-4.36.27-.69.7-1.27,1.42-1.63.6-.05,1.05.34,1.55.59.7.35,1.37.74,2.09,1.05.81.35,1.57.79,2.26,1.35,1.21.98,2.44,1.94,3.64,2.94.35.29.64.66.99,1.02-.46,1.13-1.16,2.01-1.97,2.82-1.4,1.41-2.98,2.59-4.68,3.61-1.25.75-2.51,1.47-3.77,2.19-.5.28-1.01.53-1.53.76-.23.1-.5.11-.88.19Z"/>
        <path class="cls-7" d="M142.29,22.57c.33,1.53.26,2.94-.27,4.24-.67,1.68-1.53,3.29-2.33,4.92-.16.32-.39.62-.63.89-1.06,1.14-2.12,2.28-3.2,3.41-.51.54-1.13.91-1.93.97-.57-.18-.84-.71-1.22-1.13-.52-.58-1-1.2-1.54-1.76-.62-.63-1.16-1.32-1.59-2.1-.75-1.37-1.53-2.72-2.27-4.09-.22-.4-.35-.86-.53-1.31.85-.87,1.83-1.42,2.88-1.87,1.82-.78,3.73-1.28,5.69-1.58,1.44-.22,2.88-.42,4.32-.61.57-.07,1.14-.11,1.71-.13.25,0,.5.08.89.15Z"/>
        <path class="cls-7" d="M147.85,50.27c-1.1-1.11-1.8-2.33-2.07-3.71-.34-1.78-.49-3.6-.7-5.4-.04-.36,0-.73.05-1.09.27-1.53.56-3.07.85-4.59.14-.73.46-1.37,1.09-1.86.58-.16,1.09.14,1.63.29.75.21,1.49.47,2.24.65.87.2,1.69.48,2.47.91,1.37.74,2.75,1.46,4.12,2.22.4.22.75.53,1.16.82-.24,1.19-.77,2.19-1.41,3.13-1.11,1.65-2.45,3.09-3.93,4.4-1.09.96-2.19,1.91-3.31,2.85-.44.37-.9.71-1.37,1.03-.21.14-.47.2-.83.35Z"/>
        <path class="cls-7" d="M155.63,62.31c1.17-.34,2.28-.36,3.32-.02,1.35.43,2.65,1.01,3.96,1.55.26.11.51.27.73.44.95.76,1.89,1.53,2.83,2.31.45.37.77.83.86,1.45-.11.46-.51.7-.81,1.01-.43.43-.88.84-1.29,1.3-.46.52-.97.98-1.55,1.35-1.02.66-2.04,1.34-3.07,1.99-.3.19-.65.32-1,.48-.73-.61-1.21-1.35-1.62-2.15-.71-1.38-1.2-2.84-1.54-4.35-.25-1.11-.49-2.22-.71-3.34-.09-.44-.15-.88-.19-1.32-.02-.2.04-.4.07-.7Z"/>
        <path class="cls-7" d="M163.65,127.92c-1.55.21-2.95.02-4.21-.61-1.62-.81-3.16-1.79-4.72-2.72-.31-.18-.59-.44-.83-.7-1.06-1.15-2.1-2.3-3.13-3.47-.5-.56-.81-1.2-.82-2,.22-.56.78-.78,1.22-1.12.62-.47,1.28-.9,1.87-1.39.68-.57,1.41-1.05,2.22-1.41,1.42-.64,2.83-1.3,4.26-1.93.42-.18.88-.28,1.35-.42.8.91,1.27,1.94,1.63,3.03.63,1.88.97,3.82,1.12,5.8.11,1.45.19,2.9.26,4.36.03.57.02,1.14-.01,1.71-.01.25-.12.5-.22.87Z"/>
        <path class="cls-7" d="M52.07,40.63c-.2,1.55-.74,2.85-1.67,3.91-1.2,1.36-2.54,2.59-3.84,3.86-.26.25-.57.46-.89.62-1.38.73-2.76,1.44-4.15,2.14-.67.34-1.37.48-2.14.27-.48-.36-.56-.95-.77-1.47-.29-.72-.54-1.46-.87-2.17-.37-.81-.65-1.63-.8-2.51-.25-1.54-.53-3.07-.77-4.61-.07-.45-.04-.92-.06-1.42,1.09-.54,2.2-.73,3.34-.8,1.98-.13,3.94.04,5.89.41,1.43.27,2.86.56,4.28.87.56.12,1.11.28,1.65.45.24.08.45.25.78.44Z"/>
        <path class="cls-7" d="M28.47,73.29c1.46-.56,2.86-.71,4.23-.4,1.77.4,3.49,1,5.23,1.53.34.11.67.29.97.49,1.3.86,2.58,1.74,3.86,2.63.61.42,1.07.97,1.26,1.75-.08.59-.57.94-.93,1.38-.5.6-1.03,1.17-1.49,1.8-.53.71-1.12,1.35-1.82,1.89-1.23.96-2.45,1.93-3.69,2.88-.37.28-.79.48-1.22.73-.99-.7-1.69-1.59-2.3-2.56-1.06-1.68-1.84-3.49-2.45-5.37-.44-1.39-.87-2.78-1.28-4.17-.16-.55-.29-1.11-.39-1.67-.05-.25,0-.51.01-.9Z"/>
        <path class="cls-7" d="M33.04,117.73c-.88-1.29-1.35-2.62-1.36-4.03-.01-1.81.17-3.63.3-5.44.02-.36.12-.72.25-1.06.55-1.46,1.11-2.91,1.68-4.36.27-.69.7-1.27,1.42-1.63.6-.05,1.05.34,1.55.59.7.35,1.38.74,2.09,1.04.82.35,1.57.78,2.26,1.34,1.21.98,2.44,1.94,3.64,2.93.35.29.64.66.99,1.02-.45,1.13-1.16,2.01-1.96,2.82-1.39,1.42-2.97,2.59-4.67,3.61-1.25.75-2.51,1.48-3.77,2.2-.5.28-1.01.53-1.53.76-.23.1-.5.11-.88.2Z"/>
      </g>
      <g class="cls-13">
        <g>
          <path class="cls-4" d="M135.33,157.25c-.13.11-.3.22-.49.33,6.92,7.88,12.33,9.12,20.56,5.12-4.02-2.52-8.86-5.22-12.78-7.39-2.47-1.37-4.59-2.54-5.9-3.32-.22,2.72-.66,4.65-1.4,5.26"/>
          <path class="cls-2" d="M136.54,61.6c-.06-.37-.13-.73-.2-1.09-.78-3.91-2.06-7.51-3.88-10.67-.12-.2-.23-.4-.35-.6-1.78-2.92-4.04-5.44-6.83-7.48-5.02-3.66-11.75-5.75-20.48-5.66-31.59.37-32.53,34.05-28.63,55.06-6.37-10.48-16.21-22.93-21.3-34.84-3.87-9.05-9.76-18.98-18.22-15.64-8.47,3.34-8.81,17.95-5.38,22.39-11.15.65-21.18,19.52-2.58,25-11.68,4.4-6.88,26.15,6.75,22.61-7.32,10.01,10.24,21.64,16.07,13.57.97,6.48,9.55,10.02,17.45,6.19,1.97-9.69,6.05-26.08,8.05-33.94.07-.14.14-.27.2-.41.05.2.1.4.14.6,1.06,3.75,5.29,7.06,10.01,9.38,2.2.97,5.12,1.53,8.48,2.22-3.8-6.31-4.08-20.27-4.26-28.38-.7.14-1.22,2.53-1.58,1.53-1.86-5.16.53-14.18,4.22-17.1,5.96-4.72,15.37-3.59,19.28,5.05,1.58,3.5,1.86,7.91,1.65,12.86l-.06-.03c0,2.66-.26,5.01-.48,6.62-1,7.32-3.33,14.46-6.78,18.72.77-.15,1.06.41,1.74.38,1.47-.08,3.11-.53,3.62.09,9.32-2.09,16-5.54,17.99-7.15.15-.12.27-.22.36-.32,3.27-9.06,5.28-18.33,5.66-26.92.18-4.21-.03-8.25-.68-12.02"/>
          <path class="cls-2" d="M154.37,129.4c24.97-27.16-5.49-43.79-23.07-28.15.76,3.31,1.83,7.72,2.92,12.41,2.48,10.69,5.06,22.79,4.3,26.42.05.33-.6.68-1.8,1.03.17,3.16.22,6.15.13,8.7,1.39.09,2.91.15,4.57.19,2.06.06,4.24-.23,6.38-.78,11.9-3.04,22.73-14.21,6.58-19.83"/>
          <path class="cls-19" d="M120.92,165.76l-.23-.04c.27-1.53.45-3.19.54-4.9-1.68.26-3.03.45-3.67.56-.55.09-1.42.04-2.45-.09-.1,1.12-.24,2.19-.4,3.18-1.22-.22-2.32-.36-3.07-.3-1.73.14-2.81.68-3.53,1.37-3.49.03-5.23,2.23-5.23,4.3,0,2.71,3.96,4.28,6.84,2.99,6.1-.42,10.76,1.08,16.63,4.7,3.21,3.96,7.62,4.3,8.97,2.03l.11-.2c2.56.55,5.33-.3,5.33-3.65,0-8.33-16.59-9.37-19.83-9.95"/>
          <path class="cls-19" d="M97.24,165.53c-.72-.69-1.8-1.23-3.53-1.37-.75-.06-1.85.08-3.07.3-.16-1-.28-2.09-.37-3.23-1.87.13-3.45.07-4.12-.27-.34-.17-1.06-.39-2-.66.05,1.89.2,3.73.49,5.41l-.24.05c-3.24.57-19.83,1.61-19.83,9.95,0,3.35,2.78,4.2,5.33,3.65l.11.2c1.35,2.26,5.76,1.92,8.97-2.03,5.87-3.62,10.54-5.12,16.63-4.7,2.88,1.28,6.84-.28,6.84-2.99,0-2.06-1.74-4.26-5.23-4.3"/>
          <path class="cls-6" d="M136.73,151.99c.05-.68.09-1.41.12-2.18.09-2.54.04-5.54-.13-8.7-5.05,1.47-19.84,2.86-32.5,2.69-12.56,0-25.36-1.28-32.16-3.97-.27,6.5-.36,12.77.45,14.94.99,2.63,7.99,4.48,11.64,5.54.93.27,1.66.49,1.99.66.67.34,2.24.4,4.12.27,2.72-.19,6.07-.78,8.28-1.51,3.72-1.24,1.26-4.1,3.72-4.96l3.72,4.55s5.51,1.5,9.12,1.98c1.03.13,1.9.18,2.45.09.65-.11,1.99-.3,3.67-.56,4.43-.69,11.19-1.86,13.61-3.24.19-.11.36-.22.49-.33.73-.62,1.18-2.54,1.4-5.26"/>
          <path class="cls-16" d="M113.21,108.27c9.32-2.09,16-5.54,17.99-7.16.03.13.06.26.09.39.76,3.31,1.83,7.72,2.92,12.41,2.48,10.69,5.06,22.79,4.3,26.42.05.33-.6.68-1.8,1.03-5.05,1.46-19.84,2.86-32.5,2.69-12.56,0-25.36-1.28-32.16-3.97-1.93-.76-3.38-1.64-4.2-2.64.06-1.22.47-3.65,1.11-6.76,1.97-9.69,6.05-26.08,8.05-33.94.06-.14.14-.27.2-.41.05.2.1.4.15.59,1.06,3.75,5.29,7.06,10.01,9.38,1.86.74,7.82,2.43,7.82,2.43,0,0,3.94,3.6,6.75,3.15,2.81-.45,5.85-3.6,5.85-3.6"/>
          <path class="cls-4" d="M137.23,73.62c4.82-4.74,6.74-13.51,6.14-18.41-1.44,2.05-3.95,4.39-6.82,6.39.65,3.77.87,7.81.68,12.02"/>
          <path class="cls-11" d="M132.11,49.24c2.93-5.62,2.91-13.55,1.47-17.85-1.39,3.17-4.63,7.3-8.3,10.37,2.79,2.04,5.06,4.56,6.83,7.48"/>
          <path class="cls-8" d="M90.73,66.34c1.93-23.21-12.1-20.36-13.6.99-1.27,18.09,11.8,20.69,13.6-.99"/>
          <path class="cls-8" d="M131.94,69.87c2.35-22.86-13.18-27.73-15.42-2.79-1.82,20.25,13.43,22.18,15.42,2.79"/>
          <path class="cls-5" d="M147.79,149.23c-2.14.55-4.32.83-6.38.78-1.66-.05-3.18-.1-4.57-.19-.03.77-.07,1.5-.12,2.18,1.31.78,3.42,1.95,5.9,3.32,7.24,3.22,12.15,2.03,17.8-3.65-4-.91-8.6-1.73-12.63-2.43"/>
          <path class="cls-5" d="M140.12,40.9c-1.39,2.77-4.31,6.2-7.66,8.94,1.82,3.17,3.1,6.77,3.88,10.67,4.43-5.33,5.13-14.71,3.78-19.62"/>
          <path class="cls-5" d="M113.52,69.37c-3.91-8.63-13.32-9.77-19.28-5.05-3.69,2.92-6.08,11.94-4.22,17.1.36,1,.88-1.39,1.58-1.53.19,8.11.46,22.08,4.26,28.38,1.21,2,2.77,3.23,4.79,3.26,2.76.04,5.18-1.48,7.2-3.98,3.45-4.26,5.78-11.4,6.77-18.72.22-1.62.49-3.97.48-6.62l.06.03c.21-4.96-.07-9.37-1.65-12.86"/>
          <path class="cls-17" d="M107.86,79.62c-3.28,2.95-9.03,4.15-12.87,2.7.25,6.24.85,17.22,1.79,20.78,1.41-3.76,5.75-5.38,9.55-2.96,3.02-8.9,3.33-16.03,3.07-20.29-.58-.41-1.09-.64-1.54-.24"/>
          <path class="cls-3" d="M96.78,103.11c.51,1.99,1.3,3.52,2.52,3.96,2.76,1.01,5.43-2.39,7.03-6.92-3.8-2.42-8.14-.8-9.55,2.96"/>
          <path class="cls-8" d="M138.23,130.44c-.18-1.14-.41-2.37-.68-3.68-15.55,2.2-49.44,3.24-67.84-2.14-.26,1.05-.51,2.06-.73,2.99,17.65,6,52.87,5.07,69.24,2.84"/>
          <path class="cls-8" d="M138.23,138.85c-.18-1.13-.41-2.37-.69-3.68-15.72,2.2-49.99,3.24-68.59-2.14-.27,1.05-.51,2.06-.73,2.99,17.84,6,53.46,5.07,70.01,2.84"/>
          <path class="cls-8" d="M71.65,117.3c-.28,1.03-.55,2.05-.81,3.04,17.57,5.18,49.45,4.46,65.82,2.46-.28-1.2-.58-2.41-.89-3.65-15.66,1.96-46.08,2.75-64.12-1.85"/>
          <path class="cls-14" d="M163.11,117.39c.94-2.48,1.52-5.15,1.43-7.86-.08-2.7-.9-5.41-2.43-7.67-1.52-2.27-3.67-4.05-6.07-5.26-2.4-1.22-5.05-1.88-7.72-2.07-2.67-.18-5.36.12-7.92.86-2.56.73-4.99,1.9-7.18,3.42,0,0-.14.1-.38.27,2.98-8.73,4.69-17.3,5.07-25.12,1.31-1.34,2.33-2.88,3.1-4.31,2.71-5.08,3.5-11.1,3.08-14.53-.04-.3-.25-.54-.54-.61-.29-.07-.59.04-.76.28-1.13,1.6-2.93,3.37-5.01,5,.83-1.23,1.55-2.65,2.13-4.26,1.94-5.43,1.84-11.49.92-14.83-.08-.29-.33-.5-.62-.52-.3-.03-.58.13-.71.39-1.16,2.29-3.41,5.06-6.02,7.45.26-.64.5-1.3.71-2,1.64-5.52,1.2-11.58.09-14.86-.09-.28-.35-.48-.65-.49-.31-.01-.57.16-.69.43-1.27,2.9-4.16,6.62-7.37,9.47-.1.09-.21.18-.31.27-5.2-3.61-11.89-5.47-19.94-5.47-.17,0-.34,0-.51,0-8.25.1-14.99,2.46-20.03,7.02-.17.15-.33.31-.5.47-.5.3-.95.65-1.36,1.02,0,0-.35.31-.79.82-.21.26-.46.57-.68.91-.06.08-.31.42-.58.88-.23.37-.46.83-.64,1.28-2.03,3.14-3.59,6.85-4.66,11.11-2.55,10.13-1.83,21.07-.68,28.85-.7-1.1-1.42-2.19-2.15-3.28-.99-1.5-2.02-3.02-3.07-4.57-5.28-7.82-10.74-15.91-14.13-23.84-2.47-5.78-4.93-9.93-7.53-12.67-3.6-3.82-7.56-4.96-11.62-3.35-3.96,1.56-6.73,5.69-7.6,11.34-.64,4.15-.12,8.5,1.27,11.13-5.24.89-10.32,5.54-11.92,11.08-1.88,6.53,1.34,11.89,8.64,14.62-4.92,2.89-6.24,9.15-4.89,14.34,1.46,5.62,5.65,9.26,10.66,9.26.47,0,.94-.03,1.42-.09-2.56,4.98.07,10.07,4.15,13.13,2.42,1.81,5.27,2.85,7.83,2.85,2.07,0,3.84-.66,5.2-1.91,1.36,4.12,5.8,6.98,11.11,6.98,1.29,0,2.59-.17,3.88-.5.53-.14,1.16-.33,1.86-.6-.52,2.66-.8,4.51-.85,5.52-.01.18.05.36.16.49.81.98,2.15,1.87,4.02,2.66-.06,1.38-.1,2.74-.13,4.06-.13,5.73.08,9.11.65,10.65.6,1.6,2.86,3.02,7.11,4.46,1.5.51,3.03.95,4.25,1.3l.25.07c0,.14.02.66.08,1.39.04.42.08.92.14,1.43.02.14.06.72.17,1.45-.33.05-.73.1-1.2.16-2.26.29-6.04.79-9.57,1.85-6.11,1.85-9.21,4.73-9.21,8.58,0,2.79,1.78,4.53,4.64,4.53.17,0,.35,0,.52-.02.18-.01.36-.04.54-.07l.13.18c.54.67,1.33,1.07,2.1,1.24.78.17,1.56.14,2.29,0,1.47-.3,2.77-1.03,3.87-1.94.55-.46,1.05-.97,1.5-1.51l.02-.03h0l.19-.11.42-.26.85-.5c1.15-.65,2.31-1.25,3.51-1.77,2.39-1.04,4.92-1.71,7.5-1.89.65-.04,1.3-.07,1.95-.06.33,0,.65.01.98.02l.49.03h.09s.01,0,.01,0l.16.07c1.44.54,3.01.51,4.43.02.71-.25,1.39-.63,1.97-1.18.25-.23.46-.5.64-.8.18.3.4.57.64.8.58.55,1.26.93,1.97,1.18,1.42.49,2.99.51,4.43-.02l.16-.07h.1s.49-.04.49-.04c.33-.01.65-.02.98-.02.65,0,1.3.02,1.94.06,2.59.18,5.12.85,7.5,1.89,1.2.52,2.36,1.12,3.51,1.77l.86.5.42.26.19.11.03.03c.45.54.95,1.05,1.5,1.51,1.1.91,2.4,1.64,3.87,1.94.73.14,1.51.18,2.28,0,.77-.16,1.56-.57,2.1-1.24l.13-.17c.18.03.36.05.54.07.18.01.35.02.53.02,2.86,0,4.63-1.73,4.63-4.53,0-3.84-3.1-6.73-9.21-8.58-3.53-1.06-7.31-1.56-9.57-1.85-.46-.06-.85-.11-1.18-.16.12-.72.17-1.3.19-1.43.07-.52.12-1.01.16-1.43.03-.32.05-.59.06-.82,1.42-.22,3.03-.49,4.66-.8,3.87-.73,6.53-1.45,8.09-2.17,3.2,3.56,6.02,5.63,8.9,6.57,1.23.4,2.45.59,3.75.59,2.51,0,5.18-.73,8.4-2.29.24-.11.39-.35.4-.61.01-.26-.12-.51-.34-.65-2.29-1.44-4.85-2.94-7.38-4.37.45.04.9.07,1.34.07h.27c3.76-.08,7.13-1.82,10.91-5.62.18-.19.25-.46.18-.71-.07-.25-.28-.44-.53-.5-3.03-.69-6.45-1.34-9.72-1.92,4.39-1.61,8.37-4.22,10.6-7.23,1.73-2.33,2.22-4.69,1.42-6.82-.9-2.4-3.34-4.37-7.26-5.89,1.33-1.5,2.59-3.07,3.74-4.74,1.49-2.16,2.8-4.48,3.75-6.96M153.34,129.45l-.97,1.01-.99,1.02c-.18.19-1.55,1.43-2.58,2.49-1.1,1.12-1.27,1.59-1.09,1.79.17.19.66.11,1.93-.85,1.19-.9,2.52-2.24,2.71-2.43.38-.36.73-.7,1.04-1,.61-.61,1-1.03,1-1.03l.18-.2c4.65,1.7,6.38,3.7,6.96,5.25.78,2.09-.24,4.12-1.23,5.46-3.41,4.6-11.65,8.34-18.36,8.34-.17,0-.34,0-.51,0-1.39-.04-2.67-.09-3.84-.15.03-1.08.03-2.3,0-3.67-.02-1.22-.07-2.51-.13-3.84.8-.28,1.32-.57,1.55-.86.17-.22.22-.44.22-.61.49-2.56-.35-8.67-2.64-19.23-1.06-4.89-2.25-9.87-3.29-14.27-.45-1.9-.86-3.63-1.22-5.15.3-.24.58-.48.84-.67.65-.5,1.11-.81,1.11-.81,2.05-1.43,4.34-2.54,6.75-3.22,2.4-.69,4.93-.97,7.42-.8,2.49.17,4.95.8,7.16,1.92,2.21,1.11,4.16,2.74,5.53,4.77,1.37,2.03,2.11,4.46,2.19,6.92.09,2.47-.44,4.95-1.34,7.29-.9,2.35-2.14,4.57-3.58,6.66-1.44,2.09-3.08,4.05-4.83,5.91M143.45,156.58c3.33,1.85,7.11,3.98,10.44,6.02-3.92,1.71-6.92,2.03-9.87,1.07-2.59-.84-5.16-2.73-8.11-5.97.37-.35,1.05-1.23,1.42-4.52,1.14.66,2.61,1.47,4.29,2.4l1.82,1.01ZM120.31,163.53c-.02.26-.29,2.04-.52,3.44-.12.74-.18,1.23-.16,1.56.02.32.11.45.24.49.12.04.27-.03.47-.28.19-.25.43-.7.68-1.48.08-.23.15-.48.21-.73.35.05.77.11,1.28.18,2.22.29,5.93.77,9.34,1.8,5.43,1.64,8.19,4.06,8.19,7.19,0,2.69-2,3.08-3.19,3.08-.14,0-.28,0-.42-.01h0c.05-.22.1-.43.13-.65.11-.77.05-1.55-.16-2.28-.41-1.48-1.38-2.7-2.49-3.61,0,0-.49-.42-1.29-.9-.4-.23-.88-.48-1.39-.7-.13-.06-.65-.31-1.34-.56-.69-.25-1.56-.49-2.33-.62-.83-.14-1.36-.14-1.69-.1-.33.04-.46.15-.49.27-.03.13.05.28.34.45.29.17.78.36,1.53.6.72.23,1.51.49,2.15.72.64.24,1.12.44,1.24.5.46.22.88.46,1.23.67.7.43,1.11.79,1.11.79.95.77,1.71,1.76,2.02,2.88.15.55.2,1.13.12,1.69-.07.55-.28,1.11-.59,1.48-.3.37-.77.63-1.3.74-.53.12-1.12.1-1.7-.01-1.16-.23-2.27-.84-3.23-1.63-.48-.4-.92-.84-1.32-1.33l-.13-.16-.2-.15-.24-.15-.44-.26-.88-.51c-1.18-.67-2.39-1.3-3.65-1.84-2.51-1.1-5.22-1.82-7.97-2.01-.69-.05-1.37-.07-2.06-.07-.34,0-.69.01-1.03.03l-.51.03h-.15s-.24.04-.24.04l-.2.08-.1.04c-1.07.41-2.34.4-3.44.01-1.1-.37-2.04-1.2-2.16-2.17-.03-.24-.02-.52.03-.78.05-.27.13-.53.24-.78.23-.5.58-.94,1.02-1.29,0,0,.38-.33,1.09-.62.35-.15.79-.27,1.26-.34.12-.02.62-.07,1.27-.04.65.02,1.46.13,2.18.27.77.14,1.28.24,1.61.23.33,0,.48-.09.52-.21.04-.12-.02-.28-.28-.49-.26-.2-.72-.48-1.53-.75-.2-.07-.42-.13-.64-.19.4-.11.83-.18,1.31-.22.58-.05,1.41.04,2.25.18l-.03.25c-.07.65-.1,1.08-.05,1.36.04.28.14.4.27.43.13.03.27-.02.44-.25.17-.22.37-.62.57-1.28.38-1.25.52-2.86.55-3.09.02-.14.03-.27.05-.4.43.04.81.06,1.14.06s.57-.02.8-.06c.33-.05.85-.13,1.51-.23.38-.06.81-.12,1.27-.19l-.03.47c-.03.41-.07.88-.11,1.39M99.58,172.26c-1.1.39-2.37.4-3.44-.01l-.1-.04-.2-.08-.24-.03h-.16s-.51-.04-.51-.04c-.34-.02-.68-.02-1.03-.03-.69,0-1.38.01-2.06.07-2.75.19-5.47.91-7.97,2.01-1.26.54-2.47,1.17-3.65,1.84l-.88.51-.44.26-.24.15-.2.15-.13.16c-.4.48-.84.93-1.32,1.33-.95.79-2.06,1.4-3.23,1.63-.58.12-1.17.13-1.7.01-.53-.12-.99-.37-1.29-.74-.3-.36-.51-.93-.59-1.48-.08-.56-.04-1.14.12-1.69.31-1.12,1.06-2.1,2.02-2.88,0,0,.41-.36,1.12-.79.35-.22.77-.45,1.23-.67.12-.05.6-.26,1.24-.5.64-.24,1.44-.49,2.15-.72.76-.25,1.25-.43,1.53-.6.29-.17.37-.32.34-.45-.03-.13-.16-.23-.49-.27-.33-.04-.86-.04-1.69.1-.77.13-1.64.37-2.33.62-.69.25-1.21.5-1.34.56-.51.22-.99.47-1.39.71-.8.47-1.29.9-1.29.9-1.11.9-2.08,2.12-2.49,3.6-.2.73-.27,1.51-.16,2.28.04.22.08.43.14.64h-.01c-.14.01-.28.02-.41.02-1.19,0-3.19-.4-3.19-3.08,0-3.13,2.76-5.56,8.19-7.19,3.41-1.03,7.12-1.51,9.34-1.8.51-.07.94-.12,1.28-.18.06.25.13.5.21.73.24.77.49,1.23.68,1.48.19.26.34.32.47.28.12-.04.22-.17.24-.49.02-.33-.04-.82-.16-1.56-.23-1.4-.47-3.19-.49-3.45-.04-.5-.07-.98-.09-1.39l-.04-.86c.42.13.75.24.92.33.55.27,1.46.41,2.78.41.32,0,.67-.01,1.02-.03.02.16.04.31.05.48.02.22.14,1.84.52,3.1.2.67.4,1.06.57,1.29.17.22.32.28.44.25.13-.03.23-.15.27-.43.04-.28.02-.71-.06-1.35l-.03-.25c.7-.11,1.38-.19,1.92-.19.11,0,.22,0,.33.01.48.04.91.11,1.31.22-.22.06-.44.12-.64.19-.82.27-1.27.55-1.53.75-.26.21-.33.36-.28.49.04.12.19.21.52.21.34,0,.85-.09,1.61-.23.72-.14,1.52-.25,2.18-.27.65-.03,1.15.03,1.27.04.48.08.91.2,1.27.34.71.29,1.08.63,1.08.63.44.34.8.78,1.03,1.28.12.25.2.51.24.78.05.27.06.55.03.78-.11.98-1.06,1.8-2.15,2.17M73.19,154.52c-.5-1.34-.69-4.65-.56-10.11.03-1.16.07-2.35.11-3.55,2.26.8,5.1,1.48,8.53,2.05,1.45.24,3,.45,4.63.64-.04.18-.08.38-.12.63-.17,1.14-.17,2.59-.18,2.79l-.05,1.11-.04,1.1c-.05,2-.07,4-.09,6v1.1s.02,1.11.02,1.11c0,.19-.04,1.48.06,2.59-.51-.16-1.15-.34-1.91-.56-1.21-.35-2.72-.78-4.18-1.28-4.61-1.56-5.93-2.82-6.22-3.6M95.35,108.82s2.21,3.38,5.39,3.43c3.18.06,6.72-3.32,6.72-3.32l6.82-.43c4.1-.98,7.44-2.15,9.8-3.1,2.98-1.2,5.25-2.4,6.67-3.33.34,1.46.73,3.11,1.16,4.9,1.04,4.39,2.22,9.37,3.28,14.24,2.21,10.17,3.09,16.46,2.63,18.7-.54.38-3.3,1.23-10.56,2.04-1.73.19-3.55.36-5.4.51-.09-.1-.18-.14-.28-.14-.11,0-.21.05-.31.18-4.94.38-10.15.58-14.94.58-.7,0-1.4,0-2.11-.01-8.36,0-16.43-.57-22.72-1.61-8.35-1.38-11.64-3.19-12.91-4.54.19-2.35,1.44-8.52,3.64-17.91,1.65-7.07,3.61-14.98,5.04-20.62,1.03,2.03,2.93,4.03,5.6,5.87.94.65,1.97,1.26,3.06,1.84,2.99,1.46,9.42,2.7,9.42,2.7M62.25,131.3c-5.19,0-9.4-3.01-10.03-7.16-.04-.29-.26-.52-.54-.59l-.17-.02c-.23,0-.45.11-.58.3-1.44,1.99-3.5,2.41-4.99,2.41-2.25,0-4.79-.94-6.96-2.56-3.9-2.93-6.33-7.95-2.95-12.57.18-.25.18-.58.02-.83-.17-.25-.48-.37-.78-.29-.93.24-1.85.36-2.72.36-5.26,0-8.24-4.22-9.27-8.18-1.33-5.11.19-11.36,5.68-13.42.29-.11.48-.39.46-.7-.01-.31-.22-.58-.52-.67-7.64-2.25-11.15-7.26-9.38-13.41,1.56-5.41,6.74-9.87,11.79-10.17.27-.02.5-.18.62-.42.11-.24.08-.53-.08-.74-1.62-2.09-2.3-6.74-1.63-11.06.79-5.13,3.24-8.85,6.71-10.22,1.02-.4,2.05-.61,3.03-.61,2.39,0,4.75,1.21,7.01,3.61,2.48,2.62,4.85,6.63,7.26,12.25,3.45,8.06,8.95,16.21,14.26,24.09,1.04,1.54,2.07,3.06,3.06,4.56,1.37,2.06,2.72,4.13,3.97,6.17.35,1.87.69,3.42.96,4.57l-.1.2-.04.11c-1.45,5.68-3.66,14.55-5.49,22.39-1.06,4.53-1.89,8.27-2.5,11.23-.98.45-1.86.74-2.56.92-1.17.3-2.35.46-3.52.46M133.36,33.41c.65,3.22.71,7.87-.58,12.2-.19.63-.42,1.29-.69,1.95-.43-.59-.77-.94-.77-.94-.18-.21-.38-.41-.58-.6-1.28-1.61-2.73-3.05-4.32-4.3l.08-.07c2.8-2.48,5.3-5.51,6.86-8.24M139.79,42.9c.47,3.25.27,7.89-1.25,12.15-.44,1.24-1.04,2.55-1.83,3.77-.2-.85-.42-1.69-.67-2.5-.57-1.84-1.25-3.56-2.04-5.16-.1-.31-.21-.62-.33-.88-.05-.13-.11-.25-.16-.36,2.53-2.16,4.78-4.68,6.3-7.02M142.75,57.14c-.01,3.28-.89,7.85-3.02,11.83-.48.89-1.06,1.83-1.76,2.72.05-3.43-.17-6.71-.65-9.76,2.1-1.49,4-3.17,5.43-4.79M98.56,83.66c1.44.01,2.86-.2,4.24-.58,1.38-.38,2.7-.94,3.93-1.71,0,0,.55-.32,1.29-.93l.37-.32h.02s.19.05.19.05l.11.06c.07,1.44.08,3.24-.07,5.35-.32,4.39-1.23,8.93-2.72,13.5-1.77-.87-3.73-1.04-5.48-.46-1.34.44-2.48,1.29-3.32,2.41-.48-3.13-.84-8.13-1.07-12.16-.12-1.99-.21-3.9-.28-5.56.92.23,1.87.33,2.8.34M105.44,100.47c-.76,2-1.72,3.66-2.72,4.73-1.09,1.16-2.14,1.58-3.18,1.2-.42-.15-.81-.52-1.15-1.09-.33-.54-.61-1.26-.86-2.15.64-1.52,1.85-2.66,3.35-3.16,1.45-.48,3.08-.31,4.56.47M92.37,81.59c.57.52,1.22.92,1.91,1.23h.01c.07,1.84.18,3.99.3,6.14.29,5.05.78,11.64,1.49,14.33.29,1.12.65,2.05,1.08,2.75.52.86,1.16,1.44,1.89,1.7.41.15.82.22,1.24.22,1.2,0,2.37-.6,3.49-1.79,1.24-1.32,2.37-3.33,3.24-5.79h0s0,0,0,0c1.68-4.98,2.71-9.92,3.05-14.69.12-1.64.14-3.1.11-4.36.15.1.3.21.48.3.4.23.88.43,1.4.47.55.04,1.01-.12,1.29-.3.26-.17.41-.3.54-.42.24-.24.28-.4.23-.52-.05-.12-.21-.18-.55-.14-.16.02-.4.08-.64.14-.21.05-.44.07-.72,0-.53-.11-1.17-.6-1.72-1.04-.28-.22-.55-.43-.78-.59-.23-.16-.43-.26-.52-.3-.16-.08-.35-.16-.58-.19-.22-.04-.5-.02-.74.07-.12.04-.23.1-.32.17l-.21.17-.25.21c-.65.53-1.14.82-1.14.82-2.18,1.36-4.81,2.08-7.39,2.07-1.28-.01-2.57-.22-3.7-.72-.57-.25-1.08-.57-1.52-.98-.11-.1-.21-.2-.31-.31l-.15-.17-.19-.25c-.2-.28-.43-.5-.72-.59-.24-.08-.5-.06-.73.04l-.13.06-.12.08c-.21.16-.4.39-.54.62l-.06.1v-.07s-.05-.18-.05-.18l-.04-.24c-.22-1.26-.24-2.59-.14-3.89.22-2.62.91-5.24,2.08-7.58.59-1.16,1.31-2.27,2.22-3.08.95-.81,2.1-1.49,3.28-1.96,2.39-.95,5.1-1.11,7.56-.38,2.47.71,4.63,2.32,6.13,4.43.75,1.05,1.37,2.22,1.82,3.43.45,1.22.74,2.51.94,3.82,0,0,.09.58.17,1.45.05.44.09.94.13,1.48.02.27.04,2.21.1,3.76.01.34.03.62.05.87l-.25-.12c.02,1.07-.01,2.18-.09,3.31-.1,1.47-.26,2.74-.38,3.56-.82,6.03-2.5,11.53-4.7,15.49-1.68,3.01-4.51,6.59-8.47,6.59h-.08c-4.01-.05-6.59-5.83-7.68-17.17-.4-4.22-.54-8.59-.63-12.07l.02.02ZM89.41,65.14c-.16,2.33-.98,3.51-1.72,3.55-.75.03-1.41-1.08-1.29-3.32.15-2.64,1.01-4.14,1.77-4.25.76-.11,1.44,1.15,1.24,4.02M88.59,55.65c-.7-.75-1.56-1.08-2.45-.95-3,.45-5.4,5.88-5.82,13.2-.25,4.4.49,7.76,2.09,9.45.67.72,1.48,1.09,2.33,1.09h.13c.85-.04,1.74-.47,2.55-1.33-1.34,2.65-2.96,3.91-4.42,3.91h-.16c-.84-.06-1.67-.52-2.4-1.35-2-2.27-2.96-6.87-2.58-12.31.71-10.17,4.38-16.11,7.47-16.54.12-.02.23-.02.34-.02.73,0,1.41.34,2.03,1,1.17,1.27,1.94,3.52,2.3,6.49-.35-1.14-.82-2.04-1.4-2.66M109.46,106.58c.35-.52.69-1.07,1.01-1.65,2.29-4.11,4.02-9.79,4.87-16,.12-.84.28-2.14.39-3.66.09-1.36.12-2.68.08-3.94l.02-.19c.17-1.57.06-3.58.04-3.86-.01-.56-.05-1.08-.09-1.54-.08-.91-.18-1.52-.18-1.52-.2-1.39-.52-2.77-1.01-4.11-.5-1.34-1.17-2.61-2-3.78-.84-1.16-1.86-2.21-3.03-3.06-1.17-.85-2.48-1.5-3.87-1.91-2.78-.82-5.82-.64-8.49.42-1.34.54-2.58,1.26-3.71,2.22-.86.77-1.51,1.67-2.06,2.61l.02-.21c.62-7.46-.34-12.99-2.7-15.56-1.03-1.11-2.3-1.62-3.63-1.43-3.63.5-7.9,6.31-8.71,17.87-.41,5.89.66,10.76,2.93,13.36.99,1.12,2.16,1.76,3.4,1.83h.25c1.85,0,3.99-1.33,5.68-4.61.02.67.09,1.35.21,2.02l.05.27.03.13.05.19c.05.22.15.61.25.9.06.15.1.33.17.43l.1.18.05.08.06.05.22.18c.08.04.16.07.29.09.25.02.37-.03.56-.13.08-.05.16-.12.24-.22.08,3.43.23,7.65.62,11.76.54,5.6,1.44,9.9,2.73,12.93l1.07,2.1c.28.46.58.87.89,1.24.82.67,1.11,1.06,1.11,1.06.98.74,2.07,1.12,3.29,1.14h.1c.33,0,.65-.03.97-.07,0,0,1.85.05,4.31-1.82.77-.59,2.28-2.17,2.31-2.17l1.14-1.61ZM107.86,107.55s-3.66,3.64-7.2,3.98c-3.55.35-5-3.83-6.24-4.28-1.24-.45-6.92-1.95-6.92-1.95-1.37-.68-2.65-1.43-3.8-2.21-3.05-2.1-5-4.38-5.62-6.58-1.23-4.89-4.94-22.04-1.11-37.26,1.61-6.42,4.31-11.48,8.07-15.15.33-.2.67-.36,1.02-.47.78-.24,1.6-.21,2.28.14,0,0,.31.14.69.49.19.17.4.4.59.68.05.07.22.36.4.78.18.42.35.96.49,1.46.14.53.25.89.39,1.11.13.22.27.28.4.27.13-.01.25-.1.34-.34.08-.23.16-.62.11-1.25-.04-.59-.2-1.26-.42-1.78-.21-.53-.47-.9-.53-1-.22-.38-.5-.71-.76-.97-.54-.52-1.03-.73-1.03-.73-.47-.24-1.01-.39-1.55-.43,4.55-3.39,10.36-5.14,17.39-5.22.16,0,.33,0,.49,0,8.66,0,15.68,2.24,20.85,6.58-.66-.15-1.35-.22-2.03-.18,0,0-.64,0-1.53.26-.44.13-.94.33-1.43.6-.12.07-.64.32-1.22.77-.58.44-1.2,1.06-1.66,1.68-.49.66-.69,1.13-.78,1.43-.09.3-.05.46.06.54.1.08.27.07.53-.11.27-.17.62-.53,1.14-1.04.49-.49,1.06-1.01,1.56-1.37.49-.37.91-.6,1.01-.66.41-.2.82-.36,1.18-.45.71-.19,1.21-.2,1.21-.2,1.12-.07,2.26.22,3.29.75.75.39,1.45.9,2.08,1.49,1.29,1.61,2.41,3.41,3.35,5.39.06.17.12.35.17.51l.27.87c.07.24.15.44.22.58.11.22.22.32.32.35.27.7.51,1.41.74,2.15,3.48,11.31,2.12,27.12-3.71,43.39-.8.72-3.3,2.27-7.4,3.93-2.41.97-5.86,2.18-10.12,3.16-2.47.09-5.57.32-5.57.32M101.33,166.11s-.53-.47-1.46-.82c-.47-.18-1.02-.32-1.61-.38-.09-.01-.36-.05-.73-.07-.94-.8-2.18-1.27-3.78-1.39-.62-.05-1.42,0-2.54.18l-.16-1.3-.03-.44c.2-.02.41-.04.62-.06,2.58-.28,5.31-.82,7.12-1.43,2.14-.71,2.62-1.95,2.82-3.19.02-.1.03-.21.05-.31.09-.63.16-.99.44-1.23l3.35,4.09c.09.11.22.2.37.24.02,0,2.32.63,4.89,1.2,1.41.31,2.62.54,3.65.7l-.04.42c-.01.12-.08.65-.17,1.31-1.12-.18-1.93-.24-2.55-.19-1.6.12-2.84.59-3.78,1.39-.37.02-.64.05-.73.07-.59.07-1.14.21-1.6.38-.93.36-1.46.84-1.46.84-.55.42-1.01.97-1.34,1.6-.33-.63-.79-1.18-1.34-1.61M118.97,160.43c-.66.1-1.19.18-1.53.24-.15.02-.34.04-.56.04-1.15,0-3.18-.31-5.88-.91-2.07-.46-3.97-.95-4.6-1.12l-3.57-4.37c-.19-.24-.51-.33-.8-.22-1.51.53-1.69,1.73-1.82,2.61-.01.09-.03.2-.04.29-.14.86-.36,1.56-1.85,2.05-1.73.58-4.34,1.1-6.82,1.36-1.07.11-2.07.17-2.89.17-1,0-1.56-.08-1.86-.16.01-.08.02-.17.03-.26.11-1.14.06-2.58.06-2.79l.03-1.1v-1.09c.02-1.99.04-3.98.09-5.97l.03-1.09v-1.1c.02-.2.11-1.64.06-2.78,0-.22-.02-.4-.05-.57,5.22.56,11.15.86,17.22.86.7.01,1.41.01,2.12.01,4.68,0,9.75-.2,14.59-.55-.08.94-.07,1.98-.08,2.14l-.05.97-.04.95c-.08,1.74-.2,3.48-.4,5.19l-.12.94-.13.94c-.03.17-.29,1.38-.49,2.29-.06.24-.1.44-.13.6-.03.17-.06.32-.05.44,0,.23.09.36.2.41.12.06.27.05.45-.08.1-.07.2-.16.32-.31.13-.16.25-.37.38-.63.47-.99.65-2.29.68-2.47.07-.35.13-.69.18-.98.09-.58.13-.97.13-.97.21-1.77.33-3.54.41-5.3,0,0,.02-.39.04-.97v-.98c.01-.17.08-1.3,0-2.27,1.78-.14,3.53-.31,5.2-.49,3.79-.42,6.67-.88,8.63-1.36.06,1.2.09,2.35.11,3.45.16,9.51-1.05,11.01-1.29,11.21-.64.54-2.66,1.41-8.56,2.53-2.78.53-5.52.94-7.34,1.21M142.98,154.68l-.66-.37c-1.98-1.1-3.67-2.03-4.85-2.72.02-.32.04-.66.06-1.02,1.21.07,2.49.11,3.85.15.18,0,.37,0,.56,0,1.91,0,3.9-.28,5.88-.77,3.59.62,7.57,1.34,11.13,2.1-3.11,2.88-5.91,4.21-8.96,4.27-2.08.05-4.34-.48-7.01-1.66"/>
          <path class="cls-14" d="M115.8,67.02c-.97,10.83,2.89,16.42,6.89,17.03.26.04.53.06.8.06,3.84,0,8.16-4.38,9.17-14.17,1.27-12.38-2.49-19.09-6.53-20.09-.36-.09-.73-.13-1.1-.13-3.7,0-8.08,4.54-9.22,17.3M125.78,51.25c3.47.86,6.56,7.65,5.45,18.54-.91,8.85-4.65,12.88-7.74,12.88-.19,0-.39-.02-.58-.04-2.02-.31-3.99-2.28-5.04-5.96,1.02,2.33,2.59,3.57,4.23,3.78.17.02.34.03.51.03,2.85,0,5.98-3.2,6.57-10.36.73-8.9-2.13-13.67-5.09-14.33-.25-.06-.51-.08-.76-.08-1.77,0-3.71,1.37-5.04,4.83,1.57-6.43,4.29-9.38,6.73-9.38.25,0,.51.03.76.09M127.57,67.64c-.2,2.46-1.27,3.59-2.24,3.46-.97-.13-1.85-1.51-1.67-4.08.22-3.16,1.31-4.45,2.3-4.23.98.22,1.85,1.96,1.62,4.85"/>
          <path class="cls-9" d="M97.9,115.68l-10.01,1.24-1.69-10.69,8.82,1.96s.98,1.88,2.22,2.56c.95.52.87.84,2.15,1.28l-.37,3.09-1.12.56Z"/>
          <path class="cls-9" d="M98.26,111.63l.43,4.74,3.71.11.5-4.51s-1.14.2-2.49.2-2.15-.54-2.15-.54"/>
          <path class="cls-9" d="M102.62,115.8l12.37,2.02,1.35-10.24-7.92.67s-2.25,1.93-3.03,2.49c-.79.56-3.22,1.45-3.22,1.45l.45,3.6Z"/>
          <polygon class="cls-8" points="97.56 113.43 87.66 113.32 87.1 109.83 97.79 111.07 97.56 113.43"/>
          <polygon class="cls-8" points="115.45 114.67 103.3 113.43 103.41 111.3 104.76 110.96 115.9 110.73 115.45 114.67"/>
          <path class="cls-14" d="M87.89,117.57c-.31,0-.59-.23-.64-.55l-1.69-10.69c-.04-.21.04-.43.19-.57.16-.15.37-.21.58-.17l9,1.91c.35.07.58.42.5.77-.07.35-.42.57-.77.5l-8.07-1.72,1.44,9.13,9.39-1.16c.36-.04.68.21.73.56.04.36-.21.68-.57.73l-10.01,1.24h-.08Z"/>
          <path class="cls-14" d="M97.79,111.72h-.08s-10.69-1.24-10.69-1.24c-.36-.04-.61-.36-.57-.72.04-.36.37-.61.72-.57l10.69,1.24c.36.04.61.36.57.72-.04.33-.32.58-.65.58"/>
          <path class="cls-14" d="M97.56,114.08h0l-9.9-.11c-.36,0-.65-.3-.64-.66,0-.36.3-.65.66-.64l9.9.11c.36,0,.65.3.64.66,0,.36-.3.64-.65.64"/>
          <path class="cls-14" d="M102.4,117.12h-.02l-3.72-.11c-.32,0-.59-.25-.63-.57l-.68-5.82c-.04-.36.21-.68.57-.72.35-.04.68.22.72.57l.61,5.26,2.53.08.4-4.44c.03-.36.35-.62.7-.59.36.03.62.35.59.7l-.45,5.05c-.03.34-.31.59-.65.59"/>
          <path class="cls-14" d="M115,118.47h-.1s-12.37-2.03-12.37-2.03c-.36-.06-.59-.39-.54-.75.06-.36.39-.6.75-.54l11.71,1.92,1.15-8.74-8.84,1.03c-.36.04-.68-.22-.72-.57-.04-.36.22-.68.57-.72l9.67-1.13c.2-.02.4.05.54.19.14.14.21.34.18.54l-1.35,10.24c-.02.17-.12.33-.26.44-.11.08-.25.13-.39.13"/>
          <path class="cls-14" d="M103.37,111.67c-.35,0-.64-.28-.65-.64,0-.36.28-.66.64-.67l12.52-.28h.01c.36,0,.65.28.66.63,0,.36-.28.66-.64.67l-12.52.28h-.01Z"/>
          <path class="cls-14" d="M115.45,115.32h-.07s-12.15-1.24-12.15-1.24c-.36-.04-.62-.36-.58-.71.04-.36.36-.61.71-.58l12.15,1.24c.36.04.62.36.58.71-.04.34-.32.59-.65.59"/>
        </g>
      </g>
    </g>
  </g>
  <g id="list-type">
    <g>
      <g>
        <path class="cls-18" d="M65.46,186.14c-7.14,0-11.78-.2-15.22-1.61-1.22.88-2.68,1.56-4.3,1.56-3.74,0-6.9-3.27-6.9-7.14,0-2.96,1.86-4.6,2.56-5.22.07-.06.14-.12.21-.19-.46-.32-.88-.71-1.24-1.16-.69-.85-1.51-2.32-1.51-4.5,0-2.03.71-3.77,1.91-4.99-.74-.9-1.39-2.14-1.39-3.96,0-3.83,3.36-7.2,7.2-7.2,1.62,0,2.86.5,3.86,1.19,1.21-1.06,2.86-1.67,4.76-1.67,1.33,0,2.55.31,3.57.86.98-.65,2.15-1.01,3.5-1.05.05,0,.1,0,.15,0,2.16,0,4.09.92,5.37,2.36h.25c3.59,0,6.3,2.85,6.3,6.63,0,1.39-.36,2.65-1,3.7.02.18.02.36.02.53,0,.46-.04.91-.13,1.35.64.86,1.32,2.23,1.32,4.21,0,1.94-.71,3.63-1.9,4.82,1.03,1.17,1.62,2.72,1.62,4.5s-.73,4.29-2.77,5.75c-.04.03-.09.06-.13.09-1.71,1.14-3.46,1.14-6.11,1.14h0Z"/>
        <path class="cls-18" d="M94.21,186.52c-1.55,0-2.86-.51-3.96-1.27-1.05.56-2.09.83-3.16.83-1.01,0-1.98-.23-2.85-.63-.56.11-1.06.18-1.47.23-3.09.43-5.62.53-5.96.53-.65,0-1.28-.1-1.86-.28-.66.17-1.29.23-1.83.23-3.95,0-7.17-3.03-7.17-6.76,0-.96.25-1.81.53-2.59.83-2.37.83-5,.83-8.98v-4.83c0-3.98,1.86-6.45,5.29-7.1.91-2.53,3.37-4.24,6.41-4.24,1.71,0,3.06.45,4.11,1.14h1.8c.18,0,.37,0,.54.02,1.14-.79,2.58-1.24,4.2-1.24,1.54,0,2.91.41,4.03,1.12.09,0,.19,0,.28,0,2.26,0,4.12,1.05,5.52,3.11,1.63,2.4,1.81,3.91,1.81,4.84,0,.44-.05.87-.14,1.28.32.84.49,1.77.49,2.76,0,1.2-.26,2.31-.74,3.25.04.28.06.56.06.85,0,.59-.13,1.42-.43,2.45.92,1.06,1.46,2.45,1.46,4,0,1.11-.3,2.92-.55,4.24-1.17,6.36-5.46,7.05-7.24,7.05h-.01Z"/>
        <path class="cls-18" d="M111.08,186.6c-2.22,0-4.11-.83-5.37-2.2-1.84.92-3.76,1.55-5.51,1.55-3.84,0-6.74-3.11-6.74-7.22,0-1.3.32-2.47.92-3.45-.38-.88-.59-1.86-.59-2.92,0-.63.07-1.24.22-1.81-.39-.89-.6-1.88-.59-2.94,0-1.2.27-2.3.77-3.25-.41-.76-.69-1.71-.69-2.88,0-2.28,1.18-4.35,2.97-5.58.08-.17.16-.34.23-.51.02-.05.04-.1.07-.15,1.06-2.25,3.2-3.59,5.71-3.59,1.44,0,2.78.45,3.86,1.22,1.17-1.05,2.75-1.62,4.57-1.62,1.62,0,3.08.43,4.25,1.17.85-.53,1.94-.88,3.34-.88,2.96,0,5.41,1.76,6.28,4.27,1.67,1.18,2.79,3.08,2.79,5.18,0,.43-.03.82-.1,1.2.43.77.73,1.7.87,2.82.16,1.35.31,2.73.31,3.75,0,.86-.17,1.67-.47,2.4.06.39.09.79.09,1.2,0,1.01-.19,1.95-.54,2.8.67,1.03,1.03,2.27,1.03,3.63,0,4-2.97,7.14-6.76,7.14-1.64,0-3.59-.64-5.52-1.6-1.25,1.42-3.16,2.27-5.41,2.27Z"/>
        <path class="cls-18" d="M129.27,185.87c-5.07,0-8.09-3.03-8.09-8.09v-17.63c0-5.08,3.03-8.12,8.09-8.12h17.79c5.07,0,8.09,3.04,8.09,8.12v17.63c0,5.07-3.03,8.09-8.09,8.09h-17.79Z"/>
      </g>
      <path class="cls-20" d="M147.06,145.04h-17.79c-2.17,0-4.02.53-5.48,1.5-1.36-1.24-3.21-1.99-5.28-1.99-1.34,0-2.44.28-3.33.72-1.22-.65-2.67-1.02-4.26-1.02-1.8,0-3.38.49-4.65,1.39-1.11-.63-2.41-.99-3.79-.99-1.94,0-3.67.7-4.99,1.94-1.25-.69-2.51-.91-3.52-.91h-.05c-1.21-.71-2.67-1.11-4.26-1.11-1.67,0-3.19.45-4.44,1.23-.1,0-.21,0-.31,0h-1.49c-1.15-.7-2.62-1.14-4.42-1.14-2.75,0-5.06,1.24-6.44,3.18-1.15-.86-2.58-1.38-4.16-1.42-1.45-1.45-3.51-2.36-5.8-2.36-.06,0-.12,0-.18,0-1.08.03-2.33.26-3.52.92-1.05-.47-2.23-.74-3.51-.74-1.84,0-3.49.54-4.81,1.47-.99-.56-2.26-.98-3.82-.98-4.37,0-8.2,3.83-8.2,8.2,0,1.67.5,2.95,1.13,3.92-1.04,1.34-1.65,3.08-1.65,5.03,0,1.96.6,3.74,1.73,5.14.16.2.33.38.5.56-.94.95-2.26,2.68-2.26,5.37,0,4.41,3.61,8.14,7.9,8.14,1.66,0,3.16-.6,4.42-1.42,3.52,1.29,8.17,1.48,15.1,1.48h0c1.91,0,3.44-.01,4.86-.45.88.31,1.82.48,2.81.48.66,0,1.26-.07,1.82-.19.59.16,1.22.24,1.87.24.35,0,2.95-.1,6.09-.54.32-.04.73-.1,1.21-.19.92.38,1.93.6,2.97.6s2.07-.23,3.08-.68c1.14.68,2.47,1.11,4.03,1.12h.01c.71,0,2.18-.12,3.69-.91.72.22,1.49.34,2.29.34,1.66,0,3.49-.51,5.3-1.33,1.41,1.25,3.35,1.99,5.58,1.99s4.17-.78,5.6-2.07c1.84.84,3.7,1.4,5.33,1.4,1.19,0,2.31-.28,3.31-.76,1.16.46,2.48.71,3.95.71h17.79c5.61,0,9.09-3.48,9.09-9.09v-17.63c0-5.71-3.4-9.12-9.09-9.12Z"/>
      <g>
        <path class="cls-8" d="M50.74,168.27c-.05-.51.05-.87.43-2.12.57-2.01.76-3.33,1-7.24.05-.87.05-1.74.08-2.58-.79,0-1.27,0-1.63-.6-.43.87-1.14,1.36-1.98,1.36-.73,0-1.06-.22-1.76-1.17-.35-.43-1.08-1.27-1.33-1.52-.87-.79-.98-.95-.98-1.49,0-1.06,1.11-2.2,2.2-2.2.68,0,1.11.24,1.95,1.17.6.62,1.46,1.63,1.71,2.03.16-.68.62-1.06,1.33-1.06h1.74s0-1.11,0-1.11c0-.98.68-1.52,1.9-1.52s1.87.54,1.87,1.52v1.11h.89c.79,0,1.22.41,1.36,1.3,1.03-1.71,1.11-1.84,1.33-2.44.46-1.3.84-1.65,1.76-1.68,1.03,0,1.95.71,1.95,1.46,0,.27-.05.52-.22.89h3.88c.81,0,1.3.6,1.3,1.63s-.46,1.65-1.3,1.65h-5.56c-.22.41-.43.81-.73,1.19h4.69c.84,0,1.93,0,1.93,1.38,0,.43,0,1.11-2.12,3.42.03.14.03.16.03.49h1.98c.79,0,1.3.52,1.3,1.65,0,1.11-.51,1.63-1.3,1.63h-1.98s0,2.36,0,2.36c0,2.85-1.79,2.85-3.2,2.85-1.98,0-2.55-.41-2.55-1.71,0-.9.46-1.6,1.03-1.6.22,0,.46.05.62.05.33,0,.46,0,.46-.95v-1h-1.65c-.84,0-1.3-.6-1.3-1.63s.46-1.65,1.3-1.65h1.65c0-.49,0-1.38,1.03-1.6.27-.38.35-.49.35-.6,0-.08-.6-.08-.62-.08h-1.54c-.73,0-1.19-.54-1.19-1.46,0-.3.03-.54.14-.84-.16.03-.24.05-.35.05-.89,0-1.79-.65-1.95-1.38-.19.05-.3.08-.52.08h-2.71c0,.46,0,.95-.03,1.44h1.98c1.74,0,2.28.54,2.28,2.33,0,.3-.08,3.77-.33,7.7-.16,2.06-.84,2.9-2.36,2.9-2.25,0-2.85-.35-2.85-1.55,0-.98.46-1.65,1.11-1.65.22,0,.38.03.46.03.35,0,.43-.24.52-1.55.11-1.33.22-4.26.22-4.5,0-.38-.11-.38-1.19-.38-.22,2.79-.43,4.42-.92,6.13-.54,2.03-.79,2.33-1.82,2.33-.43,0-.76-.11-1.19-.38,2.17,2.41,5.58,2.41,12.36,2.42,1.41-.03,2.96-.19,3.93-.19,1.22,0,1.84.6,1.84,1.74,0,.68-.3,1.41-.68,1.68-.41.27-1.25.3-3.33.3-11.09,0-13.75-.68-15.89-3.07-.08.16-2.22,3.01-3.63,3.01-.98,0-1.9-1-1.9-2.14,0-.54.19-.87.87-1.46.76-.65,1.41-1.35,2.09-2.28v-4.91c0-.43-.14-.6-.6-.6h-.87c-.92,0-1.46-.65-1.46-1.82,0-1.19.52-1.84,1.46-1.84h2.79c1.82,0,2.28.46,2.28,2.3v5.67s.13.27.13.27Z"/>
        <path class="cls-8" d="M76.77,159.41c-.52.03-.71-.27-.71-.81,0-.79.33-.81,1.55-.87v-.76h-1.08c-.49,0-.6.11-.6.57v7.19c0,3.63-.41,6.05-.68,7.56-.38,2.12-.95,2.88-2.12,2.88s-2.17-.81-2.17-1.76c0-.16.08-.46.24-.92,1.11-3.2,1.11-6.32,1.11-10.66v-4.83c0-1.9.38-2.28,2.28-2.28h2.63s0-2.6,0-2.6c0-.92.65-1.46,1.79-1.46.81,0,1.65.14,1.9,1.14h4.01c.57,0,.9.41.9,1.11s-.33,1.11-.9,1.11h-3.99s0,.7,0,.7h2.93c2.28,0,2.28.62,2.28,2.96,0,.79-.54,1.19-1.49,1.19-1.52,0-1.52-.89-1.52-1.33,0-.46-.11-.57-.57-.57h-1.63v.62l1.19-.05c.51,0,.7.24.7.84,0,.51-.19.71-.81.73l-1.08.05c0,.71,0,.92.68.92.27,0,.65,0,.95-.03.16,0,.24-.05.38-.49.08-.35.41-.54.9-.54.76,0,1.41.46,1.41,1,0,.57-.33,1.41-.68,1.65-.41.3-1.06.38-3.01.38-3.96,0-3.96-.19-3.96-2.71l-.84.05ZM85.41,168.69c0,1.22-.43,1.65-1.66,1.65.19.14.27.27.27.46s-.08.57-.19.84c.76.05,1.22.65,1.22,1.52,0,1-.35,1.22-2.96,1.57-2.9.41-5.21.49-5.29.49-.73,0-1.25-.65-1.25-1.52,0-1.44.84-1.44,2.39-1.44-.27-.79-.33-1.03-.33-1.25,0-.27.11-.52.38-.71-.73-.03-1.3-.27-1.3-1.63v-1.36c0-1.25.43-1.65,1.76-1.65h5.23c1.27,0,1.71.43,1.71,1.71v1.3ZM77.14,164.94c-.6,0-.9-.38-.9-1.11s.33-1.08.9-1.08h8.16c.57,0,.87.41.87,1.09,0,.73-.3,1.11-.87,1.11h-8.16ZM79.75,170.34c.19.16.3.41.46.95.05.24.14.6.19.79.3-.05.54-.05.81-.08.27-.92.54-1.44.79-1.65h-2.25ZM80.18,167.52c-.43,0-.43.11-.43.6,0,.35.08.43.43.43h1.74c.43,0,.43-.11.43-.6,0-.35-.08-.43-.43-.43h-1.74ZM91.76,160.77c.08,1.3.11,2.36.33,3.36.13-.33.22-.57.3-.87.41-1.6.76-2.06,1.63-2.06,1.03,0,1.98.76,1.98,1.57,0,.27-.41,2.55-2.66,6.07.22.62.54,1.17.76,1.46.27-1.92.33-2.25,1.49-2.25.92,0,1.44.43,1.44,1.17,0,.49-.16,1.74-.46,3.31-.38,2.06-1.08,2.98-2.33,2.98-.43,0-1.57,0-3.47-3.34-.71.76-1.19,1.38-1.9,1.98s-1.3.92-1.76.92c-1.03,0-1.98-.95-1.98-1.98,0-.57.35-.95,1.54-1.84.71-.57,1.74-1.49,2.63-2.6-.65-2.28-1.14-4.83-1.27-7.46l-.81.11c-.84.08-1.44-.73-1.44-1.79,0-1,.49-1.71,1.27-1.79l.79-.11c-.05-.6-.05-1.27-.05-2.06v-3.44c0-.98.68-1.55,1.9-1.55,1.22,0,1.93.57,1.93,1.55v5.07s3.5-.41,3.5-.41c.95-.11,1.57.68,1.57,1.9,0,1.03-.38,1.55-1.19,1.65l-3.71.43ZM94.42,156.16c-.84,0-1.03-.35-1.9-2.03-.19-.35-.33-.79-.33-1.06,0-.71.87-1.38,1.79-1.38.57,0,.92.24,1.38.92.57.84.95,1.63.95,2.03,0,.79-.92,1.52-1.9,1.52Z"/>
        <path class="cls-8" d="M100.57,163.35c-.16.03-.38.05-.54.05-1,0-1.6-.68-1.6-1.79,0-1.41.98-1.54,1.3-1.57.38-.41.81-1,1.3-1.71-.38-.41-1.19-1.19-1.49-1.44-.87-.65-1.03-.87-1.03-1.41,0-.87.71-1.65,1.57-1.74.41-.65.87-1.54,1.22-2.36.24-.52.6-.73,1.19-.73.81,0,1.55.62,1.55,1.3,0,.54-.49,1.46-1.79,3.42.22.24.3.33.46.46.16-.22.24-.38.38-.6.76-1.44.98-1.63,1.68-1.63.79,0,1.41.57,1.41,1.3,0,.22-.14.6-.38.95-.79,1.27-2.14,3.23-2.71,3.93l1.33-.13c-.05-.27-.14-.6-.14-.9,0-.51.54-.92,1.19-.92.52,0,.84.3.98.98.16.71.33,1.79.35,2.3v-6.21c0-2.12.76-2.2,2.09-2.3.08-.22.13-.38.35-1.22.24-.84.68-1.14,1.68-1.14,1.22,0,2.09.52,2.09,1.22,0,.41-.16.76-.3,1.14,1.3,0,2.6,0,2.68,1.49.33-.33.68-.49,1.14-.49.22-.46.33-.81.46-1.22.46-1.6.65-1.84,1.52-1.84.92,0,1.63.57,1.63,1.33,0,1.11-1.17,3.28-1.36,3.58.14.16.22.3.35.46.33-.65.73-1.57,1-1.92.22-.3.46-.41.79-.41.81,0,1.65.71,1.65,1.41,0,.65-.27,1.14-1.44,3.06-.52.84-.92,1.46-1.25,1.92l1.17-.16c-.05-.22-.13-.43-.13-.73,0-.51.54-.89,1.27-.89s1.06.35,1.19,1.44c.11.92.27,2.33.27,3.12,0,.73-.46,1.11-1.33,1.11s-.89-.3-1.03-1.03l-3.93.51c-.27.03-.46.05-.62.05-.65,0-1.22-.43-1.38-1.06-.3.98-.87,1.17-2.28,1.17v1.14h8.81c.89,0,1.38.62,1.38,1.71s-.49,1.71-1.38,1.71h-5.4c1.87,1.38,3.42,2.2,6.07,3.15.87.3,1.19.73,1.19,1.57,0,1.25-.73,2.14-1.76,2.14-1.98,0-6.75-2.71-8.92-5.13v4.18c0,1.03-.73,1.63-2.01,1.63s-2.03-.57-2.03-1.63v-4.07c-2.71,2.74-6.81,5.04-8.84,5.04-1.03,0-1.74-.89-1.74-2.22,0-.87.3-1.22,1.19-1.46.49-.11,1.36-.43,2.58-.98,1.52-.65,2.85-1.68,3.53-2.22h-5.61c-.87,0-1.36-.62-1.36-1.71s.49-1.71,1.36-1.71h8.89s0-1.14,0-1.14c-.95,0-1.87-.11-2.14-1.06.05,1-.46,1.41-1.28,1.41-.76,0-.81-.41-.9-1.14l-4.17.62ZM112.39,156.79c0-1.11,0-1.25-.6-1.25h-1.52c-.57,0-.57.14-.57,1.25h2.68ZM111.79,160.47c.6,0,.6-.14.6-1.25h-2.68c0,1.11,0,1.25.57,1.25h1.52ZM115.45,161.02c.19-.57.51-.79,1.06-.79.22-.3.51-.73,1.11-1.68-.38-.54-.95-1.25-2.17-2.58v5.04Z"/>
        <path class="cls-8" d="M126.18,154.16c0-2.36.76-3.12,3.09-3.12h17.79c2.33,0,3.09.76,3.09,3.12v17.62c0,2.33-.76,3.09-3.09,3.09h-17.79c-2.33,0-3.09-.76-3.09-3.09v-17.62ZM144.57,164.22c0,.43-.19.92-.49,1.22.65.05,1.27.68,1.27,1.25,0,.38-.11.54-.84,1.27.92.19,1.22.57,1.22,1.38,0,.95-.62,1.63-1.52,1.63-.43,0-1.98-.24-4.45-2.03v1.08c0,.73-.33,1.17-1.11,1.41h6.75c.62,0,.84-.22.84-.84v-15.35c0-.62-.21-.84-.84-.84h-6.21c.43.19.68.46.81.92h4.2c.62,0,.95.43.95,1.19s-.33,1.19-.95,1.19h-4.15v.7h4.64c.65,0,1,.46,1,1.25s-.35,1.25-1,1.25h-13.18c-.62,0-.98-.44-.98-1.25s.35-1.25.98-1.25h4.66s0-.7,0-.7h-3.99c-.62,0-.98-.43-.98-1.19s.35-1.19.98-1.19h4.04c.14-.46.38-.73.81-.92h-6.18c-.62,0-.84.22-.84.84v15.35c0,.62.21.84.84.84h6.24c-.76-.22-1.11-.65-1.11-1.41v-1.6c-1.25,1.25-3.12,2.36-3.99,2.36-.79,0-1.44-.81-1.44-1.76,0-.73.27-1.06,1.08-1.38,1.14-.43,1.95-.92,2.77-1.65h-.98c-1.38,0-1.79-.38-1.79-1.79v-.81c0-1.41.41-1.79,1.79-1.79h9.33c1.41,0,1.79.38,1.79,1.79v.84ZM135.67,163.35c-.33,0-.33.19-.33.46,0,.22.11.33.33.33h5.07c.33,0,.33-.19.33-.46,0-.22-.11-.33-.33-.33h-5.07ZM140.5,165.98c.46.41.84.71,1.27.95.38-.27.76-.62,1.06-.98-.3.03-.43.03-.51.03h-1.82Z"/>
      </g>
    </g>
  </g>
</svg>