<?xml version="1.0" encoding="UTF-8"?>
<svg id="_內容" data-name="內容" xmlns="http://www.w3.org/2000/svg" viewBox="0 0 276.51 30.86">
  <defs>
    <style>
      .cls-1 {
        fill: #b8ddc2;
      }

      .cls-2 {
        fill: #51bfb7;
      }
    </style>
  </defs>
  <g>
    <polygon class="cls-2" points="260.59 14.57 260.59 14.57 260.59 14.57 260.59 14.57"/>
    <path class="cls-2" d="M259.03,14.24s.01.02.02.02c.03,0,.04.03.06.03,0,0,.01.02.02.02.01,0,.03,0,.04,0,0,0,.01.02.02.02.01,0,.03,0,.04,0,0,0,.01.02.02.02.01,0,.03,0,.04,0h0s.03,0,.04,0c0,0,.01.02.02.02.01,0,.03,0,.04,0,.02,0,.04.02.06.03.01,0,.03,0,.04,0h0s.03,0,.04,0h0s.03,0,.04,0h0s.04.03.06.03h0s.03,0,.04,0c.01,0,.03,0,.04,0,.01,0,.03,0,.04,0,.01,0,.03,0,.04,0,.08,0,.15,0,.22.02.06.02.11.03.17.02.01,0,.03,0,.04,0,.01,0,.03,0,.04,0h0s.03,0,.04,0h0s.03,0,.04,0h0s.03,0,.04,0h0s.03,0,.04,0c.02-.02.05-.02.07-.01.01,0,.03,0,.04,0,.02,0,.05-.02.07-.01.01,0,.03,0,.04,0,.01,0,.03,0,.04,0,0,0,.02,0,.03,0,0,0,0,0,.02.01.02,0,.05,0,.07-.01.01,0,.03,0,.04,0,0,0,.02-.01.03-.02.01,0,.03,0,.04,0h0s.03,0,.04,0c0,0,.02-.01.03-.02.01,0,.03,0,.04,0,0,0,.02-.01.03-.02.01,0,.03,0,.04,0,0,0,.02-.01.03-.02.01,0,.03,0,.04,0h0s.03,0,.04,0c.02,0,.05,0,.07-.01.01,0,.03,0,.04,0,.04,0,.08,0,.11,0,.01,0,.03,0,.04,0h0s.03,0,.04,0c.01,0,.03,0,.04,0h0s.03,0,.04,0c.04,0,.08,0,.11,0,.01,0,.03,0,.04,0h0s.03,0,.04,0h0s.03,0,.04,0h0s.03,0,.04,0h0s.03,0,.04,0h0s.03,0,.04,0h0s.03,0,.04,0c.05,0,.11,0,.16,0,.01,0,.03,0,.04,0h0s.03,0,.04,0h0s.03,0,.04,0h0s.03,0,.04,0h0s.03,0,.04,0h0s.03,0,.04,0h0s.03,0,.04,0c.01,0,.03,0,.04,0,.01,0,.03,0,.04,0,.01,0,.03,0,.04,0h0s.03,0,.04,0h0s.03,0,.04,0h0s.03,0,.04,0h0s.03,0,.04,0h0s.03,0,.04,0h0s.03,0,.04,0h0s.03,0,.04,0h0s.03,0,.04,0h0s.03,0,.04,0h0s.03,0,.04,0c.07-.01.13,0,.2.01.18.01.35.05.53.05.01,0,.03,0,.04,0h0s.03,0,.04,0c.04.02.08.02.13.01.01,0,.03,0,.04,0h0s.03,0,.04,0h0s.03,0,.04,0h0s.03,0,.04,0h0s.03,0,.04,0h0s.03,0,.04,0h0s.03,0,.04,0h0s.03,0,.04,0h0s.03,0,.04,0h0s.03,0,.04,0h0s.03,0,.04,0h0s.03,0,.04,0h0s.03,0,.04,0h0s.03,0,.04,0h0s.03,0,.04,0h0s.03,0,.04,0h0s.03,0,.04,0h0s.03,0,.04,0h0s.03,0,.04,0h0s.03,0,.04,0h0s.03,0,.04,0h0s.03,0,.04,0h0s.03,0,.04,0h0s.03,0,.04,0h0s.03,0,.04,0h0s.03,0,.04,0h0s.03,0,.04,0h0s.03,0,.04,0h0s.03,0,.04,0h0s.03,0,.04,0h0s.03,0,.04,0h0s.03,0,.04,0h0s.03,0,.04,0h0s.03,0,.04,0h0s.03,0,.04,0h0s.03,0,.04,0h0s.03,0,.04,0h0s.03,0,.04,0h0s.03,0,.04,0h0s.03,0,.04,0h0s.03,0,.04,0h0s.03,0,.04,0h0s.03,0,.04,0h0s.03,0,.04,0h0s.03,0,.04,0h0s.03,0,.04,0h0s.03,0,.04,0h0s.03,0,.04,0h0s.03,0,.04,0h0s.03,0,.04,0h0s.03,0,.04,0h0s.03,0,.04,0h0s.03,0,.04,0h0s.03,0,.04,0h0s.03,0,.04,0h0s.03,0,.04,0h0s.03,0,.04,0h0s.03,0,.04,0c.01,0,.03,0,.04,0,.01,0,.03,0,.04,0,.01,0,.03,0,.04,0,.01,0,.03,0,.04,0,.01,0,.03,0,.04,0,.01,0,.03,0,.04,0h0s.03,0,.04,0h0s.03,0,.04,0h0s.03,0,.04,0h0s.03,0,.04,0h0s.03,0,.04,0h0s.03,0,.04,0h0s.03,0,.04,0h0s.03,0,.04,0h0s.03,0,.04,0h0s.03,0,.04,0c.08,0,.16,0,.25,0,.01,0,.03,0,.04,0h0s.03,0,.04,0h0s.03,0,.04,0h0s.03,0,.04,0h0s.03,0,.04,0h0s.03,0,.04,0h0s.03,0,.04,0c.01,0,.03,0,.04,0,.01,0,.03,0,.04,0h0s.03,0,.04,0h0s.03,0,.04,0h0s.03,0,.04,0h0s.03,0,.04,0c.04,0,.08,0,.11,0,.01,0,.03,0,.04,0h0s.03,0,.04,0h0s.03,0,.04,0h0s.03,0,.04,0h0s.03,0,.04,0h0s.03,0,.04,0h0s.03,0,.04,0h0s.03,0,.04,0c.02,0,.05,0,.07-.01.01,0,.03,0,.04,0h0s.03,0,.04,0h0s.03,0,.04,0c.01,0,.03,0,.04,0h0s.02,0,.03.01c0,0,0,0,.02,0,.01,0,.02,0,.03,0,.01,0,.02,0,.03,0,.01,0,.02,0,.03,0,0,0,.01,0,.02,0,.01,0,.02,0,.03,0,0,0,.01,0,.02,0,.01,0,.02,0,.03,0,.02,0,.05,0,.07,0,.01,0,.02,0,.03,0,0,0,.01,0,.02,0,.01,0,.02,0,.03,0,0,0,.01,0,.02,0,.01,0,.02,0,.03,0,.02,0,.05,0,.07,0,.01,0,.02,0,.03,0,0,0,.01,0,.02,0,.01,0,.02,0,.03,0,.01,0,.02,0,.03,0,.01,0,.02,0,.03,0,0,0,.01,0,.02,0,.01,0,.02,0,.03,0,.01,0,.02,0,.03,0,.01,0,.02,0,.03,0,0,0,.01,0,.02,0,.01,0,.02,0,.03,0,.01,0,.02,0,.03,0,.02,0,.03,0,.05-.02,0,0,.01,0,.01-.01,0,0,.02,0,.03,0,0,0,.01,0,.02,0,.01,0,.02,0,.04,0,0,0,.01,0,.02,0,.01,0,.02,0,.03,0,.01,0,.02,0,.03,0,.01,0,.02,0,.03,0,0,0,.02,0,.02,0,.01,0,.02,0,.03,0,0,0,.01,0,.02,0,.01,0,.02,0,.03,0,.01,0,.02,0,.03,0,.01,0,.02,0,.03,0,0,0,.02,0,.02,0,.01,0,.02,0,.03,0,0,0,.02,0,.02,0,.01,0,.02,0,.03,0,0,0,.01,0,.02,0,.01,0,.02,0,.03,0,.01,0,.02,0,.03,0,.01,0,.02,0,.03,0,0,0,.02,0,.02,0,.01,0,.02,0,.03,0,0,0,.01,0,.02,0,.01,0,.02,0,.03,0,0,0,0,0,.01,0,.01,0,.02,0,.03,0,.02,0,.04,0,.07,0,.01,0,.02,0,.03,0,0,0,.01,0,.02,0,.01,0,.02,0,.03,0,0,0,.01,0,.02,0,.01,0,.02,0,.03,0,0,0,.01,0,.02,0,.01,0,.02,0,.03,0,.01,0,.02,0,.03.01,0,0,.01,0,.02,0,.01,0,.02,0,.03,0,.02,0,.05,0,.07,0,.01,0,.02,0,.03,0,0,0,.01,0,.02,0,.01,0,.02,0,.03,0,0,0,.01,0,.02,0,.01,0,.02,0,.03,0,0,0,.01,0,.02,0,.01,0,.02,0,.03,0,0,0,.01,0,.02,0,.01,0,.02,0,.03,0h0s.03,0,.04,0h0s.03,0,.04,0h0s.02,0,.03.01c0,0,.01,0,.02,0,.01,0,.02,0,.04,0,.03,0,.06,0,.09,0,.01,0,.02,0,.04,0,0,0,.01,0,.02,0,.01,0,.02,0,.03,0,0,0,.01,0,.02,0,.01,0,.02,0,.03,0,0,0,.01,0,.02,0,.01,0,.02,0,.03,0,0,0,.02,0,.02,0,.01,0,.02,0,.03,0,0,0,.02,0,.02,0,.01,0,.02,0,.03,0,0,0,.01,0,.02,0,.01,0,.02,0,.03,0,0,0,.01,0,.02,0,.01,0,.02,0,.03,0,.01,0,.03,0,.04,0h0s.03,0,.04,0h0s.03,0,.04,0h0s.03,0,.04,0h0s.03,0,.04,0h0s.03,0,.04,0h0s.03,0,.04,0h0s.02,0,.03.01c0,0,.01,0,.02,0,.01,0,.02,0,.03,0,0,0,.01,0,.02,0,.01,0,.02,0,.03,0,0,0,.01,0,.02,0,.01,0,.02,0,.04,0,.05,0,.09,0,.14,0,.01,0,.03,0,.04,0,0,0,.01,0,.02,0,.01,0,.03,0,.04,0,.01,0,.02,0,.03,0,.03,0,.06,0,.09,0,.01,0,.03,0,.04,0h0s.03,0,.04,0h0s.03,0,.04,0h0s.03,0,.04,0h0s.03,0,.04,0h0s.03,0,.04,0h0s.03,0,.04,0h0s.03,0,.04,0h0s.03,0,.04,0h0s.03,0,.04,0h0s.03,0,.04,0c.01,0,.03,0,.04,0h.04s.03,0,.04,0c.01,0,.03,0,.04,0,.01,0,.03,0,.04,0s.03,0,.04,0c.01,0,.03,0,.04,0,.01,0,.03,0,.04,0h0s.03,0,.04,0h0s.03,0,.04,0c.05,0,.11,0,.16,0,.01,0,.03,0,.04,0h0s.03,0,.04,0h0s.03,0,.04,0h0s.03,0,.04,0h0s.03,0,.04,0h0s.03,0,.04,0c.01,0,.03,0,.04,0,.01,0,.03,0,.04,0,.04,0,.08,0,.11,0,.01,0,.03,0,.04,0h0s.03,0,.04,0h0s.03,0,.04,0c.01,0,.03,0,.04,0h0s.03,0,.04,0c.02,0,.05,0,.07-.01.01,0,.03,0,.04,0h0s.03,0,.04,0c.02,0,.05,0,.07-.01.01,0,.03,0,.04,0,.01,0,.03,0,.04,0,0,0,.02-.01.03-.02.01,0,.03,0,.04,0,0,0,.02-.01.03-.02.01,0,.03,0,.04,0,0,0,.02-.01.03-.02.01,0,.03,0,.04,0,.02-.01.04-.02.05-.04.01,0,.03,0,.04,0,.02-.01.04-.02.05-.04,0,0,0,0,0,0,0,0,0,0,.01,0,.04-.01.06-.05.1-.05h0s.08,0,.11-.04c.09-.11.22-.17.33-.25.02,0,.03-.02.04-.03,0,0,.02,0,.03,0,.03-.01.05-.04.06-.07,0,0,.02-.01.03-.02.01-.05.07-.05.1-.07.02-.01.03-.03.05-.04.02-.02.04-.04.06-.06.02-.02.04-.04.06-.06.02-.03.04-.06.07-.07,0,0,.02-.02.03-.03.02-.02.03-.04.05-.06.01-.01.03-.03.04-.04.01-.01.02-.03.03-.05,0,0,.01-.02.02-.03,0-.01.02-.03.03-.04,0,0,.02-.02.02-.03,0-.01.02-.03.02-.05,0-.01,0-.02,0-.03h0s.03-.04.04-.06h0s0-.03.01-.04c0,0,.02-.01.03-.02,0-.01,0-.03.01-.04,0,0,.02-.01.03-.02,0-.01,0-.03.01-.04,0-.01,0-.03.01-.04h0s0-.03.01-.04h0s0-.03.01-.04h0s0-.03.01-.04c0-.02,0-.04,0-.06,0,0,0,0,0-.01,0-.01.01-.03.01-.04,0-.02,0-.04,0-.05,0-.01,0-.02,0-.03,0-.02,0-.03,0-.05,0-.01,0-.02,0-.03,0-.01,0-.02,0-.03,0-.01,0-.02,0-.03,0-.01,0-.02,0-.03,0-.01,0-.02,0-.03,0-.01,0-.02,0-.03,0-.01,0-.02,0-.03,0-.02,0-.03,0-.05,0-.01,0-.02,0-.03,0-.01,0-.03,0-.04,0,0,0-.02,0-.03,0-.01,0-.03-.01-.04,0,0,0-.02,0-.03,0-.01,0-.03,0-.04,0-.01,0-.02,0-.03,0-.01,0-.03,0-.04,0-.02,0-.03-.01-.04,0-.01,0-.03,0-.04,0,0,0-.02,0-.03,0-.02,0-.03,0-.05,0-.02,0-.03-.01-.04,0-.02,0-.03,0-.05,0-.01,0-.02,0-.03,0-.02,0-.03-.01-.05,0-.01,0-.02,0-.04,0-.02,0-.04,0-.06,0-.01,0-.03-.01-.04,0,0,0-.02-.01-.02,0,0,0-.02,0-.03,0-.02-.01-.04-.01-.06,0-.01,0-.02,0-.03,0-.02,0-.03,0-.05,0-.02,0-.03-.01-.04,0-.01,0-.03,0-.05,0-.02,0-.03-.01-.04,0-.02,0-.03-.01-.05,0-.01,0-.02,0-.03,0-.02-.01-.04-.01-.06,0-.01,0-.02,0-.03,0-.02-.01-.05-.02-.07,0-.01,0-.03-.02-.04,0,0,0-.01-.01-.02,0-.01,0-.02,0-.04,0-.02-.01-.05-.02-.07,0-.01,0-.02-.01-.03,0-.02-.01-.03-.02-.05,0-.02,0-.04-.02-.06,0-.01-.01-.03-.02-.04,0,0-.01-.02-.02-.03,0,0,0-.01-.01-.02,0-.01,0-.03,0-.04-.01-.02-.02-.03-.03-.05,0-.01,0-.03,0-.04-.01-.02-.02-.03-.03-.05,0-.02-.02-.04,0-.07,0,0-.01-.02-.02-.02,0-.02-.02-.04,0-.07-.01-.02-.02-.03-.03-.05,0-.01,0-.03,0-.04-.01-.02-.02-.03-.03-.05,0-.01,0-.03,0-.04-.01-.02-.02-.03-.03-.05,0-.02-.02-.04,0-.07-.01-.02-.02-.03-.03-.05,0-.01,0-.03,0-.04-.01-.02-.02-.03-.03-.05,0-.02-.02-.04,0-.07-.01-.02-.02-.03-.03-.05,0-.01,0-.03,0-.04-.01-.02-.02-.03-.03-.05,0-.02-.02-.04,0-.07-.01-.02-.02-.03-.03-.05,0-.02-.02-.04,0-.07-.01-.02-.02-.03-.03-.05,0-.02-.02-.04,0-.07-.01-.02-.02-.03-.03-.05,0-.01,0-.03,0-.04-.01-.02-.02-.03-.03-.05,0-.02-.02-.04,0-.07-.02-.02-.03-.05-.05-.07,0-.01,0-.03,0-.04-.02-.02-.03-.05-.05-.07,0-.01,0-.03,0-.04-.02-.02-.03-.05-.05-.07,0-.01,0-.03,0-.04-.02-.02-.03-.05-.05-.07,0-.02-.02-.04,0-.07-.02-.02-.03-.05-.05-.07,0-.01,0-.03,0-.04-.02-.03-.04-.06-.07-.1,0-.02-.02-.04,0-.07-.01-.02-.02-.03-.03-.05,0-.02,0-.03-.01-.04,0,0,0-.01.01-.02,0-.03,0-.06-.02-.09-.02-.02-.03-.05-.03-.08-.01-.03-.03-.06-.05-.09-.02-.02-.02-.05-.03-.07,0-.03-.02-.05-.04-.07-.02-.02-.06-.03-.05-.08,0,0-.01-.02-.02-.02,0-.02,0-.04-.01-.06-.03-.03-.07-.05-.06-.1,0,0-.01-.02-.02-.02,0-.02,0-.05-.01-.07-.04-.04-.08-.07-.07-.14,0-.04-.02-.07-.05-.1-.04-.02-.07-.06-.06-.11,0-.04-.02-.07-.05-.1-.04-.02-.07-.05-.06-.11,0-.03-.01-.06-.03-.08-.03-.04-.09-.05-.09-.12,0,0-.01-.02-.02-.02,0-.04,0-.08-.04-.11-.04-.03-.09-.06-.09-.13h0s0-.08-.03-.11c-.04-.03-.08-.05-.07-.1,0,0-.01-.02-.02-.02,0-.03,0-.06-.02-.09-.03-.04-.09-.06-.09-.12,0,0-.01-.02-.02-.02,0-.03,0-.07-.02-.09-.04-.04-.1-.07-.1-.14,0,0-.01-.02-.02-.02,0-.03,0-.07-.02-.09-.04-.04-.1-.07-.1-.14,0,0-.01-.02-.02-.02,0-.04,0-.08-.04-.11-.04-.03-.09-.06-.09-.13,0,0-.01-.02-.02-.02,0-.05,0-.08-.03-.12-.06-.04-.11-.09-.12-.17h0s0-.08-.03-.11c-.05-.04-.11-.07-.11-.14h0s0-.08-.03-.11c-.05-.04-.11-.07-.11-.14,0,0-.01-.02-.02-.02,0-.03,0-.07-.02-.09-.04-.04-.1-.07-.1-.14-.01-.02-.02-.03-.03-.05,0-.05,0-.08-.04-.11-.05-.04-.09-.08-.1-.15,0,0-.01-.02-.02-.02,0-.05,0-.08-.03-.12-.06-.04-.11-.09-.12-.17,0,0-.01-.02-.02-.02,0-.05,0-.08-.04-.11-.06-.05-.11-.11-.13-.19h0c0-.06-.01-.1-.05-.13-.05-.04-.09-.08-.11-.15-.01-.02-.02-.03-.03-.05,0-.05,0-.08-.03-.12-.06-.04-.11-.09-.12-.17,0,0-.01-.02-.02-.02,0-.06-.01-.1-.05-.13-.06-.04-.11-.1-.12-.17-.01-.02-.02-.03-.03-.05,0-.05,0-.08-.03-.12-.06-.05-.12-.1-.14-.19-.01-.02-.02-.03-.03-.05,0-.05,0-.08-.03-.12-.07-.04-.1-.11-.14-.16,0,0,0,0,0,0,0,0,0,0,0,0,0,0,.01,0,.02-.02-.01-.02-.02-.03-.03-.05,0,0-.01-.02-.02-.03-.01-.03-.03-.06-.05-.09,0-.02-.01-.03-.03-.04,0,0,0-.02-.01-.02-.02-.04-.05-.07-.07-.11,0,0,0,0,0-.02-.02-.03-.04-.06-.07-.1l-.02-.03s-.03-.08-.07-.12c-.03-.07-.11-.12-.12-.2-.02-.02-.03-.05-.05-.07,0-.05,0-.09-.04-.12-.03-.02-.06-.05-.09-.07,0,0,0-.01,0-.02-.04-.08-.11-.13-.13-.22-.02-.03-.04-.06-.07-.1.01-.08-.02-.13-.08-.17-.04-.02-.07-.06-.1-.1-.14-.2-.29-.41-.43-.61,0-.03-.02-.06-.05-.08-.03-.02-.07-.01-.09-.05,0-.01-.01-.02-.02-.03-.02-.02-.04-.03-.05-.04,0,0-.02-.01-.03-.02-.01,0-.03-.01-.04-.02,0,0-.02,0-.03-.01-.01,0-.03-.01-.04-.02,0,0-.02-.01-.03-.01-.02,0-.03-.02-.05-.02-.01,0-.03,0-.04,0-.01,0-.03,0-.04,0-.14.03-.28.03-.41.05-.36.06-.71.16-.97.47-.05.06-.11.09-.17.12-.01,0-.03.02-.04.03-.01.01-.02.02-.03.03-.02.02-.02.05-.03.08,0,.02-.03.04-.04.06,0,0-.02.01-.03.02,0,.01,0,.03-.01.04,0,0-.02.01-.03.02,0,.01,0,.03-.01.04,0,0-.02.01-.03.02,0,.01,0,.03-.01.04h0s-.03.04-.04.06h0s0,.03-.01.04c0,0-.02.01-.03.02,0,.01,0,.03-.01.04,0,0-.02.01-.03.02,0,.01,0,.03-.01.04h0s0,.03-.01.04c0,0-.02.01-.03.02,0,.01,0,.03-.01.04,0,0-.02.01-.03.02,0,.01,0,.03-.01.04,0,0-.02.01-.03.02,0,.01,0,.03-.01.04,0,0-.02.01-.03.02,0,.02-.03.04-.04.06h0s-.03.04-.04.06c0,0-.02.01-.03.02,0,.01,0,.03-.01.04-.02.01-.04.03-.05.04,0,.01,0,.03-.01.04,0,0-.02.01-.03.02,0,.03-.03.04-.04.06,0,0-.02.01-.03.02,0,.02-.03.04-.04.06,0,0-.02.01-.03.02,0,.02-.03.04-.04.06,0,0-.02.01-.03.02,0,.02-.03.04-.04.06,0,0-.02.01-.03.02,0,.02-.03.04-.04.06,0,0-.02.01-.03.02,0,.02-.03.04-.04.06,0,0-.02.01-.03.02,0,.02-.03.04-.04.06,0,0-.02.01-.03.02,0,.02-.03.04-.04.06-.02.01-.04.03-.05.04,0,.01,0,.03-.01.04-.02.01-.04.03-.05.04,0,.02-.03.04-.04.06,0,0-.02.01-.03.02,0,.02-.03.04-.04.06,0,0-.02.01-.03.02,0,.02-.03.04-.04.06-.02.01-.04.03-.05.04,0,.02-.03.04-.04.06,0,0-.02.01-.03.02,0,.02-.03.04-.04.06-.02.01-.04.03-.05.04,0,.02-.03.04-.04.06,0,0-.02.01-.03.02,0,.02-.03.04-.04.06,0,0-.02.01-.03.02,0,.02-.03.04-.04.06-.02.01-.04.03-.05.04,0,.02-.03.04-.04.06,0,0-.02.01-.03.02,0,.02-.03.04-.04.06-.02.01-.04.03-.05.04,0,.02-.03.04-.04.06,0,0-.02.01-.03.02,0,.02-.03.04-.04.06-.02.01-.04.03-.05.04,0,.02-.03.04-.04.06,0,0-.02.01-.03.02,0,.04-.06.04-.06.08,0,0-.02.01-.03.02,0,.02-.03.04-.04.06-.02.01-.04.03-.05.04,0,.02-.03.04-.04.06,0,0-.02.01-.03.02,0,.02-.03.04-.04.06-.02.01-.04.03-.05.04,0,.02-.03.04-.04.06,0,0-.02.01-.03.02,0,.02-.03.04-.04.06-.02.01-.04.03-.05.04,0,.02-.03.04-.04.06,0,0-.02.01-.03.02,0,.04-.06.04-.06.08,0,0-.02.01-.03.02,0,.02-.03.04-.04.06,0,0-.02.01-.03.02,0,.04-.06.04-.06.08,0,0-.02.01-.03.02,0,.02-.03.04-.04.06,0,0-.02.01-.03.02,0,.04-.06.04-.06.08,0,0-.02.01-.03.02,0,.02-.03.04-.04.06-.02.01-.04.03-.05.04,0,.02-.03.04-.04.06,0,0-.02.01-.03.02,0,.02-.03.04-.04.06,0,0-.02.01-.03.02,0,.04-.06.04-.06.08,0,0-.02.01-.03.02,0,.02-.03.04-.04.06,0,0-.02.01-.03.02,0,.02-.03.04-.04.06-.02.01-.04.03-.05.04,0,.02-.03.04-.04.06,0,0-.02.01-.03.02,0,.04-.06.04-.06.08,0,0-.02.01-.03.02,0,.02-.03.04-.04.06,0,0-.02.01-.03.02,0,.02-.03.04-.04.06-.02.01-.04.03-.05.04,0,.02-.03.04-.04.06,0,0-.02.01-.03.02,0,.02-.03.04-.04.06-.02.01-.04.03-.05.04,0,.02-.03.04-.04.06,0,0-.02.01-.03.02,0,.02-.03.04-.04.06,0,0-.02.01-.03.02,0,.02-.03.04-.04.06-.02.01-.04.03-.05.04,0,.02-.03.04-.04.06,0,0-.02.01-.03.02,0,.02-.03.04-.04.06,0,0-.02.01-.03.02,0,.02-.03.04-.04.06,0,0-.02.01-.03.02,0,.02-.03.04-.04.06,0,0-.02.01-.03.02,0,.04-.06.04-.06.08,0,0-.02.01-.03.02,0,0,0,.02,0,.03-.02,0-.03.02-.03.03,0,0-.02.01-.03.02,0,.03-.03.04-.04.06,0,0-.02.01-.03.02,0,.03-.03.04-.04.06-.02.01-.04.03-.05.04,0,.01,0,.03-.01.04-.02.01-.04.03-.05.04,0,.03-.03.04-.04.06,0,0-.02.01-.03.02,0,.03-.03.04-.04.06,0,0-.02.01-.03.02,0,.03-.03.04-.04.06,0,0-.02.01-.03.02,0,.03-.03.04-.04.06,0,0-.02.01-.03.02,0,.03-.03.04-.04.06,0,0-.02.01-.03.02,0,.03-.03.04-.04.06,0,0-.02.01-.03.02,0,.03-.03.04-.04.06,0,0-.02.01-.03.02,0,.03-.03.04-.04.06,0,0-.02.01-.03.02,0,.03-.03.04-.04.06,0,0-.02.01-.03.02,0,.03-.03.04-.04.06,0,0-.02.01-.03.02,0,.03-.03.04-.04.06,0,0-.02.01-.03.02,0,.01,0,.03-.01.04-.02.01-.04.03-.05.04,0,.01,0,.03-.01.04-.02.01-.04.03-.05.04,0,.01,0,.03-.01.04,0,0-.02.01-.03.02,0,.03-.03.04-.04.06,0,0-.02.01-.03.02,0,.03-.03.04-.04.06,0,0-.02.01-.03.02,0,.03-.03.04-.04.06,0,0-.02.01-.03.02,0,.03-.03.04-.04.06,0,0-.02.01-.03.02,0,.01,0,.03-.01.04-.02.01-.04.03-.05.04,0,.01,0,.03-.01.04-.02.01-.04.03-.05.04,0,.01,0,.03-.01.04,0,0-.02.01-.03.02,0,.03-.03.04-.04.06,0,0-.02.01-.03.02,0,.03-.03.04-.04.06,0,0-.02.01-.03.02,0,.01,0,.03-.01.04-.02.01-.04.03-.05.04,0,.01,0,.03-.01.04-.02.01-.04.03-.05.04,0,.01,0,.03-.01.04,0,0-.02.01-.03.02,0,0,0,0,0,.01,0,0,0,0,0,0-.02.01-.03.02-.04.04,0,.02-.03.04-.04.06,0,0-.02.01-.03.02,0,.03-.03.04-.04.06,0,0-.02.01-.03.02,0,.02-.03.04-.04.06,0,0-.02.01-.03.02,0,.02-.03.04-.04.06h-.01s-.01.02-.01.02c0,.01,0,.03-.01.04,0,0-.02.01-.03.02,0,.03-.03.04-.04.06,0,0-.02.01-.03.02,0,.02-.03.04-.04.06h-.01s-.01.02-.01.02c0,.01,0,.03-.01.04,0,0-.02.01-.03.02,0,.03-.03.04-.04.06,0,0-.02.01-.03.02,0,.03-.03.04-.04.06h-.01s-.01.02-.01.02c0,.01,0,.03-.01.04,0,0-.02.01-.03.02,0,.03-.03.04-.04.06,0,0-.02.01-.03.02,0,.02-.03.04-.04.06,0,0-.02.01-.03.02,0,.01,0,.03-.01.04,0,0-.02.01-.03.02,0,.03-.03.04-.04.06,0,0-.02.01-.03.02,0,.02-.03.04-.04.06,0,0-.02.01-.03.02,0,.01,0,.03-.01.04,0,0-.02.01-.03.02,0,.03-.03.04-.04.06,0,0-.02.01-.03.02,0,.01,0,.03-.01.04-.02.01-.04.03-.05.04,0,.01,0,.03-.01.04,0,0-.02.01-.03.02,0,.03-.03.04-.04.06h-.01s-.01.02-.01.02c0,.01,0,.03-.01.04,0,0-.02.01-.03.02,0,.03-.03.04-.04.06,0,0-.02.01-.03.02,0,.01,0,.03-.01.04,0,0-.02.01-.03.02,0,.03-.03.04-.04.06,0,0-.02.01-.03.02,0,.02-.03.04-.04.06h-.01s-.01.02-.01.02c0,.01,0,.03-.01.04,0,0-.02.01-.03.02,0,.02-.03.04-.04.06,0,0-.02.01-.03.02,0,.01,0,.03-.01.04,0,0-.02.01-.03.02,0,.03-.03.04-.04.06h-.01s-.01.02-.01.02c0,.01,0,.03-.01.04,0,0-.02.01-.03.02,0,.03-.03.04-.04.06,0,0-.02.01-.03.02,0,.01,0,.03-.01.04,0,0-.02.01-.03.02,0,.03-.03.04-.04.06,0,0-.02.01-.03.02,0,.01,0,.03-.01.04,0,0-.02.01-.03.02,0,.03-.03.04-.04.06,0,0-.02.01-.03.02,0,.01,0,.03-.01.04,0,0-.02.01-.03.02,0,.03-.03.04-.04.06h-.01s-.01.02-.01.02c0,.01,0,.03-.01.04,0,0-.02.01-.03.02,0,.01,0,.03-.01.04,0,0-.02.01-.03.02,0,.03-.03.04-.04.06,0,0-.02.01-.03.02,0,.01,0,.03-.01.04,0,0-.02.01-.03.02,0,.02-.03.04-.04.06,0,.02-.03.04-.04.06,0,0-.02.01-.03.02,0,.01,0,.03-.01.04,0,0-.02.01-.03.02,0,.01,0,.03-.01.04,0,0-.02.01-.03.02,0,.03-.03.04-.04.06,0,0-.02.01-.03.02,0,.01,0,.03-.01.04,0,0-.02.01-.03.02,0,.01,0,.03-.01.04,0,0-.02.01-.03.02,0,.01,0,.03-.01.04,0,0-.02.01-.03.02,0,.01,0,.03-.01.04,0,0-.02.01-.03.02,0,.01,0,.03-.01.04,0,0-.02.01-.03.02,0,.01,0,.03-.01.04,0,0-.02.01-.03.02,0,.01,0,.03-.01.04h0s-.03.04-.04.06h0s0,.03-.01.04h0s.01.04,0,.07c0,0,.01.02.02.02,0,.02.01.04,0,.07h0s.01.04,0,.07c0,0,.01.02.02.02,0,.01,0,.03,0,.04,0,0,.01.02.02.02,0,.02.01.04,0,.07,0,.02.01.04,0,.07,0,0,.01.02.02.02,0,.01,0,.03,0,.04,0,0,.01.02.02.02,0,.01,0,.03,0,.04,0,0,.01.02.02.02,0,.02.01.04,0,.07h0s.01.04,0,.07c0,0,.01.02.02.02,0,.01,0,.03,0,.04,0,0,.01.02.02.02,0,.01,0,.03,0,.04,0,0,.01.02.02.02,0,.01,0,.03,0,.04,0,0,.01.02.02.02,0,.01,0,.03,0,.04,0,0,.01.02.02.02,0,.01,0,.03,0,.04,0,0,.01.02.02.02,0,.01,0,.03,0,.04,0,0,.01.02.02.02.01.06.05.11.1.14Z"/>
    <polygon class="cls-2" points="259.69 14.49 259.69 14.49 259.69 14.49 259.69 14.49"/>
  </g>
  <g>
    <polygon class="cls-1" points="98.37 4.06 98.37 4.06 98.37 4.06 98.37 4.06"/>
    <path class="cls-1" d="M98.41,1.2s-.02.03-.03.04c0,.04-.04.08-.03.12-.01.01-.02.03-.03.04,0,.03,0,.05,0,.08-.01.01-.02.03-.03.04,0,.03,0,.05,0,.08-.01.01-.02.03-.03.04,0,.03,0,.05,0,.08h0s0,.05,0,.08c-.01.01-.02.03-.03.04,0,.03,0,.05,0,.08,0,.04-.02.08-.03.12,0,.03,0,.05,0,.08h0s0,.05,0,.08h0s0,.05,0,.08h0s-.03.08-.03.12h0s0,.05,0,.08c0,.03,0,.05,0,.08,0,.03,0,.05,0,.08,0,.03,0,.05,0,.08.04.13.05.26.03.39-.01.11,0,.21.03.31,0,.03,0,.05,0,.08,0,.03,0,.05,0,.08h0s0,.05,0,.08h0s0,.05,0,.08h0s0,.05,0,.08h0s0,.05,0,.08c.03.03.06.06.05.11,0,.03,0,.05,0,.08,0,.04.05.07.05.11,0,.03,0,.05,0,.08,0,.03,0,.05,0,.08,0,.02.01.03.02.04,0,0-.01.02-.01.03.02.04.03.08.05.11,0,.03,0,.05,0,.08.01.01.03.02.04.04,0,.03,0,.05,0,.08h0s0,.05,0,.08c.01.01.03.02.04.04,0,.03,0,.05,0,.08.01.01.03.02.04.04,0,.03,0,.05,0,.08.01.01.03.02.04.04,0,.03,0,.05,0,.08h0s0,.05,0,.08c.02.04.03.08.05.11,0,.03,0,.05,0,.08.02.06.04.13.05.19,0,.03,0,.05,0,.08h0s0,.05,0,.08c0,.03,0,.05,0,.08h0s0,.05,0,.08c.02.06.04.13.05.19,0,.03,0,.05,0,.08h0s0,.05,0,.08h0s0,.05,0,.08h0s0,.05,0,.08h0s0,.05,0,.08h0s0,.05,0,.08h0s0,.05,0,.08c.02.09.04.18.06.27,0,.03,0,.05,0,.08h0s0,.05,0,.08h0s0,.05,0,.08h0s0,.05,0,.08h0s0,.05,0,.08h0s0,.05,0,.08h0s0,.05,0,.08c0,.03,0,.05,0,.08,0,.03,0,.05,0,.08,0,.03,0,.05,0,.08h0s0,.05,0,.08h0s0,.05,0,.08h0s0,.05,0,.08h0s0,.05,0,.08h0s0,.05,0,.08h0s0,.05,0,.08h0s0,.05,0,.08h0s0,.05,0,.08h0s0,.05,0,.08h0s0,.05,0,.08c.05.11.03.23.05.35.04.31.03.62.1.93,0,.03,0,.05,0,.08h0s0,.05,0,.08c-.02.08-.01.16.02.23,0,.03,0,.05,0,.08h0s0,.05,0,.08h0s0,.05,0,.08h0s0,.05,0,.08h0s0,.05,0,.08h0s0,.05,0,.08h0s0,.05,0,.08h0s0,.05,0,.08h0s0,.05,0,.08h0s0,.05,0,.08h0s0,.05,0,.08h0s0,.05,0,.08h0s0,.05,0,.08h0s0,.05,0,.08h0s0,.05,0,.08h0s0,.05,0,.08h0s0,.05,0,.08h0s0,.05,0,.08h0s0,.05,0,.08h0s0,.05,0,.08h0s0,.05,0,.08h0s0,.05,0,.08h0s0,.05,0,.08h0s0,.05,0,.08h0s0,.05,0,.08h0s0,.05,0,.08h0s0,.05,0,.08h0s0,.05,0,.08h0s0,.05,0,.08h0s0,.05,0,.08h0s0,.05,0,.08h0s0,.05,0,.08h0s0,.05,0,.08h0s0,.05,0,.08h0s0,.05,0,.08h0s0,.05,0,.08h0s0,.05,0,.08h0s0,.05,0,.08h0s0,.05,0,.08h0s0,.05,0,.08h0s0,.05,0,.08h0s0,.05,0,.08h0s0,.05,0,.08h0s0,.05,0,.08h0s0,.05,0,.08h0s0,.05,0,.08h0s0,.05,0,.08h0s0,.05,0,.08h0s0,.05,0,.08h0s0,.05,0,.08h0s0,.05,0,.08h0s0,.05,0,.08h0s0,.05,0,.08h0s0,.05,0,.08h0s0,.05,0,.08h0s0,.05,0,.08h0s0,.05,0,.08h0s0,.05,0,.08c0,.03,0,.05,0,.08,0,.03,0,.05,0,.08,0,.03,0,.05,0,.08,0,.03,0,.05,0,.08,0,.03,0,.05,0,.08,0,.03,0,.05,0,.08h0s0,.05,0,.08h0s0,.05,0,.08h0s0,.05,0,.08h0s0,.05,0,.08h0s0,.05,0,.08h0s0,.05,0,.08h0s0,.05,0,.08h0s0,.05,0,.08h0s0,.05,0,.08h0s0,.05,0,.08c.02.14.05.28.07.42,0,.03,0,.05,0,.08h0s0,.05,0,.08h0s0,.05,0,.08h0s0,.05,0,.08h0s0,.05,0,.08h0s0,.05,0,.08h0s0,.05,0,.08c0,.03,0,.05,0,.08,0,.03,0,.05,0,.08h0s0,.05,0,.08h0s0,.05,0,.08h0s0,.05,0,.08h0s0,.05,0,.08c.02.06.04.13.05.19,0,.03,0,.05,0,.08h0s0,.05,0,.08h0s0,.05,0,.08h0s0,.05,0,.08h0s0,.05,0,.08h0s0,.05,0,.08h0s0,.05,0,.08h0s0,.05,0,.08c.02.04.03.08.05.11,0,.03,0,.05,0,.08h0s0,.05,0,.08h0s0,.05,0,.08c0,.03,0,.05,0,.08h0s0,.04,0,.06c0,0,0,.02,0,.03,0,.02,0,.04,0,.06,0,.02.01.04.02.06,0,.02.01.04.02.06,0,0,0,.02,0,.03,0,.02,0,.04,0,.06,0,0,0,.02,0,.03,0,.02,0,.04,0,.06,0,.04.02.08.03.11,0,.02.01.04.02.06,0,0,0,.02,0,.03,0,.02,0,.04,0,.06,0,0,0,.02,0,.03,0,.02,0,.04,0,.06,0,.04.02.08.03.12,0,.02.01.04.02.06,0,0,0,.02,0,.03,0,.02,0,.04.01.06,0,.02.01.04.02.06,0,.02.01.04.02.05,0,0,0,.02,0,.03,0,.02,0,.04.01.06,0,.02.01.04.02.05,0,.02.01.04.02.05,0,0,0,.02,0,.03,0,.02,0,.04.01.06,0,.02.01.04.02.05.01.03.03.05.04.08,0,0,.02.01.03.02,0,.02,0,.03,0,.05,0,.01,0,.02,0,.03,0,.02,0,.04,0,.06,0,.01,0,.02,0,.03,0,.02,0,.04.01.06,0,.02.01.04.02.05,0,.02.01.04.02.05,0,0,0,.03,0,.03,0,.02,0,.04,0,.05,0,0,0,.02,0,.03,0,.02,0,.04,0,.05,0,.02.01.04.02.05,0,.02.01.03.02.05,0,0,0,.03,0,.03,0,.02,0,.04,0,.05,0,0,0,.03,0,.03,0,.02,0,.04,0,.05,0,0,0,.02,0,.03,0,.02,0,.04.01.05,0,.02.01.04.02.05,0,.02.01.03.02.05,0,0,0,.03,0,.03,0,.02,0,.04.01.05,0,0,0,.02,0,.03,0,.02,0,.04,0,.06,0,0,0,.02,0,.03,0,.02,0,.04,0,.06,0,.04.02.08.03.11,0,.02.01.04.02.05,0,0,0,.02,0,.03,0,.02,0,.04,0,.06,0,0,0,.02,0,.03,0,.02,0,.04.01.06,0,0,0,.02.01.03,0,.02.02.04.02.05,0,.02,0,.04-.01.06,0,.01,0,.02,0,.03,0,.02,0,.04,0,.06,0,.04.02.08.03.12,0,.02.01.04.02.06,0,0,0,.02,0,.03,0,.02,0,.04,0,.06,0,0,0,.02,0,.03,0,.02,0,.04,0,.06,0,0,0,.02,0,.03,0,.02,0,.04.01.06,0,0,0,.02.01.03,0,.02.02.03.02.05h0s0,.05,0,.08h0s0,.05,0,.08h0s0,.04-.01.07c0,.01,0,.02,0,.03,0,.02,0,.04,0,.07,0,.06.01.11.03.16,0,.02.01.04.02.06,0,0,0,.02,0,.03,0,.02,0,.04.01.06,0,0,0,.02,0,.03,0,.02,0,.04,0,.06,0,0,0,.02,0,.03,0,.02,0,.04,0,.05,0,0,0,.03,0,.03,0,.02,0,.04,0,.05,0,0,0,.03,0,.03,0,.02,0,.04,0,.05,0,0,0,.02,0,.03,0,.02,0,.04.01.05,0,0,0,.02.01.03,0,.02.01.03.02.05,0,.03,0,.05,0,.08h0s0,.05,0,.08h0s0,.05,0,.08h0s0,.05,0,.08h0s0,.05,0,.08h0s0,.05,0,.08h0s0,.05,0,.08h0s0,.04,0,.06c0,.01,0,.02,0,.03,0,.02,0,.04,0,.06,0,.01,0,.02,0,.03,0,.02,0,.04,0,.06,0,.01,0,.02,0,.03,0,.02,0,.04,0,.07,0,.08.02.16.04.24,0,.02.01.05.02.07,0,.01,0,.02,0,.03,0,.02,0,.05.02.07,0,.02.01.04.02.06,0,.05,0,.11.03.16,0,.03,0,.05,0,.08h0s0,.05,0,.08h0s0,.05,0,.08h0s0,.05,0,.08h0s0,.05,0,.08h0s0,.05,0,.08h0s0,.05,0,.08h0s0,.05,0,.08h0s0,.05,0,.08h0s0,.05,0,.08h0s0,.05,0,.08c0,.03,0,.05,0,.08v.08s.01.05.01.08c0,.03,0,.05,0,.08,0,.03,0,.05,0,.08,0,.03,0,.05,0,.08,0,.03,0,.05,0,.08,0,.03,0,.05,0,.08h0s0,.05,0,.08h0s0,.05,0,.08c.02.09.04.18.06.27,0,.03,0,.05,0,.08h0s0,.05,0,.08h0s0,.05,0,.08h0s0,.05,0,.08h0s0,.05,0,.08h0s0,.05,0,.08c0,.03,0,.05,0,.08,0,.03,0,.05,0,.08.02.06.04.13.05.19,0,.03,0,.05,0,.08h0s0,.05,0,.08h0s0,.05,0,.08c0,.03,0,.05,0,.08h0s0,.05,0,.08c.02.04.03.08.05.11,0,.03,0,.05,0,.08h0s0,.05,0,.08c.02.04.03.08.05.11,0,.03,0,.05,0,.08,0,.03,0,.05,0,.08.01.01.03.02.04.04,0,.03,0,.05,0,.08.01.01.03.02.04.04,0,.03,0,.05,0,.08.01.01.03.02.04.04,0,.03,0,.05,0,.08.03.02.06.05.08.07,0,.03,0,.05,0,.08.03.02.06.05.08.07,0,0,0,0,.01.01,0,0,0,.02,0,.03.03.05.11.07.12.15h0c.01.07.04.12.1.16.22.1.37.28.55.43.02.02.04.04.07.05,0,.01,0,.03.02.04.04.05.09.07.15.06.01.01.03.02.04.04.1,0,.11.09.16.14.03.02.06.04.09.06.04.02.09.04.13.06.04.03.08.05.12.07.05.02.11.03.15.07.02.01.04.02.06.03.04.01.08.03.12.05.03.02.05.03.08.04.03.01.06.02.09.03.02,0,.04.01.06.02.03,0,.06.02.08.03.02,0,.04.02.06.02.03,0,.06.01.09.01.02,0,.04,0,.06,0h0s.08.03.12.03h0s.05,0,.08,0c.01.01.03.02.04.03.03,0,.05,0,.08,0,.01.01.03.02.04.03.03,0,.05,0,.08,0,.03,0,.05,0,.08,0h0s.05,0,.08,0h0s.05,0,.08,0h0s.05,0,.08,0c.04-.02.07-.03.11-.05,0,0,.01,0,.02,0,.02,0,.05,0,.07,0,.03,0,.06-.02.09-.03.02,0,.04-.02.06-.03.03-.01.05-.03.08-.04.02,0,.04-.01.05-.02.02,0,.04-.02.05-.02.02,0,.04-.01.05-.02.02,0,.04-.01.06-.02.02,0,.04-.01.05-.02.02,0,.04-.02.05-.02.02,0,.04-.01.05-.02.03-.01.05-.02.08-.03.02,0,.03-.01.05-.02.03-.01.05-.02.08-.03.02,0,.03-.02.05-.03.02-.02.04-.03.07-.04.02,0,.03-.02.05-.02.02-.01.05-.02.08-.03.02,0,.03-.01.05-.02.02-.01.05-.03.07-.04.03,0,.05-.02.07-.04.02-.02.05-.03.07-.04.02,0,.03-.01.05-.02.03-.01.05-.02.08-.03.03-.01.05-.03.07-.05.03-.02.05-.03.08-.04.02,0,.04-.02.05-.03.03-.02.05-.03.08-.05.02,0,.04-.02.06-.03.03-.01.07-.03.1-.04.02-.01.04-.03.06-.05.01-.01.02-.02.04-.04.02,0,.03,0,.05-.01.03-.02.07-.04.1-.06.02,0,.04-.02.05-.03.03-.01.05-.02.08-.04.03-.01.05-.03.07-.05.02-.02.05-.03.08-.04.03-.01.05-.03.07-.05.02-.02.05-.03.08-.04.02,0,.03-.02.05-.03.03-.02.07-.04.11-.06.02,0,.04-.02.06-.03.04-.03.08-.05.12-.07.02-.01.04-.03.06-.05,0-.01.02-.02.03-.03.02,0,.04,0,.06-.02.04-.02.08-.04.11-.07.02-.01.04-.02.05-.04.03-.02.05-.04.08-.06.03-.02.06-.04.09-.06.02-.02.04-.03.06-.05.01-.02.03-.03.04-.05,0,0,.02-.02.03-.03.03,0,.05,0,.08,0,.02-.03.05-.06.07-.08.03,0,.05,0,.08,0,.02-.03.05-.06.07-.08.04,0,.07-.05.11-.05.01-.01.02-.03.04-.04.04,0,.07-.05.11-.05.02-.03.05-.06.07-.08.03,0,.05,0,.08,0,.02-.03.05-.06.07-.08.03,0,.05,0,.08,0,.02-.03.05-.06.07-.08.04,0,.07-.05.11-.05.02-.03.05-.06.07-.08.03,0,.05,0,.08,0,.02-.03.05-.06.07-.08.04,0,.07-.05.11-.05.02-.03.05-.06.07-.08.03,0,.05,0,.08,0,.02-.03.05-.06.07-.08.04,0,.07-.05.11-.05.02-.03.05-.06.07-.08.04,0,.07-.05.11-.05.02-.03.05-.06.07-.08.04,0,.07-.05.11-.05.02-.03.05-.06.07-.08.03,0,.05,0,.08,0,.02-.03.05-.06.07-.08.04,0,.07-.05.11-.05.04-.04.07-.08.11-.13.03,0,.05,0,.08,0,.04-.04.07-.08.11-.13.03,0,.05,0,.08,0,.04-.04.07-.08.11-.13.03,0,.05,0,.08,0,.04-.04.07-.08.11-.13.04,0,.07-.05.11-.05.04-.04.07-.08.11-.13.03,0,.05,0,.08,0,.05-.06.09-.11.14-.17.04,0,.07-.05.11-.05.02-.03.05-.06.07-.08.03,0,.05-.02.06-.04.01,0,.02,0,.04,0,.06,0,.11-.04.15-.08.03-.05.08-.07.13-.1.05-.04.1-.08.14-.13.02-.05.07-.06.12-.09.04-.03.08-.06.1-.11.03-.05.04-.12.11-.13.01-.01.02-.03.04-.04.04,0,.08-.02.1-.05.04-.07.06-.14.15-.16.01-.01.02-.03.04-.04.04,0,.08-.02.11-.06.05-.09.1-.18.21-.19.07-.02.12-.07.15-.14.03-.09.08-.15.17-.16.07-.02.12-.07.15-.14.03-.08.07-.15.17-.16.05-.02.1-.05.13-.1.05-.08.06-.19.17-.21.01-.01.02-.03.04-.04.08-.01.14-.05.18-.12.04-.09.08-.18.19-.22h0c.08,0,.13-.05.17-.12.03-.08.06-.16.15-.18.01-.01.02-.03.04-.04.06,0,.11-.03.15-.08.06-.08.06-.19.18-.22.01-.01.02-.03.04-.04.06,0,.11-.03.15-.08.06-.1.09-.22.21-.26.01-.01.02-.03.04-.04.06,0,.11-.03.15-.08.06-.1.09-.22.21-.26.01-.01.02-.03.04-.04.08-.01.14-.05.18-.12.04-.09.08-.18.19-.22.01-.01.02-.03.04-.04.08-.01.14-.05.19-.12.06-.12.11-.24.24-.31h0c.08-.01.14-.05.19-.12.05-.1.09-.22.21-.27h0c.08-.01.14-.05.19-.12.06-.1.09-.22.21-.27.01-.01.02-.03.04-.04.06,0,.11-.03.15-.08.06-.1.09-.22.21-.26.02-.03.05-.06.07-.08.08-.01.14-.05.18-.13.05-.11.11-.2.22-.26.01-.01.02-.03.04-.04.08-.01.14-.05.19-.12.06-.12.11-.24.24-.31.01-.01.02-.03.04-.04.08-.01.14-.06.18-.13.07-.14.15-.26.29-.34h0c.1-.02.17-.07.21-.16.05-.11.11-.21.22-.26.02-.03.05-.06.07-.08.08-.01.14-.05.19-.12.06-.12.11-.24.24-.31.01-.01.02-.03.04-.04.1-.02.17-.08.21-.17.05-.13.13-.24.25-.3.02-.03.05-.06.07-.08.08-.01.15-.06.19-.12.06-.14.14-.27.28-.34.02-.03.05-.06.07-.08.08-.01.14-.06.19-.12.05-.13.15-.23.23-.34,0,0,0-.01,0-.02,0,0,0,0,0,0,0,.02.02.02.04.02.02-.03.05-.06.07-.08.01-.02.03-.03.04-.05.05-.04.09-.09.13-.13.03-.02.05-.04.06-.07.01-.01.02-.03.03-.04.06-.06.11-.12.16-.19,0,0,.02,0,.03,0,.05-.06.09-.11.14-.17l.05-.06c.07-.05.13-.11.18-.18.11-.1.17-.25.31-.32.04-.04.07-.08.11-.13.08-.01.15-.06.19-.13.02-.07.07-.12.09-.19.01,0,.02-.01.04-.02.12-.11.19-.26.33-.34.05-.06.09-.11.14-.17.13-.02.21-.11.27-.23.03-.09.08-.16.14-.23.31-.36.6-.72.91-1.07.05-.03.1-.07.13-.12.02-.06,0-.13.06-.18.02-.02.03-.03.05-.05.02-.04.04-.08.05-.12,0-.02.02-.04.02-.06,0-.03.01-.06.02-.08,0-.02.01-.04.01-.06,0-.03.01-.06.02-.08,0-.02.01-.04.02-.06,0-.03.02-.06.02-.09,0-.02,0-.05,0-.07,0-.02-.01-.05-.02-.07-.1-.22-.14-.46-.23-.67-.23-.58-.52-1.13-1.14-1.39-.12-.05-.19-.13-.27-.22-.02-.02-.04-.03-.06-.05-.02-.01-.04-.02-.07-.03-.05-.02-.1,0-.15,0-.04,0-.08-.04-.12-.03-.01-.01-.03-.02-.04-.03-.03,0-.05,0-.08,0-.01-.01-.03-.02-.04-.03-.03,0-.05,0-.08,0-.01-.01-.03-.02-.04-.03-.03,0-.05,0-.08,0h0s-.08-.03-.12-.03h0s-.05,0-.08,0c-.01-.01-.03-.02-.04-.03-.03,0-.05,0-.08,0-.01-.01-.03-.02-.04-.03-.03,0-.05,0-.08,0h0s-.05,0-.08,0c-.01-.01-.03-.02-.04-.03-.03,0-.05,0-.08,0-.01-.01-.03-.02-.04-.03-.03,0-.05,0-.08,0-.01-.01-.03-.02-.04-.03-.03,0-.05,0-.08,0-.01-.01-.03-.02-.04-.03-.04,0-.08-.03-.12-.03h0s-.08-.04-.12-.03c-.01-.01-.03-.02-.04-.03-.03,0-.05,0-.08,0-.03-.02-.06-.05-.08-.07-.03,0-.05,0-.08,0-.01-.01-.03-.02-.04-.03-.04,0-.08-.04-.12-.03-.01-.01-.03-.02-.04-.03-.04,0-.08-.04-.12-.03-.01-.01-.03-.02-.04-.03-.04,0-.08-.04-.12-.03-.01-.01-.03-.02-.04-.03-.04,0-.08-.04-.12-.03-.01-.01-.03-.02-.04-.03-.04,0-.08-.04-.12-.03-.01-.01-.03-.02-.04-.03-.04,0-.08-.04-.12-.03-.01-.01-.03-.02-.04-.03-.04,0-.08-.04-.12-.03-.01-.01-.03-.02-.04-.03-.04,0-.08-.04-.12-.03-.03-.02-.06-.05-.08-.07-.03,0-.05,0-.08,0-.03-.02-.06-.05-.08-.07-.04,0-.08-.04-.12-.03-.01-.01-.03-.02-.04-.03-.04,0-.08-.04-.12-.03-.01-.01-.03-.02-.04-.03-.04,0-.08-.04-.12-.03-.03-.02-.06-.05-.08-.07-.04,0-.08-.04-.12-.03-.01-.01-.03-.02-.04-.03-.04,0-.08-.04-.12-.03-.03-.02-.06-.05-.08-.07-.04,0-.08-.04-.12-.03-.01-.01-.03-.02-.04-.03-.04,0-.08-.04-.12-.03-.01-.01-.03-.02-.04-.03-.04,0-.08-.04-.12-.03-.03-.02-.06-.05-.08-.07-.04,0-.08-.04-.12-.03-.01-.01-.03-.02-.04-.03-.04,0-.08-.04-.12-.03-.03-.02-.06-.05-.08-.07-.04,0-.08-.04-.12-.03-.01-.01-.03-.02-.04-.03-.04,0-.08-.04-.12-.03-.03-.02-.06-.05-.08-.07-.04,0-.08-.04-.12-.03-.01-.01-.03-.02-.04-.03-.07.01-.1-.07-.16-.06-.01-.01-.03-.02-.04-.03-.04,0-.08-.04-.12-.03-.03-.02-.06-.05-.08-.07-.04,0-.08-.04-.12-.03-.01-.01-.03-.02-.04-.03-.04,0-.08-.04-.12-.03-.03-.02-.06-.05-.08-.07-.04,0-.08-.04-.12-.03-.01-.01-.03-.02-.04-.03-.04,0-.08-.04-.12-.03-.03-.02-.06-.05-.08-.07-.04,0-.08-.04-.12-.03-.01-.01-.03-.02-.04-.03-.07.01-.1-.07-.16-.06-.01-.01-.03-.02-.04-.03-.04,0-.08-.04-.12-.03-.01-.01-.03-.02-.04-.03-.07.01-.1-.07-.16-.06-.01-.01-.03-.02-.04-.03-.04,0-.08-.04-.12-.03-.01-.01-.03-.02-.04-.03-.07.01-.1-.07-.16-.06-.01-.01-.03-.02-.04-.03-.04,0-.08-.04-.12-.03-.03-.02-.06-.05-.08-.07-.04,0-.08-.04-.12-.03-.01-.01-.03-.02-.04-.03-.04,0-.08-.04-.12-.03-.01-.01-.03-.02-.04-.03-.07.01-.1-.07-.16-.06-.01-.01-.03-.02-.04-.03-.04,0-.08-.04-.12-.03-.01-.01-.03-.02-.04-.03-.04,0-.08-.04-.12-.03-.03-.02-.06-.05-.08-.07-.04,0-.08-.04-.12-.03-.01-.01-.03-.02-.04-.03-.07.01-.1-.07-.16-.07-.01-.01-.03-.02-.04-.03-.04,0-.08-.04-.12-.03-.01-.01-.03-.02-.04-.03-.04,0-.08-.04-.12-.03-.03-.02-.06-.05-.08-.07-.04,0-.08-.04-.12-.03-.01-.01-.03-.02-.04-.03-.04,0-.08-.04-.12-.03-.03-.02-.06-.05-.08-.07-.04,0-.08-.04-.12-.03-.01-.01-.03-.02-.04-.03-.04,0-.08-.04-.12-.03-.01-.01-.03-.02-.04-.03-.04,0-.08-.04-.12-.03-.03-.02-.06-.05-.08-.07-.04,0-.08-.04-.12-.03-.01-.01-.03-.02-.04-.03-.04,0-.08-.04-.12-.03-.01-.01-.03-.02-.04-.03-.04,0-.08-.04-.12-.03-.01-.01-.03-.02-.04-.03-.04,0-.08-.04-.12-.03-.01-.01-.03-.02-.04-.03-.07.01-.1-.07-.16-.06-.01-.01-.03-.02-.04-.03-.02,0-.03,0-.05,0-.01-.02-.04-.04-.07-.04-.01-.01-.03-.02-.04-.04-.04,0-.08-.04-.12-.03-.01-.01-.03-.02-.04-.04-.04,0-.08-.04-.12-.03-.03-.02-.06-.05-.08-.07-.03,0-.05,0-.08,0-.03-.02-.06-.05-.08-.07-.04,0-.08-.04-.12-.03-.01-.01-.03-.02-.04-.04-.04,0-.08-.04-.12-.03-.01-.01-.03-.02-.04-.04-.04,0-.08-.04-.12-.03-.01-.01-.03-.02-.04-.04-.04,0-.08-.04-.12-.03-.01-.01-.03-.02-.04-.04-.04,0-.08-.04-.12-.03-.01-.01-.03-.02-.04-.04-.04,0-.08-.04-.12-.03-.01-.01-.03-.02-.04-.04-.04,0-.08-.04-.12-.03-.01-.01-.03-.02-.04-.04-.04,0-.08-.04-.12-.03-.01-.01-.03-.02-.04-.04-.04,0-.08-.04-.12-.03-.01-.01-.03-.02-.04-.04-.04,0-.08-.04-.12-.03-.01-.01-.03-.02-.04-.04-.04,0-.08-.04-.12-.03-.01-.01-.03-.02-.04-.04-.03,0-.05,0-.08,0-.03-.02-.06-.05-.08-.07-.03,0-.05,0-.08,0-.03-.02-.06-.05-.08-.07-.03,0-.05,0-.08,0-.01-.01-.03-.02-.04-.04-.04,0-.08-.04-.12-.03-.01-.01-.03-.02-.04-.04-.04,0-.08-.04-.12-.03-.01-.01-.03-.02-.04-.04-.04,0-.08-.04-.12-.03-.01-.01-.03-.02-.04-.04-.04,0-.08-.04-.12-.03-.01-.01-.03-.02-.04-.03-.03,0-.05,0-.08,0-.03-.02-.06-.05-.08-.07-.03,0-.05,0-.08,0-.03-.02-.06-.05-.08-.07-.03,0-.05,0-.08,0-.01-.01-.03-.02-.04-.04-.04,0-.08-.04-.12-.03-.01-.01-.03-.02-.04-.04-.04,0-.08-.04-.12-.03-.01-.01-.03-.02-.04-.04-.03,0-.05,0-.08,0-.03-.02-.06-.05-.08-.07-.03,0-.05,0-.08,0-.03-.02-.06-.05-.08-.07-.03,0-.05,0-.08,0-.01-.01-.03-.02-.04-.03,0,0-.01,0-.03,0,0,0,0,0,0,0-.02-.02-.05-.04-.09-.04-.04,0-.08-.04-.12-.03-.01-.01-.03-.02-.04-.03-.04,0-.08-.04-.12-.03-.01-.01-.03-.02-.04-.03-.04,0-.08-.04-.12-.03-.01-.01-.03-.02-.04-.03-.04,0-.08-.04-.12-.03l-.02-.02-.02-.02s-.05,0-.08,0c-.01-.01-.03-.02-.04-.03-.04,0-.08-.04-.12-.03-.01-.01-.03-.02-.04-.03-.04,0-.08-.04-.12-.03l-.02-.02-.02-.02s-.05,0-.08,0c-.01-.01-.03-.02-.04-.03-.04,0-.08-.04-.12-.03-.01-.01-.03-.02-.04-.03-.04,0-.08-.04-.12-.03l-.02-.02-.02-.02s-.05,0-.08,0c-.01-.01-.03-.02-.04-.03-.04,0-.08-.04-.12-.03-.01-.01-.03-.02-.04-.03-.04,0-.08-.04-.12-.03-.01-.01-.03-.02-.04-.03-.03,0-.05,0-.08,0-.01-.01-.03-.02-.04-.03-.04,0-.08-.04-.12-.03-.01-.01-.03-.02-.04-.03-.04,0-.08-.04-.12-.03-.01-.01-.03-.02-.04-.03-.03,0-.05,0-.08,0-.01-.01-.03-.02-.04-.03-.04,0-.08-.04-.12-.03-.01-.01-.03-.02-.04-.03-.03,0-.05,0-.08,0-.03-.02-.06-.05-.08-.07-.03,0-.05,0-.08,0-.01-.01-.03-.02-.04-.03-.04,0-.08-.04-.12-.03l-.02-.02-.02-.02s-.05,0-.08,0c-.01-.01-.03-.02-.04-.03-.04,0-.08-.04-.12-.03-.01-.01-.03-.02-.04-.03-.03,0-.05,0-.08,0-.01-.01-.03-.02-.04-.03-.04,0-.08-.04-.12-.03-.01-.01-.03-.02-.04-.03-.04,0-.08-.04-.12-.03l-.02-.02-.02-.02s-.05,0-.08,0c-.01-.01-.03-.02-.04-.03-.04,0-.08-.04-.12-.03-.01-.01-.03-.02-.04-.03-.03,0-.05,0-.08,0-.01-.01-.03-.02-.04-.03-.04,0-.08-.04-.12-.03l-.02-.02-.02-.02s-.05,0-.08,0c-.01-.01-.03-.02-.04-.03-.04,0-.08-.04-.12-.03-.01-.01-.03-.02-.04-.03-.03,0-.05,0-.08,0-.01-.01-.03-.02-.04-.03-.04,0-.08-.04-.12-.03-.01-.01-.03-.02-.04-.03-.03,0-.05,0-.08,0-.01-.01-.03-.02-.04-.03-.04,0-.08-.04-.12-.03-.01-.01-.03-.02-.04-.03-.03,0-.05,0-.08,0-.01-.01-.03-.02-.04-.03-.04,0-.08-.04-.12-.03l-.02-.02-.02-.02s-.05,0-.08,0c-.01-.01-.03-.02-.04-.03-.03,0-.05,0-.08,0-.01-.01-.03-.02-.04-.03-.04,0-.08-.04-.12-.03-.01-.01-.03-.02-.04-.03-.03,0-.05,0-.08,0-.01-.01-.03-.02-.04-.03-.04,0-.08-.03-.12-.03-.04,0-.08-.04-.12-.03-.01-.01-.03-.02-.04-.03-.03,0-.05,0-.08,0-.01-.01-.03-.02-.04-.03-.03,0-.05,0-.08,0-.01-.01-.03-.02-.04-.03-.04,0-.08-.04-.12-.03-.01-.01-.03-.02-.04-.03-.03,0-.05,0-.08,0-.01-.01-.03-.02-.04-.03-.03,0-.05,0-.08,0-.01-.01-.03-.02-.04-.03-.03,0-.05,0-.08,0-.01-.01-.03-.02-.04-.03-.03,0-.05,0-.08,0-.01-.01-.03-.02-.04-.03-.03,0-.05,0-.08,0-.01-.01-.03-.02-.04-.03-.03,0-.05,0-.08,0-.01-.01-.03-.02-.04-.03-.03,0-.05,0-.08,0h0s-.08-.03-.12-.03h0s-.05,0-.08,0h0s-.07.05-.11.05c-.01.01-.02.03-.04.04-.04,0-.07.05-.11.05h0s-.07.05-.11.05c-.01.01-.02.03-.04.04-.03,0-.05,0-.08,0-.01.01-.02.03-.04.04-.04,0-.07.05-.11.05-.04,0-.07.05-.11.05-.01.01-.02.03-.04.04-.03,0-.05,0-.08,0-.01.01-.02.03-.04.04-.03,0-.05,0-.08,0-.01.01-.02.03-.04.04-.04,0-.07.05-.11.05h0s-.07.05-.11.05c-.01.01-.02.03-.04.04-.03,0-.05,0-.08,0-.01.01-.02.03-.04.04-.03,0-.05,0-.08,0-.01.01-.02.03-.04.04-.03,0-.05,0-.08,0-.01.01-.02.03-.04.04-.03,0-.05,0-.08,0-.01.01-.02.03-.04.04-.03,0-.05,0-.08,0-.01.01-.02.03-.04.04-.03,0-.05,0-.08,0-.01.01-.02.03-.04.04-.1.06-.17.14-.21.25Z"/>
    <polygon class="cls-1" points="98.2 2.47 98.2 2.47 98.2 2.47 98.2 2.47"/>
  </g>
  <g>
    <polygon class="cls-2" points="195.1 15.45 195.1 15.45 195.1 15.45 195.1 15.45"/>
    <path class="cls-2" d="M194.31,14.06s0,.02,0,.03c.02.02,0,.04.02.06,0,0,0,.02,0,.03,0,.01.02.02.02.04,0,0,0,.02,0,.03,0,.01.02.02.02.04,0,0,0,.02,0,.03,0,.01.02.02.02.04h0s.02.02.02.04c0,0,0,.02,0,.03,0,.01.02.02.02.04,0,.02.01.04.02.06,0,.01.02.02.03.04h0s.02.02.03.04h0s.02.02.03.04h0s0,.04.02.06h0s.02.02.03.04c0,.01.02.02.03.04,0,.01.02.02.03.04,0,.01.02.02.03.04.06.05.1.11.13.18.02.05.06.1.1.14,0,.01.02.02.03.04,0,.01.02.02.03.04h0s.02.02.03.04h0s.02.02.03.04h0s.02.02.03.04h0s.02.02.03.04c.03,0,.05.02.06.04,0,.01.02.02.03.04.01.02.04.02.06.04,0,.01.02.02.03.04,0,.01.02.02.03.04,0,0,.01.01.02.02,0,0,0,.01,0,.02.02.01.04.03.06.04,0,.01.02.02.03.04.01,0,.02,0,.03,0,0,.01.02.02.03.04h0s.02.02.03.04c.01,0,.02,0,.03,0,0,.01.02.02.03.04.01,0,.02,0,.03,0,0,.01.02.02.03.04.01,0,.02,0,.03,0,0,.01.02.02.03.04h0s.02.02.03.04c.02.01.04.03.06.04,0,.01.02.02.03.04.03.03.06.05.08.08,0,.01.02.02.03.04h0s.02.02.03.04c0,.01.02.02.03.04h0s.02.02.03.04c.03.03.06.05.08.08,0,.01.02.02.03.04h0s.02.02.03.04h0s.02.02.03.04h0s.02.02.03.04h0s.02.02.03.04h0s.02.02.03.04h0s.02.02.03.04c.04.04.07.08.11.12,0,.01.02.02.03.04h0s.02.02.03.04h0s.02.02.03.04h0s.02.02.03.04h0s.02.02.03.04h0s.02.02.03.04h0s.02.02.03.04c0,.01.02.02.03.04,0,.01.02.02.03.04,0,.01.02.02.03.04h0s.02.02.03.04h0s.02.02.03.04h0s.02.02.03.04h0s.02.02.03.04h0s.02.02.03.04h0s.02.02.03.04h0s.02.02.03.04h0s.02.02.03.04h0s.02.02.03.04h0s.02.02.03.04c.06.04.08.11.12.16.11.14.19.29.31.42,0,.01.02.02.03.04h0s.02.02.03.04c.01.04.04.08.08.11,0,.01.02.02.03.04h0s.02.02.03.04h0s.02.02.03.04h0s.02.02.03.04h0s.02.02.03.04h0s.02.02.03.04h0s.02.02.03.04h0s.02.02.03.04h0s.02.02.03.04h0s.02.02.03.04h0s.02.02.03.04h0s.02.02.03.04h0s.02.02.03.04h0s.02.02.03.04h0s.02.02.03.04h0s.02.02.03.04h0s.02.02.03.04h0s.02.02.03.04h0s.02.02.03.04h0s.02.02.03.04h0s.02.02.03.04h0s.02.02.03.04h0s.02.02.03.04h0s.02.02.03.04h0s.02.02.03.04h0s.02.02.03.04h0s.02.02.03.04h0s.02.02.03.04h0s.02.02.03.04h0s.02.02.03.04h0s.02.02.03.04h0s.02.02.03.04h0s.02.02.03.04h0s.02.02.03.04h0s.02.02.03.04h0s.02.02.03.04h0s.02.02.03.04h0s.02.02.03.04h0s.02.02.03.04h0s.02.02.03.04h0s.02.02.03.04h0s.02.02.03.04h0s.02.02.03.04h0s.02.02.03.04h0s.02.02.03.04h0s.02.02.03.04h0s.02.02.03.04h0s.02.02.03.04h0s.02.02.03.04h0s.02.02.03.04h0s.02.02.03.04h0s.02.02.03.04h0s.02.02.03.04h0s.02.02.03.04h0s.02.02.03.04h0s.02.02.03.04h0s.02.02.03.04h0s.02.02.03.04c0,.01.02.02.03.04,0,.01.02.02.03.04,0,.01.02.02.03.04,0,.01.02.02.03.04,0,.01.02.02.03.04,0,.01.02.02.03.04h0s.02.02.03.04h0s.02.02.03.04h0s.02.02.03.04h0s.02.02.03.04h0s.02.02.03.04h0s.02.02.03.04h0s.02.02.03.04h0s.02.02.03.04h0s.02.02.03.04h0s.02.02.03.04c.05.06.11.13.16.19,0,.01.02.02.03.04h0s.02.02.03.04h0s.02.02.03.04h0s.02.02.03.04h0s.02.02.03.04h0s.02.02.03.04h0s.02.02.03.04c0,.01.02.02.03.04,0,.01.02.02.03.04h0s.02.02.03.04h0s.02.02.03.04h0s.02.02.03.04h0s.02.02.03.04c.03.03.06.05.08.08,0,.01.02.02.03.04h0s.02.02.03.04h0s.02.02.03.04h0s.02.02.03.04h0s.02.02.03.04h0s.02.02.03.04h0s.02.02.03.04h0s.02.02.03.04c.02.01.04.03.06.04,0,.01.02.02.03.04h0s.02.02.03.04h0s.02.02.03.04c0,.01.02.02.03.04h0s0,.02.01.03c0,0,0,.01,0,.02,0,.01,0,.02.02.03,0,0,.02.02.03.02,0,0,.02.02.03.02,0,0,0,0,.01.01,0,0,.01.02.02.03,0,0,0,0,0,.01,0,0,.01.02.02.03.01.02.03.03.05.05,0,0,.02.02.02.02,0,0,0,0,.01.01,0,0,.01.02.02.03,0,0,0,0,0,.01,0,0,.01.02.02.03.01.02.03.03.05.05,0,0,.02.02.02.02,0,0,0,0,.01.01,0,0,.01.02.02.02,0,0,.02.02.03.02,0,0,.02.01.03.02,0,0,0,0,.01.01,0,0,.01.02.02.02,0,0,.02.02.02.02,0,0,.02.01.02.02,0,0,0,0,.01.01,0,0,.01.02.02.02,0,0,.02.01.03.02.01,0,.03.02.04.03,0,0,.01,0,.02,0,0,0,0,.02.01.02,0,0,0,.01.01.02,0,.01.01.02.02.03,0,0,0,0,.01.01,0,0,.01.02.02.03,0,0,.02.02.03.02,0,0,.02.01.02.02,0,0,.01.01.01.01,0,0,.01.02.02.02,0,0,0,0,0,.01,0,0,.01.02.02.02,0,0,.02.01.02.02,0,0,.02.01.02.02,0,0,.01.01.01.01,0,0,.01.02.02.02,0,0,0,.01,0,.01,0,0,.01.02.02.03,0,0,0,0,0,.01,0,0,.01.02.02.02,0,0,.02.01.02.02,0,0,.02.01.02.02,0,0,.01.01.01.01,0,0,.01.02.02.02,0,0,0,0,.01.01,0,0,.01.02.02.03,0,0,0,0,0,.01,0,0,.01.02.02.03.01.02.03.03.05.05,0,0,.02.02.02.02,0,0,0,0,.01.01,0,0,.01.02.02.03,0,0,0,0,0,.01,0,0,.01.02.02.02,0,0,0,0,.01.01,0,0,.02.01.03.02,0,0,.01.02.01.03,0,0,0,.01,0,.02,0,.01,0,.02.02.03.01.02.03.03.05.05,0,0,.02.02.03.02,0,0,0,0,.01.01,0,0,.01.02.02.03,0,0,0,0,0,.01,0,0,.01.02.02.03,0,0,0,0,0,.01,0,0,.01.02.02.02,0,0,0,0,.01.01,0,0,.02.01.02.02h0s.02.02.03.04h0s.02.02.03.04h0s.01.02.01.03c0,0,0,.01,0,.02,0,.01,0,.02.02.03.02.03.04.05.06.07,0,0,.02.02.03.02,0,0,0,0,.01.01,0,0,.01.02.02.03,0,0,0,0,0,.01,0,0,.01.02.02.03,0,0,0,0,0,.01,0,0,.01.02.02.03,0,0,0,.01,0,.01,0,0,.01.02.02.03,0,0,0,.01,0,.01,0,0,.01.02.02.03,0,0,0,0,0,.01,0,0,.01.02.02.02,0,0,0,0,.01,0,0,0,.02.01.02.02,0,.01.02.02.03.04h0s.02.02.03.04h0s.02.02.03.04h0s.02.02.03.04h0s.02.02.03.04h0s.02.02.03.04h0s.02.02.03.04h0s0,.02.01.03c0,0,0,.01,0,.02,0,0,.01.02.02.03,0,0,0,.01,0,.02,0,.01.01.02.02.03,0,0,0,.01,0,.02,0,.01.01.02.02.03.03.04.05.07.09.11,0,0,.02.02.03.03,0,0,0,.01.01.01,0,.01.02.02.03.03,0,0,.02.02.03.02.01.03.03.05.06.07,0,.01.02.02.03.04h0s.02.02.03.04h0s.02.02.03.04h0s.02.02.03.04h0s.02.02.03.04h0s.02.02.03.04h0s.02.02.03.04h0s.02.02.03.04h0s.02.02.03.04h0s.02.02.03.04h0s.02.02.03.04c0,.01.02.02.03.04l.03.04s.02.02.03.04c0,.01.02.02.03.04,0,.01.02.02.03.04s.02.02.03.04c0,.01.02.02.03.04,0,.01.02.02.03.04h0s.02.02.03.04h0s.02.02.03.04c.04.04.07.08.11.12,0,.01.02.02.03.04h0s.02.02.03.04h0s.02.02.03.04h0s.02.02.03.04h0s.02.02.03.04h0s.02.02.03.04c0,.01.02.02.03.04,0,.01.02.02.03.04.03.03.06.05.08.08,0,.01.02.02.03.04h0s.02.02.03.04h0s.02.02.03.04c0,.01.02.02.03.04h0s.02.02.03.04c.02.01.04.03.06.04,0,.01.02.02.03.04h0s.02.02.03.04c.02.01.04.03.06.04,0,.01.02.02.03.04,0,.01.02.02.03.04.01,0,.02,0,.03,0,0,.01.02.02.03.04.01,0,.02,0,.03,0,0,.01.02.02.03.04.01,0,.02,0,.03,0,0,.01.02.02.03.04.02,0,.04.01.06.02,0,.01.02.02.03.04.02,0,.04.01.06.02,0,0,0,0,.01,0,0,0,0,0,0,.01.03.02.08.01.1.04h0s.06.05.1.06c.14,0,.27.05.41.08.02,0,.03,0,.05,0,0,0,.01.01.02.02.03.01.06.01.09,0,.01,0,.02,0,.03,0,.05-.02.08.02.12.03.02,0,.04,0,.07,0,.03,0,.06,0,.08,0,.03,0,.05,0,.08,0,.03,0,.07,0,.1,0,.01,0,.03,0,.04,0,.03,0,.05,0,.08,0,.02,0,.04,0,.06,0,.02,0,.04,0,.05,0,.01,0,.02,0,.04,0,.02,0,.04,0,.05,0,.01,0,.02,0,.04,0,.02,0,.03,0,.05-.01.01,0,.02,0,.03-.02h0s.05,0,.07-.01h0s.03-.01.04-.02c.01,0,.02,0,.03,0,.01,0,.03-.01.04-.02.01,0,.02,0,.03,0,.01,0,.03-.01.04-.02.01,0,.03-.01.04-.02h0s.03-.01.04-.02h0s.03-.01.04-.02h0s.02-.02.04-.02c.01-.02.03-.03.04-.05,0,0,0,0,.01,0,.01,0,.03,0,.04-.02.01-.01.03-.02.04-.04,0,0,.02-.02.02-.03.01-.01.02-.02.03-.04,0,0,.01-.02.02-.02,0,0,.01-.02.02-.02,0,0,.01-.02.02-.02,0,0,.02-.02.02-.02,0,0,.02-.02.02-.02,0,0,.01-.02.02-.02,0,0,.01-.02.02-.02,0-.01.02-.02.03-.03,0,0,.01-.01.02-.02.01-.01.02-.02.03-.03,0,0,.01-.02.02-.02,0-.01.01-.03.02-.04,0,0,.01-.02.02-.02,0-.01.02-.02.03-.03,0,0,.01-.01.02-.02,0-.01.02-.02.03-.03.01-.01.02-.02.02-.04,0-.01.02-.02.03-.04,0,0,.01-.01.02-.02.01-.01.02-.02.03-.03,0-.01.02-.03.03-.04,0-.01.02-.03.03-.04,0,0,.01-.02.02-.03,0-.01.02-.03.03-.04,0,0,.02-.02.02-.03.01-.01.03-.03.04-.04,0-.01.01-.02.02-.04,0,0,0-.02,0-.03,0,0,.02,0,.02-.02.01-.02.02-.04.04-.05,0,0,.01-.02.02-.02.01-.01.02-.02.03-.04,0-.01.02-.03.02-.04,0-.01.02-.02.03-.04,0-.01.02-.03.03-.04,0-.01.02-.03.03-.04,0,0,.01-.02.02-.03.01-.02.02-.04.04-.05,0,0,.01-.02.02-.03.01-.02.03-.04.04-.06,0-.01.01-.02.02-.04,0,0,0-.01,0-.02.01,0,.02-.01.03-.02.01-.02.03-.04.04-.06,0,0,.01-.02.02-.03,0-.02.02-.03.02-.05.01-.02.02-.03.03-.05,0-.01.01-.03.02-.04,0-.01,0-.02,0-.03,0,0,0-.01,0-.02.01,0,.02-.02.04-.02,0-.02,0-.04.01-.06.01,0,.02-.02.04-.02,0-.02,0-.04.01-.06.02-.01.02-.04.05-.05,0,0,0-.02,0-.03.02-.01.02-.04.05-.05,0-.02,0-.04.01-.06.01,0,.02-.02.04-.02,0-.02,0-.04.01-.06.01,0,.02-.02.04-.02,0-.02,0-.04.01-.06.02-.01.02-.04.05-.05,0-.02,0-.04.01-.06.01,0,.02-.02.04-.02,0-.02,0-.04.01-.06.02-.01.02-.04.05-.05,0-.02,0-.04.01-.06.01,0,.02-.02.04-.02,0-.02,0-.04.01-.06.02-.01.02-.04.05-.05,0-.02,0-.04.01-.06.02-.01.02-.04.05-.05,0-.02,0-.04.01-.06.02-.01.02-.04.05-.05,0-.02,0-.04.01-.06.01,0,.02-.02.04-.02,0-.02,0-.04.01-.06.02-.01.02-.04.05-.05,0-.03.01-.06.02-.09.01,0,.02-.02.04-.02,0-.03.01-.06.02-.09.01,0,.02-.02.04-.02,0-.03.01-.06.02-.09.01,0,.02-.02.04-.02,0-.03.01-.06.02-.09.02-.01.02-.04.05-.05,0-.03.01-.06.02-.09.01,0,.02-.02.04-.02,0-.04.02-.08.03-.11.02-.01.02-.04.05-.05,0-.02,0-.04.01-.06.01,0,.02-.02.02-.03,0,0,.01,0,.02,0,.03-.02.05-.04.06-.07,0-.03.02-.05.04-.07.02-.03.03-.06.04-.09,0-.03.02-.05.04-.07.01-.02.02-.05.02-.08,0-.03-.01-.07.02-.09,0,0,0-.02,0-.03.02-.01.03-.03.04-.05,0-.04,0-.08.03-.11,0,0,0-.02,0-.03.02-.01.04-.03.04-.05,0-.05,0-.11.06-.14.03-.03.04-.06.04-.1-.01-.05,0-.09.05-.12.03-.03.04-.06.04-.1,0-.05,0-.09.04-.12.02-.02.04-.05.04-.08,0-.05-.02-.1.03-.14,0,0,0-.02,0-.03.04-.02.06-.06.06-.1,0-.05,0-.11.04-.15h0s.06-.06.06-.1c0-.04-.01-.09.03-.12,0,0,0-.02,0-.03.03-.02.05-.04.05-.07,0-.05-.02-.11.03-.15,0,0,0-.02,0-.03.03-.02.05-.04.06-.08,0-.06-.02-.12.04-.17,0,0,0-.02,0-.03.03-.02.05-.04.06-.08,0-.06-.02-.12.04-.17,0,0,0-.02,0-.03.04-.02.06-.06.06-.1,0-.05,0-.11.03-.15,0,0,0-.02,0-.03.04-.02.06-.06.06-.1,0-.07,0-.14.04-.2h0s.06-.06.06-.1c0-.06-.02-.13.04-.18h0s.06-.06.06-.1c0-.06-.02-.13.04-.18,0,0,0-.02,0-.03.03-.02.05-.04.06-.08,0-.06-.02-.12.04-.17,0-.02,0-.04.01-.06.04-.02.06-.06.06-.1,0-.06,0-.12.04-.18,0,0,0-.02,0-.03.04-.02.06-.06.06-.1,0-.07,0-.14.04-.2,0,0,0-.02,0-.03.04-.03.06-.06.06-.11,0-.08,0-.16.05-.23h0s.07-.07.06-.13c0-.06,0-.13.04-.18,0-.02,0-.04.01-.06.04-.02.06-.06.06-.1,0-.07,0-.14.04-.2,0,0,0-.02,0-.03.05-.03.07-.08.07-.13,0-.07,0-.14.05-.2,0-.02,0-.04.01-.06.04-.02.06-.06.06-.1,0-.08,0-.16.05-.23,0-.02,0-.04.01-.06.04-.02.06-.06.06-.1-.01-.07.01-.14.03-.21,0,0,0,0,0,0,0,0,0,0,0,0,0,0,.02,0,.03,0,0-.02,0-.04.01-.06,0-.01,0-.02,0-.03.01-.03.02-.06.03-.09.01-.01.02-.03.01-.05,0,0,0-.02,0-.03.01-.04.02-.08.03-.13,0,0,.01,0,.02,0,0-.04.02-.08.03-.11v-.04s.05-.08.05-.13c.03-.07.02-.16.07-.22,0-.03.01-.06.02-.09.04-.03.06-.06.06-.1,0-.04,0-.07,0-.11,0,0,0-.01.01-.02.03-.08.02-.17.08-.24,0-.04.02-.08.03-.11.06-.04.08-.1.08-.17-.01-.05,0-.1.01-.14.06-.24.11-.49.17-.73.02-.03.04-.05.03-.09,0-.03-.04-.06-.02-.1,0-.01,0-.02.01-.04,0-.02,0-.05,0-.07,0-.01,0-.02,0-.03,0-.02,0-.03-.01-.05,0-.01,0-.02,0-.03,0-.01,0-.03-.01-.05,0-.01,0-.02,0-.03,0-.02,0-.03-.02-.05,0-.01-.01-.02-.02-.03,0,0-.02-.02-.03-.03-.11-.08-.2-.19-.31-.27-.28-.23-.59-.43-.99-.41-.08,0-.14-.02-.21-.05-.02,0-.03,0-.05,0-.02,0-.03,0-.05,0-.03,0-.05.02-.08.03-.02.01-.05,0-.07.01-.01,0-.02,0-.03,0-.01,0-.03.01-.04.02-.01,0-.02,0-.03,0-.01,0-.03.01-.04.02-.01,0-.02,0-.03,0-.01,0-.03.01-.04.02h0s-.05,0-.07.01h0s-.03.01-.04.02c-.01,0-.02,0-.03,0-.01,0-.03.01-.04.02-.01,0-.02,0-.03,0-.01,0-.03.01-.04.02h0s-.03.01-.04.02c-.01,0-.02,0-.03,0-.01,0-.03.01-.04.02-.01,0-.02,0-.03,0-.01,0-.03.01-.04.02-.01,0-.02,0-.03,0-.01,0-.03.01-.04.02-.01,0-.02,0-.03,0-.02.01-.05,0-.07.01h0s-.05,0-.07.01c-.01,0-.02,0-.03,0-.01,0-.03.01-.04.02-.02,0-.04,0-.06-.01-.01,0-.03.01-.04.02-.01,0-.02,0-.03,0-.02.01-.05,0-.07.01-.01,0-.02,0-.03,0-.02.01-.05,0-.07.01-.01,0-.02,0-.03,0-.02.01-.05,0-.07.01-.01,0-.02,0-.03,0-.02.01-.05,0-.07.01-.01,0-.02,0-.03,0-.02.01-.05,0-.07.01-.01,0-.02,0-.03,0-.02.01-.05,0-.07.01-.01,0-.02,0-.03,0-.02.01-.05,0-.07.01-.01,0-.02,0-.03,0-.02.01-.05,0-.07.01-.02,0-.04,0-.06-.01-.01,0-.03.01-.04.02-.02,0-.04,0-.06-.01-.02.01-.05,0-.07.01-.01,0-.02,0-.03,0-.02.01-.05,0-.07.01-.01,0-.02,0-.03,0-.02.01-.05,0-.07.01-.02,0-.04,0-.06-.01-.02.01-.05,0-.07.01-.01,0-.02,0-.03,0-.02.01-.05,0-.07.01-.02,0-.04,0-.06-.01-.02.01-.05,0-.07.01-.01,0-.02,0-.03,0-.02.01-.05,0-.07.01-.01,0-.02,0-.03,0-.02.01-.05,0-.07.01-.02,0-.04,0-.06-.01-.02.01-.05,0-.07.01-.01,0-.02,0-.03,0-.02.01-.05,0-.07.01-.02,0-.04,0-.06-.01-.02.01-.05,0-.07.01-.01,0-.02,0-.03,0-.02.01-.05,0-.07.01-.02,0-.04,0-.06-.01-.02.01-.05,0-.07.01-.01,0-.02,0-.03,0-.03.02-.07-.01-.1,0-.01,0-.02,0-.03,0-.02.01-.05,0-.07.01-.02,0-.04,0-.06-.01-.02.01-.05,0-.07.01-.01,0-.02,0-.03,0-.02.01-.05,0-.07.01-.02,0-.04,0-.06-.01-.02.01-.05,0-.07.01-.01,0-.02,0-.03,0-.02.01-.05,0-.07.01-.02,0-.04,0-.06-.01-.02.01-.05,0-.07.01-.01,0-.02,0-.03,0-.03.02-.07-.01-.1,0-.01,0-.02,0-.03,0-.02.01-.05,0-.07.01-.01,0-.02,0-.03,0-.03.02-.07-.01-.1,0-.01,0-.02,0-.03,0-.02.01-.05,0-.07.01-.01,0-.02,0-.03,0-.03.02-.07-.01-.1,0-.01,0-.02,0-.03,0-.02.01-.05,0-.07.01-.02,0-.04,0-.06-.01-.02.01-.05,0-.07.01-.01,0-.02,0-.03,0-.02.01-.05,0-.07.01-.01,0-.02,0-.03,0-.03.02-.07-.01-.1,0-.01,0-.02,0-.03,0-.02.01-.05,0-.07.01-.01,0-.02,0-.03,0-.02.01-.05,0-.07.01-.02,0-.04,0-.06-.01-.02.01-.05,0-.07.01-.01,0-.02,0-.03,0-.03.02-.07-.01-.1,0-.01,0-.02,0-.03,0-.02.01-.05,0-.07.01-.01,0-.02,0-.03,0-.02.01-.05,0-.07.01-.02,0-.04,0-.06-.01-.02.01-.05,0-.07.01-.01,0-.02,0-.03,0-.02.01-.05,0-.07.01-.02,0-.04,0-.06-.01-.02.01-.05,0-.07.01-.01,0-.02,0-.03,0-.02.01-.05,0-.07.01-.01,0-.02,0-.03,0-.02.01-.05,0-.07.01-.02,0-.04,0-.06-.01-.02.01-.05,0-.07.01-.01,0-.02,0-.03,0-.02.01-.05,0-.07.01-.01,0-.02,0-.03,0-.02.01-.05,0-.07.01-.01,0-.02,0-.03,0-.02.01-.05,0-.07.01-.01,0-.02,0-.03,0-.03.02-.07-.01-.1,0-.01,0-.02,0-.03,0,0,0-.02,0-.02.01-.01,0-.03,0-.05,0-.01,0-.02,0-.03,0-.02.01-.05,0-.07.01-.01,0-.02,0-.03,0-.02.01-.05,0-.07.01-.02,0-.04,0-.06-.01-.01,0-.03.01-.04.02-.02,0-.04,0-.06-.01-.02.01-.05,0-.07.01-.01,0-.02,0-.03,0-.02.01-.05,0-.07.01-.01,0-.02,0-.03,0-.02.01-.05,0-.07.01-.01,0-.02,0-.03,0-.02.01-.05,0-.07.01-.01,0-.02,0-.03,0-.02.01-.05,0-.07.01-.01,0-.02,0-.03,0-.02.01-.05,0-.07.01-.01,0-.02,0-.03,0-.02.01-.05,0-.07.01-.01,0-.02,0-.03,0-.02.01-.05,0-.07.01-.01,0-.02,0-.03,0-.02.01-.05,0-.07.01-.01,0-.02,0-.03,0-.02.01-.05,0-.07.01-.01,0-.02,0-.03,0-.02.01-.05,0-.07.01-.01,0-.02,0-.03,0-.01,0-.03.01-.04.02-.02,0-.04,0-.06-.01-.01,0-.03.01-.04.02-.02,0-.04,0-.06-.01-.01,0-.03.01-.04.02-.01,0-.02,0-.03,0-.02.01-.05,0-.07.01-.01,0-.02,0-.03,0-.02.01-.05,0-.07.01-.01,0-.02,0-.03,0-.02.01-.05,0-.07.01-.01,0-.02,0-.03,0-.02.01-.05,0-.07.01-.01,0-.02,0-.03,0-.01,0-.03.01-.04.02-.02,0-.04,0-.06-.01-.01,0-.03.01-.04.02-.02,0-.04,0-.06-.01-.01,0-.03.01-.04.02-.01,0-.02,0-.03,0-.02.01-.05,0-.07.01-.01,0-.02,0-.03,0-.02.01-.05,0-.07.01-.01,0-.02,0-.03,0-.01,0-.03.01-.04.02-.02,0-.04,0-.06-.01-.01,0-.03.01-.04.02-.02,0-.04,0-.06-.01-.01,0-.03.01-.04.02-.01,0-.02,0-.03,0,0,0,0,0-.01,0,0,0,0,0,0,0-.02,0-.04,0-.06,0-.02.01-.05,0-.07.01-.01,0-.02,0-.03,0-.02.01-.05,0-.07.01-.01,0-.02,0-.03,0-.02.01-.05,0-.07.01-.01,0-.02,0-.03,0-.02.01-.05,0-.07.01h-.02s-.02,0-.02,0c-.01,0-.03.01-.04.02-.01,0-.02,0-.03,0-.02.01-.05,0-.07.01-.01,0-.02,0-.03,0-.02.01-.05,0-.07.01h-.02s-.02,0-.02,0c-.01,0-.03.01-.04.02-.01,0-.02,0-.03,0-.02.01-.05,0-.07.01-.01,0-.02,0-.03,0-.02.01-.05,0-.07.01h-.02s-.02,0-.02,0c-.01,0-.03.01-.04.02-.01,0-.02,0-.03,0-.02.01-.05,0-.07.01-.01,0-.02,0-.03,0-.02.01-.05,0-.07.01-.01,0-.02,0-.03,0-.01,0-.03.01-.04.02-.01,0-.02,0-.03,0-.02.01-.05,0-.07.01-.01,0-.02,0-.03,0-.02.01-.05,0-.07.01-.01,0-.02,0-.03,0-.01,0-.03.01-.04.02-.01,0-.02,0-.03,0-.02.01-.05,0-.07.01-.01,0-.02,0-.03,0-.01,0-.03.01-.04.02-.02,0-.04,0-.06-.01-.01,0-.03.01-.04.02-.01,0-.02,0-.03,0-.02.01-.05,0-.07.01h-.02s-.02,0-.02,0c-.01,0-.03.01-.04.02-.01,0-.02,0-.03,0-.02.01-.05,0-.07.01-.01,0-.02,0-.03,0-.01,0-.03.01-.04.02-.01,0-.02,0-.03,0-.02.01-.05,0-.07.01-.01,0-.02,0-.03,0-.02.01-.05,0-.07.01h-.02s-.02,0-.02,0c-.01,0-.03.01-.04.02-.01,0-.02,0-.03,0-.02.01-.05,0-.07.01-.01,0-.02,0-.03,0-.01,0-.03.01-.04.02-.01,0-.02,0-.03,0-.02.01-.05,0-.07.01h-.02s-.02,0-.02,0c-.01,0-.03.01-.04.02-.01,0-.02,0-.03,0-.02.01-.05,0-.07.01-.01,0-.02,0-.03,0-.01,0-.03.01-.04.02-.01,0-.02,0-.03,0-.02.01-.05,0-.07.01-.01,0-.02,0-.03,0-.01,0-.03.01-.04.02-.01,0-.02,0-.03,0-.02.01-.05,0-.07.01-.01,0-.02,0-.03,0-.01,0-.03.01-.04.02-.01,0-.02,0-.03,0-.02.01-.05,0-.07.01h-.02s-.02,0-.02,0c-.01,0-.03.01-.04.02-.01,0-.02,0-.03,0-.01,0-.03.01-.04.02-.01,0-.02,0-.03,0-.02.01-.05,0-.07.01-.01,0-.02,0-.03,0-.01,0-.03.01-.04.02-.01,0-.02,0-.03,0-.02.01-.05,0-.07.01-.02.01-.05,0-.07.01-.01,0-.02,0-.03,0-.01,0-.03.01-.04.02-.01,0-.02,0-.03,0-.01,0-.03.01-.04.02-.01,0-.02,0-.03,0-.02.01-.05,0-.07.01-.01,0-.02,0-.03,0-.01,0-.03.01-.04.02-.01,0-.02,0-.03,0-.01,0-.03.01-.04.02-.01,0-.02,0-.03,0-.01,0-.03.01-.04.02-.01,0-.02,0-.03,0-.01,0-.03.01-.04.02-.01,0-.02,0-.03,0-.01,0-.03.01-.04.02-.01,0-.02,0-.03,0-.01,0-.03.01-.04.02-.01,0-.02,0-.03,0-.01,0-.03.01-.04.02h0s-.05,0-.07.01h0s-.03.01-.04.02h0s-.02.04-.05.05c0,0,0,.02,0,.03-.02.01-.02.04-.05.05h0s-.02.04-.05.05c0,0,0,.02,0,.03-.01,0-.02.02-.04.02,0,0,0,.02,0,.03-.02.01-.02.04-.05.05-.02.01-.02.04-.05.05,0,0,0,.02,0,.03-.01,0-.02.02-.04.02,0,0,0,.02,0,.03-.01,0-.02.02-.04.02,0,0,0,.02,0,.03-.02.01-.02.04-.05.05h0s-.02.04-.05.05c0,0,0,.02,0,.03-.01,0-.02.02-.04.02,0,0,0,.02,0,.03-.01,0-.02.02-.04.02,0,0,0,.02,0,.03-.01,0-.02.02-.04.02,0,0,0,.02,0,.03-.01,0-.02.02-.04.02,0,0,0,.02,0,.03-.01,0-.02.02-.04.02,0,0,0,.02,0,.03-.01,0-.02.02-.04.02,0,0,0,.02,0,.03-.04.05-.05.11-.04.17Z"/>
    <polygon class="cls-2" points="194.56 14.72 194.56 14.72 194.56 14.72 194.56 14.72"/>
  </g>
  <g>
    <polygon class="cls-1" points="10.55 6.13 10.55 6.13 10.55 6.13 10.55 6.13"/>
    <path class="cls-1" d="M11.94,4.86s-.02,0-.04,0c-.02.02-.05.02-.07.04-.01,0-.02,0-.04,0-.01.01-.02.02-.04.04-.01,0-.02,0-.04,0-.01.01-.02.02-.03.04-.01,0-.02,0-.04,0-.01.01-.02.03-.04.04h0s-.02.03-.03.04c-.01,0-.02,0-.04,0-.01.01-.02.02-.03.04-.02.01-.05.03-.07.04-.01.01-.02.03-.03.04h0s-.02.03-.03.04h0s-.02.03-.03.04h0s-.05.02-.07.04h0s-.02.03-.03.04c-.01.01-.02.03-.03.04-.01.01-.02.03-.03.04-.01.01-.02.03-.03.04-.04.08-.1.14-.17.19-.06.04-.1.09-.14.15-.01.01-.02.03-.03.04-.01.01-.02.03-.03.04h0s-.02.03-.03.04h0s-.02.03-.03.04h0s-.02.03-.03.04h0s-.02.03-.03.04c0,.03,0,.06-.03.07-.01.01-.02.03-.03.04-.02.02-.01.05-.03.07-.01.01-.02.03-.03.04-.01.01-.02.03-.03.04,0,0-.01.02-.01.03,0,0-.01,0-.02,0-.01.02-.02.05-.03.07-.01.01-.02.03-.03.04,0,.01,0,.02,0,.04-.01.01-.02.03-.03.04h0s-.02.03-.03.04c0,.01,0,.02,0,.04-.01.01-.02.03-.03.04,0,.01,0,.02,0,.04-.01.01-.02.03-.03.04,0,.01,0,.02,0,.04-.01.01-.02.03-.03.04h0s-.02.03-.03.04c-.01.02-.02.05-.03.07-.01.01-.02.03-.03.04-.02.04-.05.07-.07.11-.01.01-.02.03-.03.04h0s-.02.03-.03.04c-.01.01-.02.03-.03.04h0s-.02.03-.03.04c-.02.04-.05.07-.07.11-.01.01-.02.03-.03.04h0s-.02.03-.03.04h0s-.02.03-.03.04h0s-.02.03-.03.04h0s-.02.03-.03.04h0s-.02.03-.03.04h0s-.02.03-.03.04c-.03.05-.07.1-.1.15-.01.01-.02.03-.03.04h0s-.02.03-.03.04h0s-.02.03-.03.04h0s-.02.03-.03.04h0s-.02.03-.03.04h0s-.02.03-.03.04h0s-.02.03-.03.04c-.01.01-.02.03-.03.04-.01.01-.02.03-.03.04-.01.01-.02.03-.03.04h0s-.02.03-.03.04h0s-.02.03-.03.04h0s-.02.03-.03.04h0s-.02.03-.03.04h0s-.02.03-.03.04h0s-.02.03-.03.04h0s-.02.03-.03.04h0s-.02.03-.03.04h0s-.02.03-.03.04h0s-.02.03-.03.04c-.03.07-.1.12-.15.18-.13.16-.29.29-.4.46-.01.01-.02.03-.03.04h0s-.02.03-.03.04c-.05.03-.08.06-.1.11-.01.01-.02.03-.03.04h0s-.02.03-.03.04h0s-.02.03-.03.04h0s-.02.03-.03.04h0s-.02.03-.03.04h0s-.02.03-.03.04h0s-.02.03-.03.04h0s-.02.03-.03.04h0s-.02.03-.03.04h0s-.02.03-.03.04h0s-.02.03-.03.04h0s-.02.03-.03.04h0s-.02.03-.03.04h0s-.02.03-.03.04h0s-.02.03-.03.04h0s-.02.03-.03.04h0s-.02.03-.03.04h0s-.02.03-.03.04h0s-.02.03-.03.04h0s-.02.03-.03.04h0s-.02.03-.03.04h0s-.02.03-.03.04h0s-.02.03-.03.04h0s-.02.03-.03.04h0s-.02.03-.03.04h0s-.02.03-.03.04h0s-.02.03-.03.04h0s-.02.03-.03.04h0s-.02.03-.03.04h0s-.02.03-.03.04h0s-.02.03-.03.04h0s-.02.03-.03.04h0s-.02.03-.03.04h0s-.02.03-.03.04h0s-.02.03-.03.04h0s-.02.03-.03.04h0s-.02.03-.03.04h0s-.02.03-.03.04h0s-.02.03-.03.04h0s-.02.03-.03.04h0s-.02.03-.03.04h0s-.02.03-.03.04h0s-.02.03-.03.04h0s-.02.03-.03.04h0s-.02.03-.03.04h0s-.02.03-.03.04h0s-.02.03-.03.04h0s-.02.03-.03.04h0s-.02.03-.03.04h0s-.02.03-.03.04h0s-.02.03-.03.04h0s-.02.03-.03.04h0s-.02.03-.03.04h0s-.02.03-.03.04h0s-.02.03-.03.04h0s-.02.03-.03.04h0s-.02.03-.03.04h0s-.02.03-.03.04c-.01.01-.02.03-.03.04-.01.01-.02.03-.03.04-.01.01-.02.03-.03.04-.01.01-.02.03-.03.04-.01.01-.02.03-.03.04-.01.01-.02.03-.03.04h0s-.02.03-.03.04h0s-.02.03-.03.04h0s-.02.03-.03.04h0s-.02.03-.03.04h0s-.02.03-.03.04h0s-.02.03-.03.04h0s-.02.03-.03.04h0s-.02.03-.03.04h0s-.02.03-.03.04h0s-.02.03-.03.04c-.06.08-.11.15-.17.23-.01.01-.02.03-.03.04h0s-.02.03-.03.04h0s-.02.03-.03.04h0s-.02.03-.03.04h0s-.02.03-.03.04h0s-.02.03-.03.04h0s-.02.03-.03.04c-.01.01-.02.03-.03.04-.01.01-.02.03-.03.04h0s-.02.03-.03.04h0s-.02.03-.03.04h0s-.02.03-.03.04h0s-.02.03-.03.04c-.02.04-.05.07-.07.11-.01.01-.02.03-.03.04h0s-.02.03-.03.04h0s-.02.03-.03.04h0s-.02.03-.03.04h0s-.02.03-.03.04h0s-.02.03-.03.04h0s-.02.03-.03.04h0s-.02.03-.03.04c-.01.02-.02.05-.03.07-.01.01-.02.03-.03.04h0s-.02.03-.03.04h0s-.02.03-.03.04c-.01.01-.02.03-.03.04h0s-.02.02-.03.02c0,0-.01,0-.02.01-.01,0-.02.02-.03.03,0,.01-.01.02-.02.03,0,.01-.01.02-.02.03,0,0,0,.01-.01.02,0,0-.02.02-.02.03,0,0,0,0-.01.01,0,0-.02.02-.02.03-.02.02-.03.04-.04.07,0,.01-.01.02-.02.03,0,0,0,.01-.01.02,0,0-.02.02-.03.03,0,0,0,0-.01.01,0,0-.02.02-.03.03-.02.02-.03.04-.04.07,0,.01-.01.02-.02.03,0,0,0,.01-.01.02,0,.01-.02.02-.02.03,0,.01-.01.02-.02.03,0,.01-.01.02-.02.03,0,0,0,.01-.01.02,0,.01-.01.02-.02.03,0,.01-.01.02-.02.03,0,.01-.01.02-.02.03,0,0,0,.01-.01.02,0,.01-.01.02-.02.03,0,.01-.01.02-.02.03,0,.02-.01.04-.02.06,0,0,0,.01,0,.02,0,0-.02.01-.02.02,0,0-.01.01-.02.02,0,.01-.02.02-.03.03,0,0,0,.01-.01.02,0,.01-.02.02-.02.03,0,.01-.01.02-.02.03,0,.01-.01.02-.02.03,0,0-.01.01-.01.01,0,0-.02.02-.02.03,0,0,0,0-.01.01,0,0-.02.02-.02.03,0,.01-.01.02-.02.03,0,.01-.01.02-.02.03,0,0-.01.01,0,.01,0,0-.02.02-.02.03,0,0-.01.01-.01.01,0,0-.02.02-.02.03,0,0,0,0-.01.01,0,0-.02.02-.02.03,0,.01-.01.02-.02.03,0,.01-.01.02-.02.03,0,0-.01.01-.01.01,0,0-.01.02-.02.03,0,0,0,.01,0,.02,0,0-.02.02-.03.03,0,0-.01,0-.02.01,0,0-.02.02-.03.03-.02.02-.03.04-.04.06,0,.01-.01.02-.02.03,0,0,0,.01-.01.02,0,0-.02.02-.02.03,0,0,0,0-.01.01,0,0-.02.02-.02.03,0,0,0,.01,0,.02,0,.01,0,.02-.02.03,0,0-.02.02-.03.02,0,0-.01,0-.02.01-.01,0-.02.02-.03.03-.02.02-.03.04-.04.07,0,.01-.01.02-.02.03,0,0,0,.01-.01.02,0,0-.02.02-.02.03,0,0,0,0-.01.01,0,0-.02.02-.02.03,0,0,0,0-.01.01,0,0-.02.02-.02.03,0,0,0,.01,0,.02,0,.01,0,.02-.02.03h0s-.02.03-.03.04h0s-.02.03-.03.04h0s-.02.02-.04.02c0,0-.01,0-.02.01-.01,0-.02.02-.03.03-.02.03-.05.06-.06.09,0,.01-.01.02-.02.04,0,0,0,.01-.01.02,0,.01-.02.02-.02.03,0,0,0,0-.01.01,0,0-.02.02-.02.03,0,0,0,0-.01.01,0,0-.02.02-.02.03,0,0-.01.01-.01.01,0,0-.02.02-.02.03,0,0-.01.01-.01.01,0,0-.02.02-.02.03,0,0,0,0-.01.01,0,0-.01.02-.02.03,0,0,0,.01,0,.02,0,.01,0,.02-.02.03-.01.01-.02.03-.03.04h0s-.02.03-.03.04h0s-.02.03-.03.04h0s-.02.03-.03.04h0s-.02.03-.03.04h0s-.02.03-.03.04h0s-.02.03-.03.04h0s-.02.02-.03.02c0,0-.01,0-.02.01,0,0-.02.02-.03.03,0,0-.01,0-.02.01-.01,0-.02.02-.03.03,0,0-.01,0-.02.02-.01.01-.02.02-.03.03-.04.04-.07.08-.1.13,0,.01-.02.03-.02.04,0,0,0,.01-.01.02,0,.01-.02.03-.03.04,0,.01-.01.02-.02.04-.03.02-.05.05-.06.08-.01.01-.02.03-.03.04h0s-.02.03-.03.04h0s-.02.03-.03.04h0s-.02.03-.03.04h0s-.02.03-.03.04h0s-.02.03-.03.04h0s-.02.03-.03.04h0s-.02.03-.03.04h0s-.02.03-.03.04h0s-.02.03-.03.04h0s-.02.03-.03.04c-.01.01-.02.03-.03.04l-.03.04s-.02.03-.03.04c-.01.01-.02.03-.03.04-.01.01-.02.03-.03.04s-.02.03-.03.04c-.01.01-.02.03-.03.04-.01.01-.02.03-.03.04h0s-.02.03-.03.04h0s-.02.03-.03.04c-.03.05-.07.1-.1.15-.01.01-.02.03-.03.04h0s-.02.03-.03.04h0s-.02.03-.03.04h0s-.02.03-.03.04h0s-.02.03-.03.04h0s-.02.03-.03.04c-.01.01-.02.03-.03.04-.01.01-.02.03-.03.04-.02.04-.05.07-.07.11-.01.01-.02.03-.03.04h0s-.02.03-.03.04h0s-.02.03-.03.04c-.01.01-.02.03-.03.04h0s-.02.03-.03.04c-.01.02-.02.05-.03.07-.01.01-.02.03-.03.04h0s-.02.03-.03.04c-.01.02-.02.05-.03.07-.01.01-.02.03-.03.04-.01.01-.02.03-.03.04,0,.01,0,.02,0,.04-.01.01-.02.03-.03.04,0,.01,0,.02,0,.04-.01.01-.02.03-.03.04,0,.01,0,.02,0,.04-.01.01-.02.03-.03.04,0,.02,0,.05,0,.07-.01.01-.02.03-.03.04,0,.02,0,.05,0,.07,0,0,0,0,0,.01,0,0,0,0-.01.01-.01.04.01.09-.02.12h0s-.04.07-.03.12c.05.15.03.31.04.46,0,.02,0,.04,0,.05,0,0,0,.02-.01.03,0,.04,0,.07.03.1,0,.01,0,.02,0,.04.04.04,0,.09,0,.14,0,.02,0,.05.01.07.01.03.02.06.03.09,0,.03.01.06.02.09.02.03.03.07.03.1,0,.01,0,.03.01.04.01.03.02.05.03.08,0,.02,0,.04.02.06,0,.02.02.04.03.05,0,.01.01.02.02.04,0,.02.02.04.02.05,0,.01,0,.02.01.04,0,.02.02.03.03.05,0,0,.02.02.03.03h0s.02.05.04.07h0s.02.03.04.03c0,.01,0,.02,0,.04.01,0,.02.02.04.03,0,.01,0,.02,0,.04.01.01.03.02.04.03.01.01.03.02.04.03h0s.03.02.04.03h0s.03.02.04.03h0s.03.02.04.03c.02.01.05.02.07.03,0,0,0,0,0,.01,0,.01.02.03.03.04.02.01.04.02.06.03.01,0,.02.01.04.02.02,0,.04.01.05.02.01,0,.02.01.03.02.01,0,.02,0,.04.02.01,0,.02.01.04.02.01,0,.02.01.04.02.01,0,.02.01.04.02.01,0,.02.01.04.02.01,0,.02.01.04.01.02,0,.03.01.05.02.01,0,.02.01.03.01.02,0,.03.02.05.02.01,0,.02,0,.04.01.02,0,.04,0,.05.01.01,0,.02,0,.03.01.02,0,.03.01.05.02.01,0,.02.01.03.01.02,0,.03.01.05.02.02,0,.03.01.05.01.02,0,.03,0,.05.02.01,0,.02,0,.03.01.02,0,.03.01.05.02.02,0,.04.01.05.01.02,0,.04.01.06.02.01,0,.03,0,.04.01.02,0,.04.01.06.02.01,0,.03.01.04.02.02,0,.04.02.06.03.02,0,.03,0,.05,0,.01,0,.02,0,.03,0,0,0,.02.01.03.02.03,0,.05.01.08.02.01,0,.02.01.04.01.02,0,.04.02.05.02.02,0,.04.01.06.01.02,0,.04.01.05.02.02,0,.04.01.06.01.02,0,.04.01.05.02.01,0,.02,0,.04.01.03,0,.05.01.08.02.01,0,.03,0,.04.01.03,0,.06.02.09.03.02,0,.03,0,.05,0,0,0,.02,0,.03,0,.01.01.02.02.04.02.03,0,.06.02.08.03.01,0,.03,0,.04,0,.02,0,.04,0,.07.01.02,0,.05.01.07.02.02,0,.03,0,.05,0,.01,0,.03,0,.04,0,0,0,.02,0,.03,0,.01.01.03.02.04.03.02,0,.05,0,.07,0,.01.01.03.02.04.03.02,0,.05,0,.07,0,.02.02.05.01.07.03.01,0,.02,0,.04,0,.02.02.05.01.07.03.02,0,.05,0,.07,0,.01.01.03.02.04.03.02,0,.05,0,.07,0,.01.01.03.02.04.03.02,0,.05,0,.07,0,.02.02.05.01.07.03.02,0,.05,0,.07,0,.01.01.03.02.04.03.02,0,.05,0,.07,0,.02.02.05.01.07.03.02,0,.05,0,.07,0,.01.01.03.02.04.03.02,0,.05,0,.07,0,.02.02.05.01.07.03.02,0,.05,0,.07,0,.02.02.05.01.07.03.02,0,.05,0,.07,0,.02.02.05.01.07.03.02,0,.05,0,.07,0,.01.01.03.02.04.03.02,0,.05,0,.07,0,.02.02.05.01.07.03.04,0,.07,0,.11,0,.01.01.03.02.04.03.04,0,.07,0,.11,0,.01.01.03.02.04.03.04,0,.07,0,.11,0,.01.01.03.02.04.03.04,0,.07,0,.11,0,.02.02.05.01.07.03.04,0,.07,0,.11,0,.01.01.03.02.04.03.05,0,.1,0,.14,0,.02.02.05.01.07.03.02,0,.05,0,.07,0,.02.01.03.02.05.01,0,0,0,.01.01.02.03.03.07.04.1.04.04,0,.07,0,.1.02.04,0,.08.01.13,0,.03,0,.06,0,.09.02.03,0,.07,0,.1,0,.04-.01.07-.04.11,0,.01,0,.02,0,.04,0,.02.02.04.03.07.03.05-.01.1-.03.15,0,.01,0,.02,0,.04,0,.02.02.05.03.08.02.06-.02.13-.03.19.02.04.02.09.02.14,0,.05-.03.11-.03.15.01.04.02.09.02.14.01.05-.02.1-.03.15.01.03.02.07.02.11.02.06-.01.12-.05.18-.01.01,0,.02,0,.04,0,.04.03.09.04.14.03.06-.02.13-.04.19,0h0s.08.04.13.03c.05-.02.1-.04.16,0,.01,0,.02,0,.04,0,.03.03.07.04.11.04.06,0,.12-.06.19-.01.01,0,.02,0,.04,0,.03.03.07.04.11.04.07-.02.14-.05.22-.01.01,0,.02,0,.04,0,.03.03.07.04.11.04.07-.02.14-.05.22-.01.01,0,.02,0,.04,0,.04.03.09.04.14.03.06-.02.12-.04.19-.01.01,0,.02,0,.04,0,.04.03.09.04.14.04.08-.03.17-.05.26-.02h0s.09.04.14.04c.07-.02.15-.06.22-.02h0s.09.04.14.04c.07-.02.15-.06.22-.02.01,0,.02,0,.04,0,.03.03.07.04.11.04.07-.02.14-.05.22-.01.02,0,.05,0,.07,0,.04.03.09.04.14.03.07-.03.15-.04.22-.01.01,0,.02,0,.04,0,.04.03.09.04.14.04.08-.03.17-.05.26-.02.01,0,.02,0,.04,0,.04.03.09.04.15.03.1-.03.19-.04.29-.01h0c.05.04.11.05.17.03.07-.03.15-.04.23-.01.02,0,.05,0,.07,0,.04.03.09.04.14.04.08-.03.17-.05.26-.02.01,0,.02,0,.04,0,.05.04.11.05.18.03.09-.03.17-.04.26-.01.02,0,.05,0,.07,0,.04.03.09.04.15.04.1-.03.19-.05.29-.02.02,0,.05,0,.07,0,.04.03.09.04.15.04.08-.04.18-.03.27-.04,0,0,0,0,.01,0,0,0,0,0,0,0,0,0,0,.02.01.03.02,0,.05,0,.07,0,.01,0,.03,0,.04,0,.04,0,.08,0,.12,0,.02,0,.04,0,.06,0,.01,0,.02,0,.03,0,.05,0,.11,0,.16,0,0,0,0,.01.01.02.05,0,.1,0,.14,0h.05c.06,0,.11.01.17,0,.1,0,.19-.03.29,0,.04,0,.07,0,.11,0,.04.03.09.04.15.04.04-.02.09-.02.13-.04,0,0,.02,0,.03,0,.11,0,.21-.03.32,0,.05,0,.1,0,.14,0,.07.05.15.05.23.03.06-.03.11-.03.17-.03.31-.01.62-.03.93-.04.04.01.08.02.12,0,.04-.02.06-.06.11-.06.02,0,.03,0,.05,0,.03,0,.05-.02.08-.03.01,0,.03,0,.04-.02.02,0,.03-.02.05-.03.01,0,.02-.01.03-.02.02,0,.03-.02.05-.03.01,0,.02-.01.03-.02.02-.01.04-.02.05-.03.01,0,.02-.02.03-.03,0-.01.02-.03.02-.04.06-.14.16-.27.22-.41.18-.37.31-.76.15-1.18-.03-.08-.02-.15-.01-.23,0-.02,0-.03,0-.05,0-.02,0-.03-.02-.05-.01-.03-.04-.05-.06-.07-.02-.02-.02-.05-.04-.07,0-.01,0-.02,0-.04-.01-.01-.02-.02-.04-.04,0-.01,0-.02,0-.04-.01-.01-.02-.02-.04-.04,0-.01,0-.02,0-.04-.01-.01-.03-.02-.04-.04h0s-.02-.05-.04-.07h0s-.02-.02-.04-.03c0-.01,0-.02,0-.04-.01-.01-.02-.02-.04-.03,0-.01,0-.02,0-.04-.01-.01-.03-.02-.04-.04h0s-.03-.02-.04-.03c0-.01,0-.02,0-.04-.01,0-.02-.02-.04-.03,0-.01,0-.02,0-.04-.01-.01-.02-.02-.04-.03,0-.01,0-.02,0-.04-.01-.01-.02-.02-.04-.03,0-.01,0-.02,0-.04-.02-.02-.02-.05-.04-.07h0s-.02-.05-.04-.07c0-.01,0-.02,0-.04-.01-.01-.02-.02-.04-.03,0-.02,0-.05,0-.07-.01-.01-.02-.02-.04-.04,0-.01,0-.02,0-.04-.02-.02-.02-.05-.04-.07,0-.01,0-.02,0-.04-.02-.02-.02-.05-.04-.07,0-.01,0-.02,0-.04-.02-.02-.02-.05-.04-.07,0-.01,0-.02,0-.04-.02-.02-.02-.05-.04-.07,0-.01,0-.02,0-.04-.02-.02-.02-.05-.04-.07,0-.01,0-.02,0-.04-.02-.02-.02-.05-.04-.07,0-.01,0-.02,0-.04-.02-.02-.02-.05-.04-.07,0-.01,0-.02,0-.04-.02-.02-.02-.05-.04-.07,0-.02,0-.05,0-.07-.01-.01-.02-.02-.04-.04,0-.02,0-.05,0-.07-.02-.02-.02-.05-.04-.07,0-.01,0-.02,0-.04-.02-.02-.02-.05-.04-.07,0-.01,0-.02,0-.04-.02-.02-.02-.05-.04-.07,0-.02,0-.05,0-.07-.02-.02-.02-.05-.04-.07,0-.01,0-.02,0-.04-.02-.02-.02-.05-.04-.07,0-.02,0-.05,0-.07-.02-.02-.02-.05-.04-.07,0-.01,0-.02,0-.04-.02-.02-.02-.05-.04-.07,0-.01,0-.02,0-.04-.02-.02-.02-.05-.04-.07,0-.02,0-.05,0-.07-.02-.02-.02-.05-.04-.07,0-.01,0-.02,0-.04-.02-.02-.02-.05-.04-.07,0-.02,0-.05,0-.07-.02-.02-.02-.05-.04-.07,0-.01,0-.02,0-.04-.02-.02-.02-.05-.04-.07,0-.02,0-.05,0-.07-.02-.02-.02-.05-.04-.07,0-.01,0-.02,0-.04-.04-.03,0-.08-.04-.11,0-.01,0-.02,0-.04-.02-.02-.02-.05-.04-.07,0-.02,0-.05,0-.07-.02-.02-.02-.05-.04-.07,0-.01,0-.02,0-.04-.02-.02-.02-.05-.04-.07,0-.02,0-.05,0-.07-.02-.02-.02-.05-.04-.07,0-.01,0-.02,0-.04-.02-.02-.02-.05-.04-.07,0-.02,0-.05,0-.07-.02-.02-.02-.05-.04-.07,0-.01,0-.02,0-.04-.04-.03,0-.08-.04-.11,0-.01,0-.02,0-.04-.02-.02-.02-.05-.04-.07,0-.01,0-.02,0-.04-.04-.03,0-.08-.04-.11,0-.01,0-.02,0-.04-.02-.02-.02-.05-.04-.07,0-.01,0-.02,0-.04-.04-.03,0-.08-.04-.11,0-.01,0-.02,0-.04-.02-.02-.02-.05-.04-.07,0-.02,0-.05,0-.07-.02-.02-.02-.05-.04-.07,0-.01,0-.02,0-.04-.02-.02-.02-.05-.04-.07,0-.01,0-.02,0-.04-.04-.03,0-.08-.04-.11,0-.01,0-.02,0-.04-.02-.02-.02-.05-.04-.07,0-.01,0-.02,0-.04-.02-.02-.02-.05-.04-.07,0-.02,0-.05,0-.07-.02-.02-.02-.05-.04-.07,0-.01,0-.02,0-.04-.04-.03,0-.08-.04-.11,0-.01,0-.02,0-.04-.02-.02-.02-.05-.04-.07,0-.01,0-.02,0-.04-.02-.02-.02-.05-.04-.07,0-.02,0-.05,0-.07-.02-.02-.02-.05-.04-.07,0-.01,0-.02,0-.04-.02-.02-.02-.05-.04-.07,0-.02,0-.05,0-.07-.02-.02-.02-.05-.04-.07,0-.01,0-.02,0-.04-.02-.02-.02-.05-.04-.07,0-.01,0-.02,0-.04-.02-.02-.02-.05-.04-.07,0-.02,0-.05,0-.07-.02-.02-.02-.05-.04-.07,0-.01,0-.02,0-.04-.02-.02-.02-.05-.04-.07,0-.01,0-.02,0-.04-.02-.02-.02-.05-.04-.07,0-.01,0-.02,0-.04-.02-.02-.02-.05-.04-.07,0-.01,0-.02,0-.04-.04-.03,0-.08-.04-.11,0-.01,0-.02,0-.04,0,0-.02-.01-.02-.02,0-.02,0-.03-.02-.05,0-.01,0-.02,0-.04-.02-.02-.02-.05-.04-.07,0-.01,0-.02,0-.04-.02-.02-.02-.05-.04-.07,0-.02,0-.05,0-.07-.01-.01-.02-.02-.04-.03,0-.02,0-.05,0-.07-.02-.02-.02-.05-.04-.07,0-.01,0-.02,0-.04-.02-.02-.02-.05-.04-.07,0-.01,0-.02,0-.04-.02-.02-.02-.05-.04-.07,0-.01,0-.02,0-.04-.02-.02-.02-.05-.04-.07,0-.01,0-.02,0-.04-.02-.02-.02-.05-.04-.07,0-.01,0-.02,0-.04-.02-.02-.02-.05-.04-.07,0-.01,0-.02,0-.04-.02-.02-.02-.05-.04-.07,0-.01,0-.02,0-.04-.02-.02-.02-.05-.04-.07,0-.01,0-.02,0-.04-.02-.02-.02-.05-.04-.07,0-.01,0-.02,0-.04-.02-.02-.02-.05-.04-.07,0-.01,0-.02,0-.04-.02-.02-.02-.05-.04-.07,0-.01,0-.02,0-.04-.01-.01-.02-.02-.04-.03,0-.02,0-.05,0-.07-.01-.01-.02-.02-.04-.03,0-.02,0-.05,0-.07-.01-.01-.02-.02-.04-.03,0-.01,0-.02,0-.04-.02-.02-.02-.05-.04-.07,0-.01,0-.02,0-.04-.02-.02-.02-.05-.04-.07,0-.01,0-.02,0-.04-.02-.02-.02-.05-.04-.07,0-.01,0-.02,0-.04-.02-.02-.02-.05-.04-.07,0-.01,0-.02,0-.04-.01-.01-.02-.02-.04-.03,0-.02,0-.05,0-.07-.01-.01-.02-.02-.04-.03,0-.02,0-.05,0-.07-.01-.01-.02-.02-.04-.03,0-.01,0-.02,0-.04-.02-.02-.02-.05-.04-.07,0-.01,0-.02,0-.04-.02-.02-.02-.05-.04-.07,0-.01,0-.02,0-.04-.01,0-.02-.02-.04-.03,0-.02,0-.05,0-.07-.01-.01-.02-.02-.04-.03,0-.02,0-.05,0-.07-.01-.01-.02-.02-.04-.03,0-.01,0-.02,0-.04,0,0,0,0-.01-.01,0,0,0,0,0,0,0-.02,0-.04-.02-.06-.02-.02-.02-.05-.04-.07,0-.01,0-.02,0-.04-.02-.02-.02-.05-.04-.07,0-.01,0-.02,0-.04-.02-.02-.02-.05-.04-.07,0-.01,0-.02,0-.04-.02-.02-.02-.05-.04-.07v-.02s0-.02,0-.02c-.01-.01-.02-.02-.04-.04,0-.01,0-.02,0-.04-.02-.02-.02-.05-.04-.07,0-.01,0-.02,0-.04-.02-.02-.02-.05-.04-.07v-.02s0-.02,0-.02c-.01-.01-.02-.02-.04-.04,0-.01,0-.02,0-.04-.02-.02-.02-.05-.04-.07,0-.01,0-.02,0-.04-.02-.02-.02-.05-.04-.07v-.02s0-.02,0-.02c-.01-.01-.02-.02-.04-.04,0-.01,0-.02,0-.04-.02-.02-.02-.05-.04-.07,0-.01,0-.02,0-.04-.02-.02-.02-.05-.04-.07,0-.01,0-.02,0-.04-.01-.01-.02-.02-.04-.03,0-.01,0-.02,0-.04-.02-.02-.02-.05-.04-.07,0-.01,0-.02,0-.04-.02-.02-.02-.05-.04-.07,0-.01,0-.02,0-.04-.01-.01-.02-.02-.04-.03,0-.01,0-.02,0-.04-.02-.02-.02-.05-.04-.07,0-.01,0-.02,0-.04-.01-.01-.02-.02-.04-.03,0-.02,0-.05,0-.07-.01-.01-.02-.02-.04-.04,0-.01,0-.02,0-.04-.02-.02-.02-.05-.04-.07v-.02s0-.02,0-.02c-.01-.01-.02-.02-.04-.04,0-.01,0-.02,0-.04-.02-.02-.02-.05-.04-.07,0-.01,0-.02,0-.04-.01-.01-.02-.02-.04-.03,0-.01,0-.02,0-.04-.02-.02-.02-.05-.04-.07,0-.01,0-.02,0-.04-.02-.02-.02-.05-.04-.07v-.02s0-.02,0-.02c-.01-.01-.02-.02-.04-.04,0-.01,0-.02,0-.04-.02-.02-.02-.05-.04-.07,0-.01,0-.02,0-.04-.01-.01-.02-.02-.04-.04,0-.01,0-.02,0-.04-.02-.02-.02-.05-.04-.07v-.02s0-.02,0-.02c-.01-.01-.02-.02-.04-.04,0-.01,0-.02,0-.04-.02-.02-.02-.05-.04-.07,0-.01,0-.02,0-.04-.01-.01-.02-.02-.04-.04,0-.01,0-.02,0-.04-.02-.02-.02-.05-.04-.07,0-.01,0-.02,0-.04-.01-.01-.02-.02-.04-.04,0-.01,0-.02,0-.04-.02-.02-.02-.05-.04-.07,0-.01,0-.02,0-.04-.01-.01-.02-.02-.04-.04,0-.01,0-.02,0-.04-.02-.02-.02-.05-.04-.07v-.02s0-.02,0-.02c-.01-.01-.02-.02-.04-.04,0-.01,0-.02,0-.04-.01-.01-.02-.02-.04-.03,0-.01,0-.02,0-.04-.02-.02-.02-.05-.04-.07,0-.01,0-.02,0-.04-.01-.01-.02-.02-.04-.04,0-.01,0-.02,0-.04-.02-.02-.02-.05-.04-.07-.02-.02-.02-.05-.04-.07,0-.01,0-.02,0-.04-.01-.01-.02-.02-.04-.04,0-.01,0-.02,0-.04-.01-.01-.02-.02-.04-.03,0-.01,0-.02,0-.04-.02-.02-.02-.05-.04-.07,0-.01,0-.02,0-.04-.01-.01-.02-.02-.04-.04,0-.01,0-.02,0-.04-.01-.01-.02-.02-.04-.04,0-.01,0-.02,0-.04-.01-.01-.02-.02-.04-.03,0-.01,0-.02,0-.04-.01,0-.02-.02-.04-.03,0-.01,0-.02,0-.04-.01-.01-.02-.02-.04-.03,0-.01,0-.02,0-.04-.01-.01-.02-.02-.04-.03,0-.01,0-.02,0-.04-.01-.01-.03-.02-.04-.04h0s-.02-.05-.04-.07h0s-.03-.02-.04-.03h0s-.05-.01-.07-.03c-.01,0-.02,0-.04,0-.02-.02-.05-.01-.07-.03h0s-.05-.01-.07-.03c-.01,0-.02,0-.04,0-.01-.01-.03-.02-.04-.03-.01,0-.02,0-.04,0-.02-.02-.05-.01-.07-.03-.02-.02-.05-.01-.07-.03-.01,0-.02,0-.04,0-.01-.01-.03-.02-.04-.03-.01,0-.02,0-.04,0-.01-.01-.03-.02-.04-.03-.01,0-.02,0-.04,0-.02-.02-.05-.01-.07-.03h0s-.05-.01-.07-.03c-.01,0-.02,0-.04,0-.01-.01-.03-.02-.04-.03-.01,0-.02,0-.04,0-.01-.01-.03-.02-.04-.03-.01,0-.02,0-.04,0-.01-.01-.03-.02-.04-.03-.01,0-.02,0-.04,0-.01-.01-.03-.02-.04-.03-.01,0-.02,0-.04,0-.01-.01-.03-.02-.04-.03-.01,0-.02,0-.04,0-.01-.01-.03-.02-.04-.03-.01,0-.02,0-.04,0-.07-.02-.15-.02-.22.01Z"/>
    <polygon class="cls-1" points="11.24 5.33 11.24 5.33 11.24 5.33 11.24 5.33"/>
  </g>
</svg>