<?xml version="1.0" encoding="UTF-8"?>
<svg id="_內容" data-name="內容" xmlns="http://www.w3.org/2000/svg" viewBox="0 0 114.31 48.66">
  <defs>
    <style>
      .cls-1 {
        fill: #ca142a;
      }

      .cls-2 {
        fill: #f4d924;
      }

      .cls-3 {
        fill: #fff;
      }

      .cls-4 {
        fill: #744720;
      }

      .cls-5 {
        fill: #178dc0;
      }

      .cls-6 {
        fill: #0a6fb4;
      }

      .cls-7 {
        fill: #004086;
      }
    </style>
  </defs>
  <polygon class="cls-6" points="0 17.67 11.35 17.67 11.35 21.34 7.77 21.34 7.43 26.29 13.15 26.29 13.15 30.3 0 30.3 0 26.63 2.73 26.63 3.33 21.26 0 21.26 0 17.67"/>
  <path class="cls-6" d="M28.51,27.23c0-2.9-2.39-5.29-5.29-5.29-1.11,0-2.13.34-2.9.85h-.17l.34-3.33h6.23v-3.93h-14.51v3.76h3.59l-.85,7.94h4.7l1.96-1.28,1.37,1.71-3.84,2.82-2.9,2.05,2.48,2.73,7.17-3.33v-.09c1.54-.85,2.65-2.56,2.65-4.61"/>
  <path class="cls-6" d="M34.66,14.77c1.37,0,2.48,1.11,2.48,2.48s-1.11,2.48-2.48,2.48-2.48-1.11-2.48-2.48c0-1.37,1.11-2.48,2.48-2.48"/>
  <path class="cls-6" d="M44.65,22.02h-3.33v-.77h3.33v.77ZM44.65,24.58h-3.33v-.68h3.33v.68ZM48.57,23.9h3.33v.68h-3.33v-.68ZM48.57,21.26h3.33v.77h-3.33v-.77ZM55.57,27.15h-7.09v-.6h3.59v-.09c1.79-.17,3.24-1.71,3.24-3.59s-1.45-3.41-3.24-3.59h-3.59v-.77h5.38v-2.99h-5.38v-.68h-3.84v.68h-5.46v2.99h5.46v.77h-3.41c-1.96,0-3.59,1.62-3.59,3.59s1.62,3.59,3.59,3.59h3.41v.6h-7.26v3.16h7.34v.94h3.84v-.94h7v-3.07h0Z"/>
  <path class="cls-6" d="M55.83,30.82s-1.71,1.2-5.38,1.2h-11.1v-.09c-1.62,0-2.82-1.28-2.82-2.9v-6.4c0-1.2-.94-2.13-2.13-2.13-.43,0-.77.09-1.11.26h0l-4.18,2.39,1.96,2.9,1.79-1.11v4.35c-2.05.6-3.59,2.48-3.59,4.78,0,.26,0,.51.09.68h3.24c0-1.2.77-2.13,1.79-2.48.94,1.71,2.73,2.9,4.78,2.9h9.48c5.38.26,7.94-3.41,7.94-3.41l-.77-.94Z"/>
  <path class="cls-6" d="M78.11,21.94c-1.02,0-1.88-.85-1.88-1.88s.85-1.88,1.88-1.88,1.88.85,1.88,1.88-.85,1.88-1.88,1.88M78.11,15.11c-2.73,0-4.95,2.22-4.95,4.95s2.22,4.95,4.95,4.95,4.95-2.22,4.95-4.95c.09-2.73-2.13-4.95-4.95-4.95"/>
  <path class="cls-6" d="M64.54,19.29h-2.22l.6-.77h1.62v.77ZM71.11,22.88l-.43-.68h1.88v-2.9h-3.5v-.68h3.33v-2.99h-9.65l-.85-1.02-5.04,5.29,2.05,1.02v1.2h4.44l-.43.6h-4.1c.77,1.37,2.22,2.3,3.93,2.3,1.96,0,3.59-1.28,4.18-2.99.17,1.54,1.54,2.73,3.07,2.73,1.28,0,2.39-.77,2.9-1.96l-1.79.09c0-.09,0,0,0,0Z"/>
  <path class="cls-6" d="M62.4,29.02c.34-.43.85-.77,1.45-.77h13.91c.6,0,1.11.34,1.45.77h-16.82ZM77.77,31.58h-13.91c-.6,0-1.11-.26-1.37-.68h16.65c-.34.43-.85.68-1.37.68M78.02,25.44h-14.26c-2.48.09-4.35,2.05-4.35,4.44s2.05,4.52,4.52,4.52h13.83c2.48,0,4.52-1.96,4.52-4.52-.09-2.3-1.96-4.27-4.27-4.44"/>
  <path class="cls-2" d="M98.08,39.52c-.09,1.11-.09,2.39-.17,3.41.77,0,2.05.6,2.73,1.37.94-.43,2.3-.26,2.39-.09.09-.77.09-2.99.09-4.7-.68.34-3.93.26-5.04,0"/>
  <path class="cls-2" d="M103.97,39.52c0,1.62.09,3.93.09,4.61,0-.17,1.28-.34,2.22.09.68-.77,2.13-1.37,2.9-1.37-.09-1.02-.09-2.3-.17-3.41-1.02.34-4.27.43-5.04.09"/>
  <path class="cls-2" d="M94.5,23.48c-.26-.17-.51-.17-.68,0-.17.09-.34.26-.43.51s-.09.43,0,.68c.09.17.17.34.26.43.51.34.94.85,1.2,1.54.26-.68.51-1.37.85-2.13-.43-.43-.77-.77-1.2-1.02"/>
  <path class="cls-2" d="M97.14,32.78v-.6c-.09.26-.26.51-.26.6l.09.09c.26.17.51.34.77.51v-.51c-.43,0-.6-.09-.6-.09"/>
  <path class="cls-3" d="M96.97,47.63c-1.2-1.96-2.22-1.62-2.39-.94v.77c.17.68,2.99,1.54,5.8.51.77-.26,2.56-.6,2.65-1.2,0-.17.09-.43.09-.68-.51.43-2.05.77-2.73,1.02-1.11.43-2.48.51-3.41.51"/>
  <path class="cls-3" d="M110.2,47.55c-.94.09-2.39,0-3.5-.43-.68-.26-2.22-.6-2.73-1.02,0,.26,0,.43.09.68.09.6,1.88.94,2.65,1.2,2.73,1.02,5.63.26,5.8-.51.09-.26.09-.51,0-.77l-.09-.09c-.34-.51-1.45-.43-2.22.94"/>
  <path class="cls-5" d="M100.73,44.3c-.68-.77-2.05-1.37-2.73-1.37-.26,0-.43.09-.51.17-.26.34-.34.51-.51.77h-.26c-.26.09-.85.77-.85.94-1.11.77-1.11,1.2-1.2,1.88.17-.68,1.2-1.02,2.39.94.94.09,2.3-.09,3.41-.43.68-.26,2.22-.6,2.73-1.02.09-.68,0-1.54-.09-1.96-.09-.26-1.54-.34-2.39.09"/>
  <path class="cls-5" d="M106.28,44.3c-.94-.43-2.13-.26-2.22-.09-.09.43-.09,1.2-.09,1.96.51.43,2.05.77,2.73,1.02,1.11.43,2.56.51,3.5.43.68-1.45,1.88-1.54,2.22-1.02l.09.09c-.09-.68-.09-1.11-1.2-1.88,0-.17-.6-.94-.85-.94h-.26c-.17-.17-.26-.43-.51-.77-.09-.09-.26-.17-.51-.17-.77,0-2.22.6-2.9,1.37"/>
  <path class="cls-7" d="M103.55,33.12c-2.39,0-4.87-.09-5.89-.17v6.4c0,.09.17.17.34.17,1.11.26,4.35.43,5.12,0,.09-.09.17-.09.17-.17,0-.26.09-3.41.17-4.1.09,0,.09-.09.17-.09.09.26.17,4.01.17,4.18,0,.09.09.09.17.17.77.34,4.01.26,5.12,0,.26-.09.34-.09.34-.17.09-.34.09-4.01,0-6.49-1.02.09-3.41.17-5.89.26"/>
  <path class="cls-2" d="M93.73,31.93c-.85,1.45-.77,3.59.43,4.44.43.34.85.34,1.02.26h.51c.34,0,.51-.26.43-.6.09,0,.17-.09.17-.17.09-.17.17-.26.09-.34l.09-.09c.26-.34.17-.51-.34-.94.09-.26.09-.6.17-.94.09-.34.09-.6.09-.85-.68.09-2.05-.26-2.65-.77"/>
  <path class="cls-2" d="M110.63,32.78c0,.17,0,.43.09.77s.09.68.17.94c-.51.43-.68.6-.43.94l.09.09c0,.09,0,.26.09.34q.09.09.17.17c-.09.34.09.51.43.6h.51c.17.17.6.09,1.02-.17,1.2-.77,1.45-2.9.68-4.35-.68.34-2.22.68-2.82.68"/>
  <path class="cls-1" d="M113.45,32.01c.26-.17.43-.34.34-.51-1.02-3.59-2.48-9.22-5.8-12.29-1.88,1.62-6.83,1.71-8.71-.09-1.54,1.2-2.73,3.24-3.59,5.29-.34.68-.6,1.45-.85,2.13-.77,2.22-1.28,4.18-1.45,4.7-.09.26.09.51.34.68.68.51,2.05.77,2.73.94h.34s.09,0,.09-.09c.09-.09.17-.34.26-.6v.6s.17.09.51.09c1.02.09,3.5.26,5.89.17,2.48,0,4.87-.17,5.89-.26.34-.09.51-.09.51-.17s0-.43-.09-.85c.17.51.34.94.43.94h.26c.68.09,2.22-.26,2.9-.68M106.53,25.18c-.85,0-1.45-.6-1.37-2.48h2.65c.26,2.13-.43,2.48-1.28,2.48"/>
  <path class="cls-1" d="M107.9,19.21c-.17-.17-.43-.34-.68-.51-1.62,1.28-5.72,1.45-7.34,0-.26.17-.43.26-.68.43,1.88,1.79,6.91,1.71,8.71.09"/>
  <path class="cls-2" d="M107.3,18.69c-.09-.09-.26-.17-.34-.26-.09-.09-.17-.09-.26-.17-1.02.34-2.13.43-3.16.43s-2.05-.17-2.99-.43c-.09.09-.26.09-.34.17s-.17.09-.34.17c1.62,1.45,5.72,1.37,7.43.09"/>
  <path class="cls-1" d="M105.08,22.71c-.09,1.88.51,2.48,1.37,2.48s1.62-.34,1.28-2.48h-2.65Z"/>
  <path class="cls-3" d="M97.66,2.39c-.51-.85-1.37-.6-1.88-.17s-.68,1.54.17,1.96c.43-.68,1.02-1.28,1.71-1.79"/>
  <path class="cls-3" d="M111.23,4.27c.77-.43.68-1.54.17-1.96s-1.45-.68-1.88.09c.6.51,1.2,1.2,1.71,1.88"/>
  <path class="cls-2" d="M99.53,12.38c1.37-.68,2.82-1.28,3.93-1.28s2.82.68,4.1,1.45c1.54.85,2.82,1.88,2.99,3.41,1.2-1.37,2.05-3.07,2.13-5.38.09-1.79-.17-3.33-.68-4.7,2.13-.85,1.79-3.67.51-4.87-1.37-1.2-3.59-1.54-4.7.43-1.37-.68-2.9-1.02-4.35-1.02-1.54,0-3.07.34-4.35,1.02-1.02-1.96-3.33-1.62-4.7-.51-1.28,1.2-1.62,4.01.51,4.87-.51,1.37-.85,2.9-.68,4.7.17,2.22.94,4.01,2.13,5.38.17-1.71,1.54-2.73,3.16-3.5M111.4,2.3c.51.43.68,1.54-.17,1.96-.51-.77-1.11-1.37-1.79-1.88.51-.77,1.37-.51,1.96-.09M107.73,8.02c.51.09.6,1.71,0,1.71-.68-.09-.6-1.79,0-1.71M98.77,9.73c-.6,0-.51-1.62,0-1.71s.6,1.62,0,1.71M95.69,2.22c.51-.43,1.45-.68,1.88.17-.68.51-1.28,1.11-1.79,1.88-.77-.43-.6-1.62-.09-2.05"/>
  <path class="cls-3" d="M103.55,18.78c1.11,0,2.22-.17,3.16-.43,1.54-.43,2.9-1.28,3.93-2.39-.17-1.54-1.45-2.56-2.99-3.41-1.37-.77-2.99-1.45-4.1-1.45s-2.56.6-3.93,1.28c-1.62.77-2.99,1.88-3.16,3.59,1.11,1.2,2.56,2.05,4.18,2.48.85.17,1.88.34,2.9.34M104.31,11.35c0,.17-.26.68-.77.68-.43,0-.85-.43-.77-.68,0-.17,1.54-.26,1.54,0"/>
  <path class="cls-4" d="M103.55,12.04c.6,0,.85-.51.77-.68,0-.17-1.62-.17-1.62.09,0,.17.43.6.85.6"/>
  <path class="cls-3" d="M98.68,8.02c-.51.09-.6,1.71,0,1.71.68-.09.6-1.79,0-1.71"/>
  <path class="cls-3" d="M107.64,9.73c.6,0,.51-1.62,0-1.71s-.6,1.62,0,1.71"/>
  <path d="M113.79,32.35c0-.09-.09-.17-.09-.26.09-.09.17-.09.17-.17.17-.17.09-.34.09-.43-.09-.26-.17-.6-.26-.85-1.02-3.67-2.48-8.62-5.63-11.44-.26-.17-.43-.43-.68-.6-.09-.09-.17-.09-.26-.17,1.02-.34,1.96-.85,2.82-1.54.85-.68,1.54-1.54,2.05-2.48.09.09.26.09.34.17l.17.09.17.09.34.17q.17.09.26,0s0-.09-.17-.17l-.34-.17-.17-.09-.17-.09c-.09-.09-.26-.09-.34-.17.17-.34.26-.6.43-.94h.77q.17,0,.26-.09s0-.09-.17-.09h-.68c.26-.77.43-1.62.43-2.48.09-1.71-.09-3.24-.68-4.61.6-.34,1.11-.77,1.37-1.45.43-1.2,0-2.73-.94-3.59-.68-.6-1.62-1.02-2.48-1.02-1.02,0-1.79.51-2.3,1.37-1.28-.6-2.82-.94-4.27-.94h0c-1.54,0-2.99.34-4.27.94-.51-.85-1.37-1.37-2.39-1.37-.85,0-1.79.34-2.48,1.02-.94.85-1.37,2.39-.94,3.59.26.68.68,1.2,1.37,1.45-.51,1.37-.77,2.9-.68,4.61.09.85.17,1.71.43,2.48h-.43s-.26,0-.34.09c-.17,0-.17.09-.17.09,0,0,.09.09.26,0h.77c.09.34.26.68.43.94-.09.09-.26.09-.34.17l-.17.09-.17.09s-.17.09-.34.17c-.17.09-.17.17-.17.17h.26c.17-.09.34-.17.34-.17l.17-.09.17-.09c.09-.09.26-.09.34-.17.51.94,1.2,1.79,2.05,2.56.85.68,1.79,1.2,2.9,1.54-.09.09-.17.09-.26.17-.26.17-.43.26-.68.43-1.54,1.2-2.65,3.16-3.59,5.12-.34-.34-.68-.6-1.02-.77-.26-.17-.6-.17-.85,0-.26.09-.43.34-.51.6s-.09.51,0,.77.17.43.34.51c.51.26.85.77,1.11,1.37-.43,1.28-.77,2.48-1.02,3.41-.17.6-.26,1.02-.34,1.2s-.09.43.09.6c.09.09.17.17.26.26h0c-.09.09-.09.26-.17.34-.09.17-.09.34-.17.34-.17.68-.26,1.37-.17,2.05.09.34.17.68.34,1.02.17.34.43.6.68.77.17.09.26.17.43.26s.34.09.6.09h.68c.34,0,.51-.17.6-.34,0-.09.09-.17.09-.34.09,0,.09-.09.17-.17.09-.17.17-.26.17-.43h0c.34-.43.17-.68-.34-1.11,0-.09,0-.17.09-.26.09-.34.09-.6.17-.94v-.26h.26c.17.17.43.34.68.51v5.8c0,.09,0,.17.34.26v.17c0,.94-.09,2.05-.09,2.99-.17,0-.34.09-.43.17h0l-.17.17c-.09.17-.26.34-.34.43h-.26c-.26.09-.85.68-.94,1.02-1.11.77-1.2,1.28-1.2,1.88v.94c.17.6,1.54,1.11,3.24,1.11.94,0,1.96-.17,2.82-.51.17-.09.43-.17.68-.17.94-.26,1.96-.6,2.05-1.11,0-.17.09-.43.09-.68.09-.68.09-1.54-.09-1.96.09-.68.09-2.39.09-4.01v-.6c.09-.09.17-.17.17-.26,0-.26,0-1.79.09-2.9.09,1.11.09,2.65.09,2.9,0,.09.09.17.17.26v.51c0,1.54.09,3.33.09,4.01-.09.43-.09,1.28-.09,1.96,0,.26,0,.51.09.68.09.6,1.11.85,2.05,1.11.26.09.51.17.68.17.85.34,1.88.51,2.82.51,1.71,0,3.07-.51,3.24-1.11.09-.26.09-.51,0-.85v-.09c-.09-.6-.09-1.11-1.2-1.88-.17-.34-.68-.94-.94-1.02h-.26c-.09-.09-.17-.26-.34-.43l-.17-.17h0c-.09-.09-.26-.17-.43-.17,0-.85-.09-1.96-.17-2.99v-.17c.34-.09.34-.26.34-.26.09-.34.09-3.84,0-6.4.09,0,.17,0,.26-.09h.17l.09-.09h0c.09.09.09.17.09.17.09,0,.09.09.17.09v.26c0,.34.09.68.09,1.02v.26c-.51.43-.68.68-.34,1.11h0c0,.09,0,.26.17.43,0,.09.09.09.17.17v.34c.09.17.17.34.6.34h.51s.09,0,.09.09c.26.09.43,0,.6-.09s.34-.17.51-.26c.34-.17.51-.43.68-.77s.34-.6.34-.94c.17-.68.09-1.37-.09-2.05-.26-.26-.26-.43-.34-.68M112.68,36.19c-.09.09-.26.17-.43.17-.17.09-.26.09-.34,0-.09,0-.17-.09-.17-.17v-.26q.09,0,.17-.09c.09-.09.17-.17.26-.26.09-.17.17-.34.17-.51l.09-.09c.09-.09.09-.17.17-.26s.09-.17.17-.34c0-.17,0-.26-.09-.34l-.09-.09q-.09-.09-.17,0v.17s0,.09.09.17v.17c0,.09-.09.09-.09.17v-.26c0-.09-.09-.6-.17-.94-.09-.43-.17-.51-.26-.43-.09,0-.09.17,0,.51.09.34.09.85.09.85v.68c0,.17-.09.26-.09.43,0,.09-.09.09-.09.09h-.17c-.09,0-.17-.09-.26-.17-.09-.09-.09-.26-.17-.43-.09-.34-.09-.6-.17-.94,0-.34-.09-.68-.09-.94v-.26c.6-.09,1.79-.26,2.56-.68,0,.09.09.17.09.26.09.17.09.34.09.34.17.6.17,1.28.09,1.88-.43.68-.68,1.28-1.2,1.54M110.89,36.28c0-.09,0-.26.09-.51,0,.09.09.09.17.17,0,0,.09.09.17.09v.51h-.17c-.09-.17-.17-.17-.26-.26M110.46,32.61c-.09-.09-.17-.43-.34-.85-.09-.51-.09-.94-.17-1.37-.09-.68-.17-1.28-.26-1.96s-.17-1.28-.26-1.88-.17-1.28-.34-1.88c-.09-.6-.26-1.28-.34-1.88l-.09-.34-.09-.34c0-.09-.09-.51-.26-.85s-.26-.43-.34-.43-.09.17,0,.51c0,.17.09.26.09.43-.26-.26-.51-.6-.77-.85-.17-.26-.43-.43-.6-.68.43-.17.77-.43,1.11-.6,2.99,2.82,4.35,7.68,5.38,11.18.09.34.17.6.26.85v.17c-.26.34-2.3.77-2.99.77.09,0,0,0,0,0M109.27,39.27c-.34.26-2.73.43-4.35.34-.68-.09-.85-.17-.94-.17,0-.26-.09-3.41-.17-4.1.17-.17.34-.43.43-.85.09-.34.09-.77.09-1.11h.26c.68,0,1.28,0,1.96-.09.43,0,.77,0,1.2-.09.51.51,1.2.68,1.62.77,0,2.22,0,4.87-.09,5.29M108.92,39.78c0,.34,0,.68.09,1.11h-.26c-.77.09-1.54.26-2.05.34-.51.09-.85.17-.94.34,0,.09.34.34.85.43.6.17,1.37.17,2.22.09h.17v.68c-.85.09-2.05.6-2.82,1.28-.51-.17-1.11-.26-1.37-.26s-.43,0-.68.09c0-.77-.09-2.39-.09-3.76v-.43c.17.09.43.09.68.09.34,0,.77.09,1.2.09.51,0,1.11,0,1.71-.09.6.09,1.02,0,1.28,0h0M109.69,43.36c.09.09.17.17.17.34-.68.17-1.71.6-1.96,1.02s-.17.77-.09.94c.17.26.43.43.85.43.26,0,.43-.09.6-.17.43-.34,1.62-.85,2.05-.85.77.51.94.85,1.02,1.2-.17-.09-.26-.09-.43-.09-.68,0-1.28.51-1.71,1.28h-.43c-1.02,0-2.13-.17-2.9-.43-.17-.09-.43-.17-.68-.26-.6-.17-1.54-.43-1.88-.68-.09-.68,0-1.45,0-1.79.09,0,.26-.09.68-.09.51,0,.94.09,1.37.26h.17c.68-.77,2.05-1.28,2.82-1.28.17,0,.34,0,.34.17h0ZM109.52,48.23c-.94,0-1.88-.17-2.65-.43-.17-.09-.43-.17-.68-.26-.68-.17-1.79-.51-1.79-.85v-.26c.43.26,1.2.43,1.71.6.26.09.51.17.68.26.85.26,1.96.51,2.99.51h.51q.09,0,.17-.09c.43-.85,1.02-1.2,1.45-1.2.17,0,.34.09.43.17v.77c-.09.34-1.2.77-2.82.77M111.06,44.65c-.6.17-1.62.6-2.05.94-.09.09-.26.09-.34.09-.26,0-.43-.09-.51-.26s0-.43.09-.51c.26-.43,1.45-.94,2.05-.94h.17c.17.09.43.43.6.68M101.07,47.55c-.26.09-.51.17-.77.26-.85.34-1.79.43-2.65.43-1.62,0-2.82-.51-2.9-.85-.09-.17-.09-.51,0-.77.09-.17.17-.43.51-.43.26,0,.77.17,1.54,1.37,0,.09.09.09.17.09h.51c1.02,0,2.22-.17,2.99-.51.17-.09.43-.17.68-.26.6-.17,1.28-.34,1.71-.6v.26c-.09.6-1.11.85-1.79,1.02M96.8,43.96c.6,0,1.79.51,2.05.94.09.17.17.34.09.51-.09.17-.26.26-.51.26-.17,0-.26,0-.34-.09-.34-.26-1.45-.77-2.05-.94.17-.26.51-.6.6-.68h.17M95.86,44.99c.43,0,1.62.51,2.05.85.17.09.34.17.6.17.34,0,.68-.17.85-.43.09-.17.17-.51-.09-.94-.26-.51-1.28-.94-1.96-1.02.09-.09.17-.17.17-.34l.09-.17c.09-.09.17-.09.34-.09.68,0,1.96.6,2.65,1.28.09.09.17.09.17,0,.34-.17.85-.26,1.45-.26.43,0,.68.09.77.09.09.34.09,1.02,0,1.79-.34.26-1.28.51-1.88.68-.26.09-.51.17-.68.26-.77.26-1.88.43-2.9.43h-.34c-.6-.94-1.28-1.54-1.79-1.54-.17,0-.26,0-.34.09,0-.17.17-.43.85-.85M102.86,43.88c-.17-.09-.43-.09-.77-.09-.51,0-1.02.09-1.45.26-.68-.68-1.79-1.2-2.65-1.28v-.68h.17c.85.09,1.62,0,2.22-.09.6-.17.85-.34.85-.43s-.34-.17-.94-.34c-.51-.09-1.28-.26-2.05-.34h-.26c0-.34,0-.77.09-1.11v-.09c.26.09.6.09,1.11.17.6.09,1.11.09,1.71.09.43,0,.85,0,1.2-.09.34,0,.51-.09.77-.09v.43c.09,1.28.09,2.9,0,3.67M96.46,35.26c-.09-.09-.17-.17-.26-.26v-.09c.17.17.26.26.26.34M95.95,36.37c0,.09-.17.09-.26.09h-.17v-.09c.09-.17.09-.26,0-.43q.09,0,.17-.09c.09,0,.09-.09.17-.17.09.43.17.6.09.68M96.12,35.51h0q.17.17.09.34c0-.17-.09-.26-.09-.34M96.03,34.23c-.09.34-.09.6-.17.94-.09.17-.09.26-.17.43-.09.09-.17.17-.26.17h-.17l-.09-.09c-.09-.09-.09-.26-.09-.43v-.68c0-.09.09-.51.17-.85.09-.43.09-.51,0-.51s-.17.09-.26.43c-.17.34-.17.85-.17.94v.26c0-.09-.09-.09-.09-.17v-.17c0-.09.09-.09.09-.17v-.17h-.17s-.09.09-.17.09c-.09.09-.09.17-.09.34s.09.26.09.34c.09.09.09.17.17.26l.09.09c0,.17.09.34.17.51.09.09.09.17.26.26.09,0,.09.09.17.09v.26c0,.09-.09.17-.26.17-.09,0-.26,0-.34-.09-.17-.09-.26-.17-.43-.26-.51-.34-.77-.94-.85-1.54s-.09-1.28.17-1.88c0,0,0-.17.09-.34,0-.09.09-.17.17-.34.68.43,1.79.68,2.48.77v.26c-.26.43-.26.77-.34,1.11M93.47,31.33c.09-.26.26-.68.43-1.28.77-2.73,2.39-8.28,5.38-10.67.34.26.68.51,1.11.68-.26.17-.85.77-1.71,1.88,0-.17.09-.34.09-.51.09-.34.09-.51,0-.51s-.17.09-.26.43-.17.85-.26.85l-.09.34-.09.34c-.09.6-.26,1.28-.34,1.88s-.17,1.28-.26,1.88c-.09.6-.17,1.28-.26,1.88-.09.68-.17,1.28-.26,1.96,0,.34-.09.68-.09.94v.6c-.09.26-.17.43-.26.51-.51,0-2.73-.51-3.07-1.11q-.09,0-.09-.09M95.27,24.33q.09.09.17.17c-.26.51-.43,1.02-.6,1.62-.17-.34-.34-.6-.51-.77.09-.34.6-.85.94-1.02M95.44,14.17l.17-.09.17-.09.34-.17c.09,0,.09-.09.17-.09v-.09h-.26c-.17,0-.34.09-.34.09l-.17.09-.17.09h-.09c-.09-.26-.26-.51-.34-.85h.68l.34.09h.26s0-.09-.17-.09c-.17-.09-.34-.09-.34-.09h-.77c-.09-.17-.17-.43-.17-.68.17-.09.34-.26.43-.34.43-.34.6-.6.6-.77-.09-.17-.43-.26-.94-.17h-.34c0-.17,0-.34-.09-.6,0-.68,0-1.37.09-2.05.77-.17,1.2-.43,1.2-.68,0-.17-.34-.34-.85-.51h-.17c.34-1.54,1.02-2.82,2.05-3.93,1.45-1.54,3.5-2.48,5.72-2.73v.43c-.6.09-1.11.17-1.54.34-.68.26-1.02.51-.94.6s.43.17,1.11.26c.43,0,1.02.09,1.62.09,0,.17.09.26.09.43-.34.09-.6.17-.77.26-.43.17-.68.34-.68.43,0,.17.77.51,1.71.6.17.6.43,1.02.51,1.02.17,0,.43-.34.6-1.02.34,0,.68-.09.94-.17.43-.09.68-.26.68-.34s-.26-.34-.6-.51c-.17-.09-.43-.17-.68-.26,0-.17.09-.26.09-.43.6,0,1.02-.09,1.45-.09.6-.09,1.02-.09,1.11-.17,0-.09-.34-.43-.94-.68-.43-.17-.85-.26-1.45-.34v-.43c2.22.26,4.18,1.2,5.63,2.73,1.02,1.11,1.71,2.39,2.05,3.93h-.09c-.51.17-.85.34-.85.51s.43.43,1.11.6c.09.68.09,1.37.09,2.05,0,.17,0,.34-.09.51h-.26c-.51,0-.85.09-.94.17-.09.17.17.43.6.77.09.09.26.17.34.26-.09.26-.17.51-.17.77h-.77s-.26,0-.34.09l-.17.09s.09.09.26,0l.34-.09h.68c-.09.26-.26.6-.34.85h-.09l-.17-.09-.17-.09s-.17-.09-.34-.09h-.26v.09s.09,0,.17.09l.34.09.17.09.17.09h.09c-.26.6-.68,1.02-1.02,1.54-1.79,2.05-4.61,2.9-7.09,2.9v.17h0v-.17c-2.48,0-5.29-.85-7.09-2.9-.51-.17-.85-.68-1.11-1.28h0M94.58,1.11c.68-.6,1.54-.94,2.3-.94.6,0,1.45.17,2.05,1.2-.43.26-.85.51-1.28.77-.34-.43-.68-.43-.94-.43-.34,0-.77.17-1.11.43-.43.34-.6,1.02-.43,1.62.09.26.26.43.43.6-.26.43-.51.85-.68,1.28-.51-.26-.94-.68-1.11-1.28-.43-1.11-.09-2.48.77-3.24M95.52,3.59c-.17-.43,0-.94.34-1.2.26-.26.6-.34.94-.34.26,0,.51.09.68.34-.34.26-.6.51-.85.85-.26.26-.51.51-.68.85-.34-.17-.43-.34-.43-.51M112.51,1.2c.85.77,1.2,2.13.85,3.24-.17.6-.6,1.02-1.11,1.28-.17-.43-.43-.85-.68-1.28.17-.17.34-.34.43-.6.17-.51,0-1.28-.43-1.62-.34-.26-.77-.43-1.11-.43-.26,0-.6.09-.94.43-.43-.26-.77-.51-1.28-.77.6-.94,1.45-1.2,2.05-1.2.68,0,1.54.34,2.22.94M111.31,4.01c-.26-.34-.43-.6-.68-.85s-.6-.51-.85-.77c.17-.17.34-.34.68-.34.26,0,.6.17.94.34.34.26.43.77.34,1.2-.26.17-.34.34-.43.43M99.53,19.21c.09-.09.26-.17.34-.26.77.6,2.05.94,3.59.94s2.99-.34,3.84-.94c.09.09.26.17.34.34-.85.68-2.39,1.11-4.1,1.11-1.62-.09-3.16-.51-4.01-1.2M106.88,18.61s.09.09.17.09c-.77.51-2.13.85-3.5.85s-2.48-.26-3.24-.77h.09c.09-.09.17-.09.26-.17.94.26,1.96.34,2.99.34h0c1.11,0,2.13-.17,3.24-.34q-.09-.09,0,0M109.35,33.55c-.26,0-.68-.17-1.11-.43h.26c.26,0,.51-.09.85-.09-.09.17,0,.34,0,.51M103.46,35c-.09-.26-.17-1.02-.17-1.79h.68c0,.34,0,.77-.09,1.11-.09.43-.26.6-.43.68M97.83,33.55v-.43c.34,0,.6.09.94.09h.09c-.34.17-.77.26-1.02.34M97.83,33.89c.43,0,1.11-.26,1.62-.68.43,0,.85,0,1.28.09h2.22v.6c.09,1.02.17,1.37.34,1.45-.09.94-.17,3.76-.17,4.01,0,0-.17.17-.94.17-1.62.17-4.01-.09-4.35-.34,0-.34,0-2.99,0-5.29M109.44,32.61c-.34,0-.6.09-.94.09-.68.09-1.28.09-1.96.09s-1.28.09-1.96.09h-3.93c-.68,0-1.28-.09-1.96-.09-.34,0-.6,0-.94-.09-.17,0-.34,0-.43-.09h-.09v-1.02c0-.34.09-.6.09-.94.09-.6.17-1.28.26-1.88.09-.6.17-1.28.26-1.88.09-.6.17-1.28.26-1.88.09-.6.17-1.28.34-1.88l.09-.34.09-.34h.09c.85-1.11,1.54-1.79,1.79-2.05v-.09c.85.34,1.88.51,3.07.51,1.11,0,2.13-.17,2.99-.51h0c.17.17.43.43.68.68.43.43.85.94,1.02,1.2h0c0,.09.09.26.09.34l.09.34c.17.6.26,1.28.34,1.88s.17,1.28.26,1.88.17,1.28.26,1.88c.09.6.17,1.28.26,1.88s.17,1.28.17,1.88v.26h0c0,.09-.17.09-.26.09M109.86,32.61h0ZM110.8,35.26h0c-.09.17-.09.26-.17.43,0-.09,0-.17.17-.43M110.72,34.91c-.09.09-.17.17-.26.26,0-.09.09-.17.26-.26q0-.09,0,0"/>
  <path d="M104.91,22.71c0,1.11.17,1.88.51,2.3.26.26.6.43,1.02.43.34,0,.85-.09,1.2-.43.34-.43.43-1.11.34-2.22,0-.09-.09-.17-.17-.17h-2.65c-.17-.09-.26,0-.26.09M106.53,25.01c-.34,0-.6-.09-.77-.26-.34-.34-.43-.94-.43-1.79h2.39c.09.85,0,1.45-.26,1.79-.26.17-.51.26-.94.26"/>
  <path d="M99.28,4.35h-.26c-.51,0-.94.17-1.28.43,0,0-.09.09-.17.17s-.09.09-.17.17c0,0-.09.09-.17.17s-.17.26-.17.34c-.09.17-.09.26-.09.26q0,.09.09.09h.09c.09,0,.09-.09.17-.26s.26-.43.34-.51.09-.09.17-.17.17-.17.17-.17c.34-.26.68-.43,1.11-.34h.34s.26.09.43.26l.09.09.09.09h.09v-.17c0-.09-.09-.09-.09-.17-.09-.09-.26-.17-.34-.26s-.17-.09-.26-.09c0,.09-.09.09-.17.09"/>
  <path d="M106.88,5.12h.09s.09,0,.09-.09l.09-.09c.09-.09.17-.17.26-.17.09-.09.17-.09.17-.09h.34c.43,0,.77.17,1.11.43,0,0,.09.09.17.17s.09.09.17.17l.34.51c.09.09.09.17.17.26.09,0,.09.09.09,0,0,0,.09,0,.09-.09v-.26c0-.09-.09-.26-.17-.34s-.09-.17-.17-.17c-.09-.09-.09-.17-.17-.17-.09-.09-.17-.17-.17-.17-.34-.34-.85-.51-1.28-.51h-.26c-.09,0-.17,0-.26.09,0,0-.09,0-.26.09-.09.09-.26.17-.34.26q-.09.09-.09.17v.09c-.09-.17,0-.09,0-.09"/>
  <path d="M102.52,11.35c0,.17.09.34.26.51s.34.26.6.34v3.5c-.6,0-1.2-.09-1.79-.26,0,0-.17,0-.34-.09-.09,0-.26-.09-.34-.17-.09,0-.51-.26-.77-.51-.09-.09-.17-.09-.17-.17q-.09-.09-.17-.09t-.17,0v.17s0,.09.09.17c0,.09.09.17.17.26.17.17.34.26.51.43.17.09.34.17.34.17.17.09.26.09.34.17.26.09.34.09.34.09.68.17,1.37.26,2.13.34.68,0,1.45-.09,2.13-.26,0,0,.17,0,.34-.09.09,0,.26-.09.34-.17,0,0,.17-.09.34-.17s.34-.26.51-.34l.17-.17q.09-.09.09-.17v-.17h-.17s-.09.09-.17.09l-.17.17c-.26.26-.77.43-.77.43-.09.09-.26.09-.34.17-.17.09-.34.09-.34.09-.6.17-1.28.26-1.88.26v-3.5c.34-.09.51-.26.6-.34.17-.17.17-.34.17-.51q0-.09-.09-.17c-.09-.09-.34-.17-.77-.17-.34,0-.6,0-.77.09-.17-.09-.17.09-.26.09M103.63,11.35c.26,0,.43,0,.51.09q0,.09-.09.17c-.09.09-.26.26-.51.26s-.43-.17-.51-.26c-.09-.09-.09-.17-.09-.17.09,0,.34-.09.68-.09"/>
  <path d="M98.94,7.09c-.85.09-1.28,1.54-1.2,2.82.09,1.2.6,1.96,1.28,1.96h.09c.94-.09,1.37-1.28,1.28-2.48,0-1.11-.51-2.39-1.45-2.3M98.77,9.73c-.6,0-.51-1.62,0-1.71s.6,1.62,0,1.71"/>
  <path d="M107.9,11.87q.09,0,0,0c.77,0,1.28-.77,1.37-1.96.09-1.28-.34-2.73-1.2-2.82-.94-.09-1.37,1.2-1.45,2.3,0,1.2.34,2.48,1.28,2.48M107.64,9.73c-.6,0-.51-1.71,0-1.71.6.09.6,1.71,0,1.71"/>
</svg>