<?xml version="1.0" encoding="UTF-8"?>
<svg id="_內容" data-name="內容" xmlns="http://www.w3.org/2000/svg" viewBox="0 0 17.2 18.84">
  <defs>
    <style>
      .cls-1 {
        fill: #bd7fcc;
      }
    </style>
  </defs>
  <path class="cls-1" d="M6.6,0c-.15,0-.29.1-.33.24-.13.46-.18.97-.18,1.65,0,.46.02.94.05,1.39l.02.38c0,.19.01.38.02.56v.28c.02.32.03.67.07,1.08l.03.42.03.32.03.39-.28.03-.71.11-.11.02c-.35.06-.7.12-1.05.18l-.23.05-.13.03-.26.05h-.07s-.15.03-.15.03l-.23.03-.2.03c-.26.04-.5.07-.73.11-.42.08-.8.15-1.17.27-.16.05-.34.12-.51.21-.15.08-.26.17-.33.26-.14.18-.19.34-.17.51.03.18.11.34.25.48.27.27.64.45,1,.61l.22.1c.09.04.18.08.27.12.08.04.16.08.25.12l.11.05.09.05.25.13c.87.42,1.78.84,2.7,1.23l-.02.47c-.02.65-.03,1.3-.04,1.96,0,.84,0,1.55.02,2.18.02.54.05,1.17.16,1.76.04.19.09.4.19.6,0,0,.13.3.39.35.04,0,.07.01.11.01.22,0,.44-.11.68-.35.28-.27.5-.58.71-.89.19-.28.39-.6.62-.99l.12-.2.12-.2c.06-.11.13-.21.2-.31l.05-.07c.41-.64.81-1.34,1.24-2.22.33.35.68.7,1.04,1.03.46.43,1.08.99,1.73,1.49.2.16.48.36.78.53.11.07.23.13.34.18.1.05.21.09.33.12.09.02.17.03.25.03.04,0,.08,0,.13,0,.11-.02.2-.06.3-.14.19-.15.26-.43.19-.81-.07-.41-.24-.81-.37-1.14-.06-.15-.12-.28-.18-.42l-.19-.44-.14-.38c-.1-.26-.19-.52-.3-.78-.16-.4-.33-.8-.5-1.19-.09-.22-.19-.44-.29-.66l-.09-.19-.06-.13-.13-.29c.53-.34,1.11-.79,1.77-1.35l.42-.37.19-.17c.13-.12.27-.23.4-.35.24-.2.46-.39.67-.58.26-.24.53-.49.77-.77.1-.12.21-.25.29-.4.08-.15.12-.27.12-.38,0-.17-.09-.31-.24-.4-.08-.05-.17-.08-.31-.1-.1-.01-.21-.02-.32-.02-.23,0-.46.03-.65.05-.49.06-.97.15-1.43.23-.16.03-.32.06-.47.09l-.29.03h-.07s-.19.03-.19.03c-.33.04-.66.09-.99.13-.41.06-.83.12-1.23.18-.48-.97-1.02-1.92-1.6-2.81-.82-1.28-1.66-2.39-2.56-3.38-.06-.06-.14-.1-.23-.1"/>
</svg>