<?xml version="1.0" encoding="UTF-8"?>
<svg xmlns="http://www.w3.org/2000/svg" version="1.1" viewBox="0 0 140.15 38.37">
  <!-- Generator: Adobe Illustrator 30.3.0, SVG Export Plug-In . SVG Version: 2.1.3 Build 182)  -->
  <defs>
    <style>
      .st0 {
        fill: #9dc93a;
        mix-blend-mode: multiply;
        opacity: .29;
      }

      .st1 {
        fill: #8dd254;
      }

      .st2 {
        isolation: isolate;
      }

      .st3 {
        fill: none;
        stroke: #fff;
        stroke-linecap: round;
        stroke-linejoin: round;
        stroke-width: 6px;
      }
    </style>
  </defs>
  <g class="st2">
    <g id="_內容">
      <g>
        <path class="st0" d="M133.77,0L3.87,3.84,0,6.57l3.53,3.38-2.9,3.56,3.69,2.59-3.17,4.95,4.11,1.89-4.17,3.78,2.97,2.75-1.8,5.43,3.65.93,1.54,2.54,128.14-3.17,3.13-4.74c-1.09-1.88-2.26-3.35-2.26-3.35l3.69-2.11-3.24-3.84,1.77-2.49-2.67-3.99,1.91-4.21-3.52-2.52,4.07-3.98-4.7-3.96Z"/>
        <g>
          <g>
            <path class="st3" d="M19.33,9.4h9.49c1.73,0,2.6.91,2.6,2.72v14.25c0,1.34-.23,2.2-.68,2.55-.45.62-1.2.94-2.23.94-1.5-.03-3.16-.23-4.97-.59-.34-.12-.62-.34-.82-.66-.2-.28-.3-.65-.3-1.1.03-.42.15-.77.35-1.05.2-.23.5-.36.89-.38.23,0,.48.04.73.12,1.11.25,2.08.38,2.91.38.56,0,.84-.2.84-.59v-3.16h-11.41c-.28,2.25-.76,4.19-1.43,5.81-.12.38-.34.69-.66.94-.23.25-.61.38-1.12.38-.73,0-1.22-.13-1.45-.4-.34-.3-.52-.73-.52-1.31.05-.16.11-.37.19-.63.97-1.81,1.59-3.65,1.85-5.51.09-1.58.14-3.02.14-4.34v-5.74c0-1.75.9-2.62,2.7-2.62h2.91ZM28.14,19.99v-2.32h-11.13v.09c0,.78-.02,1.52-.05,2.23h11.18ZM28.14,14.86v-1.22c0-.75-.31-1.12-.94-1.12h-9.45c-.5,0-.75.21-.75.63v1.71h11.13Z"/>
            <path class="st3" d="M37.14,9.4h7.71c.58,0,.98.12,1.22.35.23.19.35.58.35,1.17,0,.48-.09.84-.28,1.05-.28.36-.71.54-1.29.54h-2.16v4.76h2.6c.58,0,.99.12,1.24.35.25.19.38.58.38,1.17,0,.48-.1.84-.3,1.08-.28.33-.72.49-1.31.49h-2.6v7.88c0,.59-.15,1.02-.45,1.27-.27.3-.68.45-1.24.45s-.98-.15-1.27-.45c-.3-.25-.45-.67-.45-1.27v-7.88h-2.51c-.53,0-.95-.12-1.24-.38-.25-.22-.38-.62-.38-1.2s.12-.97.38-1.17c.27-.23.68-.35,1.24-.35h2.51v-4.76h-2.16c-.53,0-.93-.13-1.2-.4-.27-.22-.4-.62-.4-1.2s.13-.98.4-1.17c.25-.23.65-.35,1.2-.35ZM49.14,9.31c.47,0,.83.13,1.08.4.3.23.45.58.45,1.03v12c0,.34-.1.65-.3.91-.23.31-.64.47-1.22.47-.47,0-.83-.16-1.08-.47-.2-.25-.3-.55-.3-.91v-12c0-.45.12-.8.38-1.03.22-.27.55-.4,1.01-.4ZM54.49,8.09c1.05,0,1.58.44,1.59,1.31v17.91c0,.72-.23,1.29-.68,1.71-.47.5-1.12.75-1.95.75-1.33,0-2.57-.2-3.73-.59-.56-.3-.84-.79-.84-1.48,0-1.09.4-1.69,1.2-1.78.12,0,.26.02.4.07.66.22,1.27.34,1.85.38.45,0,.68-.24.68-.73V9.4c.02-.83.51-1.27,1.48-1.31Z"/>
            <path class="st3" d="M60.7,10.24h5.06c.2-.55.38-1.1.54-1.66.17-.47.45-.72.84-.75.77,0,1.26.09,1.48.28.39.2.59.6.59,1.2,0,.17-.05.42-.14.75-.02.08-.03.14-.05.19h10.41c.55,0,.95.12,1.2.35.22.19.33.58.33,1.17,0,.45-.09.79-.28,1.01-.27.31-.68.47-1.24.47h-11.51c-.27.58-.53,1.12-.8,1.62h9.4c1.58,0,2.37.87,2.37,2.6v9.84c0,.98-.25,1.62-.75,1.9-.53.38-1.31.56-2.34.56-1.16-.03-2.32-.2-3.49-.49-.62-.25-.94-.68-.94-1.29.06-1.05.48-1.62,1.24-1.71.19,0,.37,0,.54.02.61.25,1.33.38,2.16.38.27,0,.4-.28.4-.84v-.84h-9.66v3.26c0,.58-.15.98-.45,1.2-.25.22-.64.33-1.17.33-.58,0-.98-.13-1.22-.4-.23-.28-.35-.66-.35-1.12v-8.27c-.44.38-.88.71-1.34,1.01-.27.22-.51.33-.73.33-.66,0-1.14-.22-1.45-.66-.22-.33-.33-.73-.33-1.22s.18-.88.54-1.12c1.78-1.19,3.13-2.47,4.05-3.84.27-.38.52-.78.77-1.22h-3.68c-.5,0-.88-.11-1.15-.33-.25-.22-.38-.6-.38-1.15,0-.58.12-.97.38-1.17.23-.23.62-.35,1.15-.35ZM66.04,18.99h9.66v-1.03c0-.33-.13-.49-.4-.49h-8.7c-.38,0-.56.16-.56.49v1.03ZM66.04,22.74h9.66v-1.52h-9.66v1.52Z"/>
            <path class="st3" d="M93.21,13.74c.88,0,1.31.31,1.31.94v2.06c0,.75-.41,1.12-1.22,1.12h-7.41c-.12.47-.27.87-.42,1.2h17.86c.34,0,.59.07.73.21.14.12.21.37.21.73,0,.28-.05.5-.16.66-.16.2-.41.3-.77.3h-1.22v5.77l1.8-.05c.31,0,.56.08.75.23.19.17.28.41.28.7,0,.27-.06.47-.19.61-.17.19-.4.3-.68.33l-1.97.05v.14c0,.53-.12.9-.35,1.1-.25.25-.62.38-1.12.38s-.88-.12-1.15-.38c-.25-.22-.38-.59-.38-1.1v-.07l-14.81.33c-.34-.02-.61-.11-.8-.28-.14-.14-.22-.38-.23-.73.02-.36.11-.61.28-.75.17-.12.39-.2.66-.21l1.97-.02v-6.05h-1.1c-.31,0-.55-.08-.73-.23-.12-.09-.2-.27-.23-.54-.39-.02-.7-.09-.91-.21-.25-.16-.38-.4-.38-.73,0-.08.09-.31.26-.7.45-.97.77-2.14.96-3.52.09-.86.69-1.29,1.78-1.29h7.38ZM84.21,8.96h3.42c.03-.33.16-.62.4-.87.2-.17.55-.26,1.05-.26s.88.09,1.08.28c.25.2.38.48.4.84h3.33c.33,0,.57.05.73.16.14.11.21.34.21.68,0,.27-.06.47-.19.61-.17.22-.42.33-.75.33h-3.28v.63h2.6c.31,0,.54.07.68.21.12.11.19.32.19.63,0,.27-.05.46-.16.59-.16.17-.39.26-.7.26h-8.51c-.3,0-.52-.06-.66-.19-.12-.11-.19-.33-.19-.66s.06-.52.19-.63c.12-.14.34-.21.66-.21h2.91v-.63h-3.4c-.3,0-.53-.08-.7-.23-.16-.14-.23-.38-.23-.7s.08-.57.23-.68.39-.16.7-.16ZM86.2,16.34h1.78v-1.12h-1.22c-.31,0-.48.16-.49.49-.02.22-.04.43-.07.63ZM89.17,21.8h9.94v-.84h-9.94v.84ZM89.17,24.31h9.94v-.84h-9.94v.84ZM89.17,26.96l9.94-.19v-.77h-9.94v.96ZM90.11,15.21v1.12h1.9v-1.12h-1.9ZM95.06,12.99c-.17-.06-.33-.16-.47-.28-.23-.25-.35-.53-.35-.84,0-.06.06-.13.19-.21.44-.28.74-.55.91-.8.14-.27.21-.62.21-1.05.05-1.02.58-1.52,1.59-1.52h3.59c1.17,0,1.76.51,1.76,1.52v.84c0,.06.04.09.12.09.41,0,.61-.08.61-.23.03-.28.07-.55.12-.8.08-.27.27-.4.59-.4s.53.08.7.23c.16.14.23.34.23.61,0,.73-.14,1.3-.42,1.71-.25.36-.65.54-1.2.54h-1.57c-1.02,0-1.52-.31-1.52-.94v-.91c0-.2-.12-.3-.35-.3h-1.52c-.23,0-.35.13-.35.4-.05.42-.19.8-.42,1.12-.28.34-.58.59-.89.75-.06.05-.11.08-.14.09h5.65c.72,0,1.24.09,1.57.26.33.23.49.59.49,1.05-.05.58-.38,1.19-1.01,1.83-.3.31-.62.6-.96.87.72.19,1.47.34,2.25.47.39.09.59.38.59.87,0,.3-.12.55-.35.77-.19.22-.48.33-.87.33s-.91-.06-1.55-.19c-.89-.19-1.77-.48-2.62-.89-.12.05-.24.09-.35.12-1.34.44-2.55.67-3.63.7-.38,0-.66-.09-.84-.26-.2-.19-.3-.45-.3-.77,0-.58.28-.89.84-.94.66-.06,1.26-.14,1.8-.23-.59-.44-1.09-.9-1.5-1.38-.2-.19-.3-.37-.3-.54,0-.11.02-.21.05-.3-.31-.16-.48-.43-.49-.82.02-.27.06-.45.14-.56ZM97.64,14.46c.66.52,1.34.95,2.06,1.31.36-.22.69-.44.98-.66.27-.19.4-.34.4-.45,0-.14-.12-.21-.35-.21h-3.09Z"/>
            <path class="st3" d="M109.33,8.96h6.87c.06-.36.18-.62.35-.77.25-.23.7-.35,1.34-.35s1.06.12,1.27.35c.19.17.3.43.35.77h5.86c1.19,0,1.78.49,1.78,1.48v1.24h1.03c.34,0,.59.07.75.21.12.11.19.35.19.73,0,.27-.05.47-.16.61-.16.22-.41.33-.77.33h-1.03v1.22c0,.98-.59,1.48-1.78,1.48h-5.81v.84h7.52c.31,0,.55.06.73.19.14.11.21.34.21.68,0,.27-.06.48-.19.63-.16.2-.41.3-.75.3h-7.52v.75h8.46c.36,0,.62.07.8.21.16.11.23.35.23.73,0,.3-.06.52-.19.68-.2.23-.48.35-.84.35h-19.8c-.33,0-.59-.09-.77-.26-.17-.14-.26-.4-.26-.77s.09-.62.26-.75c.17-.13.43-.19.77-.19h7.97v-.75h-7.29c-.33,0-.57-.08-.73-.23-.14-.14-.21-.38-.21-.7s.07-.57.21-.68c.14-.12.38-.19.73-.19h7.29v-.84h-6.84c-.53-.03-.81-.34-.84-.94.03-.53.31-.81.84-.84h6.84v-.91h-7.97c-.3,0-.53-.08-.7-.23-.16-.14-.23-.38-.23-.7,0-.38.08-.62.23-.75s.39-.19.7-.19h7.97v-.94h-6.84c-.53-.05-.81-.36-.84-.94.03-.55.31-.83.84-.84ZM110.36,22.24h15.59c1.25,0,1.88.62,1.88,1.88v3.49c0,1.23-.62,1.85-1.88,1.85h-15.59c-1.25,0-1.88-.62-1.88-1.85v-3.49c0-1.25.62-1.88,1.88-1.88ZM111.89,24.99h12.54v-.47c0-.2-.09-.3-.28-.3h-12c-.17,0-.26.1-.26.3v.47ZM124.14,27.52c.19,0,.28-.1.28-.3v-.54h-12.54v.54c0,.2.09.3.26.3h12ZM119.55,10.74v.94h4.24v-.59c0-.23-.16-.35-.49-.35h-3.75ZM119.55,13.55v.91h3.94c.2,0,.3-.09.3-.28v-.63h-4.24Z"/>
          </g>
          <g>
            <path class="st1" d="M19.33,9.4h9.49c1.73,0,2.6.91,2.6,2.72v14.25c0,1.34-.23,2.2-.68,2.55-.45.62-1.2.94-2.23.94-1.5-.03-3.16-.23-4.97-.59-.34-.12-.62-.34-.82-.66-.2-.28-.3-.65-.3-1.1.03-.42.15-.77.35-1.05.2-.23.5-.36.89-.38.23,0,.48.04.73.12,1.11.25,2.08.38,2.91.38.56,0,.84-.2.84-.59v-3.16h-11.41c-.28,2.25-.76,4.19-1.43,5.81-.12.38-.34.69-.66.94-.23.25-.61.38-1.12.38-.73,0-1.22-.13-1.45-.4-.34-.3-.52-.73-.52-1.31.05-.16.11-.37.19-.63.97-1.81,1.59-3.65,1.85-5.51.09-1.58.14-3.02.14-4.34v-5.74c0-1.75.9-2.62,2.7-2.62h2.91ZM28.14,19.99v-2.32h-11.13v.09c0,.78-.02,1.52-.05,2.23h11.18ZM28.14,14.86v-1.22c0-.75-.31-1.12-.94-1.12h-9.45c-.5,0-.75.21-.75.63v1.71h11.13Z"/>
            <path class="st1" d="M37.14,9.4h7.71c.58,0,.98.12,1.22.35.23.19.35.58.35,1.17,0,.48-.09.84-.28,1.05-.28.36-.71.54-1.29.54h-2.16v4.76h2.6c.58,0,.99.12,1.24.35.25.19.38.58.38,1.17,0,.48-.1.84-.3,1.08-.28.33-.72.49-1.31.49h-2.6v7.88c0,.59-.15,1.02-.45,1.27-.27.3-.68.45-1.24.45s-.98-.15-1.27-.45c-.3-.25-.45-.67-.45-1.27v-7.88h-2.51c-.53,0-.95-.12-1.24-.38-.25-.22-.38-.62-.38-1.2s.12-.97.38-1.17c.27-.23.68-.35,1.24-.35h2.51v-4.76h-2.16c-.53,0-.93-.13-1.2-.4-.27-.22-.4-.62-.4-1.2s.13-.98.4-1.17c.25-.23.65-.35,1.2-.35ZM49.14,9.31c.47,0,.83.13,1.08.4.3.23.45.58.45,1.03v12c0,.34-.1.65-.3.91-.23.31-.64.47-1.22.47-.47,0-.83-.16-1.08-.47-.2-.25-.3-.55-.3-.91v-12c0-.45.12-.8.38-1.03.22-.27.55-.4,1.01-.4ZM54.49,8.09c1.05,0,1.58.44,1.59,1.31v17.91c0,.72-.23,1.29-.68,1.71-.47.5-1.12.75-1.95.75-1.33,0-2.57-.2-3.73-.59-.56-.3-.84-.79-.84-1.48,0-1.09.4-1.69,1.2-1.78.12,0,.26.02.4.07.66.22,1.27.34,1.85.38.45,0,.68-.24.68-.73V9.4c.02-.83.51-1.27,1.48-1.31Z"/>
            <path class="st1" d="M60.7,10.24h5.06c.2-.55.38-1.1.54-1.66.17-.47.45-.72.84-.75.77,0,1.26.09,1.48.28.39.2.59.6.59,1.2,0,.17-.05.42-.14.75-.02.08-.03.14-.05.19h10.41c.55,0,.95.12,1.2.35.22.19.33.58.33,1.17,0,.45-.09.79-.28,1.01-.27.31-.68.47-1.24.47h-11.51c-.27.58-.53,1.12-.8,1.62h9.4c1.58,0,2.37.87,2.37,2.6v9.84c0,.98-.25,1.62-.75,1.9-.53.38-1.31.56-2.34.56-1.16-.03-2.32-.2-3.49-.49-.62-.25-.94-.68-.94-1.29.06-1.05.48-1.62,1.24-1.71.19,0,.37,0,.54.02.61.25,1.33.38,2.16.38.27,0,.4-.28.4-.84v-.84h-9.66v3.26c0,.58-.15.98-.45,1.2-.25.22-.64.33-1.17.33-.58,0-.98-.13-1.22-.4-.23-.28-.35-.66-.35-1.12v-8.27c-.44.38-.88.71-1.34,1.01-.27.22-.51.33-.73.33-.66,0-1.14-.22-1.45-.66-.22-.33-.33-.73-.33-1.22s.18-.88.54-1.12c1.78-1.19,3.13-2.47,4.05-3.84.27-.38.52-.78.77-1.22h-3.68c-.5,0-.88-.11-1.15-.33-.25-.22-.38-.6-.38-1.15,0-.58.12-.97.38-1.17.23-.23.62-.35,1.15-.35ZM66.04,18.99h9.66v-1.03c0-.33-.13-.49-.4-.49h-8.7c-.38,0-.56.16-.56.49v1.03ZM66.04,22.74h9.66v-1.52h-9.66v1.52Z"/>
            <path class="st1" d="M93.21,13.74c.88,0,1.31.31,1.31.94v2.06c0,.75-.41,1.12-1.22,1.12h-7.41c-.12.47-.27.87-.42,1.2h17.86c.34,0,.59.07.73.21.14.12.21.37.21.73,0,.28-.05.5-.16.66-.16.2-.41.3-.77.3h-1.22v5.77l1.8-.05c.31,0,.56.08.75.23.19.17.28.41.28.7,0,.27-.06.47-.19.61-.17.19-.4.3-.68.33l-1.97.05v.14c0,.53-.12.9-.35,1.1-.25.25-.62.38-1.12.38s-.88-.12-1.15-.38c-.25-.22-.38-.59-.38-1.1v-.07l-14.81.33c-.34-.02-.61-.11-.8-.28-.14-.14-.22-.38-.23-.73.02-.36.11-.61.28-.75.17-.12.39-.2.66-.21l1.97-.02v-6.05h-1.1c-.31,0-.55-.08-.73-.23-.12-.09-.2-.27-.23-.54-.39-.02-.7-.09-.91-.21-.25-.16-.38-.4-.38-.73,0-.08.09-.31.26-.7.45-.97.77-2.14.96-3.52.09-.86.69-1.29,1.78-1.29h7.38ZM84.21,8.96h3.42c.03-.33.16-.62.4-.87.2-.17.55-.26,1.05-.26s.88.09,1.08.28c.25.2.38.48.4.84h3.33c.33,0,.57.05.73.16.14.11.21.34.21.68,0,.27-.06.47-.19.61-.17.22-.42.33-.75.33h-3.28v.63h2.6c.31,0,.54.07.68.21.12.11.19.32.19.63,0,.27-.05.46-.16.59-.16.17-.39.26-.7.26h-8.51c-.3,0-.52-.06-.66-.19-.12-.11-.19-.33-.19-.66s.06-.52.19-.63c.12-.14.34-.21.66-.21h2.91v-.63h-3.4c-.3,0-.53-.08-.7-.23-.16-.14-.23-.38-.23-.7s.08-.57.23-.68.39-.16.7-.16ZM86.2,16.34h1.78v-1.12h-1.22c-.31,0-.48.16-.49.49-.02.22-.04.43-.07.63ZM89.17,21.8h9.94v-.84h-9.94v.84ZM89.17,24.31h9.94v-.84h-9.94v.84ZM89.17,26.96l9.94-.19v-.77h-9.94v.96ZM90.11,15.21v1.12h1.9v-1.12h-1.9ZM95.06,12.99c-.17-.06-.33-.16-.47-.28-.23-.25-.35-.53-.35-.84,0-.06.06-.13.19-.21.44-.28.74-.55.91-.8.14-.27.21-.62.21-1.05.05-1.02.58-1.52,1.59-1.52h3.59c1.17,0,1.76.51,1.76,1.52v.84c0,.06.04.09.12.09.41,0,.61-.08.61-.23.03-.28.07-.55.12-.8.08-.27.27-.4.59-.4s.53.08.7.23c.16.14.23.34.23.61,0,.73-.14,1.3-.42,1.71-.25.36-.65.54-1.2.54h-1.57c-1.02,0-1.52-.31-1.52-.94v-.91c0-.2-.12-.3-.35-.3h-1.52c-.23,0-.35.13-.35.4-.05.42-.19.8-.42,1.12-.28.34-.58.59-.89.75-.06.05-.11.08-.14.09h5.65c.72,0,1.24.09,1.57.26.33.23.49.59.49,1.05-.05.58-.38,1.19-1.01,1.83-.3.31-.62.6-.96.87.72.19,1.47.34,2.25.47.39.09.59.38.59.87,0,.3-.12.55-.35.77-.19.22-.48.33-.87.33s-.91-.06-1.55-.19c-.89-.19-1.77-.48-2.62-.89-.12.05-.24.09-.35.12-1.34.44-2.55.67-3.63.7-.38,0-.66-.09-.84-.26-.2-.19-.3-.45-.3-.77,0-.58.28-.89.84-.94.66-.06,1.26-.14,1.8-.23-.59-.44-1.09-.9-1.5-1.38-.2-.19-.3-.37-.3-.54,0-.11.02-.21.05-.3-.31-.16-.48-.43-.49-.82.02-.27.06-.45.14-.56ZM97.64,14.46c.66.52,1.34.95,2.06,1.31.36-.22.69-.44.98-.66.27-.19.4-.34.4-.45,0-.14-.12-.21-.35-.21h-3.09Z"/>
            <path class="st1" d="M109.33,8.96h6.87c.06-.36.18-.62.35-.77.25-.23.7-.35,1.34-.35s1.06.12,1.27.35c.19.17.3.43.35.77h5.86c1.19,0,1.78.49,1.78,1.48v1.24h1.03c.34,0,.59.07.75.21.12.11.19.35.19.73,0,.27-.05.47-.16.61-.16.22-.41.33-.77.33h-1.03v1.22c0,.98-.59,1.48-1.78,1.48h-5.81v.84h7.52c.31,0,.55.06.73.19.14.11.21.34.21.68,0,.27-.06.48-.19.63-.16.2-.41.3-.75.3h-7.52v.75h8.46c.36,0,.62.07.8.21.16.11.23.35.23.73,0,.3-.06.52-.19.68-.2.23-.48.35-.84.35h-19.8c-.33,0-.59-.09-.77-.26-.17-.14-.26-.4-.26-.77s.09-.62.26-.75c.17-.13.43-.19.77-.19h7.97v-.75h-7.29c-.33,0-.57-.08-.73-.23-.14-.14-.21-.38-.21-.7s.07-.57.21-.68c.14-.12.38-.19.73-.19h7.29v-.84h-6.84c-.53-.03-.81-.34-.84-.94.03-.53.31-.81.84-.84h6.84v-.91h-7.97c-.3,0-.53-.08-.7-.23-.16-.14-.23-.38-.23-.7,0-.38.08-.62.23-.75s.39-.19.7-.19h7.97v-.94h-6.84c-.53-.05-.81-.36-.84-.94.03-.55.31-.83.84-.84ZM110.36,22.24h15.59c1.25,0,1.88.62,1.88,1.88v3.49c0,1.23-.62,1.85-1.88,1.85h-15.59c-1.25,0-1.88-.62-1.88-1.85v-3.49c0-1.25.62-1.88,1.88-1.88ZM111.89,24.99h12.54v-.47c0-.2-.09-.3-.28-.3h-12c-.17,0-.26.1-.26.3v.47ZM124.14,27.52c.19,0,.28-.1.28-.3v-.54h-12.54v.54c0,.2.09.3.26.3h12ZM119.55,10.74v.94h4.24v-.59c0-.23-.16-.35-.49-.35h-3.75ZM119.55,13.55v.91h3.94c.2,0,.3-.09.3-.28v-.63h-4.24Z"/>
          </g>
        </g>
      </g>
    </g>
  </g>
</svg>