<?xml version="1.0" encoding="UTF-8"?>
<svg xmlns="http://www.w3.org/2000/svg" version="1.1" viewBox="0 0 170.15 37.37">
  <!-- Generator: Adobe Illustrator 30.3.0, SVG Export Plug-In . SVG Version: 2.1.3 Build 182)  -->
  <defs>
    <style>
      .st0 {
        fill: #8dd254;
      }

      .st1 {
        isolation: isolate;
      }

      .st2 {
        fill: #ffc1c5;
        mix-blend-mode: multiply;
        opacity: .29;
      }

      .st3 {
        fill: none;
        stroke: #fff;
        stroke-linecap: round;
        stroke-linejoin: round;
        stroke-width: 6px;
      }

      .st4 {
        fill: #f09aa8;
      }

      .st5 {
        fill: #fd94a6;
      }
    </style>
  </defs>
  <g class="st1">
    <g id="_內容">
      <path class="st4" d="M21.35,8.32h9.49c1.73,0,2.6.91,2.6,2.72v14.25c0,1.34-.23,2.2-.68,2.55-.45.62-1.2.94-2.23.94-1.5-.03-3.16-.23-4.97-.59-.34-.12-.62-.34-.82-.66-.2-.28-.3-.65-.3-1.1.03-.42.15-.77.35-1.05.2-.23.5-.36.89-.38.23,0,.48.04.73.12,1.11.25,2.08.38,2.91.38.56,0,.84-.2.84-.59v-3.16h-11.41c-.28,2.25-.76,4.19-1.43,5.81-.12.38-.34.69-.66.94-.23.25-.61.38-1.12.38-.73,0-1.22-.13-1.45-.4-.34-.3-.52-.73-.52-1.31.05-.16.11-.37.19-.63.97-1.81,1.59-3.65,1.85-5.51.09-1.58.14-3.02.14-4.34v-5.74c0-1.75.9-2.62,2.7-2.62h2.91,0ZM30.16,18.91v-2.32h-11.13v.09c0,.78-.02,1.52-.05,2.23h11.18ZM30.16,13.78v-1.22c0-.75-.31-1.12-.94-1.12h-9.44c-.5,0-.75.21-.75.63v1.71h11.13Z"/>
      <path class="st4" d="M39.16,8.32h7.71c.58,0,.98.12,1.22.35.23.19.35.58.35,1.17,0,.48-.09.84-.28,1.05-.28.36-.71.54-1.29.54h-2.16v4.76h2.6c.58,0,.99.12,1.24.35.25.19.38.58.38,1.17,0,.48-.1.84-.3,1.08-.28.33-.72.49-1.31.49h-2.6v7.88c0,.59-.15,1.02-.45,1.27-.27.3-.68.45-1.24.45s-.98-.15-1.27-.45c-.3-.25-.45-.67-.45-1.27v-7.88h-2.51c-.53,0-.95-.12-1.24-.38-.25-.22-.38-.62-.38-1.2s.12-.97.38-1.17c.27-.23.68-.35,1.24-.35h2.51v-4.76h-2.16c-.53,0-.93-.13-1.2-.4-.27-.22-.4-.62-.4-1.2s.13-.98.4-1.17c.25-.23.65-.35,1.2-.35v.02ZM51.16,8.22c.47,0,.83.13,1.08.4.3.23.45.58.45,1.03v12c0,.34-.1.65-.3.91-.23.31-.64.47-1.22.47-.47,0-.83-.16-1.08-.47-.2-.25-.3-.55-.3-.91v-12c0-.45.12-.8.38-1.03.22-.27.55-.4,1.01-.4h-.02ZM56.51,7c1.05,0,1.58.44,1.59,1.31v17.91c0,.72-.23,1.29-.68,1.71-.47.5-1.12.75-1.95.75-1.33,0-2.57-.2-3.73-.59-.56-.3-.84-.79-.84-1.48,0-1.09.4-1.69,1.2-1.78.12,0,.26.02.4.07.66.22,1.27.34,1.85.38.45,0,.68-.24.68-.73V8.32c.02-.83.51-1.27,1.48-1.31h0Z"/>
      <path class="st4" d="M65.27,11.9l.07.84h2.34c.28,0,.47.05.56.16.11.12.16.35.16.68,0,.27-.04.46-.12.59-.12.17-.33.26-.61.26h-2.23l.07.91h3.54c-.11-.08-.21-.19-.3-.33-.09-.17-.14-.37-.14-.59,0-.27.12-.48.38-.66.56-.16,1.15-.38,1.76-.66-.48-.3-.94-.57-1.36-.82-.09-.03-.17-.08-.23-.14-.11-.12-.16-.27-.16-.45,0-.19.03-.35.09-.49-.11-.09-.2-.19-.26-.28-.08-.16-.12-.34-.12-.56s.12-.4.38-.54c.48-.14.97-.34,1.45-.59-.36-.22-.71-.42-1.05-.61-.09-.03-.17-.07-.23-.12-.11-.14-.16-.3-.16-.49,0-.33.09-.58.26-.75.19-.19.44-.28.75-.28.25,0,.45.04.61.12.64.31,1.25.63,1.83.96.47-.33.85-.66,1.15-.98.14-.12.32-.19.54-.19s.45.07.66.21c.19.17.28.39.28.66s-.09.52-.26.75c-.23.22-.48.42-.73.61.38.25.73.51,1.08.77.19.22.28.48.28.77,0,.25-.06.46-.19.63.06.14.09.27.09.4,0,.27-.09.52-.28.75-.22.23-.48.45-.8.66.38.28.73.55,1.08.82.2.22.3.48.3.77,0,.23-.09.44-.26.61l-.02.02h2.84c.05-.33.09-.63.12-.91h-1.73c-.27,0-.46-.07-.59-.21-.11-.12-.16-.34-.16-.63,0-.33.07-.56.21-.7.12-.09.3-.14.54-.14h1.97c.03-.31.06-.59.09-.84h-1.97c-.27,0-.46-.07-.59-.21-.11-.12-.16-.34-.16-.66s.07-.55.21-.7c.12-.09.3-.14.54-.14h2.18c.05-.44.07-.68.07-.73,0-.14-.09-.21-.28-.21h-2.18c-.33,0-.57-.1-.73-.3-.12-.12-.19-.4-.19-.82,0-.34.07-.61.21-.8.14-.16.38-.23.7-.23h2.37c1.03,0,1.74.13,2.13.4.45.27.68.76.68,1.48,0,.3-.23,2.43-.7,6.4,1.16.12,1.73.71,1.73,1.76v1.71c0,.53-.15.9-.45,1.1-.27.25-.66.38-1.17.38-.61,0-1.05-.12-1.31-.35-.19-.19-.28-.48-.28-.87v-1.29c0-.19-.16-.28-.47-.28h-14.04c-.25,0-.38.09-.38.28v1.29c0,.48-.12.8-.35.94-.25.19-.66.28-1.24.28s-.96-.12-1.2-.35c-.28-.27-.42-.64-.42-1.12v-1.71c0-.98.52-1.55,1.55-1.71l-.4-6.26c0-.7.36-1.19,1.08-1.45.84-.3,1.55-.53,2.13-.7.23-.06.44-.09.61-.09.34,0,.67.14.98.42.3.28.45.55.45.8,0,.42-.16.67-.47.75-.28.17-.82.36-1.62.56-.44.17-.66.39-.66.66v.09h2.44c.3,0,.49.06.59.19.11.12.16.34.16.66s-.04.51-.12.63c-.12.16-.34.23-.63.23h-2.3v-.02ZM66.54,18.35h10.52c1.23.06,1.89.59,1.97,1.59,0,.42-.16.84-.49,1.27-.2.34-.48.67-.82.98h3.73c.48,0,.83.09,1.03.28.2.16.3.48.3.96,0,.39-.09.68-.26.87-.23.3-.59.45-1.08.45h-6.77c.09.47.14.9.14,1.29-.02.92-.29,1.64-.82,2.16-.55.48-1.18.73-1.9.75-1.75,0-3.01-.15-3.77-.45-.69-.19-1.03-.63-1.03-1.34.02-.41.12-.72.33-.94.17-.22.47-.34.89-.35.16,0,.55.07,1.17.21.59.16,1.08.23,1.45.23.33,0,.49-.21.49-.63,0-.2-.08-.52-.23-.94h-8.58c-.45,0-.79-.1-1.01-.3s-.33-.54-.33-1.01.11-.79.33-.96c.2-.19.54-.28,1.01-.28h7.9c.06-.31.22-.53.47-.66.33-.19.72-.28,1.17-.28.67.02,1.12.21,1.34.59.06.12.11.23.14.33,1.08-.47,1.62-.89,1.62-1.27,0-.12-.09-.19-.28-.19h-8.62c-.72-.05-1.09-.45-1.12-1.22.03-.72.41-1.1,1.12-1.15h-.01ZM70.03,15.35h3.94l-.02-.02c-.5-.38-.98-.72-1.45-1.03-.83.45-1.65.8-2.46,1.05h0ZM70.76,10.99c.69.34,1.34.7,1.97,1.05.36-.23.68-.48.96-.75-.52-.34-1-.67-1.45-.98-.52.28-1.01.51-1.48.68Z"/>
      <path class="st4" d="M94.01,17.27c-.64-.12-.98-.48-1.01-1.08v-1.24c-.41.31-.84.62-1.29.91-1.33.88-2.65,1.55-3.96,2.04-.28.11-.59.16-.94.16s-.63-.21-.91-.63c-.14-.28-.21-.59-.21-.94s.18-.62.54-.84c1.38-.34,2.84-.91,4.38-1.69.97-.55,1.77-1.09,2.39-1.62v-1.52c-.55.48-1.16.92-1.85,1.31-1.09.67-2.16,1.19-3.21,1.55-.28.12-.59.19-.94.19-.31,0-.59-.2-.84-.61-.12-.27-.19-.57-.19-.91s.18-.6.54-.82c1.11-.25,2.29-.66,3.54-1.22.28-.14.54-.27.77-.4h-3.82c-.72-.03-1.09-.46-1.12-1.29.03-.78.41-1.2,1.12-1.24h7.2c1.14,0,1.71.53,1.71,1.59v7.22c-.02.11-.04.21-.07.3.41.03.73.12.98.26.09.05.16.09.21.14-.12-.27-.19-.56-.19-.89s.18-.61.54-.84c1.17-.28,2.42-.77,3.75-1.48.8-.48,1.45-.94,1.97-1.36v-1.24c-.42.38-.89.73-1.41,1.08-1.08.73-2.14,1.3-3.19,1.71-.27.11-.58.16-.94.16-.3,0-.57-.2-.82-.59-.14-.27-.21-.56-.21-.89s.19-.62.56-.84c1.09-.28,2.25-.74,3.47-1.38.27-.14.5-.28.7-.42h-3.7c-.72-.03-1.09-.46-1.12-1.29.03-.78.41-1.2,1.12-1.24h6.84c1.12,0,1.69.53,1.69,1.59v7.8c-.05.75-.54,1.15-1.48,1.2-.97-.05-1.48-.45-1.52-1.2v-1.88c-.27.2-.55.41-.87.61-1.16.8-2.3,1.4-3.42,1.8-.28.14-.59.21-.94.21-.23,0-.44-.11-.61-.33.08.19.12.36.12.52,0,.12-.06.41-.19.84h6.38c1.25,0,1.88.62,1.88,1.88v6c0,1.23-.62,1.85-1.88,1.85h-14.6c-1.25,0-1.88-.62-1.88-1.85v-6c0-1.25.62-1.88,1.88-1.88h4.64c.11-.36.22-.73.33-1.12.03-.08.05-.13.07-.16h.01ZM90.45,22.29h11.81v-.82c0-.27-.12-.4-.35-.4h-11.06c-.27,0-.4.13-.4.4v.82ZM101.91,25.78c.23,0,.35-.13.35-.4v-1.03h-11.81v1.03c0,.27.13.4.4.4h11.06Z"/>
      <path class="st4" d="M111.94,7.29h8.41c1.08,0,1.62.54,1.62,1.62v4.1c0,1.08-.54,1.62-1.62,1.62h-2.41v.84h4.29c.36,0,.62.08.77.23.17.12.26.42.26.89,0,.36-.05.61-.16.75-.17.25-.46.38-.87.38h-12c-.3,0-.54-.09-.73-.28-.2-.16-.3-.44-.3-.84,0-.45.1-.76.3-.91.14-.14.38-.21.73-.21h4.22v-.84h-2.51c-1.08,0-1.62-.54-1.62-1.62v-4.12c0-1.08.54-1.62,1.62-1.62h0ZM111.54,23.97c.34,0,.65.09.91.28.28.16.42.44.42.84-.03.22-.09.46-.19.73-.34.92-.66,1.62-.94,2.09-.16.45-.57.68-1.24.68-.3,0-.61-.16-.94-.47-.25-.16-.38-.45-.38-.87,0-.12.07-.27.21-.42.44-.61.8-1.3,1.1-2.09.14-.52.48-.77,1.03-.77h.02ZM111.94,18.56h8.6c.95,0,1.43.46,1.43,1.38v2.34c0,.95-.48,1.43-1.43,1.43h-2.6v3c-.12,1.36-1.26,2.08-3.4,2.16-.2,0-.41-.02-.61-.05-.23-.05-.45-.12-.63-.23-.14-.11-.27-.27-.38-.47-.03-.2-.05-.39-.05-.56,0-.44.09-.77.26-1.01.2-.22.64-.33,1.31-.33.2,0,.3-.09.3-.28v-2.23h-2.81c-.95,0-1.43-.48-1.43-1.43v-2.34c0-.92.48-1.38,1.43-1.38h0ZM113.13,10.19h6v-.28c0-.38-.19-.56-.56-.56h-4.85c-.39,0-.59.19-.59.56,0,0,0,.28,0,.28ZM118.57,12.56c.38,0,.56-.2.56-.59v-.26h-6v.26c0,.39.2.59.59.59,0,0,4.85,0,4.85,0ZM118.57,21.75c.33,0,.49-.16.49-.49v-.28c0-.3-.16-.45-.49-.45h-4.66c-.33,0-.49.15-.49.45v.28c0,.33.16.49.49.49h4.66ZM119.91,23.97c.34,0,.62.09.84.28.28.28.66.77,1.12,1.45.5.78.75,1.3.75,1.55,0,.33-.06.54-.19.63-.33.41-.74.61-1.24.61-.42,0-.7-.16-.84-.49-.47-.88-1.01-1.75-1.62-2.62-.11-.12-.16-.25-.16-.38,0-.36.16-.63.47-.82.25-.14.54-.21.87-.21ZM128.81,7.1c.34.02.7.16,1.08.45.41.3.6.62.59.98,0,.31-.09.59-.28.82-1.16,1.53-2.75,2.94-4.78,4.22-.39.31-.88.47-1.48.47-.48,0-.91-.18-1.27-.54-.3-.34-.45-.73-.45-1.15,0-.16.13-.37.4-.63.5-.33.95-.64,1.36-.94,1.55-1.16,2.81-2.23,3.8-3.21.25-.25.59-.41,1.03-.47ZM129.16,13.38c.38.03.73.18,1.08.45.44.3.65.62.63.98,0,.31-.1.59-.3.84-1.12,1.52-2.67,2.91-4.64,4.2-.38.31-.86.47-1.45.47-.5,0-.95-.19-1.34-.56-.28-.36-.42-.76-.42-1.2,0-.19.12-.44.38-.75.5-.31.95-.61,1.34-.89,1.53-1.12,2.77-2.16,3.73-3.09.27-.23.6-.38,1.01-.45h-.02ZM129.54,20.03c.36.02.73.16,1.1.45.41.3.6.62.59.98,0,.31-.09.59-.26.82-1.22,1.83-2.87,3.52-4.95,5.06-.41.38-.92.56-1.55.56-.5,0-.95-.2-1.34-.59-.28-.34-.42-.74-.42-1.2,0-.17.12-.42.38-.75.53-.36,1-.71,1.41-1.05,1.62-1.36,2.95-2.61,3.98-3.75.27-.3.62-.48,1.05-.54h0Z"/>
      <path class="st4" d="M144.16,7c.61,0,1.03.12,1.27.35.36.3.54.69.54,1.17v.45h6.94c.47,0,.8.1,1.01.3.19.17.28.51.28,1.01,0,.41-.08.7-.23.89-.22.3-.57.45-1.05.45h-2.23l-.75,2.32h3.82c.47,0,.8.1,1.01.3.2.17.3.51.3,1.01,0,.41-.09.7-.26.89-.23.3-.59.45-1.05.45h-19.34c-.42,0-.75-.11-.98-.33-.22-.19-.33-.52-.33-1.01s.11-.84.33-1.03c.2-.19.53-.28.98-.28h3.89l-.61-2.32h-2.53c-.44,0-.77-.11-.98-.33-.2-.19-.3-.52-.3-1.01s.1-.84.3-1.03.53-.28.98-.28h7.22v-.45c0-.42.17-.82.52-1.2.25-.22.67-.33,1.27-.33h-.02ZM137.32,17.97h13.52c1.5,0,2.25.75,2.25,2.25v5.73c0,1.5-.75,2.25-2.25,2.25h-13.52c-1.48,0-2.23-.75-2.23-2.25v-5.73c0-1.5.74-2.25,2.23-2.25ZM138.35,21.91h11.46v-1.12c0-.25-.13-.38-.4-.38h-10.66c-.27,0-.4.13-.4.38,0,0,0,1.12,0,1.12ZM149.41,25.78c.27,0,.4-.13.4-.4v-1.12h-11.46v1.12c0,.27.13.4.4.4h10.66ZM141.7,13.94h4.85l.75-2.32h-6.23s.63,2.32.63,2.32Z"/>
      <g>
        <path class="st2" d="M163.77,0L3.87,2.84,0,5.57l3.53,3.38-2.9,3.56,3.69,2.59-3.17,4.95,4.11,1.89-4.17,3.78,2.97,2.75-1.8,5.43,3.65.93,1.54,2.54,158.14-2.17,3.13-4.74c-1.09-1.88-2.26-3.35-2.26-3.35l3.69-2.11-3.24-3.84,1.77-2.49-2.67-3.99,1.91-4.21-3.52-2.52,4.07-3.98-4.7-3.96Z"/>
        <g>
          <g>
            <path class="st3" d="M22.33,8.4h9.49c1.73,0,2.6.91,2.6,2.72v14.25c0,1.34-.23,2.2-.68,2.55-.45.62-1.2.94-2.23.94-1.5-.03-3.16-.23-4.97-.59-.34-.12-.62-.34-.82-.66-.2-.28-.3-.65-.3-1.1.03-.42.15-.77.35-1.05.2-.23.5-.36.89-.38.23,0,.48.04.73.12,1.11.25,2.08.38,2.91.38.56,0,.84-.2.84-.59v-3.16h-11.41c-.28,2.25-.76,4.19-1.43,5.81-.12.38-.34.69-.66.94-.23.25-.61.38-1.12.38-.73,0-1.22-.13-1.45-.4-.34-.3-.52-.73-.52-1.31.05-.16.11-.37.19-.63.97-1.81,1.59-3.65,1.85-5.51.09-1.58.14-3.02.14-4.34v-5.74c0-1.75.9-2.62,2.7-2.62h2.91ZM31.14,18.99v-2.32h-11.13v.09c0,.78-.02,1.52-.05,2.23h11.18ZM31.14,13.86v-1.22c0-.75-.31-1.12-.94-1.12h-9.45c-.5,0-.75.21-.75.63v1.71h11.13Z"/>
            <path class="st3" d="M40.14,8.4h7.71c.58,0,.98.12,1.22.35.23.19.35.58.35,1.17,0,.48-.09.84-.28,1.05-.28.36-.71.54-1.29.54h-2.16v4.76h2.6c.58,0,.99.12,1.24.35.25.19.38.58.38,1.17,0,.48-.1.84-.3,1.08-.28.33-.72.49-1.31.49h-2.6v7.88c0,.59-.15,1.02-.45,1.27-.27.3-.68.45-1.24.45s-.98-.15-1.27-.45c-.3-.25-.45-.67-.45-1.27v-7.88h-2.51c-.53,0-.95-.12-1.24-.38-.25-.22-.38-.62-.38-1.2s.12-.97.38-1.17c.27-.23.68-.35,1.24-.35h2.51v-4.76h-2.16c-.53,0-.93-.13-1.2-.4-.27-.22-.4-.62-.4-1.2s.13-.98.4-1.17c.25-.23.65-.35,1.2-.35ZM52.14,8.31c.47,0,.83.13,1.08.4.3.23.45.58.45,1.03v12c0,.34-.1.65-.3.91-.23.31-.64.47-1.22.47-.47,0-.83-.16-1.08-.47-.2-.25-.3-.55-.3-.91v-12c0-.45.12-.8.38-1.03.22-.27.55-.4,1.01-.4ZM57.49,7.09c1.05,0,1.58.44,1.59,1.31v17.91c0,.72-.23,1.29-.68,1.71-.47.5-1.12.75-1.95.75-1.33,0-2.57-.2-3.73-.59-.56-.3-.84-.79-.84-1.48,0-1.09.4-1.69,1.2-1.78.12,0,.26.02.4.07.66.22,1.27.34,1.85.38.45,0,.68-.24.68-.73V8.4c.02-.83.51-1.27,1.48-1.31Z"/>
            <path class="st3" d="M66.25,11.99l.07.84h2.34c.28,0,.47.05.56.16.11.12.16.35.16.68,0,.27-.04.46-.12.59-.12.17-.33.26-.61.26h-2.23l.07.91h3.54c-.11-.08-.21-.19-.3-.33-.09-.17-.14-.37-.14-.59,0-.27.12-.48.38-.66.56-.16,1.15-.38,1.76-.66-.48-.3-.94-.57-1.36-.82-.09-.03-.17-.08-.23-.14-.11-.12-.16-.27-.16-.45,0-.19.03-.35.09-.49-.11-.09-.2-.19-.26-.28-.08-.16-.12-.34-.12-.56s.12-.4.38-.54c.48-.14.97-.34,1.45-.59-.36-.22-.71-.42-1.05-.61-.09-.03-.17-.07-.23-.12-.11-.14-.16-.3-.16-.49,0-.33.09-.58.26-.75.19-.19.44-.28.75-.28.25,0,.45.04.61.12.64.31,1.25.63,1.83.96.47-.33.85-.66,1.15-.98.14-.12.32-.19.54-.19.23,0,.45.07.66.21.19.17.28.39.28.66s-.09.52-.26.75c-.23.22-.48.42-.73.61.38.25.73.51,1.08.77.19.22.28.48.28.77,0,.25-.06.46-.19.63.06.14.09.27.09.4,0,.27-.09.52-.28.75-.22.23-.48.45-.8.66.38.28.73.55,1.08.82.2.22.3.48.3.77,0,.23-.09.44-.26.61l-.02.02h2.84c.05-.33.09-.63.12-.91h-1.73c-.27,0-.46-.07-.59-.21-.11-.12-.16-.34-.16-.63,0-.33.07-.56.21-.7.12-.09.3-.14.54-.14h1.97c.03-.31.06-.59.09-.84h-1.97c-.27,0-.46-.07-.59-.21-.11-.12-.16-.34-.16-.66s.07-.55.21-.7c.12-.09.3-.14.54-.14h2.18c.05-.44.07-.68.07-.73,0-.14-.09-.21-.28-.21h-2.18c-.33,0-.57-.1-.73-.3-.12-.12-.19-.4-.19-.82,0-.34.07-.61.21-.8.14-.16.38-.23.7-.23h2.37c1.03,0,1.74.13,2.13.4.45.27.68.76.68,1.48,0,.3-.23,2.43-.7,6.4,1.16.12,1.73.71,1.73,1.76v1.71c0,.53-.15.9-.45,1.1-.27.25-.66.38-1.17.38-.61,0-1.05-.12-1.31-.35-.19-.19-.28-.48-.28-.87v-1.29c0-.19-.16-.28-.47-.28h-14.04c-.25,0-.38.09-.38.28v1.29c0,.48-.12.8-.35.94-.25.19-.66.28-1.24.28s-.96-.12-1.2-.35c-.28-.27-.42-.64-.42-1.12v-1.71c0-.98.52-1.55,1.55-1.71l-.4-6.26c0-.7.36-1.19,1.08-1.45.84-.3,1.55-.53,2.13-.7.23-.06.44-.09.61-.09.34,0,.67.14.98.42.3.28.45.55.45.8,0,.42-.16.67-.47.75-.28.17-.82.36-1.62.56-.44.17-.66.39-.66.66v.09h2.44c.3,0,.49.06.59.19.11.12.16.34.16.66s-.04.51-.12.63c-.12.16-.34.23-.63.23h-2.3ZM67.52,18.43h10.52c1.23.06,1.89.59,1.97,1.59,0,.42-.16.84-.49,1.27-.2.34-.48.67-.82.98h3.73c.48,0,.83.09,1.03.28.2.16.3.48.3.96,0,.39-.09.68-.26.87-.23.3-.59.45-1.08.45h-6.77c.09.47.14.9.14,1.29-.02.92-.29,1.64-.82,2.16-.55.48-1.18.73-1.9.75-1.75,0-3.01-.15-3.77-.45-.69-.19-1.03-.63-1.03-1.34.02-.41.12-.72.33-.94.17-.22.47-.34.89-.35.16,0,.55.07,1.17.21.59.16,1.08.23,1.45.23.33,0,.49-.21.49-.63,0-.2-.08-.52-.23-.94h-8.58c-.45,0-.79-.1-1.01-.3s-.33-.54-.33-1.01.11-.79.33-.96c.2-.19.54-.28,1.01-.28h7.9c.06-.31.22-.53.47-.66.33-.19.72-.28,1.17-.28.67.02,1.12.21,1.34.59.06.12.11.23.14.33,1.08-.47,1.62-.89,1.62-1.27,0-.12-.09-.19-.28-.19h-8.62c-.72-.05-1.09-.45-1.12-1.22.03-.72.41-1.1,1.12-1.15ZM71.01,15.43h3.94l-.02-.02c-.5-.38-.98-.72-1.45-1.03-.83.45-1.65.8-2.46,1.05ZM71.74,11.07c.69.34,1.34.7,1.97,1.05.36-.23.68-.48.96-.75-.52-.34-1-.67-1.45-.98-.52.28-1.01.51-1.48.68Z"/>
            <path class="st3" d="M94.99,17.35c-.64-.12-.98-.48-1.01-1.08v-1.24c-.41.31-.84.62-1.29.91-1.33.88-2.65,1.55-3.96,2.04-.28.11-.59.16-.94.16s-.63-.21-.91-.63c-.14-.28-.21-.59-.21-.94s.18-.62.54-.84c1.38-.34,2.84-.91,4.38-1.69.97-.55,1.77-1.09,2.39-1.62v-1.52c-.55.48-1.16.92-1.85,1.31-1.09.67-2.16,1.19-3.21,1.55-.28.12-.59.19-.94.19-.31,0-.59-.2-.84-.61-.12-.27-.19-.57-.19-.91s.18-.6.54-.82c1.11-.25,2.29-.66,3.54-1.22.28-.14.54-.27.77-.4h-3.82c-.72-.03-1.09-.46-1.12-1.29.03-.78.41-1.2,1.12-1.24h7.2c1.14,0,1.71.53,1.71,1.59v7.22c-.02.11-.04.21-.07.3.41.03.73.12.98.26.09.05.16.09.21.14-.12-.27-.19-.56-.19-.89s.18-.61.54-.84c1.17-.28,2.42-.77,3.75-1.48.8-.48,1.45-.94,1.97-1.36v-1.24c-.42.38-.89.73-1.41,1.08-1.08.73-2.14,1.3-3.19,1.71-.27.11-.58.16-.94.16-.3,0-.57-.2-.82-.59-.14-.27-.21-.56-.21-.89s.19-.62.56-.84c1.09-.28,2.25-.74,3.47-1.38.27-.14.5-.28.7-.42h-3.7c-.72-.03-1.09-.46-1.12-1.29.03-.78.41-1.2,1.12-1.24h6.84c1.12,0,1.69.53,1.69,1.59v7.8c-.05.75-.54,1.15-1.48,1.2-.97-.05-1.48-.45-1.52-1.2v-1.88c-.27.2-.55.41-.87.61-1.16.8-2.3,1.4-3.42,1.8-.28.14-.59.21-.94.21-.23,0-.44-.11-.61-.33.08.19.12.36.12.52,0,.12-.06.41-.19.84h6.38c1.25,0,1.88.62,1.88,1.88v6c0,1.23-.62,1.85-1.88,1.85h-14.6c-1.25,0-1.88-.62-1.88-1.85v-6c0-1.25.62-1.88,1.88-1.88h4.64c.11-.36.22-.73.33-1.12.03-.08.05-.13.07-.16ZM91.42,22.37h11.81v-.82c0-.27-.12-.4-.35-.4h-11.06c-.27,0-.4.13-.4.4v.82ZM102.89,25.86c.23,0,.35-.13.35-.4v-1.03h-11.81v1.03c0,.27.13.4.4.4h11.06Z"/>
            <path class="st3" d="M112.92,7.37h8.41c1.08,0,1.62.54,1.62,1.62v4.1c0,1.08-.54,1.62-1.62,1.62h-2.41v.84h4.29c.36,0,.62.08.77.23.17.12.26.42.26.89,0,.36-.05.61-.16.75-.17.25-.46.38-.87.38h-12c-.3,0-.54-.09-.73-.28-.2-.16-.3-.44-.3-.84,0-.45.1-.76.3-.91.14-.14.38-.21.73-.21h4.22v-.84h-2.51c-1.08,0-1.62-.54-1.62-1.62v-4.1c0-1.08.54-1.62,1.62-1.62ZM112.52,24.06c.34,0,.65.09.91.28.28.16.42.44.42.84-.03.22-.09.46-.19.73-.34.92-.66,1.62-.94,2.09-.16.45-.57.68-1.24.68-.3,0-.61-.16-.94-.47-.25-.16-.38-.45-.38-.87,0-.12.07-.27.21-.42.44-.61.8-1.3,1.1-2.09.14-.52.48-.77,1.03-.77ZM112.92,18.64h8.6c.95,0,1.43.46,1.43,1.38v2.34c0,.95-.48,1.43-1.43,1.43h-2.6v3c-.12,1.36-1.26,2.08-3.4,2.16-.2,0-.41-.02-.61-.05-.23-.05-.45-.12-.63-.23-.14-.11-.27-.27-.38-.47-.03-.2-.05-.39-.05-.56,0-.44.09-.77.26-1.01.2-.22.64-.33,1.31-.33.2,0,.3-.09.3-.28v-2.23h-2.81c-.95,0-1.43-.48-1.43-1.43v-2.34c0-.92.48-1.38,1.43-1.38ZM114.11,10.28h6v-.28c0-.38-.19-.56-.56-.56h-4.85c-.39,0-.59.19-.59.56v.28ZM119.55,12.64c.38,0,.56-.2.56-.59v-.26h-6v.26c0,.39.2.59.59.59h4.85ZM119.55,21.83c.33,0,.49-.16.49-.49v-.28c0-.3-.16-.45-.49-.45h-4.66c-.33,0-.49.15-.49.45v.28c0,.33.16.49.49.49h4.66ZM120.89,24.06c.34,0,.62.09.84.28.28.28.66.77,1.12,1.45.5.78.75,1.3.75,1.55,0,.33-.06.54-.19.63-.33.41-.74.61-1.24.61-.42,0-.7-.16-.84-.49-.47-.88-1.01-1.75-1.62-2.62-.11-.12-.16-.25-.16-.38,0-.36.16-.63.47-.82.25-.14.54-.21.87-.21ZM129.79,7.18c.34.02.7.16,1.08.45.41.3.6.62.59.98,0,.31-.09.59-.28.82-1.16,1.53-2.75,2.94-4.78,4.22-.39.31-.88.47-1.48.47-.48,0-.91-.18-1.27-.54-.3-.34-.45-.73-.45-1.15,0-.16.13-.37.4-.63.5-.33.95-.64,1.36-.94,1.55-1.16,2.81-2.23,3.8-3.21.25-.25.59-.41,1.03-.47ZM130.14,13.46c.38.03.73.18,1.08.45.44.3.65.62.63.98,0,.31-.1.59-.3.84-1.12,1.52-2.67,2.91-4.64,4.2-.38.31-.86.47-1.45.47-.5,0-.95-.19-1.34-.56-.28-.36-.42-.76-.42-1.2,0-.19.12-.44.38-.75.5-.31.95-.61,1.34-.89,1.53-1.12,2.77-2.16,3.73-3.09.27-.23.6-.38,1.01-.45ZM130.52,20.12c.36.02.73.16,1.1.45.41.3.6.62.59.98,0,.31-.09.59-.26.82-1.22,1.83-2.87,3.52-4.95,5.06-.41.38-.92.56-1.55.56-.5,0-.95-.2-1.34-.59-.28-.34-.42-.74-.42-1.2,0-.17.12-.42.38-.75.53-.36,1-.71,1.41-1.05,1.62-1.36,2.95-2.61,3.98-3.75.27-.3.62-.48,1.05-.54Z"/>
            <path class="st3" d="M145.14,7.09c.61,0,1.03.12,1.27.35.36.3.54.69.54,1.17v.45h6.94c.47,0,.8.1,1.01.3.19.17.28.51.28,1.01,0,.41-.08.7-.23.89-.22.3-.57.45-1.05.45h-2.23l-.75,2.32h3.82c.47,0,.8.1,1.01.3.2.17.3.51.3,1.01,0,.41-.09.7-.26.89-.23.3-.59.45-1.05.45h-19.34c-.42,0-.75-.11-.98-.33-.22-.19-.33-.52-.33-1.01s.11-.84.33-1.03c.2-.19.53-.28.98-.28h3.89l-.61-2.32h-2.53c-.44,0-.77-.11-.98-.33-.2-.19-.3-.52-.3-1.01s.1-.84.3-1.03.53-.28.98-.28h7.22v-.45c0-.42.17-.82.52-1.2.25-.22.67-.33,1.27-.33ZM138.3,18.06h13.52c1.5,0,2.25.75,2.25,2.25v5.72c0,1.5-.75,2.25-2.25,2.25h-13.52c-1.48,0-2.23-.75-2.23-2.25v-5.72c0-1.5.74-2.25,2.23-2.25ZM139.33,21.99h11.46v-1.1c0-.25-.13-.38-.4-.38h-10.66c-.27,0-.4.12-.4.38v1.1ZM150.39,25.86c.27,0,.4-.13.4-.4v-1.12h-11.46v1.12c0,.27.13.4.4.4h10.66ZM142.68,14.03h4.85l.75-2.32h-6.23l.63,2.32Z"/>
          </g>
          <g>
            <path class="st0" d="M22.33,8.4h9.49c1.73,0,2.6.91,2.6,2.72v14.25c0,1.34-.23,2.2-.68,2.55-.45.62-1.2.94-2.23.94-1.5-.03-3.16-.23-4.97-.59-.34-.12-.62-.34-.82-.66-.2-.28-.3-.65-.3-1.1.03-.42.15-.77.35-1.05.2-.23.5-.36.89-.38.23,0,.48.04.73.12,1.11.25,2.08.38,2.91.38.56,0,.84-.2.84-.59v-3.16h-11.41c-.28,2.25-.76,4.19-1.43,5.81-.12.38-.34.69-.66.94-.23.25-.61.38-1.12.38-.73,0-1.22-.13-1.45-.4-.34-.3-.52-.73-.52-1.31.05-.16.11-.37.19-.63.97-1.81,1.59-3.65,1.85-5.51.09-1.58.14-3.02.14-4.34v-5.74c0-1.75.9-2.62,2.7-2.62h2.91ZM31.14,18.99v-2.32h-11.13v.09c0,.78-.02,1.52-.05,2.23h11.18ZM31.14,13.86v-1.22c0-.75-.31-1.12-.94-1.12h-9.45c-.5,0-.75.21-.75.63v1.71h11.13Z"/>
            <path class="st0" d="M40.14,8.4h7.71c.58,0,.98.12,1.22.35.23.19.35.58.35,1.17,0,.48-.09.84-.28,1.05-.28.36-.71.54-1.29.54h-2.16v4.76h2.6c.58,0,.99.12,1.24.35.25.19.38.58.38,1.17,0,.48-.1.84-.3,1.08-.28.33-.72.49-1.31.49h-2.6v7.88c0,.59-.15,1.02-.45,1.27-.27.3-.68.45-1.24.45s-.98-.15-1.27-.45c-.3-.25-.45-.67-.45-1.27v-7.88h-2.51c-.53,0-.95-.12-1.24-.38-.25-.22-.38-.62-.38-1.2s.12-.97.38-1.17c.27-.23.68-.35,1.24-.35h2.51v-4.76h-2.16c-.53,0-.93-.13-1.2-.4-.27-.22-.4-.62-.4-1.2s.13-.98.4-1.17c.25-.23.65-.35,1.2-.35ZM52.14,8.31c.47,0,.83.13,1.08.4.3.23.45.58.45,1.03v12c0,.34-.1.65-.3.91-.23.31-.64.47-1.22.47-.47,0-.83-.16-1.08-.47-.2-.25-.3-.55-.3-.91v-12c0-.45.12-.8.38-1.03.22-.27.55-.4,1.01-.4ZM57.49,7.09c1.05,0,1.58.44,1.59,1.31v17.91c0,.72-.23,1.29-.68,1.71-.47.5-1.12.75-1.95.75-1.33,0-2.57-.2-3.73-.59-.56-.3-.84-.79-.84-1.48,0-1.09.4-1.69,1.2-1.78.12,0,.26.02.4.07.66.22,1.27.34,1.85.38.45,0,.68-.24.68-.73V8.4c.02-.83.51-1.27,1.48-1.31Z"/>
            <path class="st0" d="M66.25,11.99l.07.84h2.34c.28,0,.47.05.56.16.11.12.16.35.16.68,0,.27-.04.46-.12.59-.12.17-.33.26-.61.26h-2.23l.07.91h3.54c-.11-.08-.21-.19-.3-.33-.09-.17-.14-.37-.14-.59,0-.27.12-.48.38-.66.56-.16,1.15-.38,1.76-.66-.48-.3-.94-.57-1.36-.82-.09-.03-.17-.08-.23-.14-.11-.12-.16-.27-.16-.45,0-.19.03-.35.09-.49-.11-.09-.2-.19-.26-.28-.08-.16-.12-.34-.12-.56s.12-.4.38-.54c.48-.14.97-.34,1.45-.59-.36-.22-.71-.42-1.05-.61-.09-.03-.17-.07-.23-.12-.11-.14-.16-.3-.16-.49,0-.33.09-.58.26-.75.19-.19.44-.28.75-.28.25,0,.45.04.61.12.64.31,1.25.63,1.83.96.47-.33.85-.66,1.15-.98.14-.12.32-.19.54-.19.23,0,.45.07.66.21.19.17.28.39.28.66s-.09.52-.26.75c-.23.22-.48.42-.73.61.38.25.73.51,1.08.77.19.22.28.48.28.77,0,.25-.06.46-.19.63.06.14.09.27.09.4,0,.27-.09.52-.28.75-.22.23-.48.45-.8.66.38.28.73.55,1.08.82.2.22.3.48.3.77,0,.23-.09.44-.26.61l-.02.02h2.84c.05-.33.09-.63.12-.91h-1.73c-.27,0-.46-.07-.59-.21-.11-.12-.16-.34-.16-.63,0-.33.07-.56.21-.7.12-.09.3-.14.54-.14h1.97c.03-.31.06-.59.09-.84h-1.97c-.27,0-.46-.07-.59-.21-.11-.12-.16-.34-.16-.66s.07-.55.21-.7c.12-.09.3-.14.54-.14h2.18c.05-.44.07-.68.07-.73,0-.14-.09-.21-.28-.21h-2.18c-.33,0-.57-.1-.73-.3-.12-.12-.19-.4-.19-.82,0-.34.07-.61.21-.8.14-.16.38-.23.7-.23h2.37c1.03,0,1.74.13,2.13.4.45.27.68.76.68,1.48,0,.3-.23,2.43-.7,6.4,1.16.12,1.73.71,1.73,1.76v1.71c0,.53-.15.9-.45,1.1-.27.25-.66.38-1.17.38-.61,0-1.05-.12-1.31-.35-.19-.19-.28-.48-.28-.87v-1.29c0-.19-.16-.28-.47-.28h-14.04c-.25,0-.38.09-.38.28v1.29c0,.48-.12.8-.35.94-.25.19-.66.28-1.24.28s-.96-.12-1.2-.35c-.28-.27-.42-.64-.42-1.12v-1.71c0-.98.52-1.55,1.55-1.71l-.4-6.26c0-.7.36-1.19,1.08-1.45.84-.3,1.55-.53,2.13-.7.23-.06.44-.09.61-.09.34,0,.67.14.98.42.3.28.45.55.45.8,0,.42-.16.67-.47.75-.28.17-.82.36-1.62.56-.44.17-.66.39-.66.66v.09h2.44c.3,0,.49.06.59.19.11.12.16.34.16.66s-.04.51-.12.63c-.12.16-.34.23-.63.23h-2.3ZM67.52,18.43h10.52c1.23.06,1.89.59,1.97,1.59,0,.42-.16.84-.49,1.27-.2.34-.48.67-.82.98h3.73c.48,0,.83.09,1.03.28.2.16.3.48.3.96,0,.39-.09.68-.26.87-.23.3-.59.45-1.08.45h-6.77c.09.47.14.9.14,1.29-.02.92-.29,1.64-.82,2.16-.55.48-1.18.73-1.9.75-1.75,0-3.01-.15-3.77-.45-.69-.19-1.03-.63-1.03-1.34.02-.41.12-.72.33-.94.17-.22.47-.34.89-.35.16,0,.55.07,1.17.21.59.16,1.08.23,1.45.23.33,0,.49-.21.49-.63,0-.2-.08-.52-.23-.94h-8.58c-.45,0-.79-.1-1.01-.3s-.33-.54-.33-1.01.11-.79.33-.96c.2-.19.54-.28,1.01-.28h7.9c.06-.31.22-.53.47-.66.33-.19.72-.28,1.17-.28.67.02,1.12.21,1.34.59.06.12.11.23.14.33,1.08-.47,1.62-.89,1.62-1.27,0-.12-.09-.19-.28-.19h-8.62c-.72-.05-1.09-.45-1.12-1.22.03-.72.41-1.1,1.12-1.15ZM71.01,15.43h3.94l-.02-.02c-.5-.38-.98-.72-1.45-1.03-.83.45-1.65.8-2.46,1.05ZM71.74,11.07c.69.34,1.34.7,1.97,1.05.36-.23.68-.48.96-.75-.52-.34-1-.67-1.45-.98-.52.28-1.01.51-1.48.68Z"/>
            <path class="st0" d="M94.99,17.35c-.64-.12-.98-.48-1.01-1.08v-1.24c-.41.31-.84.62-1.29.91-1.33.88-2.65,1.55-3.96,2.04-.28.11-.59.16-.94.16s-.63-.21-.91-.63c-.14-.28-.21-.59-.21-.94s.18-.62.54-.84c1.38-.34,2.84-.91,4.38-1.69.97-.55,1.77-1.09,2.39-1.62v-1.52c-.55.48-1.16.92-1.85,1.31-1.09.67-2.16,1.19-3.21,1.55-.28.12-.59.19-.94.19-.31,0-.59-.2-.84-.61-.12-.27-.19-.57-.19-.91s.18-.6.54-.82c1.11-.25,2.29-.66,3.54-1.22.28-.14.54-.27.77-.4h-3.82c-.72-.03-1.09-.46-1.12-1.29.03-.78.41-1.2,1.12-1.24h7.2c1.14,0,1.71.53,1.71,1.59v7.22c-.02.11-.04.21-.07.3.41.03.73.12.98.26.09.05.16.09.21.14-.12-.27-.19-.56-.19-.89s.18-.61.54-.84c1.17-.28,2.42-.77,3.75-1.48.8-.48,1.45-.94,1.97-1.36v-1.24c-.42.38-.89.73-1.41,1.08-1.08.73-2.14,1.3-3.19,1.71-.27.11-.58.16-.94.16-.3,0-.57-.2-.82-.59-.14-.27-.21-.56-.21-.89s.19-.62.56-.84c1.09-.28,2.25-.74,3.47-1.38.27-.14.5-.28.7-.42h-3.7c-.72-.03-1.09-.46-1.12-1.29.03-.78.41-1.2,1.12-1.24h6.84c1.12,0,1.69.53,1.69,1.59v7.8c-.05.75-.54,1.15-1.48,1.2-.97-.05-1.48-.45-1.52-1.2v-1.88c-.27.2-.55.41-.87.61-1.16.8-2.3,1.4-3.42,1.8-.28.14-.59.21-.94.21-.23,0-.44-.11-.61-.33.08.19.12.36.12.52,0,.12-.06.41-.19.84h6.38c1.25,0,1.88.62,1.88,1.88v6c0,1.23-.62,1.85-1.88,1.85h-14.6c-1.25,0-1.88-.62-1.88-1.85v-6c0-1.25.62-1.88,1.88-1.88h4.64c.11-.36.22-.73.33-1.12.03-.08.05-.13.07-.16ZM91.42,22.37h11.81v-.82c0-.27-.12-.4-.35-.4h-11.06c-.27,0-.4.13-.4.4v.82ZM102.89,25.86c.23,0,.35-.13.35-.4v-1.03h-11.81v1.03c0,.27.13.4.4.4h11.06Z"/>
            <path class="st0" d="M112.92,7.37h8.41c1.08,0,1.62.54,1.62,1.62v4.1c0,1.08-.54,1.62-1.62,1.62h-2.41v.84h4.29c.36,0,.62.08.77.23.17.12.26.42.26.89,0,.36-.05.61-.16.75-.17.25-.46.38-.87.38h-12c-.3,0-.54-.09-.73-.28-.2-.16-.3-.44-.3-.84,0-.45.1-.76.3-.91.14-.14.38-.21.73-.21h4.22v-.84h-2.51c-1.08,0-1.62-.54-1.62-1.62v-4.1c0-1.08.54-1.62,1.62-1.62ZM112.52,24.06c.34,0,.65.09.91.28.28.16.42.44.42.84-.03.22-.09.46-.19.73-.34.92-.66,1.62-.94,2.09-.16.45-.57.68-1.24.68-.3,0-.61-.16-.94-.47-.25-.16-.38-.45-.38-.87,0-.12.07-.27.21-.42.44-.61.8-1.3,1.1-2.09.14-.52.48-.77,1.03-.77ZM112.92,18.64h8.6c.95,0,1.43.46,1.43,1.38v2.34c0,.95-.48,1.43-1.43,1.43h-2.6v3c-.12,1.36-1.26,2.08-3.4,2.16-.2,0-.41-.02-.61-.05-.23-.05-.45-.12-.63-.23-.14-.11-.27-.27-.38-.47-.03-.2-.05-.39-.05-.56,0-.44.09-.77.26-1.01.2-.22.64-.33,1.31-.33.2,0,.3-.09.3-.28v-2.23h-2.81c-.95,0-1.43-.48-1.43-1.43v-2.34c0-.92.48-1.38,1.43-1.38ZM114.11,10.28h6v-.28c0-.38-.19-.56-.56-.56h-4.85c-.39,0-.59.19-.59.56v.28ZM119.55,12.64c.38,0,.56-.2.56-.59v-.26h-6v.26c0,.39.2.59.59.59h4.85ZM119.55,21.83c.33,0,.49-.16.49-.49v-.28c0-.3-.16-.45-.49-.45h-4.66c-.33,0-.49.15-.49.45v.28c0,.33.16.49.49.49h4.66ZM120.89,24.06c.34,0,.62.09.84.28.28.28.66.77,1.12,1.45.5.78.75,1.3.75,1.55,0,.33-.06.54-.19.63-.33.41-.74.61-1.24.61-.42,0-.7-.16-.84-.49-.47-.88-1.01-1.75-1.62-2.62-.11-.12-.16-.25-.16-.38,0-.36.16-.63.47-.82.25-.14.54-.21.87-.21ZM129.79,7.18c.34.02.7.16,1.08.45.41.3.6.62.59.98,0,.31-.09.59-.28.82-1.16,1.53-2.75,2.94-4.78,4.22-.39.31-.88.47-1.48.47-.48,0-.91-.18-1.27-.54-.3-.34-.45-.73-.45-1.15,0-.16.13-.37.4-.63.5-.33.95-.64,1.36-.94,1.55-1.16,2.81-2.23,3.8-3.21.25-.25.59-.41,1.03-.47ZM130.14,13.46c.38.03.73.18,1.08.45.44.3.65.62.63.98,0,.31-.1.59-.3.84-1.12,1.52-2.67,2.91-4.64,4.2-.38.31-.86.47-1.45.47-.5,0-.95-.19-1.34-.56-.28-.36-.42-.76-.42-1.2,0-.19.12-.44.38-.75.5-.31.95-.61,1.34-.89,1.53-1.12,2.77-2.16,3.73-3.09.27-.23.6-.38,1.01-.45ZM130.52,20.12c.36.02.73.16,1.1.45.41.3.6.62.59.98,0,.31-.09.59-.26.82-1.22,1.83-2.87,3.52-4.95,5.06-.41.38-.92.56-1.55.56-.5,0-.95-.2-1.34-.59-.28-.34-.42-.74-.42-1.2,0-.17.12-.42.38-.75.53-.36,1-.71,1.41-1.05,1.62-1.36,2.95-2.61,3.98-3.75.27-.3.62-.48,1.05-.54Z"/>
            <path class="st0" d="M145.14,7.09c.61,0,1.03.12,1.27.35.36.3.54.69.54,1.17v.45h6.94c.47,0,.8.1,1.01.3.19.17.28.51.28,1.01,0,.41-.08.7-.23.89-.22.3-.57.45-1.05.45h-2.23l-.75,2.32h3.82c.47,0,.8.1,1.01.3.2.17.3.51.3,1.01,0,.41-.09.7-.26.89-.23.3-.59.45-1.05.45h-19.34c-.42,0-.75-.11-.98-.33-.22-.19-.33-.52-.33-1.01s.11-.84.33-1.03c.2-.19.53-.28.98-.28h3.89l-.61-2.32h-2.53c-.44,0-.77-.11-.98-.33-.2-.19-.3-.52-.3-1.01s.1-.84.3-1.03.53-.28.98-.28h7.22v-.45c0-.42.17-.82.52-1.2.25-.22.67-.33,1.27-.33ZM138.3,18.06h13.52c1.5,0,2.25.75,2.25,2.25v5.72c0,1.5-.75,2.25-2.25,2.25h-13.52c-1.48,0-2.23-.75-2.23-2.25v-5.72c0-1.5.74-2.25,2.23-2.25ZM139.33,21.99h11.46v-1.1c0-.25-.13-.38-.4-.38h-10.66c-.27,0-.4.12-.4.38v1.1ZM150.39,25.86c.27,0,.4-.13.4-.4v-1.12h-11.46v1.12c0,.27.13.4.4.4h10.66ZM142.68,14.03h4.85l.75-2.32h-6.23l.63,2.32Z"/>
          </g>
          <g>
            <path class="st5" d="M22.33,8.4h9.49c1.73,0,2.6.91,2.6,2.72v14.25c0,1.34-.23,2.2-.68,2.55-.45.62-1.2.94-2.23.94-1.5-.03-3.16-.23-4.97-.59-.34-.12-.62-.34-.82-.66-.2-.28-.3-.65-.3-1.1.03-.42.15-.77.35-1.05.2-.23.5-.36.89-.38.23,0,.48.04.73.12,1.11.25,2.08.38,2.91.38.56,0,.84-.2.84-.59v-3.16h-11.41c-.28,2.25-.76,4.19-1.43,5.81-.12.38-.34.69-.66.94-.23.25-.61.38-1.12.38-.73,0-1.22-.13-1.45-.4-.34-.3-.52-.73-.52-1.31.05-.16.11-.37.19-.63.97-1.81,1.59-3.65,1.85-5.51.09-1.58.14-3.02.14-4.34v-5.74c0-1.75.9-2.62,2.7-2.62h2.91ZM31.14,18.99v-2.32h-11.13v.09c0,.78-.02,1.52-.05,2.23h11.18ZM31.14,13.86v-1.22c0-.75-.31-1.12-.94-1.12h-9.45c-.5,0-.75.21-.75.63v1.71h11.13Z"/>
            <path class="st5" d="M40.14,8.4h7.71c.58,0,.98.12,1.22.35.23.19.35.58.35,1.17,0,.48-.09.84-.28,1.05-.28.36-.71.54-1.29.54h-2.16v4.76h2.6c.58,0,.99.12,1.24.35.25.19.38.58.38,1.17,0,.48-.1.84-.3,1.08-.28.33-.72.49-1.31.49h-2.6v7.88c0,.59-.15,1.02-.45,1.27-.27.3-.68.45-1.24.45s-.98-.15-1.27-.45c-.3-.25-.45-.67-.45-1.27v-7.88h-2.51c-.53,0-.95-.12-1.24-.38-.25-.22-.38-.62-.38-1.2s.12-.97.38-1.17c.27-.23.68-.35,1.24-.35h2.51v-4.76h-2.16c-.53,0-.93-.13-1.2-.4-.27-.22-.4-.62-.4-1.2s.13-.98.4-1.17c.25-.23.65-.35,1.2-.35ZM52.14,8.31c.47,0,.83.13,1.08.4.3.23.45.58.45,1.03v12c0,.34-.1.65-.3.91-.23.31-.64.47-1.22.47-.47,0-.83-.16-1.08-.47-.2-.25-.3-.55-.3-.91v-12c0-.45.12-.8.38-1.03.22-.27.55-.4,1.01-.4ZM57.49,7.09c1.05,0,1.58.44,1.59,1.31v17.91c0,.72-.23,1.29-.68,1.71-.47.5-1.12.75-1.95.75-1.33,0-2.57-.2-3.73-.59-.56-.3-.84-.79-.84-1.48,0-1.09.4-1.69,1.2-1.78.12,0,.26.02.4.07.66.22,1.27.34,1.85.38.45,0,.68-.24.68-.73V8.4c.02-.83.51-1.27,1.48-1.31Z"/>
            <path class="st5" d="M66.25,11.99l.07.84h2.34c.28,0,.47.05.56.16.11.12.16.35.16.68,0,.27-.04.46-.12.59-.12.17-.33.26-.61.26h-2.23l.07.91h3.54c-.11-.08-.21-.19-.3-.33-.09-.17-.14-.37-.14-.59,0-.27.12-.48.38-.66.56-.16,1.15-.38,1.76-.66-.48-.3-.94-.57-1.36-.82-.09-.03-.17-.08-.23-.14-.11-.12-.16-.27-.16-.45,0-.19.03-.35.09-.49-.11-.09-.2-.19-.26-.28-.08-.16-.12-.34-.12-.56s.12-.4.38-.54c.48-.14.97-.34,1.45-.59-.36-.22-.71-.42-1.05-.61-.09-.03-.17-.07-.23-.12-.11-.14-.16-.3-.16-.49,0-.33.09-.58.26-.75.19-.19.44-.28.75-.28.25,0,.45.04.61.12.64.31,1.25.63,1.83.96.47-.33.85-.66,1.15-.98.14-.12.32-.19.54-.19.23,0,.45.07.66.21.19.17.28.39.28.66s-.09.52-.26.75c-.23.22-.48.42-.73.61.38.25.73.51,1.08.77.19.22.28.48.28.77,0,.25-.06.46-.19.63.06.14.09.27.09.4,0,.27-.09.52-.28.75-.22.23-.48.45-.8.66.38.28.73.55,1.08.82.2.22.3.48.3.77,0,.23-.09.44-.26.61l-.02.02h2.84c.05-.33.09-.63.12-.91h-1.73c-.27,0-.46-.07-.59-.21-.11-.12-.16-.34-.16-.63,0-.33.07-.56.21-.7.12-.09.3-.14.54-.14h1.97c.03-.31.06-.59.09-.84h-1.97c-.27,0-.46-.07-.59-.21-.11-.12-.16-.34-.16-.66s.07-.55.21-.7c.12-.09.3-.14.54-.14h2.18c.05-.44.07-.68.07-.73,0-.14-.09-.21-.28-.21h-2.18c-.33,0-.57-.1-.73-.3-.12-.12-.19-.4-.19-.82,0-.34.07-.61.21-.8.14-.16.38-.23.7-.23h2.37c1.03,0,1.74.13,2.13.4.45.27.68.76.68,1.48,0,.3-.23,2.43-.7,6.4,1.16.12,1.73.71,1.73,1.76v1.71c0,.53-.15.9-.45,1.1-.27.25-.66.38-1.17.38-.61,0-1.05-.12-1.31-.35-.19-.19-.28-.48-.28-.87v-1.29c0-.19-.16-.28-.47-.28h-14.04c-.25,0-.38.09-.38.28v1.29c0,.48-.12.8-.35.94-.25.19-.66.28-1.24.28s-.96-.12-1.2-.35c-.28-.27-.42-.64-.42-1.12v-1.71c0-.98.52-1.55,1.55-1.71l-.4-6.26c0-.7.36-1.19,1.08-1.45.84-.3,1.55-.53,2.13-.7.23-.06.44-.09.61-.09.34,0,.67.14.98.42.3.28.45.55.45.8,0,.42-.16.67-.47.75-.28.17-.82.36-1.62.56-.44.17-.66.39-.66.66v.09h2.44c.3,0,.49.06.59.19.11.12.16.34.16.66s-.04.51-.12.63c-.12.16-.34.23-.63.23h-2.3ZM67.52,18.43h10.52c1.23.06,1.89.59,1.97,1.59,0,.42-.16.84-.49,1.27-.2.34-.48.67-.82.98h3.73c.48,0,.83.09,1.03.28.2.16.3.48.3.96,0,.39-.09.68-.26.87-.23.3-.59.45-1.08.45h-6.77c.09.47.14.9.14,1.29-.02.92-.29,1.64-.82,2.16-.55.48-1.18.73-1.9.75-1.75,0-3.01-.15-3.77-.45-.69-.19-1.03-.63-1.03-1.34.02-.41.12-.72.33-.94.17-.22.47-.34.89-.35.16,0,.55.07,1.17.21.59.16,1.08.23,1.45.23.33,0,.49-.21.49-.63,0-.2-.08-.52-.23-.94h-8.58c-.45,0-.79-.1-1.01-.3s-.33-.54-.33-1.01.11-.79.33-.96c.2-.19.54-.28,1.01-.28h7.9c.06-.31.22-.53.47-.66.33-.19.72-.28,1.17-.28.67.02,1.12.21,1.34.59.06.12.11.23.14.33,1.08-.47,1.62-.89,1.62-1.27,0-.12-.09-.19-.28-.19h-8.62c-.72-.05-1.09-.45-1.12-1.22.03-.72.41-1.1,1.12-1.15ZM71.01,15.43h3.94l-.02-.02c-.5-.38-.98-.72-1.45-1.03-.83.45-1.65.8-2.46,1.05ZM71.74,11.07c.69.34,1.34.7,1.97,1.05.36-.23.68-.48.96-.75-.52-.34-1-.67-1.45-.98-.52.28-1.01.51-1.48.68Z"/>
            <path class="st5" d="M94.99,17.35c-.64-.12-.98-.48-1.01-1.08v-1.24c-.41.31-.84.62-1.29.91-1.33.88-2.65,1.55-3.96,2.04-.28.11-.59.16-.94.16s-.63-.21-.91-.63c-.14-.28-.21-.59-.21-.94s.18-.62.54-.84c1.38-.34,2.84-.91,4.38-1.69.97-.55,1.77-1.09,2.39-1.62v-1.52c-.55.48-1.16.92-1.85,1.31-1.09.67-2.16,1.19-3.21,1.55-.28.12-.59.19-.94.19-.31,0-.59-.2-.84-.61-.12-.27-.19-.57-.19-.91s.18-.6.54-.82c1.11-.25,2.29-.66,3.54-1.22.28-.14.54-.27.77-.4h-3.82c-.72-.03-1.09-.46-1.12-1.29.03-.78.41-1.2,1.12-1.24h7.2c1.14,0,1.71.53,1.71,1.59v7.22c-.02.11-.04.21-.07.3.41.03.73.12.98.26.09.05.16.09.21.14-.12-.27-.19-.56-.19-.89s.18-.61.54-.84c1.17-.28,2.42-.77,3.75-1.48.8-.48,1.45-.94,1.97-1.36v-1.24c-.42.38-.89.73-1.41,1.08-1.08.73-2.14,1.3-3.19,1.71-.27.11-.58.16-.94.16-.3,0-.57-.2-.82-.59-.14-.27-.21-.56-.21-.89s.19-.62.56-.84c1.09-.28,2.25-.74,3.47-1.38.27-.14.5-.28.7-.42h-3.7c-.72-.03-1.09-.46-1.12-1.29.03-.78.41-1.2,1.12-1.24h6.84c1.12,0,1.69.53,1.69,1.59v7.8c-.05.75-.54,1.15-1.48,1.2-.97-.05-1.48-.45-1.52-1.2v-1.88c-.27.2-.55.41-.87.61-1.16.8-2.3,1.4-3.42,1.8-.28.14-.59.21-.94.21-.23,0-.44-.11-.61-.33.08.19.12.36.12.52,0,.12-.06.41-.19.84h6.38c1.25,0,1.88.62,1.88,1.88v6c0,1.23-.62,1.85-1.88,1.85h-14.6c-1.25,0-1.88-.62-1.88-1.85v-6c0-1.25.62-1.88,1.88-1.88h4.64c.11-.36.22-.73.33-1.12.03-.08.05-.13.07-.16ZM91.42,22.37h11.81v-.82c0-.27-.12-.4-.35-.4h-11.06c-.27,0-.4.13-.4.4v.82ZM102.89,25.86c.23,0,.35-.13.35-.4v-1.03h-11.81v1.03c0,.27.13.4.4.4h11.06Z"/>
            <path class="st5" d="M112.92,7.37h8.41c1.08,0,1.62.54,1.62,1.62v4.1c0,1.08-.54,1.62-1.62,1.62h-2.41v.84h4.29c.36,0,.62.08.77.23.17.12.26.42.26.89,0,.36-.05.61-.16.75-.17.25-.46.38-.87.38h-12c-.3,0-.54-.09-.73-.28-.2-.16-.3-.44-.3-.84,0-.45.1-.76.3-.91.14-.14.38-.21.73-.21h4.22v-.84h-2.51c-1.08,0-1.62-.54-1.62-1.62v-4.1c0-1.08.54-1.62,1.62-1.62ZM112.52,24.06c.34,0,.65.09.91.28.28.16.42.44.42.84-.03.22-.09.46-.19.73-.34.92-.66,1.62-.94,2.09-.16.45-.57.68-1.24.68-.3,0-.61-.16-.94-.47-.25-.16-.38-.45-.38-.87,0-.12.07-.27.21-.42.44-.61.8-1.3,1.1-2.09.14-.52.48-.77,1.03-.77ZM112.92,18.64h8.6c.95,0,1.43.46,1.43,1.38v2.34c0,.95-.48,1.43-1.43,1.43h-2.6v3c-.12,1.36-1.26,2.08-3.4,2.16-.2,0-.41-.02-.61-.05-.23-.05-.45-.12-.63-.23-.14-.11-.27-.27-.38-.47-.03-.2-.05-.39-.05-.56,0-.44.09-.77.26-1.01.2-.22.64-.33,1.31-.33.2,0,.3-.09.3-.28v-2.23h-2.81c-.95,0-1.43-.48-1.43-1.43v-2.34c0-.92.48-1.38,1.43-1.38ZM114.11,10.28h6v-.28c0-.38-.19-.56-.56-.56h-4.85c-.39,0-.59.19-.59.56v.28ZM119.55,12.64c.38,0,.56-.2.56-.59v-.26h-6v.26c0,.39.2.59.59.59h4.85ZM119.55,21.83c.33,0,.49-.16.49-.49v-.28c0-.3-.16-.45-.49-.45h-4.66c-.33,0-.49.15-.49.45v.28c0,.33.16.49.49.49h4.66ZM120.89,24.06c.34,0,.62.09.84.28.28.28.66.77,1.12,1.45.5.78.75,1.3.75,1.55,0,.33-.06.54-.19.63-.33.41-.74.61-1.24.61-.42,0-.7-.16-.84-.49-.47-.88-1.01-1.75-1.62-2.62-.11-.12-.16-.25-.16-.38,0-.36.16-.63.47-.82.25-.14.54-.21.87-.21ZM129.79,7.18c.34.02.7.16,1.08.45.41.3.6.62.59.98,0,.31-.09.59-.28.82-1.16,1.53-2.75,2.94-4.78,4.22-.39.31-.88.47-1.48.47-.48,0-.91-.18-1.27-.54-.3-.34-.45-.73-.45-1.15,0-.16.13-.37.4-.63.5-.33.95-.64,1.36-.94,1.55-1.16,2.81-2.23,3.8-3.21.25-.25.59-.41,1.03-.47ZM130.14,13.46c.38.03.73.18,1.08.45.44.3.65.62.63.98,0,.31-.1.59-.3.84-1.12,1.52-2.67,2.91-4.64,4.2-.38.31-.86.47-1.45.47-.5,0-.95-.19-1.34-.56-.28-.36-.42-.76-.42-1.2,0-.19.12-.44.38-.75.5-.31.95-.61,1.34-.89,1.53-1.12,2.77-2.16,3.73-3.09.27-.23.6-.38,1.01-.45ZM130.52,20.12c.36.02.73.16,1.1.45.41.3.6.62.59.98,0,.31-.09.59-.26.82-1.22,1.83-2.87,3.52-4.95,5.06-.41.38-.92.56-1.55.56-.5,0-.95-.2-1.34-.59-.28-.34-.42-.74-.42-1.2,0-.17.12-.42.38-.75.53-.36,1-.71,1.41-1.05,1.62-1.36,2.95-2.61,3.98-3.75.27-.3.62-.48,1.05-.54Z"/>
            <path class="st5" d="M145.14,7.09c.61,0,1.03.12,1.27.35.36.3.54.69.54,1.17v.45h6.94c.47,0,.8.1,1.01.3.19.17.28.51.28,1.01,0,.41-.08.7-.23.89-.22.3-.57.45-1.05.45h-2.23l-.75,2.32h3.82c.47,0,.8.1,1.01.3.2.17.3.51.3,1.01,0,.41-.09.7-.26.89-.23.3-.59.45-1.05.45h-19.34c-.42,0-.75-.11-.98-.33-.22-.19-.33-.52-.33-1.01s.11-.84.33-1.03c.2-.19.53-.28.98-.28h3.89l-.61-2.32h-2.53c-.44,0-.77-.11-.98-.33-.2-.19-.3-.52-.3-1.01s.1-.84.3-1.03.53-.28.98-.28h7.22v-.45c0-.42.17-.82.52-1.2.25-.22.67-.33,1.27-.33ZM138.3,18.06h13.52c1.5,0,2.25.75,2.25,2.25v5.72c0,1.5-.75,2.25-2.25,2.25h-13.52c-1.48,0-2.23-.75-2.23-2.25v-5.72c0-1.5.74-2.25,2.23-2.25ZM139.33,21.99h11.46v-1.1c0-.25-.13-.38-.4-.38h-10.66c-.27,0-.4.12-.4.38v1.1ZM150.39,25.86c.27,0,.4-.13.4-.4v-1.12h-11.46v1.12c0,.27.13.4.4.4h10.66ZM142.68,14.03h4.85l.75-2.32h-6.23l.63,2.32Z"/>
          </g>
        </g>
      </g>
    </g>
  </g>
</svg>